<svg width="40" height="40" viewBox="0 0 40 40" fill="none" xmlns="http://www.w3.org/2000/svg">
<path fill-rule="evenodd" clip-rule="evenodd" d="M37.34 30.0003V9.99974L19.9996 0L2.65918 9.99974V30.0003L19.9996 40L37.34 30.0003ZM20.7443 37.8519V30.0003V28.2815V20.4299L27.5528 16.5035L29.0422 15.6447L35.8507 11.7184V19.57V21.2887V29.1403L29.0422 33.0667L27.5528 33.9255L20.7443 37.8519ZM13.1919 15.2148L19.9996 19.1406L26.8072 15.2148L28.2975 14.3554L35.1051 10.4297L28.2975 6.5038L26.8072 5.64449L19.9996 1.71863L13.1919 5.64449L11.7017 6.5038L4.89405 10.4297L11.7017 14.3554L13.1919 15.2148ZM19.2549 37.8519L12.4464 33.9255L10.9571 33.0667L4.14854 29.1403V21.2887V19.57V11.7184L10.9571 15.6447L12.4464 16.5035L19.2549 20.4299V28.2815V30.0003V37.8519Z" fill="#333333"/>
</svg>
