<svg width="40" height="42" viewBox="0 0 40 42" fill="none" xmlns="http://www.w3.org/2000/svg">
<path fill-rule="evenodd" clip-rule="evenodd" d="M37.34 30.5774V10.5769L19.9996 0.577179L2.65918 10.5769V30.5774L19.9996 40.5772L37.34 30.5774Z" stroke="#333333" stroke-dasharray="2 2"/>
<path d="M15.9207 24.5978C15.0657 23.7428 15.0657 22.3528 15.9207 21.4978L17.9207 19.4978L16.9707 18.5478L14.9707 20.5478C13.5907 21.9278 13.5907 24.1678 14.9707 25.5478C16.3507 26.9278 18.5907 26.9278 19.9707 25.5478L21.9707 23.5478L21.0207 22.5978L19.0207 24.5978C18.1657 25.4528 16.7757 25.4528 15.9207 24.5978ZM18.4707 23.0478L22.4707 19.0478L21.4707 18.0478L17.4707 22.0478L18.4707 23.0478ZM19.9707 15.5478L17.9707 17.5478L18.9207 18.4978L20.9207 16.4978C21.7757 15.6428 23.1657 15.6428 24.0207 16.4978C24.8757 17.3528 24.8757 18.7428 24.0207 19.5978L22.0207 21.5978L22.9707 22.5478L24.9707 20.5478C26.3507 19.1678 26.3507 16.9278 24.9707 15.5478C23.5907 14.1678 21.3507 14.1678 19.9707 15.5478Z" fill="#333333"/>
</svg>
