<svg width="162" height="40" viewBox="0 0 162 40" fill="none" xmlns="http://www.w3.org/2000/svg">
<path d="M20.8696 13.4783L26.5218 16.7391L32.174 13.4783L26.5218 10.2174L20.8696 13.4783Z" fill="#0EA449"/>
<path d="M32.174 20L37.8261 16.7391L32.174 13.4783L26.5218 16.7391L32.174 20Z" fill="#ECEDF1"/>
<path d="M37.8261 16.7391L43.4783 13.4783L37.8261 10.2174L32.174 13.4783L37.8261 16.7391Z" fill="#FFA200"/>
<path d="M37.8261 10.2174L32.174 6.95652L26.5218 10.2174L32.174 13.4783L37.8261 10.2174Z" fill="#D71608"/>
<path d="M37.8261 16.7391L32.174 20V26.5217L37.8261 23.2609V16.7391Z" fill="#FFA200"/>
<path d="M43.4783 13.4783L37.8261 16.7391V23.2609L43.4783 20V13.4783Z" fill="#2B87FF"/>
<path d="M32.174 33.0435L37.8261 29.7826V23.2609L32.174 26.5217V33.0435Z" fill="#2B87FF"/>
<path d="M37.8261 29.7826L43.4783 26.5217V20L37.8261 23.2609V29.7826Z" fill="#2B87FF"/>
<path d="M20.8696 13.4783V20L26.5218 23.2609V16.7391L20.8696 13.4783Z" fill="#FFA200"/>
<path d="M32.174 26.5217V20L26.5218 16.7391V23.2609L32.174 26.5217Z" fill="#2B87FF"/>
<path d="M32.174 33.0435V26.5217L26.5218 23.2609V29.7826L32.174 33.0435Z" fill="#ECEDF1"/>
<path d="M20.8696 20V26.5217L26.5218 29.7826V23.2609L20.8696 20Z" fill="#ECEDF1"/>
<path d="M32.174 6.95652L32.3912 6.57992C32.2568 6.50234 32.0912 6.50234 31.9567 6.57992L32.174 6.95652ZM43.4783 13.4783H43.9131C43.9131 13.3229 43.8302 13.1793 43.6956 13.1017L43.4783 13.4783ZM43.4783 26.5217L43.6956 26.8983C43.8302 26.8207 43.9131 26.6771 43.9131 26.5217H43.4783ZM32.174 33.0435L31.9567 33.4201C32.0912 33.4977 32.2568 33.4977 32.3912 33.4201L32.174 33.0435ZM20.8696 26.5217H20.4348C20.4348 26.6771 20.5178 26.8207 20.6524 26.8983L20.8696 26.5217ZM20.8696 13.4783L20.6524 13.1017C20.5178 13.1793 20.4348 13.3229 20.4348 13.4783H20.8696ZM43.4783 13.4783L43.2611 13.1017L37.6089 16.3625L37.8261 16.7391L38.0434 17.1157L43.6956 13.8549L43.4783 13.4783ZM37.8261 16.7391L37.6089 16.3625L31.9567 19.6234L32.174 20L32.3912 20.3766L38.0434 17.1157L37.8261 16.7391ZM43.4783 26.5217L43.2611 26.1451L37.6089 29.406L37.8261 29.7826L38.0434 30.1592L43.6956 26.8983L43.4783 26.5217ZM37.8261 29.7826L37.6089 29.406L31.9567 32.6669L32.174 33.0435L32.3912 33.4201L38.0434 30.1592L37.8261 29.7826ZM32.174 20H31.7392V26.5217H32.174H32.6088V20H32.174ZM32.174 26.5217H31.7392V33.0435H32.174H32.6088V26.5217H32.174ZM43.4783 13.4783H43.0435V20H43.4783H43.9131V13.4783H43.4783ZM43.4783 20H43.0435V26.5217H43.4783H43.9131V20H43.4783ZM20.8696 26.5217H21.3044V20H20.8696H20.4348V26.5217H20.8696ZM20.8696 20H21.3044V13.4783H20.8696H20.4348V20H20.8696ZM20.8696 13.4783L20.6524 13.8549L26.3045 17.1157L26.5218 16.7391L26.7391 16.3625L21.0869 13.1017L20.8696 13.4783ZM26.5218 16.7391L26.3045 17.1157L31.9567 20.3766L32.174 20L32.3912 19.6234L26.7391 16.3625L26.5218 16.7391ZM32.174 33.0435L32.3912 32.6669L26.7391 29.406L26.5218 29.7826L26.3045 30.1592L31.9567 33.4201L32.174 33.0435ZM26.5218 29.7826L26.7391 29.406L21.0869 26.1451L20.8696 26.5217L20.6524 26.8983L26.3045 30.1592L26.5218 29.7826ZM32.174 6.95652L31.9567 7.33312L37.6089 10.594L37.8261 10.2174L38.0434 9.84079L32.3912 6.57992L32.174 6.95652ZM37.8261 10.2174L37.6089 10.594L43.2611 13.8549L43.4783 13.4783L43.6956 13.1017L38.0434 9.84079L37.8261 10.2174ZM20.8696 13.4783L21.0869 13.8549L26.7391 10.594L26.5218 10.2174L26.3045 9.84079L20.6524 13.1017L20.8696 13.4783ZM26.5218 10.2174L26.7391 10.594L32.3912 7.33312L32.174 6.95652L31.9567 6.57992L26.3045 9.84079L26.5218 10.2174ZM26.5218 10.2174L26.3045 10.594L31.9567 13.8549L32.174 13.4783L32.3912 13.1017L26.7391 9.84079L26.5218 10.2174ZM32.174 13.4783L31.9567 13.1017L26.3045 16.3625L26.5218 16.7391L26.7391 17.1157L32.3912 13.8549L32.174 13.4783ZM37.8261 16.7391L38.0434 16.3625L32.3912 13.1017L32.174 13.4783L31.9567 13.8549L37.6089 17.1157L37.8261 16.7391ZM32.174 13.4783L32.3912 13.8549L38.0434 10.594L37.8261 10.2174L37.6089 9.84079L31.9567 13.1017L32.174 13.4783ZM26.5218 16.7391H26.087V23.2609H26.5218H26.9566V16.7391H26.5218ZM26.5218 23.2609L26.7391 22.8843L21.0869 19.6234L20.8696 20L20.6524 20.3766L26.3045 23.6375L26.5218 23.2609ZM26.5218 23.2609H26.087V29.7826H26.5218H26.9566V23.2609H26.5218ZM32.174 26.5217L32.3912 26.1451L26.7391 22.8843L26.5218 23.2609L26.3045 23.6375L31.9567 26.8983L32.174 26.5217ZM37.8261 16.7391H37.3914V23.2609H37.8261H38.2609V16.7391H37.8261ZM37.8261 23.2609L37.6089 22.8843L31.9567 26.1451L32.174 26.5217L32.3912 26.8983L38.0434 23.6375L37.8261 23.2609ZM37.8261 23.2609L38.0434 23.6375L43.6956 20.3766L43.4783 20L43.2611 19.6234L37.6089 22.8843L37.8261 23.2609ZM37.8261 23.2609H37.3914V29.7826H37.8261H38.2609V23.2609H37.8261Z" fill="#333333"/>
<path d="M140.869 25.5998C140.418 26.4543 139.814 27.135 139.056 27.642C138.299 28.1489 137.429 28.4024 136.446 28.4024C135.58 28.4024 134.819 28.2503 134.163 27.9461C133.515 27.642 132.98 27.2292 132.558 26.7078C132.135 26.1864 131.819 25.578 131.608 24.8828C131.404 24.1876 131.302 23.4526 131.302 22.6777C131.302 21.9825 131.411 21.3017 131.629 20.6355C131.855 19.962 132.183 19.3573 132.612 18.8214C133.027 18.3072 133.541 17.8944 134.152 17.583C134.771 17.2644 135.463 17.1051 136.228 17.1051C137.014 17.1051 137.687 17.2282 138.248 17.4744C138.809 17.7206 139.264 18.0574 139.613 18.4847C139.948 18.8902 140.196 19.3682 140.356 19.9185C140.524 20.4689 140.607 21.0664 140.607 21.7109V22.4278H133.475C133.475 23.1303 133.541 23.7676 133.672 24.3397C133.81 24.9118 134.025 25.4151 134.316 25.8496C134.6 26.2696 134.972 26.6028 135.43 26.849C135.889 27.088 136.435 27.2075 137.069 27.2075C137.717 27.2075 138.274 27.059 138.74 26.7621C139.213 26.4579 139.668 25.9148 140.105 25.1327L140.869 25.5998ZM138.456 21.5154C138.456 21.1098 138.419 20.6753 138.346 20.2118C138.281 19.7484 138.172 19.3609 138.019 19.0495C137.851 18.7164 137.622 18.4448 137.331 18.2348C137.039 18.0248 136.664 17.9198 136.206 17.9198C135.441 17.9198 134.804 18.2384 134.294 18.8757C133.792 19.5058 133.519 20.3856 133.475 21.5154H138.456Z" fill="black"/>
<path d="M130.739 28.1199H125.486V27.403C125.653 27.3885 125.832 27.374 126.021 27.3595C126.21 27.3378 126.367 27.3088 126.491 27.2726C126.694 27.2075 126.847 27.0952 126.949 26.9359C127.051 26.7693 127.102 26.5557 127.102 26.295V13.8897C127.102 13.629 127.044 13.3864 126.927 13.1619C126.818 12.9301 126.673 12.7491 126.491 12.6187C126.359 12.5318 126.119 12.4522 125.77 12.3798C125.42 12.3073 125.14 12.2639 124.929 12.2494V11.5542L128.981 11.3044L129.134 11.4673V26.1646C129.134 26.4181 129.181 26.6281 129.276 26.7947C129.37 26.954 129.523 27.0771 129.734 27.164C129.895 27.2364 130.051 27.2907 130.204 27.3269C130.364 27.3632 130.543 27.3885 130.739 27.403V28.1199Z" fill="black"/>
<path d="M123.978 27.9244L120.221 28.1634L120.057 28.0113V27.0119L119.97 26.9902C119.591 27.4102 119.122 27.7542 118.561 28.0222C118.008 28.2901 117.436 28.4241 116.846 28.4241C116.235 28.4241 115.641 28.2901 115.066 28.0222C114.498 27.747 114.003 27.3632 113.581 26.8707C113.151 26.371 112.809 25.7699 112.554 25.0675C112.306 24.365 112.183 23.5902 112.183 22.7429C112.183 21.968 112.317 21.2329 112.587 20.5377C112.856 19.8425 113.227 19.2342 113.701 18.7128C114.145 18.2276 114.687 17.8401 115.328 17.5504C115.976 17.2608 116.635 17.1159 117.305 17.1159C117.807 17.1159 118.299 17.1811 118.779 17.3115C119.267 17.4346 119.686 17.5939 120.036 17.7894V14.0635C120.036 13.7593 119.985 13.4841 119.883 13.2379C119.781 12.9845 119.639 12.7926 119.457 12.6622C119.253 12.5246 118.976 12.4268 118.627 12.3689C118.284 12.3037 117.913 12.2567 117.513 12.2277V11.5542L121.914 11.3044L122.078 11.4673V25.9148C122.078 26.1683 122.125 26.3855 122.22 26.5666C122.322 26.7404 122.467 26.8888 122.657 27.0119C122.795 27.0988 122.995 27.1531 123.257 27.1749C123.52 27.1966 123.76 27.2111 123.978 27.2183V27.9244ZM120.036 26.0451V19.7773C119.977 19.589 119.883 19.3863 119.752 19.169C119.62 18.9517 119.457 18.7526 119.26 18.5715C119.049 18.3905 118.801 18.242 118.517 18.1262C118.233 18.0031 117.902 17.9415 117.523 17.9415C117.087 17.9415 116.682 18.0538 116.311 18.2783C115.947 18.5028 115.623 18.825 115.339 19.245C115.07 19.6506 114.855 20.1684 114.695 20.7984C114.542 21.4212 114.465 22.1128 114.465 22.8732C114.465 23.4815 114.524 24.0355 114.64 24.5352C114.757 25.0277 114.953 25.4875 115.23 25.9148C115.485 26.3203 115.809 26.6462 116.202 26.8924C116.602 27.1387 117.076 27.2618 117.622 27.2618C118.204 27.2618 118.685 27.135 119.063 26.8816C119.449 26.6281 119.773 26.3493 120.036 26.0451Z" fill="black"/>
<path d="M111.775 22.656C111.775 23.4091 111.655 24.1514 111.414 24.8828C111.174 25.607 110.832 26.2226 110.388 26.7295C109.885 27.3088 109.303 27.7397 108.64 28.0222C107.977 28.3046 107.235 28.4458 106.412 28.4458C105.728 28.4458 105.076 28.3191 104.457 28.0656C103.838 27.8049 103.288 27.4283 102.808 26.9359C102.334 26.4507 101.956 25.8605 101.672 25.1653C101.395 24.4628 101.257 23.6771 101.257 22.808C101.257 21.1352 101.745 19.7665 102.72 18.7019C103.703 17.6374 104.989 17.1051 106.576 17.1051C108.083 17.1051 109.325 17.612 110.3 18.6259C111.283 19.6325 111.775 20.9758 111.775 22.656ZM109.514 22.6777C109.514 22.1345 109.459 21.5624 109.35 20.9614C109.241 20.353 109.077 19.8389 108.859 19.4189C108.626 18.9699 108.32 18.6114 107.941 18.3434C107.562 18.0682 107.1 17.9307 106.554 17.9307C105.993 17.9307 105.513 18.0682 105.112 18.3434C104.719 18.6186 104.399 18.9952 104.151 19.4732C103.918 19.9149 103.754 20.4182 103.66 20.9831C103.565 21.548 103.518 22.0947 103.518 22.6234C103.518 23.3186 103.572 23.9631 103.682 24.5569C103.798 25.1435 103.98 25.6686 104.228 26.132C104.475 26.5955 104.785 26.9612 105.156 27.2292C105.535 27.4899 106.001 27.6202 106.554 27.6202C107.464 27.6202 108.185 27.1821 108.717 26.3059C109.248 25.4296 109.514 24.2202 109.514 22.6777Z" fill="black"/>
<path d="M100.849 22.656C100.849 23.4091 100.729 24.1514 100.489 24.8828C100.249 25.607 99.9065 26.2226 99.4623 26.7295C98.9599 27.3088 98.3774 27.7397 97.7148 28.0222C97.0522 28.3046 96.3095 28.4458 95.4867 28.4458C94.8023 28.4458 94.1506 28.3191 93.5317 28.0656C92.9128 27.8049 92.363 27.4283 91.8825 26.9359C91.4092 26.4507 91.0305 25.8605 90.7466 25.1653C90.4699 24.4628 90.3315 23.6771 90.3315 22.808C90.3315 21.1352 90.8194 19.7665 91.7951 18.7019C92.7781 17.6374 94.0632 17.1051 95.6505 17.1051C97.1578 17.1051 98.3992 17.612 99.3749 18.6259C100.358 19.6325 100.849 20.9758 100.849 22.656ZM98.5885 22.6777C98.5885 22.1345 98.5339 21.5624 98.4247 20.9614C98.3155 20.353 98.1517 19.8389 97.9332 19.4189C97.7002 18.9699 97.3944 18.6114 97.0158 18.3434C96.6371 18.0682 96.1748 17.9307 95.6287 17.9307C95.068 17.9307 94.5875 18.0682 94.187 18.3434C93.7938 18.6186 93.4734 18.9952 93.2259 19.4732C92.9929 19.9149 92.829 20.4182 92.7344 20.9831C92.6397 21.548 92.5924 22.0947 92.5924 22.6234C92.5924 23.3186 92.647 23.9631 92.7562 24.5569C92.8727 25.1435 93.0547 25.6686 93.3023 26.132C93.5499 26.5955 93.8593 26.9612 94.2307 27.2292C94.6093 27.4899 95.0753 27.6202 95.6287 27.6202C96.5389 27.6202 97.2597 27.1821 97.7912 26.3059C98.3228 25.4296 98.5885 24.2202 98.5885 22.6777Z" fill="black"/>
<path d="M89.479 22.7537C89.479 24.3614 88.9693 25.712 87.9499 26.8055C86.9305 27.8991 85.7473 28.4458 84.4003 28.4458C83.8105 28.4458 83.228 28.3553 82.6527 28.1742C82.0848 27.9932 81.5496 27.7506 81.0472 27.4464L80.239 28.6957L79.5618 28.5436C79.5982 28.0077 79.6237 27.3632 79.6383 26.61C79.6529 25.8569 79.6601 25.129 79.6601 24.4266V13.8245C79.6601 13.5783 79.6019 13.3321 79.4854 13.0858C79.3762 12.8396 79.2342 12.6622 79.0594 12.5536C78.9211 12.4594 78.6881 12.3906 78.3604 12.3472C78.04 12.2965 77.7816 12.2639 77.585 12.2494V11.5542L81.5387 11.3044L81.6916 11.4673V18.5281L81.7681 18.5498C82.2195 18.0719 82.711 17.7134 83.2425 17.4744C83.7813 17.2354 84.3092 17.1159 84.8262 17.1159C86.1514 17.1159 87.2582 17.6374 88.1465 18.6802C89.0348 19.723 89.479 21.0809 89.479 22.7537ZM87.1963 22.8298C87.1963 22.2939 87.138 21.7471 87.0215 21.1895C86.905 20.6319 86.723 20.1467 86.4754 19.7339C86.2279 19.3138 85.9038 18.9735 85.5034 18.7128C85.1029 18.4521 84.6223 18.3217 84.0617 18.3217C83.552 18.3217 83.1042 18.4231 82.7183 18.6259C82.3397 18.8214 81.9974 19.0893 81.6916 19.4297V25.6649C81.7353 25.8387 81.819 26.0415 81.9428 26.2733C82.0739 26.505 82.2486 26.7259 82.4671 26.9359C82.6855 27.1387 82.9331 27.3052 83.2098 27.4356C83.4865 27.5587 83.825 27.6202 84.2255 27.6202C85.1138 27.6202 85.831 27.193 86.3771 26.3384C86.9232 25.4839 87.1963 24.3143 87.1963 22.8298Z" fill="black"/>
<path d="M78.4223 27.9244C78.0801 28.0475 77.7779 28.1453 77.5158 28.2177C77.261 28.2974 76.9697 28.3372 76.642 28.3372C76.0741 28.3372 75.619 28.2068 75.2768 27.9461C74.9419 27.6782 74.7271 27.2907 74.6324 26.7838H74.5669C74.0936 27.3052 73.5839 27.7035 73.0378 27.9787C72.499 28.2539 71.8473 28.3915 71.0828 28.3915C70.2745 28.3915 69.6083 28.1453 69.0841 27.6528C68.5671 27.1604 68.3086 26.5159 68.3086 25.7193C68.3086 25.3065 68.3668 24.9371 68.4833 24.6113C68.5998 24.2854 68.7746 23.9921 69.0076 23.7314C69.1896 23.5141 69.4299 23.3222 69.7284 23.1556C70.027 22.9818 70.3073 22.8442 70.5694 22.7429C70.8971 22.6197 71.5597 22.3916 72.5572 22.0585C73.5621 21.7254 74.2392 21.4647 74.5887 21.2764V20.201C74.5887 20.1068 74.5669 19.9258 74.5232 19.6578C74.4868 19.3899 74.403 19.1364 74.272 18.8974C74.1264 18.6295 73.9188 18.3977 73.6494 18.2022C73.3873 17.9994 73.0123 17.8981 72.5245 17.8981C72.1895 17.8981 71.8764 17.956 71.5852 18.0719C71.3012 18.1805 71.101 18.2964 70.9845 18.4195C70.9845 18.5643 71.0172 18.7779 71.0828 19.0604C71.1556 19.3428 71.192 19.6035 71.192 19.8425C71.192 20.096 71.0755 20.3277 70.8425 20.5377C70.6168 20.7477 70.3 20.8527 69.8923 20.8527C69.5282 20.8527 69.2588 20.726 69.0841 20.4725C68.9166 20.2118 68.8328 19.9222 68.8328 19.6035C68.8328 19.2704 68.9493 18.9518 69.1823 18.6476C69.4226 18.3434 69.7321 18.0719 70.1107 17.8329C70.4384 17.6301 70.8352 17.4599 71.3012 17.3223C71.7672 17.1775 72.2223 17.1051 72.6665 17.1051C73.2781 17.1051 73.8096 17.1485 74.2611 17.2354C74.7198 17.3151 75.1348 17.4925 75.5062 17.7677C75.8775 18.0357 76.1578 18.4014 76.3472 18.8648C76.5437 19.3211 76.642 19.9113 76.642 20.6355C76.642 21.6711 76.6311 22.5908 76.6093 23.3946C76.5874 24.1912 76.5765 25.0639 76.5765 26.0126C76.5765 26.295 76.6238 26.5195 76.7185 26.686C76.8204 26.8526 76.9733 26.9938 77.1772 27.1097C77.2864 27.1749 77.4575 27.2111 77.6906 27.2183C77.9308 27.2256 78.1748 27.2292 78.4223 27.2292V27.9244ZM74.6106 22.1889C73.9916 22.3699 73.4492 22.5473 72.9832 22.7211C72.5172 22.8949 72.0839 23.1122 71.6835 23.3729C71.3194 23.6191 71.0318 23.9124 70.8206 24.2528C70.6095 24.5859 70.5039 24.9842 70.5039 25.4477C70.5039 26.0488 70.6605 26.4905 70.9736 26.773C71.2939 27.0554 71.698 27.1966 72.1859 27.1966C72.7029 27.1966 73.1579 27.0735 73.5511 26.8273C73.9443 26.5738 74.2756 26.2769 74.545 25.9365L74.6106 22.1889Z" fill="black"/>
<path d="M60.9577 28.4784C60.033 28.4784 59.1447 28.2974 58.2928 27.9353C57.4482 27.5732 56.6982 27.0518 56.0429 26.371C55.3948 25.6903 54.8779 24.8611 54.4919 23.8834C54.106 22.8986 53.9131 21.7906 53.9131 20.5594C53.9131 19.3283 54.1024 18.2131 54.481 17.2137C54.8597 16.2071 55.3839 15.3417 56.0538 14.6175C56.7164 13.9006 57.4991 13.3466 58.402 12.9555C59.3049 12.5644 60.2697 12.3689 61.2963 12.3689C62.0609 12.3689 62.7526 12.463 63.3715 12.6513C63.9904 12.8396 64.5802 13.104 65.1409 13.4443L65.5887 12.7057H66.4624L66.5607 18.2022H65.6651C65.5486 17.6663 65.3739 17.087 65.1409 16.4642C64.9079 15.8341 64.6348 15.3019 64.3217 14.8673C63.9722 14.3749 63.5572 13.9911 63.0766 13.7159C62.596 13.4335 62.0463 13.2922 61.4274 13.2922C60.7211 13.2922 60.0621 13.4479 59.4505 13.7593C58.8462 14.0707 58.3219 14.5306 57.8778 15.1389C57.4554 15.7255 57.1241 16.4714 56.8839 17.3766C56.6436 18.2819 56.5234 19.2921 56.5234 20.4074C56.5234 21.3923 56.6472 22.2975 56.8948 23.1231C57.1496 23.9414 57.51 24.6619 57.9761 25.2847C58.4421 25.9003 58.9918 26.3819 59.6253 26.7295C60.266 27.0771 60.9796 27.2509 61.766 27.2509C62.3558 27.2509 62.8982 27.1604 63.3933 26.9793C63.8885 26.7911 64.3181 26.5448 64.6821 26.2407C65.0462 25.922 65.3666 25.5599 65.6433 25.1544C65.92 24.7488 66.1457 24.3071 66.3204 23.8291L67.1396 24.2202C66.5134 25.7482 65.6833 26.8417 64.6494 27.5008C63.6154 28.1525 62.3849 28.4784 60.9577 28.4784Z" fill="black"/>
</svg>
