<svg xmlns="http://www.w3.org/2000/svg" viewBox="0 0 131.2 142.8" style="enable-background:new 0 0 131.2 142.8" xml:space="preserve"><style>.st5{fill:#d83429}.st6{fill:#ff8a65}.st7{fill:none;stroke:#ef7937;stroke-width:.925;stroke-miterlimit:10}.st8{fill:#d9413d}.st9{fill:#ff8a65}.st10{fill:none;stroke:#d83429;stroke-width:.8491;stroke-miterlimit:10}.st11{fill:#d9413d}.st12{fill:#ff8a65}.st13{fill:none;stroke:#d9413d;stroke-width:.8491;stroke-miterlimit:10}.st14{opacity:.37}.st15{clip-path:url(#SVGID_2_)}.st16{clip-path:url(#SVGID_4_)}.st17{clip-path:url(#SVGID_6_)}.st18{clip-path:url(#SVGID_8_)}.st19{clip-path:url(#SVGID_10_)}.st20{clip-path:url(#SVGID_12_)}.st21{clip-path:url(#SVGID_14_)}.st22{clip-path:url(#SVGID_16_)}.st23{clip-path:url(#SVGID_18_)}.st24{clip-path:url(#SVGID_20_)}.st25{fill:none;stroke:#d9413d;stroke-width:.925;stroke-miterlimit:10}.st26{clip-path:url(#SVGID_22_)}.st27{clip-path:url(#SVGID_24_)}.st28{clip-path:url(#SVGID_26_)}.st29{clip-path:url(#SVGID_28_)}.st30{clip-path:url(#SVGID_30_)}.st31{fill:none;stroke:#d9413d;stroke-width:.925;stroke-miterlimit:10}.st32{clip-path:url(#SVGID_32_)}.st33{clip-path:url(#SVGID_34_)}.st34{clip-path:url(#SVGID_36_)}.st35{clip-path:url(#SVGID_38_)}.st36{clip-path:url(#SVGID_40_)}.st37{fill:#d9413d}.st39{fill:#ee8423}.st40{fill:#f18a50}.st41{fill:#019788}.st42{fill:#32867a}.st43{fill:#f67258}.st44{fill:#de5956}.st45{opacity:.5}.st46{fill:#4b5d9a}.st47{opacity:.6}.st48{fill:#21a497}.st49{fill:#f7846d}.st50{fill:#26a59a}.st51,.st53{fill:none;stroke-miterlimit:10}.st51{opacity:.65;stroke:#fff;stroke-width:.2}.st53{stroke:#31458b}.st54{fill:#d83429}.st55{fill:none;stroke:#f5a800;stroke-miterlimit:10}.st55,.st56,.st57{stroke-width:.2}.st56{fill:none;stroke:#4db6ac;stroke-miterlimit:10}.st57{stroke:#ff8a65}.st57,.st58,.st59,.st60,.st61{fill:none;stroke-miterlimit:10}.st58{opacity:.65;stroke:#fff;stroke-width:.5}.st59{stroke:#ef7937}.st60{stroke:#147467}.st61{stroke:#d9413d}.st62{fill:#d9413d}.st63,.st64,.st65{fill:#ffccbc}</style><g id="Calque_1"><path d="M78.5 114.6s-24.4-.3-29.7 1.4c-5.3 1.7 13.7 6.7 23.8 5.8s17.5-4.3 14.5-5.4c-2.9-1.2-6-1.5-8.6-1.8z" style="opacity:5.000000e-02"/><path d="M63.7 115.8c-.3.3-.5 0-.9 0h-.9c-.5 0-.5-.1-.9-.1s-.7.4-.9 0c-.2-.4.2-.4.5-.8 0 0 .3-.2.6-.7.1-.2.2-.5.4-.8.1-.2.2-.5.4-.8.1-.3.3-.5.4-.8.1-.3.2-.5.3-.8.1-.3.2-.6.3-.8.1-.3.3-.5.4-.8.1-.3.1-.6.1-.9 0-.3-.1-.6-.2-.9-.1-.3-.1-.6-.2-.8-.1-.3-.3-.5-.4-.8-.1-.3-.3-.5-.4-.8-.2-.3-.4-.4-.6-.7-.2-.3-.3-.5-.5-.7-.3-.4-.6-.6-.6-.6.3-.3.4-.3.7-.6 0 0 .3.2.6.6.2.2.3.5.5.7.2.2.3.5.5.7.2.2.4.5.5.7.1.3.3.5.4.8.1.3.2.6.3.8.1.3.2.6.2.9v.9c0 .3-.1.6-.2.9l-.3.9c-.1.3-.1.6-.3.9-.1.3-.3.5-.5.8-.1.3-.3.6-.4.8-.2.3-.2.6-.4.9-.2.3-.4.6-.5.8.5.1.5 0 1 0s.6-.3 1-.1c.5.4.3.8 0 1.2zm12.2.9c-.3.3-.4.1-.8.1h-1.7c-.5 0-.5.2-.8-.1-.2-.2.1-.3.1-.5 0 0 0-.4.1-.9 0-.3.1-.6.2-.9 0-.3 0-.6.1-.9 0-.3.2-.6.2-.9 0-.3 0-.6.1-.9 0-.3.1-.6.1-.9 0-.3.1-.6.2-.9 0-.3-.1-.6-.1-.9 0-.3-.1-.6-.1-.9 0-.3-.1-.6-.2-.9-.1-.3-.1-.6-.2-.9-.1-.3-.3-.6-.4-.9-.1-.3-.2-.6-.4-.9-.3-.5-.5-.8-.5-.8.4-.3.4-.3.8-.5 0 0 .3.3.5.8.1.2.2.5.3.8.1.3.2.5.3.8.1.3.3.5.4.8.1.3.1.6.2.9.1.3.2.6.2.9v.9c0 .3 0 .6-.1.9 0 .3.1.6.1.9 0 .3-.2.6-.2.9 0 .3-.1.6-.1.9 0 .3-.1.6-.1.9 0 .3-.1.6-.1.9-.1.3-.1.6-.1.9-.1.3-.1.7-.1.9.6.1.6-.1 1.1-.1.6 0 .6-.2 1.1 0 .4-.3.2.1-.1.5z" style="fill:#d83429"/><path d="M70.6 33.4H72c.5 0 1-.1 1.5 0 .5 0 1 0 1.5.1s.9.3 1.4.4c.5.1 1 .2 1.4.3.5.1.9.3 1.4.5.5.1 1 .2 1.5.4s.9.5 1.3.8c.5.2 1 .3 1.4.5.5.3.8.7 1.2.9.4.3 1 .4 1.4.7.4.3.8.6 1.2 1 .3.3.5.9.9 1.3.3.4.8.6 1.2 1 .3.4.4.9.7 1.4.3.4.7.8.9 1.2.2.5.3 1 .5 1.5.2.4.5.8.7 1.2.1.4.1.9.2 1.3s.2.8.3 1.3c.1.4 0 .9.1 1.3v1.3c0 .4.2.8.3 1.3.1.5.3.9.3 1.4 0 .5-.3.9-.3 1.4-.1.5 0 .9-.1 1.4-.1.5-.3.9-.5 1.3s-.3.9-.5 1.3-.3.9-.5 1.3-.6.7-.9 1.1c-.3.4-.4.8-.7 1.2-.3.4-.6.7-.9 1.1-.3.4-.8.6-1.2 1-.4.3-.8.6-1.3.8-.4.3-.8.7-1.2 1-.5.3-.9.5-1.4.7-.6.3-1.2.4-1.4.6-.3.2.3.5 1.2.8.4.2.8.5 1.4.7.5.2 1 .2 1.5.4s.9.4 1.4.6c.5.2 1 .5 1.3.7.4.3.7.6 1 1 .3.3.6.7.9 1 .3.4.4.8.7 1.2.2.4.5.7.8 1.1.2.4.5.8.7 1.1.2.4.6.7.9 1.1.3.4.6.9.8 1.4.2.5.3 1 .4 1.5.1.5.1 1 .2 1.6 0 .5-.1 1-.1 1.6 0 .5.1 1 .1 1.6 0 .5.1.9.1 1.4 0 .5-.2.9-.3 1.4-.1.5-.3.9-.4 1.4-.1.5 0 1-.1 1.4-.1.5-.4.9-.5 1.3-.1.4-.3.9-.5 1.3s-.5.8-.7 1.2c-.2.4-.2.9-.5 1.3-.2.4-.4.8-.7 1.2-.2.4-.5.7-.8 1.1-.3.4-.4.8-.7 1.2-.3.4-.7.6-1 1-.3.3-.8.4-1.2.7-.4.3-.7.6-1.1.8-.4.2-.8.3-1.3.5-.4.1-.9.3-1.3.5-.4.1-.9.3-1.3.5l-1.2.6c-.4.2-.9.3-1.3.4-.4.1-.9.3-1.3.4-.4.1-.9.1-1.4.2-.4.1-.9.2-1.3.3-.4.1-.9.3-1.3.3-.4.1-.9 0-1.4.1h-2.9c-.4 0-.9.1-1.5.1-.5 0-.9.2-1.5.2-.5 0-1-.1-1.5-.1s-1-.1-1.5-.1-1-.1-1.5-.1-1 .1-1.5.1h-1.5c-.5 0-.9-.1-1.4-.1-.5 0-.9-.1-1.4-.1h-1.4c-.5 0-.9.1-1.4.1h-1.4c-.5 0-1 .1-1.4.1-.9 0-.7-.1-1.4-.1s-.6.1-1.4.2h-1.4c-.5 0-1 .2-1.4.2-.5 0-1-.2-1.4-.2-.6 0-1.1.1-1.4 0-.4-.1-.7-.6-.7-1.1 0-.4.1-.8.2-1.3l.3-1.2c.1-.5.3-.9.3-1.2 0-.2-.1-.7 0-1.4 0-.4.1-.9.1-1.4 0-.4-.1-.9-.1-1.4 0-.4.1-.9.1-1.4 0-.5.1-.9.1-1.4 0-.5.2-.9.2-1.4 0-.5-.1-.9-.1-1.4v-1.4c0-.5.1-.9.2-1.4 0-.5.2-.9.2-1.4v-1.4c0-.5-.1-1-.1-1.4v-1.4c0-.5.3-.9.4-1.4V81c0-.5 0-1 .1-1.4 0-.5 0-1 .1-1.4 0-.5-.1-1-.1-1.4 0-.5.1-1 .2-1.4 0-.5.1-1 .1-1.4 0-.5 0-1 .1-1.4 0-.4.1-.9.1-1.4 0-.4.2-.9.2-1.4 0-.5-.2-.9-.2-1.4V67c0-.5.1-.9.1-1.4v-1.4c0-.5-.1-.9-.1-1.4 0-.5-.2-.9-.2-1.4 0-.5.1-.9.1-1.4v-1.4c0-.5-.2-.9-.2-1.4 0-.5-.1-.9-.1-1.4 0-.5.2-1 .2-1.4 0-.5-.3-.9-.3-1.4 0-.5-.1-.9-.1-1.4 0-.5.2-1 .2-1.4 0-.5-.1-.9-.2-1.4 0-.5.1-1 0-1.4 0-.5-.2-.9-.2-1.4 0-.5 0-1-.1-1.4 0-.5-.1-.9-.1-1.4 0-.5-.2-.9-.2-1.4 0-.5.2-1 .1-1.4 0-.5 0-1-.1-1.4 0-.5-.3-.9-.3-1.4 0-.5.2-1 .2-1.4 0-.5-.1-1-.1-1.4 0-.5-.1-1-.2-1.4V32c0-.7-.1-1.3 0-1.4.2-.5.7-.7 1.2-.7.4 0 .8.2 1.3.3.4.1.9.1 1.4.2.5.1.9.3 1.3.3s.8-.2 1.3-.3h1.4c.5 0 .9.1 1.4.1.5 0 .9-.2 1.4-.2.6 0 1 .3 1.3.4.4.1.8.4 1.1.9.2.4.4 1 .5 1.4.2.8-.4 1.3.3 1.6.8.3.9 0 1.7 0h3.2c.8 0 .6-.1 1.5-.1.4 0 1-.1 1.5-.1h3c.8-1.2 1.3-1 1.8-1z" style="fill:#ff8a65"/><path d="M63.6 59.6s-2.8-2.9-6.4-.8c-3.7 2.1-3.2 7.6.5 8.7s6.1-.3 6.7-2c.4-1.5.8-4.4-.8-5.9z" style="fill:#fff"/><circle cx="60.1" cy="64.1" r="2.1"/><path d="M79.4 59.6s-2.8-2.9-6.4-.8-3.2 7.6.5 8.7 6.1-.3 6.7-2c.4-1.5.8-4.4-.8-5.9z" style="fill:#fff"/><circle cx="75.9" cy="64.1" r="2.1"/><path d="M67.1 78.3c-3.2 0-4.2-4-4.2-4.1l.9-.2s.9 3.4 3.3 3.4 3.3-3.4 3.3-3.4l.9.2c0 .1-1 4.1-4.2 4.1zM33 63.2c-.1-.3-.1-.6-.1-.9-.1-.3-.1-.6-.2-.9-.1-.3-.3-.5-.4-.8-.1-.3 0-.6-.1-.9l-.3-.9c0-.1.2.1.2.1.3-.3.3-.3.5-.7.2-.4 0-.5.2-.9s.4-.3.6-.7l.4-.8.4-.8c.2-.4.6-.4.4-.8-.1-.4-.4-.6-.9-.5-.4.1-.3.4-.5.7-.2.4-.1.4-.3.8-.2.4-.2.4-.4.7l-.4.8c-.2.4-.2.4-.4.7h-.1c-.1-.3 0-.7 0-1-.1-.3-.2-.6-.2-.9-.1-.4-.1-.7-.2-.9-.1-.6 0-1 0-1.1-.5 0-.5.1-.9.1 0 0 0 .4.1 1.1v1.1c0 .3.1.7.2 1.1-.4 0-.4-.2-.8-.4s-.3-.4-.6-.6c-.4-.2-.4-.5-.8-.4-.4.2-.5.4-.4.9.1.4.3.2.6.4.4.2.4.2.7.4.4.2.3.3.7.5.4.2.5 0 .8.3.1.3 0 .7.1 1 .1.3.2.5.3.8.1.3 0 .6.1.9.1.3.2.5.3.8.1.3 0 .6.1.9.1.3.2.6.2.9.1.3.3.5.4.8.1.3.3.5.5.8.1.3.2.6.4.8.2.3.3.5.5.8.2.3.3.5.5.8.2.2.3.5.5.8.2.2.4.5.6.7.2.2.5.3.8.6.2.2.3.6.5.8l.7.7c.2.2.5.3.8.5.2.2.4.5.6.7.2.2.5.4.7.6.2.2.6.2.9.4.2.2.4.4.7.6.3.2.5.4.7.6.3.2.5.4.7.5.3.2.5.4.8.5.3.2.6.3.8.4.3.2.6.4.8.5.4.3.7.5.7.5.3-.4.3-.4.5-.8 0 0-.4-.2-.9-.5-.2-.1-.4-.5-.7-.6-.2-.2-.5-.3-.8-.5-.2-.2-.5-.4-.7-.5-.2-.2-.5-.4-.7-.6-.2-.2-.6-.2-.9-.4-.2-.2-.4-.5-.7-.7-.2-.2-.5-.3-.8-.5-.2-.2-.4-.4-.7-.6-.2-.2-.4-.5-.7-.7-.2-.2-.6-.3-.8-.5-.2-.2-.4-.5-.6-.7-.2-.2-.3-.5-.6-.8-.2-.2-.4-.5-.6-.7-.2-.2-.5-.4-.7-.6-.2-.2-.4-.5-.6-.8-.2-.3-.4-.5-.5-.8-.2-.3-.3-.5-.5-.8-.1-.3-.2-.6-.4-.9.1.1 0-.2-.1-.5zm56.9 9.7c-.4.2-.3.4-.7.6 0 0 .2.3.3.8.1.3.2.6.2.9 0 .3-.1.6-.1.9 0 .3 0 .6-.1.9-.1.3-.1.6-.2.9-.1.3-.3.5-.4.8l-.3.9c-.1.3-.4.5-.5.8-.2.3-.3.6-.5.9-.2.3-.4.5-.6.8-.2.3-.3.6-.5.8-.2.3-.4.5-.6.8-.2.3-.4.5-.6.7-.2.3-.3.6-.5.8-.4.2-.5 0-.9.1s-.4.2-.9.3c-.4.1-.4.1-.9.2-.4.1-.4.2-.9.3-.4.1-.6-.2-.8.2-.2.4-.2.6.2.9.3.2.4-.2.8-.3.4-.1.4 0 .8-.1s.4-.3.7-.4c.4-.1.4-.2.8-.2-.2.2-.3.5-.5.7l-.6.6c-.2.2-.3.5-.5.6-.3.4-.7.6-.7.6l.7.7s.4-.3.8-.7c.2-.2.3-.5.6-.8.2-.2.5-.4.7-.7.2-.2.3-.5.6-.8.3.3.2.4.3.8l.2.8.2.8c.1.4-.1.6.2.7.4.2.6.2.9-.2.2-.4-.2-.5-.3-.9-.1-.5 0-.5-.2-1l-.2-1c-.1-.5-.3-.4-.4-.9.2-.2.4-.5.6-.8.2-.2.3-.6.5-.8.2-.3.5-.5.7-.7.2-.3.3-.6.5-.8.2-.3.4-.5.5-.8.2-.3.4-.5.6-.8.2-.3.2-.6.4-.9.1-.3.3-.6.4-.9.1-.3.3-.6.4-.9.1-.3.3-.6.3-.9.1-.3.1-.6.1-.9 0-.3.1-.7.1-.9 0-.3-.1-.7-.1-.9-.1-.4-.2-.7-.3-.9-.1-.3-.3-.7-.3-.7z" style="fill:#d83429"/><g style="opacity:.65"><path d="M83 97.8zm-.1-.1s0 .1 0 0c0 .1 0 .1 0 0 0 0 0 .1 0 0 0 .1.1.1 0 0zm-.7 0zm-.4-.1zm-.1 0zm.5.1zm.6.1zm-.4-.2zm.2 0s0 .1 0 0c0 .1 0 .1 0 0zm.2.1zm-.5-.1zm-4.1.1zm-.1-.2zm3.5 0zm-1.2 0s-.1.1 0 0c0 .1 0 0 0 0zm2.4.3zm-2.4-.2zm.9 0zm.2 0zm-.3 0zm-.2 0zm-2.4.1zm4.2.1zm-1.6 0c-.1 0-.1 0 0 0zm-1.7-.1zm1.6.1zm-2.5-.1z" style="fill:#fff"/><path d="M78.5 97.7s.1 0 0 0c.1-.1.1 0 .1-.1h.1v.1h.1s0 .1.1 0c0 0 0-.1 0 0 0 0 0-.1 0 0h.3s0-.1 0 0h.1l.1.1h.5s.1.1.1 0h.1c0 .1.1 0 .1 0h.2s0-.1.1 0h.3c0 .1.1 0 .1 0h.1s.1-.1.1 0h.1v-.1.1h.4c0 .1.1 0 .1 0 0-.1 0 0 .1-.1v.1h.1l.1-.1c0-.1 0 0-.1 0v.1-.1h-.2v.1h-.2s-.1.1-.1 0v-.1.1-.1h-.1v.1-.1h-.1s0 .1-.1 0c0-.1-.1 0-.1 0h-.1s0 .1 0 0h-.2v-.1h-.2v-.1h-.1c0-.1-.1 0-.1-.1h-.1v.1h-.4v-.1h-.2c0-.1-.1 0-.1 0h-.1v.1h-.3v.1H79v-.1s0 .1-.1 0v-.1s-.1 0-.1.1h-.1c-.1-.1-.1.1-.1 0h-.2s0-.1-.1 0v-.1.2-.1.1h.1c0 .1 0 .1.1.1-.1 0-.1-.1 0 0-.1 0-.1 0 0 0-.1 0-.1 0 0 0-.1 0-.1 0 0 0-.1-.1 0 0 0 0zm.4 0zm.1 0c-.1-.1-.1-.1 0 0-.1-.1 0-.1 0 0zm-.1-.2zm0 0zm3.3.2zm-2.7 0zm2.9.1zm.1 0zm.1 0zm-1.1 0zm.3-.1zm-.6.1zm.6-.1zm1.1.1zm0 0zm0 0zm-.1 0zm0 0zm-.1-.1c0-.1 0 0 0 0zm-.1 0c0-.1 0-.1 0 0 0-.1 0-.1 0 0zm-.5-.1zm-.1.2v-.1zm-.1-.2zm-.8 0s0-.1 0 0zm-.4 0zm-1.1-.1z" style="fill:#fff"/></g><g style="opacity:.65"><path d="M63.9 90.4zm0-.1c0 .1-.1.1 0 0 0 .1 0 .1 0 0 0 .1 0 .1 0 0 0 .1 0 .1 0 0 0 .1 0 0 0 0zm-.7 0zm-.5-.1zm0 0zm.5.1zm.6.1zm-.4-.2zm.1 0s0 .1 0 0c0 .1 0 .1 0 0 0 .1 0 .1 0 0zm.2.1zm-.4-.1zm-4.1.1zm-.2-.1s0-.1 0 0zm3.5 0zm-1.2-.1c0 .1 0 .1 0 0 0 .1 0 .1 0 0zm2.5.3zm-2.5-.2zm.9 0zm.2 0zm-.3 0zm-.1 0zm-2.4.1c-.1 0-.1 0 0 0-.1 0-.1 0 0 0zm4.2.1zm-1.7 0zm-1.7-.1zm1.6.1zm-2.5-.1zm-.1 0c.1 0 0 0 0 0 .1 0 .1 0 0 0 .1 0 .1 0 0 0 .1-.1.1 0 .1-.1h.1v.1h.1s0 .1.1 0c0 0 0-.1 0 0 0 0 0-.1 0 0h.3s0-.1 0 0h.1l.1.1h.5s.1.1.1 0h.1c0 .1.1 0 .1 0h.2s0-.1.1 0h.3c0 .1.1 0 .1 0h.1s.1-.1.1 0h.1v-.1.1h.4c0 .1.1 0 .1 0 0-.1 0 0 .1-.1v.1h.1l.1-.1c0-.1 0 0-.1 0v.1-.1h-.2v.1h-.2s-.1.1-.1 0v-.1.1-.1h-.1v.1-.1h-.1s0 .1-.1 0c0-.1-.1 0-.1 0h-.1s0 .1 0 0h-.2v-.1h-.2v-.1h-.1c0-.1-.1 0-.1-.1h-.1v.1h-.4V90h-.2c0-.1-.1 0-.1 0h-.1v.1H60v.1h-.1v-.1s0 .1-.1 0V90s-.1 0-.1.1h-.1c-.1-.1-.1.1-.1 0h-.2s0-.1-.1 0V90v.2-.1.1h.1c0 .1 0 .1.1.1-.1 0-.1 0 0 0 0 0-.1 0 0 0-.1 0 0 0 0 0zm.5 0zm0 0s0-.1 0 0zm-.1-.2zm0 0zm3.4.2zm-2.8 0zm3 .1zm.1 0zm0 0zm-1.1 0zm.4-.1s0 .1 0 0zm-.7.1z" style="fill:#fff"/><path d="M62.7 90.3c.1.1.1.1 0 0 .1 0 .1 0 0 0zm1.1.1zm0 0zm0 0zm-.1 0zm0 0zm-.1-.1c0-.1 0 0 0 0zm-.1 0s0-.1 0 0zm-.5-.1zm-.1.2zm0-.2h-.1zm-.9 0zm-.4 0zm-1.1-.1z" style="fill:#fff"/></g><path d="M59.2 96.9zm-.1-.1v.1-.1c.1 0 .1.1 0 0 .1.1.1.1 0 0 .1 0 .1 0 0 0zm-.7-.1c.1 0 0 0 0 0zm-.4-.1zm-.1 0zm.5.1zm.6.2zm-.4-.3zm.2 0s0 .1 0 0c0 .1 0 .1 0 0 0 .1 0 0 0 0zm.2.1zm-.5-.1zm-4.1.3zm-.1-.3zm3.5-.1zm-1.2 0v.1-.1zm2.4.4zm-2.4-.3zm.9-.1zm.2.1zm-.3 0zm-.1 0zm-2.5.3c0-.1 0-.1 0 0zm4.2 0zm-1.6.1c-.1 0 0 0 0 0zm-1.7-.1zm1.6.1zm-2.5-.2zm-.1.1v-.1.1s0-.1 0 0c.1-.1.1 0 0 0l.1-.1v-.1.1s0-.1.1-.1v.2h.1v-.1c0-.1 0 .2.1.1v-.1.1-.1c0 .1 0 0 0 0v.1l.1-.1v.1h.1v-.2s.1-.1.1 0v-.1s.1 0 .1.1c0-.1 0 0 .1-.1 0 .1 0 .1.1.1v-.1.1-.1.2c0-.1 0 .1 0 0h.2v-.1.1-.1.2s0 .1 0 0h.1v-.1s0 .1.1.1v-.1.1h.1c0-.1.1.1.1 0v-.1.1c0-.1.1 0 .1 0 0 .1.1 0 .1.1.1 0 .1.1.2.1 0 0 0-.2.1-.1v.1c.1-.1.1 0 .2-.1v.1s0-.1 0 0h.1V97c0 .1 0 .1 0 0v.1-.1c0 .1.1-.1.1.1l.1-.1v.1l.1-.1v.1h.1V97v.2-.1.1-.2l.1-.1v.1-.1.1-.1.2-.1h.1v.1l.1-.1c0-.1 0 .1 0 0 0 0 0 .1 0 0l.1-.1v-.1c0 .1.1-.1.1 0v-.1.1c0 .1 0-.1 0 0v.1s0-.1 0 0v.1c0-.1 0 0 .1-.1v.2-.1c0-.1 0 .1.1 0 0 0 0-.1.1-.1v.2s0-.1 0 0v.1-.1.1-.1.1c0-.1 0 0-.1 0v-.1.1-.1s0-.1 0 0c0 0 0 .1 0 0v.1-.1.2-.1.1c0-.1 0 0 0 0v-.1c0 .1 0 0 0 0 0 .1 0 0 0 0l-.1-.1v.1-.2s0 .1-.1 0v.2-.3.1-.1.2c0 .1-.1 0-.1 0l-.1.1v-.1s0-.1 0 0V97c0-.1-.1.1-.1 0v.1-.1.2-.2h-.1v.1-.2.1-.1.1-.1.1c0 .1 0-.1 0 0v-.1.3c0-.1 0 0 0 0v-.1c0-.1 0 .1-.1 0V97v.1s0 .1-.1.1v-.1.2c0-.1-.1 0-.1-.1h-.1v.1-.2h-.1c0 .1 0 .1-.1.1v-.1.1-.1c0-.1 0 0 0 0s0 .1-.1.1c0 .1 0 0 0 0v-.1s0 .1-.1.1c0-.1 0-.1.1-.1 0 .1 0 .1-.1.1 0-.1-.1 0-.1-.2 0 .1-.1 0-.1 0v.1-.3s0 .1 0 0v.1c0 .1 0-.1-.1 0 0 0-.1 0-.1.1v-.1s-.1.1-.1 0c0 0 0 .1 0 0l-.1.1v-.1l-.1.1c0-.1-.1 0-.1-.1v.1s0 .1 0 0v-.1.1c0-.1-.1 0-.1-.1v-.1h-.1v.2-.1s-.1-.1-.1 0c0 0-.1-.1-.1.1 0-.1 0 0-.1 0v-.1.2-.1.1s0 .1-.1 0V97s0 .1-.1.1v.2-.2s-.1 0-.1.1l-.1.1v-.1c0-.1-.1.2-.1 0-.1-.1-.1.1-.2 0v.1-.1.1s0-.1-.1-.1v-.1.3-.2.1-.1s0 .1 0 0v-.1.1-.1.1c0-.1 0 0 .1-.1-.2-.3-.2-.2-.1-.2-.1-.1-.1-.1-.1-.2 0 .1 0 .1.1.2-.1-.1 0-.1 0-.1v.1-.1.1zm.4-.1zm.1 0zm-.1-.4zm0 .1zm3.4.2zm-2.8.2zm3 0zm0 0zm.1 0zm-1.1 0c0 .1 0 .1 0 0zm.3-.1c0 .1 0 .1 0 0zm-.6.2zm.6-.1s0-.1 0 0zm1.1.1v-.1zm0-.1zm0 0zm-.1 0zm0 0s0 .1 0 0c0 .1 0 0 0 0zm-.1-.2c0-.1 0 0 0 0zm-.1 0c0-.1 0-.1 0 0 0-.1 0-.1 0 0zm-.5-.1zm-.1.3zm-.1-.4zm-.8 0c0 .1 0 0 0 0zm-.4.1c0-.1 0-.1 0 0zm-1.1-.2zm17-3.4zm0-.1v.1c-.1 0 0 0 0-.1 0 .1 0 .1 0 0zm-.7-.1zm-.5-.1zm0 0s0-.1 0 0zm.5.1zm.6.2zm-.4-.3zm.1 0s0 .1 0 0c0 .1 0 .1 0 0 0 .1 0 0 0 0zm.2.1zm-.4-.1zm-4.1.3zm-.2-.3zm3.5-.1zm-1.2 0v.1-.1zm2.5.4c-.1 0-.1 0 0 0-.1 0 0 0 0 0zm-2.5-.3zm.9-.1zm.2.1zm-.3 0zm-.1 0zm-2.5.3c0-.1 0-.1 0 0 0-.1 0 0 0 0zm4.3 0zm-1.7.1zm-1.7-.1zm1.6.1zm-2.5-.2zm-.1.1v-.1.1c.1 0 .1-.1 0 0 .1-.1.1-.1 0 0l.1-.1v-.1.1s0-.1.1-.1v.2h.1v-.1c0-.1 0 .2.1.1v-.1.1-.1c0 .1 0 0 0 0v.1l.1-.1v.1h.1v-.2s.1-.1.1 0v-.1s.1 0 .1.1c0-.1 0 0 .1-.1 0 .1 0 .1.1.1v-.1.1-.1.2c0-.1 0 .1 0 0h.2v-.1.1-.1.2s0 .1 0 0h.1v-.1s0 .1.1.1v-.1.1h.1c0-.1.1.1.1 0v-.1.1c0-.1.1 0 .1 0 0 .1.1 0 .1.1.1 0 .1.1.2.1 0 0 0-.2.1-.1v.1c.1-.1.1 0 .2-.1v.1s0-.1 0 0h.1v-.1c0 .1 0 .1 0 0v.1-.1c0 .1.1-.1.1.1l.1-.1v.1l.1-.1v.1h.1v-.1.2-.1.1-.2l.1-.1v.1-.1.1-.1.2-.1h.1v.1l.1-.1c0-.1 0 .1 0 0 0 0 0 .1 0 0l.1-.1v-.1c0 .1.1-.1.1 0v-.1.1c0 .1 0-.1 0 0v.1s0-.1 0 0v.1c0-.1 0 0 .1-.1v.2-.1c0-.1 0 .1.1 0 0 0 0-.1.1-.1v.2s0-.1 0 0v.1-.1.1-.1.1c0-.1 0 0-.1 0v-.1.1-.1s0-.1 0 0c0 0 0 .1 0 0v.1-.1.2-.1.1c0-.1 0 0 0 0v-.1c0 .1 0 0 0 0 0 .1 0 0 0 0l-.1-.1v.1-.2s0 .1-.1 0v.2-.3.1-.1.2c0 .1-.1 0-.1 0l-.1.1v-.1s0-.1 0 0v-.1c0-.1-.1.1-.1 0v.1-.1.2-.2h-.1v.1-.2.1-.1.1-.1.1c0 .1 0-.1 0 0V93v.3c0-.1 0 0 0 0v-.1c0-.1 0 .1-.1 0v-.1.1s0 .1-.1.1v-.1.2c0-.1-.1 0-.1-.1h-.1v.1-.2h-.1c0 .1 0 .1-.1.1v-.1.1-.1c0-.1 0 0 0 0s0 .1-.1.1c0 .1 0 0 0 0v-.1s0 .1-.1.1c0-.1 0-.1.1-.1 0 .1 0 .1-.1.1 0-.1-.1 0-.1-.2 0 .1-.1 0-.1 0v.1-.3s0 .1 0 0v.1c0 .1 0-.1-.1 0 0 0-.1 0-.1.1V93s-.1.1-.1 0c0 0 0 .1 0 0l-.1.1V93l-.1.1c0-.1-.1 0-.1-.1v.1s0 .1 0 0V93v.1c0-.1-.1 0-.1-.1v-.1h-.1v.2-.1s-.1-.1-.1 0c0 0-.1-.1-.1.1 0-.1 0 0-.1 0V93v.2-.1.1s0 .1-.1 0v-.1s0 .1-.1.1v.2-.2s-.1 0-.1.1l-.1.1v-.1c0-.1-.1.2-.1 0-.1-.1-.1.1-.2 0v.1-.1.1s0-.1-.1-.1v-.1.3-.2.1-.1s0 .1 0 0v-.1.1-.1.1c0-.1 0 0 .1-.1-.2-.3-.2-.2-.1-.2-.1-.1-.1-.1-.1-.2.1.1 0 .1.1.2-.1-.1 0-.1 0-.1v.1-.1.1zm.5-.1c-.1 0-.1 0 0 0-.1 0-.1 0 0 0zm0 0s0-.1 0 0zm-.1-.4zm0 .1zm3.4.2zm-2.8.2zm3 0zm.1 0zm0 0zm-1.1 0zm.4-.1c0 .1 0 .1 0 0zm-.7.2z" style="fill:#6594d9"/><path d="M71.6 92.9c0 .1.1.1 0 0 .1 0 0 0 0 0zm1.1.1zm0 0zm0 0zm-.1 0zm0 0s0 .1 0 0c0 .1 0 0 0 0zm-.1-.2c0-.1 0 0 0 0zm-.1 0c0-.1 0-.1 0 0 0-.1 0-.1 0 0zm-.5-.1zm-.1.3zm0-.4h-.1zm-.9 0c0 .1 0 0 0 0zm-.4.1c0-.1 0-.1 0 0zm-1.1-.2z" style="fill:#6594d9"/><path d="M80.6 9.8c-.4 0-.7.1-1 .2-.1-.8-.5-1.5-1.1-2-1.1-.9-2.8-.9-3.9 0-.2-.5-.5-1-.9-1.3-1.3-1.1-3.2-.9-4.3.4-.2.2-.3.5-.5.8-1.3-.8-3-.6-4 .6-.5.6-.7 1.3-.7 2-.4-.4-1-.6-1.6-.6-1.4 0-2.6 1.2-2.6 2.6s1.2 2.6 2.6 2.6h.4v.5c0 2.3 1.9 4.2 4.2 4.2.7 0 1.3-.2 1.8-.4.5 1.1 1.7 1.8 3 1.7 1-.1 1.8-.6 2.3-1.4.4.2.9.3 1.4.3 2.3 0 4.2-1.9 4.2-4.2 0-.2 0-.5-.1-.7.2.1.5.1.7.1 1.4 0 2.6-1.2 2.6-2.6S82 9.8 80.6 9.8zM59.3 15c-.2 0-.5.1-.7.1-.1-.5-.3-1-.7-1.3-.8-.6-1.8-.6-2.6 0-.1-.3-.3-.6-.6-.9-.9-.7-2.1-.6-2.9.3-.1.2-.2.3-.3.5-.9-.6-2-.4-2.7.4-.3.4-.5.8-.5 1.3-.3-.2-.7-.4-1.1-.4-.9 0-1.7.8-1.7 1.7 0 .9.8 1.7 1.7 1.7h.2v.3c0 1.5 1.3 2.8 2.8 2.8.4 0 .8-.1 1.2-.3.4.7 1.1 1.2 2 1.1.6-.1 1.2-.4 1.5-.9.3.1.6.2.9.2 1.5 0 2.8-1.3 2.8-2.8v-.5c.2 0 .3.1.5.1.9 0 1.7-.8 1.7-1.7.2-.9-.6-1.7-1.5-1.7zM51 24.3V24c0-1.2-1-2.2-2.2-2.2-.5 0-1 .2-1.4.5-.2-.1-.5-.1-.8-.1-1.2 0-2.2 1-2.2 2.2 0 1 .7 1.8 1.6 2.1v.2c0 .7.6 1.3 1.3 1.3.3 0 .6-.1.8-.3.4.4 1 .7 1.6.7 1.2 0 2.2-1 2.2-2.2.1-.9-.3-1.5-.9-1.9z" style="fill:#ffccbc"/></g></svg>