<svg xmlns="http://www.w3.org/2000/svg" viewBox="0 0 131.2 142.8" style="enable-background:new 0 0 131.2 142.8" xml:space="preserve"><style>.st5{fill:#d83429}.st6{fill:#ff8a65}.st7{fill:none;stroke:#ef7937;stroke-width:.925;stroke-miterlimit:10}.st8{fill:#d9413d}.st9{fill:#ff8a65}.st10{fill:none;stroke:#d83429;stroke-width:.8491;stroke-miterlimit:10}.st11{fill:#d9413d}.st12{fill:#ff8a65}.st13{fill:none;stroke:#d9413d;stroke-width:.8491;stroke-miterlimit:10}.st14{opacity:.37}.st15{clip-path:url(#SVGID_2_)}.st16{clip-path:url(#SVGID_4_)}.st17{clip-path:url(#SVGID_6_)}.st18{clip-path:url(#SVGID_8_)}.st19{clip-path:url(#SVGID_10_)}.st20{clip-path:url(#SVGID_12_)}.st21{clip-path:url(#SVGID_14_)}.st22{clip-path:url(#SVGID_16_)}.st23{clip-path:url(#SVGID_18_)}.st24{clip-path:url(#SVGID_20_)}.st25{fill:none;stroke:#d9413d;stroke-width:.925;stroke-miterlimit:10}.st26{clip-path:url(#SVGID_22_)}.st27{clip-path:url(#SVGID_24_)}.st28{clip-path:url(#SVGID_26_)}.st29{clip-path:url(#SVGID_28_)}.st30{clip-path:url(#SVGID_30_)}.st31{fill:none;stroke:#d9413d;stroke-width:.925;stroke-miterlimit:10}.st32{clip-path:url(#SVGID_32_)}.st33{clip-path:url(#SVGID_34_)}.st34{clip-path:url(#SVGID_36_)}.st35{clip-path:url(#SVGID_38_)}.st36{clip-path:url(#SVGID_40_)}.st39{fill:#ee8423}.st40{fill:#f18a50}.st41{fill:#019788}.st42{fill:#32867a}.st43{fill:#f67258}.st44{fill:#de5956}.st45{opacity:.5}.st46{fill:#4b5d9a}.st47{opacity:.6}.st48{fill:#21a497}.st49{fill:#f7846d}.st50{fill:#26a59a}.st51{opacity:.65;fill:none;stroke:#fff;stroke-width:.2;stroke-miterlimit:10}.st52{fill:#ffccbc}.st53{fill:none;stroke:#31458b;stroke-miterlimit:10}.st54{fill:#d83429}.st55{fill:none;stroke:#f5a800;stroke-miterlimit:10}.st55,.st56,.st57{stroke-width:.2}.st56{fill:none;stroke:#4db6ac;stroke-miterlimit:10}.st57{stroke:#ff8a65}.st57,.st58,.st59,.st60,.st61{fill:none;stroke-miterlimit:10}.st58{opacity:.65;stroke:#fff;stroke-width:.5}.st59{stroke:#ef7937}.st60{stroke:#147467}.st61{stroke:#d9413d}.st62{fill:#d9413d}.st63,.st64,.st65{fill:#ffccbc}</style><g id="Calque_1"><path d="M76.1 112.6s-24.4-.3-29.7 1.4c-5.3 1.7 13.7 6.7 23.8 5.8s17.5-4.3 14.5-5.4c-2.9-1.2-6-1.5-8.6-1.8z" style="opacity:5.000000e-02"/><path d="m110.2 34.1-.7-.8-3.1 2.7c.2-1.9 0-3.3 0-3.4l-1 .2s.2 1.5 0 3.5l-3.2-2.9-.7.7 3.6 3.4c-.4 1.8-1.1 4-2.7 5.9-3.9 4.9-6.9 6.9-6.9 6.9l.6.8c.1-.1 3.1-2.1 7.1-7.1 1.7-2.2 2.6-4.5 2.9-6.5l4.1-3.4zm-33 83.1c-.4.2-.5-.1-.9-.3-.4-.2-.4-.2-.9-.4-.4-.2-.4-.2-.9-.4-.4-.2-.4-.2-.9-.4-.4-.2-.4-.2-.9-.4s-.7.1-.9-.3c-.3-.4 0-.5 0-1v-2c0-.5-.1-.5-.1-1v-2.1c0-.6-.3-.6 0-1s.6-.4 1 0c.3.3 0 .5 0 1v2.9c0 .5-.1.5-.1 1v1c0 .5-.3.6 0 1s.5.2.9.4c.5.2.5.2.9.4.5.2.5.2 1 .3.5.2.5.2.9.4.5.2.6 0 .9.4.7 0 .4.3 0 .5zm-22.6-1c-.5-.2-.6-.4-.4-.9.2-.5.4-.2.9-.4s.5-.1 1-.3c.5-.2.5-.2.9-.4.5-.2.5-.2.9-.4.5-.2.6 0 .9-.4.3-.4 0-.5 0-.9v-3.6c0-.5-.3-.6 0-.9.4-.3.7-.4 1 0 .4.4 0 .5 0 1.1 0 .5-.1.5-.1 1.1 0 .5.1.5.1 1.1v2.2c0 .6.3.6 0 1.1-.3.4-.4.2-.9.4-.4.2-.4.2-.9.3-.4.2-.4.2-.9.4-.4.2-.5.1-.9.3-.4.2-.5.1-.9.4-.3-.3-.3 0-.7-.2z" style="fill:#d83429"/><path d="M31.9 50.2c.1.1.2.1.4.1l.1-.1c5.3-4.3 11.1-7.8 17-11.2 5.1-2.9 10.2-8 15.9-9.4l.1-.1s-12.3-9.5-20 4.3c-8.5-1-11.5.4-13.8 4.2-2.2 3.9-2.8 10 .3 12.2z" style="fill:#d9413d"/><path d="M77.3 62.4c-.9-.4-1.7-.9-2.5-1.4-.8-.6-1.6-1.1-2.3-1.6-.8-.6-1.4-1.4-2.2-1.8-.9-.4-1.8-.4-2.8-.4-.8 0-1.8 0-2.8.5-.7.3-1.5.9-2.4 1.5-.7.5-1.2 1.4-1.6 2.3-.4.8-.7 1.7-1 2.7-.2.9-.6 1.8-.7 2.8-.1.9-.1 1.9 0 2.9 0 .9.4 1.9.6 2.8.1 1-.2 2 0 2.9.2 1 .9 1.8 1.2 2.6.3 1 .2 2.1.6 2.9.5.9 1.3 1.6 1.9 2.2.7.8 1.5 1.5 2.3 1.7.9.2 1.8-.1 2.8-.7.9-.6 1.5-1.3 2.2-1.8.9-.6 1.7-1 2.4-1.5.9-.6 1.7-1.1 2.4-1.5.8-.5 1.6-1.1 2.5-1.3.8-.2 1.8 0 2.9.1.8.1 1.8-.2 2.9.1.8.2 1.7.7 2.7 1 1 .3 1.9.6 2.7.8 1 .3 1.9.7 2.7 1 1 .3 2 .3 2.8.6 1.1.4 2 .7 2.7 1.2.8.6 1.1 1.6 1.2 2.6.1.8.1 1.7-.1 2.8-.1.8-.1 1.8-.5 2.9-.3.8-.7 1.7-1.1 2.7-.4.8-1.1 1.5-1.6 2.4-.5.8-.9 1.7-1.5 2.5-.5.8-1 1.6-1.6 2.4-.6.7-1.3 1.4-2 2-.7.6-1.4 1.3-2.2 1.9-.8.6-1.5 1.2-2.3 1.7-.8.5-1.7.9-2.6 1.2-.9.4-1.8.6-2.7.9-.9.2-1.9.1-2.9.2-.9.1-1.8.3-2.8.3-.9 0-1.9.4-2.8.4-.9 0-1.9-.1-2.8-.1h-2.8c-.9 0-1.9.1-2.8 0-.9 0-1.8-.5-2.8-.5-.9-.1-1.9-.1-2.8-.2-.9-.1-1.8-.5-2.7-.7-.9-.2-1.8-.2-2.7-.4-.9-.2-1.9-.2-2.7-.5-.9-.3-1.8-.5-2.6-.9-.9-.4-1.7-.7-2.5-1.2s-1.6-1-2.3-1.6c-.7-.6-1.2-1.4-1.9-2.1-.6-.7-1.1-1.4-1.7-2.2-.5-.7-1.2-1.4-1.7-2.3-.4-.8-.8-1.7-1.2-2.6-.4-.8-.8-1.7-1.2-2.6-.3-.9-.7-1.8-1-2.7l-.9-2.7c-.3-.9-.6-1.8-.8-2.7-.2-.9-.3-1.9-.5-2.8-.2-.9-.1-1.9-.3-2.9-.2-.9-.3-1.9-.5-2.8-.1-.9-.1-1.9-.2-2.8-.1-.9-.1-1.9-.2-2.8 0-1-.5-1.9-.5-2.8 0-1 0-1.9.1-2.9 0-1 .3-1.9.4-2.8.1-1 0-1.9.1-2.9.1-.9.4-1.9.6-2.8.2-.9.5-1.8.8-2.8.2-.9 0-2 .3-2.9.3-.9 1-1.7 1.4-2.5.4-.9.4-1.9.9-2.7.4-.9 1.2-1.5 1.7-2.3.5-.8 1.1-1.6 1.7-2.3.6-.8 1.1-1.5 1.8-2.2.7-.7 1.5-1.1 2.3-1.7.8-.6 1.3-1.5 2.1-2s1.8-.7 2.6-1.1c.9-.4 1.8-.6 2.7-1l2.7-.9c.9-.2 1.8-.8 2.7-1 .9-.2 1.9-.3 2.8-.4 1-.1 1.9.1 2.9.1s1.9-.3 2.8-.3c1 0 1.9.3 2.8.3 1 0 1.9.1 2.8.2 1 .1 2-.1 2.9 0 1 .1 2 .1 2.8.2.8.1 1.7.8 2.7 1.1.8.3 1.9.1 2.8.5.8.4 1.7.8 2.5 1.3.8.4 1.7.9 2.5 1.4.8.5 1.3 1.4 2.1 2 .8.5 1.6 1.1 2.3 1.6.7.6 1.5 1.2 2.2 1.8.7.7 1.3 1.4 1.9 2.1.7.7 1.3 1.4 1.9 2.1.6.8.9 1.7 1.3 2.5.5.9 1.4 1.6 1.5 2.4.2 1 0 2-.2 2.9-.2.9-.9 1.5-1.6 2.3-.6.7-1.2 1.5-1.8 2.1-.7.7-1.1 1.6-1.7 2.2-.7.7-1.7.9-2.4 1.5-.8.6-1.3 1.5-2.1 1.9-.9.5-1.9.4-2.7.7-.9.3-1.8.5-2.7.6-.9.1-1.9.5-2.8.3-1-.4-1.9-.7-2.8-1.2z" style="fill:#ff8a65"/><path d="M53.7 39.8s-3.2-3.4-7.5-.9c-4.3 2.4-3.8 8.9.5 10.2 4.3 1.3 7.1-.4 7.8-2.3.7-1.9 1.1-5.3-.8-7z" style="fill:#fff"/><circle cx="50" cy="44.6" r="3.9"/><path d="M75.6 39.8s3.2-3.4 7.5-.9c4.3 2.4 3.8 8.9-.5 10.2-4.3 1.3-7.1-.4-7.8-2.3s-1.1-5.3.8-7z" style="fill:#fff"/><circle cx="80.1" cy="44.7" r="4"/><g style="opacity:.65"><path d="M88.5 54.2h.1-.1zm.3-.1h-.4.3-.1c.1 0 0 0 .1.1.2 0 .2-.1 0-.1 0-.1.1 0 .1 0zm-1-2.5zm-1.7-.7s0-.1 0 0c0-.1 0-.1 0 0zm-.3-.3zm2 1c-.1-.1 0-.1 0 0zm.5 2.2zm.2-1.8zm.4.5s-.1.1-.2.1h.1s0-.1.1-.1zm.1 1zm-.8-1.9zm-.2 3.1zm.9-.5h.1zm-3.8-3.7zM82.3 55c.1-.1.2.1.4-.1-.2.1-.4 0-.4.1zm6-1.2zm-5.7 1.1zm1.2-3.7zm1-.3zm-1.3.8s-.1 0 0 0zm-.4.4h.1zm4.5 3.6.1.1-.1-.1zm.8-1.9s-.1 0 0 0c-.1 0-.1 0 0 0zm-4-1.1zm.8 3.8c0-.1 0-.1 0 0zm-1-3.7c-.1 0-.1 0-.1-.1 0 .1 0 .1.1.1zm3.5 3z" style="fill:#fff"/><path d="M87.6 55.3s.2.1.3.2c0 .1-.2-.1-.3-.1 0 .1.2.2.2.2l-.1-.1c.1.1-.1.1.1.3.1.1.2.1.2.2 0 0 .1.1 0 0l-.1-.1v.1c-.2-.1 0-.1-.1-.2 0 .1.1.3 0 .2-.2-.1 0-.1-.2-.2h.1c-.3-.2 0 0-.2-.2-.1 0 0 .1-.1.1l.2.2c0 .2-.4-.3-.3-.1.1.1.2.3.1.3l-.1-.1c-.1 0 .2.3 0 .2v-.1c-.1-.1 0 .1 0 .2l-.1-.2c-.1.1-.1.2-.1.3 0-.1 0-.1-.1-.2-.1.1-.2.1-.4 0v.2-.1c-.1-.1 0 .1 0 .2l-.1-.1c0 .2-.1.4-.3.2v-.1c-.1-.1 0 .4-.1.2-.1-.1-.3.1-.4-.2 0 .3-.1-.1-.2.2-.1-.2 0-.2-.1-.4l-.1.2v-.2l-.1.2v-.2.1c-.1.1-.1-.2-.1-.3l-.1.3c0-.1.1-.1.1-.1-.1.2.1-.2-.1 0 0 0 0 .1-.1.1 0-.1 0-.1-.1-.1l.1-.1c-.1-.1-.2 0-.3-.1 0 .1-.1.3-.2.3l.1-.2c-.1.1 0 .1-.1.2 0 0 .1-.2.2-.2h-.1l.1-.1c-.1.1.1-.2-.1 0-.1-.1-.1 0-.2-.1l-.2.2v-.3c-.1 0-.1.1-.2.1.1-.1.1-.2.2-.2-.1-.1-.1-.1-.3-.1l-.1.1s0-.1.1-.1c-.3 0 .3-.5-.1-.4h-.2c0-.1.1 0 .2-.1-.3 0 0-.2-.2-.2.4-.2-.1-.2.2-.4h-.1c-.1 0 .1 0 .1-.1h-.2c-.1-.2.2-.4.3-.6 0-.1-.5-.2-.3-.2l.2.1c-.2-.2.1-.3 0-.5l.1.1c.1 0 .1-.1 0-.2 0 0 .1.1.2.1s-.1-.2 0-.1c0-.1.1-.1-.1-.1.1 0 0-.1.1-.1-.1-.1.1 0-.1-.2.2.2.2.1.2 0 0 .1.1 0 .1.1 0 0 0-.1-.1-.2.3.2 0-.3.3 0 0-.2.1-.3.1-.5.1.2-.1.1 0 .3 0-.2 0-.4.1-.4v.2c.1-.1.2-.1.3-.2v.1s.1 0 0-.1c-.1-.2 0-.4 0-.5.1.4.1.1.2.5v-.2.2c.1-.1 0-.2.1-.2v.2c0-.1 0-.2.1-.2v.1c.1 0 .1-.3.3-.2v.3l.1-.1v-.1s.1-.2.1-.1v.1h.1l.1-.3c.1-.1 0-.3.1-.2 0 0 .1 0 .1.1 0-.1.1-.1.1-.1v.3c.1-.2.1 0 .2-.2v.2l.1-.1v.2c.1 0 0-.3.1-.1v.1c.1.1.2-.1.3.1-.1.2-.1 0-.1.2.1 0 .3-.2.4-.1.2-.3 0 .2.1.1l-.1.1c0 .1.2 0 .3 0l-.2-.2c0 .1.1.1.1.2.1-.1.1 0 .1-.1-.2.4.4 0 .2.4h-.1.1c.1-.1.1-.1.1-.2.1 0 .1-.1.2 0-.1 0-.2.1-.2.2l.1-.1c-.2.2.2-.2.1 0H88h.2c-.1.1-.1 0-.2.1 0 0 .3-.1.2 0h-.1c-.1.1-.1.1-.1.2v.1c.4-.2.1.1.4 0-.3 0-.1.1-.3.1l-.1.1c.1 0-.1.1.1.1-.1 0 0 0-.1.1.1 0 .1 0 .2-.1.2 0-.2.2.1.2.1.1.3 0 .4.1-.1.1-.2 0-.2 0-.1.1 0 .1 0 .1h-.2.1-.2c.1 0 .2.1.2.1h-.2c.1 0 .1.1.3.1h.1-.2c-.1 0 0-.1.1-.1.3-.1-.1-.1-.1-.2h.2-.2c.1 0 .2-.1.2 0 .1-.1-.1 0 0-.1h-.1c.1 0 .2-.1.1 0 .1-.1-.2-.1 0-.2-.1-.1-.2 0-.4 0l.4-.2-.2.1.1-.1c-.1 0-.1 0-.2.1.1-.1-.1-.1.1-.3-.1 0-.1.1-.2.1.3-.2-.1 0 0-.2.2-.1.1 0 .2-.1-.3.1 0-.1-.1-.2-.2.1-.1 0-.2-.1.1 0 0-.2 0-.3-.2.1-.2 0-.3 0 .1-.1.1-.1.2-.1h-.1l.1-.1c-.1-.1-.2 0-.2-.1-.1.1-.2.4-.4.4.5.1.6 0 .6 0h-.1l.1-.1c0-.1-.1.1-.1 0 .1-.1 0-.1.1-.1 0 0 0 .1 0 0v-.2c0 .1-.1.1-.1.1-.1 0 .1-.1.1-.2-.1 0-.1 0-.2.1 0 0 0-.1.1-.1-.1 0-.2-.1-.2.1-.2.1-.2-.2-.3-.2v-.1c-.1 0-.2 0-.3.1v-.2c-.1 0-.1.1-.1 0 .1-.1 0-.1.1 0-.1-.1 0-.2-.2 0 .1-.1 0-.2 0-.2v.1h-.1l.1-.2c-.1-.3-.4.3-.4-.1-.1.1.1.1 0 .3-.1 0-.1-.3-.1-.3-.1-.1-.1.3-.2.2 0 .1 0 .3-.1.3s-.1-.3 0-.4c0 0 .1-.1 0-.1v.1c0-.1-.1-.1-.1-.2-.1.1 0 .1 0 .2-.1-.1-.2 0-.3-.1v.1c-.1-.1-.1.1-.2.2-.1-.1 0-.3-.1-.2-.1-.1 0-.2 0-.2-.1.1-.2-.1-.2-.1v-.1h-.1l.1.1s-.1 0-.1-.1c0 .1.1.2 0 .4 0-.1-.1.1-.1-.1.1 0-.1-.2 0-.2h-.1v-.1c-.2-.1 0 .2-.1.2 0-.1-.1-.2-.1-.2.1 0 .1.2 0 .3-.1-.1-.1.1-.1.1h.1c0 .1 0 .1-.1.2V51c0 .2-.2-.1-.2 0-.1-.1-.1-.2-.1-.2 0 .2-.2-.1-.2.1.1.1.1.1.1.2l.1-.2v.2l.1-.1c0 .1 0 .1.1.2-.1-.2-.1.2-.2.1V51c-.2-.1-.1.3-.3.3h.1c.1.1-.1.1-.1.1l-.2-.2c.1.1-.1.1 0 .3l-.1-.1c-.1 0 .1.3 0 .4-.1-.1-.2-.1-.2-.3 0 0-.1 0 0 .1-.1 0 0 .2-.1.1 0 0 .1.1.1.2 0 0 0 .1.1.2-.3-.2-.2.2-.5.1 0 .1 0 .2-.1.3-.1 0 .3.2.1.3-.2-.1-.1-.1-.1-.1-.3-.2 0 .1-.3.1-.1 0 .1.2 0 .3h-.1c.1.1.2.3.2.4-.1-.1-.1-.1-.2-.1 0 0 .2.1.3.2h-.3v-.1c-.2 0 0 .1-.1.1h-.1c0 .1.2.2.2.3h.1c.2.1-.1 0 0 .1h-.2c0 .1.2.2.2.3-.2-.1-.2-.2-.3-.2 0 0 0 .2.1.2 0 0-.1-.1 0-.1.2.1.3.2.3.2-.5 0-.1.2-.5.3.2.2-.1.3 0 .6.3-.1 0 .1.4 0v.1l-.2.2c-.1.1-.1 0-.2 0 0 .1-.1.1-.2.2.1 0 .2 0 .2.1l.1-.1c.2.1-.3.2 0 .3h-.1c.1.1.1.3.4.2 0 0-.1.1-.2.1 0 .2.5.2.4.4h-.1.1s-.1 0-.1.1h.2-.1c0 .2.4.1.5.1-.2.2-.2.3-.1.4.1.2.4.1.6.1-.1.3.3.3.3.5 0-.1.1-.2.1-.2 0 .1.2-.1.1.1s0 .2.1.2l.1-.3c0 .5.5 0 .5.4.1-.1.1-.1.2-.1v.2c.1.1.2.1.3.1v.1c.1 0 .2-.5.2-.5v.3c.1 0 .3.2.4 0v.1c.1 0 .3.1.2-.2 0 .2.2 0 .2-.1v.2c0-.2 0-.3.1-.4 0 0 .1.1 0 .1.1.1 0-.2.1-.1v.1c.1 0 .1-.1.1-.2s.1 0 .2.1v-.2.1c.2.1.1-.3.2-.1 0 0 0 .1.1.1-.1 0-.2.1-.2.1.1.1.1.1.2.4 0-.1 0-.4.1-.4h.1c.1.1.1 0 .2 0-.1-.1 0-.1-.1-.2l-.1.1c0-.1 0-.2.1-.1 0-.1-.1-.2-.1-.3.2.2.3.2.4.3 0-.2.2-.2.1-.5 0-.1.1 0 .1.1v.1c0-.1.1-.2 0-.3.1 0 .1.2.2.1v.1c.4.1-.2-.6.3-.6h-.1c.3-.1.1-.6.5-.7.1-.1 0-.1-.1-.2h.2l-.2-.7c-.1-.1.5-.1.2-.3h-.1s0-.2.1-.1h-.1.1l-.1-.1c.1-.1.4 0 .4-.1s-.3-.2-.3-.1c0 0-.1.1-.2.1h-.8l.2.1h-.1v-.1c-.1 0 0 0 .1.1h-.2l.3.1h-.3c.1 0 .2 0 .3.1h-.2c.1 0 0 .1.2.1-.2 0 0 .1-.2.1.1 0 .2.1.2.1-.3-.1 0 .1-.4 0 .3.1.1.2.2.3 0 0-.1 0 0 0h-.2c.2.1.2.2.4.3l-.4-.2c.2.1.1.2.3.2-.1 0-.1 0-.3-.1.3.1 0 .1.2.2-.2 0-.2-.1-.2 0l-.5-.5zm-.6 1.2c.1 0 0 0 0 0zm-.1.1s.1-.1 0 0c.1 0 .1 0 0 0 .1 0 .1 0 0 0zm.8.8c0 .1 0 .1 0 0zm0-.2zm.1-5.6zm-2.4 4.8zm2.5-3.9c0 .1 0 .1 0 0 0 .1 0 .1 0 0zm.2.3z" style="fill:#fff"/><path d="M88.1 53.1c0-.1.1-.1 0 0zM85.2 52zm1-.5s0 .1 0 0c0 .1 0 .1 0 0zm-1.8 1.2zm1.7-1.1zm2.2 2.4zm0 0c.1 0 .1 0 0 0zm.1 0zm0-.3c-.1 0-.1 0 0 0zm-.1-.1-.1.1.1-.1c-.1.1.1 0 0 0zm.6-.7v.1h.1c.2-.2-.1.1-.1-.1zm-.1-.3c.1 0 .1 0 .1-.1 0 .1 0 .1-.1.1zm-1.6-1.5.1-.1s0 .1-.1.1zm-.6.7v.1l.1-.2zm.1-1.2-.1.1zm-3.6 1.3.2.1c-.1 0-.3-.1-.2-.1zm-.6 1.6c-.1 0-.2 0 0 0-.1.1 0 0 0 0zm2.1 4.2-.1.1h.1z" style="fill:#fff"/></g><g style="opacity:.65"><path d="M45.5 54.2h.1-.1zm.3-.1h-.4.3-.1c.1 0 0 0 .1.1.2 0 .2-.1 0-.1 0-.1.1 0 .1 0zm-1-2.5zm-1.7-.7s0-.1 0 0c0-.1 0-.1 0 0zm-.3-.3zm2 1c-.1-.1 0-.1 0 0zm.5 2.2zm.2-1.8zm.4.5s-.1.1-.2.1h.1s0-.1.1-.1zm.1 1zm-.8-1.9zm-.2 3.1zm.9-.5h.1zm-3.8-3.7zM39.3 55c.1-.1.2.1.4-.1-.2.1-.4 0-.4.1zm6-1.2zm-5.7 1.1zm1.2-3.7zm1-.3zm-1.3.8s-.1 0 0 0zm-.4.4h.1zm4.5 3.6.1.1-.1-.1zm.8-1.9s-.1 0 0 0c-.1 0-.1 0 0 0zm-4-1.1zm.8 3.8c0-.1 0-.1 0 0zm-1-3.7c-.1 0-.1 0-.1-.1 0 .1 0 .1.1.1zm3.5 3z" style="fill:#fff"/><path d="M44.6 55.3s.2.1.3.2c0 .1-.2-.1-.3-.1 0 .1.2.2.2.2l-.1-.1c.1.1-.1.1.1.3.1.1.2.1.2.2 0 0 .1.1 0 0l-.1-.1v.1c-.2-.1 0-.1-.1-.2 0 .1.1.3 0 .2-.2-.1 0-.1-.2-.2h.1c-.3-.2 0 0-.2-.2-.1 0 0 .1-.1.1l.2.2c0 .2-.4-.3-.3-.1.1.1.2.3.1.3l-.1-.1c-.1 0 .2.3 0 .2v-.1c-.1-.1 0 .1 0 .2l-.1-.2c-.1.1-.1.2-.1.3 0-.1 0-.1-.1-.2-.1.1-.2.1-.4 0v.2-.1c-.1-.1 0 .1 0 .2l-.1-.1c0 .2-.1.4-.3.2v-.1c-.1-.1 0 .4-.1.2-.1-.1-.3.1-.4-.2 0 .3-.1-.1-.2.2-.1-.2 0-.2-.1-.4l-.1.2v-.2l-.1.2v-.2.1c-.1.1-.1-.2-.1-.3l-.1.3c0-.1.1-.1.1-.1-.1.2.1-.2-.1 0 0 0 0 .1-.1.1 0-.1 0-.1-.1-.1l.1-.1c-.1-.1-.2 0-.3-.1 0 .1-.1.3-.2.3l.1-.2c-.1.1 0 .1-.1.2 0 0 .1-.2.2-.2h-.1l.1-.1c-.1.1.1-.2-.1 0-.1-.1-.1 0-.2-.1l-.2.2v-.3c-.1 0-.1.1-.2.1.1-.1.1-.2.2-.2-.1-.1-.1-.1-.3-.1l-.1.1s0-.1.1-.1c-.3 0 .3-.5-.1-.4h-.2c0-.1.1 0 .2-.1-.3 0 0-.2-.2-.2.4-.2-.1-.2.2-.4h-.1c-.1 0 .1 0 .1-.1h-.2c-.1-.2.2-.4.3-.6 0-.1-.5-.2-.3-.2l.2.1c-.2-.2.1-.3 0-.5l.1.1c.1 0 .1-.1 0-.2 0 0 .1.1.2.1s-.1-.2 0-.1c0-.1.1-.1-.1-.1.1 0 0-.1.1-.1-.1-.1.1 0-.1-.2.2.2.2.1.2 0 0 .1.1 0 .1.1 0 0 0-.1-.1-.2.3.2 0-.3.3 0 0-.2.1-.3.1-.5.1.2-.1.1 0 .3 0-.2 0-.4.1-.4v.2c.1-.1.2-.1.3-.2v.1s.1 0 0-.1c-.1-.2 0-.4 0-.5.1.4.1.1.2.5v-.2.2c.1-.1 0-.2.1-.2v.2c0-.1 0-.2.1-.2v.1c.1 0 .1-.3.3-.2v.3l.1-.1v-.1s.1-.2.1-.1v.1h.1l.1-.3c.1-.1 0-.3.1-.2 0 0 .1 0 .1.1 0-.1.1-.1.1-.1v.3c.1-.2.1 0 .2-.2v.2l.1-.1v.2c.1 0 0-.3.1-.1v.1c.1.1.2-.1.3.1-.1.2-.1 0-.1.2.1 0 .3-.2.4-.1.2-.3 0 .2.1.1l-.1.1c0 .1.2 0 .3 0l-.2-.2c0 .1.1.1.1.2.1-.1.1 0 .1-.1-.2.4.4 0 .2.4h-.1.1c.1-.1.1-.1.1-.2.1 0 .1-.1.2 0-.1 0-.2.1-.2.2l.1-.1c-.2.2.2-.2.1 0H45h.2c-.1.1-.1 0-.2.1 0 0 .3-.1.2 0h-.1c-.1.1-.1.1-.1.2v.1c.4-.2.1.1.4 0-.3 0-.1.1-.3.1l-.1.1c.1 0-.1.1.1.1-.1 0 0 0-.1.1.1 0 .1 0 .2-.1.2 0-.2.2.1.2.1.1.3 0 .4.1-.1.1-.2 0-.2 0-.1.1 0 .1 0 .1h-.2.1-.2c.1 0 .2.1.2.1h-.2c.1 0 .1.1.3.1h.1-.2c-.1 0 0-.1.1-.1.3-.1-.1-.1-.1-.2h.2-.2c.1 0 .2-.1.2 0 .1-.1-.1 0 0-.1h-.1c.1 0 .2-.1.1 0 .1-.1-.2-.1 0-.2-.1-.1-.2 0-.4 0l.4-.2-.2.1.1-.1c-.1 0-.1 0-.2.1.1-.1-.1-.1.1-.3-.1 0-.1.1-.2.1.3-.2-.1 0 0-.2.2-.1.1 0 .2-.1-.3.1 0-.1-.1-.2-.2.1-.1 0-.2-.1.1 0 0-.2 0-.3-.2.1-.2 0-.3 0 .1-.1.1-.1.2-.1h-.1l.1-.1c-.1-.1-.2 0-.2-.1-.1.1-.2.4-.4.4.5.1.6 0 .6 0h-.1l.1-.1c0-.1-.1.1-.1 0 .1-.1 0-.1.1-.1 0 0 0 .1 0 0v-.2c0 .1-.1.1-.1.1-.1 0 .1-.1.1-.2-.1 0-.1 0-.2.1 0 0 0-.1.1-.1-.1 0-.2-.1-.2.1-.2.1-.2-.2-.3-.2v-.1c-.1 0-.2 0-.3.1v-.2c-.1 0-.1.1-.1 0 .1-.1 0-.1.1 0-.1-.1 0-.2-.2 0 .1-.1 0-.2 0-.2v.1h-.1l.1-.2c-.1-.3-.4.3-.4-.1-.1.1.1.1 0 .3-.1 0-.1-.3-.1-.3-.1-.1-.1.3-.2.2 0 .1 0 .3-.1.3s-.1-.3 0-.4c0 0 .1-.1 0-.1v.1c0-.1-.1-.1-.1-.2-.1.1 0 .1 0 .2-.1-.1-.2 0-.3-.1v.1c-.1-.1-.1.1-.2.2-.1-.1 0-.3-.1-.2-.1-.1 0-.2 0-.2-.1.1-.2-.1-.2-.1v-.1h-.1l.1.1s-.1 0-.1-.1c0 .1.1.2 0 .4 0-.1-.1.1-.1-.1.1 0-.1-.2 0-.2h-.1v-.1c-.2-.1 0 .2-.1.2 0-.1-.1-.2-.1-.2.1 0 .1.2 0 .3-.1-.1-.1.1-.1.1h.1c0 .1 0 .1-.1.2V51c0 .2-.2-.1-.2 0-.1-.1-.1-.2-.1-.2 0 .2-.2-.1-.2.1.1.1.1.1.1.2l.1-.2v.2l.1-.1c0 .1 0 .1.1.2-.1-.2-.1.2-.2.1V51c-.2-.1-.1.3-.3.3h.1c.1.1-.1.1-.1.1l-.2-.2c.1.1-.1.1 0 .3l-.1-.1c-.1 0 .1.3 0 .4-.1-.1-.2-.1-.2-.3 0 0-.1 0 0 .1-.1 0 0 .2-.1.1 0 0 .1.1.1.2 0 0 0 .1.1.2-.3-.2-.2.2-.5.1 0 .1 0 .2-.1.3-.1 0 .3.2.1.3-.2-.1-.1-.1-.1-.1-.3-.2 0 .1-.3.1-.1 0 .1.2 0 .3h-.1c.1.1.2.3.2.4-.1-.1-.1-.1-.2-.1 0 0 .2.1.3.2h-.3v-.1c-.2 0 0 .1-.1.1h-.1c0 .1.2.2.2.3h.1c.2.1-.1 0 0 .1h-.2c0 .1.2.2.2.3-.2-.1-.2-.2-.3-.2 0 0 0 .2.1.2 0 0-.1-.1 0-.1.2.1.3.2.3.2-.5 0-.1.2-.5.3.2.2-.1.3 0 .6.3-.1 0 .1.4 0v.1l-.2.2c-.1.1-.1 0-.2 0 0 .1-.1.1-.2.2.1 0 .2 0 .2.1l.1-.1c.2.1-.3.2 0 .3h-.1c.1.1.1.3.4.2 0 0-.1.1-.2.1 0 .2.5.2.4.4h-.1.1s-.1 0-.1.1h.2-.1c0 .2.4.1.5.1-.2.2-.2.3-.1.4.1.2.4.1.6.1-.1.3.3.3.3.5 0-.1.1-.2.1-.2 0 .1.2-.1.1.1s0 .2.1.2l.1-.3c0 .5.5 0 .5.4.1-.1.1-.1.2-.1v.2c.1.1.2.1.3.1v.1c.1 0 .2-.5.2-.5v.3c.1 0 .3.2.4 0v.1c.1 0 .3.1.2-.2 0 .2.2 0 .2-.1v.2c0-.2 0-.3.1-.4 0 0 .1.1 0 .1.1.1 0-.2.1-.1v.1c.1 0 .1-.1.1-.2s.1 0 .2.1v-.2.1c.2.1.1-.3.2-.1 0 0 0 .1.1.1-.1 0-.2.1-.2.1.1.1.1.1.2.4 0-.1 0-.4.1-.4h.1c.1.1.1 0 .2 0-.1-.1 0-.1-.1-.2l-.1.1c0-.1 0-.2.1-.1 0-.1-.1-.2-.1-.3.2.2.3.2.4.3 0-.2.2-.2.1-.5 0-.1.1 0 .1.1v.1c0-.1.1-.2 0-.3.1 0 .1.2.2.1v.1c.4.1-.2-.6.3-.6h-.1c.3-.1.1-.6.5-.7.1-.1 0-.1-.1-.2h.2l-.2-.7c-.1-.1.5-.1.2-.3h-.1s0-.2.1-.1h-.1.1l-.1-.1c.1-.1.4 0 .4-.1s-.3-.2-.3-.1c0 0-.1.1-.2.1h-.8l.2.1h-.1v-.1c-.1 0 0 0 .1.1h-.2l.3.1h-.3c.1 0 .2 0 .3.1h-.2c.1 0 0 .1.2.1-.2 0 0 .1-.2.1.1 0 .2.1.2.1-.3-.1 0 .1-.4 0 .3.1.1.2.2.3 0 0-.1 0 0 0h-.2c.2.1.2.2.4.3l-.4-.2c.2.1.1.2.3.2-.1 0-.1 0-.3-.1.3.1 0 .1.2.2-.2 0-.2-.1-.2 0l-.5-.5zm-.6 1.2c.1 0 0 0 0 0zm-.1.1s.1-.1 0 0c.1 0 .1 0 0 0 .1 0 .1 0 0 0zm.8.8c0 .1 0 .1 0 0zm0-.2zm.1-5.6zm-2.4 4.8zm2.5-3.9c0 .1 0 .1 0 0 0 .1 0 .1 0 0zm.2.3z" style="fill:#fff"/><path d="M45.1 53.1c0-.1.1-.1 0 0zM42.2 52zm1-.5s0 .1 0 0c0 .1 0 .1 0 0zm-1.8 1.2zm1.7-1.1zm2.2 2.4zm0 0c.1 0 .1 0 0 0zm.1 0zm0-.3c-.1 0-.1 0 0 0zm-.1-.1-.1.1.1-.1c-.1.1.1 0 0 0zm.6-.7v.1h.1c.2-.2-.1.1-.1-.1zm-.1-.3c.1 0 .1 0 .1-.1 0 .1 0 .1-.1.1zm-1.6-1.5.1-.1s0 .1-.1.1zm-.6.7v.1l.1-.2zm.1-1.2-.1.1zm-3.6 1.3.2.1c-.1 0-.3-.1-.2-.1zm-.6 1.6c-.1 0-.2 0 0 0-.1.1 0 0 0 0zm2.1 4.2-.1.1h.1z" style="fill:#fff"/></g><path d="M64.4 55.2c-2.4 0-3.4-3.7-3.5-3.8l1-.3c.2.9 1.2 3.1 2.5 3.1s2.3-2.3 2.5-3.1l1 .3c-.1.1-1.2 3.8-3.5 3.8zM48.6 74.3l-5 3.6c-3.9-.4-8.2-1.4-9.2-3.4-2-3.9-3-7.9-3-7.9l-1 .2c0 .2 1 4.1 3 8.1 1.2 2.5 6 3.5 10 3.9l3.1 4.1.8-.6-2.6-3.3c2.2.2 3.9.2 4.1.2v-1c-.9 0-2.3-.1-3.8-.2l4.1-2.9-.5-.8z" style="fill:#d83429"/><path d="M55.2 97.3c.1 0 .1.1 0 0zm.2.1-.1-.1.1.1c-.1-.1-.1-.1 0 0-.1-.1-.1-.1 0 0 0-.1 0-.1 0 0zm.5-.5zm.4-.3zm.1 0zm-.5.3c.1 0 .1 0 0 0zm-.6.3zm.6-.1zm-.1.1s-.1-.1 0 0c-.1-.1-.1 0 0 0-.1 0-.1 0 0 0zm-.3.1zm.4-.3zm2.6-3.5c.1 0 .1 0 0 0 .1 0 0 0 0 0zm.4.1zm-2.4 2.9zm.9-1c-.1 0 0-.1 0 0-.1-.1 0 0 0 0zm-2.1 1.7zm2-1.8zm-.6.8zm-.2.2zm.3-.3zm.1-.1h-.1zm1.4-2.2zm-3 3.4zm1.1-1.4c.1 0 0 0 0 0zm1.3-1.3zm-1.2 1.2zm1.8-1.8z" style="fill:#6594d9"/><path d="M58.3 93.7s.1 0 0 0c.1.1.1 0 0 0v.2s.1 0 .1.1c-.1 0 0 0 0-.1v.1c-.1 0 0 0-.1-.1l-.1-.1v.1l.1.1c0 .1-.1-.1-.1 0 0 0 .1.1 0 .1V94s.1.1 0 .1h-.1v.1c0 .1-.1.1-.1.1v.2s.1.1 0 .1 0 .1-.1.1c.1.1-.1 0 0 .1h-.1v.2h-.2v.1c0 .1-.1 0 0 0h-.1s0 .1-.1.1l.1.1h-.1l.1.1s-.1 0-.1-.1c0 0-.1 0 0 0v.1l.1.1h-.1l.1.1h-.1v.1c0 .1-.2 0-.1.1v.1h-.1c0 .1-.1 0 0 .1-.1-.1-.1.1-.1 0 0 .1-.1.1-.2.1 0 0 .1.1 0 .1v-.1c0 .1-.1.1-.1.2v.1s0 .1 0 0v.2c-.1-.1-.1 0-.1 0h-.1v.1c-.1-.1 0 .1-.1 0v.2c-.1-.1 0 0 0-.1v.1c0 .1-.1.1 0 .1s.1.1.1.1l-.1-.1v.3l-.1-.1v.1s.1.1 0 .1h-.1l-.1-.1v.1s.1.1 0 .1v.1c-.1 0 0 0-.1-.1v.1c.1.1-.1 0 0 0v.1H56c-.1-.1 0 .1-.1.1h.1v.1s-.1 0-.1-.1c-.1 0 .1.1 0 0v-.1s.1.1 0 .1h-.1c.1.1 0 0 0 .1 0-.1 0 0-.1-.1 0 .1-.1 0-.1.1l.1.1v-.1s0 .1 0 0l-.1-.1v.1-.1.1c.1.1 0 0 0-.1l.1.1v-.1s.1 0 .1.1c.1 0 0-.1 0 0l-.1-.1.1.1c.1 0 0-.1.1 0l.1.1c-.1-.1 0 0 0 0-.1 0 0 0 0-.1h.1c-.1-.1 0-.1 0-.1l.1.1v-.1l-.1-.1s.1 0 .1.1h.2v-.2c0-.1.1 0 .1-.1v-.1h.1s.1 0 0 0h.1c.1 0-.1-.1.1-.1l-.1-.1h.1s-.1-.1 0-.1l-.1-.1.1.1h.2V97s.1.1.1 0l.1.1h.1s-.1 0-.1-.1v.1c.1 0 0-.1 0-.1h.1l-.1-.1c0-.1.1 0 .1 0h.1s.1 0 0 0l-.1-.1v-.1c.1 0 0-.1 0 0l.1.1c.1 0 0-.1 0-.1h.1v-.1s-.1-.1 0-.1c0 0 .1 0 .1.1 0 0 0-.1 0 0v-.1c.1.1 0-.1.1 0v-.1s-.1-.1 0-.1c.1.1 0 0 .1 0v-.2l.1.1-.1-.1s.1 0 .1.1c.1 0 0 0 0 0v-.1c0-.1 0 0 0 0h.1V96s0 .1.1.1v-.2c.1.1.1 0 .2.1 0-.1.1 0 .1-.1l-.1-.1h.2-.1c0-.1.1 0 .1 0v-.2s0-.1 0 0c.1 0 0-.1 0-.1l.1.1v-.2h.2l-.1-.1s0-.1 0 0h.1l-.1-.1c.1.1 0-.1.1 0v-.1l.1-.1-.1-.1.1.1s.1 0 .1-.1c0 0 .1 0 0-.1.1.1 0 0 0-.1s-.1-.1-.1-.1v-.1h.1v-.2s.1 0 .1.1c0 0-.1-.1 0-.1l-.1-.1s0-.1-.1-.1c.1 0 .1.1.2.1V94s0 .1.1 0c.1 0-.1-.2.1-.1.1 0 .1-.1.2-.1v-.2c0-.1.1.1.1 0v-.1l.1.1s0-.1-.1-.1l-.2-.2v.1l.1.1s0-.1-.1-.1c0 0 .1 0 .1.1 0 0-.1 0 0 0v.1h-.1v.1l-.1-.1c.1.1 0 .1 0 .1h-.1l.1.1c-.8-.1-.8-.1-1-.1.1 0 .1 0 .1.1 0-.1 0-.1-.1-.1.1.1.1 0 .1.1 0-.1 0-.1-.1-.1zm-.2.4zm0 .1s0-.1 0 0c0 0 .1 0 0 0zm.4.2c-.1-.1-.1-.1 0 0-.1-.1-.1-.1 0 0-.1-.1 0-.1 0 0zm-.1-.1zm-2.5 2.6zm1.8-2.4zm-2.1 2.4zm0 .1zm-.1 0zm.7-.9zm-.1.4c0-.1 0-.1 0 0 0-.1 0-.1 0 0zm.3-.7zm-.3.6zm-.8.8zm0 0zm0 0zm.1 0c-.1 0 0 0 0 0zm0-.1s-.1 0 0 0c-.1 0 0 .1 0 0zm.2.1s.1.1 0 0c.1.1 0 0 0 0zm.1 0zm.4-.4zm-.1-.3h-.1.1zm.3.2z" style="fill:#6594d9"/><path d="M56.9 96c-.1 0 0 .1 0 0zm.2-.3zm.9-.8zm-9.4 1.9c.1 0 .1 0 0 0zm.2 0-.1-.1c0 .1 0 0 .1.1-.1 0-.1 0 0 0-.1 0-.1 0 0 0-.1 0 0 0 0 0-.1 0 0 0 0 0zm.5-.5zm.4-.3zm.1 0zm-.5.3zm-.6.3zm.5-.1s.1 0 0 0zm-.1.1c.1 0 0 0 0 0zm-.2.2zm.4-.3zm2.6-3.5zm.4 0zm-2.4 3zm.9-1c-.1-.1 0-.1 0 0-.1-.1 0 0 0 0zm-2.1 1.6zm2-1.7zm-.6.8zm-.2.1zm.3-.3s0 .1 0 0c0 0 0 .1 0 0zm0 0v-.1zm1.5-2.2zm-3 3.4c0-.1 0-.1 0 0 0-.1 0-.1 0 0 0-.1 0 0 0 0zm1.1-1.5zm1.3-1.2c-.1 0-.1 0 0 0zm-1.2 1.2zm1.8-1.9z" style="fill:#6594d9"/><path d="M51.7 93.1s.1.1 0 0c.1.1.1.1 0 0v.2s.1 0 .1.1c-.1 0 0 0 0-.1v.1c-.1 0 0 0-.1-.1l-.1-.1v.1l.1.1c0 .1-.1-.1-.1 0 0 0 .1.1 0 .1l-.1-.1s.1.1 0 .1h-.1v.1c0 .1-.1.1-.1.1v.2s.1.1 0 .1 0 .1-.1.1c.1.1-.1 0 0 .1h-.1v.2L51 94h-.1v.1c0 .1-.1 0 0 0h-.1s0 .1-.1.1l.1.1h-.1l.1.1s-.1 0-.1-.1c0 0-.1 0 0 0v.1l.1.1h-.1l.1.1h-.1v.1c0 .1-.2 0-.1.1v.1h-.1c0 .1-.1 0 0 .1-.1-.1-.1.1-.1 0 0 .1-.1.1-.2.1 0 0 .1.1 0 .1v-.1c0 .1-.1.1-.1.2v.1s0 .1 0 0v.2c-.1-.1-.1 0-.1 0h-.1v.1c-.1-.1 0 .1-.1 0v.2c-.1-.1 0 0 0-.1v.1c0 .1-.1.1 0 .1s.1.1.1.1l-.1-.1v.3l-.1-.1v.1s.1.1 0 .1h-.1l-.1-.1v.1s.1.1 0 .1v.1c-.1 0 0 0-.1-.1v.1c.1.1-.1 0 0 0v.1h-.1c-.1-.1 0 .1-.1.1h.1v.1l-.1-.1c-.1 0 .1.1 0 0v-.1s.1.1 0 .1h-.1c.1.1 0 0 0 .1 0-.1 0 0-.1-.1 0 .1-.1 0-.1.1l.1.1v-.1s0 .1 0 0l-.1-.1v.1-.1.1c.1.1 0 0 0-.1l.1.1v-.1s.1 0 .1.1c.1 0 0-.1 0 0l-.1-.1.1.1c.1 0 0-.1.1 0l.1.1c-.1-.1 0 0 0 0-.1 0 0 0 0-.1h.1c-.1-.1 0-.1 0-.1l.1.1v-.1l-.1-.1s.1 0 .1.1h.2v-.2c0-.1.1 0 .1-.1v-.1h.1s.1 0 0 0h.1c.1 0-.1-.1.1-.1l-.1-.1h.1s-.1-.1 0-.1L50 96l.1.1h.2V96s.1.1.1 0l.1.1h.1s-.1 0-.1-.1v.1c.1 0 0-.1 0-.1h.1l-.1-.1c0-.1.1 0 .1 0h.1s.1 0 0 0l-.1-.1v-.1c.1 0 0-.1 0 0l.1.1c.1 0 0-.1 0-.1h.1v-.1s-.1-.1 0-.1c0 0 .1 0 .1.1 0 0 0-.1 0 0v-.1c.1.1 0-.1.1 0v-.1s-.1-.1 0-.1c.1.1 0 0 .1 0v-.2l.1.1-.1-.1s.1 0 .1.1c.1 0 0 0 0 0v-.1c0-.1 0 0 0 0h.1V95s0 .1.1.1v-.2c.1.1.1 0 .2.1 0-.1.1 0 .1-.1l-.1-.1h.2-.1c0-.1.1 0 .1 0v-.2s0-.1 0 0c.1 0 0-.1 0-.1l.1.1v-.2h.2l-.1-.1s0-.1 0 0h.1l-.1-.1c.1.1 0-.1.1 0v-.1l.1-.1-.1-.1.1.1s.1 0 .1-.1c0 0 .1 0 0-.1.1.1 0 0 0-.1s-.1-.1-.1-.1v-.1h.1v-.2s.1 0 .1.1c0 0-.1-.1 0-.1l-.1-.1s0-.1-.1-.1c.1 0 .1.1.2.1V93s0 .1.1 0c.1 0-.1-.2.1-.1.1 0 .1-.1.2-.1v-.2c0-.1.1.1.1 0v-.1l.1.1s0-.1-.1-.1l-.2-.2v.1l.1.1s0-.1-.1-.1c0 0 .1 0 .1.1 0 0-.1 0 0 0v.1h-.1v.1l-.1-.1c.1.1 0 .1 0 .1h-.1l.1.1c-.8.4-.7.3-.9.3.1 0 .1 0 .1.1l-.1-.1c.1.1.1 0 .1.1 0 0 0-.1-.1-.1 0 .1 0 0 0 0zm-.2.5zm0 0s.1 0 0 0zm.4.2s-.1 0 0 0c-.1 0-.1 0 0 0-.1 0-.1 0 0 0-.1 0-.1 0 0 0zm-.1 0s0-.1 0 0zm-2.5 2.5zm1.8-2.4v.1-.1zM49 96.4zm0 0zm-.1.1zm.7-.9zm-.1.3zm.3-.7zm-.3.7zm-.8.8zm0 0zm0 0zm.1-.1c-.1 0-.1 0 0 0zm0 0s-.1 0 0 0c-.1 0 0 0 0 0zm.2.1s.1 0 0 0c.1 0 0 0 0 0zm.1-.1c0 .1 0 .1 0 0 0 .1 0 .1 0 0zm.4-.4c0 .1 0 .1 0 0zm-.1-.2h-.1.1zm.3.2zm.6-.7c-.1 0 0 0 0 0zm.2-.3zm.9-.8zm-4-4.8s.1 0 0 0zm.2 0-.1-.1.1.1c-.1 0-.1 0 0 0-.1 0-.1 0 0 0-.1 0-.1 0 0 0-.1 0-.1 0 0 0zm.5-.5zm.4-.3zm.1 0zm-.5.3zm-.6.3zm.5-.1zm-.1.1zm-.2.1zm.4-.3zm2.6-3.4s0-.1 0 0zm.4 0zm-2.4 2.9zm.9-1c-.1 0-.1 0 0 0-.1 0-.1 0 0 0zm-2.1 1.7zm2-1.7zm-.6.8zm-.2.1zm.2-.3c.1 0 .1 0 0 0 .1 0 0 0 0 0 .1 0 .1 0 0 0zm.1-.1zm1.5-2.1s0-.1 0 0zm-3 3.3zm1.1-1.4zm1.2-1.2zM48.7 88zm1.8-1.9zm0-.2s.1.1 0 0c.1.1 0 .1 0 0v.2s.1 0 .1.1c-.1 0 0 0 0-.1v.1c-.1 0 0 0-.1-.1l-.1-.1v.1l.1.1c0 .1-.1-.1-.1 0 0 0 .1.1 0 .1l-.1-.1s.1.1 0 .1h-.1v.1c0 .1-.1.1-.1.1v.2s.1.1 0 .1 0 .1-.1.1c.1.1-.1 0 0 .1h-.1v.2h-.2v.1c0 .1-.1 0 0 0h-.1s0 .1-.1.1l.1.1h-.1l.1.1s-.1 0-.1-.1c0 0-.1 0 0 0v.1l.1.1h-.1l.1.1h-.1v.1c0 .1-.2 0-.1.1v.1h-.1c0 .1-.1 0 0 .1-.1-.1-.1.1-.1 0 0 .1-.1.1-.2.1 0 0 .1.1 0 .1v-.1c0 .1-.1.1-.1.2v.1s0 .1 0 0v.2c-.1-.1-.1 0-.1 0h-.1v.1c-.1-.1 0 .1-.1 0v.2c-.1-.1 0 0 0-.1v.1c0 .1-.1.1 0 .1s.1.1.1.1l-.1-.1v.3l-.1-.1v.1s.1.1 0 .1h-.1l-.1-.1v.1s.1.1 0 .1v.1c-.1 0 0 0-.1-.1v.1c.1.1-.1 0 0 0v.1h-.1c-.1-.1 0 .1-.1.1h.1v.1s-.1 0-.1-.1c-.1 0 .1.1 0 0v-.1s.1.1 0 .1h-.1c.1.1 0 0 0 .1 0-.1 0 0-.1-.1 0 .1-.1 0-.1.1l.1.1v-.1s0 .1 0 0l-.1-.1v.1-.1.1c.1.1 0 0 0-.1l.1.1V90s.1 0 .1.1c.1 0 0-.1 0 0l-.1-.1.1.1c.1 0 0-.1.1 0l.1.1c-.1-.1 0 0 0 0-.1 0 0 0 0-.1h.1c-.1-.1 0-.1 0-.1l.1.1V90l-.1-.1s.1 0 .1.1h.2v-.2c0-.1.1 0 .1-.1v-.1h.1s.1 0 0 0h.1c.1 0-.1-.1.1-.1l-.1-.1h.1s-.1-.1 0-.1l-.1-.1.1.1h.2v-.1s.1.1.1 0l.1.1h.1s-.1 0-.1-.1v.1c.1 0 0-.1 0-.1h.1l-.1-.1c0-.1.1 0 .1 0h.1s.1 0 0 0l-.1-.1v-.1c.1 0 0-.1 0 0l.1.1c.1 0 0-.1 0-.1h.1v-.1s-.1-.1 0-.1c0 0 .1 0 .1.1 0 0 0-.1 0 0v-.1c.1.1 0-.1.1 0v-.1s-.1-.1 0-.1c.1.1 0 0 .1 0v-.2l.1.1-.1-.1s.1 0 .1.1c.1 0 0 0 0 0v-.1c0-.1 0 0 0 0h.1v-.1s0 .1.1.1v-.2c.1.1.1 0 .2.1 0-.1.1 0 .1-.1l-.1-.1h.2-.1c0-.1.1 0 .1 0v-.2s0-.1 0 0c.1 0 0-.1 0-.1l.1.1v-.2h.2l-.1-.1s0-.1 0 0h.1l-.1-.1c.1.1 0-.1.1 0v-.1l.1-.1-.1-.1.1.1s.1 0 .1-.1c0 0 .1 0 0-.1.1.1 0 0 0-.1s-.1-.1-.1-.1v-.1h.1v-.2s.1 0 .1.1c0 0-.1-.1 0-.1l-.1-.1s0-.1-.1-.1c.1 0 .1.1.2.1v-.2s0 .1.1 0c.1 0-.1-.2.1-.1.1 0 .1-.1.2-.1v-.2c0-.1.1.1.1 0v-.1l.1.1s0-.1-.1-.1l-.2-.2v.1l.1.1s0-.1-.1-.1c0 0 .1 0 .1.1 0 0-.1 0 0 0v.1h-.1v.1l-.1-.1c.1.1 0 .1 0 .1h-.1l.1.1c-.8-.1-.8-.1-.9-.1.1 0 .1 0 .1.1 0-.1 0-.1-.1-.1.1.1.1 0 .1.1l-.1-.1zm-.2.5zm0 0zm.3.2zm0-.1zm-2.5 2.6zm1.7-2.4h.1zm-2 2.4zm0 .1c-.1 0 0 0 0 0zm-.1 0c0 .1 0 .1 0 0 0 .1 0 .1 0 0zm.7-.8c0-.1 0-.1 0 0zm-.1.3zm.3-.7zm-.3.7zm-.8.8zm0 0zm0 0zm0-.1zm.1 0c-.1 0-.1 0 0 0-.1 0 0 0 0 0zm.2.1c.1 0 0 0 0 0zm.1-.1zm.4-.4zm-.2-.2zm.4.2zm.6-.7c-.1 0 0 0 0 0zm.2-.4c0 .1 0 .1 0 0z" style="fill:#6594d9"/><path style="fill:#6594d9" d="m50.1 87.1.1.1v-.1z"/></g></svg>