<svg xmlns="http://www.w3.org/2000/svg" viewBox="0 0 131.2 142.8" style="enable-background:new 0 0 131.2 142.8" xml:space="preserve"><style>.st5{fill:#d83429}.st6{fill:#ff8a65}.st7{fill:none;stroke:#ef7937;stroke-width:.925;stroke-miterlimit:10}.st8{fill:#d9413d}.st9{fill:#ff8a65}.st10{fill:none;stroke:#d83429;stroke-width:.8491;stroke-miterlimit:10}.st11{fill:#d9413d}.st12{fill:#ff8a65}.st13{fill:none;stroke:#d9413d;stroke-width:.8491;stroke-miterlimit:10}.st14{opacity:.37}.st15{clip-path:url(#SVGID_2_)}.st16{clip-path:url(#SVGID_4_)}.st17{clip-path:url(#SVGID_6_)}.st18{clip-path:url(#SVGID_8_)}.st19{clip-path:url(#SVGID_10_)}.st20{clip-path:url(#SVGID_12_)}.st21{clip-path:url(#SVGID_14_)}.st22{clip-path:url(#SVGID_16_)}.st23{clip-path:url(#SVGID_18_)}.st24{clip-path:url(#SVGID_20_)}.st25{fill:none;stroke:#d9413d;stroke-width:.925;stroke-miterlimit:10}.st26{clip-path:url(#SVGID_22_)}.st27{clip-path:url(#SVGID_24_)}.st28{clip-path:url(#SVGID_26_)}.st29{clip-path:url(#SVGID_28_)}.st30{clip-path:url(#SVGID_30_)}.st31{fill:none;stroke:#d9413d;stroke-width:.925;stroke-miterlimit:10}.st32{clip-path:url(#SVGID_32_)}.st33{clip-path:url(#SVGID_34_)}.st34{clip-path:url(#SVGID_36_)}.st35{clip-path:url(#SVGID_38_)}.st36{clip-path:url(#SVGID_40_)}.st38{fill:#6594d9}.st39{fill:#ee8423}.st40{fill:#f18a50}.st41{fill:#019788}.st42{fill:#32867a}.st43{fill:#f67258}.st44{fill:#de5956}.st45{opacity:.5}.st48{fill:#21a497}.st49{fill:#f7846d}.st50{fill:#26a59a}.st51{opacity:.65;fill:none;stroke:#fff;stroke-width:.2;stroke-miterlimit:10}.st52{fill:#ffccbc}.st54{fill:#d83429}.st55{fill:none;stroke:#f5a800;stroke-miterlimit:10}.st55,.st56,.st57{stroke-width:.2}.st56{fill:none;stroke:#4db6ac;stroke-miterlimit:10}.st57{stroke:#ff8a65}.st57,.st58,.st59,.st60,.st61{fill:none;stroke-miterlimit:10}.st58{opacity:.65;stroke:#fff;stroke-width:.5}.st59{stroke:#ef7937}.st60{stroke:#147467}.st61{stroke:#d9413d}.st62{fill:#d9413d}.st63,.st64,.st65{fill:#ffccbc}</style><g id="Calque_1"><path d="M75.3 111.6s-24.4-.3-29.7 1.4c-5.3 1.7 13.7 6.7 23.8 5.8s17.5-4.3 14.5-5.4c-3-1.2-6-1.5-8.6-1.8z" style="opacity:5.000000e-02"/><path d="M57.6 113.7c-.3-.4.3-.4.5-.8l.6-.9c.2-.3.4-.6.5-.9.2-.5.4-.8.4-1 0-.2-.2-.5-.5-1-.2-.3-.3-.6-.5-.9l-.6-.9-.6-.9c.3-.4.3-.4.8-.6.2.2.4.5.6.8.2.3.4.5.6.8.2.3.3.6.5.9.2.3.4.6.5.8.2.4.3.7.3.9 0 .2-.2.6-.3.9-.1.3-.2.6-.4.9-.2.3-.4.6-.5.8.5.1.6 0 1.1 0s.7-.3 1.1 0c.4.3.4.7 0 1-.4.4-.5 0-1 0h-1c-.5 0-.5-.1-1 0-.6.3-.8.6-1.1.1zm14.5-.1c-.2-.1 0-.3 0-.5 0-.1 0-.4.2-.9.1-.2.2-.5.3-.9.1-.3.2-.5.4-.8.1-.2 0-.6-.2-1-.1-.3-.3-.6-.6-.9-.2-.3-.4-.5-.7-.8-.2-.3-.5-.5-.8-.7-.3-.3-.5-.5-.8-.7.2-.5.2-.5.6-.8.1.1.4.3.7.6l.7.7c.2.2.5.4.7.6.2.2.4.5.6.8.2.3.4.5.5.8l.3.9c0 .3 0 .6-.2.9-.1.3-.2.6-.3.8-.1.3-.2.6-.3.8.4.1.4 0 .9 0s.6-.3.9 0c.3.4.4.6 0 1-.3.3-.5 0-1 0s-.5-.1-.9 0c-.5.2-.6.3-1 .1z" style="fill:#d83429"/><path d="M33.8 98.4c0-1.3.1-1.3.1-2.6v-2.6c0-1.3-.1-1.3-.1-2.6s.4-1.3.4-2.6-.2-1.3-.1-2.6c.1-1.4.4-1.4.5-2.7.1-1.4 0-1.4.1-2.8s-.1-1.4 0-2.8 0-1.4.2-2.8c.1-1.4 0-1.4.2-2.8l.2-2.8c.1-1 .4-2 .4-3s.1-2 .1-3-.2-2-.2-3 0-2-.1-3c-.1-1.5-.2-1.5-.3-3.1l-.2-3.2c-.1-1.5-.1-1.5-.3-3.1-.1-1.5-.2-1.5-.3-3.1-.1-1.5 0-1.5-.1-3.1s.1-1.5 0-3.1c0-1 .1-1.9.4-2.8.3-.9.8-1.7 1.4-2.4.6-.8 1.2-1.4 2-2 .8-.6 1.4-1.4 2.3-1.7.9-.3 1.9-.4 2.9-.4 1.3 0 1.3.3 2.7.3 1.3 0 1.3-.2 2.7-.2 1.3 0 1.3.2 2.7.2 1.3 0 1.3.2 2.7.2 1.3 0 1.3-.5 2.7-.5 1.3 0 1.3.4 2.7.4 1.3 0 1.3-.3 2.7-.3 1 0 2 .4 2.9.5 1 .1 2 .2 2.9.3 1 .1 2 .1 2.9.3 1 .2 1.9.6 2.8.9 1 .3 2 .1 2.9.4.9.3 1.8.9 2.7 1.3.9.4 1.7.9 2.6 1.4.9.5 1.7.9 2.6 1.4.8.5 1.9.8 2.6 1.4.8.6 1.5 1.3 2.2 2 .6.6 1 1.5 1.6 2.2.5.7 1.2 1.3 1.7 2.1.5.7.7 1.6 1.1 2.4l1.2 2.4c.4.8 1 1.5 1.3 2.3.4.8.8 1.6 1.1 2.4.3.8.2 1.8.6 2.7.3.8 1.1 1.5 1.3 2.4.3.8.5 1.7.7 2.6.2.8.5 1.7.6 2.6.1.9-.2 1.8-.2 2.7.1.9.2 1.7.2 2.7 0 1 0 2-.1 2.9-.1 1-.4 1.9-.5 2.9-.2 1-.3 2-.5 2.9-.3 1-.7 1.8-1.1 2.7-.3.9-.2 2.1-.6 3-.4.9-1 1.7-1.5 2.6-.5.9-1.3 1.5-1.8 2.3-.5.8-1 1.7-1.6 2.5-.6.8-.9 1.8-1.5 2.6s-1.6 1.2-2.2 2c-.6.7-1 1.7-1.6 2.3-.7.7-1.7 1-2.4 1.6l-2.1 1.8c-.7.6-1.2 1.5-2 2l-2.4 1.5c-.8.4-1.9.3-2.8.7-.9.4-1.7.7-2.6 1-.9.3-1.7.8-2.6 1-.9.2-1.8.6-2.7.8-.9.1-1.9.1-2.8.2-.9.1-1.9-.4-2.8-.4-1.4 0-1.4.4-2.7.4-1.4 0-1.4-.2-2.7-.2-1.4 0-1.4.2-2.7.2-1.4 0-1.4-.1-2.7-.1-1.4 0-1.4.3-2.7.3h-5.4c-.9 0-1.8-.6-2.6-.8-.9-.3-1.9-.3-2.6-.8-.7-.5-1-1.6-1.6-2.3-.5-.7-1.2-1.4-1.5-2.2-.9-1.3-1.3-2.3-1.3-3.2z" style="fill:#ff8a65"/><path d="M63.9 85.4s1 3.5 3 3.5 3-3.5 3-3.5" style="fill:none;stroke:#31458b;stroke-miterlimit:10"/><path d="M52 62.7s3.4-3.5 7.9-1 4 9.2-.5 10.7-7.5-.4-8.2-2.4-1.1-5.4.8-7.3zm20.8.6s3.4-3.5 7.9-1 4 9.2-.5 10.7c-4.5 1.4-7.4-.4-8.1-2.4-.9-2-1.3-5.5.7-7.3z" style="fill:#fff"/><circle cx="57.4" cy="68.8" r="4.2"/><circle cx="77.9" cy="68.8" r="4.3"/><g style="opacity:.65"><path d="M51.1 75.3v.2-.2zm0 .5c0-.1.1-.3.1-.6 0 .2 0 .1-.1.4v-.2.1c0 .2 0 .2 0 0v.3zm1 .5zm.6.2zm0 .3zm-.6-.5zm-.8-1.1zm.5 1.2c0 .1-.1.1 0 0zm-.2.1v-.3.3zm-.3-.5c0 .1 0 .1 0 0zm.6.5s0 .1 0 0c0 .1 0 0 0 0zm6-.8zm.1 1.1v.1-.1zm-5.1.3zm1.8.1c0-.2.1-.2.1-.4-.1 0-.1.2-.1.4zm-3.4-2zm3.4 1.5zm-1.4.3c.1 0 .1-.1 0 0 .1-.1 0 0 0 0zm-.2-.3zm.5 0c0 .1 0 .1 0 0 0 .1 0 .1 0 0zm.1.1c0-.1 0-.1 0 0 0-.1 0-.1 0 0zm3.7-1.1v.2-.2zm-6.1-.4s0-.1 0 0c0-.1 0-.1 0 0zm2.5-.2zm2.3.5zm-2.2-.5v.1-.1zm3.5.8z" style="fill:#fff"/><path d="M57.6 75.5s0 .3-.1.4c0 .1.1-.2.1-.4-.1.1-.1.4-.1.4v-.1c-.1.2-.1 0-.1.3V76v.4s0 .2 0 0v-.1.1c0-.3 0-.1.1-.3 0 .1-.1.3-.1.2 0-.3.1-.1.1-.3v.1c0-.4 0 0 .1-.4 0-.1-.1.1-.1 0 0 .1 0 .2-.1.3-.1.2 0-.6 0-.3 0 .2-.1.5-.1.3v-.3s-.1.4-.1.2v-.1c0-.2 0 .2-.1.2v-.3s-.1.2-.2.3v-.2c-.1.1-.1 0-.1-.2v.2-.1.2-.2c-.1.2-.2.4-.2.1v-.1c0-.1-.1.4-.1.2-.1-.1-.2.1-.2-.2-.1.3 0-.1-.1.3v-.5l-.1.3v-.2l-.1.2v-.3.3-.3.1-.2c-.1.2 0-.2 0 0v.2c0-.1 0-.1-.1-.1v-.2s-.1.1-.2.1c0 .1 0 .3-.1.4v-.2.3-.4.1-.2c0 .1 0-.2-.1 0v-.1c-.1 0-.1.1-.1.1 0 .2 0 .2-.1.3 0-.1 0-.2-.1-.2 0 .1 0 .2-.1.3v-.3s-.1 0-.1.2v.2-.2c-.1.3-.1-.6-.2-.2l.2.1v-.3c-.1.3-.1-.1-.2.1 0-.6-.1 0-.1-.3v.1-.1.2c-.1.1-.2-.2-.3-.4 0 0-.1.7-.1.4v-.2c-.1.3-.2 0-.3.2v-.1c0-.2-.1 0-.1.1v-.2c0-.1-.1.2-.1 0V75c0 .1 0 0-.1.2 0-.1-.1.1-.1 0 0 .2 0-.1-.1.2 0-.3 0-.3-.1-.1v-.2s0 .1-.1.2c0-.4-.1.3-.1-.2-.1.2-.2.3-.2.4 0-.3.1 0 .1-.4-.1.1-.1.4-.2.3v-.2c-.1.1-.1 0-.2.1v-.1.1c0 .2-.1.5-.1.6.1-.4 0-.1.1-.7v.2-.2c0 .1-.1.2-.1.2v-.2c0 .1-.1.3-.1.2v-.1s-.1.4-.2.2c.1-.3 0-.1 0-.4v.2s-.1.2-.1.1v-.1.1c0 .1 0 .4-.1.3v-.2c0 .1 0 .2-.1.1v-.4c0 .2-.1.1-.1.3v-.2.2-.2s0 .4-.1.2v-.1c0-.1-.1.1-.1 0 0-.3 0-.1.1-.3-.1 0-.1.3-.2.2-.1.4 0-.2-.1 0v-.2c0-.1-.1.1-.1.2v-.1c0-.1 0-.1-.1-.1v.2c0-.6-.2.3-.2-.2V75l-.1.1v.2c0 .1 0 .2-.1.2v-.4.2c0-.3-.1.3-.1.1v-.1s0 .2-.1.1v-.3s-.1.4-.1.2v-.4.1c-.1.5-.1.1-.1.4.1-.3 0-.2.1-.4v-.2c0 .2 0-.1-.1.1v-.2.2c-.1.2 0-.3-.1 0-.1.1-.1.4-.1.5v-.3c0-.1 0-.1-.1 0v-.2s0 .3-.1.2c0-.1 0-.2.1-.3 0 .1-.1.2-.1.3 0-.1 0-.2.1-.3 0 .1-.1.1-.1.3v.1-.2.1c0 .4.1-.1.1 0l-.1.3.1-.3v.5-.1.2c0 .2.1-.2.1 0 .1-.1 0-.2.1-.5l-.1.6v-.2.1-.2c0 .2.1-.1 0 .3v-.3.4c.1-.3 0 .1.1 0 0-.3.1-.1.1-.2v.3c0-.3.1-.2.1-.3 0 .2 0 .2-.1.3v-.2.2s.1-.2.1-.1c0-.2 0-.5.1-.7v.3s0-.1 0 0v.2-.1.2s0-.1 0 0v.2-.2.3c0-.1 0 0 .1-.2v.2c0-.1.1 0 .1-.3.1-.2.1.1.1 0v.1c0-.1.1 0 .1-.2v.2c0-.1 0-.1.1 0v.1c0 .1 0 .2.1 0v.2-.1.2c0 .3.2-.5.1 0V76v.4c0 .1.1-.4.1-.3 0-.1 0-.3.1-.4v.4-.1.2-.1.2-.2c0 .1 0 0 .1.1V76c0 .1 0-.2.1-.2v.5c.1-.2 0 .1.1.2v.1-.2.1c0-.1 0-.3.1-.5v.1c0-.1 0 .2-.1.3v.1c0 .2.1-.3.1-.3v.2-.5c0-.1 0-.1.1-.2v.1c0-.2 0 .2.1.1v.3c.1-.2 0 .2.1 0 0-.2 0-.1.1-.3l-.1.1.1-.3s0 .1-.1.1v-.2c0 .3.1-.1.1 0l-.1.4c0 .2.1-.2.1-.1v-.1c0-.2 0 0 .1-.1v.3c0-.1 0 0 .1-.3v.2c0 .1.1-.4.1-.4 0 .2 0 .3-.1.4v-.1c0 .1.1-.2.1-.1v-.2.1-.3c0 .5.1 0 .1.4l.1-.1v.1c0 .1.1-.4.1-.3v.2c-.1.5.1-.1 0 .2 0 .2.1-.2.1-.1v.1c.1-.2.1-.3.1-.4v.3s0-.3.1-.4v.4c0 .3 0 0 0 0v.1l.1-.3v-.1c.1-.3 0 .2 0 0v.3c0-.1.1-.3.1-.3 0 .2-.1.3-.1.4 0 0 .1 0 .1-.2v.1c0-.2.1-.3.1-.3-.1.6.1.2 0 .6.1-.2.1.1.2.1 0-.4 0 0 .1-.5v.8c0-.2 0-.2.1-.2V76c.1-.2 0 .4.1.2v.1c0-.1.1 0 .2-.3v.2c0 .1.2-.4.2-.1v.1-.1.1s.1-.2.1-.1v.1c0 .2.1-.3.2-.4v.5c.1 0 .1-.3.2-.4 0 .4.1.2.1.4 0-.1 0-.3.1-.3 0 .1.1-.2 0 .1v.2l.1-.4c0 .6.2-.2.1.3 0-.1 0-.1.1-.2v.2c0 .1 0 .1.1 0v.1l.1-.6v.3s.1.3.1 0v.1s.1.2.1-.2c0 .3 0 0 .1-.1v.2c.1-.3.1-.3.1-.4v.1c0 .1 0-.2.1-.1v.1s0-.1.1-.2v.2c0-.1.1-.3.1-.2v.1c0 .1.1-.2.1 0v.1s-.1 0 0 0c0 .2 0 .2-.1.5 0-.1.1-.4.1-.4v.3-.4c0-.1.1-.3.1-.3v.6c.1-.1.1-.1.2-.5v.3c0-.1.1 0 .1-.3v.3c0 .4.2-.7.2-.1v-.1c.1.3.2-.2.3.2 0 .1 0-.1.1-.2v.2l.1-.3c.1-.2 0 .6.1.2v-.2s.1-.1 0 .1v-.1.1l.1-.2c0 .1-.1.5 0 .5 0 0 .1-.3.1-.4v-.3c0-.3.1-.7.1-.9l-.1.2v-.2.1-.2l.1 1.9v-.3c0 .2 0 .3-.1.4v-.4c0 .1 0 0-.1.2 0-.2-.1 0 0-.3 0 .1-.1.3-.1.3.1-.4 0 0 0-.4-.1.4-.1.1-.1.3v-.3c0 .3-.1.4-.1.5.1-.2.2-.3.1-.6.1.3 0 .3 0 .5v-.3c-.1.4 0 .1-.1.3v-.2c.1-.2.1-.3.1-.3zm-.7.5zm0 0v.2-.2zm-.1 1.5c0-.1 0-.1 0 0v-.1.1zm0-.3s0-.1 0 0zm-4.7-1zm4.1-.7v.1-.1zm-4.3 0s0-.1 0 0c0-.1 0 0 0 0zm-.2-.1z" style="fill:#fff"/><path d="M51.7 75.3s0 .1 0 0c-.1.1-.1.1 0 0zm1.5 0c.1-.1 0-.1 0 0zm-.5.4s0-.1 0 0c0-.1 0-.1 0 0zm1.1-.6zm-1 .5c-.1 0-.1 0 0 0zm-1.5-.4c-.1 0-.1 0 0 0zm-.1 0zm0 .1c0-.1 0-.1 0 0zm.2 0c0-.1 0-.1 0 0zm0 0v-.1.1c0-.2 0 .1 0 0zm0 .9s0 .1-.1.1c.1.3.1-.1.1-.1zm.1.1v.2-.2zm.8.1v.2s-.1 0 0-.2zm.2-.9v-.1.1zm-.1 1.3v.1l.1-.1zm1.3.1v-.2.2zm.5-.1c0 .1 0 .2 0 0 .1 0 .1-.1 0 0zm1.6.6z" style="fill:#fff"/></g><g style="opacity:.65"><path d="M75.9 76.4v.2-.2zm.1.4c0-.1 0-.3-.1-.6 0 .2 0 .1.1.4v-.2.1c0 .2.1.2.1 0-.1.2-.1.3-.1.3zm1.1.2zm.6 0zm.2.3c0-.1 0-.1 0 0zm-.8-.3zm-1-.8zm.8 1v.1-.1zm-.2.1V77v.3zm-.4-.3zm.7.3zm5.5-2.7zm.4 1v.1-.1zm-4.8 1.9zm1.8-.5c-.1-.2 0-.2-.1-.4 0 0 0 .3.1.4zm-3.8-.8zm3.7.3zm-1.2.8c-.1-.1-.1-.1 0 0-.1-.1-.1-.1 0 0zm-.4-.3zm.5-.1c0 .1 0 .1 0 0 0 .1 0 .1 0 0zm.1 0zm3.2-2.1v.2-.2zm-5.9 1.5s0-.1 0 0c0-.1 0-.1 0 0zm2.3-1zm2.3-.2c0-.1 0-.1 0 0zm-2.2.2v.1-.1zM82 75z" style="fill:#fff"/><path d="M82.1 74.4s0 .3.1.4c0 .1-.1-.1-.1-.4v.4-.1c0 .2-.1 0 0 .3v-.1c0 .1.1.3.1.4 0 0 0 .2 0 0v-.1.1c-.1-.3 0-.1 0-.3v.2c-.1-.2 0-.1 0-.3v.1l-.1-.4c-.1-.1 0 .1-.1.1 0 .1 0 .2.1.3 0 .3-.2-.6-.1-.3 0 .2.1.5 0 .3v-.3s.1.4 0 .2v-.1c-.1-.2 0 .2 0 .2l-.1-.2s0 .2-.1.3v-.2c0 .1-.1 0-.2-.1v.2-.1.2-.2c0 .2 0 .4-.1.2V75c0-.1.1.4 0 .3-.1-.1-.1.1-.2-.2.1.3-.1-.1 0 .3-.1-.2-.1-.3-.2-.4v.3-.2.2l-.4-.3v.3c0 .1-.1-.1-.1-.3v.2-.2c0 .2-.1-.2 0 0v.2c0-.1-.1-.1-.1-.1v-.2c-.1 0-.1.1-.1.1 0 .1.1.3.1.4l-.1-.2v.3s-.1-.3-.1-.4v.1-.2c0 .2-.1-.2 0 0v-.1c-.1 0-.1.1-.1.1v.3c0-.1-.1-.2-.1-.2v.3c0-.2-.1-.2-.1-.3l-.1.2v.2s0-.1-.1-.2c0 .3-.2-.5-.2-.1v.2s0-.1-.1-.3c0 .3-.1 0-.1.2-.1-.5-.1.1-.2-.3v.1-.1.2c-.1.2-.2-.1-.4-.2 0 0 .1.7 0 .4v-.2c0 .3-.2 0-.2.3v-.1c-.1-.2-.1 0 0 .1v-.2.1-.1c0 .1-.1 0 0 .2 0-.1 0 .1-.1 0 0 .2-.1-.1 0 .2-.1-.3-.1-.3-.1-.1 0-.1 0-.1-.1-.2v.2c-.1-.4 0 .3-.1-.2 0 .2-.1.3-.1.4-.1-.3.1 0 0-.4 0 .1 0 .4-.1.4v-.2c0 .1-.1 0-.1.2v-.1.1c.1.2.1.5.1.6-.1-.4-.1-.1-.1-.7v.2-.2.2-.2.2-.1s0 .4-.1.3c0-.3 0-.1-.1-.4v.3-.1.2c0 .1.1.3 0 .3l-.1-.2v.1c0-.1-.1-.3-.1-.4v.3-.2.2-.2s.1.3 0 .2v-.1c-.1-.1 0 .1-.1 0-.1-.3 0-.1 0-.3 0 .1 0 .4-.1.3.1.4-.1-.2-.1 0v-.2c0-.1 0 .1-.1.2V76c0-.1-.1 0-.1-.1v.2c-.2-.6-.1.3-.2-.1v-.1.1c0 .2 0 .1.1.2v.2c0-.1-.1-.3-.1-.4v.2c-.1-.3.1.3 0 .1v-.1.1-.3.2-.1l-.1-.2-.1-.1v.1c.1.5 0 .1 0 .4 0-.3 0-.2-.1-.4 0-.1 0-.1-.1-.2 0 .2-.1-.1 0 .1v-.2.2c0 .3-.1-.3-.1.1v.5-.3c0-.1-.1-.1-.1 0v-.2.2-.3.3-.3.4-.2c0-.2 0 .1.1.1.1.4 0-.1.1-.1v.3-.3c0 .1.1.2.1.3v.2-.1.2c.1.2 0-.2.1 0 0-.1 0-.2-.1-.5l.1.6v-.2.1-.2c.1.2 0-.1.1.2v-.3c.1.4 0-.1.1.1v.3c-.1-.3.1.1.1 0-.1-.3 0-.1 0-.2 0 .1.1.1.1.2v-.3.3-.2.2s0-.2.1-.1c0-.2-.1-.5-.1-.7 0 .1.1.3.1.3s0-.1 0 0v.2-.1.2s0-.1 0 0c0 0 .1.1.1.2v-.2s0 .2.1.2v-.2.2c0-.1.1 0 0-.3 0-.2.1.1.1 0v.1-.2s0 .1.1.2c0-.1 0-.1 0 0v.1c0 .1.1.2.1 0 0 .2.1.2.1.2v-.1.2c.1.3 0-.5.1 0 0-.2-.1-.1-.1-.3l.1.4c.1.1 0-.4 0-.3 0-.1-.1-.3-.1-.4l.1.4v.2-.1c0 .1.1.1.1.2v-.2l.1.1v-.1c.1.1 0-.2 0-.2 0 .1.1.3.1.2 0 .1 0 .2.1.3 0-.2.1.1.1.1v.1-.2.1c0-.1-.1-.3-.1-.4 0 .1 0-.1.1.1-.1-.1 0 .2 0 .3v.1c.1.2 0-.3 0-.3 0 .1.1.2.1.2s0-.2-.1-.3v-.3.1c0-.2.1.2.1.1 0 .1 0 .2.1.3 0-.2.1.2.1 0v-.3.1-.3.1-.2c.1.3 0-.2.1 0l.1.4c.1.2 0-.2.1-.1v-.2c0 .1 0 .2.1.3v-.3l.1.2c.1.1 0-.4 0-.4 0 .2.1.3.1.4v-.4.1-.3c.1.4.1-.1.2.3 0-.1 0-.1.1-.1v.1c.1.1-.1-.4 0-.3.1.2 0 .1 0 .2.1.5 0-.1.1.2.1.2 0-.2 0-.2v.1-.4.3s-.1-.3 0-.4c0 .1.1.2.1.4.1.3 0 0 .1 0v.1-.4c0-.3.1.2 0-.1l.1.3v-.4.5-.2.1-.3c.1.6.1.1.2.6 0-.2.1.1.2 0-.1-.4 0 0-.1-.5l.1.3v.2s.1.2.1.3v-.2l-.1-.2c0-.2.1.4.1.1v.1c0-.1.1 0 0-.4v.2c.1 0 0-.4.1-.2v.1-.1.1-.1.1c.1.1 0-.3.1-.4.1.3.1.4.2.5.1 0 .1-.3.1-.4.1.3.1.1.2.3v-.3.1c.1.3.1.2.1.2l-.1-.4c.2.6.1-.2.2.3v-.2.2s.1.1.1 0v.2l-.1-.6.1.3s.1.3.1 0v.1s.1.2 0-.2c.1.3.1 0 .1-.1v.2-.4.1-.1.1-.2c0-.1.1 0 .1.2v-.2.1c.1.1 0-.2.1-.1v.1h-.1c0 .2.1.2.1.5v-.4.2c0 .2 0 .1.1.1 0-.2 0-.2-.1-.3v-.4c.1.3.1.4.2.6 0-.1.1-.1 0-.5 0-.1 0 .1.1.2v.1c0-.1.1-.1 0-.3.1.1 0 .3.1.2v.1c.2.4 0-.7.2-.2v-.1c.1.2.1-.3.3.1v-.2.2-.3c0-.2.2.5.2.2v-.1s0-.1.1.1v-.1.1-.2c0 .1.1.5.1.5v-.4s0-.1-.1-.2v-.1c-.1-.3-.1-.7-.2-.9v.2-.2.1-.2.3c0-.1 0-.3-.1-.3 0 .2.1.3.1.4 0-.2-.1-.3-.1-.1v-.2.2c-.1-.2 0 .1-.1-.3v.3c-.1-.4-.1 0-.1-.4.1.4 0 .2 0 .4v-.1s0-.1-.1-.2c.1.3 0 .4.1.5-.1-.3-.1-.3-.1-.6 0 .2 0 .2.1.4-.1-.2 0-.1-.1-.3.1.4 0 .1 0 .3-.1-.2-.1-.3-.1-.2-.2.3-.2.1-.2.1zm-.5.8zm0 0c0 .1.1.1 0 .1v-.1zm.3 1.4s0-.1 0 0v-.1.1zm0-.3zm-4.8.7s0-.1 0 0c0-.1 0-.1 0 0zm3.7-2.1v.1-.1zm-4.1 1.4zm-.2 0zm-.1-.1s0 .1 0 0c0 .1 0 .1 0 0zm1.5-.5c0-.1 0-.1 0 0zm-.4.5v-.1.1zm.9-.9z" style="fill:#fff"/><path d="M77.6 76.1c-.1 0-.1 0 0 0-.1 0-.1.1 0 0zm-1.6.1zm0 0zm0 .1c0-.1 0-.1 0 0zm.1 0c0-.1 0-.1 0 0zm.1-.1s-.1-.2-.1-.1l.1.1c-.1-.1 0 .2 0 0zm.3.9v.2c.1.2 0-.2 0-.2zm.1.1v.2c.1-.1.1-.1 0-.2zm.7-.1v.2c.1-.1.1-.1 0-.2zm0-1V76v.1zm.3 1.3h.1zm1.2-.3v-.2.2zm.5-.3c.1.1.1.1 0 0 .1 0 0-.1 0 0zm1.7 0v.1-.1z" style="fill:#fff"/></g><path d="M114 65.8c-.3-.4-.5-.1-1-.1h-.9c-.5 0-.5-.1-.9-.1-.5 0-.5.2-.9 0 .3-.2.5-.5.8-.7l.9-.6c.3-.3.6-.5.8-.7.5-.4.8-.7.8-.7-.3-.4-.4-.3-.7-.7 0 0-.3.3-.8.7-.2.2-.5.4-.8.7-.3.2-.6.4-.9.7-.3.2-.5.4-.8.7-.2-.5 0-.5 0-1v-1c0-.5.3-.6 0-1s-.7-.5-1-.1c-.4.3.1.5.1 1s-.1.5-.1 1 .1.5.1 1 .1.5 0 1c-.3.2-.6.3-.8.5-.3.2-.5.4-.7.6-.3.2-.6.2-.9.4-.3.2-.5.3-.8.5-.3.2-.5.4-.8.6-.3.2-.6.3-.9.4-.3.1-.6.2-1 .3-.3.1-.6.3-.9.4-.3.1-.7.1-1 .2-.3.1-.7.2-1 .3-.3.1-.7.2-1 .2-.4.1-.7.1-1 .2-.4.1-.7.1-1 .1-.6.1-1 .1-1.1.1 0 .5 0 .5.1 1h1c.3 0 .6-.2.9-.2.3 0 .6 0 1-.1.3-.1.6-.3.9-.3.3-.1.6-.2.9-.2.3-.1.6-.1.9-.2.3-.1.6-.1.9-.2l.9-.3.9-.3c.3-.1.6-.2.9-.4.3-.1.6-.3.8-.5.3-.2.5-.4.8-.6.3-.2.6-.3.8-.5.3-.2.6-.4.8-.5.3-.2.5-.4.8-.6.5 0 .5.2 1 .2s.5 0 1 .1c.5 0 .5 0 1 .1.5 0 .5.1 1 .1s.5.2 1 0c.3-.6.3-1.1-.1-1.5zm-87.5-.9c0-.5.1-.5.2-1l.2-1c.1-.5.5-.6.3-1-.3-.4-.6-.4-1-.1-.4.3-.1.5-.2 1s-.1.6-.3 1c-.2-.3-.4-.4-.6-.7-.2-.3-.4-.6-.5-.8-.5-.3-.6-.6-.6-.6-.4.2-.4.2-.9.5 0 0 .2.3.6.8.2.2.3.5.6.8.2.2.4.5.7.8-.5.2-.5-.1-1-.1s-.5.1-1 .1-.7-.4-1-.1c-.3.4-.3.7.1 1 .3.3.5 0 .9 0 .5 0 .5-.1 1-.1h1c.5 0 .5 0 .9.1.2.2.5.4.7.7.2.2.4.5.7.8.2.2.5.4.8.7.2.2.4.5.6.7.2.2.5.4.8.6.3.2.6.3.9.4.3.2.5.4.8.6.3.2.6.3.9.4l.9.3c.3.1.5.4.8.5.3.1.6.1.9.2l.9.3c.3.1.6.3.9.3.3.1.7.1 1 .1.4.1.7.2.9.3.5.1.8.1.9.1.1-.5.1-.5.1-1 0 0-.3 0-.9-.1-.3 0-.6-.1-1-.2l-.9-.3-.9-.3-.9-.3-.9-.3c-.3-.1-.6-.2-.9-.4-.3-.1-.6-.2-.9-.4-.3-.1-.5-.4-.8-.6-.3-.2-.6-.3-.9-.5-.3-.2-.5-.4-.8-.6-.3-.2-.5-.4-.7-.7-.2-.2-.6-.4-.8-.6-.2-.2-.4-.6-.6-.8-.5 0-.8-.2-1-.5z" style="fill:#d83429"/><path d="M50.4 54.7s0-.1 0 0zm0-.1s0 .1 0 0c0 .1 0 .1 0 0 0 0 0 .1 0 0zm-.5 0zm-.3-.1zm-.1 0zm.4.1zm.4.1zm-.3-.2zm.1 0c0 .1 0 0 0 0zm.2.1zm-.3-.1zm-3 .2zm-.1-.1zm2.5-.1zm-.9 0zm1.8.2zm-1.8-.2zm.7 0zm.2 0zm-.3 0zm-.1 0zm-1.7.2s-.1 0 0 0c0 0-.1 0 0 0zm3 0zm-1.2 0zm-1.2 0zm1.2 0c-.1 0-.1 0 0 0-.1 0-.1 0 0 0zm-1.9 0zm0 0 .1-.1c0 .1 0 0-.1.1l.1-.1v.1s0 .1 0 0c0 0 0-.1 0 0 0 0 0-.1 0 0h.2s.1-.1.1 0c0 0 0-.1 0 0h.1v.1h.1v-.1h.3s.1.1.1 0h.1c0 .1.1 0 .1 0h.2s0-.1 0 0h.1c0 .1 0 0 .1 0 0 0 .1 0 .1-.1v.1s0-.1.1 0h.1v-.1.1s0-.1.1 0v.1h.2c0-.1 0 0 0 0h.1c0 .1.1 0 .1 0v.1s0-.1 0 0v-.1.1h.1v-.1c0-.1 0 0 0 0v.1-.1c0-.1 0 0 0 0v.1h-.1s0 .1-.1 0v-.1.1-.1.1-.1h-.1s0 .1 0 0v-.1c0-.1-.1 0-.1 0s0 .1 0 0v.1-.2c0-.1 0 0-.1-.1h-.1v.1s0-.1 0 0H49s-.1.1-.1 0l-.1.1v-.1s-.1 0-.1.1h-.1v.1c0-.1-.1 0-.1 0h-.1v.1h-.1v.1-.1s0 .1 0 0v-.1l-.1.1c0-.1-.1.1-.1 0H48s0-.1-.1 0v-.1.2-.1.1c-.9-.3-.9-.3-.7-.3-.1 0-.1 0 0 0-.1 0-.1 0 0 0-.1 0-.1 0 0 0-.1 0-.1 0 0 0-.1 0-.1 0 0 0-.1 0-.1 0 0 0-.1 0-.1 0 0 0 0 0-.1 0 0 0zm.3 0zm0 0c0-.1 0-.1 0 0 0-.1 0-.1 0 0zm-.1-.2c.1 0 .1 0 0 0 .1 0 0 0 0 0zm0 0zm2.5.1zm-2 .1zm2.1 0zm.1 0zm.1 0zm-.8 0zm.2-.1c0 .1 0 .1 0 0zm-.5.1zm.5 0s0-.1 0 0zm.8 0zm0 0zm0 0zm-.1 0zm0 0zm-.1-.1s0-.1 0 0c0-.1 0 0 0 0zm0-.1zm-.4 0zm-.1.2zm0-.2zm-.7 0zm-.2 0zm-.8 0v-.1l-.1.1zm6.4-10.8zm-.1 0s.1 0 0 0c.1 0 0 0 0 0zm-.5-.1zm-.3 0zm0 0zm.3 0zm.5.2s0-.1 0 0c0-.1 0-.1 0 0 0-.1 0 0 0 0zm-.3-.2zm.1 0zm.1 0zm-.3 0zm-3 .2zm-.1-.2zm2.6-.1zm-.9 0c0 .1-.1.1 0 0 0 .1 0 .1 0 0zm1.8.2zm-1.8-.1zm.6-.1zm.2.1zm-.3 0zm0 0zm-1.8.2s0-.1 0 0zm3.1-.1zm-1.3.1zm-1.2 0zm1.2 0zm-1.8-.1zm-.1.1c0-.1 0 0 0 0s0-.1 0 0c0-.1.1 0 0 0 .1-.1.1-.1 0 0l.1-.1-.1.1.1-.1v.1s0 .1 0 0c0 0 0-.1 0 0 0 0 0-.1 0 0h.2s.1-.1.1 0c0 0 0-.1 0 0h.1v.1h.1v-.1h.3s.1.1.1 0h.1c0 .1.1 0 .1 0h.2s0-.1 0 0h.1c0 .1 0 0 .1 0 0 0 .1 0 .1-.1v.1s0-.1.1 0h.1v-.1.1s0-.1.1 0v.1h.2c0-.1 0 0 0 0h.1c0 .1.1 0 .1 0v.1s0-.1 0 0v-.1.1h.1v-.1c0-.1 0 0 0 0v.1-.1c0-.1 0 0 0 0v.1h-.1s0 .1-.1 0v-.1.1-.1.1-.1h-.1s0 .1 0 0v-.1c0-.1-.1 0-.1 0s0 .1 0 0v.1-.2c0-.1 0 0-.1-.1H53v.1s0-.1 0 0h-.1s-.1.1-.1 0l-.1.1v-.1s-.1 0-.1.1h-.1v.1c0-.1-.1 0-.1 0h-.1v.1h-.1v.1-.1s0 .1 0 0v-.1l-.1.1c0-.1-.1.1-.1 0h-.1s0-.1-.1 0v-.1.2-.1.1c-.8-.4-.8-.3-.7-.3-.1-.1-.1 0 0 0-.1 0-.1 0 0 0-.1-.1-.1-.1 0 0-.1-.1-.1 0 0 0-.1 0-.1 0 0 0 0 0 0-.1 0 0 0-.1 0 0 0 0zm.3-.1zm0 0zm0-.2zm0 .1zm2.4 0zm-2 .2zm2.2-.1zm0 0zm.1 0zm-.8.1zm.2-.1zm-.5.1zm.5-.1zm.8.1zm0 0c0-.1 0-.1 0 0zm0-.1zm-.1 0zm0 0s0 .1 0 0c0 .1 0 0 0 0zm-.1-.1c.1 0 0 0 0 0s.1 0 0 0zm0 0zm-.4 0zm-.1.1h.1zm0-.2v.1zm-.6.1s0-.1 0 0zm-.3 0zm-.8-.1zM47 40.1s0-.1 0 0zm0-.1s-.1.1 0 0c0 .1 0 .1 0 0 0 0 0 .1 0 0zm-.5 0zm-.4-.1zm0 0zm.4.1c-.1 0-.1 0 0 0zm.4.1zm-.3-.2zm.1 0s0 .1 0 0c0 .1 0 .1 0 0zm.2.1zm-.4-.1zm-3 .2zm-.1-.1zm2.6-.1zm-.9 0zm1.8.2zm-1.8-.2zm.7 0zm.1 0zm-.2 0zm-.1 0zm-1.8.2zm3.1 0zm-1.2 0zm-1.2 0zm1.1 0zm-1.8 0zm-.1 0s.1 0 0 0c.1 0 .1 0 0 0 .1 0 .1 0 0 0 .1 0 .1 0 0 0l.1-.1c0 .1 0 0-.1.1l.1-.1v.1s0 .1 0 0c0 0 0-.1 0 0 0 0 0-.1 0 0h.2s.1-.1.1 0c0 0 0-.1 0 0h.1v.1h.1v-.1h.3s.1.1.1 0h.1c0 .1.1 0 .1 0h.2s0-.1 0 0h.1c0 .1 0 0 .1 0 0 0 .1 0 .1-.1v.1s0-.1.1 0h.1V40v.1s0-.1.1 0v.1h.2c0-.1 0 0 0 0h.1c0 .1.1 0 .1 0v.1s0-.1 0 0v-.1.1h.1v-.1c0-.1 0 0 0 0v.1-.1c0-.1 0 0 0 0v.1h-.1s0 .1-.1 0v-.1.1-.1.1-.1h-.1s0 .1 0 0v-.1c0-.1-.1 0-.1 0s0 .1 0 0v.1-.2c0-.1 0 0-.1-.1h-.1v.1s0-.1 0 0h-.1s-.1.1-.1 0l-.1.1V40s-.1 0-.1.1h-.1v.1c0-.1-.1 0-.1 0h-.1v.1h-.1v.1-.1s0 .1 0 0v-.1l-.1.1c0-.1-.1.1-.1 0h-.1s0-.1-.1 0v-.1.2-.1.1c-.8-.3-.8-.3-.7-.3-.1 0-.1 0 0 0-.1 0-.1 0 0 0-.1 0 0 0 0 0zm.3 0zm.1 0c-.1 0-.1-.1 0 0-.1-.1 0 0 0 0zm-.1-.2zm0 0zm2.5.1zm-2.1.1zm2.2 0zm.1 0zm0 0zm-.8 0zm.3-.1c0 .1 0 .1 0 0 0 .1 0 .1 0 0zm-.5.1zm.4 0c.1 0 .1 0 0 0 .1 0 0 0 0 0zm.8 0zm0 0zm0 0zm0 0zm-.1 0c.1 0 .1 0 0 0 .1 0 .1 0 0 0zm0-.1s0-.1 0 0c0-.1 0 0 0 0zm-.1-.1zm-.4 0zm0 .2zm-.1-.2zm-.6 0zm-.3 0zm-.8 0z" style="fill:#4b5d9a"/><g style="opacity:.6"><path d="M55.7 49.8zm0-.1c-.1 0-.1.1 0 0 0 .1 0 .1 0 0 0 0 0 .1 0 0 0 .1 0 .1 0 0zm-.6 0zm-.3 0zm-.1-.1zm.4.1zm.5.1zm-.3-.1s0-.1 0 0zm.1-.1s0 .1 0 0c0 .1 0 .1 0 0 0 .1 0 .1 0 0zm.2.1zm-.4 0c0-.1 0-.1 0 0 0-.1 0-.1 0 0zm-3.1.2zm-.1-.1zm2.6-.2zm-.9.1zm1.9.1zm-1.9-.1zm.7-.1zm.2.1zm-.3 0zm-.1 0zm-1.8.2zm3.2-.1zm-1.3.1zm-1.2 0zm1.1 0zm-1.8 0zm-.1.1s0-.1 0 0c0-.1 0-.1 0 0 0-.1 0-.1 0 0 0-.1 0-.1 0 0 0-.1.1-.1 0 0 .1-.1.1-.1 0 0l.1-.1v.1s0 .1 0 0c0 0 0-.1 0 0 0 0 0-.1 0 0h.2s.1-.1.1 0c0 0 0-.1 0 0h.1v.1h.1V50h.3s.1.1.1 0h.1c0 .1.1 0 .1 0h.2v-.1h.1c0 .1 0 0 .1 0 0 0 .1 0 .1-.1v.1s0-.1.1 0h.1v-.1.1s0-.1.1 0v.1h.2c0-.1 0 0 0 0h.1c0 .1.1 0 .1 0s0-.1 0 0v-.1.1h.1v-.1c0-.1 0 0 0 0v.1-.1c0-.1 0 0 0 0v.1h-.1s0 .1-.1 0v-.1.1-.1.1-.1h-.1v.1-.1c0-.1-.1 0-.1 0s0 .1 0 0v.1-.2c0-.1 0 0-.1-.1h-.1v.1s0-.1 0 0l-.1.1s-.1.1-.1 0l-.1.1v-.1s-.1 0-.1.1h-.1v.1c0-.1-.1 0-.1 0h-.1v.1h-.1v.1-.1.1-.1l-.1.1c0-.1-.1.1-.1 0H53s0-.1-.1 0v-.1.2-.1.1c-.8-.5-.7-.5-.6-.4-.1-.1-.1-.1 0 0-.1-.1-.1-.1 0 0-.1-.1-.1-.1 0 0-.1-.1-.1-.1 0 0-.1-.1-.1-.1 0 0-.1-.1-.1-.1 0 0-.1-.1 0-.1 0 0 0-.1 0 0 0 0zm.3-.1zm0 0zm0-.2zm0 0zm2.5 0zm-2.1.2zm2.3-.1zm.1 0zm0 0zm-.8.1zm.2-.1zm-.5.1zm.5-.1zm.8 0zm0 0zm0 0zm0 0zm-.1 0s.1 0 0 0c.1 0 0 0 0 0zm0-.1c-.1-.1 0 0 0 0zm-.1 0s0-.1 0 0c0-.1 0 0 0 0zm-.4 0c0-.1 0 0 0 0zm-.1.1zm0-.2zm-.7.1s0-.1 0 0zm-.3 0zm-.8 0z" style="fill:#fff"/></g><path d="m70.6 82.2-.8-3.6c-.1-.3 0-.6.1-.8.5-.8.7-1.8.5-2.9-.3-1.3-1.4-2.6-2.7-2.7-3.1-.4-4.5 1.3-4.5 3.6 0 .8.2 1.5.6 2.1.1.2.2.4.2.6l-.7 4.5c0 .4.2.7.6.7h6.2c.4-.1.6-1.2.5-1.5z" style="fill:#d9413d"/></g></svg>