<svg xmlns="http://www.w3.org/2000/svg" viewBox="0 0 131.2 142.8" style="enable-background:new 0 0 131.2 142.8" xml:space="preserve"><style>.st5{fill:#0d695c}.st6{fill:#4db6ac}.st7{fill:none;stroke:#ef7937;stroke-width:.925;stroke-miterlimit:10}.st8{fill:#147467}.st9{fill:#4db6ac}.st10{fill:none;stroke:#0d695c;stroke-width:.8491;stroke-miterlimit:10}.st11{fill:#147467}.st12{fill:#4db6ac}.st13{fill:none;stroke:#d9413d;stroke-width:.8491;stroke-miterlimit:10}.st14{opacity:.37}.st15{clip-path:url(#SVGID_2_)}.st16{clip-path:url(#SVGID_4_)}.st17{clip-path:url(#SVGID_6_)}.st18{clip-path:url(#SVGID_8_)}.st19{clip-path:url(#SVGID_10_)}.st20{clip-path:url(#SVGID_12_)}.st21{clip-path:url(#SVGID_14_)}.st22{clip-path:url(#SVGID_16_)}.st23{clip-path:url(#SVGID_18_)}.st24{clip-path:url(#SVGID_20_)}.st25{fill:none;stroke:#147467;stroke-width:.925;stroke-miterlimit:10}.st26{clip-path:url(#SVGID_22_)}.st27{clip-path:url(#SVGID_24_)}.st28{clip-path:url(#SVGID_26_)}.st29{clip-path:url(#SVGID_28_)}.st30{clip-path:url(#SVGID_30_)}.st31{fill:none;stroke:#d9413d;stroke-width:.925;stroke-miterlimit:10}.st32{clip-path:url(#SVGID_32_)}.st33{clip-path:url(#SVGID_34_)}.st34{clip-path:url(#SVGID_36_)}.st35{clip-path:url(#SVGID_38_)}.st36{clip-path:url(#SVGID_40_)}.st37{fill:#147467}.st39{fill:#ee8423}.st40{fill:#f18a50}.st41{fill:#019788}.st42{fill:#32867a}.st43{fill:#f67258}.st44{fill:#de5956}.st45{opacity:.5}.st46{fill:#4b5d9a}.st47{opacity:.6}.st48{fill:#21a497}.st49{fill:#f7846d}.st50{fill:#26a59a}.st51{opacity:.65;fill:none;stroke:#fff;stroke-width:.2;stroke-miterlimit:10}.st52{fill:#80cbc4}.st53{fill:none;stroke:#31458b;stroke-miterlimit:10}.st54{fill:#0d695c}.st55{fill:none;stroke:#f5a800;stroke-miterlimit:10}.st55,.st56,.st57{stroke-width:.2}.st56{fill:none;stroke:#4db6ac;stroke-miterlimit:10}.st57{stroke:#ff8a65}.st57,.st58,.st59,.st60,.st61{fill:none;stroke-miterlimit:10}.st58{opacity:.65;stroke:#fff;stroke-width:.5}.st59{stroke:#ef7937}.st60{stroke:#147467}.st61{stroke:#d9413d}.st62{fill:#147467}.st63,.st64,.st65{fill:#80cbc4}</style><g id="Calque_1"><path d="M77.2 113.7s-24.4-.3-29.7 1.4c-5.3 1.7 13.7 6.7 23.8 5.8s17.5-4.3 14.5-5.4c-3-1.2-6-1.5-8.6-1.8z" style="opacity:5.000000e-02"/><path d="M72.2 116.4c-1.3.5-1.4.5-2.7.1-.4-.1.2-.4.4-.7 0 0 .2-.9.7-2.1.2-.6.6-1.3.8-2.1.2-.7.4-1.4.6-2.2.2-.7.4-1.4.6-2.2.2-.7.4-1.5.5-2.2.1-.8.1-1.5.1-2.2 0-.7.1-1.4 0-2.2-.1-.7-.3-1.4-.4-2.2-.1-.7-.1-1.5-.2-2.2-.1-.7-.4-1.5-.5-2.2-.1-.8-.3-1.5-.4-2.2-.2-.8-.4-1.5-.5-2.1-.3-1.3-.4-2.1-.4-2.2.5-.1.5-.1 1-.1 0 .1.1.8.4 2.1.1.6.5 1.3.6 2.2.1.7.2 1.5.4 2.2.1.7.2 1.5.3 2.2.1.7.4 1.5.5 2.2.1.8.1 1.5.2 2.3.1.8.2 1.6.2 2.2 0 .7-.2 1.4-.3 2.2-.1.7-.1 1.4-.3 2.2l-.6 2.1c-.2.7-.5 1.4-.7 2.1-.2.7-.5 1.4-.7 2.1-.3.9-.5 1.5-.7 2 .6.3.7-.3 1.3 0 .4.1.3.8-.2.9zm-16.7.2c1.3.5 1.4.2 2.8-.1.4-.1-.1-.3-.2-.7 0 0-.5-.8-.9-2-.2-.6-.4-1.4-.7-2.1-.2-.7-.5-1.4-.8-2.1-.2-.7-.4-1.5-.6-2.2-.2-.7-.3-1.5-.4-2.2-.1-.8-.3-1.5-.3-2.2 0-.7.2-1.4.3-2.2.1-.7 0-1.5.1-2.2.1-.7.3-1.4.5-2.2.1-.7.2-1.5.3-2.2.1-.8.3-1.5.5-2.2.2-.8.3-1.6.4-2.2.3-1.3.6-2.1.6-2.2-.5-.1-.5-.3-1-.4 0 .1-.4 1.1-.7 2.3-.1.6-.1 1.4-.3 2.2-.1.7-.4 1.4-.5 2.2-.1.7-.3 1.5-.5 2.2-.1.7-.1 1.5-.2 2.3-.1.8-.3 1.5-.4 2.2-.1.8 0 1.6 0 2.3 0 .7-.1 1.4.1 2.2.1.7.3 1.4.5 2.1.2.7.3 1.4.5 2.1l.6 2.1c.2.7.4 1.5.7 2.1.3.9.7 1.6.9 2.1-.6.3-.7-.3-1.2 0-.6.3-.6.8-.1 1z" style="fill:#0d695c"/><path d="M39.5 89.3c0-1.3-.3-1.3-.3-2.6s-.1-1.3-.1-2.6.4-1.3.5-2.6c0-1.4-.1-1.1.1-2.8.1-.8.4-1.7.6-2.8.1-.9.1-1.8.2-2.8.1-.9.2-1.9.3-2.8.1-.9.1-1.9.2-2.8.1-.9 0-1.9.1-2.9s.4-1.9.5-2.8c.1-1 0-1.9.1-2.9s.4-2 .4-3-.4-2-.5-3c-.1-1-.1-2-.2-3s-.5-2-.7-2.9c-.2-1 0-2.1-.3-3-.2-1-.5-2-.7-2.9-.2-1-.6-1.9-.7-2.9-.1-.9.2-1.8.1-2.8 0-.9-.4-1.9-.4-2.8 0-1 .3-1.9.3-2.8 0-1-.2-2-.2-2.8.1-1.7.3-1.4.4-2.8 0-.9 0-1.9.2-2.7.3-.9.7-1.7 1.2-2.4s1.3-1.2 2.1-1.8c.7-.5 1.4-1.3 2.3-1.6.8-.3 1.8 0 2.8 0 1.4-.2.9-.5 2.7-.9.8-.1 1.7-.3 2.8-.4.8-.1 1.7-.5 2.8-.6.9-.1 1.8-.1 2.8-.2.9-.1 1.8.1 2.8.1.9 0 1.8-.3 2.8-.3.9 0 1.8.6 2.7.6.9 0 1.9-.6 2.8-.5.9 0 1.9.2 2.7.2 1 .1 1.9.3 2.7.3 1 .1 1.9.3 2.7.4 1 .1 2 0 2.7.1 1.7.3 1.2 1 2.6 1.1 1.2 0 2.1.4 2.9 1.2s1.1 1.7 1.1 2.9c0 1.3.5 1.3.5 2.5 0 1.3-.4 1.3-.4 2.5s.1 1.3.1 2.5-.2 2.4-1 3.2c-.8.8-2 1.3-3.2 1.3-1.3 0-.6-.2-2.5-.2-.7 0-1.5.3-2.5.3-.8 0-1.6.4-2.2 1.3-.5.7-.7 1.7-1 2.6-.3.9-.8 1.8-.8 2.7 0 1.1.1 2.1.5 2.9.5.8 1.4 1 2.6 1 1.4 0 1.4.2 2.9.2 1.2 0 2.5.3 3.3 1.1s.9 2.1.9 3.3c0 1.4.3 1.4.3 2.9 0 1.4-.1 1.4-.1 2.9 0 1.4-.4 1.4-.4 2.9 0 1.4.4 1.4.4 2.9 0 1.4.1 1.4.1 2.9 0 1.2-.6 2.4-1.4 3.2-.8.8-2 1.4-3.2 1.4 1.7 0 2.6-.3-1.9-.3-1 0-2 .2-2.6.9-.6.6-.8 1.6-1.1 2.5.2 1 .3 1.9.3 2.8.1.9.4 1.8.8 2.5.5.9 1 1.6 1.9 1.6 1.2 0 2.2.1 3 .1 2 0 1.5-.4 3-.4 1.2 0 2.2.8 3 1.6.8.8 1.5 1.8 1.5 3 0 1.5-.3 1.5-.3 3s-.2 1.5-.2 3 .6 1.5.6 3c0 1.2-.9 2.2-1.7 2.9-.8.8-1.8 1.3-3 1.3-1.4.1-.9.2-2.7.4-.8.1-1.7.2-2.7.3-.8.1-1.7.2-2.7.2-.8.1-1.8.1-2.7.1-.9 0-1.8.4-2.7.4h-2.7c-.9 0-1.8.1-2.7.1h-3c-1 0-2.1.1-3 0-1 0-2-.5-3-.6-1.1-.1-2.1.1-3 .1-1.1-.1-2.1 0-3-.1-1.1-.1-2.1-.7-3-.8-1.9-.2-1.5 0-3-.1-1.2 0-2.4-.3-3.2-1.1-.8-.7-1-1.9-1-3.1z" style="fill:#4db6ac"/><g style="opacity:.65"><path d="M72 42.6s-.1-.1-.1 0l.1.2v-.2zm-.6.1c0 .1 0 .3.1.4v-.3c0-.1.1 0 .2 0 0 0 .1 0 .1-.1-.2-.1-.3 0-.4 0 0 .1 0 .1 0 0zM65 45c.1 0 .1 0 0 0zm-.5-.9zm.5-.3zm0 1.2h-.1.1zm5.9-1.4zm-4.1.9c.1 0 .1-.1 0 0zm1.4-.4v.2-.2zm2.1-.8zm-4.5 1.4c0-.1 0-.1 0 0 0-.1 0 0 0 0zm-4.5-9.3zm1.5-1v.1zM66 43zm-4.6-1.5c.2.1-.2.2 0 .3 0-.1.2-.3 0-.3zm9.4 2.1c0 .1 0 .1 0 0zm-9.4-1.8zm6.2-1.6zm-1.3 1.9zm1.6-3.1c.1 0 .1 0 0 0 .1 0 .1 0 0 0zm-.9-.2h.1zm-8-.6s.1 0 .1.1c-.1-.1 0-.3-.1-.1zm11.8 5.4zm-3.9-5 .1-.2s-.1.1-.1.2zm-14.2 5c-.1 0 0 0 0 0zM68.2 39c-.1 0-.1 0-.2.1l.2-.1zm-9.1-.8z" style="fill:#fff"/><path d="M59.8 37.1c-.1.1.1.2.1.3-.1.2-.2 0-.3 0-.1.1 0 .3-.1.4l-.1-.1c0 .2-.3.3-.3.5l.2.2c-.1.1 0 .2-.1.1v-.1.1c-.2-.1.1-.1 0-.2-.1.1-.1.4-.3.4-.1-.1.2-.2 0-.2l.2-.1c-.3-.1.1-.1-.2-.2-.2.1-.2.2-.4.4 0 .1.1.1.1.2-.2.4-.5-.2-.6.2 0 .1.1.3-.1.3l-.1-.2c-.2.1 0 .3-.3.3 0-.1.1-.2.1-.2-.2 0 0 .2-.2.2l-.1-.1-.6.6c0-.1 0-.1-.1-.1-.3.3-.7.3-1.1.4l-.1.2s-.1 0-.1-.1c-.2 0 0 .1 0 .2-.1 0-.1 0-.1-.1-.2.2-.5.5-.8.5v-.1c-.2 0-.1.4-.4.4-.3.1-.6.3-.9.4-.3.2-.6.3-.8.4.1 0 0 .1 0 .2-.1.1-.1.2 0 .2-.2.3-.3.2-.3.7 0 .1.2.1.4.2l-.1.1h.3l-.1.2h.1v-.1c.2 0 .2.2.2.3.2 0 .4 0 .6-.1-.1.1-.2.1-.3.1.5-.1-.1.2.4 0l.1-.1c.1.1.5 0 .8 0l-.1.1c.7-.1.9-.2 1.3-.2-.1 0-.1-.2 0-.3l.1.2c.1-.1-.1 0 0-.2.1 0 .1.2 0 .2l.2-.1v.1c.1-.1.3.1.4-.1.3 0 .5-.1.8-.2 0-.1.1-.1.2-.2.2 0 .5.1.7.1.2-.1 0-.1.1-.2 0 .1.3.1.2.2.3-.1.4-.1.7-.2l-.1-.1c.1 0 .2 0 .2.1.4-.2 1 .3 1.3-.1l.3-.2c.2 0-.1.1.1.2.3-.3.6-.1.9-.3.3.3.9-.2 1.2-.1v-.1c.1-.1.1 0 .2 0 0-.1-.1-.1-.1-.1.7-.3 1.5-.4 2.3-.6.3-.1-.1-.5.4-.5v.2c.4-.4 1-.6 1.4-1.1v.1c.2 0 .4-.3.3-.4.1-.1.1.1.2 0 .1 0 .1-.3.2-.3v.1c0-.1.3-.3.1-.3.2-.1.2-.4.4-.5-.1-.2.3-.3.1-.5.1 0 .1 0 .2-.1l1.4-2.1-2.6 1.7c-.1.1-.1.3-.1.4 0-.1-.1.1-.2 0 0 .1-.1.3.1.3-.3.1 0 .6-.4.5l-.3 1.2c-.2-.1.2-.4 0-.5-.1.4 0 .6-.2.9-.1.1-.1-.1-.1-.1-.1.4-.4.6-.4.9v-.1c0 .1-.1.1 0 .2v-.1c.2 0 .1.4.2.4-.2-.3-.2.2-.4-.2 0 0 0 .1.1.1-.1 0-.1 0-.1-.1-.1.2 0 .2-.1.4 0 0 0-.1-.1-.1 0 .1 0 .3-.1.4 0 0-.1 0 0-.1-.2.2-.1.5-.5.7-.1-.2-.2.1-.3 0l-.1.2h.2c-.2.2-.1.3-.3.4v-.1l-.2.3.2-.1c0 .1.3 0 .1.2 0 0-.1.1-.3.2 0 .1.1.1-.1.2-.1 0-.3 0-.4.1.2 0-.3.3 0 .3 0 0-.2 0-.3.1h.2c-.1.1-.2.1-.3.1-.2.2.5-.2.1.1h-.1c-.2.1-.2.2-.3.3l-.1.1h.2c-.3.2-.4.1-.6.2.6 0 1.3-.3 1.7-.2H64c.4-.3.2.1.5 0-.1 0-.2.2-.2.1.3 0 .7-.1 1.1-.3v.1h.5c0-.1.1-.1.1-.2.5.3.8-.4 1.3-.1l-.1.1.3-.1c-.5 0-.5.1-.6 0 0-.1.1-.2.2-.2-.1.1 0 .2.1.2v-.1c.2.2 0-.2.2-.2v.1l.2-.2c.1.1-.1.1 0 .2.1 0 .2-.3.3-.2 0 .1-.1.1-.2.1.2.1.2.1.3.1h.2-.1c.1-.4.3-.2.4-.5-.1.3 0 .1 0 .3.1 0 .2 0 .2.1.1-.2.2 0 .3-.2 0 0 .1 0 .1.1.1-.1-.1-.1-.1-.1.1-.2.6 0 .8-.4.2-.2.2-.4.3-.6.1 0 0 .2 0 .2.2 0 .2-.1.3-.2 0 .1 0 .1.1.1.1-.1 0-.2.1-.2v.2c.1-.1.1-.3.2-.4.1 0 0 .1 0 .2.1-.1.3-.3.2-.4h-.1l.1.1c0 .2-.2.1-.2 0l.1-.1c-.2-.2-.3.2-.4.3l-.1-.2-.1.3c-.1 0-.1-.1-.1-.2-.2 0-.1.1-.2.1l-.1.1s-.1-.1 0-.1c-.3 0-.2.3-.4.2-.2.2.1.2-.1.4l-.3-.3v.2H69c-.1.1 0 .1 0 .2-.2-.1-.4.2-.5 0 0 .1.2 0 0 .2-.1-.2-.2.1-.3.1 0-.1.1-.1 0-.2 0 .2-.3.1-.4.1.1.2-.2.2-.4.3 0-.1-.4 0-.6 0 0 .2-.2.2-.3.3 0-.1 0-.2.1-.2h-.1c0 .1 0 .1-.1.1v-.1c-.2 0-.3.2-.5.2 0 .1.2.3 0 .4 0-.1-.1-.2 0-.2l-.1.1.1-.1c-.1 0 0 .1-.1.1 0-.1-.1-.1-.1-.1h.1c-.1 0-.2 0-.3-.1v.2c-.2 0-.1-.1-.2-.1 0 .1-.1 0-.1.2-.1 0-.1-.1-.1-.1-.1.1-.4.1-.3.2-.3.2-.5 0-.7.1v-.1c-.2.1-.3.1-.5.2 0 0 0-.1.1-.2-.1 0-.3.1-.3 0 .6-.3.5-.3.6-.3 0 0 .1-.1-.3 0 .3-.2.3-.2.2-.1l-.2.1c-.1 0-.2 0 0 0l.4-.2c.3-.2.1-.1.1-.1-.1 0-.1 0 .3-.2-.2 0-.2.1-.5.2.1-.1.2-.1.4-.2.1-.1.3-.1.3-.1.2-.1-.3 0-.1-.1-.1 0-.4.1-.3-.1.1-.1.4-.1.5 0h-.1s0 .1.1 0h-.1c.1 0 .2-.1.3-.1 0-.1-.1 0-.2 0 .2-.1.1-.1.3-.2H65c.2-.1 0-.1.1-.3.2 0 .1.2.2 0 .1-.1.1.1.1.2.1-.2.3-.2.4-.3v.1c0-.1.1-.1.1-.2h-.1c.1 0 .1-.1.1 0 0-.1-.2-.1-.2-.3.1 0 .1-.2.3-.2-.2.2.1.1 0 .3 0 0 0-.1.1-.1.3-.1-.1-.2.1-.4.1.1.2.1.2 0-.1.1-.1 0-.1-.2.2-.1.1-.2.1-.2l-.1.1c-.1-.1 0-.1 0-.3.1 0 0 .1 0 .1-.1-.2.3-.2.3-.4.1 0 .1.1.2 0 0-.2.2-.1.3-.4-.1 0-.1 0-.1-.2l-.1.3v-.3c-.1.1 0 .2-.1.3 0-.1 0-.1-.1-.1.2 0 .1-.3.2-.4l.3.2c.2-.2.1-.5.3-.7l-.1.1c-.1-.1.1-.2.1-.3.1.1.1 0 .2 0-.1 0 .1-.2-.1-.3l.2-.1c.2-.2-.1-.4 0-.6.1.1.2 0 .2.2 0-.1.1-.1 0-.2.1 0 0-.3.1-.3 0 0-.1-.1-.1-.2 0 0 0-.2-.1-.1.1 0 .2-.1.2-.2l-.5-.2c-.1.1-.2.5-.4.5-.1.2-.2.3-.3.4-.2.1.1.3-.1.4-.2 0 0-.2-.1-.1-.2-.2-.2.2-.4.2s-.2.3-.3.4c0 .2-.2.4-.4.6 0-.1 0-.1-.1-.2-.1.1.1.2 0 .3-.1 0-.2 0-.3-.1l.1-.1c-.2-.1-.2.1-.3.1v-.1c-.2.1-.1.3-.4.4h.1c-.1.2-.2 0-.2.1l-.1-.2-.4.4c0-.2.2-.3.3-.5-.1 0-.3.1-.3.3l.1-.1c-.1.2-.2.3-.4.4-.1-.4-.5.1-.8-.2-.3.2-.7.1-1.1.3.2.3-.1 0 0 .3h-.1l-.3-.1c-.1-.1.1-.1.1-.2-.2 0-.1-.1-.3-.2 0 .1 0 .2-.2.1l.2.1c-.3.2-.3-.2-.6 0l.1-.1c-.1.1-.6.1-.7.4 0 0-.1-.1 0-.1-.4 0-.8.4-1.1.2v-.1c-.1 0-.1.2-.2.1v-.1s-.2.2-.3.1l.1-.1c-.4-.1-.5.3-.8.4 0-.2-.3-.3-.5-.3-.4 0-.7.3-1.1.4-.1-.1-.3-.1-.6-.1h-.4s0 .2-.1.2c0 0-.2.2-.1 0s0-.2 0-.2l-.3.3c.1-.2.1-.2-.1-.1-.1.1-.4.1 0-.1-.2.1-.2 0-.4 0l.4-.1.1-.1h.2-.4c-.2 0-.4 0-.4-.1h.6c.1 0 .1 0 0-.1l.1.1h.1s.1-.1 0-.2c.1.2.3-.1.4-.3v.1c.1-.2 0-.3.2-.4.1 0 .1.1 0 .1.2 0 .1-.2.3-.2v.1c.2-.1.1-.1.2-.2s.3-.1.4 0c0-.1 0-.2.1-.2v.1c.3 0 .3-.3.5-.3 0 0 0 .1.1.1-.2.1-.4.2-.4.1.1.1.2.1.2.3.1-.1.2-.4.4-.5 0 0 .1 0 .1-.1h.1c.1.1.2-.1.3-.1-.1-.1 0-.2-.1-.2l-.1.1c-.1 0-.1.1-.2.1 0-.1.1-.2.2-.2v-.3c.2.1.5.1.6.2.2-.2.5-.4.5-.7 0-.1.1 0 .2 0l-.1.1c.1-.1.4-.3.3-.5.2-.1 0 .2.2 0v.1c.6-.1.3-.9 1-1h-.1c.6-.4.8-1.1 1.4-1.4.2-.1.1-.2.1-.3l.1.1v-.3c.1-.3.6-.2.6-.6h-.1c.1-.1.2-.4.3-.3 0 0-.1-.1 0-.1h.1v-.3c.2-.2.3.2.4-.1 0-.1 0-.4-.1-.4 0 0-.1.1-.2.1v-.1c-.2-.1-.4-.3-.6-.2v.2H62l.1-.1c-.1 0-.1.1-.1.2h-.1l.1.3c-.1 0-.1-.2-.2-.1 0 .1.2 0 .2.2-.1 0-.2 0-.2.1-.1 0-.1-.1-.1-.1 0 .1-.1.2 0 .3-.2 0-.2.3-.3.2v.3c-.1-.3-.2.3-.4.1.1.2-.2.4-.2.6v-.1c-.1.1-.2.1-.3.1.1.1.1.3.1.5-.2 0-.1-.2-.3-.3.1.1 0 .3.1.3h-.3c.2.2 0 .1 0 .3-.2 0-.2-.1-.3.1-.1 0 0-.2 0-.2zM56.7 40c.1 0 .1-.1 0 0 .1-.1.1 0 0 0zm-.3.1s.1 0 .1-.1v.1c.1 0 0 .1-.1 0zm1.1.5c0 .1 0 .1 0 0 0 0 .1 0 0 0zm.1-.2s-.1 0 0 0zm7.5 4.6zm-12.8-1.7zm14.9 1.8zm.8-.3h.1-.1zm.7-.1c0-.1 0-.1 0 0zm-3.2-3c0-.1 0-.1 0 0 0-.1 0-.1 0 0zm-2 2.6c-.1 0-.1 0 0 0zm3.4-5.7z" style="fill:#fff"/><path d="M63.6 44.1c-.1 0-.1.1-.1.1.1 0 .1 0 .1-.1zm7.8-.8zm0-.1zm.1-.1c-.1.1 0 .1 0 0zm-.9.7zm-.3.1c.1 0 .2 0 .3-.1 0 .1-.2 0-.3.1zm-1.2 0 .2-.1c-.1 0-.1-.1 0-.1-.4-.1 0 .1-.2.2zm-.7.1c.1-.1 0-.1 0-.1-.1.1-.1.1 0 .1zm-4.3 1 .2-.2-.2.2zm-2 .6-.2.2.2-.1zm2.4-1.1h-.1zm2.6-5.9.1.1c0-.1-.1-.2-.1-.1zm-2.6 2.1c-.1-.1-.2-.1-.2 0 0 0 .1.1.2 0zm-9.9 1.7.1-.1-.1.1z" style="fill:#fff"/></g><path d="M36.3 48.4s.1-.1 0 0c-.1-.1-.5-.1-.9-.5-.2-.2-.2-.6-.5-.9-.2-.2-.4-.5-.6-.8-.2-.2-.6-.4-.8-.7-.2-.3-.3-.6-.5-.9-.2-.3-.4-.6-.6-.8-.2-.3-.7-.4-.9-.6-.2-.3-.3-.6-.5-.9-.2-.3-.4-.6-.5-.8-.2-.3-.4-.6-.5-.9-.2-.3-.3-.6-.5-.9-.1-.3-.4-.5-.7-.9l-.6-.9c-.2-.3-.3-.7-.5-1-.2-.3-.3-.6-.4-.9-.2-.3-.5-.4-.7-.7-.2-.3-.1-.7-.3-1-.2-.3-.4-.5-.6-.8-.2-.3-.3-.6-.4-.9-.2-.3-.2-.6-.3-.9-.1-.4-.5-.6-.5-.9 0-.3.2-.7.1-1 0-.3-.2-.6-.3-1 0-.3 0-.7-.1-1-.1-.3 0-.7-.1-1-.1-.3-.4-.6-.4-.9-.1-.3 0-.7-.1-1 .3-.4.5-.2.9-.6l.7-.7c.4-.4.2-.6.5-.9l.7-.7c.4-.4.7-.1.7-.7 0-.5-.1-.6-.6-.6-.6 0-.4.3-.7.7-.4.4-.5.3-.9.7-.4.4-.4.3-.8.7-.4.4-.2.6-.7.9 0-.3-.1-.5-.1-.8 0-.5.1-.5.1-1s-.1-.5-.1-1 .1-.5.1-1 .2-.6-.1-.9c-.4-.4-.6-.5-1-.1s.2.6.2 1.1c0 .5-.2.5-.2 1s.2.5.2 1v1c0 .3-.1.6-.1 1-.5 0-.5.1-.9-.1s-.3-.4-.7-.6c-.4-.2-.5 0-.9-.2s-.4-.8-.8-.6c-.5.2-.5.5-.3.9.2.5.3.3.8.6l1 .4c.5.2.5.3 1 .6.5.2.5.3.9.6 0 .3.1.4.2.7 0 .3.3.5.4.8.1.3-.1.7-.1 1 .1.3.3.6.3 1v1c0 .4.1.7.1 1 0 .3.2.6.4 1 .1.3 0 .7.2 1 .1.3.4.6.6.9.2.3.3.6.5.9.2.3.3.7.5 1 .2.3.3.6.5.9.2.3.6.4.8.7l.6.9c.2.3.2.8.4 1.1.2.4.6.5.7.8.1.2.1.6.3.9.2.2.5.4.7.8.2.3.3.6.5.9.2.3.4.5.6.8.2.3.4.5.6.8.2.3.4.5.6.8.2.3.3.6.5.9.2.3.4.5.6.8.2.3.4.5.6.8.2.3.6.4.8.6l.7.7c.4.3.5.5.8.5v.1c.2 0 .3.4.7.7.2.2.6.3.8.6.2.2.6.4.8.6.2.2.4.6.6.8.2.2.3.6.6.9.2.2.6.3.9.6.2.3.3.6.6.9.2.3.5.5.7.8.5-.2.6-.1.9-.6-.2-.2-.6-.5-.8-.8-.2-.2-.4-.5-.7-.7-.2-.2-.4-.6-.6-.8-.2-.2-.6-.4-.8-.6-.2-.2-.4-.6-.6-.8-.2-.2-.3-.7-.5-.9-.2-.2-.6-.4-.8-.6-.3-.2-.5-.5-.8-.7 0-.6-.4-.7-.6-.7zm71.1-25.1c.2-.5 0-.6-.4-.7-.4-.2-.4 0-.8.2l-.8.4c-.4.2-.4.3-.8.5s-.4.3-.9.2v-1.1c0-.5.2-.5.2-1s-.1-.5-.1-1 .1-.5.1-1 .3-.6-.1-1-.6-.3-1 0c-.4.4-.1.5-.1 1s.2.5.2 1-.2.5-.2 1 .1.5.1 1c0 .2 0 .5-.1.8-.5-.3-.5-.3-.9-.7l-.8-.8c-.4-.4-.3-.5-.7-.9s-.2-.6-.8-.7c-.5 0-.9.1-.9.6s.7.2 1 .6c.4.4.3.4.7.8.4.4.3.4.7.8.4.4.3.4.7.8s.6.2.9.7c0 .3-.4.7-.5 1 0 .3-.1.6-.1.9-.1.3-.2.7-.2 1-.1.3.2.7.1 1.1-.1.4-.3.7-.4 1v1c0 .2.1.6 0 1-.1.3-.3.6-.4.9-.1.3-.4.5-.5.8-.2.3-.2.6-.4.9-.2.3-.4.5-.6.8-.2.3-.3.6-.4.9-.2.3-.5.4-.7.7-.2.3-.5.6-.7.9-.2.3-.2.8-.4 1.1-.2.4-.5.6-.6.9-.1.2-.2.6-.3 1-.2.3-.5.4-.7.7-.2.3-.2.6-.4.9-.2.3-.4.5-.6.8-.2.3-.6.4-.8.7-.2.3-.2.7-.4.9-.2.3-.4.6-.6.8-.2.3-.5.5-.7.8-.2.3-.6.4-.8.6-.2.3-.4.6-.6.8-.3.4-.6.4-.7.5-.2 0-.5.3-.9.6l-.7.7c-.2.2-.4.5-.7.7-.2.2-.6.3-.8.6-.2.2-.5.4-.7.7-.2.2-.3.7-.5.9-.2.3-.6.4-.8.6-.2.3-.3.6-.5.9-.2.3-.6.5-.8.7.3.4.3.6.8.8.2-.3.4-.8.6-1 .2-.3.6-.3.9-.6.2-.3.4-.5.7-.8.2-.3.5-.5.7-.8.2-.3.5-.5.7-.7.2-.3.5-.5.7-.7.3-.3.5-.5.8-.7.4-.3.6-.7.7-.7.2 0 .5-.1.8-.4l.7-.7c.2-.2.4-.5.7-.7.2-.2.4-.5.6-.8.2-.3.6-.4.8-.6.2-.3.3-.6.5-.9.2-.3.3-.6.5-.9.2-.3.6-.4.8-.7.2-.3.3-.6.5-.9.2-.3.3-.6.5-.9.2-.3.5-.5.7-.8.2-.4.3-.7.4-.9.1-.3.2-.6.5-1 .2-.3.6-.4.8-.7l.6-.9c.2-.3.2-.7.4-1 .2-.3.5-.5.7-.8.2-.3.3-.6.5-.9.2-.3.5-.6.6-.9.2-.3.1-.7.3-1 .2-.3.5-.6.6-.9.1-.4 0-.8 0-1.1 0-.3.2-.6.2-1 0-.3-.1-.7 0-1 0-.3.3-.6.4-.9.1-.3.1-.7.1-1 0-.3-.1-.6 0-.9 0-.3 0-.7.1-1 .4-.3.5-.2 1-.4s.5-.2 1-.5c.5-.2.5-.3 1-.5.3-.1.5.1.7-.5z" style="fill:#0d695c"/><path d="M46.8 48.6s4.3-4.5 10-1.2 5 11.8-.7 13.6-9.5-.5-10.4-3-1.4-7.1 1.1-9.4zm21.4.8s4.3-4.5 10-1.2 5 11.8-.7 13.6-9.5-.5-10.4-3c-.9-2.6-1.4-7.1 1.1-9.4z" style="fill:#fff"/><circle transform="rotate(-12.787 77.54 57.236)" cx="77.5" cy="57.2" r="3.6"/><circle transform="rotate(-12.787 55.54 57.238)" cx="55.5" cy="57.2" r="3.6"/><path d="M64.2 69.5c-.1 0-1.2 0-3.2-1.1-2.3-1.1-2.3-3.4-2.3-3.4h1-.5.5c0 .1 0 1.7 1.7 2.6 1.8.9 2.8.9 2.8.9v1z" style="fill:#0d695c"/><g style="opacity:.65"><path d="M71.5 65.9h.1-.1zm.3-.2h-.4.4c-.1 0-.1.1-.2.1h.1c.1 0 .1-.1 0-.1h.1zm-.7-1.8zm-1.3-.6zm-.2-.2zm1.5.8c-.1-.1 0-.1 0 0zm.3 1.6zm.2-1.3s.1 0 0 0zm.3.4s-.1.1-.2.1c.1-.1.1-.1.2-.1zm.1.7zm-.6-1.4zm-.2 2.3zm.7-.3h.1zM69.1 63zm-2.2 3.4c.1-.1.2 0 .3-.1 0 .1-.2.1-.3.1zm4.5-.9zm-4.2.9zm.9-2.9s0 .1 0 0c0 .1 0 0 0 0zm.8-.1zm-1 .5s-.1 0 0 0zm-.3.4v-.1zm3.3 2.6s.1 0 .1.1l-.1-.1zm.6-1.4s-.1 0 0 0zm-2.9-.7zm.6 2.6zm-.7-2.5c0-.1 0-.1 0 0-.1-.1-.1-.1 0 0zM71 67z" style="fill:#fff"/><path d="m70.9 66.6.2.2-.2-.2c0 .1.2.2.2.3H71c.1.1 0 .1.1.2l.2.2s.1.1 0 0v-.1.1L71 67c0 .1.1.2 0 .2-.1-.1 0-.1-.1-.2h.1l-.2-.2c-.1 0 0 .1-.1.1l.2.2c0 .2-.3-.3-.2-.1.1.1.2.3.1.2l-.1-.2c-.1 0 .1.2 0 .2v-.1c-.1-.1 0 .1 0 .1l-.1-.1s0 .2-.1.3c0 0 0-.1-.1-.1 0 .1-.2.1-.3 0v.2-.1.1-.1c0 .1-.1.3-.2.2-.1-.1 0 .3-.1.2-.1-.1-.2.1-.3-.1 0 .2-.1-.1-.1.2 0-.2 0-.2-.1-.3l-.1.2v-.2l-.1.1v-.2.1c-.1.1-.1-.1 0-.2l-.1.1c0-.1 0-.1.1-.1-.1.1.1-.2 0 0 0 0 0 .1-.1.1 0-.1 0-.1-.1-.1l.1-.1s-.1 0-.2-.1c0 .1-.1.2-.1.2l.1-.1c-.1.1 0 .1-.1.2l.1-.2h-.1s0-.1.1-.1c-.1.1.1-.2-.1 0-.1 0-.1 0-.2-.1-.1.1-.1.1-.2.1V67c-.1 0-.1.1-.2.1.1-.1.1-.1.1-.2-.1 0-.1 0-.2-.1l-.1.1s0-.1.1-.1c-.2 0 .2-.4 0-.3h-.2s.1 0 .2-.1c-.2 0 0-.1-.2-.2.4-.1-.1-.2.2-.3h-.1.1-.1c-.1-.2.1-.3.2-.4 0 0-.4-.1-.2-.2l.2.1c-.2-.2.1-.2 0-.4 0 0 .1 0 .1.1.1 0 0-.1 0-.1s.1 0 .1.1c.1 0-.1-.1 0-.1 0 0 .1 0-.1-.1.1 0 0-.1.1-.1-.1-.1.1 0-.1-.2.2.2.2.1.1 0 0 .1.1 0 .1.1 0 0 0-.1-.1-.2.2.2 0-.2.2 0 0-.2 0-.3.1-.4.1.2-.1.1 0 .3 0-.1 0-.3.1-.3v.1c0-.1.1 0 .2-.2v.1-.1c-.1-.1 0-.3 0-.4 0 .3.1.1.1.4v-.1.1-.2.1c0-.1 0-.2.1-.2v.1c.1 0 .1-.3.2-.2v.3-.2l.1-.1v.1h.1v-.1c0-.1 0-.2.1-.2l.1.1c0-.1.1-.1.1-.1v.2c0-.2.1 0 .2-.2v.2-.1.1s0-.2.1-.1c0 .1.1 0 .2 0 0 .2-.1 0-.1.2.1 0 .2-.2.3-.1.1-.2 0 .1.1.1l-.1.1c0 .1.1 0 .2 0 0 .1 0 .1.1.1 0 0 .1 0 .1-.1-.2.4.3 0 .2.3H71h.1c.1-.1 0-.1.1-.1s.1-.1.1 0c-.1 0-.1.1-.2.2l.1-.1c-.1.2.2-.1.1 0h-.1.1c-.1.1-.1 0-.2.1 0 0 .3-.1.2 0h-.1l-.1.1v.1c.3-.1.1 0 .3 0-.2 0-.1 0-.3.1l-.1.1c.1 0-.1.1.1 0l-.1.1s.1 0 .1-.1c.2 0-.1.2.1.2.1 0 .3 0 .4.1h-.2c-.1.1 0 .1 0 .1h-.1.1-.2s.1 0 .2.1h-.2s.1.1.2.1h-.1c-.1 0 0 0 .1-.1.3-.1-.1-.1-.1-.1h.2-.2c.1 0 .2-.1.2 0 .1-.1-.1 0 0-.1h-.1.1c.1-.1-.2-.1 0-.1-.1-.1-.1 0-.3 0l.8.2h-.1l.1-.1h-.2c.1-.1-.1-.1.1-.2-.1 0-.1.1-.2.1.2-.1-.1 0 0-.1.1 0 .1 0 .2-.1-.2.1 0-.1-.1-.1-.2.1-.1 0-.2-.1.1 0 0-.2 0-.2-.2.1-.2 0-.2 0 .1-.1.1-.1.2-.1h-.1l.1-.1s-.2 0-.2-.1c-.1.1-.2.3-.3.3 0-.1.1-.1.2-.1 0 0-.1 0 0 0l.1-.1c0-.1-.1.1-.1 0 .1-.1 0-.1.1-.1v-.2l-.1.1s.1-.1.1-.2c-.1 0 0 0-.1.1v-.1c-.1 0-.1-.1-.2.1-.2.1-.1-.2-.2-.2s-.1 0-.2.1v-.1c-.1 0-.1.1-.1 0 .1-.1 0-.1.1 0 0-.1 0-.1-.1 0 .1-.1 0-.2 0-.1v.1h-.1l.1-.2c-.1-.2-.3.3-.3-.1-.1.1.1.1 0 .2l-.1-.3c-.2-.1-.2.3-.3.2 0 .1 0 .2-.1.3v-.4.1c0-.1-.1-.1-.1-.2v.1c-.1-.1-.1 0-.2-.1v.1c-.1-.1 0 .1-.1.1 0-.1 0-.2-.1-.1-.1-.1 0-.2 0-.2-.1.1-.1-.1-.2-.1v-.1H69v.1l-.1-.1v.3c0-.1-.1.1-.1-.1.1 0 0-.2 0-.2h-.1c-.1-.1 0 .2-.1.2 0-.1-.1-.2-.1-.1 0 0 .1.1 0 .2-.1-.1 0 .1-.1.1v.1-.1c0 .2-.1-.1-.2 0l-.1-.2c0 .1-.1-.1-.2 0 .1.1.1.1.1.2l.1-.1v.2s0-.1.1-.1c0 .1 0 .1.1.2-.1-.1 0 .1-.1 0l-.1-.3c-.1-.1-.1.2-.2.2h.1c0 .1 0 0-.1.1l-.1-.1c0 .1-.1 0 0 .2l.2.2c-.1 0 .1.3 0 .3-.1-.1-.1-.1-.1-.2 0 0-.1 0 0 .1-.1 0 0 .2-.1.1l.1.1s0 .1.1.1c-.3-.2-.1.2-.4.1 0 .1 0 .1-.1.2-.1 0 .2.2.1.2-.2 0-.1-.1-.1-.1-.3-.2 0 .1-.2.1-.1 0 .1.2 0 .2.1.1.2.2.2.3-.2-.2-.1-.2-.2-.2l.2.1h-.3V65c-.2 0 0 .1-.1.1H67c0 .1.2.1.2.2h.1c.2.1-.1 0 0 .1h-.2s.2.1.2.2c-.1 0-.2-.1-.3-.2 0 0 0 .1.1.2 0 0-.1 0 0 0 .1.1.2.1.2.2-.4 0-.1.2-.4.2.1.1 0 .3 0 .4.3-.1 0 0 .3 0l-.2.1h-.1c0 .1-.1.1-.2.1h.1l.1-.1c.2.1-.2.2 0 .2h-.1c.1 0 .1.2.3.2l-.1.1c0 .2.4.1.3.3h-.1.1-.1.1-.1c0 .2.3 0 .4.1-.2.1-.1.3-.1.3.1.1.3 0 .5.1-.1.2.2.2.3.4l.1-.2c0 .1.1-.1.1.1-.1.2 0 .2.1.2l.1-.2c0 .4.4 0 .4.3 0-.1.1 0 .1-.1v.1c.1 0 .1.1.3.1v.1c.1 0 .1-.4.2-.4v.2c.1 0 .2.2.3 0v.1c.1 0 .2.1.2-.2 0 .2.1 0 .2-.1v.1c0-.2 0-.2.1-.3v.1c.1.1 0-.1.1-.1v.1c.1 0 0 0 0-.2 0-.1.1 0 .2.1v-.2.1c.1.1.1-.2.2-.1v.1h-.1c0 .1.1.1.1.3 0-.1 0-.3.1-.3h.1c.1.1.1 0 .1 0-.1-.1 0-.1-.1-.2h-.1v-.1c0-.1-.1-.2-.1-.2.1.1.3.2.3.3 0-.1.2-.2 0-.4 0 0 .1 0 .1.1v.1c0-.1.1-.1 0-.3.1 0 .1.1.1.1.3.1-.2-.5.2-.4h-.1c.3-.1.1-.4.4-.5.1 0 0-.1-.1-.1h.1v.2c-.1-.1.4-.1.2-.2h-.1s0-.1.1-.1c0 0-.1 0 0 0h.1l-.1-.1c.1-.1.3 0 .3-.1 0 0-.2-.1-.3-.1h-.7.1-.1c-.1 0 0 0 0 .1h-.1l.2.1h-.2.3-.2c.1 0 0 .1.1.1-.1 0 0 .1-.2 0 .1 0 .2.1.2.1-.2-.1 0 .1-.3 0 .2.1.1.1.2.2 0 0-.1 0 0 0h-.1c.2.1.2.1.3.2l-.4-.2.2.2c-.1 0-.1 0-.2-.1.2.1 0 0 .1.1-.1 0-.2-.1-.2 0l-.3-.1zm-.4.9zm-.1 0s.1 0 0 0c.1.1.1.1 0 0 .1.1.1.1 0 0zm.7.8c-.1 0 0-.1 0 0 0-.1 0 0 0 0zm-.1-.2zm.1-4.2zm-1.8 3.5zm1.9-2.8s-.1 0 0 0c-.1 0 0 0 0 0zm.1.2zm0 .2zm-2.1-.7zm.7-.4zm-1.3.9z" style="fill:#fff"/><path d="M69.8 63.9c0 .1 0 0 0 0 .1 0 0 0 0 0zm1.6 1.8zm0 0c.1 0 .1 0 0 0zm.1 0zm0-.3c-.1.1-.1.1 0 0zm-.1 0s-.1.1 0 0c-.1.1.1 0 0 0zm.5-.5c0 .1.1 0 .1 0 .2-.1-.1.1-.1 0zm0-.2s.1-.1 0 0c0-.1 0-.1 0 0zm-1.2-1.2.1-.1c-.1 0-.1.1-.1.1zm-.5.6V64zm.1-1-.1.1zm-2.8 1 .1.1c.1 0-.1-.1-.1-.1zm-.4 1.2s-.1 0 0 0c0 0 .1 0 0 0zm1.6 3.2h-.1.1z" style="fill:#fff"/></g><g style="opacity:.65"><path d="M55.8 65.9h.1-.1zm.3-.2h-.4.4c-.1 0-.1.1-.2.1h.1c.1 0 .1-.1 0-.1h.1zm-.8-1.8zm-1.2-.6s-.1 0 0 0zm-.3-.2zm1.5.8c0-.1 0-.1 0 0zm.3 1.6s.1 0 0 0zm.2-1.3c.1 0 .1 0 0 0zm.3.4s-.1.1-.2.1c.1-.1.1-.1.2-.1zm.1.7zm-.6-1.4zm-.2 2.3zm.7-.3h.1zM53.3 63zm-2.1 3.4c.1-.1.2 0 .3-.1-.1.1-.3.1-.3.1zm4.5-.9c-.1 0-.1 0 0 0zm-4.3.9h.1zm.9-2.9s0 .1 0 0c0 .1 0 0 0 0zm.8-.1zm-1 .5zm-.3.4v-.1zm3.3 2.6s.1 0 .1.1l-.1-.1zm.6-1.4zm-2.9-.7zm.6 2.6zm-.7-2.5c0-.1 0-.1 0 0 0-.1 0-.1 0 0zm2.5 2.1z" style="fill:#fff"/><path d="m55.1 66.6.2.2c.1 0-.1-.1-.2-.2 0 .1.2.2.2.3h-.1c.1.1 0 .1.1.2l.2.2s.1.1 0 0v-.1.1c-.1-.1 0-.1-.1-.1 0 .1.1.2 0 .2-.1-.1 0-.1-.1-.2h.1l-.2-.2c-.1 0 0 .1-.1.1l.2.2c0 .2-.3-.3-.2-.1.1.1.2.3.1.2l-.1-.2c-.1 0 .1.2 0 .2v-.1c-.1-.1 0 .1 0 .1l-.1-.1s0 .2-.1.3c0 0 0-.1-.1-.1 0 .1-.2.1-.3 0v.2-.1.1-.1c0 .1-.1.3-.2.2-.1-.1 0 .3-.1.2-.1-.1-.2.1-.3-.1 0 .2-.1-.1-.1.2 0-.2 0-.2-.1-.3l-.1.2v-.2l-.1.1v-.2.1c-.1.1-.1-.1 0-.2l-.1.1c0-.1 0-.1.1-.1-.1.1.1-.2 0 0 0 0 0 .1-.1.1 0-.1 0-.1-.1-.1l.1-.1s-.1 0-.2-.1c0 .1-.1.2-.1.2l.1-.1c-.1.1 0 .1-.1.2l.1-.2h-.1s0-.1.1-.1c-.1.1.1-.2-.1 0-.1 0-.1 0-.2-.1-.1.1-.1.1-.2.1v-.2c-.1 0-.1.1-.2.1.1-.1.1-.1.1-.2-.1 0-.1 0-.2-.1l-.1.1s0-.1.1-.1c-.2 0 .2-.4 0-.3h-.2s.1 0 .2-.1c-.2 0 0-.1-.2-.2.4-.1-.1-.2.2-.3h-.1.1-.1c-.1-.2.1-.3.2-.4 0 0-.4-.1-.2-.2l.2.1c-.2-.2.1-.2 0-.4 0 0 .1 0 .1.1.1 0 0-.1 0-.1s.1 0 .1.1c.1 0-.1-.1 0-.1 0 0 .1 0-.1-.1.1 0 0-.1.1-.1-.1-.1.1 0-.1-.2.2.2.2.1.1 0 0 .1.1 0 .1.1 0 0 0-.1-.1-.2.2.2 0-.2.2 0 0-.2 0-.3.1-.4.1.2-.1.1 0 .3 0-.1 0-.3.1-.3v.1c0-.1.1 0 .2-.2v.1-.1c-.1-.1 0-.3 0-.4 0 .3.1.1.1.4v-.1.1-.2.1c0-.1 0-.2.1-.2v.1c.1 0 .1-.3.2-.2v.3-.2l.1-.1v.1h.1v-.1c0-.1 0-.2.1-.2l.1.1c0-.1.1-.1.1-.1v.2c0-.2.1 0 .2-.2v.2-.1.1s0-.2.1-.1c0 .1.1 0 .2 0 0 .2-.1 0-.1.2.1 0 .2-.2.3-.1.1-.2 0 .1.1.1l-.1.1c0 .1.1 0 .2 0 0 .1 0 .1.1.1 0 0 .1 0 .1-.1-.2.4.3 0 .2.3h-.1.1c.1-.1 0-.1.1-.1s.1-.1.1 0c-.1 0-.1.1-.2.2l.1-.1c-.1.2.2-.1.1 0h-.1.1c-.1.1-.1 0-.2.1 0 0 .3-.1.2 0h-.1l-.1.1v.1c.3-.1.1 0 .3 0-.2 0-.1 0-.3.1l-.1.1c.1 0-.1.1.1 0l-.1.1s.1 0 .1-.1c.2 0-.1.2.1.2.1 0 .3 0 .4.1h-.2c-.1.1 0 .1 0 .1h-.1.1-.2s.1 0 .2.1h-.2s.1.1.2.1h-.1c-.1 0 0 0 .1-.1.3-.1-.1-.1-.1-.1h.2-.2c.1 0 .2-.1.2 0 .1-.1-.1 0 0-.1h-.1.1c.1-.1-.2-.1 0-.1-.1-.1-.1 0-.3 0l.3-.2h-.1l.1-.1h-.2c.1-.1-.1-.1.1-.2-.1 0-.1.1-.2.1.2-.1-.1 0 0-.1.1 0 .1 0 .2-.1-.2.1 0-.1-.1-.1-.2.1-.1 0-.2-.1.1 0 0-.2 0-.2-.2.1-.2 0-.2 0 .1-.1.1-.1.2-.1h-.1l.1-.1s-.2 0-.2-.1c-.1.1-.2.3-.3.3 0-.1.1-.1.2-.1 0 0-.1 0 0 0l.1-.1c0-.1-.1.1-.1 0 .1-.1 0-.1.1-.1v-.2l-.1.1s.1-.1.1-.2c-.1 0 0 0-.1.1v-.1c-.1 0-.1-.1-.2.1-.2.1-.1-.2-.2-.2s-.1 0-.2.1v-.1c-.1 0-.1.1-.1 0 .1-.1 0-.1.1 0 0-.1 0-.1-.1 0 .1-.1 0-.2 0-.1v.1h-.1l.1-.2c-.1-.2-.3.3-.3-.1-.1.1.1.1 0 .2l-.1-.3c-.1-.1-.1.2-.2.2 0 .1 0 .2-.1.3V63v.1c0-.1-.1-.1-.1-.2v.1c-.1-.1-.1 0-.2-.1v.1c-.1-.1 0 .1-.1.1 0-.1 0-.2-.1-.1-.1-.1 0-.2 0-.2-.1.1-.1-.1-.2-.1v-.1H53v.1l-.1-.1v.3c0-.1-.1.1-.1-.1.1 0 0-.2 0-.2h-.1c-.1-.1 0 .2-.1.2 0-.1-.1-.2-.1-.1 0 0 .1.1 0 .2-.1-.1 0 .1-.1.1v.1-.1c0 .2-.1-.1-.2 0l-.1-.2c0 .1-.1-.1-.2 0 .1.1.1.1.1.2l.1-.1v.2s0-.1.1-.1c0 .1 0 .1.1.2-.1-.1 0 .1-.1 0l-.1-.3c-.1-.1-.1.2-.2.2h.1c0 .1 0 0-.1.1l-.1-.1c0 .1-.1 0 0 .2l-.1-.1c-.1 0 .1.3 0 .3-.1-.1-.1-.1-.1-.2 0 0-.1 0 0 .1-.1 0 0 .2-.1.1l.1.1s0 .1.1.1c-.3-.2-.1.2-.4.1 0 .1 0 .1-.1.2-.1 0 .2.2.1.2-.2 0-.1-.1-.1-.1-.3-.2 0 .1-.2.1-.1 0 .1.2 0 .2.1.1.2.2.2.3.3.3.4.3.3.3l.2.1h-.3V65c-.2 0 0 .1-.1.1h-.1c0 .1.2.1.2.2h.1c.2.1-.1 0 0 .1h-.2s.2.1.2.2c-.1 0-.2-.1-.3-.2 0 0 0 .1.1.2 0 0-.1 0 0 0 .1.1.2.1.2.2-.4 0-.1.2-.4.2.1.1 0 .3 0 .4.3-.1 0 0 .3 0l-.2.1h-.1c0 .1-.1.1-.2.1h.1l.1-.1c.2.1-.2.2 0 .2H51c.1 0 .1.2.3.2l-.1.1c0 .2.4.1.3.3h-.1.1-.1.1-.1c0 .2.3 0 .4.1-.2.1-.1.3-.1.3.1.1.3 0 .5.1-.1.2.2.2.3.4l.1-.2c0 .1.1-.1.1.1-.1.2 0 .2.1.2l.1-.2c0 .4.4 0 .4.3 0-.1.1 0 .1-.1v.1c.1 0 .1.1.3.1v.1c.1 0 .1-.4.2-.4v.2c.1 0 .2.2.3 0v.1c.1 0 .2.1.2-.2 0 .2.1 0 .2-.1v.1c0-.2 0-.2.1-.3v.1c.1.1 0-.1.1-.1v.1c.1 0 0 0 0-.2 0-.1.1 0 .2.1v-.2.1c.1.1.1-.2.2-.1v.1h-.1c0 .1.1.1.1.3 0-.1 0-.3.1-.3h.1c.1.1.1 0 .1 0-.1-.1 0-.1-.1-.2h-.1v-.1c0-.1-.1-.2-.1-.2.1.1.3.2.3.3 0-.1.2-.2 0-.4 0 0 .1 0 .1.1v.1c0-.1.1-.1 0-.3.1 0 .1.1.1.1.3.1-.2-.5.2-.4h-.1c.3-.1.1-.4.4-.5.1 0 0-.1-.1-.1h.1l-.2-.1c-.1-.1.4-.1.2-.2h-.1s0-.1.1-.1c0 0-.1 0 0 0h.1l-.1-.1c.1-.1.3 0 .3-.1 0 0-.2-.1-.3-.1h-.7.1-.1c-.1 0 0 0 0 .1h-.1l.2.1h-.2.3-.2c.1 0 0 .1.1.1-.1 0 0 .1-.2 0l.2.1c-.2-.1 0 .1-.3 0 .2.1.1.1.2.2 0 0-.1 0 0 0h-.1c.2.1.2.1.3.2l-.4-.2.2.2c-.1 0-.1 0-.2-.1.2.1 0 0 .1.1-.1 0-.2-.1-.2 0 0 .2-.1.2-.1.2zm-.4.9zm-.1 0c.1 0 .1 0 0 0 .1.1.1.1 0 0 .1.1.1.1 0 0zm.7.8s0-.1 0 0c0-.1 0 0 0 0zm-.1-.2zm.1-4.2zm-1.8 3.5zm1.9-2.8zm.1.2zm0 .2zm-2.1-.7zm.7-.4zm-1.2.9h-.1z" style="fill:#fff"/><path d="M54 63.9c.1.1.1 0 0 0 .1 0 .1 0 0 0zm1.6 1.8c.1 0 .1 0 0 0zm.1 0zm0 0zm0-.3c-.1.1 0 .1 0 0zm-.1 0s-.1.1 0 0c-.1.1.1 0 0 0zm.5-.5c0 .1.1 0 .1 0 .2-.1 0 .1-.1 0zm0-.2c.1 0 .1-.1 0 0 .1-.1 0-.1 0 0zm-1.2-1.2.1-.1c-.1 0 0 .1-.1.1zm-.5.6.1-.1zm.1-1-.1.1zm-2.7 1 .1.1-.1-.1zm-.4 1.2c-.1 0-.2 0 0 0-.1 0 0 0 0 0zm1.5 3.2z" style="fill:#fff"/></g><g style="opacity:.65"><path d="M79.6 88zm0 0s-.1 0 0 0zm-.8-.1zm-.4 0zm-.1-.1zm.5.1zm.7.1zm-.5-.1zm.2 0zm.2 0zm-.5 0zm-4.3 0zm-.2-.1zm3.8 0zm-1.4 0c.1 0 0 0 0 0s.1 0 0 0zm2.7.2zm-2.7-.2zm1 0zm.3 0zm-.4 0zm-.1 0zm-2.6.1zm4.5.1zm-1.8 0zm-1.8 0zm1.7 0zm-2.6-.1zm-.2.1c.1 0 .1-.1 0 0 .1-.1.1-.1 0 0 .1-.1.1-.1 0 0 .1-.1.1-.1 0 0 .1-.1.1 0 .1-.1v-.1h.1v.1h.1s0 .1.1 0c0 0 0-.1 0 0 0 0 0-.1 0 0h.2s.1-.1.1 0c0 0 0-.1 0 0h.2l.1.1h.2v-.1h.3s.1.1.1 0h.1c0 .1.1 0 .1 0 .1 0 .2 0 .2.1 0 0 0-.1.1 0h.4c0 .1.1 0 .1 0h.1v.1s.1-.1.1 0h.1V88v.1h.1v.1h.3c0-.1 0 0 0 0h.2c0 .1.1 0 .1 0v.1c0-.1 0 0 .1-.1v.1h.1s0-.1.1-.1c0-.1 0 0-.1 0v.1-.1c0-.1 0 0 0 0h-.3v.1h-.2s-.1.1-.1 0v-.1.1-.1h-.2v.1-.1h-.1s0 .1-.1 0v-.1c0-.1-.1 0-.1-.1h-.1s0 .1 0 0 0 0-.1 0h-.1l-.1.1V88h-.2l.1-.1h-.1c0-.1-.1 0-.1-.1h-.1v.1s0-.1-.1 0h-.3v-.1h-.1s-.1 0-.1-.1v.1c0-.1-.1 0-.1 0h-.1v.1h-.3v.1h-.1v-.1s0 .1-.1 0v-.1s-.1 0-.1.1h-.1c-.1-.1-.1.1-.2 0h-.2s0-.1-.1 0v-.1.2-.1.1h.1c-.1-.1 0-.1 0 0 0-.1 0-.1 0 0 0-.1 0-.1 0 0 0-.1 0-.1 0 0 0-.1 0-.1 0 0 0-.1 0-.1 0 0 .1-.1 0 0 0 0zm.5-.1zm.1 0s-.1 0 0 0c-.1 0-.1 0 0 0-.1 0 0 0 0 0zm-.1-.2zm0 0zm3.5.2zm-2.9.1zm3.2 0zm0 0c.1 0 0 0 0 0zm.1 0zm-1.1 0zm.3 0zm-.7 0zm.7 0zm1.1.1zm0 0c0-.1 0-.1 0 0zm0-.1zm-.1 0zm0 0s0 .1 0 0c0 .1 0 0 0 0zm-.1-.1zm-.1 0zm-.5 0c0-.1 0 0 0 0zm-.1.1zm-.1-.2zm-.9 0zm-.4 0zm-1.2-.1z" style="fill:#fff"/></g><g style="opacity:.65"><path d="M59.4 80.2zm-.1-.1s0 .1 0 0c0 .1 0 .1 0 0 0 .1 0 .1 0 0zm-.7-.1zm-.5 0zm-.1 0zm.6 0zm.6.2zm-.4-.2zm.1 0c0 .1 0 0 0 0zm.3.1zm-.5-.1zm-4.4.1zm-.2-.2c.1 0 .1 0 0 0zm3.8 0zm-1.3 0c0 .1 0 0 0 0zm2.6.3zm-2.6-.2zm1-.1zm.2.1zm-.4 0zm-.1 0zm-2.6.1zm4.5.1zm-1.8 0zm-1.7-.1zm1.6.1zm-2.6-.2zm-.1.1c0-.1 0 0 0 0 .1 0 .1 0 0 0 .1-.1.1 0 .1-.1v-.1h.1v.1h.1s0 .1.1 0c0 0 0-.1 0 0 0 0 0-.1 0 0h.2s.1-.1.1 0c0 0 0-.1 0 0h.2l.1.1h.2V80h.3s.1.1.1 0h.1c0 .1.1 0 .1 0 .1 0 .2 0 .2.1 0 0 0-.1.1 0h.4c0 .1.1 0 .1 0h.1v.1s.1-.1.1 0h.1v-.1.1h.1v.1h.3c0-.1 0 0 0 0h.2c0 .1.1 0 .1 0v.1c0-.1 0 0 .1-.1v.1h.1s0-.1.1-.1c0-.1 0 0-.1 0v.1-.1c0-.1 0 0 0 0h-.3v.1h-.2s-.1.1-.1 0v-.1.1-.1h-.2v.1-.1h-.1s0 .1-.1 0v-.1c0-.1-.1 0-.1-.1h-.1s0 .1 0 0 0 0-.1 0H57l-.1.1v-.1h-.2l.1-.1h-.1c0-.1-.1 0-.1-.1h-.1v.1s0-.1-.1 0h-.3v-.1H56s-.1 0-.1-.1v.1c0-.1-.1 0-.1 0h-.1v.1h-.3v.1h-.1V80s0 .1-.1 0v-.1s-.1 0-.1.1H55c-.1-.1-.1.1-.2 0h-.2s0-.1-.1 0v-.1.2-.1.1h.1c-.1-.1-.1-.1 0 0-.1 0-.1 0 0 0-.1 0-.1 0 0 0-.1 0-.1-.1 0 0-.1-.1 0 0 0 0zm.5-.1c-.1 0-.1 0 0 0-.1 0-.1 0 0 0zm0 0zm-.1-.2c0 .1 0 .1 0 0 0 .1 0 .1 0 0 0 .1 0 0 0 0zm0 .1zm3.6.1v.1zm-3 .1zm3.2.1zm.1 0zm.1 0zm-1.2 0zm.3-.1zm-.7.1zm.7-.1zm1.2.1zm0 0zm0 0zm-.1 0zm-.1 0s.1 0 0 0c.1 0 0 0 0 0zm-.1-.1s0-.1 0 0c0-.1.1 0 0 0zm0-.1c-.1 0-.1 0 0 0zm-.6 0zm-.1.1v.1-.1zm-.1-.1zm-.9-.1c0 .1 0 0 0 0zm-.4.1c0-.1 0-.1 0 0 0-.1 0 0 0 0zm-1.2-.1h.1-.1z" style="fill:#fff"/></g><path d="M63.1 90.2s0-.1 0 0zm0-.2v.1-.1c0 .1 0 .1 0 0 0 .1 0 .1 0 0 0 .1 0 .1 0 0zm-.7-.1zm-.5 0zm-.1-.1zm.6.1c-.1 0 0 0 0 0zm.6.3zm-.4-.3zm.1 0zm.3.1zm-.6-.1c0-.1 0-.1 0 0 0-.1 0-.1 0 0zm-4.3.2zm-.2-.3zm3.8-.1zm-1.3 0v.1-.1zm2.6.5zm-2.6-.4zm1-.1c0 .1 0 0 0 0zm.2.1zm-.4 0zm-.1 0zm-2.6.3zm4.5.1zm-1.8 0zm-1.7-.1zm1.6.1zm-2.6-.1zm-.1.1v-.1.1l.1-.1c-.1 0-.1 0-.1.1l.1-.1V90v.1s0-.1.1-.1v.2h.1v-.1c0-.1 0 .2.1.1v-.1.1-.1c0 .1 0 0 0 0v.1l.1-.1v.1s.1 0 .1.1v-.2.1s.1-.1.1 0v-.1s.1 0 .1.1c0-.1 0 0 .1-.1 0 .1 0 .1.1.1v-.1.1-.1.2-.1c0-.1 0 .1 0 0h.2v-.1.1-.1.2s0 .1 0 0h.1v-.1s0 .1.1.1v-.1.1h.1c0-.1.1.2.1 0v-.1.1c0-.1.1 0 .1 0 0 .2.1 0 .1.1v-.1c.1 0 .2.1.2.1s0-.2.1-.1v.1c.1-.1.1 0 .2-.1v.1s0-.1 0 0h.1v-.1c0 .1 0 .1.1 0v.1-.1c0 .1.1-.1.1.1l.1-.1v.1l.1-.1v.1h.1v-.2.2-.1.1-.1.1-.1l.1-.1v.1s0-.1 0 0v-.1.1c0-.1 0 0 .1-.1v.1-.1.1-.1h.1v.1l.1-.1c0-.1 0 .1 0 0 0 0 0 .1 0 0 0 0 .1 0 .1-.1h.1V90c0 .2.1-.1.1.1V90v.1c0 .1 0-.1 0 0v.1s0-.1 0 0v.1c0-.1 0 0 .1-.1v.3-.1c0-.1.1.1.1 0 0 0 0-.1.1-.1v.2s0-.1 0 0v.1-.1.1-.1.1c0-.1 0 0-.1 0v-.1.1-.1s0-.1 0 0c0 0 0 .1 0 0v.1-.2.2-.1.1c0-.1 0 0 0 0v-.1c0 .1 0 0 0 0 0 .1 0 0-.1.1l-.1-.1v.1-.2s0 .1-.1 0v.2-.3.1-.1.2c0 .1-.1 0-.1 0l-.1.1v-.1c0-.1 0-.1 0 0v-.1c0-.1-.1.1-.1 0v.1-.1s0 .1-.1.1v.1-.2.1h-.1v.1-.2h-.1v.1-.1.1-.1.1c0 .1 0-.1 0 0v-.1.3c0-.1 0 0 0 0v-.1c0-.1 0 .1-.1 0v-.1.1-.1s0 .1-.1.1v-.1s0 .1 0 0v.2c0-.1-.1 0-.1-.1h-.1v.1-.1c0-.1 0 0-.1-.1h-.1c0 .1 0 .1-.1.1v-.1.1-.1c0-.1 0 0 0 0s0 .1-.1.1c0 .1 0 0 0 0v-.1s0 .1-.1.1c0-.1 0-.1.1-.1 0 .1 0 .1-.1.1 0-.2-.1 0-.1-.2 0 .1-.1 0-.1 0v.1-.3s0 .1 0 0v.1c0 .1 0-.1-.1 0 0 0-.1 0-.1.1v-.1s-.1.1-.1 0c0 0 0 .1 0 0 0 0 0 .1 0 0l-.1.1v-.1l-.1.1c0-.1-.1 0-.1-.1v.1s0 .1 0 0v-.1.1c0-.2-.1.1-.1-.1v.1-.1h-.1v.2-.1s-.1-.1-.1 0c0 0-.1-.1-.1.1 0-.1 0 0-.1 0v-.1.1s0 .1 0 0v.1-.1.1s0 .1-.1 0v-.1s0 .1-.1.1v.1s0 .1 0 0v.1-.2s-.1 0-.1.1l-.1.1v-.1c-.1-.1-.1.2-.2 0-.1-.1-.1.1-.2-.1v.1-.1.1s0-.1-.1-.1v.1-.1.5-.1.1-.1.1-.1s0 .1 0 0v-.1.1-.1.1c0-.1 0 0 .1-.1v.1-.1c0-.8 0-.8.1-.7-.1-.1 0-.1-.1-.1l.1.1v-.1.1zm.4-.2zm.1 0zm-.1-.4c0 .1 0 .1 0 0 0 .1 0 .1 0 0 0 .1 0 0 0 0zm0 .1zm3.6.2zm-3 .3v-.1.1zm3.2-.1zm.1 0zm0 .1c0-.1 0-.1 0 0zm-1.1 0zm.3-.1zm-.7.2v-.1zm.7-.2zm1.1.1h.1zm.1 0zm0 0zm-.1 0zm-.1 0s0-.1 0 0zm-.1-.3c0-.1 0 0 0 0zm-.1 0c.1 0 0 0 0 0zm-.5 0c0-.1 0-.1 0 0zm-.1.2v.1-.1zm-.1-.3zm-.9 0s0-.1 0 0zm-.4 0zm-1.2-.1v-.1.1zm-5.2-2.6zm0-.1v.1-.1c0 .1 0 .1 0 0zm-.7-.1zm-.5-.1zm-.1-.1zm.6.2c-.1 0-.1 0 0 0zm.6.2zm-.4-.3zm.1 0s0 .1 0 0c0 .1 0 0 0 0zm.3.1zm-.6-.1zm-4.3.3zm-.2-.3zm3.8-.1c0-.1 0-.1 0 0zm-1.3-.1v.1-.1zm2.6.5zm-2.6-.3zm1-.1zm.2.1zm-.4-.1zm-.1 0s0 .1 0 0c0 .1 0 .1 0 0zm-2.6.4c0-.1 0-.1 0 0 0-.1 0 0 0 0zm4.5 0zm-1.8.1zm-1.7-.1zm1.6.1zm-2.6-.2zm-.1.1V87v.1l.1-.1c-.1 0-.1 0-.1.1l.1-.1v-.1.1s0-.1.1-.1v.2h.1V87c0-.1 0 .2.1.1V87v.1-.1c0 .1 0 0 0 0v.1l.1-.1v.1s.1 0 .1.1V87v.1s.1-.1.1 0V87s.1 0 .1.1c0-.1 0 0 .1-.1 0 .1 0 .1.1.1V87v.1-.1.2-.1c0-.1 0 .1 0 0h.2V87v.1-.1.2s0 .1 0 0h.1v-.1s0 .1.1.1v-.1.1h.1c0-.1.1.2.1 0v-.1.1c0-.1.1 0 .1 0 0 .2.1 0 .1.1v-.1c.1 0 .2.1.2.1s0-.2.1-.1v.1c.1-.1.1 0 .2-.1v.1s0-.1 0 0h.1v-.1c0 .1 0 .1.1 0v.1-.1c0 .1.1-.1.1.1l.1-.1v.1l.1-.1v.1h.1v-.2.2-.1.1-.1.1-.1l.1-.1v.1s0-.1 0 0v-.1.1c0-.1 0 0 .1-.1v.1-.1.1-.1h.1v.1l.1-.1c0-.1 0 .1 0 0 0 0 0 .1 0 0 0 0 .1 0 .1-.1h.1v-.1c0 .2.1-.1.1.1v-.1.1c0 .1 0-.1 0 0v.1s0-.1 0 0v.1c0-.1 0 0 .1-.1v.3-.1c0-.1.1.1.1 0 0 0 0-.1.1-.1v.2s0-.1 0 0v.1-.1.1-.1.1c0-.1 0 0-.1 0v-.1.1-.1s0-.1 0 0c0 0 0 .1 0 0v.1-.2.2-.1.1c0-.1 0 0 0 0v-.1c0 .1 0 0 0 0 0 .1 0 0-.1.1l-.1-.1v.1-.2s0 .1-.1 0v.2-.3.1-.1.2c0 .1-.1 0-.1 0l-.1.1v-.1c0-.1 0-.1 0 0v-.1c0-.1-.1.1-.1 0v.1-.1s0 .1-.1.1v.1-.2.1h-.1v.1-.2h-.1v.1-.1.1-.1.1c0 .1 0-.1 0 0v-.1.3c0-.1 0 0 0 0v-.1c0-.1 0 .1-.1 0v-.1.1-.1s0 .1-.1.1v-.1s0 .1 0 0v.2c0-.1-.1 0-.1-.1h-.1v.1-.1c0-.1 0 0-.1-.1h-.1c0 .1 0 .1-.1.1v-.1.1-.1c0-.1 0 0 0 0s0 .1-.1.1c0 .1 0 0 0 0v-.1s0 .1-.1.1c0-.1 0-.1.1-.1 0 .1 0 .1-.1.1 0-.2-.1 0-.1-.2 0 .1-.1 0-.1 0v.1-.3s0 .1 0 0v.1c0 .1 0-.1-.1 0 0 0-.1 0-.1.1v-.1s-.1.1-.1 0c0 0 0 .1 0 0 0 0 0 .1 0 0l-.1.1v-.1l-.1.1c0-.1-.1 0-.1-.1v.1s0 .1 0 0v-.1.1c0-.2-.1.1-.1-.1v.1-.1h-.1v.2-.1s-.1-.1-.1 0c0 0-.1-.1-.1.1 0-.1 0 0-.1 0v-.1.1s0 .1 0 0v.1-.1.1s0 .1-.1 0v-.1s0 .1-.1.1v.1s0 .1 0 0v.1-.2s-.1 0-.1.1l-.1.1v-.1c-.1-.1-.1.2-.2 0-.1-.1-.1.1-.2-.1v.1-.1.1s0-.1-.1-.1v.1-.1.5-.1.1-.1.1-.1s0 .1 0 0v-.1.1-.1.1c0-.1 0 0 .1-.1v.1-.1c0-.8 0-.8.1-.7-.1-.1 0-.1-.1-.1l.1.1V87c0 .1-.1.1 0 .1zm.4-.1zm.1 0s0-.1 0 0c0-.1 0 0 0 0zm-.1-.4zm0 .1zm3.6.2zm-3 .2zm3.2 0zm.1 0zm0 0zm-1.1 0c0 .1 0 0 0 0zm.3-.1c0 .1 0 .1 0 0zm-.7.2zm.7-.2c0 .1 0 .1 0 0zm1.1.1v.1-.1zm0 0c.1 0 .1 0 0 0zm.1 0zm-.1 0zm-.1 0s0 .1 0 0c0 .1 0 0 0 0zm-.1-.2s0-.1 0 0c0-.1 0 0 0 0zm-.1-.1zm-.5 0zm-.1.3zm-.1-.4zm-.9 0zm-.4 0s0 .1 0 0zm-1.2-.1zM68.8 83c0-.1 0-.1 0 0zm0-.2v.1-.1c0 .1 0 .1 0 0 0 .1 0 .1 0 0 0 .1 0 0 0 0zm-.8-.1zm-.4 0s0-.1 0 0c0-.1 0-.1 0 0zm-.1-.1zm.5.1zm.7.3zm-.5-.3s0-.1 0 0zm.2 0zm.2.1zm-.5-.2zm-4.3.3zm-.2-.3zm3.8-.1zm-1.4 0v.1s.1-.1 0-.1zm2.7.5c-.1 0-.1 0 0 0-.1 0-.1 0 0 0zm-2.7-.4zm1-.1zm.3.1zm-.4 0zm-.1 0zm-2.6.3zm4.5.1zm-1.8 0zm-1.8-.1zm1.7.1zm-2.6-.2zm-.2.2v-.1c.1-.1.1 0 0 .1l.1-.1-.1.1.1-.1v-.1.1s0-.1.1-.1v.2h.1v-.1c0-.1 0 .2.1.1v-.1.1-.1c0 .1 0 0 0 0v.1l.1-.1v.1s.1 0 .1.1v-.2.1s.1-.1.1 0v-.1s.1 0 .1.1c0-.1 0 0 .1-.1 0 .1 0 .1.1.1v-.1.1-.1.2-.1c0-.1 0 .1 0 0h.2v-.1.1-.1.2s0 .1 0 0h.1V83s0 .1.1.1V83v.1h.1c0-.1.1.2.1 0V83v.1c0-.1.1 0 .1 0 0 .2.1 0 .1.1v-.1c.1 0 .2.1.2.1s0-.2.1-.1v.1c.1-.1.1 0 .2-.1v.1s0-.1 0 0h.1v-.1c0 .1 0 .1.1 0v.1-.1c0 .1.1-.1.1.1l.1-.1v.1l.1-.1v.1h.1V83v.2-.1.1-.1.1-.1l.1-.1v.1s0-.1 0 0V83v.1c0-.1 0 0 .1-.1v.1-.1.1-.1h.1v.1l.1-.1c0-.1 0 .1 0 0 0 0 0 .1 0 0 0 0 .1 0 .1-.1h.1v-.1c0 .2.1-.1.1.1v-.1.1c0 .1 0-.1 0 0v.1s0-.1 0 0v.1c0-.1 0 0 .1-.1v.3-.1c0-.1.1.1.1 0 0 0 0-.1.1-.1v.2s0-.1 0 0v.1-.1.1-.1.1c0-.1 0 0-.1 0v-.1.1-.1s0-.1 0 0c0 0 0 .1 0 0v.1-.2.2-.1.1c0-.1 0 0 0 0v-.1c0 .1 0 0 0 0 0 .1 0 0-.1.1l-.1-.1v.1-.2s0 .1-.1 0v.2-.3.1-.1.2c0 .1-.1 0-.1 0l-.1.1v-.1c0-.1 0-.1 0 0v-.1c0-.1-.1.1-.1 0v.1-.1s0 .1-.1.1v.1-.2.1H67v.1-.2h-.1v.1-.1.1-.1.1c0 .1 0-.1 0 0v-.1.3c0-.1 0 0 0 0v-.1c0-.1 0 .1-.1 0v-.1.1-.1s0 .1-.1.1v-.1s0 .1 0 0v.2c0-.1-.1 0-.1-.1h-.1v.1-.1c0-.1 0 0-.1-.1h-.1c0 .1 0 .1-.1.1v-.1.1-.1c0-.1 0 0 0 0s0 .1-.1.1c0 .1 0 0 0 0v-.1s0 .1-.1.1c0-.1 0-.1.1-.1 0 .1 0 .1-.1.1 0-.2-.1 0-.1-.2 0 .1-.1 0-.1 0v.1-.3s0 .1 0 0v.1c0 .1 0-.1-.1 0 0 0-.1 0-.1.1v-.1s-.1.1-.1 0c0 0 0 .1 0 0 0 0 0 .1 0 0l-.1.1v-.1l-.1.1c0-.1-.1 0-.1-.1v.1s0 .1 0 0v-.1.1c0-.2-.1.1-.1-.1v.1-.1H65v.2-.1s-.1-.1-.1 0c0 0-.1-.1-.1.1 0-.1 0 0-.1 0v-.1.1s0 .1 0 0v.1-.1.1s0 .1-.1 0v-.1s0 .1-.1.1v.1s0 .1 0 0v.1-.2s-.1 0-.1.1l-.1.1v-.1c-.1-.1-.1.2-.2 0-.1-.1-.1.1-.2-.1v.1-.1.1s0-.1-.1-.1v.1-.1.5-.1.1-.1.1-.1s0 .1 0 0v-.1.1-.1.1c0-.1 0 0 .1-.1v.1-.1c.1-.8.1-.8.1-.7-.1-.1 0-.1-.1-.1.1 0 .1 0 .1.1v-.1.1c.1-.1 0 0 0 0zm.5-.2zm0 0zm0-.4s0 .1 0 0c0 .1 0 .1 0 0 0 .1 0 0 0 0zm0 .1zm3.5.2zm-2.9.3v-.1.1zm3.1-.1zm.1 0zm.1.1s0-.1 0 0c0-.1 0-.1 0 0zm-1.1 0c-.1 0 0 0 0 0zm.3-.1zm-.7.1zm.7-.1zm1.1.1zm0 0zm0 0zm-.1 0zm0 0s0-.1 0 0zm-.1-.3c0-.1 0 0 0 0zm-.1 0zm-.5 0c0-.1 0-.1 0 0zm-.1.2v.1-.1zm-.1-.3zm-.9-.1c0 .1 0 0 0 0zm-.4.1s0-.1 0 0zm-1.2-.1v-.1z" style="fill:#6594d9"/></g></svg>