<svg xmlns="http://www.w3.org/2000/svg" viewBox="0 0 131.2 142.8" style="enable-background:new 0 0 131.2 142.8" xml:space="preserve"><style>.st4{opacity:.65}.st5{fill:#d83429}.st6{fill:#ff8a65}.st7{fill:none;stroke:#ef7937;stroke-width:.925;stroke-miterlimit:10}.st8{fill:#d9413d}.st9{fill:#ff8a65}.st10{fill:none;stroke:#d83429;stroke-width:.8491;stroke-miterlimit:10}.st11{fill:#d9413d}.st12{fill:#ff8a65}.st13{fill:none;stroke:#d9413d;stroke-width:.8491;stroke-miterlimit:10}.st14{opacity:.37}.st15{clip-path:url(#SVGID_2_)}.st16{clip-path:url(#SVGID_4_)}.st17{clip-path:url(#SVGID_6_)}.st18{clip-path:url(#SVGID_8_)}.st19{clip-path:url(#SVGID_10_)}.st20{clip-path:url(#SVGID_12_)}.st21{clip-path:url(#SVGID_14_)}.st22{clip-path:url(#SVGID_16_)}.st23{clip-path:url(#SVGID_18_)}.st24{clip-path:url(#SVGID_20_)}.st25{fill:none;stroke:#d9413d;stroke-width:.925;stroke-miterlimit:10}.st26{clip-path:url(#SVGID_22_)}.st27{clip-path:url(#SVGID_24_)}.st28{clip-path:url(#SVGID_26_)}.st29{clip-path:url(#SVGID_28_)}.st30{clip-path:url(#SVGID_30_)}.st31{fill:none;stroke:#d9413d;stroke-width:.925;stroke-miterlimit:10}.st32{clip-path:url(#SVGID_32_)}.st33{clip-path:url(#SVGID_34_)}.st34{clip-path:url(#SVGID_36_)}.st35{clip-path:url(#SVGID_38_)}.st36{clip-path:url(#SVGID_40_)}.st37{fill:#d9413d}.st38{fill:#6594d9}.st39{fill:#ee8423}.st40{fill:#f18a50}.st41{fill:#019788}.st42{fill:#32867a}.st43{fill:#f67258}.st44{fill:#de5956}.st48{fill:#21a497}.st49{fill:#f7846d}.st50{fill:#26a59a}.st51{opacity:.65;fill:none;stroke:#fff;stroke-width:.2;stroke-miterlimit:10}.st52{fill:#ffccbc}.st53{fill:none;stroke:#31458b;stroke-miterlimit:10}.st54{fill:#d83429}.st55{fill:none;stroke:#f5a800;stroke-miterlimit:10}.st55,.st56,.st57{stroke-width:.2}.st56{fill:none;stroke:#4db6ac;stroke-miterlimit:10}.st57{stroke:#ff8a65}.st57,.st58,.st59,.st60,.st61{fill:none;stroke-miterlimit:10}.st58{opacity:.65;stroke:#fff;stroke-width:.5}.st59{stroke:#ef7937}.st60{stroke:#147467}.st61{stroke:#d9413d}.st62{fill:#d9413d}.st63,.st64,.st65{fill:#ffccbc}</style><g id="Calque_1"><path d="M78 113.7s-24.4-.3-29.7 1.4c-5.3 1.7 13.7 6.7 23.8 5.8s17.5-4.3 14.5-5.4c-3-1.2-6-1.5-8.6-1.8z" style="opacity:5.000000e-02"/><path d="M74.1 102c-.1.6 0 .6 0 1.2s.2.6.2 1.2-.1.6 0 1.2c0 .6 0 .6.1 1.2 0 .6.1.6.1 1.2v1.2c0 .6.1.6.1 1.2s0 .6.1 1.2c0 .6.1.6.2 1.2v2.4c0 .5.5.8 1 .8.6 0 .6 0 1.3-.1.6 0 .6-.1 1.3-.2.6 0 .7-.8.1-1-.6-.1-.6 0-1.2 0s-.6.1-1.2.1c-.3-.1-.2-1.1-.3-1.4 0-.6 0-.6-.1-1.1 0-.6-.1-.6-.2-1.1v-1.1c0-.6 0-.6-.1-1.1 0-.6 0-.6-.1-1.1 0-.6-.1-.6-.1-1.1 0-.6-.1-.6-.1-1.1 0-.6-.1-.6-.1-1.1v-1.1c0-.6.1-.6 0-1.1 0-.6-.2-.6-.2-1.1 0-.6.5-1.1 0-1.2-.6-.1-.2.6-.5 1.1-.1.3-.2.3-.3.8zm-9.9-.4c.1.6 0 .6-.1 1.2v1.2c0 .6-.1.6-.1 1.2s0 .6-.1 1.2c0 .6.1.6.1 1.2s-.2.6-.2 1.2.1.6.1 1.2-.1.6-.2 1.2c0 .6 0 .6-.1 1.2 0 .6-.1.6-.1 1.2v1.2c0 .5-.4.8-.9.8-.6 0-.6 0-1.3-.1-.6 0-.6.1-1.3 0-.6 0-.6-.8-.1-1 .5-.1.5-.2 1-.2s.5.2 1 .1c.3-.1.7-1.1.8-1.5 0-.6-.2-.6-.1-1.1 0-.6.1-.6.1-1.1 0-.6.1-.6.1-1.1 0-.6-.1-.6 0-1.1v-1.1c0-.6.1-.6.2-1.1v-2.2c0-.6.1-.6.1-1.1 0-.6 0-.6.1-1.1v-1.1c0-.5-.4-.9.2-1 .5-.1.1.5.3 1 .3.3.4.2.5.8z" style="fill:#d83429"/><path d="M101.9 53.5c1-1 .5-1 .9-2.7.2-.8.2-1.7.3-2.8.1-.8-.4-1.7-.4-2.8 0-.9 0-1.8-.1-2.7-.2-1.2 0-2.3 0-3.4-.1-1.2-.1-2.3-.1-3.4 0-.9-.1-1.8-.4-2.6-.3-.8-.7-1.7-1.3-2.4-.6-.6-1.7-.7-2.5-1-.8-.3-1.6-.9-2.5-.9h-3.1c-1.5 0-1.5-.2-3.1-.2-1.5 0-1.2.2-3 .2-.9 0-1.9.5-3 .5-.9 0-1.9-.2-3-.2-1 0-2 0-3-.1-1 0-2 .2-3 .1-.9-.1-1.9-.3-3-.4-1-.1-2-.3-3-.4-1-.1-2-.1-3.1-.2-1-.1-2.1.1-3.1 0-1.1-.1-2.1-.4-3.1-.4-1.1 0-2.2-.2-3.1-.1-1.5.2-2.4.8-2.6 1.3-.4.9-1 1.6-1.3 2.5-.3.9-.4 1.8-.6 2.7-.2.9-.2 1.8-.4 2.7-.1.9-.6 1.8-.6 2.7-.1.9-.2 1.8-.3 2.8 0 .9.1 1.8.1 2.8 0 .9.1 1.8.1 2.8v2.8c0 .9.4 1.8.4 2.8 0 .9-.4 1.8-.4 2.8v2.9c0 1 .6 1.9.7 2.9.1 1 .1 2 .2 2.9.1 1-.1 2 0 2.9.2 1 .4 2 .6 2.9.2 1.1.3 2.1.5 2.9.2 1 .7 2 .8 3 .1 1 .1 2.1.1 3.1 0 .8.2 1.7.2 2.8.1.9 0 1.8 0 2.8.1.9.4 1.8.5 2.7.1.9-.2 1.9-.2 2.8.1.9.6 1.8.6 2.7.1.9-.1 1.9 0 2.8.1 1 .4 1.9.5 2.7.1 1 .1 1.9.2 2.8.1 1 .6 1.9.8 2.7.3 1.5.3 2.7.7 2.7.8.1 1.7 0 2.6.1.8.1 1.7 0 2.6.1.9.1 1.7.4 2.6.5.9.1 1.8 0 2.6.1.9 0 1.8.5 2.6.5 1.1-.1 2.1-.8 3-.9 1.1-.2 2.2 0 3.1-.3 1.1-.4 1.9-1.1 2.7-1.6.9-.6 1.6-1.4 2.2-2.2.7-.8 1-1.8 1.4-2.7.5-1 1-1.9 1.3-2.8.3-1.1.8-2.1 1.1-2.9.3-.7.1-1.8.2-3 .1-.9.6-1.9.6-2.9s-.2-2-.3-3c0-1.1.1-2.1.1-3-.1-1.8-.1-1.5-.2-3 0-.8-.6-1.6-.6-2.3 0-.9.3-1.4 1.3-1.5 2.1.4 2.1.3 4.1.8.5.1.9 2.3 1.9 2.3s.4-.5 0-.5c.6 0 .7-.2.7-.7-.3-1.7 0-1.6-.3-3.5-.2-1.1-.6-2.4-.6-3.5 0-.5.2-1.8.4-3.1.3-1.5.3-1.5.5-3 0-.6-.2-1.1-.7-1.1v.2c-.6 0-1.4 1.9-1.9 1.9-1.3.5-1.2.6-2.5.9-1.1.3-2.2.6-2.7.1-.3-.3-.5-1.6-.5-3.1 0-1 .3-2.1.4-3 .1-1.7.2-1.5.3-3 0-1.3.4-2.3 1.2-2.7.8-.4 1.9-.1 3.1-.1 1.7 0 1.5-.5 3.3-.5 1 0 2.2.6 3.3.6 1.1 0 2.2-.6 3.1-.9 1.7-.5 1.9 0 3.1-1.1z" style="fill:#ff8a65"/><path d="M58.4 36s4.8-5 11.2-1.4c6.4 3.6 5.6 13.3-.8 15.3-6.4 2-10.6-.6-11.6-3.4s-1.7-7.9 1.2-10.5zm23.1.9s4.8-5 11.2-1.4c6.4 3.6 5.6 13.3-.8 15.3-6.4 2-10.6-.6-11.6-3.4s-1.6-7.9 1.2-10.5z" style="fill:#fff"/><circle cx="66.2" cy="46.5" r="4.2"/><circle cx="88.7" cy="46.8" r="4.5"/><path d="M76.2 57.8c-2 0-2.5-2.3-2.5-3.5h1s0 2.5 1.5 2.5c1.6 0 2.5-2.6 2.5-2.7l.9.3c0 .2-1.1 3.4-3.4 3.4zm33.5 6.6-.6-.8s-.4.2-.8.6l-.7.7c-.2.2-.5.4-.8.6-.2.2-.4.5-.7.7-.2.2-.5.4-.8.6-.3.2-.6.3-.9.5-.3.2-.5.4-.8.6-.2-.4 0-.5 0-.9s0-.4.1-.9c0-.4 0-.4.1-.9 0-.4.2-.5-.1-.8-.4-.3-.6-.4-.9 0-.4.4-.1.5-.1 1s.1.5.1 1.1v1.1c0 .6.1.6 0 1.1-.4.2-.8.5-1.2.7-.3.2-.5.4-.8.6-.3.2-.7.2-1 .3-.3.1-.6.3-.9.5-.3.1-.6.2-1 .3-.3.1-.7.2-1 .3-.3.1-.6.3-1 .3-.3.1-.7.1-1 .2-.4.1-.7.2-1 .2-.4.1-.7 0-1 0-.6.1-1 .2-1 .2 0 .5.1.5.2 1h.9c.3 0 .6-.2.9-.2.3 0 .6-.1.9-.2.3-.1.6 0 1-.1.3-.1.6-.3.9-.3.3-.1.6-.1.9-.2l.9-.3c.3-.1.6-.1.9-.3.3-.1.5-.3.8-.5l.9-.3c.3-.1.5-.3.8-.5.3-.2.7-.3.9-.5.3-.2.5-.5.8-.7.5 0 .5.2 1.1.2.5 0 .6-.1 1.1 0 .5 0 .5.1 1.1.2.5 0 .6.4 1.1.1.4-.3.4-.5.1-.9-.4-.4-.5-.1-1-.2H106c-.5 0-.6.1-1.1-.1.3-.2.6-.3.9-.5.3-.2.5-.5.7-.7.3-.2.6-.4.8-.6.3-.2.6-.4.8-.6.3-.2.6-.4.8-.6.6-.8.8-1.1.8-1.1zm-67.1 3.5c-.2-.2-.5-.4-.7-.6-.2-.2-.4-.5-.6-.8-.2-.2-.6-.3-.8-.6-.2-.2-.4-.5-.6-.8-.2-.3-.4-.5-.6-.8-.2-.3-.4-.5-.5-.8-.2-.3-.3-.6-.5-.8-.2-.3-.4-.5-.5-.7.2-.4.3-.4.6-.7.3-.3.4-.3.7-.6l.6-.6c.3-.3.3-.3.7-.6.3-.3.3-.4.6-.7.3-.3.4-.3.7-.6.3-.3.6-.1.6-.6s-.1-.8-.6-.8-.4.4-.8.8c-.4.3-.3.5-.6.8-.4.4-.5.2-.9.6-.4.4-.3.4-.7.8-.4.4-.5.2-.9.6-.4.4-.2.6-.7.8-.2-.3-.3-.6-.5-.9-.2-.3-.3-.6-.5-.9-.1-.4-.3-.7-.4-1-.1-.4-.1-.8-.1-1-.1-.6-.2-1-.2-1-.5 0-.5 0-1 .1 0 0 0 .3.1.9 0 .3 0 .6.1.9l.3.9c.1.3.3.5.5.8.1.3.1.5.3.8-.5 0-.5 0-1-.2s-.4-.2-.9-.4-.4-.2-.9-.4-.4-.3-.9-.5-.5-.4-.9-.2c-.5.2-.7.4-.5.9.2.5.6.1 1.1.2.5.2.4.3.9.5s.5 0 1 .2.4.3.9.5.5.1 1 .3c.5.2.6.1 1 .3.1.3.2.7.3 1 .2.3.5.4.7.7.2.2.2.6.4.9.2.2.5.4.7.6.2.2.3.5.5.8.2.2.4.5.6.7.2.2.4.5.6.7.2.2.3.5.6.8.2.2.5.3.8.6.2.2.4.6.6.8.3.2.6.4.8.6.3.2.5.5.8.7.3.2.5.5.8.7.3.2.6.3.9.5.3.2.5.5.8.7.3.2.6.4.9.5.3.2.7.2 1 .4.3.1.6.3.9.4.3.1.7.2 1 .3.3.1.7.1 1 .2.4.1.7.2 1 .2.4.1.7.1 1 .1.4 0 .7.1 1 .1.6 0 .9-.1.9-.1-.1-.5 0-.5-.1-1h-2.1c-.3 0-.6-.1-1-.2-.3-.1-.6-.2-1-.3-.3-.1-.7-.1-1-.2-.3-.1-.6-.3-.9-.4-.3-.1-.6-.2-.9-.4-.3-.1-.6-.2-.9-.4-.3-.2-.5-.4-.8-.6-.3-.2-.6-.3-.9-.5-.3-.2-.5-.4-.8-.6-.3-.2-.5-.4-.8-.6-.3-.2-.5-.5-.7-.7-.1-.6-.4-.9-.6-1.1z" style="fill:#d83429"/><g style="opacity:.5"><path d="M60.4 53.3v.1-.1zm0 .3c0-.1.1-.2.1-.4 0 .2 0 .2-.1.4v-.2.1c0 .1 0 .1 0 0v.1zm.8.5zm.4.2zm.1.2zm-.5-.4zm-.6-.8zm.3.9zm-.2-.1v-.2c.1.1.1.1 0 .2zm-.2-.3c0 .1 0 0 0 0zm.5.4zm5 0zm0 .7c0 .1 0 .1 0 0zm-4.2-.2zm1.5.2c0-.1.1-.2.1-.3-.1 0-.1.2-.1.3zm-2.7-1.6zm2.7 1.3zm-1.1.1c0-.1 0-.1 0 0 0-.1 0-.1 0 0zm-.2-.3zm.4.1zm.1 0zm3-.3v.1c0-.1.1-.1 0-.1zm-4.9-.8c0-.1 0-.1 0 0 0-.1 0-.1 0 0 0-.1 0-.1 0 0zm2 0zm1.9.6zm-1.8-.6c0 .1 0 .1 0 0 0 .1 0 .1 0 0zm2.8.9z" style="fill:#fff"/><path d="M65.7 54s0 .2-.1.3c0 0 .1-.1.1-.3-.1.1-.1.3-.1.2v-.1c0 .1-.1 0-.1.2 0 .1 0 .2-.1.2 0 0 0 .1 0 0v-.1c0-.2 0-.1.1-.2 0 .1-.1.2-.1.1 0-.2 0 0 .1-.2v.1c0-.3 0 0 .1-.3 0-.1-.1.1-.1 0 0 .1 0 .1-.1.2-.1.2.1-.4 0-.2 0 .1-.1.3-.1.2v-.2s-.1.3-.1.1v-.1c0-.2 0 .1-.1.1v-.2s-.1.1-.1.2v-.2c-.1.1-.1 0-.1-.1v.1-.1.1-.1c-.1.1-.1.2-.1.1s-.1.3-.1.1c0-.1-.1 0-.1-.2-.1.2 0-.1-.1.2v-.3l-.1.2v-.2l-.1.2v-.2.1-.2l.1.5v-.1c-.1.1 0-.2 0 0v.1-.2h-.1c0 .1 0 .2-.1.2v-.2.2-.2.1-.1c0 .1 0-.2 0 0h-.1c0 .1 0 .1-.1.2 0 0 0-.2-.1-.2 0 .1 0 .1-.1.2v-.2s-.1 0-.1.1v.1-.1c-.1.2 0-.4-.1-.1l-.1.1v-.2c-.1.2-.1 0-.1.1.1-.4-.1 0-.1-.2v.1-.1.1c-.1.1-.1-.2-.2-.3 0 0-.1.4-.1.2v-.2c-.1.2-.1 0-.2.1v-.1c0-.1 0 0-.1.1v-.1c0-.1-.1.1 0 0 0 .1 0 0-.1.1 0-.1-.1.1-.1 0 0 .1 0-.1-.1.1v-.3l-.1.2c0-.3-.1.2-.1-.1-.1.1-.1.2-.2.2 0-.2.1 0 .1-.2-.1.1-.1.3-.2.2v-.1c-.1.1-.1 0-.1.1v-.1.1c0 .1-.1.3-.1.4.1-.3 0-.1.1-.4v.1-.1s-.1.2-.1.1v-.1c0 .1-.1.2-.1.1v-.1s-.1.2-.1.1c.1-.2 0-.1 0-.3v.1l-.1.1v-.1.1c0 .1 0 .2-.1.2v-.1.1c0-.1 0-.2.1-.2 0 .2-.1 0-.1.2v-.2.1-.1s0 .2-.1.1c0-.1-.1.1-.1 0 0-.2 0 0 .1-.2 0 0-.1.2-.2.2-.1.3 0-.1 0 0v-.1l-.1.1v-.2.2c0-.4-.1.2-.1-.1v-.1h.2v.2c0 .1 0 .1-.1.1v-.2.1c0-.2-.1.2-.1.1v-.1s0 .1-.1.1v-.2s-.1.2-.1.1v-.3c-.1.3-.1.1-.1.3.1-.2 0-.1.1-.3v-.1c0 .1 0-.1-.1.1v-.1.1c-.1.2 0-.2-.1 0-.1.1-.1.2-.1.3v-.2c0-.1 0-.1 0 0v-.1.1c0-.1 0-.1.1-.2 0 0-.1.1-.1.2 0-.1 0-.1.1-.2 0 0-.1.1-.1.2v-.1.1c-.1.3.1 0 .1 0l-.1.2.1-.2v.2c0 .1 0-.1 0 0v-.1.1c0 .1.1-.1.1 0 .1-.1 0-.1.1-.3v.6-.1.1-.2c0 .1.1-.1 0 .2v-.2c-.1.3 0 0 0 .1v.2c.1-.2 0 .1 0 0 0-.2 0-.1.1-.1v.2c0-.2.1-.1.1-.2 0 .1 0 .1-.1.2v-.1.1l.1-.1c0-.1.1-.4.1-.4 0 .1 0 .2-.1.2 0 0 0-.1 0 0v.1-.1.3-.1.2-.1.1c0-.1.1 0 .1-.2.1-.1.1.1.1 0s.1 0 .1-.1v.1s0-.1 0 0v.1s0 .1.1 0v.1-.1.2c0 .2.1-.3.1 0v-.2.3c0 .1.1-.2.1-.2 0-.1 0-.2.1-.3 0 0 0 .2-.1.3v.1-.1.2-.1c0 .1 0 0 .1.1v-.1c0 .1 0-.1.1-.1 0 .1-.1.2 0 .1v.3-.1.1c0-.1 0-.2.1-.3v.1c0-.1 0 .2-.1.2 0 .1.1-.2.1-.2v.1s0-.1.1-.2c0 .1 0 0 0 0v-.1.4c0-.1 0 .1 0 0s0-.1.1-.2h.1l.1-.2s0 .1 0 0v-.2c0 .2.1-.1 0 0l-.1.3c0 .1.1-.1.1-.1v-.2.2c0-.1 0 0 .1-.2v.1c0 .1.1-.3.1-.2 0 .1 0 .2-.1.2 0 .1.1-.1 0 0v-.3c0 .3.1 0 .1.3l.1-.1c0 .1.1-.3.1-.2v.1c-.1.3 0 0 0 .2 0 .1.1-.1.1-.1l.1-.2v.2s0-.2.1-.2v.3c0 .2 0 0 0 0v.1l.1-.2V54c.1-.2 0 .1 0 0v.2l.1-.2c0 .1-.1.2-.1.3l.1-.1s0 .1 0 0 .1-.2.1-.2c-.1.4 0 .1 0 .4.1-.1.1.1.1.1 0-.3 0 0 .1-.3v.5-.2c.1-.2 0 .3 0 .1v.1c0-.1.1 0 .1-.2v.1s.2-.2.2-.1v.1-.1.1s0-.1.1-.1v.1c0 .1.1-.2.2-.2v.3s.1-.2.2-.2c0 .2.1.1.1.3 0 0 0-.2.1-.2 0 0 .1-.1 0 .1v.2l.1-.3c0 .4.1-.1.1.2 0-.1 0-.1.1-.1v.1s0 .1.1 0v.1l.1-.4v.2s0 .2.1 0v.1s0 .2.1-.1c0 .2 0 0 .1-.1v.1c.1-.2.1-.2.1-.3v.1c0 .1 0-.1 0 0v.1l.1-.1v.2c0-.1.1-.2.1-.1v.1c0 .1.1-.1.1 0v.1c0 .1 0 .2-.1.3 0-.1.1-.3.1-.2v.1-.2c0-.1 0-.1 0 0 0-.1.1-.2.1-.2v.4c0-.1.1 0 .2-.3v.2c0-.1.1 0 .1-.2v.2c0 .3.2-.4.2-.1v-.1c0 .2.2-.1.2.2 0 .1 0-.1.1-.1v.1l.1-.2c.1-.1 0 .4.1.1v-.1s.1 0 0 .1c0 0 0-.1 0 0v.1l.1-.1c0 .1-.1.3 0 .3 0 0 .1-.2.1-.3v-.1c.1-.2.1-.5.1-.6l-.1.1v-.1c0-.1 0 0 0 0V54l-.8.5v-.2c0 .1 0 .2-.1.3v-.2c0 .1 0 0-.1.1v-.2c0 .1-.1.2-.1.2.1-.3 0 0 0-.3-.1.2-.1.1-.1.2 0 0 0-.1 0 0v-.1c0 .2-.1.2-.1.3.2-.3.3-.3.2-.6v.3-.2l-.1.2v-.2c.1 0 .1-.1.1-.1zm-.6.3zm0 0v.1-.1zm-.1 1c0-.1 0-.1 0 0 0-.1 0-.1 0 0 0-.1 0 0 0 0zm0-.2zM61.2 54zm3.3-.1v.1-.1zm-3.5-.4zm-.1 0c0-.1 0 0 0 0zm0-.1s-.1 0 0 0c-.1 0-.1 0 0 0zm1.2.1c.1 0 .1 0 0 0zm-.4.2zm.9-.3zm-.9.3zm-1.2-.5c0 .1 0 .1 0 0zm0 .1zm0 0zm.1 0z" style="fill:#fff"/><path d="M60.7 53.3s0-.1 0 0c0-.1-.1.1 0 0zm0 .7c-.1 0-.1.1 0 0-.1.2-.1-.1 0 0zm0 .1v.1-.1zm.6.1v.1-.1zm.3-.6v-.1l-.1.1zm-.2.9h.1zm1.1.2v-.2s-.1.2 0 .2zm.4-.1c0 .1 0 .1 0 0zm1.3.5-.1.1.1-.1z" style="fill:#fff"/></g><g style="opacity:.5"><path d="M83.3 54.3v.1-.1zm0 .3v-.4.4-.2.1c0 .1 0 .1 0 0v.1zm.9.2c0-.1 0 0 0 0zm.5 0zm.1.2c0-.1 0-.1 0 0zm-.6-.2zm-.8-.6zm.6.7s0 .1 0 0zm-.2.1v-.2.2c0-.1 0-.1 0 0zm-.3-.2zm.6.1c0 .1 0 .1 0 0 0 .1 0 0 0 0zm4.7-1.6zm.3.7zM85 55.1zm1.5-.3v-.3c-.1.1-.1.3 0 .3zm-3.1-.6zm3 .3zm-1 .5s0-.1 0 0c0-.1 0 0 0 0zm-.3-.2zm.4 0zm.1 0c0-.1 0-.1 0 0 0-.1 0-.1 0 0zm2.8-1.4v.1-.1zm-5 .9c0-.1 0-.1 0 0 0-.1 0-.1 0 0 0-.1 0 0 0 0zm2-.6zm1.9-.1c0-.1 0-.1 0 0zm-1.9.1c.1 0 .1 0 0 0 .1 0 .1 0 0 0zm3-.2z" style="fill:#fff"/><path d="M88.5 53.2v.3-.3.3-.1c0 .1-.1 0 0 .2v.3s0 .1 0 0v-.1.1-.2.2-.2.1c-.1-.3 0 0 0-.3 0 0 0 .1-.1 0v.2c0 .2-.1-.4-.1-.2v.2-.2.2-.1.1-.2l-.1.2v-.2c0 .1-.1 0-.2-.1v.1-.1.2-.1c0 .1-.1.3-.1.1v.2c-.1-.1-.1.1-.2-.1 0 .2-.1-.1 0 .2 0-.1 0-.2-.1-.3v.2-.2.2-.2.1c0 .1-.1-.1-.1-.2v.1-.1c0 .2 0-.2 0 0v.1c0-.1-.1-.1-.1 0v-.1l-.1.1v.2-.2.2-.2.1-.1c0 .1-.1-.2 0 0l-.1.1v.2l-.1-.1v.2-.2l-.1.1v.1-.1c0 .2-.2-.4-.2-.1v.1-.2c0 .2-.1 0-.1.1-.1-.4-.1 0-.2-.2v.1-.1.1c-.1.1-.2-.1-.3-.2v.3-.2c0 .2-.1 0-.2.2v-.1c0-.1-.1 0 0 .1v-.1c0-.1 0 .2 0 0v.1c0-.1 0 .1-.1 0v.1c0-.2-.1-.2-.1-.1v-.2.2c-.1-.3 0 .2-.1-.1 0 .1-.1.2-.1.3v-.3c0 .1 0 .3-.1.2v-.1c0 .1-.1 0-.1.1v-.1.5c0-.3 0-.1-.1-.4v.1-.1.2-.1.2-.1s0 .3-.1.2V54v.3-.1.3-.1.1-.2.2-.2.1-.1.1s0 .1-.1 0v-.2l-.1.2c0 .3 0-.1-.1 0v-.1s0 .1-.1.2v-.1c0-.1 0 0-.1-.1v.2c-.7-.5-.7.1-.8-.3v-.1.4-.2.2-.1.1-.2.1-.3.3-.4.1-.1.1c0 .2-.1-.2-.1 0v.3-.2c0-.1 0-.1 0 0v-.1.1-.2.2-.2.2-.1.1c0 .3 0-.1.1 0v.2-.2.2c0 .1 0-.1 0 0v-.1.1c0 .1 0-.2.1 0v-.3l.1.4v-.2.1-.2c0 .1 0-.1.1.2v-.2.3c0-.2 0 0 0 0v-.1c0 .1.1.1.1.2v-.2.2-.1.1s0-.2.1-.1c0-.1-.1-.4 0-.4v.2s0-.1 0 0v.1-.1.2-.1.2-.1.1-.2c0-.2.1.1.1 0v-.1.1s0-.1 0 0v.1s0 .1 0 0v.1-.1.2c.1.2 0-.4.1 0v-.2l.1.3v-.5s.1.2 0 .3v.1-.1.1-.1c0 .1 0 0 .1.1v-.2.3c0-.1.1.1.1.1v-.1.1-.3.3-.2.1-.2c0 .1 0-.1 0 0v-.1.1c0-.2.1.2.1 0v.2c0-.1 0 .1.1 0v-.2.1-.2.1-.2c0 .2 0-.1.1 0v.3c0 .1 0-.2.1-.1v-.1.2-.2.1-.3.3-.1c0 .1 0-.1 0 0v-.3c.1.3.1 0 .1.2 0 0 0-.1.1-.1v-.2.1c0 .3 0 0 .1.1 0 .1 0-.1.1-.1v-.3.2-.2c0 .1 0 .1.1.3 0 .2 0 0 0 0v.1-.3c0-.2 0 .1 0 0v.2-.2.3-.1s0 .1 0 0V54c0 .4.1.1.1.4 0-.1.1 0 .1 0-.1-.3 0 0 0-.3l.1.2v.1s0 .1.1.2v-.2c0-.2.1.3.1.1v.1c0-.1.1 0 .1-.3v.1s.1-.3.1-.1v.1-.1.1-.1.1c.1.1 0-.2.1-.3 0 .2.1.3.1.3.1 0 .1-.2.1-.3.1.2.1.1.2.2v-.2s0-.2 0 0 0 .1.1.1v-.3c.1.4.1-.2.2.2V54v.1h.1v.1-.4.2s.1.2.1 0v.1s.1.1 0-.2c0 .2 0 0 .1-.1v.1-.3.1-.1.1-.1c0-.1 0 0 .1.2v-.1.1c0 .1 0-.2.1 0v.4-.3.1-.5c0 .2.1.3.1.4 0-.1.1-.1.1-.3v.2c0-.1.1 0 0-.2v.2c.1.3 0-.5.2-.1v-.1c.1.2.1-.2.3.1v-.2.1-.2c0-.1.1.4.1.1v-.1s0-.1.1.1v-.1.1-.1c0 .1 0 .3.1.3v-.4c0-.2 0-.5-.1-.6v.1-.1.1-.1.2-.2.3-.2.2c0-.1 0 0-.1-.2v.2c0-.3 0 0-.1-.3 0 .2 0 .1-.1.2 0 0 0-.1 0 0v-.1.4c.2.3.2.2.1 0 .1.2.1.2.1.3v-.2.2-.2c-.1 0-.1-.1-.1-.1zm-.5.5zm0 0s0 .1 0 0zm.2.9c0 .1 0 0 0 0zm0-.1c0-.1 0-.1 0 0 0-.1 0-.1 0 0 0-.1 0-.1 0 0zm-4 .2zm3.1-1.2h.1zm-3.4.8zm-.1 0c0-.1 0 0 0 0zm-.1-.1s0 .1 0 0c0 .1 0 .1 0 0zm1.2-.3c.1 0 .1 0 0 0zm-.3.4c0-.1 0-.1 0 0 0-.1 0-.1 0 0zm.8-.6zm-.8.5zm-1.3 0zm0 0zm0 .1c0-.1 0-.1 0 0zm.2-.1c-.1 0 0 0 0 0zm0 0s0-.1 0 0c-.1-.1 0 .1 0 0zm.2.6v.1-.1zm.1.1v.1-.1zm.6-.1v.1-.1zm0-.6v-.1.1zm.2.8v.1-.1zm1-.1v-.2.2z" style="fill:#fff"/><path d="M86 54.7c.1 0 .1.1 0 0 .1 0 0-.1 0 0zm1.4.1z" style="fill:#fff"/></g><path d="M77 75.2zm-.1 0c.1 0 .1 0 0 0 .1 0 .1 0 0 0 .1 0 .1 0 0 0 .1 0 .1 0 0 0 .1 0 0 0 0 0zm0 .4zm0 .3zm-.1 0zm.1-.3zm.1-.3zm-.1.2zm0-.1zm0-.1zm0 .3zm.2 2.4zm-.1.1zm-.2-2.1zm0 .8c.1 0 .1 0 0 0 .1 0 .1-.1 0 0zm.2-1.5zm-.1 1.5zm-.1-.6zm.1-.1zm0 .2zm0 .1v-.1zm.2 1.4zm-.1-2.5zm.1 1zm0 1zm0-1zm0 1.5z" style="fill:#4b5d9a"/><path d="M77.1 77.9s0-.1 0 0c0-.1 0-.1 0 0 0-.1 0-.1 0 0 0-.1 0-.1 0 0l-.1-.1c.1 0 0 0 .1.1l-.1-.1.1.1c0-.1 0-.1 0 0v-.1s.1 0 0 0c0 0-.1 0 0 0 0 0-.1 0 0 0v-.2s-.1 0 0-.1c0 0-.1 0 0 0v-.1h.1v-.1h-.1s.1-.1 0-.1v-.1c.1 0 0-.1 0-.1v-.1H77v-.1c.1 0 0 0 0 0l-.1-.1h.1s-.1 0 0-.1v-.1h-.1.1s-.1 0 0-.1h.1v-.1c-.1 0 0 0 0 0 .1 0 0-.1 0-.1s-.1 0 0 0H77h.1-.1c-.1 0 0 0 0 0h.1-.1c-.1 0 0 0 0 0h.1v.1s.1 0 0 .1H77h.1-.1.1-.1.1-.1c-.1 0 0 0 0 .1 0 0 .1 0 0 0h.1-.3v.1h.1s-.1 0 0 0c0 0 .1 0 0 .1l.1.1h-.1l.1.1v.1h.1c-.1 0 0 .1 0 .1h.1v.1h.1-.1s.1 0 0 0h-.1.1c-.1 0 .1 0 0 .1v.1s-.1 0 0 0h-.1.2-.1.1c-.2.6-.2.6-.2.5 0 .1 0 .1 0 0zm-.1-.3zm0 0zm-.2 0s.1 0 0 0c.1 0 .1 0 0 0 .1 0 .1 0 0 0 .1 0 .1 0 0 0zm.1.1v-.1zm0-2.1zm.2 1.7zm-.1-1.8zm0 0c0-.1 0 0 0 0zm0-.1zm.1.7zm-.1-.2zm.1.4zm-.1-.4zm0-.7zm0 0zm0 0zm0 .1zm0 0zm-.1.1c-.1 0 0 0 0 0zm0 0zm0 .3zm.1.1zm-.2 0zm0 .5c.1 0 0 0 0 0zm.1.3zm-.1.6zm-7.1.9zm-.1 0c.1 0 .1 0 0 0 .1 0 .1 0 0 0 .1 0 .1 0 0 0 .1 0 .1 0 0 0 .1 0 .1 0 0 0zm0 .7zm0 .5zm-.1.1zm.1-.6c0 .1 0 .1 0 0zm.1-.6zm-.1.4zm0-.1zm0-.3zm0 .6s-.1 0 0 0c-.1 0 0 0 0 0zm.1 4.3zm-.1.2zm-.1-3.8zm0 1.3s0 .1 0 0zm.2-2.6zm-.1 2.6zm-.1-.9zm0-.3zm0 .4zm0 .1zm.2 2.6zm0-4.5zm.1 1.8zm-.1 1.7zm.1-1.6s-.1 0 0 0c-.1 0-.1 0 0 0zm-.1 2.6zm.1.1s-.1 0 0 0c-.1 0-.1 0 0 0-.1 0-.1 0 0 0-.1 0-.1 0 0 0-.1-.1 0-.1-.1-.1h-.1v-.1h.1v-.1s.1 0 0-.1c0 0-.1 0 0 0 0 0-.1 0 0 0v-.2s-.1-.1 0-.1c0 0-.1 0 0 0v-.2l.1-.1v-.2h-.1v-.3s.1-.1 0-.1v-.1c.1 0 0-.1 0-.1v-.2s-.1 0 0-.1v-.4c.1 0 0-.1 0-.1s0-.1-.1-.1h.1s-.1-.1 0-.1v-.1h-.1.1s-.1-.1 0-.1h.1v-.2c-.1 0 0 0 0 0v-.2c.1 0 0-.1 0-.1h.1s-.1 0 0 0c-.1 0 0 0-.1-.1h.1v-.1s-.1 0-.1-.1c-.1 0 0 0 0 .1h.1-.1c-.1 0 0 0 0 0v.3h.1v.2s.1.1 0 .1h-.1.1-.1v.2h.1-.1v.1s.1 0 0 .1h-.1c-.1 0 0 .1 0 .1v.1s.1 0 0 0 0 0 0 .1v.1l.1.1h-.1v.2l-.1-.1v.1c-.1 0 0 .1-.1.1v.1h.1s-.1 0 0 .1v.1s.1.1 0 .1c0 0 0 .1.1.1h-.1s0 .1.1.1v.1h.1c-.1 0 0 .1 0 .1v.1h.1v.3h.1v.1h-.1s.1 0 0 .1h-.1s0 .1.1.1v.1c-.1.1.1.1 0 .2v.2s-.1 0 0 .1h-.1.2-.1.1v-.1c-.3 0-.3 0-.2-.1-.1.1-.1.1 0 0-.1.1-.1.1 0 0-.1.1-.1.1 0 0-.1.1-.1.1 0 0-.1 0-.1 0 0 0-.1 0 0 0 0 0zm-.1-.4zm0-.1zm-.2.1zm0 0zm.1-3.6zm.1 3zm0-3.2zm0-.1zm0 0zm0 1.1zm0-.3zm.1.7zm-.1-.7zm0-1.2zm0 0zm0 0zm0 .1zm0 .1c0-.1 0 0 0 0zm-.1.1c-.1 0 0 0 0 0zm0 .1zm0 .5c-.1 0 0 0 0 0zm.1.1zm-.2.1zm0 .9zm0 .4s.1 0 0 0zm0 1.2z" style="fill:#4b5d9a"/><g style="opacity:.6"><path d="M63.8 69.9zm0 0s0 .1 0 0zm-.1.8zm0 .4zm-.1.1zm.1-.5zm.1-.7zm-.1.5zm0-.2zm0-.2zm0 .5zm.1 4.3zm-.1.2zm-.1-3.7zm0 1.3c.1 0 0 0 0 0zm.2-2.7s0 .1 0 0zm-.1 2.7zm-.1-1zm.1-.3zm0 .4zm0 .1zm.1 2.6zm0-4.5zm.1 1.8zm-.1 1.8zm.1-1.7zm-.1 2.6zm.1.2c0-.1-.1 0 0 0-.1-.1-.1-.1 0 0 0-.1-.1-.1 0 0-.1-.1-.1-.1 0 0-.1-.1 0-.1-.1-.1h-.1v-.1h.1v-.1s.1 0 0-.1c0 0-.1 0 0 0 0 0-.1 0 0 0v-.2s-.1-.1 0-.1c0 0-.1 0 0 0v-.2l.1-.1v-.2h-.1v-.3s.1-.1 0-.1V73c.1 0 0-.1 0-.1v-.2s-.1 0 0-.1v-.4c.1 0 0-.1 0-.1s0-.1-.1-.1h.1s-.1-.1 0-.1v-.1h-.1.1s-.1-.1 0-.1h.1v-.2c-.1 0 0 0 0 0v-.2c.1 0 0-.1 0-.1h.1s-.1 0 0 0c-.1 0 0 0-.1-.1h.1V71s-.1 0-.1-.1c-.1 0 0 0 0 .1h.1-.1c-.1 0 0 0 0 0v.3h.1v.2s.1.1 0 .1h-.1.1-.1v.2h.1-.1v.1s.1 0 0 .1h-.1c-.1 0 0 .1 0 .1v.1s.1 0 0 0 0 0 0 .1v.1l.1.1h-.1v.2l-.1-.1v.1c-.1 0 0 .1-.1.1v.1h.1s-.1 0 0 .1v.1s.1.1 0 .1c0 0 0 .1.1.1h-.1s0 .1.1.1v.1h.1c-.1 0 0 .1 0 .1v.1h.1v.3h.1v.1H64s.1 0 0 .1h-.1s0 .1.1.1v.1c-.1.1.1.1 0 .2v.2s-.1 0 0 .1h-.1.2-.1.1v-.1c-.3 0-.3-.1-.2-.1-.1 0-.1 0 0 0-.1 0-.1 0 0 0-.1 0-.1 0 0 0-.1 0-.1 0 0 0-.1 0 0 0 0 0 0-.1 0 0 0 0zm-.1-.5zm0 0zm-.2 0zm0 0v.1-.1zm.1-3.5zm.2 2.9h-.1zm-.1-3.1zm0-.1zm0-.1zm0 1.1c.1 0 .1 0 0 0zm0-.3zm.1.7zm-.1-.7zm0-1.1zm0 0zm0 0zm0 .1zm0 0s.1 0 0 0c.1 0 0 0 0 0zm-.1.1c-.1 0 0 0 0 0zm0 .1zm0 .5c0 .1 0 0 0 0zm.1.1zm-.2.1zm0 .9c.1 0 0 0 0 0zm.1.4c-.1 0-.1 0 0 0zm-.1 1.2z" style="fill:#fff"/></g><g style="opacity:.6"><path d="M73.1 87.8s-.1 0 0 0zm-.1.1s.1 0 0 0c.1 0 .1 0 0 0 0 0 .1-.1 0 0zm0 .7zm-.1.5zm0 .1s0-.1 0 0zm.1-.6s-.1 0 0 0zm.1-.6zm-.2.4zm0-.1zm.1-.3zm-.1.5zm.2 4.4zm-.1.1c-.1 0-.1 0 0 0zm-.1-3.7zm0 1.3zm.2-2.6zm-.2 2.6zm0-1zm0-.2zm0 .4zm0 .1zm.2 2.6zm0-4.5zm0 1.8zm0 1.7zm0-1.7s0 .1 0 0c0 .1 0 .1 0 0zm0 2.7zm0 .1s0-.1 0 0c0-.1 0-.1 0 0-.1-.1 0-.1-.1-.1h-.1v-.1h.1v-.1s.1 0 0-.1c0 0-.1 0 0 0 0 0-.1 0 0 0V92s-.1-.1 0-.1c0 0-.1 0 0 0v-.2l.1-.1v-.2H73v-.3s.1-.1 0-.1v-.1c.1 0 0-.1 0-.1v-.2s-.1 0 0-.1v-.4c.1 0 0-.1 0-.1s0-.1-.1-.1h.1s-.1-.1 0-.1v-.1h-.1.1s-.1-.1 0-.1h.1v-.2c-.1 0 0 0 0 0v-.2c.1 0 0-.1 0-.1h.1s-.1 0 0 0c-.1 0 0 0-.1-.1h.1v-.1s-.1 0-.1-.1c-.1 0 0 0 0 .1h.1-.1c-.1 0 0 0 0 0v.3h.1v.2s.1.1 0 .1h-.1.1-.1v.2h.1-.1v.1s.1 0 0 .1H73c-.1 0 0 .1 0 .1v.1s.1 0 0 0 0 0 0 .1v.1l.1.1H73v.2l-.1-.1v.1c-.1 0 0 .1-.1.1v.1h.1s-.1 0 0 .1v.1s.1.1 0 .1c0 0 0 .1.1.1h-.1s0 .1.1.1v.1h.1c-.1 0 0 .1 0 .1v.1h.1v.3h.1v.1h-.1s.1 0 0 .1h-.1s0 .1.1.1v.1c-.1.1.1.1 0 .2v.2s-.1 0 0 .1h-.1.2-.1.1v-.1c-.2 0-.2 0-.2-.1 0 .1 0 .1 0 0 0 .1 0 .1 0 0zm-.1-.5zm0 0zm-.2.1c.1 0 .1 0 0 0 .1 0 .1 0 0 0 .1 0 .1 0 0 0zm.1 0zm.1-3.6zm.1 2.9v.1zm0-3.1zm0-.1zm0-.1zm0 1.2zM73 89c.1 0 .1 0 0 0zm.1.8zm-.1-.7c.1 0 .1 0 0 0zm.1-1.2zm0 0zm0 0zm0 .1zm0 0zm-.1.2c0-.1-.1-.1 0 0-.1 0 0-.1 0 0zm-.1 0zm0 .6zm.2.1zm-.2 0v.1zm0 1zm0 .4zm0 1.1h-.1z" style="fill:#fff"/></g><path d="M77.4 84.5zm0 .1c0-.1 0-.1 0 0 0-.1 0-.1 0 0 0-.1 0 0 0 0zm-.1.7zm0 .5zm0 0zm0-.5zm.2-.6zm-.2.4zm0-.2zm.1-.2c-.1 0-.1 0 0 0zm-.1.5zm.2 4.3zm-.2.2zm-.1-3.7zm0 1.3c.1 0 .1 0 0 0 .1 0 .1 0 0 0zm.3-2.6zm-.2 2.6zm-.1-1c.1 0 .1 0 0 0 .1 0 .1 0 0 0zm.1-.2zm0 .3zm0 .2zm.2 2.5s-.1 0 0 0c0 0 0 .1 0 0zm-.1-4.4c.1 0 .1 0 0 0 .1 0 .1 0 0 0 .1 0 .1 0 0 0zm.1 1.7c0 .1 0 .1 0 0zm0 1.8zm0-1.7zm-.1 2.6z" style="fill:#4b5d9a"/><path d="M77.5 89.3c-.1-.1 0 0 0 0 0-.1-.1-.1 0 0 0-.1 0-.1 0 0-.1-.1 0-.1-.1-.1h-.1v-.1h.1V89s.1 0 0-.1c0 0-.1 0 0 0 0 0-.1 0 0 0v-.2s-.1-.1 0-.1c0 0-.1 0 0 0v-.2l.1-.1v-.2h-.1v-.3s.1-.1 0-.1v-.1c.1 0 0-.1 0-.1v-.2s-.1 0 0-.1v-.4c.1 0 0-.1 0-.1s0-.1-.1-.1h.1s-.1-.1 0-.1v-.1h-.1.1s-.1-.1 0-.1h.1v-.2c-.1 0 0 0 0 0v-.2c.1 0 0-.1 0-.1h.1s-.1 0 0 0c-.1 0 0 0-.1-.1h.1v-.1s-.1 0-.1-.1c-.1 0 0 0 0 .1h.1-.1c-.1 0 0 0 0 0v.3h.1v.2s.1.1 0 .1h-.1.1-.1v.2h.1-.1v.1s.1 0 0 .1h-.1c-.1 0 0 .1 0 .1v.1s.1 0 0 0 0 0 0 .1v.1l.1.1h-.1v.2l-.1-.1v.1c-.1 0 0 .1-.1.1v.1h.1s-.1 0 0 .1v.1s.1.1 0 .1c0 0 0 .1.1.1h-.1s0 .1.1.1v.1h.1c-.1 0 0 .1 0 .1v.1h.1v.3h.1v.1h-.1s.1 0 0 .1h-.1s0 .1.1.1v.1c-.1.1.1.1 0 .2v.2s-.1 0 0 .1h-.1.2-.1.1v-.1c-.3 0-.3 0-.2-.1-.1 0 0 .1 0 0 0 .1 0 0 0 0s-.1 0 0 0c-.1 0 0 0 0 0zm-.1-.5zm0 0zm-.2.1zm.1 0zm0-3.6zm.2 2.9zm-.1-3.1zm0-.1zm.1-.1c-.1 0-.1 0 0 0-.1 0-.1 0 0 0zm0 1.2zm-.1-.4zm.1.7zm-.1-.7zm.1-1.1zm0 0zm0 0zm0 .1zm0 0s-.1 0 0 0zm-.2.1c0 .1 0 0 0 0zm0 .1zm0 .6zm.1.1h.1-.1zm-.1 0zm0 .9s-.1 0 0 0zm0 .4s0 .1 0 0c0 .1 0 0 0 0zm-.1 1.2z" style="fill:#4b5d9a"/></g></svg>