<svg xmlns="http://www.w3.org/2000/svg" viewBox="0 0 131.2 142.8" style="enable-background:new 0 0 131.2 142.8" xml:space="preserve"><style>.st5{fill:#ef7937}.st6{fill:#f5a800}.st7{fill:none;stroke:#ef7937;stroke-width:.925;stroke-miterlimit:10}.st8{fill:#ee8e39}.st9{fill:#f5a800}.st10{fill:none;stroke:#ef7937;stroke-width:.8491;stroke-miterlimit:10}.st11{fill:#ee8e39}.st12{fill:#f5a800}.st13{fill:none;stroke:#d9413d;stroke-width:.8491;stroke-miterlimit:10}.st14{opacity:.37}.st15{clip-path:url(#SVGID_2_)}.st16{clip-path:url(#SVGID_4_)}.st17{clip-path:url(#SVGID_6_)}.st18{clip-path:url(#SVGID_8_)}.st19{clip-path:url(#SVGID_10_)}.st20{clip-path:url(#SVGID_12_)}.st21{clip-path:url(#SVGID_14_)}.st22{clip-path:url(#SVGID_16_)}.st23{clip-path:url(#SVGID_18_)}.st24{clip-path:url(#SVGID_20_)}.st25{fill:none;stroke:#ee8e39;stroke-width:.925;stroke-miterlimit:10}.st26{clip-path:url(#SVGID_22_)}.st27{clip-path:url(#SVGID_24_)}.st28{clip-path:url(#SVGID_26_)}.st29{clip-path:url(#SVGID_28_)}.st30{clip-path:url(#SVGID_30_)}.st31{fill:none;stroke:#d9413d;stroke-width:.925;stroke-miterlimit:10}.st32{clip-path:url(#SVGID_32_)}.st33{clip-path:url(#SVGID_34_)}.st34{clip-path:url(#SVGID_36_)}.st35{clip-path:url(#SVGID_38_)}.st36{clip-path:url(#SVGID_40_)}.st37{fill:#ee8e39}.st39{fill:#ee8423}.st40{fill:#f18a50}.st41{fill:#019788}.st42{fill:#32867a}.st43{fill:#f67258}.st44{fill:#de5956}.st45{opacity:.5}.st46{fill:#4b5d9a}.st47{opacity:.6}.st48{fill:#21a497}.st49{fill:#f7846d}.st50{fill:#26a59a}.st51{opacity:.65;fill:none;stroke:#fff;stroke-width:.2;stroke-miterlimit:10}.st52{fill:#f8dd91}.st53{fill:none;stroke:#31458b;stroke-miterlimit:10}.st54{fill:#ef7937}.st55{fill:none;stroke:#f5a800;stroke-miterlimit:10}.st55,.st56,.st57{stroke-width:.2}.st56{fill:none;stroke:#4db6ac;stroke-miterlimit:10}.st57{stroke:#ff8a65}.st57,.st58,.st59,.st60,.st61{fill:none;stroke-miterlimit:10}.st58{opacity:.65;stroke:#fff;stroke-width:.5}.st59{stroke:#ef7937}.st60{stroke:#147467}.st61{stroke:#d9413d}.st62{fill:#ee8e39}.st63,.st64,.st65{fill:#f8dd91}</style><g id="Calque_1"><path d="M76.1 113.7s-24.4-.3-29.7 1.4c-5.3 1.7 13.7 6.7 23.8 5.8s17.5-4.3 14.5-5.4c-2.9-1.2-6-1.5-8.6-1.8z" style="opacity:5.000000e-02"/><path d="M67.7 103.2c-.1.5.1.5.1 1.1 0 .5-.1.5-.1 1v1c0 .5.1.5.1 1v2c0 .5.1.5.1 1s-.1.5-.1 1v1.1c0 .5.1.5.1 1.1v1.1c0 .4.3.8.7.8h1.1c.5 0 .6-.1 1.1-.1.5 0 .6-.7.2-.9-.4-.2-.4-.2-.9-.4-.4-.2-.5-.1-.9-.3-.3-.1-.5-.4-.5-.7v-1c0-.5.1-.5.1-1v-1c0-.5-.1-.5-.1-1v-6c0-.5.1-.5.1-1s.4-.8-.1-.9c-.5-.1-.2.4-.5.8-.3.8-.4.8-.5 1.3zm-6.6 0c.1.5 0 .5 0 1v1c0 .5-.1.5-.1 1v1c0 .5.1.5.1 1s-.1.5-.1 1 .1.5.1 1-.1.5-.1 1 .1.5.1 1.1v1.1c0 .5-.1.5-.1 1.1 0 .4-.3.8-.7.8-.6 0-.6-.1-1.1-.1s-.6-.1-1.1-.1c-.5 0-.6-.6-.2-.8.4-.2.4-.2.9-.4.4-.2.5-.1.9-.2.3-.1.4-.5.4-.8v-1c0-.5.1-.5.1-1s-.1-.5-.1-1v-2c0-.5.1-.5.1-1v-1c0-.5-.1-.5-.1-1v-2c0-.5-.1-.5-.1-1s-.4-.8.1-.9c.5-.1.2.4.5.8.3.9.3.9.5 1.4z" style="fill:#ef7937"/><path d="M79.7 55c1.3-.5 1.1-.5 2.5-1.1.8-.3 1.7-.7 2.5-1 1-.4 1.9-.9 2.4-1.1.5-.3 1.5-.4 2.5-.6.8-.2 1.6-.5 2.3-.9.8-.4 1.5-.8 2-1.4.5-.6 1.1-1.2 1.3-2.2.2-.8-.2-1.8-.4-2.8-.1-.9-.1-1.8-.4-2.7-.3-.9-.7-1.7-1.1-2.5-.4-.9-.6-1.8-1-2.6-.5-.9-1.1-1.6-1.6-2.3-.7-1-1.3-1.7-1.8-2-.8-.4-1.5-1-2.4-1.5-.8-.4-1.6-.9-2.5-1.3-.8-.4-1.7-.8-2.5-1.2-.8-.4-1.7-.8-2.6-1.1l-2.7-.9c-.9-.3-1.9-.3-2.8-.5-.9-.2-1.8-.8-2.7-.9-.9-.1-1.9.3-2.8.3-.9 0-1.8.2-2.7.4-.6.1-1.6.3-2.8.5-.8.1-1.8-.1-2.8.1-.9.1-1.8.5-2.7.7-.9.1-1.8.2-2.8.4-.9.2-1.8.4-2.7.7-.9.2-1.9.3-2.7.6-.9.3-1.7.8-2.5 1.1-.9.4-1.8.6-2.6 1-.9.5-1.5 1.2-2.1 1.8-.6.8-1.4 1.4-2.1 2.2l-1.8 2.4c-.6.8-1.1 1.7-1.6 2.5s-1.1 1.7-1.5 2.6c-.4.9-.6 1.9-.9 2.8-.3.9-.7 1.8-.9 2.9-.1 1-.3 1.9-.3 3 0 1 0 1.9-.1 2.8 0 1-.1 1.9-.2 2.8-.1 1 0 1.9-.1 2.8-.1.9-.3 1.8-.4 2.8.2.5.5 1.4.4 2.4 0 .9-.4 1.8-.4 2.8 0 1 .3 1.9.4 2.8 0 1-.1 1.9 0 2.8.1.9.3 1.9.4 2.8.1.9.2 1.9.3 2.8.1.9.2 1.9.3 2.8.1.9.4 1.8.5 2.7.1.8.6 1.7 1.1 2.8.3.9.4 1.9.9 2.9.4.9 1.1 1.6 1.7 2.5.5.8 1 1.7 1.5 2.6.6.8 1.1 1.7 1.8 2.5.6.8 1.5 1.3 2.2 2 .7.7 1.2 1.7 2 2.3.8.6 1.8 1 2.6 1.5.9.5 1.7 1.1 2.7 1.5 1 .3 2 .5 3 .6.8.1 1.8.2 2.8.3.9.1 1.8-.3 2.8-.2.9 0 1.8.2 2.8.2.9 0 1.8-.1 2.8 0 .9 0 1.8.4 2.8.4.9 0 1.9-.4 2.8-.4.9 0 1.9.2 2.8.1.9 0 1.9.1 2.8 0 .9-.1 1.9-.4 2.8-.5.9-.1 1.9.1 2.8 0 .9-.1 1.9-.2 2.8-.4 1-.2 1.8-.6 2.7-.8 1-.2 1.9-.3 2.7-.5.9-.3 1.8-.8 2.5-1.2.9-.5 1.6-1.1 2.2-1.7.7-.7 1.5-1.2 1.8-2.1.3-.9.2-1.9.4-2.8.2-.9.4-1.8.6-2.8.1-1 .3-1.9.4-2.8.1-1 .3-1.9.3-2.8 0-1 .3-1.9.3-2.8 0-.9-.3-1.9-.2-2.8 0-.9.3-1.9.3-2.8.1-.9-.1-1.9 0-2.8.1-.9.4-1.7.5-2.6.1-.9-.1-1.8-.1-2.7 0-.9.3-1.8.2-2.7-.1-.9-.5-1.8-.7-2.6-.2-.9-.3-1.8-.7-2.6-.5-.8-1.2-1.4-1.9-1.8-.7-.4-1.5-.7-2.5-.7-.8 0-1.8-.1-2.8-.2-.9-.1-1.8-.3-2.8-.4-.9-.1-1.9.1-2.8 0-.9-.1-1.8-.4-2.8-.5-.9-.1-1.9.1-2.8 0-1-.1-1.9-.3-2.8-.3-1-.1-2-.3-2.8-.3-1.3 0-2.3 0-2.8.1-.5.2-1.3.8-2.4 1.4-.7.4-1.5.9-2.4 1.4-.8.5-1.7.7-2.5 1.2s-1.5 1.1-2.3 1.6c-.8.6-1.6 1.1-2.3 1.6-1.1.9-1.8 1.7-1.8 2.2 0 .8.6 1.7 1.5 2.6.6.6 1.4 1.3 2.3 1.9.8.5 1.7.9 2.6 1.4.9.5 1.7 1 2.6 1.4.9.4 1.9.6 2.8.9 1.1.4 2 .8 2.8 1 1.2.2 2.3.4 3.2.5 1.4.2 2.3.6 2.3 1.7 0 .7-.3 1.7-1 3.1-.4.8-1.1 1.5-1.8 2s-1.6.9-2.5 1.2c-.8.2-1.8.2-2.7.3-.9.1-1.8.3-2.7.2-.9-.1-1.8-.2-2.7-.4-.9-.2-1.8-.7-2.6-.9-1-.3-1.9-.4-2.6-.7-.9-.4-1.6-1-2.2-1.9-.5-.7-1.3-1.5-1.6-2.5-.3-.9-.5-1.9-.6-2.9-.1-.9 0-2 0-3s.2-1.9.3-3c.1-1 .1-2 .2-2.9.1-1 0-2.1.1-3.1.1-1.1.6-2 .8-3 .2-1.1.2-2.2.7-3 .5-.9 1.4-1.5 2.3-2 .8-.5 1.6-1 2.7-1.1.9-.1 1.9-.4 3.1-.2 1 .1 1.9.5 2.7.6 1 .1 1.9.2 2.7.3 1 .1 1.9 0 2.8 0 1 .1 1.9.3 2.7.3.9-.1 1.7-.5 2.6-.7.5-.3 1.4-.3 2.4-.7z" style="fill:#f5a800"/><g style="opacity:.65"><path style="fill:#fff" d="m78.5 40.5-5.9 6m-.3-.4.1.1-.1-.1zm.3.3c-.1-.1-.2-.2-.3-.4.1.2.1.1.3.4-.1-.1-.2-.1-.2-.2v.1c.1.1.1.1.1 0 .1 0 .1 0 .1.1zm1.1-.6zm.6-.5s0 .1 0 0c0 .1 0 .1 0 0zm.3.1zm-.9.4zm-1.3.1zm1.2.2c0 .1 0 .1 0 0zm-.1.2-.2-.2c0 .1.1.1.2.2-.1 0-.1 0 0 0zm-.5.1zm.8-.4c0 .1 0 .1 0 0 0 .1 0 0 0 0zm3.9-5.9zm.9.5zm-3.7 4.8zm1.4-1.6c-.1-.1-.1-.2-.3-.3.1.1.2.3.3.3zm-3.9 2.1zm3.6-2.4zm-.8 1.5c0-.1 0-.1 0 0 0-.1 0-.1 0 0zm-.5.1c.1 0 0 0 0 0zm.5-.5s0 .1 0 0c0 0 0 .1 0 0zm.1-.1zm2-3.9.1.1-.1-.1zM72.5 46c-.1-.1-.1-.1 0 0-.1-.1-.1-.1 0 0-.1-.1-.1 0 0 0zm1.6-2.4c.1 0 .1 0 0 0zm2.2-1.9c-.1 0-.1 0 0 0zm-2.1 1.8c.1 0 .1.1.1.1l-.1-.1zm3.3-2.8s-.1 0 0 0c-.1 0 0 0 0 0z"/><path d="m77.3 40.3.3.3-.3-.3c0 .2.2.3.2.3l-.1-.1c.1.2 0 .1.1.3l.2.2s.1.1 0 0l-.1-.1v.1c-.2-.2 0-.1-.2-.2 0 .1.1.2.1.2-.2-.2 0-.1-.2-.2h.1l-.3-.2c-.1 0 0 .1 0 .1l.2.2c.1.2-.4-.4-.3-.1l.2.2-.2-.2s.2.3.1.2c-.1-.1 0-.1-.1-.1 0-.1.2.1.2.1l-.2-.2c0 .1.1.2.1.3L77 41c0 .1-.1.1-.3 0l.1.2-.1-.1c-.1 0 .1.1.1.1l-.1-.1c.1.1.2.3 0 .2-.1 0 .3.3.1.2-.1 0-.1.2-.3 0 .2.2-.1 0 .1.2-.2-.1-.2-.2-.3-.2l.2.2-.1-.1.1.2-.2-.2v.1l.1.1c0 .1-.2 0-.2-.1l.1.2-.1-.1c.1.2-.2-.1 0 0l.1.1c-.1-.1-.1 0-.1 0l-.2-.1c-.1 0 0 .1-.1.2.1 0 .2.2.2.2L76 42c.1.1.1 0 .2.2L76 42v.1l-.1-.1c.1.1-.2-.1 0 .1v.2l.2.2c-.1 0-.2-.1-.2 0s.1.1.2.2l-.2-.2v.2c.1 0 .1.1.1.1s-.1 0-.1-.1c.1.2-.5-.2-.3.1l.1.2-.2-.2c.2.2-.1 0 0 .2-.4-.3-.1.1-.3-.1l.1.1c.1.1-.1 0-.1 0l.1.1c0 .2-.3.1-.5.1-.1 0 .4.4.2.3l-.1-.2c.1.3-.1.1-.1.4l-.1-.1c-.1-.1-.1 0 0 .1l-.1-.1c-.1-.1.1.2 0 .1v-.1c0 .1-.1 0 .1.1-.1 0 0 .1-.1 0 .1.2-.1 0 .1.2-.2-.2-.2-.1-.1 0-.1-.1-.1-.1-.2-.1 0 0 0 .1.1.2-.3-.2.1.3-.2 0 .1.2.1.3.1.4-.2-.2 0-.1-.2-.3 0 .1.2.3.1.3l-.1-.1c0 .1-.1.1 0 .2v-.1.1c.2.1.3.3.3.4-.3-.3-.1 0-.4-.4l.1.1s-.1 0-.1-.1c0 .1.1.2.1.2l-.1-.1c.1.1.2.2.1.2l-.1-.1c0 .1.2.3 0 .3-.2-.2-.1-.1-.3-.2v.1l.1.1s.1.2 0 .1l-.1-.1v.1h.1c.1.1.2.2.1.2l-.1-.1c0 .1.1.1 0 .1l-.2-.2c.1.2 0 .1.1.3l-.1-.1.1.1s-.1 0-.1-.1l.1.1v-.1c-.1 0 0 .1-.1.1-.2-.2 0-.1-.2-.2 0 .1.1.3 0 .3.2.3-.2-.1-.1 0l-.1-.1c-.1 0 0 .1 0 .2l-.1-.1h-.1c.1.1 0 .1.1.2-.4-.3.1.3-.3 0v-.1.1c.1.1.1.1.2.1l.1.1-.2-.2.1.1.1.1-.1-.1.1.1c-.1-.1 0-.1-.1-.2 0 0 .2.3.1.2v-.1c-.2-.1-.1-.1-.2-.1h-.1c.3.3 0 .1.2.3l-.3-.3-.1-.1c.1.1-.1-.1 0 .1l-.1-.1c0 .1.1.1.1.1.1.2-.3-.1-.1.1.1.1.2.3.2.4l-.2-.2c-.1-.1-.1 0 0 0l-.1-.1.1.1c0-.1-.1-.1-.2-.2 0 .1.1.2.1.2l-.2-.2c0 .1 0 .1.1.2h.1l-.1-.1c-.1-.1.1 0 .1.1.3.3 0-.1 0-.1l.2.2-.1-.2c.1 0 .2.2.2.2.1.1-.1-.1.1 0V46l.1.1c.1.1-.1-.2.1-.1 0-.1-.1-.1-.3-.3l.4.3-.2.2.1.1c-.1-.1-.1-.1-.1-.2.1.1 0-.1.2.1L73 46c.2.2 0-.1.1 0s0 .1.2.2c-.2-.2.1 0 .1 0-.2-.2 0-.1-.1-.2.1.1.1 0 .2.1-.2-.2-.1-.2-.1-.2l.2.2-.1-.1.1.1s-.1-.2 0-.1c-.1-.1-.4-.3-.4-.4l.2.2s0-.1 0 0l.1.1c.1 0-.1-.1-.1-.1l.1.1s.1 0 .2.1l-.1-.1s.1.1.2.1c-.1-.1 0 0-.1-.2l.1.1c0-.1 0-.1-.1-.2-.1-.2.2 0 .1-.1 0-.1 0-.1-.1-.2 0 0 .1.1.2.1 0-.1-.1-.1 0-.1.1.1.1.1 0 .1.1 0 .1.1 0-.1.1.1.2.1.1.1l-.1-.1.1.2c.2.1-.2-.4.1-.1l-.2-.2.3.2c.1.1-.2-.3-.1-.2-.1-.1-.2-.2-.2-.3 0 0 .3.2.3.3 0 0 0 .1.1.1l-.1-.1c.1 0 .1 0 .2.1 0-.1-.1-.1-.1-.1.1.1 0 0 .1 0l-.1-.1c.1 0-.1-.1-.1-.2.1.1.2.2.2.1.1 0 .2.1.2.2-.1-.1.1 0 .1 0v.1l-.1-.1.1.1-.3-.3c.1 0 0-.1.1.1-.1 0 .2.1.1.2.2.1-.2-.2-.1-.2.1.1.2.1.2.1l-.2-.2c.1 0 0-.1 0-.1l-.1-.1c.1.1 0 .1.1.1-.1-.2.2.1.1 0 .1 0 .2.2.2.2-.1-.1.1.1.1 0 .1-.2.1-.1 0-.3v.1l-.1-.2v.1c-.1-.1-.1-.1-.1-.2.2.1-.1-.1.1 0l.2.3c.2.1-.1-.2 0-.2h-.1c-.1-.1 0 0 0-.1l.2.2c-.1-.1 0 0-.1-.2l.1.1c.1 0-.2-.3-.2-.3.1.1.2.2.2.3v-.1c.1.1-.1-.2 0-.1l-.1-.1s0-.1-.2-.2c.3.3.1-.1.3.1v-.1c.1.1-.2-.3-.1-.2.2.1.1.1.1.1.3.3 0-.1.2.1.1.1-.1-.2 0-.2-.1-.2-.2-.3-.2-.3l.2.2-.2-.2c.1.1.1.1.3.2.2.2 0 0 .1 0l.1.1c0-.1-.2-.2-.1-.3l-.1-.1c-.2-.2.1.1 0-.1l.2.2c0-.1-.1-.2-.1-.3.1.1.2.2.2.3 0 0 0-.1-.1-.2 0 0 .1.1 0 .1-.1-.2-.2-.3-.2-.3.4.4.2 0 .5.3-.1-.2.1 0 .2-.1l-.3-.3.2.1.1.1.2.2c-.1-.1-.1-.2-.1-.1l-.2-.1c-.1-.2.3.2.2 0l.1.1c0-.1.1-.1-.1-.3l.1.1c.1 0-.1-.3 0-.2l.1.1s-.1-.1 0-.1l.1.1s-.1-.1 0-.1l.1.1c.1 0-.1-.3-.1-.3.2.2.3.2.4.3.1 0-.1-.3-.1-.4.3.2.2 0 .4.1l-.2-.2c.1 0-.1-.2.1 0s.2.1.2.1l-.2-.2c.4.3 0-.3.3 0-.1-.1 0-.1-.1-.2l.1.1c.1 0 .1 0 .1-.1l.1.1s-.4-.4-.3-.4l.2.2s.2.1.1-.1l.1.1s.2.1-.1-.2c.2.2.1 0 0-.1l.1.1c-.1-.2-.2-.2-.2-.3l.1.1c.1 0-.1-.1 0-.1l.1.1s0-.1-.1-.2c0-.1.1 0 .2.1-.1-.1-.2-.2-.1-.2l.1.1c.1.1-.1-.2 0-.1l.1.1h-.1c.1.1.2.1.3.3 0 .1-.2-.1-.1-.1h.1c.1.1.1 0 .1 0l-.2-.2c-.1-.1-.1-.1 0-.1l-.2-.2c.2.2.3.2.4.3 0-.1 0-.1-.2-.4l.1.1v.1c0-.1 0-.1-.1-.3.1.1.1.2.1.1v.1c.3.2-.3-.5.1-.3l-.1-.1c.2.1 0-.3.3-.1.1 0 0-.1-.1-.2l.1.1.1.1c-.1-.2.4.3.2 0l-.1-.1s0-.1.1 0c0 0-.1-.1 0-.1l.1.1-.1-.2c.1 0 .3.3.3.3l-.2-.3s-.1 0-.1-.1v-.1c-.2-.2-.4-.5-.6-.6l.1.2H78c-.1-.1 0 0 0 .1l-.1-.1.2.2-.2-.2c.1.1.2.2.2.3l-.1-.1-.1-.1c.1.1 0 .1.1.2-.1-.1 0 .1-.2-.1 0 .1.1.2.1.2-.2-.3-.1 0-.3-.2.2.2 0 .2.1.3 0 0 0-.1 0 0 0 0-.1-.1-.2-.1.2.2.2.2.3.4l-.4-.4c.1.1.1.2.2.3-.1-.1-.1 0-.2-.2.2.2 0 .1.2.2-.1-.1-.2-.2-.2-.1 0-.3-.1-.4-.1-.4zm-.1.9zm-.1.1s0-.1 0 0c.1 0 .1.1.1.1 0-.1 0-.1-.1-.1zm1 .8c0-.1 0-.1 0 0 0-.1 0-.1 0 0 0-.1 0-.1 0 0z" style="fill:#fff"/><path d="M78 41.9c-.1 0-.1-.1 0 0-.1 0-.1 0 0 0zm-4.3 3.9zm2.5-4.2.1.1v-.1zm-3.2 4c0-.1 0-.1 0 0 0-.1 0-.1 0 0zm-.1 0c-.1 0-.1 0 0 0zm-.2.1s.1 0 0 0c.1 0 .1 0 0 0zm1.2-1.5c-.1 0-.1 0 0 0zm-.1.7s-.1-.1 0 0c-.1-.1-.1-.1 0 0zm.3-1.3zm-.3 1.2c-.1 0-.1 0 0 0-.1 0 0 0 0 0zM72.3 46zm0 0zm0 0zm.2-.1c-.1 0-.1 0 0 0zm0 0s-.1-.1-.1 0h.1c-.1-.1.1 0 0 0zm.7.4.1.1c.2.1-.1-.1-.1-.1zm.2 0 .1.1-.1-.1zm.6-.6.1.1s0-.1-.1-.1zm-.5-.8h-.1l.1.1zm.9.8zm1-1.1-.2-.1c.1 0 .2.2.2.1zm.3-.6c.1.1.2.1 0 0 .1.1 0 0 0 0zm1.6-1.1v.1-.1z" style="fill:#fff"/></g><g style="opacity:.65"><path style="fill:#fff" d="m80.8 42.7-6 6m-.3-.3.1.1-.1-.1zm.4.2c-.1-.1-.2-.2-.3-.4.1.2 0 .1.3.4-.1-.1-.2-.1-.2-.2v.1c.1.1.1.1.1 0 0 0 0 .1.1.1zm1-.6zm.7-.4zm.2 0c0 .1 0 .1 0 0zm-.9.4c.1 0 .1 0 0 0zm-1.3.1c0 .1 0 0 0 0zm1.2.3c.1 0 .1 0 0 0zm-.1.2-.2-.2c.1 0 .1.1.2.2-.1-.1-.1-.1 0 0zm-.5 0zm.8-.3zm3.9-6c.1 0 .1.1 0 0 .1 0 .1 0 0 0zm.9.5s.1 0 0 0zm-3.7 4.8c0 .1 0 .1 0 0zm1.4-1.5c-.1-.1-.1-.2-.3-.3.1 0 .2.2.3.3zm-3.9 2zm3.7-2.3zm-.9 1.4zm-.4.1zm.4-.4zm.1-.2zm2.1-3.8.1.1c-.1-.1-.1-.2-.1-.1zm-4.9 5.3c-.1 0-.1-.1 0 0-.1-.1-.1-.1 0 0zm1.7-2.4zm2.1-1.8c0-.1 0-.1 0 0zm-2 1.7c.1 0 .1.1.1.1l-.1-.1zm3.2-2.7z"/><path d="m79.5 42.5.3.3c0 .1-.2-.1-.3-.3 0 .2.2.3.2.3l-.1-.1c.1.2 0 .1.1.3l.2.2s.1.1 0 0l-.1-.1v.1c-.2-.2 0-.1-.2-.2 0 .1.1.2.1.2-.2-.2 0-.1-.2-.2h.1l-.3-.2c-.1 0 0 .1 0 .1l.2.2c.1.2-.4-.4-.3-.1l.2.2-.1-.2s.2.3.1.2c-.1-.1 0-.1-.1-.1-.2-.1.1.1.1.1l-.2-.2c0 .1.1.2.1.3l-.1-.1c0 .1-.1.1-.3 0l.1.2-.1-.1c-.1 0 .1.1.1.1l-.1-.1c.1.1.2.3 0 .2-.1 0 .3.3.1.2-.1 0-.1.2-.3 0 .2.2-.1 0 .1.2-.2-.1-.2-.2-.3-.2l.2.2-.1-.1.1.2-.2-.2v.1l.1.1c0 .1-.2 0-.2-.1l.1.2c-.1-.1-.1-.1-.2-.1.1.2-.2-.1 0 0l.1.1c-.1-.1-.1 0-.1 0l-.1-.1c-.1 0 0 .1-.1.2.1 0 .2.2.2.2l-.2-.1c.1.1.1 0 .2.2l-.2-.2v.1l-.1-.1c.1.1-.2-.1 0 .1v.2l.2.2c-.1 0-.2-.1-.2 0s.1.1.2.2l-.2-.2v.2c.1 0 .1.1.1.1s-.1 0-.1-.1c.1.2-.5-.2-.3.1l.1.2-.2-.2c.2.2-.1 0 0 .2-.4-.3-.1.1-.3-.1l.1.1c.1.1-.1 0-.1 0l.1.1c0 .2-.3.1-.5.1-.1 0 .4.4.2.3l-.1-.2c.1.3-.1.1-.1.4l-.1-.1c-.1-.1-.1 0 0 .1l-.1-.1c-.1-.1.1.2 0 .1v-.1c0 .1-.1 0 .1.1-.1 0 0 .1-.1 0 .1.2-.1 0 .1.2-.2-.2-.2-.1-.1 0-.1-.1-.1-.1-.2-.1 0 0 0 .1.1.2-.3-.2.1.3-.2 0 .1.2.1.3.1.4-.2-.2 0-.1-.2-.3 0 .1.2.3.1.3l-.1-.1c0 .1-.1.1 0 .2v-.1.1c.2.1.3.3.3.4-.3-.3-.1 0-.4-.4l.1.1s-.1 0-.1-.1c0 .1.1.2.1.2l-.1-.1c.1.1.2.2.1.2l-.1-.1c0 .1.2.3 0 .3-.2-.2-.1-.1-.3-.2v.1l.1.1s.1.2 0 .1l-.1-.1v.1h.1c.1.1.2.2.1.2l-.1-.1c0 .1.1.1 0 .1 0-.4-.1-.6-.2-.6.1.2 0 .1.1.3l-.1-.1.1.1s-.1 0-.1-.1l.1.1v-.1c-.1 0 0 .1-.1.1-.2-.2 0-.1-.2-.2 0 .1.1.3 0 .3.2.3-.2-.1-.1 0l-.1-.1c-.1 0 0 .1 0 .2l-.1-.1h-.1c.1.1 0 .1.1.2-.4-.3.1.3-.3 0v-.1.1c.1.1.1.1.2.1l.1.1-.2-.2.1.1.1.1v.2l.1.1c-.1-.1 0-.1-.1-.2 0 0 .2.3.1.2V48c-.2-.1-.1-.1-.2-.1h-.1c.3.3 0 .1.2.3l-.3-.3-.1-.1c.1.1-.1-.1 0 .1l-.1-.1c0 .1.1.1.1.1.1.2-.3-.1-.1.1.1.1.2.3.2.4l-.2-.2c-.1-.1-.1 0 0 0l-.1-.1.1.1c0-.1-.1-.1-.2-.2 0 .1.1.2.1.2l-.2-.2c0 .1 0 .1.1.2h.1l-.1-.1c-.1-.1.1 0 .1.1.3.3 0-.1 0-.1l.2.2-.1-.2c.1 0 .2.2.2.2.1.1-.1-.1.1 0v-.1l.1.1c.1.1-.1-.2.1-.1 0-.1-.1-.1-.3-.3l.4.3-.1-.1.1.1c-.1-.1-.1-.1-.1-.2.1.1 0-.1.2.1l-.2-.2c.2.2 0-.1.1 0s0 .1.2.2c-.2-.2.1 0 .1 0-.2-.2 0-.1-.1-.2.1.1.1 0 .2.1-.2-.2-.1-.2-.1-.2l.2.2-.1-.1.1.1s-.1-.2 0-.1c-.1-.1-.4-.3-.4-.4l.2.2s0-.1 0 0l.1.1c.1 0-.1-.1-.1-.1l.1.1s.1 0 .2.1l-.1-.1s.1.1.2.1c-.1-.1 0 0-.1-.2l.1.1c0-.1 0-.1-.1-.2-.1-.2.2 0 .1-.1 0-.1 0-.1-.1-.2 0 0 .1.1.2.1 0-.1-.1-.1 0-.1.1.1.1.1 0 .1.1 0 .1.1 0-.1.1.1.2.1.1.1l-.1-.1.1.2c.2.1-.2-.4.1-.1l-.2-.2.3.2c.1.1-.2-.3-.1-.2-.1-.1-.2-.2-.2-.3 0 0 .3.2.3.3 0 0 0 .1.1.1l-.1-.1c.1 0 .1 0 .2.1 0-.1-.1-.1-.1-.1.1.1 0 0 .1 0l-.1-.1c.1 0-.1-.1-.1-.2.1.1.2.2.2.1.1 0 .2.1.2.2-.1-.1.1 0 .1 0v.4l.1.1-.3-.3c.1 0 0-.1.1.1-.1 0 .2.1.1.2.2.1-.2-.2-.1-.2.1.1.2.1.2.1l-.2-.2c.1 0 0-.1 0-.1l-.1-.1c.1.1 0 .1.1.1-.1-.2.2.1.1 0 .1 0 .2.2.2.2-.1-.1.1.1.1 0l-.2-.2v.1l-.1-.3v.1c0-.1 0-.1-.1-.2.2.1-.1-.1.1 0l.3.3c.2.1-.1-.2 0-.2h-.1c-.1-.1 0 0 0-.1l.2.2c-.1-.1 0 0-.1-.2l.1.1c.1 0-.2-.3-.2-.3.1.1.2.2.2.3V47c.1.1-.1-.2 0-.1l-.1-.1s0-.1-.2-.2c.3.3.1-.1.3.1v-.1c.1.1-.2-.3-.1-.2.2.1.1.1.1.1.3.3 0-.1.2.1.1.1-.1-.2 0-.2-.1-.2-.2-.3-.2-.3l.2.2-.2-.2c.1.1.1.1.3.2.2.2 0 0 .1 0l.1.1c0-.1-.2-.2-.1-.3l-.1-.1c-.2-.2.1.1 0-.1l.2.2c0-.1-.1-.2-.1-.3.1.1.2.2.2.3 0 0 0-.1-.1-.2 0 0 .1.1 0 .1-.1-.2-.2-.3-.2-.3.4.4.2 0 .5.3-.1-.2.1 0 .2-.1l-.3-.3.2.1.1.1.2.2c-.1-.1-.1-.2-.1-.1l.1.1c-.1-.2.3.2.2 0l.1.1c0-.1.1-.1-.1-.3l.1.1c.1 0-.1-.3 0-.2l.1.1s-.1-.1 0-.1l.1.1s-.1-.1 0-.1l.1.1c.1 0-.1-.3-.1-.3.2.2.3.2.4.3.1 0-.1-.3-.1-.4.3.2.2 0 .4.1l-.2-.2c.1 0-.1-.2.1 0s.2.1.2.1l-.6-.4c.4.3 0-.3.3 0-.1-.1 0-.1-.1-.2l.1.1c.1 0 .1 0 .1-.1l.1.1s-.4-.4-.3-.4l.2.2s.2.1.1-.1l.1.1s.2.1-.1-.2c.2.2.1 0 0-.1l.1.1c-.1-.2-.2-.2-.2-.3l.1.1c.1 0-.1-.1 0-.1l.1.1s0-.1-.1-.2c0-.1.1 0 .2.1-.1-.1-.2-.2-.1-.2l.1.1c.1.1-.1-.2 0-.1l.1.1H80c.1.1.2.1.3.3-.1-.1-.2-.3-.2-.3h.1c.1.1.1 0 .1 0l-.2-.2c-.1-.1-.1-.1 0-.1l-.2-.2c.2.2.3.2.4.3 0-.1 0-.1-.2-.4l.1.1v.1c0-.1 0-.1-.1-.3.1.1.1.2.1.1v.1c.3.2-.3-.5.1-.3l-.1-.1c.2.1 0-.3.3-.1.1 0 0-.1-.1-.2l.1.1-.1-.2c-.1-.2.4.3.2 0l-.1-.1s0-.1.1 0c0 0-.1-.1 0-.1l.1.1.1.3c.1 0 .3.3.3.3l-.2-.3s-.1 0-.1-.1v-.1c-.2-.2-.4-.5-.6-.6l.1.2-.1-.1c-.1-.1 0 0 0 .1l-.1-.1.2.2-.2-.2c.1.1.2.2.2.3l-.1-.1-.1-.1c.1.1 0 .1.1.2-.1-.1 0 .1-.2-.1 0 .1.1.2.1.2-.2-.3-.1 0-.3-.2.2.2 0 .2.1.3 0 0 0-.1 0 0 0 0-.1-.1-.2-.1.2.2.2.2.3.4l-.4-.4c.1.1.1.2.2.3-.1-.1-.1 0-.2-.2.2.2 0 .1.2.2-.1-.1-.2-.2-.2-.1 0-.3-.1-.4-.1-.4zm-.1.9zm-.1.1c.1 0 .1 0 0 0 .1 0 .1.1.1.1 0-.1 0-.1-.1-.1zm1 .8c.1 0 0 0 0 0 0-.1 0-.1 0 0 0-.1 0 0 0 0zm-.1-.2zM75.9 48zm2.6-4.1zm-3.3 3.9zm-.1.1zm-.2 0c.1 0 .1 0 0 0 .1 0 .1 0 0 0zm1.2-1.5z" style="fill:#fff"/><path d="M76 47.1c-.1-.1-.1-.1 0 0zm.4-1.3zM76 47c-.1 0-.1 0 0 0zm-1.5 1.2zm0 0zm.1.1c-.1-.1-.1-.1 0 0zm.1-.2zm0 0s-.1-.1-.1 0h.1c-.1-.1.1.1 0 0zm.7.4.1.1-.1-.1zm.2 0 .1.1-.1-.1zm.6-.6.1.1-.1-.1zm-.5-.7-.1-.1.1.1zm.9.7v.1-.1zm1-1-.2-.1c.1-.1.3.1.2.1zm.3-.6c.1 0 .2.1 0 0 .1 0 0-.1 0 0zm1.6-1.2.1.1-.1-.1z" style="fill:#fff"/></g><g style="opacity:.65"><path style="fill:#fff" d="m55.1 44.2-7-4.7m.3-.4s-.1.2-.1.1l.1-.1zm-.2.4c.1-.1.2-.2.3-.4-.1.2-.1.1-.2.3 0 0 0-.1.1-.1 0 0 0-.1-.1.1-.1.1-.1.2 0 .1 0-.1-.1-.1-.1 0zm.8.9zm.5.5s0 .1 0 0c0 .1 0 .1 0 0zm0 .3zm-.5-.8zm-.4-1.3s0 .1 0 0c0 .1 0 .1 0 0 0 .1 0 0 0 0zm0 1.3zm-.2-.1.2-.2c0 .1-.1.1-.1.1s-.1 0-.1.1zm-.1-.5c-.1 0 0 0 0 0zm.5.7c-.1 0-.1.1 0 0-.1.1-.1 0 0 0zm6.5 2.8zm-.3.9s0 .1 0 0zm-5.4-2.7zm1.8 1.1c.1-.2.2-.2.2-.3 0 0-.2.2-.2.3zm-2.8-3.4zm3 3.1zm-1.5-.6zm-.2-.4zm.5.3c0 .1 0 .1 0 0 0 .1 0 0 0 0 0 .1 0 .1 0 0zm.2.2c0-.1 0-.1 0 0 0-.1 0-.1 0 0zm4.1 1.2-.1.1c.1-.1.2-.1.1-.1zm-6.1-3.8zm2.6 1.2c0 .1 0 0 0 0zm2.2 1.8c.1-.1.1-.1 0 0zm-2.1-1.7c0 .1 0 .1-.1.1.1 0 .1 0 .1-.1zm3.3 2.6z"/><path d="M55.1 42.9s-.1.2-.2.3c-.1 0 0-.2.2-.3-.1.1-.3.2-.3.2l.1-.1c-.1.1-.1 0-.2.1V43c-.1.1-.1.2-.2.3 0 0-.1.1 0 0l.1-.1h-.1c.1-.2.1-.1.2-.2-.1 0-.2.2-.2.1.1-.2.1 0 .2-.2v.1l.2-.3c0-.1-.1.1-.1 0-.1.1-.1.2-.2.3-.2.1.3-.5.1-.3l-.2.2.2-.2s-.2.3-.2.1c.1-.1.1 0 .1-.1.1-.2-.1.1-.1.1l.1-.2c-.1 0-.2.1-.3.1 0-.1.1-.1.1-.2-.1.1-.1-.1-.1-.2l-.1.1s0-.1.1-.1c0-.1-.1.1-.1.2 0 0 0-.1.1-.1-.1.1-.3.2-.2 0 0-.1-.3.3-.2.1 0-.1-.2 0-.1-.3-.2.2 0-.1-.2.2.1-.2.1-.2.1-.4l-.2.2.1-.2-.1.2.1-.2s0 .1-.1.1c-.1.1 0-.2.1-.2l-.2.1c0-.1.1-.1.1-.1-.1.1.1-.2 0 0l-.1.1c.1-.1 0-.1 0-.1l.1-.1c0-.1-.1 0-.2 0 0 .1-.2.3-.2.3l.1-.2c-.2.1-.1.1-.2.2 0 0 .1-.2.2-.3h-.1c0-.1.1-.1.1-.1-.1.1.1-.2-.1 0v-.1h-.2c-.1.2-.1.1-.2.2 0-.1.1-.2 0-.2l-.2.2c.1-.1 0-.2.1-.2-.1 0-.1 0-.2.1 0 .1 0 .1-.1.1 0 0 0-.1.1-.1-.2.2.1-.5-.1-.2l-.2.1s.1-.1.1-.2c-.2.2-.1-.1-.2 0 .2-.4-.1-.1 0-.3l-.1.1c-.1.1 0-.1 0-.1 0 .1 0 .1-.1.1-.2 0-.1-.3-.2-.4 0-.1-.4.5-.3.2l.1-.2c-.2.2-.2-.1-.4 0l.1-.1c.1-.1-.1 0-.1.1 0 0 .1-.1.1-.2s-.2.1-.1 0l-.1.1c0-.1-.1 0-.1-.1-.1.2 0-.1-.2.1.2-.2.1-.2 0-.1.1-.1 0-.1.1-.2 0 0-.1 0-.2.2.2-.3-.2.2 0-.2-.2.1-.3.1-.4.2.2-.2.1 0 .2-.2-.1.1-.3.3-.3.2l.1-.1c-.1.1-.1-.1-.2 0l.1-.1s0-.1-.1.1-.3.3-.3.4c.2-.3 0-.1.3-.5l-.1.1s0-.1.1-.2c-.1 0-.1.2-.2.1 0-.1.1-.1.1-.1-.1.1-.2.2-.2.1 0 0 0-.1.1-.1-.1 0-.3.2-.2.1.2-.2 0-.1.2-.3h-.1l-.1.1s-.1.1-.1 0l.1-.1h-.1v.1c-.1.1-.2.3-.2.2v-.1l-.1.1c0-.1.2-.2.2-.3-.1.2-.1 0-.2.2 0 0 .1-.1.1-.2l-.1.1c0-.1 0-.1.1-.2 0 0-.2.3-.1.1 0-.1-.1 0-.1-.1.1-.2.1 0 .2-.2-.1 0-.3.2-.3.1-.2.3.1-.2-.1 0 0 0 .1-.2.1-.1 0-.1-.1 0-.2.1l.1-.1v-.1c-.1.1-.1 0-.1.2.2-.5-.3.1-.1-.2l.1-.1h-.1c-.1.1 0 .1-.1.2.5.1.4.2.4.2.1-.1.1-.2.2-.3l-.1.1c.1-.2-.2.3-.1.1v-.1l-.1.1c.1-.1.1-.1.1-.2 0 0-.2.3-.1.1l.1-.1c.1-.2.1-.1.1-.2v-.1.1c-.3.4-.1 0-.3.3.2-.2.1-.1.2-.3 0-.1 0-.1.1-.2-.1.1 0-.1-.1.1 0-.1 0 0 .1-.1 0 0-.1.1-.1.2-.2.2.1-.3-.1-.1-.1.1-.2.3-.3.3 0-.1.1-.2.1-.2 0-.1 0-.1-.1 0l.1-.1s-.1.2-.1.1.1-.1.2-.2c-.1 0-.1.1-.2.2l.2-.2s-.1 0-.2.2v.1s.1-.1.1-.2c.1-.1 0 .1 0 .1-.2.3.1 0 .1 0l-.2.2.2-.2c0 .1-.1.2-.2.2-.1.1.1-.1 0 .1l.1-.1s-.1.2-.1.1c-.1.2.2-.1.1 0 .1 0 .1-.2.3-.3l-.6.5.1-.2v.1c.1-.1 0-.1.1-.2-.1.2.1 0-.1.2.1-.1 0-.1.1-.2-.2.3.1 0 0 .1s-.1.1-.1.2c.2-.2 0 .1.1 0 .1-.2.1-.1.2-.1v.2c.1-.2.1-.1.2-.2-.1.1-.1.2-.2.2 0-.1.1-.1.1-.1l-.1.1s.2-.1.1 0c.1-.1.2-.4.3-.5 0 .1-.1.2-.2.2 0 0 .1-.1 0 0l-.1.1c0 .1.1-.1.1-.1-.1.1 0 .1-.1.2 0 0 0-.1 0 0 0 0 0 .1-.1.2 0-.1.1-.1.1-.2 0 0-.1.1-.1.2l.1-.1s0 .1-.1.1c.1-.1.1 0 .2-.2.2-.1 0 .2.1.1v.1c.1 0 .1 0 .2-.1 0 0 0 .1-.1.2 0 0 .1-.1.1 0-.1.1 0 .1-.1.1 0 .1-.1.2.1 0-.1.1-.1.2-.1.2v-.1.5c-.1.3.3-.3.1.1.1-.1 0-.1.1-.2l-.1.3c0 .1.2-.2.2-.2 0-.1.2-.2.2-.3l-.2.3s-.1 0-.1.1V41c0 .1 0 .1-.1.2.1 0 .1-.1.1-.1v.1l.1-.1c0 .1.1-.1.2-.1 0 .1-.2.2-.1.2 0 .1-.1.2-.2.2.1-.1 0 .1 0 .2h-.1l.1-.1v.1c.1-.1.1-.2.2-.3 0 .1.1 0 0 .1 0-.1-.1.2-.2.2-.1.2.1-.2.2-.2-.1.1-.1.2-.1.2s.1-.2.2-.2c0 .1.1 0 .1 0l.1-.1c0 .1-.1 0-.1.1.1-.2-.1.2 0 .1 0 .1-.1.2-.1.2.1-.1-.1.2 0 .1l.2-.2-.1.1.2-.2s-.1.1-.1 0c.1-.1.1-.1.1-.2-.1.2.1-.1.1.1v.2c-.1.2.2-.1.2 0v-.1c.1-.1 0 0 .1 0-.1.1-.1.2-.1.2l.2-.2-.1.2c0 .1.2-.3.3-.2-.1.1-.1.2-.2.3h.1c0 .1.1-.1.1 0 0 0 .1-.2.1-.1v.1c0-.1.1-.1.1-.2-.2.4.1 0 0 .4h.1s0 .1 0 0c0 .1.2-.3.2-.2-.1.2-.1.1-.1.2-.2.4.1 0 0 .2-.1.1.1-.1.2-.1v.1c.1-.2.2-.2.3-.2-.5-.1-.5-.2-.5-.1 0 0 .1-.2.2-.3 0 .1-.1.2-.2.3-.1.2 0 0 0 .1l-.1.1c.1 0 .2-.2.2-.2v-.1c.2-.2-.1.1.1 0l-.1.2c.1 0 .2-.2.2-.2l-.3.3s.1 0 .1-.1c0 0-.1.1 0 0 .1-.2.2-.2.2-.2-.3.4 0 .2-.2.5.2-.1.1.1.1.2l.2-.3-.1.2-.1.1s-.1.2-.1.3c.1-.1.1-.2.1-.1l.1-.2c.2-.1-.2.3 0 .2l-.1.1c.1 0 .1.1.3-.2 0 0-.1.1-.1.2s.3-.2.2 0l-.1.1.1-.1-.1.1.1-.1.2.2c0 .1.2-.2.3-.2-.1.2-.1.3-.1.4 0 .1.2-.1.4-.2-.1.3 0 .2 0 .4 0 0 .1-.2.2-.2 0 .1.1-.1 0 .1l-.1.2.2-.3c-.2.5.2-.1 0 .3l.1-.1-.1.2c0 .1 0 .1.1.1l-.1.1s.3-.4.4-.4l-.1.2s0 .3.1.1l-.1.1s0 .2.2-.1c-.1.2 0 .1.1 0l-.1.1.3-.3-.1.1c0 .1.1-.1.1 0l-.1.1.1-.1c.1-.1 0 .1-.1.2.1-.1.1-.2.1-.1s-.1.1-.1.1c0 .1.2-.1.1 0 0 .1 0 .1-.1.1v-.1c-.1.1-.1.2-.2.4.1-.1.3-.3.3-.2v.2c-.1.1 0 .1 0 .1.1-.2.1-.1.2-.3.1-.1.1-.1.1 0 .1-.1.1-.2.2-.2-.1.2-.2.4-.3.5.1-.1.1 0 .3-.3 0 0 0 .1-.1.1l-.1.1c.1-.1.1 0 .2-.2 0 .1-.1.2-.1.2v.1c-.1.4.5-.4.3 0v-.1c0 .2.3 0 .2.3 0 .1.1-.1.2-.1l-.1.2.2-.2c.1-.1-.2.4 0 .2l.1-.1s.1 0 0 .1c0 0 .1-.1.1 0l-.1.1.1-.1c0 .1-.2.3-.2.4l.3-.3s0-.1.1-.2c.2-.3.4-.5.4-.7l-.1.1.1-.1c.1-.1 0 0-.1 0 0-.1.1-.1.1-.1l-.2.2c.1-.1.1-.2.2-.3-.1.1-.1.2-.2.3.1-.1.1-.2 0-.1 0-.1.1-.1.1-.1-.1.1-.1 0-.2.1.1-.2-.1 0 .1-.2 0 .1-.2.2-.2.2.2-.3 0-.1.2-.4-.2.2-.1.1-.3.2 0 0 0-.1 0 0 0 0 0-.1.1-.2-.1.2-.2.2-.3.4.1-.2.2-.2.3-.4-.1.2-.2.1-.2.3.1-.1 0-.1.1-.3-.2.3 0 0-.2.2.1-.1.2-.3.1-.2.1-.4.2-.5.2-.5zm-1 0s.1 0 0 0c.1 0 0 0 0 0zm0 0c0 .1-.1.1-.1.1.1 0 .1 0 .1-.1zm-.6 1.1c0 .1 0 0 0 0zm.1-.1s0-.1 0 0c0-.1 0-.1 0 0 0-.1 0-.1 0 0zM49 40.4zm4.6 1.7-.1.1.1-.1zm-4.5-2.4s0-.1 0 0c0-.1 0 0 0 0zm-.1-.1c0-.1 0-.1 0 0zm-.1-.2s0 .1 0 0c0 .1 0 .1 0 0zm1.7.9c0-.1 0 0 0 0zm-.7 0c0-.1 0-.1 0 0zm1.3.1z" style="fill:#fff"/><path d="M50 40.3c0-.1 0-.1 0 0-.1 0-.1 0 0 0zm-1.4-1.2c-.1 0-.1 0 0 0zm-.1 0zm0 0zm.1.1c.1 0 .1 0 0 0zm.1 0s.1-.1 0-.1v.1c0-.1-.1.1 0 0zm-.3.8-.1.1c-.1.2.1-.1.1-.1zm0 .2-.1.1c.1 0 .1-.1.1-.1zm.8.5-.1.1.1-.1zm.6-.7-.1.1zm-.6 1.1zm1.2.8.1-.2-.1.2zm.7.2c-.1 0-.1.1 0 0 0 0 0-.1 0 0zm1.4 1.3-.1.1.1-.1z" style="fill:#fff"/></g><g style="opacity:.65"><path style="fill:#fff" d="m53.3 46.8-6.9-4.7m.2-.4s-.1.2-.1.1l.1-.1zm-.2.4c.1-.1.2-.2.3-.4-.1.2-.1.1-.2.3 0 0 0-.1.1-.1 0 0 0-.1-.1.1-.1.1-.1.2 0 .1 0-.1 0 0-.1 0zm.8.9zm.6.5c0 .1 0 .1 0 0 0 .1 0 .1 0 0zm-.1.3zm-.5-.8c.1 0 0 .1 0 0zm-.3-1.3c0 .1-.1.1 0 0-.1.1-.1.1 0 0 0 .1 0 .1 0 0zm0 1.3c-.1 0-.1 0 0 0zm-.3-.1.2-.2c0 .1-.1.1-.1.1l-.1.1zm-.1-.5zm.5.7c0 .1 0 .1 0 0 0 .1 0 .1 0 0zm6.6 2.8c-.1 0-.1 0 0 0-.1 0 0 0 0 0zm-.3.9s-.1.1 0 0zm-5.5-2.7c0 .1 0 .1 0 0zm1.8 1.1c.1-.2.2-.2.2-.3 0 .1-.1.2-.2.3zm-2.7-3.4zm3 3.1zm-1.6-.6zm-.2-.4zm.5.3c0 .1 0 .1 0 0 0 .1 0 .1 0 0 0 .1 0 .1 0 0zm.2.2s0-.1 0 0c0-.1 0-.1 0 0zm4.2 1.2-.1.1.1-.1zm-6.2-3.8s.1 0 0 0c.1 0 .1 0 0 0zm2.7 1.2c0 .1 0 .1 0 0zm2.2 1.8c0-.1 0-.1 0 0zm-2.1-1.7c0 .1 0 .1-.1.1l.1-.1zm3.3 2.6z"/><path d="M53.3 45.5s-.1.2-.2.3c-.1 0 .1-.1.2-.3-.1.1-.3.2-.3.2l.1-.1c-.1.1-.1 0-.2.1v-.1c-.1.1-.1.2-.2.3 0 0-.1.1 0 0l.1-.1h-.1c.1-.2.1-.1.2-.2-.1 0-.2.2-.2.1.1-.2.1 0 .2-.2v.1l.2-.3c0-.1-.1.1-.1 0-.1.1-.1.2-.2.3-.2.1.3-.5.1-.3l-.2.2.2-.2s-.2.3-.2.1c.1-.1.1 0 .1-.1.1-.2-.1.1-.1.1l.1-.2c-.1 0-.2.1-.3.1 0-.1.1-.1.1-.2-.1.1-.1-.1-.1-.2l-.1.1s0-.1.1-.1c0-.1-.1.1-.1.2 0 0 0-.1.1-.1-.1.1-.3.2-.2 0 0-.1-.3.3-.2.1 0-.1-.2 0-.1-.3-.2.2 0-.1-.2.2.1-.2.1-.2.1-.4l-.2.2.1-.2-.1.2.1-.2s0 .1-.1.1c-.1.1 0-.2.1-.2l-.2.1c0-.1.1-.1.1-.1-.1.1.1-.2 0 0l-.1.1c.1-.1 0-.1 0-.1l.1-.1c0-.1-.1 0-.2 0 0 .1-.2.3-.2.3l.1-.2c-.1.1 0 .1-.1.2 0 0 .1-.2.2-.3h-.1c0-.1.1-.1.1-.1-.1.1.1-.2-.1 0v-.1h-.2c-.1.2-.1.1-.2.2 0-.1.1-.2 0-.2l-.2.2c.1-.1 0-.2.1-.2-.1 0-.1 0-.2.1 0 .1 0 .1-.1.1 0 0 0-.1.1-.1-.2.2.1-.5-.1-.2l-.2.1s.1-.1.1-.2c-.2.2-.1-.1-.2 0 .2-.4-.1-.1 0-.3l-.1.1c-.1.1 0-.1 0-.1 0 .1 0 .1-.1.1-.2 0-.1-.3-.2-.4 0-.1-.4.5-.3.2l.1-.2c-.2.2-.2-.1-.4 0l.1-.1c.1-.1-.1 0-.1.1 0 0 .1-.1.1-.2s-.2.1-.1 0l-.1.1c0-.1-.1 0-.1-.1-.1.2 0-.1-.2.1.2-.2.1-.2 0-.1.1-.1 0-.1.1-.2 0 0-.1 0-.2.2.2-.3-.2.2 0-.2-.2.1-.3.1-.4.2.2-.2.1 0 .2-.2-.1.1-.3.3-.3.2l.1-.1c-.1.1-.1-.1-.2 0l.1-.1s0-.1-.1.1-.3.3-.3.4c.2-.3 0-.1.3-.5l-.1.1s0-.1.1-.2c-.1 0-.1.2-.2.1 0-.1.1-.1.1-.1-.1.1-.2.2-.2.1 0 0 0-.1.1-.1-.1 0-.3.2-.2.1.2-.2 0-.1.2-.3h-.1l-.1.1s-.1.1-.1 0l.1-.1h-.1v.1c-.1.1-.2.3-.2.2v-.1c.6.1.5.1.5.1 0-.1.2-.2.2-.3-.1.2-.1 0-.2.2 0 0 .1-.1.1-.2l-.1.2c0-.1 0-.1.1-.2 0 0-.2.3-.1.1 0-.1-.1 0-.1-.1.1-.2.1 0 .2-.2-.1 0-.3.2-.3.1-.2.3.1-.2-.1 0 0 0 .1-.2.1-.1 0-.1-.1 0-.2.1l.1-.1v-.1c-.1.1-.1 0-.1.2.2-.5-.3.1-.1-.2l.1-.1h-.1c-.1.1 0 .1-.1.2l-.1.1c.1-.1.1-.2.2-.3l-.1.1c.1-.2-.2.3-.1.1v-.1l-.1.1c.1-.1.1-.1.1-.2 0 0-.2.3-.1.1l.1-.1c.1-.2.1-.1.1-.2V42v.1c-.3.4-.1 0-.3.3.2-.2.1-.1.2-.3 0-.1 0-.1.1-.2-.1.1 0-.1-.1.1 0-.1 0 0 .1-.1 0 0-.1.1-.1.2-.2.2.1-.3-.1-.1-.1.1-.2.3-.3.3 0-.1.1-.2.1-.2 0-.1 0-.1-.1 0l.1-.1s-.1.2-.1.1.1-.1.2-.2c-.1 0-.1.1-.2.2l.2-.2s-.1 0-.2.2v.1s.1-.1.1-.2c.1-.1 0 .1 0 .1-.2.3.1 0 .1 0l-.2.2.2-.2c0 .1-.1.2-.2.2-.1.1.1-.1 0 .1l.1-.1s-.1.2-.1.1c-.1.2.2-.1.1 0 .1 0 .1-.2.3-.3l-.3.4.1-.2v.1c.1-.1 0-.1.1-.2-.1.2.1 0-.1.2.1-.1 0-.1.1-.2-.2.3.1 0 0 .1s-.1.1-.1.2c.2-.2 0 .1.1 0 .1-.2.1-.1.2-.1v.2c.1-.2.1-.1.2-.2-.1.1-.1.2-.2.2 0-.1.1-.1.1-.1l-.6.5s.2-.1.1 0c.1-.1.2-.4.3-.5 0 .1-.1.2-.2.2 0 0 .1-.1 0 0l-.1.1c0 .1.1-.1.1-.1-.1.1 0 .1-.1.2 0 0 0-.1 0 0 0 0 0 .1-.1.2 0-.1.1-.1.1-.2 0 0-.1.1-.1.2l.1-.1s0 .1-.1.1c.1-.1.1 0 .2-.2.2-.1 0 .2.1.1v.1c.1 0 .1 0 .2-.1 0 0 0 .1-.1.2 0 0 .1-.1.1 0-.1.1 0 .1-.1.1 0 .1-.1.2.1 0-.1.1-.1.2-.1.2v-.1l-.1.2c-.1.3.3-.3.1.1.1-.1 0-.1.1-.2l-.1.3c0 .1.2-.2.2-.2 0-.1.2-.2.2-.3l-.2.3s-.1 0-.1.1v-.1c0 .1 0 .1-.1.2.1 0 .1-.1.1-.1v.1l.1-.1c0 .1.1-.1.2-.1 0 .1-.2.2-.1.2 0 .1-.1.2-.2.2.1-.1 0 .1 0 .2h-.1l.1-.1v.1c.1-.1.1-.2.2-.3 0 .1.1 0 0 .1 0-.1-.1.2-.2.2.3.1.6-.2.6-.2-.1.1-.1.2-.1.2s.1-.2.2-.2c0 .1.1 0 .1 0l.1-.1c0 .1-.1 0-.1.1.1-.2-.1.2 0 .1 0 .1-.1.2-.1.2.1-.1-.1.2 0 .1l.2-.2-.1.1.2-.2s-.1.1-.1 0c.1-.1.1-.1.1-.2-.1.2.1-.1.1.1l-.2.3c-.1.2.2-.1.2 0v-.1c.1-.1 0 0 .1 0-.1.1-.1.2-.1.2l.2-.2-.1.2c0 .1.2-.3.3-.2-.1.1-.1.2-.2.3h.1c0 .1.1-.1.1 0 0 0 .1-.2.1-.1v.1c0-.1.1-.1.1-.2-.2.4.1 0 0 .4h.1s0 .1 0 0c0 .1.2-.3.2-.2-.4-.1-.4-.2-.4-.2-.2.4.1 0 0 .2-.1.1.1-.1.2-.1v.1c.1-.2.2-.2.3-.2l-.2.2s.1-.2.2-.3c0 .1-.1.2-.2.3-.1.2 0 0 0 .1l-.1.1c.1 0 .2-.2.2-.2v-.1c.2-.2-.1.1.1 0l-.1.2c.1 0 .2-.2.2-.2l-.3.3s.1 0 .1-.1c0 0-.1.1 0 0 .1-.2.2-.2.2-.2-.3.4 0 .2-.2.5.2-.1.1.1.1.2l.2-.3-.1.2-.1.1s-.1.2-.1.3c.1-.1.1-.2.1-.1l.1-.2c.2-.1-.2.3 0 .2l-.1.1c.1 0 .1.1.3-.2 0 0-.1.1-.1.2s.3-.2.2 0l.1.1.1-.1-.1.1.1-.1-.1.1c0 .1.2-.2.3-.2-.2.2-.2.3-.2.4 0 .1.2-.1.4-.2-.1.3 0 .2 0 .4 0 0 .1-.2.2-.2 0 .1.1-.1 0 .1l-.1.2.2-.3c-.2.5.2-.1 0 .3l.1-.1-.1.2c0 .1 0 .1.1.1l-.1.1s.3-.4.4-.4l-.1.2s0 .3.1.1l-.1.1s0 .2.2-.1c-.1.2 0 .1.1 0l-.1.1.3-.3-.1.1c0 .1.1-.1.1 0l-.1.1.1-.1c.1-.1 0 .1-.1.2.1-.1.1-.2.1-.1s-.1.1-.1.1c0 .1.2-.1.1 0 0 .1 0 .1-.1.1v-.1c-.1.1-.1.2-.2.4.1-.1.3-.3.3-.2v.2c-.1.1 0 .1 0 .1.1-.2.1-.1.2-.3.1-.1.1-.1.1 0 .1-.1.1-.2.2-.2-.1.2-.2.4-.3.5.1-.1.1 0 .3-.3 0 0 0 .1-.1.1l-.1.1c.1-.1.1 0 .2-.2 0 .1-.1.2-.1.2v.1c-.1.4.5-.4.3 0v-.1c0 .2.3 0 .2.3 0 .1.1-.1.2-.1l-.1.2.2-.2c.1-.1-.2.4 0 .2l.1-.1s.1 0 0 .1c0 0 .1-.1.1 0l-.1-.1.1-.1c0 .1-.2.3-.2.4l.3-.3s0-.1.1-.2c.2-.3.4-.5.4-.7l-.1.1.1-.1c.1-.1 0 0-.1 0 0-.1.1-.1.1-.1l-.2.2c.1-.1.1-.2.2-.3-.1.1-.1.2-.2.3.1-.1.1-.2 0-.1 0-.1.1-.1.1-.1-.1.1-.1 0-.2.1.1-.2-.1 0 .1-.2 0 .1-.2.2-.2.2.2-.3 0-.1.2-.4-.2.2-.1.1-.3.2 0 0 0-.1 0 0 0 0 0-.1.1-.2-.1.2-.2.2-.3.4.1-.2.2-.2.3-.4-.1.2-.2.1-.2.3.1-.1 0-.1.1-.3-.2.3 0 0-.2.2.1-.1.2-.3.1-.2.2-.1.3-.2.3-.2zm-.9 0zm-.1 0c0 .1-.1.1-.1.1.1 0 .1 0 .1-.1zm-.6 1.2s0-.1 0 0c0-.1 0-.1 0 0 .1-.1.1-.1 0 0 0-.1 0-.1 0 0zm.2-.2c0-.1 0-.1 0 0 0-.1 0-.1 0 0zM47.2 43c.1 0 0 0 0 0zm4.6 1.7v.1-.1zm-4.5-2.4zm-.1-.1c0-.1 0 0 0 0zm0-.2c-.1.1-.1.1 0 0-.1.1-.1.1 0 0zm1.6.9c.1 0 0 0 0 0z" style="fill:#fff"/><path d="M48.1 42.9s.1 0 0 0c.1 0 .1-.1 0 0zm1.3.1h.1zm-1.2-.1c0-.1 0 0 0 0zm-1.4-1.2zm0 0zm-.1 0c.1 0 .1 0 0 0zm.2.1zm0 0s.1-.1 0-.1v.1c.1-.1-.1.1 0 0zm-.3.8-.1.1c-.1.2.1-.1.1-.1zm.1.2-.1.1.1-.1zm.7.5-.1.1.1-.1zm.6-.6.1-.1-.1.1zm-.6 1h.1zm1.3.8.1-.2s-.2.2-.1.2zm.6.2c0 .1 0 .1 0 0 0 0 0-.1 0 0zm1.4 1.3v.1-.1z" style="fill:#fff"/></g><path d="M52.9 31.6s2.9-3.1 6.9-.9 3.4 8.1-.5 9.3c-3.9 1.2-6.5-.4-7.1-2.1s-1-4.7.7-6.3zm14.1.5s2.9-3.1 6.9-.9c3.9 2.2 3.4 8.1-.5 9.3-3.9 1.2-6.5-.4-7.1-2.1-.6-1.6-1-4.7.7-6.3z" style="fill:#fff"/><circle cx="57.6" cy="36.8" r="3.7"/><circle cx="71.5" cy="36.9" r="3.8"/><path d="M63.3 51.1c-3.4 0-3.4-2.6-3.4-2.7h.9-.4.4c0 .2.1 1.8 2.5 1.8 2.6 0 3.3-1.9 3.3-1.9l.8.3s-.8 2.5-4.1 2.5z" style="fill:#ef7937"/><path d="M83.6 68.1zm-.2-.1-.1.1s.1 0 .1-.1c0 0 0 .1 0 0l.1.1c0-.1-.1-.1-.1-.1zm-2.8-.3zm-1.7-.2zm-.3 0s0-.1 0 0zm2 .2zm2.4.4zm-1.6-.4zm.6 0c-.1 0-.1.1 0 0-.1.1-.1.1 0 0 0 .1 0 .1 0 0zm.9.2zm-1.9-.2zm-16.2-.9zm-.7-.3zm14 .8zm-4.9-.3c.1 0-.1 0 0 .1 0 0 .1-.1 0-.1zm9.8 1.1zm-9.8-1zm3.7.2zm.9.1zm-1.4-.1zm-.5 0zm-9.6-.4s-.1 0 0 0zM83 68.1zm-6.7-.4zm-6.5-.5zm6.2.5s0-.1 0 0zm-9.7-.9z" style="fill:#6594d9"/><path d="M65.7 66.9c.1 0 .1 0 0 0 .2-.1.1 0 .1 0 .1 0 .1-.1.1-.1h.3v-.1h.1c0 .1-.1 0-.1.1.1 0 .2-.1.2 0s-.1 0-.1.1h-.1c.1.1 0 0 0 .1h.2v-.1c.2 0 .1.2.2.1l.1-.1v.1c.1 0 .1-.1.2 0h-.1c.1.1.1 0 .1 0v.1h.4v.1c.2 0 .3 0 .5.1h.1c.1 0 0 0 0-.1.1 0 .3-.1.4 0 .1 0 .1-.1.2 0 .2 0 .4 0 .5.1 0-.1.2 0 .2-.1.1.1.1.1.2.1l.1-.1v.1l.1-.1v.1c.1 0 .2.1.2.1h.2-.1c.1 0 0 .1.1 0h.6v-.1.1-.1c.1 0 0 .1 0 .1h.1s.1.1.1 0h.3s.1 0 .1-.1c.1 0 .2.1.3.1.1 0 0 0 .1-.1 0 0 .1 0 0 .1h.4c.2-.1.4.2.5.1h.1c.1 0 0 0 0 .1.2-.1.2 0 .4 0 .1.1.3 0 .5.1h.1c.3 0 .6.1.9.1.1 0 .1-.2.2-.1v.1c.2-.1.4 0 .7 0h.2v.1h.4c0-.1.1 0 .2 0 0 .1.1.1.2 0v.1h.1c.1.1.2-.1.3.1.2 0 .3 0 .5-.1 0 .1-.2 0-.2.1.1 0 .2-.1.4-.1h.5c0-.1.1-.1.1-.1-.1.1.1 0 0 .2.1 0 .1-.1.1 0 0 0 .1-.1.2 0 .1 0 .2-.1.3 0v.1h.4-.1c.1 0 0-.1.1-.1h.2v.1c0-.1.1 0 .2-.1v.2c.1 0 0-.1.1 0h.3c0 .1-.1 0-.1.1.1 0 .3-.1.4 0 0-.1.1.1.2 0h.5s.1 0 0-.1c.2.1.3 0 .5.1h.1v-.1h.1c-.1 0 0 .1 0 .1.1.1 0-.1.1 0h.1v.1c.1 0 .1-.1.2 0h-.1c.1.1.1 0 .1.1h.1c.1-.1.1 0 .2-.1-.1.1 0 0 0 .1 0 0 .1 0 0 0h.1c.1 0 0 0 0-.1.1-.1.2.1.3 0 .1 0 .1-.1.2-.1v.1h.1s0-.1.1 0v.1s.1 0 .2-.1l-.1.1c.1 0 .1 0 .2-.1h-.1c0-.1-.1 0-.2 0v-.1l-.2-.4v-.1h-.2s0-.1 0 0h-.2c-.1 0 0 .1-.1.1l-.1-.1v.1c-.1 0 0 0 0 .1-.1-.1-.2 0-.2-.1 0 0 .1 0 0 .1 0-.1-.1 0-.1 0s.1 0 0-.1c0 .1-.1 0-.2 0 0 .1-.1 0-.2 0 0 0-.1 0-.2-.1 0 .1-.1 0-.2.1v-.1h-.4s.1.1 0 .2V68h-.1v-.1s-.1 0-.1-.1c-.1 0 0 0-.1-.1h-.1s-.2 0-.1.1h-.6v-.1h-.1.1-.2s0-.1-.1 0h-.1v-.1c-.1-.1-.3.1-.4 0 0 0 .1 0 0 .1-.1 0-.1-.1-.1-.1-.1 0-.1.1-.2 0 0 0 0 .1-.1.1s-.1-.1 0-.1c0 0 .1 0 0 0 0 0-.1 0-.1-.1-.1 0 0 0 0 0h-.3s0-.1-.1-.1 0-.1 0-.1h-.3v.1h-.1c.1 0 0-.1.1-.1h-.1c-.1-.1-.1.1-.2 0v-.1.1h-.2c-.1.1-.1-.1-.2 0v-.1h-.2v.1h.1l-.1.1h.1v.1c-.1-.1-.1 0-.2 0v-.1c-.1-.1-.2 0-.3 0h-.1v-.1s-.1 0-.1.1h-.1c-.1 0-.1.1-.2.1 0 0 0-.1.1-.1h-.3s-.1 0 0 .1c-.1-.1-.3 0-.4-.1h-.2c-.1 0-.1.1-.2.1 0-.1.1 0 0 0 0-.1-.1 0-.2-.1h-.2c-.1.1-.2.1-.3.1v-.1s0 .1-.1.1l-.1-.1h.1c0-.1-.1 0-.1 0-.1 0-.1.1-.2.1-.1.1-.1 0-.1 0v-.1l-.2.1s.1-.1.2-.1h-.2.1c-.1.1-.1.1-.2.1 0-.1-.2-.1-.3-.2h-.5c.1.1-.1 0 0 .1h-.1l.6-.4c-.1 0 0 0-.1-.1 0 0 0 .1-.1 0l.1.1c-.1 0-.1-.1-.2-.1s-.2 0-.3.1c-.1 0-.3.1-.5 0h-.2c-.1 0-.2.1-.4.1 0-.1-.1-.1-.2-.1-.2 0-.3 0-.5.1-.1-.1-.3-.1-.5-.1v.1h-.1c0-.1-.1-.1-.2-.1v.1c-.1-.1-.4 0-.5-.1H69c-.1 0-.1.1-.2.1V67c-.1 0-.2-.1-.4 0-.1 0-.2-.1-.2 0 0-.1-.1 0-.2 0l-.1.1h-.2s-.1 0-.1-.1c0 0-.1.1-.1 0h-.2.1s-.1-.1 0-.1c-.1 0-.2.1-.2.1H67v.1h.1-.1s0 .1-.1.1c0-.1-.1-.1-.1-.2-.1 0-.3 0-.3.1h.1c-.1 0-.2 0-.2.1-.1 0 0-.1-.1-.1-.2-.1-.4.1-.6 0-.3-.1-.5 0-.8-.1h-.1v-.1l.2-.4c-.1 0-.2-.1-.3-.1h-.2c-.1 0 0-.1-.1-.1s-.2.1-.1.1c0 0 .1 0 0 0 0 .1-.1.2 0 .2h.1-.1.1l.1-.1v.1-.1s0 .1.1 0h.1s.1 0 .1.1l.1-.1c-.1.1.1 0 .1.1.1-.1.2 0 .3-.1 0 0 .1 0 .1.1 0-.1.1-.1.1-.1.1.1 0 .1 0 .1 0-.1.1 0 .1-.1l.1.1c0-.1 0 0 .1-.1l-.1.4c.1 0 0 0 0 0zm1.8 0zm.1 0zm-.2-.3zm-.1 0zm13.3 1.1zm-10.9-.5h-.1zm11.7.7s0 .1 0 0c0 .1 0 0 0 0zm.4.1zm.3 0zm-4.3-.2c-.1 0-.1 0 0 0z" style="fill:#6594d9"/><path d="M79.1 67.7c-.1 0-.1.1 0 0-.1.1-.1.1 0 0zm-2.8 0zm2.6.1c.1 0 .1 0 0 0 .1 0 .1-.1 0 0zm4.3.3zm0 0zm.1 0zm-.4 0zm-.1 0h.1-.1zm-.5-.3c.1 0 .1 0 0 0 0-.1.1 0 0 0zm-.3 0c.1 0 0 0 0 0zm-2-.2zm-.4.2v.1l.1-.1zm-.2-.3h-.1zm-3.4-.3c0 .1 0 0 0 0zm-1.5 0s-.1-.1 0 0zm-4.4-.4v-.1.1zm3.7-4.8s0-.1 0 0zm-.1-.1s0 .1.1.1l-.1-.1s.1 0 0 0c.1 0 .1.1 0 0zm-.6.3zm-.4.1zm-.1 0c.1 0 0 0 0 0zm.5-.1zm.6-.1zm-.5-.1zm.1 0s.1 0 0 0c.1 0 .1 0 0 0 .1 0 .1 0 0 0zm.3-.1zm-.5.2zm-3.2 2.1zm-.2-.2h-.1zm2.8-1.7zm-1 .6c0 .1 0 0 0 0zm2.2-.8zm-2.2.9h.1zm.8-.5zm.2-.1zm-.3.2zm-.1.1zM70.2 64zm3.5-2c0 .1 0 .1 0 0 0 .1 0 0 0 0zm-1.3.9c0 .1 0 .1 0 0zm-1.4.7zm1.3-.6zm-2.1.9zm-.1.2c.1 0 0-.1 0 0 0-.1 0-.1 0 0V64c.1 0 .1 0 0 .1 0-.1.1-.1 0-.2v-.1.1-.1.1c.1.1 0 0 0 .1v-.1c0-.1.1.1.1 0v-.1.1-.1.1-.1h.1v-.2s0-.1.1-.1v-.1s.1-.1.1 0c0-.1.1 0 0-.1 0 0 0 .1.1.1v-.2.1h.1v-.1c0-.1 0 0 0 0h.1l.1-.1v-.2.1l.1-.1v-.1h.1v-.1.1-.1c0-.1.1.1.1 0v-.1.1c0-.1.1 0 .1-.1.1.1.1 0 .1 0 0-.1.1 0 .2 0 0 0-.1-.2 0-.1v.1c0-.1.1 0 .1-.1 0 0 0-.1 0 0v-.2c0 .1.1 0 .1 0v-.1c.1.1 0-.1.1 0 0-.1 0-.1.1-.1v.1-.1s.1 0 .1-.1v-.1c0 .1 0 0 .1.1v-.3c0 .1 0 0 .1.1 0 0 0-.1 0 0v-.1.1-.2h.1v.1s0-.1.1-.1c0-.1 0 0 0 0v-.1h.1v-.1c.1.1 0-.1.1 0 0 0 0 .1.1.1.1.1 0-.1 0 0v.1-.2.1c0-.1.1 0 .1 0v-.1.1s0-.1 0 0v.1-.1.1-.1c-.1-.1 0 0 0 0v-.1.1-.1s0 .1 0 0v.1l-.1-.1v.1h-.1v.1c-.1-.1 0 0 0 0v-.1c0 .1 0 0 0 0v.1h-.1v.1-.1s0 .1 0 0l.1.1v-.1.2c0 .1-.1 0-.1 0v.1-.1c-.1 0 0 .1-.1 0v.1l-.1-.1v.2l-.1-.1h-.1v.1s0-.1 0 0v-.1h-.1v.1-.1.2c0 .1-.1 0 0 0V62v.3-.1s0 .1-.1.1v-.1.2-.1s0 .1 0 0v.1c-.1-.1-.1 0-.1 0v.1c-.1-.1 0 0-.1 0v.2-.1.1l-.1-.1c0-.1 0 0 0 0v.1c0 .1 0 0 0 0v-.1.1-.1.2c-.1-.1-.1 0-.1-.1 0 .1-.1 0-.1 0 .1.1 0 0 0 .1h-.1l-.1-.1s0 .1 0 0c0 .1-.1-.1-.1 0v.1s0 .1-.1.1v.1c0-.1-.1-.1-.1-.1s0 .1-.1.1c-.1-.1-.1 0-.1 0v.1s0 .1 0 0 0 0-.1 0v.1c-.1-.1-.1.1-.1 0v.1h-.1v.1-.1h-.1s-.1 0 0 .1c0-.1 0 0 0 0v.2h-.1v.1s0 .1 0 0l-.1-.1v.3c0-.1-.1-.1-.1-.1v.2s0-.1 0 0c-.1-.1 0 .2-.1.1-.1 0-.1.1-.2.1v.2c0 .1-.1-.1-.1 0v.1l-.1-.1v.1c0 .1.1.1.1.2v-.2.1-.1s0 .1 0 0v-.1h.1v-.1c0 .1 0 0 .1.1v-.1c.1-.2.1-.2.2-.2-.1 0-.1-.1-.1-.1.1 0 0 .1.1.1-.1 0-.1 0-.1-.1.1 0 .1 0 .1.1 0-.1 0 0 0 0 0-.1 0 0 0 0zm.3-.3zm.1 0c-.1 0-.1-.1 0 0-.1-.1 0 0 0 0zm-.3-.3s.1 0 0 0c.1 0 .1 0 0 0zm.1.1v-.1zm2.8-1.4zm-2.2 1.4zm2.5-1.4zm0 0c.1 0 0 0 0 0zm.1 0zm-.8.5zm.2-.2zm-.5.4zm.5-.4zm.9-.5zm0 0zm0 0zm-.1.1zm0 0s-.1 0 0 0zm-.2-.1c0-.1-.1-.1 0 0-.1-.1 0-.1 0 0zm-.1 0s0-.1 0 0zm-.4.2c-.1 0 0 0 0 0zm0 .3v-.1zm-.2-.3zm-.7.4zm-.3.2zm-1 .4zm9.4-.9zm-.1-.1s0 .1.1.1c-.1 0-.1 0-.1-.1 0 .1 0 .1 0 0 0 .1.1.1 0 0 0 .1 0 0 0 0zm-.6.3zm-.3.2s0-.1 0 0c0-.1 0 0 0 0zm-.1-.1zm.4-.1zm.6-.1zm-.5 0h.1l-.1-.1zm.2-.1zm.2-.1zm-.4.2zm-2.8 2.2zm-.3-.1v-.1zm2.5-1.9zm-.9.7zm2-.9zm-1.9 1zm.6-.6zm.2 0zm-.3.1zm-.1.1zM77 64.4zm3.1-2zm-1.2.9zm-1.2.7zm1.2-.7s-.1 0 0 0c-.1 0-.1 0 0 0zM77 64.4zm0 .2c0-.1-.1-.1 0 0-.1-.2 0-.1 0 0v-.1.1-.3.1-.1.1c.1.1 0 0 0 .1v-.1c0-.1.1.1.1 0 0 0-.1-.1 0-.1v.1-.2h.1v-.1s0-.1.1-.1v-.1s.1-.1.1 0c0-.1.1 0 0-.1l.1.1v-.2.1h.1v-.1c0-.1 0 0 0 0l.1-.1s-.1-.1 0-.1v-.1.1s.1 0 0 0v-.2h.1v-.1.1-.1c0-.1.1.1.1 0v-.1.1c0-.1.1 0 0-.1.1.1.1 0 .1 0 0-.1.1 0 .2 0 0 0-.1-.1 0-.1v.1c0-.1.1-.1.1-.1s0-.1 0 0v-.1c0 .1.1 0 0 0v-.1c.1.1 0-.1.1 0v-.1.1-.1s.1 0 .1-.1c0 0 0-.1-.1-.1 0 .1 0 0 .1.1v-.3c0 .1 0 0 .1.1 0 0 0-.1 0 0v-.1.1-.1s0-.1 0 0h.1v.1-.1c0-.1 0 0 0 0v-.1c.1.1 0-.1.1 0 0 0 0 .1.1.1.1.1 0-.1 0 0v.1-.1c-.1-.1 0 0 0-.1v.1c0-.1.1 0 .1 0v-.1.1s0-.1 0 0v.1-.1.1-.1c-.1-.1 0 0 0 0v-.1.1-.1s0 .1 0 0v.1l-.1-.1v.1h-.1v.1c-.1-.1 0 0 0 0v-.1c0 .1 0 0 0 0v.1h-.1v.1-.1s0 .1 0 0l.1.1v-.1.2c0 .1-.1 0-.1 0v.1-.1c-.1 0 0 .1-.1 0v.1l-.1-.1v.2l-.1-.1h-.1v.1s0-.1 0 0v-.1h-.1s0 .1.1.1v-.1.2c0 .1-.1 0 0 0v-.1.3l-.1-.1v.1-.1.2-.1s0 .1 0 0v.1c-.1-.1 0 0-.1 0v.1c-.1-.1 0 0-.1 0v.2-.1.1l-.1-.1v.1c0 .1 0 0 0 0v-.1.1-.1.2c-.1-.1-.1 0-.1-.1 0 .1-.1 0-.1 0l.1.1h-.1l-.1-.1c0 .1-.1-.1-.1 0v.1s0 .1-.1.1v.1c0-.1-.1-.1-.1-.1v.1c-.1-.1-.1 0-.1 0v.1s0 .1 0 0 0 0-.1 0v.1c-.1-.1 0 .1-.1 0v.1h-.1s.1.1 0 .1v-.1h-.1s-.1 0 0 .1c0-.1 0 0 0 0v.2h-.1v.1s0 .1 0 0l-.1-.1v.3l.4-.7v.2s0-.1 0 0c-.1-.1 0 .2-.1.1-.1 0-.1.1-.2.1v.2c0 .1-.1-.1-.1 0v.1l-.1-.1v.1c0 .1.1.1.1.2v-.2.1-.1s0 .1 0 0v-.1h.1v-.1c0 .1 0 0 .1.1v-.1s.1.1.2.1c-.1 0-.1-.1-.1-.1l.1.1c-.1 0-.1 0-.1-.1l.1.1c-.1-.1-.1-.1 0 0-.1-.1-.1-.1 0 0 0-.1 0 0 0 0zm.2-.4zm.1 0s-.1 0 0 0c-.1 0-.1 0 0 0-.1 0-.1 0 0 0zm-.3-.3zm0 .1h.1-.1zm2.5-1.5zM77.7 64zm2.1-1.5zm.1 0zm0 0zm-.7.5c0 .1 0 .1 0 0zm.1-.2zm-.4.5zm.4-.5zm.8-.4zm0 0zm0 0s.1 0 0 0zm0 0zm-.1 0c.1 0 .1 0 0 0 .1 0 0 0 0 0zm-.2-.1c.1 0 0-.1 0 0 0-.1.1 0 0 0zm0 0zm-.4.2zm.1.3zm-.3-.3zm-.6.4c0 .1 0 0 0 0zm-.2.3s-.1-.1 0 0zm-.9.4zm9.1-1s-.1 0 0 0zm-.1 0s0 .1.1.1c-.1 0-.1 0-.1-.1zm-.8.4zm-.5.2zm-.1 0zm.6-.2c-.1 0-.1 0 0 0zm.7-.2zm-.6 0zm.2-.1zm.3-.1zm-.6.3s0-.1 0 0zm-4.2 2.9zm-.3-.1h-.1zm3.7-2.5zm-1.4.9c.1 0 .1 0 0 0 .1.1.1 0 0 0zm2.9-1.3zm-2.8 1.4zm1-.7zm.2-.1zm-.3.2s-.1 0 0 0c-.1 0-.1 0 0 0zm-.2.1zm-2.4 1.9s-.1 0 0 0zm4.5-2.9c0 .1 0 .1 0 0 0 .1 0 0 0 0zm-1.7 1.2c-.1.1-.1.1 0 0zM82.8 65zm1.8-1s-.1 0 0 0c-.1 0-.1 0 0 0zm-2.8 1.5z" style="fill:#6594d9"/><path d="M81.7 65.7c.1 0 0 0 0 0 0-.1 0 0 0 0v-.3.1-.1.1c.1.1 0 0 0 .1h.1v-.1c0-.1.1.1.1 0v-.1.1-.2s0-.1.1-.1c0-.1.1 0 .2 0V65c0-.1 0-.1.1-.1v-.1c.1 0 .1-.1.2 0 0-.1.1 0 0-.1.1 0 .1 0 .1.1v-.2.1h.1v-.1c0-.1 0 0 0 0h.1l.1-.1s-.1-.1 0-.1v-.1.1s.1 0 0 0c0 0 0-.1.1-.1v-.1h.1v-.1l.1.1.1-.1c0-.1.2 0 .2-.1v-.1.1c0-.1.1 0 .1-.1.1.1.1-.1.2 0 .1-.1.2-.1.3-.1 0 0-.1-.1 0-.1v.1c0-.1.1-.1.2-.2v-.1s0-.1 0 0v-.1h.1c0-.1.1 0 0-.1 0 .1.1 0 .1 0v-.1c.1.1 0-.1.1 0 0-.1.1-.1.1-.2v.1c0-.1 0-.1.1-.1 0-.1.1 0 .1-.1v-.1c0 .1 0 0 .1.1v-.2s0-.1.1-.1c0 .1 0 0 .1.1 0 0 0-.1 0 0v-.1.1-.1s-.1-.1 0-.1c0 0 0-.1.1-.1v.1s0-.1.1-.1c0-.1.1 0 0 0 0 0 0-.1.1-.1h.1v-.1c.1.1.1-.1.2 0v-.1s0 .1.1.1 0-.1 0 0v.1-.1h.1v-.1.1c0-.1.1 0 .1-.1V62v.1s0-.1 0 0v.1-.1.1-.1c-.1-.1 0 0-.1 0V62v.1-.1s0 .1 0 0v.1l-.1-.1v.1h-.1v.1c-.1-.1 0 0-.1 0v-.1c0 .1 0 0 0 0v.1h-.1v.1-.1s0 .1-.1.1l.1.1v-.1h-.1v.2c0 .1-.1 0-.1.1v.1-.1c-.1 0 0 .1-.1.1l.1.1-.1-.1v.2l-.1-.1H85v.1s0-.1 0 0v-.1h-.1v.1-.1c-.1 0 0 .1 0 .1v.1c0 .1-.1 0-.1 0v-.1h-.1v.3h-.1l-.1-.1c-.1 0 0 .1-.1.1v-.1.2-.1s0 .1 0 0v.2c-.1-.1-.1.1-.1 0v.2c-.1-.1 0 0-.1 0v.2-.1.1l-.1-.1v.1c0 .1 0 0 0 0v-.1.1-.1.2c-.1-.1-.1 0-.1-.1 0 .1-.1 0-.1.1.1.1 0 0 0 .1h-.2s0 .1 0 0c0 .1-.1-.1-.1 0 0 0-.1 0 0 .1 0 0 0 .1-.1.1 0 0 0 .1 0 0 0 0 0 .1 0 0-.1 0 0 .1-.1.1 0-.1-.1-.1-.1-.1-.1 0 0 .1-.1.2-.1-.1-.1 0-.2 0v.1s0 .1 0 0-.1 0-.1 0v.1c-.1-.1-.1.1-.2 0v.1h-.1v.2-.1s-.1 0-.1.1c0 0-.1 0 0 .1v.3h-.1v.1s0 .1-.1 0l-.1-.1v.3c0-.1-.1-.1-.1-.1s-.1.1 0 .1v.1s0-.1 0 0c-.1-.1 0 .2-.1.1-.1 0-.1.1-.2.1v.2c0 .1-.1-.1-.1 0h-.1v.1l-.1-.1v.1c0 .1.1.2.1.2v-.2.1-.1s0 .1 0 0v-.1h.1V66c0 .1 0 0 .1.1V66h.1v-.1c-.3-.2-.3-.2-.2-.2-.1 0-.1 0-.1-.1l.1.1c-.1-.1 0 0 0 0 .1 0 0 0 0 0zm.5-.4c-.1 0 0 0 0 0zm0 0zm-.3-.3s.1 0 0 0c.1 0 .1.1 0 0zm.1.1zm3.7-2.1zm-2.9 2zm3.2-2zm.1-.1zm.1 0zm-1.2.8zm.3-.3zm-.6.5zm.6-.5zm1.2-.7zm0 0zm0 0zm-.1.1zm0 0s-.1 0 0 0zm-.3-.1s0-.1 0 0c0-.1.1 0 0 0zm-.1 0zm-.5.3c-.1 0 0 0 0 0zm0 .3zm-.2-.2h-.1zm-1 .5c.1.1 0 0 0 0zm-.4.3zm-1.2.7zm-11.4 9c0-.1 0-.1 0 0zm0-.2-.1.1.1-.1c0 .1 0 .1 0 0 0 .1-.1.1 0 0 0 .1 0 0 0 0-.1.1 0 0 0 0zm-.8-.5zm-.4-.3zm-.1-.1c.1 0 0 0 0 0zm.5.4zm.6.6zm-.3-.5zm.1.1zm.2.2zm-.4-.4zM66 70.6zm0-.4zm3.9 2.1zm-1.3-.7s-.1 0 0 0c-.1 0 0 0 0 0zm2.5 1.9zm-2.6-1.8zm1.1.5zm.2.2zm-.4-.3zm-.1 0zm-2.8-1.3s-.1 0 0 0zm4.6 2.7zm-1.9-1zm-1.8-1.1zm1.7 1zm-2.6-1.7z" style="fill:#6594d9"/><path d="M66.3 70.8s0-.1 0 0c.1-.1 0-.1 0 0h.2v-.1c0 .1 0 0 0 0h.1c0 .1 0 0-.1.1v.1h.1v-.1c.1 0 0 .1 0 .1s.1-.1.1 0v.1s.1-.1.1 0v.1h.1c.1 0 .1.1.1.1h.1s.1-.1.1 0c0 0 .1 0 .1.1 0-.1 0 .1.1 0v.1h.1v.2h.1c.1 0 0 .1 0 0v.1s.1 0 .1.1v-.1.1-.1.1s0 .1 0 0h.1l.1-.1s0 .1.1.1l.1-.1v.1h.1c.1 0 0 .2.1.1h.1v.1h.1c0 .1.1 0 .1.1.1 0 .1.1.2.2 0 0 .1-.1.1 0 .1 0 .1.1.2.1h.1s.1 0 0 0h.3v.2h.1c0 .1.1 0 .1.1h.2c0 .1-.1 0-.1.1h.1c.1 0 .1.1.1 0s.1-.1.1-.1l-.1.1h.3v.1h.1s0-.1.1 0v.1h.1s0-.1 0 0h.1c0 .1 0 0-.1.1h.1c.1-.1 0 .1 0 0h.1v.1c0 .1.1 0 .1.1v-.1.1c0 .1 0-.1 0 0 0 0 .1-.1.1 0v.1c.1-.1 0 0 .1 0-.1 0 0 0-.1.1h.1c.1 0 0 .1.1 0l.1-.1v.1h.2c0-.1 0 0-.1 0v-.1h-.1v-.1c0-.1-.1 0 0 0l-.1.1.1-.1c0-.1-.1 0 0-.1 0-.1 0 0 0 0v-.1c-.1.1 0 0 0 0 0 .1 0 0-.1 0V73c0 .1-.1 0-.1 0v-.1H71s0 .1-.1.1v-.3h-.1c-.1 0-.1-.1-.1-.1h-.1v-.1s0-.1 0 0v-.1c0-.1-.1.1-.1-.1v.1-.1s-.1.1-.1 0c0 0 0 .1-.1.1v-.3h-.1v-.3s0 .1-.1.1h.1c0-.1 0 0-.1 0v-.1.1s0-.1 0 0v-.1s0-.1 0 0v.1h.1-.1c0-.1 0 0 0 0l.1-.1c0-.1-.1 0-.1 0v-.1H70s-.1.1-.1 0c0 0 0-.1.1-.1 0-.1-.1 0-.1-.1h-.1s-.1.1-.1 0c.1-.1 0 0 0-.1h-.2v-.1s0 .1-.1.1v-.1c0-.1 0 0 0 0h-.1c-.1 0 0 0 0 0v-.1h-.1s.1 0 .1-.1h-.1s-.1.1-.1 0c.1-.1 0-.1 0-.2-.1 0-.1-.1-.1-.1 0 .1 0 0-.1.1v-.2.1c-.1 0 0-.1 0-.1h-.2c0-.1-.1 0-.1 0v-.1h-.2c0-.1-.1-.1-.1-.2v.1s-.1 0 0 0v-.1.1c0-.1-.1 0-.1-.1h-.1l-.1-.1-.1.1v-.1s0-.1-.1-.1c0 0 0-.1-.1 0 0-.1 0 0-.1 0l-.1.1h-.1v-.1h-.1s0-.1.1-.1c0 0-.1.1-.1 0v.1l-.1.1v-.2H67V70c0-.1-.2.1-.2-.1 0-.1-.2 0-.2-.2h-.2c-.1 0 0-.1-.1-.1 0 0-.1 0 0 0h-.1s.1-.1 0-.1c0 0-.1 0-.1.1s-.1.1-.1.2l.1-.1v.1s0-.1.1-.1c0 0 0 .1 0 0h.1v.1h.1c-.1.1 0 0 0 .1.1-.1.1 0 .1 0-.3.7-.3.7-.2.9-.1-.2 0-.2 0-.2s-.1 0 0 .2v-.1.1-.1.1c0-.1 0 0 0 0zm.5.1zm.1 0zm.1-.3zm-.1 0v.1-.1zm3.6 2.3zm-3.1-1.5v-.1.1zm3.3 1.8zm.1.1zm0 0zm-1.2-.6zm.4.1zm-.8-.3zm.8.3zm1.1.7h.1zm.1 0zm0 0zm-.1 0c-.1 0 0 0 0 0zm-.1-.1s0 .1 0 0c0 .1 0 0 0 0zm0-.2c.1-.1 0 0 0 0zm0-.1zm-.6-.3c0-.1 0 0 0 0zm-.2.1zm.1-.3zm-1-.6c0 .1 0 0 0 0zm-.4-.2s0 .1 0 0zm-1.2-.8zm9.9 2.2s.1 0 0 0zm.1-.1-.1.1.1-.1s-.1.1 0 0c-.1.1-.1.1 0 0-.1 0 0 0 0 0zm-.4-.3zm-.3-.2zm0-.1zm.3.3zm.2.4zm-.1-.4zm.1 0s0 .1 0 0c0 .1 0 .1 0 0 0 .1 0 .1 0 0zm.1.2zm-.3-.3c.1 0 .1 0 0 0zm-2.7-1.2c0-.1 0 0 0 0zm0-.3zm2.3 1.2c.1 0 0 0 0 0zm-.7-.5c-.1 0-.1 0 0 0-.1.1-.1 0 0 0zm1.3 1.3zM76.1 72zm.6.3zm.1.1zm-.2-.1zm-.1-.1zm-1.7-.6zm2.7 1.6zm-1.1-.6zm-1-.7zm1 .7c0-.1 0-.1 0 0zm-1.5-1.1z" style="fill:#6594d9"/><path d="M74.7 71.6s0-.1 0 0c.1-.1 0-.1 0 0 .1 0 .1-.1 0 0 .1-.1.1-.1 0 0 .1-.1.1 0 .1-.1v-.1.1h.1v.2-.1c.1 0-.1.1 0 .1l.1-.1v.1s.1-.1.1 0v.1h.1l.1.1s.1-.1.1 0c0 0 .1-.1.1 0 0 0 .1 0 .1.1 0-.1 0 0 .1 0v.1l.1-.1v.2h.2V72v.1s0 .1 0 0h.1l.1-.1v.1-.1.1h.1c.1 0 0 .2.1.1v.1h.1c-.1.1.1 0 0 .1.1 0 .1.1.1.2l.1-.1h.2c0 .1 0 .1 0 0v.1c0 .1.1 0 0 .1h.1c0 .1 0 0-.1.1 0 0 .1-.1.1 0h.1l.1-.1-.1.1h.2s.1-.1.1 0v.1s0-.1 0 0v.1h.1s0-.1 0 0h.1v.1h.1c.1-.1 0 0 0 0h.1c0 .1.1 0 .1.1v-.1.1c0 .1 0-.1 0 0 0 0 .1-.1 0 0v.1l.1-.1-.1.1s0 .1.1 0l.1-.1v.1s0-.1 0 0v.1h.1v.1h.1c0-.1 0 0 0 0v-.2s-.1 0 0 0l-.1.1.1-.1v-.1.1c0-.1 0 0 0 0v-.1c0 .1 0 0 0 0 0 .1 0 0-.1 0v-.1c0 .1 0 0-.1 0V73H78l-.1.1v-.3h-.3s0-.1 0 0c0-.1-.1.1-.1 0v.1-.1s-.1.1-.1 0c0 0 0 .1-.1.1v-.2s0-.1 0 0v-.1s0 .1-.1.1c0-.1 0 0-.1 0 0 0 0-.1 0 0v.1s0-.1 0 0v-.1.1c0-.1 0 0 0 0l.1-.1h-.1v-.1H77l-.1.1s0-.1.1-.1v-.1s-.1.1-.1 0c.1-.1 0 0 0-.1h-.1s-.1 0-.1.1v-.1s0 .1-.1.1v-.1c0-.1 0 0 0 0s-.1.1-.1 0c0 .1 0 0 0 0v-.1h-.1l.1-.1s-.1.1-.1 0c.1-.1 0-.1 0-.1-.1 0 0 0-.1-.1 0 .1 0 0-.1.1v-.2c-.1 0 0-.1 0-.1h-.3v-.1h-.1v-.1.1-.1l-.1.1c0-.1-.1 0 0-.1l-.1.1v-.1s0-.1-.1 0c0 0 0-.1-.1 0 0-.1 0 0 0 0l-.1.1v-.1s-.1 0 0 0c0 0 0-.1.1-.1l-.1.1v.2c0-.1 0-.1.1-.1 0 0-.1 0-.1.1h-.1c0-.1-.1.1-.1 0s-.1 0-.1-.1v-.1s.1-.1 0-.1l-.1.1c0 .1-.1.1-.1.2l.1-.1v.1s0-.1.1-.1c0 0 0 .1 0 0v.1c-.1.1 0 0 0 .1 0-.1 0 0 .1 0-.4-.4-.4-.4-.4-.3v-.2.2-.1.1-.1.1zm.4 0zm0 0zm.1-.3zm0 .1zm2.1 1.4zm-1.9-.9zm1.9 1.1zm.1 0zm0 .1zm-.7-.4zm.2 0c0 .1 0 .1 0 0zm-.5-.1zm.5.1c0 .1 0 .1 0 0 0 .1 0 0 0 0zm.7.5zm0 0zm0 0zm-.1 0zm0 0s0-.1 0 0z" style="fill:#6594d9"/><path d="M77.5 72.9c.1 0 .1 0 0 0 .1-.1.1 0 0 0zm0 0zm-.3-.2c0-.1 0-.1 0 0zm-.2.1v.1-.1zm.1-.3zm-.5-.3zm-.3-.1zm-.6-.5zm8.3 1.3s0-.1 0 0zm0-.1-.1.1c.1-.1.1 0 .1-.1 0 0 0 .1 0 0zm-.4-.4zm-.2-.2zm-.1-.1c.1 0 0 0 0 0zm.3.3zm.3.5s0-.1 0 0zm-.1-.4v-.1zm.1 0c-.1 0 0 0 0 0zm.1.2zm-.3-.3zm-2.9-1.2zm0-.3h.1zm2.5 1.1zm-.8-.4c-.1 0-.1 0 0 0-.1 0 0 0 0 0zm1.4 1.2zm-1.5-1.1zm.7.2zm.1.2zm-.2-.2zm-.1 0zm-1.8-.6zm2.8 1.5zm-1.1-.5c-.1 0 0 0 0 0zm-1.1-.7zm1 .6zm-1.6-1z" style="fill:#6594d9"/><path d="M81 71.3s0-.1 0 0c.1-.1 0 0 0 0s.1-.1 0 0c.1-.1.1-.1 0 0 .1-.1.1 0 .2-.1v-.1.1h.1v.2-.1c.1 0-.1.1 0 .1l.1-.1v.1s.1-.1.1 0v.1h.1s.1 0 .1.1c0 0 .1-.1.1 0 0 0 .1-.1.1 0 0 0 .1 0 .1.1 0-.1 0 0 .1 0v.1s0-.1.1-.1v.2h.1s0 .1 0 0h.1v-.1.1-.1.1s0 .1 0 0h.1l.1-.1v.1-.1.1h.1c.1 0 0 .2.1.1v.1c.1-.1 0 0 .1 0-.1.1.1 0 0 .1.1 0 .1.1.1.1l.1-.1h.2c0 .1 0 .1 0 0v.1c0 .1.1 0 0 .1h.1c0 .1 0 0-.1.1 0 0 .1-.1.1 0h.1l.1-.1-.1.1h.2s.1-.1.1 0v.1s0-.1 0 0v.1h.1s0-.1 0 0h.1v.1h.1c.1-.1 0 0 0 0h.1c0 .1.1 0 .1.1v-.1.1c0 .1 0-.1 0 0 0 0 .1-.1 0 0v.1l.1-.1-.1.1s0 .1.1 0l.1-.1v.1s0-.1 0 0v.1h.1v.1h.1c0-.1 0 0 0 0V73s-.1 0 0 0l-.1.1.1-.1v-.1.1c0-.1 0 0 0 0v-.1c0 .1 0 0 0 0 0 .1 0 0-.1 0v-.1c0 .1 0 0-.1 0v-.1h-.1l-.1.1v-.3h-.1s0-.1-.1 0H84s0-.1 0 0c0-.1-.1.1-.1 0v.1-.1s-.1.1-.1 0c0 0 0 .1-.1.1v-.2s0-.1 0 0v-.1s0 .1-.1.1c0-.1 0 0-.1 0 0 0 0-.1 0 0v.1s0-.1 0 0v-.1.1c0-.1 0 0 0 0l.1-.1h-.1v-.1h-.1l-.1.1s0-.1.1-.1v.1c0-.1-.1 0 0-.1h-.1s-.1.1-.1 0c.1-.1 0 0 0-.1h-.1s-.1 0-.1.1v-.1s0 .1-.1.1v-.1c0-.1 0 0 0 0s-.1.1-.1 0c0 .1 0 0 0 0v-.1h-.1l.1-.1s-.1.1-.1 0c.1-.1 0-.1 0-.1l-.1-.1c0 .1 0 0-.1.1v-.3h-.3v-.1h-.1v-.1.1-.1.1c0-.1-.1 0 0-.1l-.1.1v-.1s0-.1-.1 0c0 0 0-.1-.1 0 0-.1 0 0 0 0s0 .1-.1.1v-.1s0 .1 0 0c0 0-.1 0 0 0 0 0 0-.1.1-.1l-.1.1v.2-.1s-.1 0-.1.1h-.1c0-.1-.1.1-.1 0s-.1 0-.1-.1v-.1s.1-.1 0-.1l-.1.1c0 .1-.1.1-.1.2l.1-.1v.1s0-.1.1-.1c0 0 0 .1 0 0v.1c-.1.1 0 0 0 .1 0-.1 0 0 .1 0l-.4-.4v-.2.2-.1.1-.1.1zm.3 0zm.1 0zm.1-.3zm-.1.1zm2.2 1.3zm-1.9-.8zm2 1.1zm0 0zm.1 0zm-.8-.3zm.3 0zm-.5-.1zm.5.1zm.6.5zm0 0zm.1 0c-.1 0 0 0 0 0zm-.1-.1zm0 0s0 .1 0 0c0 .1 0 0 0 0zm0-.2c.1-.1 0 0 0 0zm0-.1zm-.4-.2c.1 0 .1 0 0 0zm-.1.2zm.1-.3zm-.6-.3z" style="fill:#6594d9"/><path d="M82.6 71.8c.1-.1.1-.1 0 0 0-.1 0 0 0 0zm-.7-.5.1-.1-.1.1z" style="fill:#6594d9"/><path d="M31.9 58.5c-.3-.2-.5-.6-.9-.8-.3-.2-.6-.5-.9-.8-.3-.3-.7-.5-1-.8-.3-.3-.5-.7-.8-1-.3-.3-.7-.5-.9-.8-.3-.3-.5-.7-.7-1-.2-.4-.4-.7-.6-1.1-.1-.4-.1-.8-.2-1.2 0-.4 0-.8.3-1.2.2-.3.6-.5 1-.9.3-.3.5-.7.9-.9.3-.2.8-.4 1.2-.6.4-.2.7-.5 1.1-.7.4-.2.8-.3 1.2-.4.4-.2.8-.4 1.2-.5.4-.2.8-.4 1.2-.5.5-.2 1-.2 1.3-.3 0-.4-.2-.4-.4-.8-.2.1-.6.1-1.2.3-.3.1-.7.4-1.1.6-.4.1-.8.3-1.2.4-.4.2-.8.3-1.2.5-.4.2-.8.4-1.1.6-.4.2-.8.3-1.1.6-.4.2-.6.6-1 .8-.3.3-.7.5-1 .8-.3.3-.5.7-.6 1.1-.2.4-.3.8-.3 1.2 0 .4.1.8.2 1.2.1.4.4.7.6 1.1.2.3.3.8.6 1.1.2.3.5.7.8 1l.9.9.9.9c.3.3.6.5.9.8-.4 0-.7.2-1 .3-.4.1-.6.3-.8.4.2.4.2.4.5.7.1-.1.6-.4 1.3-.5.4 0 .9 0 1.4.4-.3.5-.5.3-1 .6s-.8.2-1 .7c-.1.4.1.8.6.8.6 0 .5-.3 1.1-.7.5-.4.4-.5 1-.7.2.3.3.6.3 1s-.2.7-.3 1c-.3.5-.6.9-.6.9.3.3.2.4.6.6.3-.3.6-.6.9-1.1.2-.4.3-.9.3-1.4 0-.5-.1-.9-.4-1.4-.5-.8-.4-.7-1-1.2zm75.3-32.4-.7-.8-3.1 2.7c.2-1.9 0-3.3 0-3.4l-1 .2s.2 1.5 0 3.5l-3.2-2.9-.7.7 3.6 3.4c-.4 1.8-1.1 4-2.7 5.9-3.9 4.9-6.9 6.9-6.9 6.9l.6.8c.1-.1 3.1-2.1 7.1-7.1 1.7-2.2 2.6-4.5 2.9-6.5l4.1-3.4z" style="fill:#ef7937"/></g></svg>