<svg xmlns="http://www.w3.org/2000/svg" viewBox="0 0 131.2 142.8" style="enable-background:new 0 0 131.2 142.8" xml:space="preserve"><style>.st5{fill:#0d695c}.st6{fill:#4db6ac}.st7{fill:none;stroke:#ef7937;stroke-width:.925;stroke-miterlimit:10}.st8{fill:#147467}.st9{fill:#4db6ac}.st10{fill:none;stroke:#0d695c;stroke-width:.8491;stroke-miterlimit:10}.st11{fill:#147467}.st12{fill:#4db6ac}.st13{fill:none;stroke:#d9413d;stroke-width:.8491;stroke-miterlimit:10}.st14{opacity:.37}.st15{clip-path:url(#SVGID_2_)}.st16{clip-path:url(#SVGID_4_)}.st17{clip-path:url(#SVGID_6_)}.st18{clip-path:url(#SVGID_8_)}.st19{clip-path:url(#SVGID_10_)}.st20{clip-path:url(#SVGID_12_)}.st21{clip-path:url(#SVGID_14_)}.st22{clip-path:url(#SVGID_16_)}.st23{clip-path:url(#SVGID_18_)}.st24{clip-path:url(#SVGID_20_)}.st25{fill:none;stroke:#147467;stroke-width:.925;stroke-miterlimit:10}.st26{clip-path:url(#SVGID_22_)}.st27{clip-path:url(#SVGID_24_)}.st28{clip-path:url(#SVGID_26_)}.st29{clip-path:url(#SVGID_28_)}.st30{clip-path:url(#SVGID_30_)}.st31{fill:none;stroke:#d9413d;stroke-width:.925;stroke-miterlimit:10}.st32{clip-path:url(#SVGID_32_)}.st33{clip-path:url(#SVGID_34_)}.st34{clip-path:url(#SVGID_36_)}.st35{clip-path:url(#SVGID_38_)}.st36{clip-path:url(#SVGID_40_)}.st37{fill:#147467}.st38{fill:#6594d9}.st39{fill:#ee8423}.st40{fill:#f18a50}.st41{fill:#019788}.st42{fill:#32867a}.st43{fill:#f67258}.st44{fill:#de5956}.st45{opacity:.5}.st46{fill:#4b5d9a}.st47{opacity:.6}.st48{fill:#21a497}.st49{fill:#f7846d}.st50{fill:#26a59a}.st51{opacity:.65;fill:none;stroke:#fff;stroke-width:.2;stroke-miterlimit:10}.st52{fill:#80cbc4}.st53{fill:none;stroke:#31458b;stroke-miterlimit:10}.st54{fill:#0d695c}.st55{fill:none;stroke:#f5a800;stroke-miterlimit:10}.st55,.st56,.st57{stroke-width:.2}.st56{fill:none;stroke:#4db6ac;stroke-miterlimit:10}.st57{stroke:#ff8a65}.st57,.st58,.st59,.st60,.st61{fill:none;stroke-miterlimit:10}.st58{opacity:.65;stroke:#fff;stroke-width:.5}.st59{stroke:#ef7937}.st60{stroke:#147467}.st61{stroke:#d9413d}.st62{fill:#147467}.st63,.st64,.st65{fill:#80cbc4}</style><g id="Calque_1"><path d="M75.3 113.7s-24.4-.3-29.7 1.4c-5.3 1.7 13.7 6.7 23.8 5.8s17.5-4.3 14.5-5.4c-2.9-1.2-6-1.5-8.6-1.8z" style="opacity:5.000000e-02"/><path d="M61.8 116.2c-.9.4-.9 0-1.9 0s-1.1.6-2 .2c-.4-.2-.4-.9 0-1.1 1-.5 1.1.3 2.1.1-.3-.5-.7-1.1-1.1-1.8-.3-.6-.7-1.2-1-1.9-.3-.6-.5-1.3-.8-2-.3-.7-.6-1.3-.8-2-.2-.8-.4-1.5-.4-2.1 0-.5 0-1.3.1-2.2 0-.7.1-1.4.1-2.2 0-.7.1-1.5.1-2.2 0-.7-.1-1.5-.1-2.2 0-.8.1-1.5.2-2.2 0-.8.1-1.5.2-2.2 0-.8.2-1.6.2-2.2.1-1.2 0-2.1 0-2.2.5 0 .5 0 1 .1 0 0 0 .9-.1 2.2 0 .6-.1 1.4-.1 2.2 0 .7-.1 1.4-.1 2.2 0 .7-.2 1.5-.2 2.2 0 .7-.1 1.5-.2 2.2 0 .8-.1 1.5-.2 2.2v2.2c0 1 .1 1.7.1 2.2 0 .6.2 1.3.4 2.1.2.6.5 1.3.8 2 .3.7.6 1.3 1 2s.7 1.4 1 1.9c.6 1.1 1.1 1.8 1.1 1.8.7.2 1 .5.6.7zm4.8.5c-1.3.5-1.4.3-2.7-.1-.4-.1 0-.3.1-.6 0 0 .4-.8.9-2.1.2-.6.6-1.3.9-2.1.2-.7.3-1.4.5-2.2.2-.7.5-1.4.7-2.1.2-.7.2-1.5.3-2.2.1-.8.2-1.5.2-2.2 0-.7-.2-1.4-.3-2.2-.1-.7-.1-1.4-.3-2.2-.1-.7-.2-1.5-.3-2.2-.1-.7-.2-1.5-.4-2.2-.1-.8-.2-1.5-.3-2.2-.2-.8-.5-1.5-.7-2.1-.3-1.3-.5-2.3-.5-2.3.5-.1.5 0 1-.1 0 .1.2.9.5 2.2.1.6.3 1.4.5 2.2.1.7.3 1.4.5 2.2.1.7.2 1.5.3 2.2.1.7.4 1.5.5 2.2.1.8.2 1.5.3 2.2.1.8.1 1.6.1 2.3 0 .7-.2 1.4-.3 2.2-.1.7-.2 1.4-.4 2.1-.2.7-.2 1.5-.4 2.2-.2.7-.3 1.5-.5 2.1-.2.7-.5 1.4-.7 2.1-.3.9-.7 1.5-.9 2 .6.3.6-.1 1.2.2.6.1.6.5.2.7z" style="fill:#0d695c"/><path d="m72.6 105.7-1.5-2.1-.3-2.7-.4-2.8.5-2.8-.7-2.7-1.6-2.2-2.7.5-2.7-.3-2.6-.6h-2.7l-2.7.1-2.6.5-.3 2.4.3 2.7.6 2.6v2.7l.1 2.6-.5 2.6-2.8 1.1-2.9.6-3-.2-3-.1-3-.1-3-.4-2.9-.7-3-.1-.4-2.9.2-2.9-.1-2.9.1-2.6.6-2.8.2-2.9v-2.9l-.3-2.9.1-2.9-.2-2.9.3-3-.6-2.9.4-3-.5-2.9.1-3-.4-2.9.2-3v-3l-.6-2.9.4-3-.1-2.9-.2-2.8.4-2.8.3-2.8-.4-2.9.1-2.8.9-2.7 1.9-1.9 2.8-.4 2.8-.1h8.4l2.8.1 2.8.5 2.8.4 2.6 1.2.6 2.7-.3 2.7.1 2.7-.7 2.7.1 2.8-.3 2.7-.3 2.7.6 2.7 2.5 1.7 2.9.4 2.8.3 2.7-.8 2.5-1.6.4-2.7.4-2.7-.3-2.7-.4-2.8-.3-2.7-.5-2.7.1-2.7.7-2.5L72 27l2.6-.8 2.8-.5 2.8.5 2.8.1 2.8-.2 2.7.7 2.8.3 2.5 1.2 1.2 2.5.7 2.9.1 2.9.4 2.9.3 2.9.3 2.9-.1 2.9.1 2.9.5 2.9.4 2.9.1 2.9-.4 2.9.2 2.9.4 2.9v2.9l-.2 2.9-.1 2.9-.2 2.9V83l.1 2.9-.1 2.9-.1 2.9-.5 2.9-.1 2.9-.4 2.9-1 2.8-1.5 2.6-3 .1-3-.4h-3l-3 .3-3-.1-3-.2-3.3.2z" style="fill:#4db6ac"/><path d="M45.6 55s4.3-4.5 10-1.2 5 11.8-.7 13.6-9.5-.5-10.4-3c-.8-2.6-1.4-7.1 1.1-9.4zm26.4.8s4.3-4.5 10-1.2 5 11.8-.7 13.6c-5.7 1.8-9.5-.5-10.4-3-.8-2.6-1.4-7.1 1.1-9.4z" style="fill:#fff"/><circle cx="52.5" cy="62.7" r="5.4"/><circle cx="78.6" cy="63.8" r="5.5"/><path d="M65.6 74.3c-2 0-2.5-2.3-2.5-3.5h1s0 2.5 1.5 2.5c1.6 0 2.5-2.6 2.5-2.7l.9.3c0 .2-1.1 3.4-3.4 3.4zm22 35.8c-.1-.5.2-.5.2-.9v-.9c0-.5-.3-.5-.3-.9 0-.5.3-.5.3-.9 0-.5-.3-.5-.3-.9 0-.5.2-.5.2-.9 0-.5-.1-.5-.1-.9V102c0-.5-.2-.5-.2-.9v-1c0-.3.1-.7.1-1 0-.3.2-.7.2-1 0-.3-.4-.6-.4-1 0-.3.1-.7.1-1 0-.3-.2-.7-.2-1 0-.3.2-.7.1-1 0-.3-.3-.6-.3-1v-1c0-.3.1-.7.1-1 0-.3-.1-.7-.1-1v-2c0-.3-.4-.6-.4-1 0-.3.1-.7.1-1 0-.3.1-.7.1-1 0-.3-.4-.6-.4-1 0-.3.2-.7.2-1 0-.3-.3-.7-.4-1 0-.4.1-.7.1-1v-1c0-.4-.3-.7-.4-1-.1-.6-.1-1.1-.1-1.1l-1 .2s-.1.4 0 1c0 .3 0 .6.1 1 0 .3.2.6.2 1 0 .3.2.6.2 1 0 .3.2.6.2 1 0 .3.2.6.2 1v1c0 .3-.1.7 0 1v1c0 .3.2.6.3 1 0 .3-.1.7 0 1 0 .3.2.6.3 1v2c0 .3.3.7.3 1 0 .3-.2.7-.2 1 0 .3.3.7.4 1 0 .3-.2.7-.2 1 0 .3.2.7.2 1 0 .3.1.7.1 1 0 .3.1.7.1 1v3.8c0 .5-.2.5-.2.9 0 .5.3.5.3.9 0 .5-.3.5-.3.9 0 .5.1.5.1.9 0 .5.1.5.1.9 0 .5-.2.5-.2.9 0 .5.3.5.3 1s-.2.5-.3.9c-.3.1-.5.3-.8.6-.2.2-.5.5-.7.8l-.6.9c-.1.3-.2.7-.3 1.1-.1.4-.4.7-.4 1-.1.5 0 .8-.1 1 .5.2.4.3.9.3l.3-.9c.1-.3.1-.6.2-1 .1-.3.1-.7.3-1 .1-.3.5-.5.6-.8.2-.3.2-.6.4-.7.1.5.3.5.3 1s-.3.5-.3 1.1c0 .5.1.5.1 1.1 0 .5.1.5.1 1.1 0 .5.1.5.1 1.1s-.5.7-.1 1.1c.3.4.7.4 1.1.1.3-.3 0-.6 0-1v-.9c0-.5-.1-.5-.1-.9v-.9c0-.5.2-.5.2-.9 0-.5-.1-.5-.1-.9s-.1-.5 0-.9c.2.1.5.2.8.5.2.2.3.6.5.8.2.2.3.5.5.8.2.3.1.6.3.9.1.3.5.4.7.7.1.3.1.6.2.9.5 0 .6.1 1-.1-.1-.2-.3-.7-.4-1.1-.1-.3-.3-.5-.5-.9-.1-.3-.4-.5-.6-.8-.2-.3-.1-.7-.3-1-.2-.3-.5-.5-.7-.7-.2-.3-.4-.6-.6-.8-.6-.7-.9-.8-1.2-.9zm-52.2 1.8c0-.3.1-.7.1-1 0-.3-.2-.6-.2-.9 0-.3.2-.6.2-1 0-.3 0-.6-.1-1 0-.3-.1-.6-.1-.9 0-.3-.3-.6-.3-.9v-1c0-.3-.2-.6-.2-.9 0-.3.1-.6.1-1 0-.3-.1-.6-.1-1v-1c0-.3-.1-.6-.1-.9 0-.3-.1-.6-.2-.9 0-.3.2-.6.2-1 0-.3-.2-.6-.2-.9v-1c0-.3.4-.6.4-1 0-.3.1-.6.1-1 0-.3-.3-.7-.3-1 0-.3.3-.6.3-1 0-.3-.1-.7-.1-1 0-.3.1-.7.1-1 0-.3.1-.7.1-1 0-.3-.1-.7-.1-1 0-.3 0-.7.1-1 0-.3.2-.7.2-1v-1c0-.3.4-.6.5-1 0-.3-.2-.7-.2-1 0-.3.4-.6.4-1 0-.3 0-.7.1-1 0-.3-.2-.7-.1-1 0-.4.3-.7.4-1 0-.4-.1-.7-.1-1 .1-.6.2-1 .2-1-.5-.1-.5-.2-1-.2 0 .1-.2.5-.3 1.1v1c0 .3.1.7.1 1 0 .3-.1.6-.2 1 0 .3 0 .7-.1 1 0 .3 0 .7-.1 1 0 .3-.1.7-.2 1 0 .3-.3.6-.4 1 0 .3.2.7.2 1 0 .3-.4.6-.5 1 0 .3.2.7.2 1 0 .3-.3.7-.3 1 0 .3-.1.7-.1 1 0 .3.1.7 0 1v1c0 .3-.3.7-.3 1v2c0 .4-.2.7-.2 1v2c0 .3.1.6.2 1 0 .3-.2.6-.2 1 0 .3.2.6.2.9 0 .3.1.6.1 1 0 .3.1.6.1 1 0 .3.1.6.1.9v1c0 .3-.2.7-.1 1 0 .3.1.6.2.9 0 .3.3.6.3.9 0 .3-.1.7 0 1 0 .3.1.6.1 1 0 .3-.2.7-.1 1 0 .3.2.7.2 1-.3.1-.8 0-1 .2-.3.2-.4.6-.6.8-.2.3-.3.5-.5.8-.1.3-.4.5-.5.8-.1.3 0 .7 0 1-.1.3 0 .7-.1 1-.1.5-.2.9-.2 1 .5 0 .5.1 1 .1 0 0-.1-.6 0-1.2 0-.3.1-.7.2-1 .1-.3.3-.6.4-1 .1-.3.3-.6.6-.9.2-.3.4-.6.8-.8v.9c0 .3-.1.6-.1.8v1c0 .5.1.5.1 1s-.1.5-.1 1-.3.7 0 1.1c.4.4.8.4 1.1 0 .4-.4 0-.6 0-1.1 0-.5-.2-.5-.2-1s.1-.5.1-1 .1-.5.1-1c0-.2.1-.5.1-.9 0-.3-.1-.5-.1-.8.3 0 .4.2.7.4.2.2.4.4.5.7.1.3.3.5.4.8.1.3.1.6.1.9.1.3.3.6.4.9 0 .4-.1.8-.1 1 .5.1.5.1 1 .1 0 0 .1-.6 0-1.1v-.9c0-.3-.1-.6-.2-.9-.1-.3-.5-.5-.6-.8-.1-.3 0-.7-.1-.9-.2-.3-.4-.5-.6-.7-.2-.2-.5-.2-.8-.3-.2 0-.5-.1-.8-.2z" style="fill:#0d695c"/><g style="opacity:.65"><path d="M34.1 37s0 .1 0 0zm.2.1s.1-.1 0-.1v.1c-.1 0-.1 0 0 0l-.1-.1c0 .1 0 .1.1.1zm2.1.1zm1.3.1zm.2.1s0-.1 0 0zm-1.5-.2zm-1.9-.2zm1.3.3zm-.4 0zm-.8-.1zm1.5.1zm-2.4.3zm.4-.4h.1zm4.2.2c0 .1 0 0 0 0zm-.5 2.5c0 .1-.1.1 0 .1 0 0 .1 0 0-.1zM34.6 37zm3.2 3zm.9-2.2c.1 0 .1 0 0 0 .1 0 .1 0 0 0zm-.2-.4zm.3.7zm-.1.4h.1zm-5.2.3c0-.1 0-.1 0 0 0-.1 0-.1 0 0zm1-1.8c.1 0 .1 0 0 0zm4.8 1.2c-.1 0 0 0 0 0zm-4 2.2zm3.9-1.9zm-5.7.2z" style="fill:#fff"/><path d="M33.5 38.3c0 .1.1 0 .1.1s-.1 0-.1 0l.1.1v.2h.1v.1h-.1c0 .1.1.1 0 .2-.1 0 0-.1-.1-.1v-.1h-.1v.2h.1c.1.1-.2.1-.1.2 0 0 .1 0 .1.1h-.1c0 .1.1.1.1.1v-.1c-.1.1 0 0 0 .1h-.1c0 .1.1.2.1.3h-.1c.1.1.1.3.2.5h.1c.1.1 0 0 .1 0v.1h.4c.1 0 .1-.1.1-.1.1 0 .3 0 .4.1 0-.1.1 0 .1-.1.1.1.1.1.2.1 0 0 0-.1.1-.1v.1l.1-.1v.1c.1 0 .1 0 .1.1l.1-.1c.1-.1 0 .1.1 0h.5v-.1.1-.1.2s.1.1.1 0h.2c0-.1 0 0 .1-.1.1 0 .1.1.2.1s0 0 0-.1c0 .1.1 0 0 .1.1 0 .1 0 .2-.1s.3.1.4 0l.1-.1c.1 0 0 0 0 .1.1-.1.2 0 .3 0 0 .1.1.1.2.1h.2c0-.1.1-.1.1-.1 0-.1 0 0 .1-.1h-.1c.1-.3.3-.4.4-.6 0-.1-.1-.1 0-.2v.1c0-.2.2-.3.2-.5.1 0 0-.1 0-.1h.1v-.2c0-.1 0-.1.1-.2 0 0 .1-.1 0-.1.1 0 .1-.1.1-.2h.1s0-.1-.1-.1c.1-.1-.1-.2.1-.2-.1-.2-.1-.3-.2-.4.1 0 .1.1.2.1l-.3-.3h.1c-.1-.1-.2-.2-.4-.2h-.1c0 .1-.1.1-.1.1.1-.1-.1-.1 0-.2v.1-.1c-.1 0-.1.1-.1.1s-.1.1-.1 0c-.1 0-.2.1-.3.1v-.1h-.1s-.1.1-.1 0h-.1.1s0 .1-.1.1h-.2v-.1c0 .1-.1 0-.1.1v-.1.1-.1c-.1 0 0 .1-.1.1h-.2c0-.1.1 0 0-.1-.1 0-.2.1-.3.1 0 .1-.1-.1-.1 0 0 0 0-.1 0 0-.1 0-.1 0-.3.1H36v.1c-.1-.2-.3.1-.4 0h-.1v.1h-.1v-.1c-.1-.1 0 .1-.1 0h-.1v-.1s-.1.1-.1 0h.1c0-.1 0 0-.1-.1H35c-.1.1-.1 0-.2.1.1-.1 0-.1 0-.1v-.1h-.1V37v.1c-.1.1-.2-.1-.3 0-.1 0-.1.1-.2.1v-.1h-.1V37s0 .1-.1 0v-.1l-.1.1v-.1s-.1 0-.1.1v-.1h.1c0 .1.1 0 .2 0v.1l.1-.1v.1h.1s0 .1 0 0c.1 0 .1-.1.1 0 .1 0 0-.1.1-.1v.2-.2c0 .1.1 0 .1.1v-.1c0 .1.1 0 .1 0 0 .1-.1 0 0 .1 0-.1.1 0 .1 0 0-.1.1 0 .1-.1 0 0 .1 0 .2.1 0-.1.1-.1.1-.1v.2c.1 0 .1-.1.2 0 0-.1-.1-.1 0-.2v.2s.1 0 .1.1v-.1c.1 0 0 0 .1.1v-.1s.1 0 .1-.1c.1-.1.2 0 .3 0 .1 0 .1 0 .2-.1v.1h.2c0 .1 0 .1.1 0h.1v.1c.1.1.2-.1.3 0 0 0-.1 0 0-.1.1 0 .1.1.1.1.1 0 .1-.1.1-.1v-.1c.1 0 .1.1 0 .1 0 0 .1 0 .1.1V37h.2c.1 0 0 0 .1-.1 0 0 0 .1.1.1v.1h.1V37h.1c-.1 0 0 .1-.1.1 0 .1 0-.1.1-.1v.1-.1h.2c.1 0 0 .1.1.1v.1c.1 0 0 .1.1.1h.1-.1.1-.1.1c0 .1.1 0 .1.1l-.1.1c0 .1.1 0 .1.1v.1h-.1s0 .1.1.1h-.1c0 .1.1.1.1.2h-.1v.1s.1 0 0 0h.1c-.1.1 0 .2-.2.3v.2c-.1.1.1.1 0 .1s0-.1 0 0c-.1 0 0 .1-.1.1s0 .1 0 .2v.2H38s.1 0 .1.1H38c-.1 0 0 .1-.1.1v.2c0 .1-.1 0 0 .1h-.1v.2-.2.3c-.1-.1-.1.1-.2.1 0 .1-.1 0-.1 0v.1l.2-.2v-.1c-.1 0 0-.1-.1-.1 0 0 0 .1-.1 0l.1.1c-.1.1-.1-.1-.2 0 0 0-.2 0-.2.1v-.1c-.1 0-.3.1-.3 0 0 0 0 .1-.1 0 0 0-.1.1-.1 0-.1 0-.2.1-.3.1 0-.1-.1-.1-.1-.1-.1 0-.2.1-.3.1-.1-.1-.3 0-.4-.1v.1s-.1.1-.1 0-.1-.1-.1-.1v.1c-.1-.2-.3.1-.4-.1 0 0-.1 0-.1.1v-.1h-.2c-.1 0-.1.2-.1.2V40c-.1 0-.2-.1-.3 0 0 0-.2-.1-.2.1 0-.1-.1 0-.1 0V40c0 .1 0 .1-.1.1 0 0-.1.1-.1 0h-.1V40h-.1c0-.1-.1-.1-.1-.1v.1s0-.1.1-.1c0 0-.1 0-.1-.1v-.1h-.1v.1s-.1 0 0-.1h-.1c.1 0 .1-.1.2-.1 0-.1 0-.2-.1-.2 0 0 0-.1-.1-.2 0-.1.1 0 .1 0 .1-.1-.2-.3 0-.4.1-.2 0-.4.2-.6v-.1h.1l.3-.3c0-.1.2-.1.1-.2 0 0 0-.1.1-.1v-.1c0-.1.1 0 .2-.1l-.1-.1h-.1c-.1 0-.2-.1-.3 0v.1-.1.1h-.1l.1.1h-.1s.1 0 .1.1h-.1v.1c-.1 0 0 .1-.1.1 0 0 .1.1 0 .1-.1-.1 0 .1-.1.1.1.1 0 .1 0 .2l-.1.1c.1 0 .1.1.1.1-.1 0-.1 0-.2-.1.1 0 0 .1.1.1h-.1c.1 0 0 0 .1.1v-.1c0 .1 0 0 0 0zm0 1.4zm.1.2c0-.1 0-.1 0 0 0-.1 0-.1 0 0zm.3-.3zm-.1-.1zm2.6-2.3zm-1.3 3.2zm.6-3.4zm-.2 0zm-.2 0zm3.3 0s.1 0 0 0c.1 0 .1 0 0 0zm-1 .1s0-.1 0 0c0-.1 0-.1 0 0zm1.7 1.1zM37.7 37s-.1 0 0 0c-.1 0 0 0 0 0zm-3.3 0zm0 0c-.1 0-.1 0 0 0zm-.1 0zm.3 0zm.1 0z" style="fill:#fff"/><path d="M35.1 37.2c-.1.1-.1.1 0 0 0 .2-.1 0 0 0zm.2.1zm1.6 0zm.3-.3h-.1zm.1.4h.1zm1.4 1c.1 0 0 0 0 0zm-.3 1c-.1 0-.1 0 0 0-.1.1 0 0 0 0zm-3 .5h.1-.1z" style="fill:#fff"/></g><g style="opacity:.65"><path d="M75.1 29s0 .1 0 0zm.2.1s.1-.1 0-.1v.1c-.1 0-.1 0 0 0l-.1-.1c0 .1 0 .1.1.1zm2.1.1zm1.3.1zm.2.1s0-.1 0 0zm-1.5-.2zm-1.9-.2zm1.3.3zm-.4 0zm-.8-.1zm1.5.1zm-2.4.3zm.4-.4h.1zm4.2.2c0 .1 0 0 0 0zm-.5 2.5c0 .1-.1.1 0 .1 0 0 .1 0 0-.1zM75.6 29zm3.2 3zm.9-2.2c.1 0 .1 0 0 0 .1 0 .1 0 0 0zm-.2-.4zm.3.7zm-.1.4h.1zm-5.2.3c0-.1 0-.1 0 0 0-.1 0-.1 0 0zm1-1.8c.1 0 .1 0 0 0zm4.8 1.2c-.1 0 0 0 0 0zm-4 2.2zm3.9-1.9zm-5.7.2z" style="fill:#fff"/><path d="M74.5 30.3c0 .1.1 0 .1.1s-.1 0-.1 0l.1.1v.2h.1v.1h-.1c0 .1.1.1 0 .2-.1 0 0-.1-.1-.1v-.1h-.1v.2h.1c.1.1-.2.1-.1.2 0 0 .1 0 .1.1h-.1c0 .1.1.1.1.1v-.1c-.1.1 0 0 0 .1h-.1c0 .1.1.2.1.3h-.1c.1.1.1.3.2.5h.1c.1.1 0 0 .1 0v.1h.4c.1 0 .1-.1.1-.1.1 0 .3 0 .4.1 0-.1.1 0 .1-.1.1.1.1.1.2.1 0 0 0-.1.1-.1v.1l.1-.1v.1c.1 0 .1 0 .1.1l.1-.1c.1-.1 0 .1.1 0h.5v-.1.1-.1.2s.1.1.1 0h.2c0-.1 0 0 .1-.1.1 0 .1.1.2.1s0 0 0-.1c0 .1.1 0 0 .1.1 0 .1 0 .2-.1s.3.1.4 0l.1-.1c.1 0 0 0 0 .1.1-.1.2 0 .3 0 0 .1.1.1.2.1h.2c0-.1.1-.1.1-.1 0-.1 0 0 .1-.1h-.1c.1-.3.3-.4.4-.6 0-.1-.1-.1 0-.2v.1c0-.2.2-.3.2-.5.1 0 0-.1 0-.1h.1v-.2c0-.1 0-.1.1-.2 0 0 .1-.1 0-.1.1 0 .1-.1.1-.2h.1s0-.1-.1-.1c.1-.1-.1-.2.1-.2-.1-.2-.1-.3-.2-.4.1 0 .1.1.2.1l-.3-.3h.1c-.1-.1-.2-.2-.4-.2h-.1c0 .1-.1.1-.1.1.1-.1-.1-.1 0-.2v.1-.1c-.1 0-.1.1-.1.1s-.1.1-.1 0c-.1 0-.2.1-.3.1v-.1h-.1s-.1.1-.1 0h-.1.1s0 .1-.1.1h-.2v-.1c0 .1-.1 0-.1.1v-.1.1-.1c-.1 0 0 .1-.1.1h-.2c0-.1.1 0 0-.1-.1 0-.2.1-.3.1 0 .1-.1-.1-.1 0 0 0 0-.1 0 0-.1 0-.1 0-.3.1H77v.1c-.1-.2-.3.1-.4 0h-.1v.1h-.1v-.1c-.1-.1 0 .1-.1 0h-.1v-.1s-.1.1-.1 0h.1c0-.1 0 0-.1-.1H76c-.1.1-.1 0-.2.1.1-.1 0-.1 0-.1v-.1h-.1V29v.1c-.1.1-.2-.1-.3 0-.1 0-.1.1-.2.1v-.1h-.1V29s0 .1-.1 0v-.1l-.1.1v-.1s-.1 0-.1.1v-.1h.1c0 .1.1 0 .2 0v.1l.1-.1v.1h.1s0 .1 0 0c.1 0 .1-.1.1 0 .1 0 0-.1.1-.1v.2-.2c0 .1.1 0 .1.1v-.1c0 .1.1 0 .1 0 0 .1-.1 0 0 .1 0-.1.1 0 .1 0 0-.1.1 0 .1-.1 0 0 .1 0 .2.1 0-.1.1-.1.1-.1v.2c.1 0 .1-.1.2 0 0-.1-.1-.1 0-.2v.2s.1 0 .1.1v-.1c.1 0 0 0 .1.1v-.1s.1 0 .1-.1c.1-.1.2 0 .3 0 .1 0 .1 0 .2-.1v.1h.2c0 .1 0 .1.1 0h.1v.1c.1.1.2-.1.3 0 0 0-.1 0 0-.1.1 0 .1.1.1.1.1 0 .1-.1.1-.1v-.1c.1 0 .1.1 0 .1 0 0 .1 0 .1.1V29h.2c.1 0 0 0 .1-.1 0 0 0 .1.1.1v.1h.1V29h.1c-.1 0 0 .1-.1.1 0 .1 0-.1.1-.1v.1-.1h.2c.1 0 0 .1.1.1v.1c.1 0 0 .1.1.1h.1-.1.1-.1.1c0 .1.1 0 .1.1l-.1.1c0 .1.1 0 .1.1v.1h-.1s0 .1.1.1h-.1c0 .1.1.1.1.2h-.1v.1s.1 0 0 0h.1c-.1.1 0 .2-.2.3v.2c-.1.1.1.1 0 .1s0-.1 0 0c-.1 0 0 .1-.1.1s0 .1 0 .2v.2H79s.1 0 .1.1H79c-.1 0 0 .1-.1.1v.2c0 .1-.1 0 0 .1h-.1v.2-.2.3c-.1-.1-.1.1-.2.1 0 .1-.1 0-.1 0v.1l.2-.2v-.1c-.1 0 0-.1-.1-.1 0 0 0 .1-.1 0l.1.1c-.1.1-.1-.1-.2 0 0 0-.2 0-.2.1v-.1c-.1 0-.3.1-.3 0 0 0 0 .1-.1 0 0 0-.1.1-.1 0-.1 0-.2.1-.3.1 0-.1-.1-.1-.1-.1-.1 0-.2.1-.3.1-.1-.1-.3 0-.4-.1v.1s-.1.1-.1 0-.1-.1-.1-.1v.1c-.1-.2-.3.1-.4-.1 0 0-.1 0-.1.1v-.1h-.2c-.1 0-.1.2-.1.2V32c-.1 0-.2-.1-.3 0 0 0-.2-.1-.2.1 0-.1-.1 0-.1 0V32c0 .1 0 .1-.1.1 0 0-.1.1-.1 0h-.1V32h-.1c0-.1-.1-.1-.1-.1v.1s0-.1.1-.1c0 0-.1 0-.1-.1v-.1h-.1v.1s-.1 0 0-.1h-.1c.1 0 .1-.1.2-.1 0-.1 0-.2-.1-.2 0 0 0-.1-.1-.2 0-.1.1 0 .1 0 .1-.1-.2-.3 0-.4.1-.2 0-.4.2-.6v-.1h.1l.3-.3c0-.1.2-.1.1-.2 0 0 0-.1.1-.1v-.1c0-.1.1 0 .2-.1l-.1-.1h-.1c-.1 0-.2-.1-.3 0v.1-.1.1h-.1l.1.1h-.1s.1 0 .1.1h-.1v.1c-.1 0 0 .1-.1.1 0 0 .1.1 0 .1-.1-.1 0 .1-.1.1.1.1 0 .1 0 .2l-.1.1c.1 0 .1.1.1.1-.1 0-.1 0-.2-.1.1 0 0 .1.1.1h-.1c.1 0 0 0 .1.1v-.1c0 .1 0 0 0 0zm0 1.4zm.1.2c0-.1 0-.1 0 0 0-.1 0-.1 0 0zm.3-.3zm-.1-.1zm2.6-2.3zm-1.3 3.2zm.6-3.4zm-.2 0zm-.2 0zm3.3 0s.1 0 0 0c.1 0 .1 0 0 0zm-1 .1s0-.1 0 0c0-.1 0-.1 0 0zm1.7 1.1zM78.7 29s-.1 0 0 0c-.1 0 0 0 0 0zm-3.3 0zm0 0c-.1 0-.1 0 0 0zm-.1 0zm.3 0zm.1 0z" style="fill:#fff"/><path d="M76.1 29.2c-.1.1-.1.1 0 0 0 .2-.1 0 0 0zm.2.1zm1.6 0zm.3-.3h-.1zm.1.4h.1zm1.4 1c.1 0 0 0 0 0zm-.3 1c-.1 0-.1 0 0 0-.1.1 0 0 0 0zm-3 .5h.1-.1z" style="fill:#fff"/></g><g style="opacity:.65"><path d="M86.9 37.8c.1-.1.1-.1 0 0zm-.2-.2-.1.1c.1 0 .1 0 .1-.1.1.1.1.1 0 0l.1.1c0-.1 0-.1-.1-.1 0 .1 0 0 0 0zm-3.2-.1c.1 0 .1 0 0 0zm-1.9 0zm-.4-.1c.1 0 .1 0 0 0 .1 0 0 0 0 0zm2.3.1zm2.8.3zm-1.9-.3v-.1zm.7 0zm1 .1zm-2.2-.1s0-.1 0 0c0-.1 0 0 0 0zm3.5-.6c0 .1 0 .1 0 0zm-.5.7zm-6.2-.3zm.7-3.9c-.1-.1.1-.1 0-.1 0 0-.1.1 0 .1zm4.9 4.4zm-4.9-4.5zm-1.5 3.4zm.4.6zm-.5-1.1c.1 0 .1 0 0 0 .1-.1.1 0 0 0zm.2-.6-.1.1zm7.8-.4c-.1 0-.1 0 0 0 0 0 0 .1 0 0zm-1.5 2.6zm-6.9-1.7c0-.1 0 0 0 0zm5.8-3.2zm-5.7 2.8zm8.2-.5z" style="fill:#fff"/><path d="M87.7 35.9c0-.1-.1-.1-.1-.1 0-.1.1 0 .1-.1s-.1-.1-.1-.2v-.3h-.1v-.1c.1 0 0 .1.1.1 0-.1-.1-.2 0-.2s0 .1.1.1v.1c.1-.1 0 .1.1 0v-.3h-.1c-.1-.2.2-.1.1-.3l-.1-.1h.1c0-.1-.1-.1-.1-.2v.1c.1-.1 0-.1 0-.1h.1c0-.1-.1-.3-.1-.4h.1c-.1-.2-.1-.4-.3-.6h-.1c-.1-.1 0 0-.1 0v-.1c-.2 0-.5 0-.6-.1-.1 0-.1.1-.2.1-.2 0-.4 0-.6-.1 0 .1-.2 0-.2.1-.1-.1-.1-.1-.3-.1l-.1.1v-.3h-.1c-.1 0-.2 0-.2-.1l-.2.1h.1c-.1.1 0-.1-.1 0h-.7c.1 0 0 .1 0 .1v-.1.1c-.1 0 0-.1 0-.1H84v-.1s-.1-.1-.2 0h-.4c0 .1-.1 0-.1.1-.1 0-.2-.1-.3-.1-.1 0 0 0-.1.1 0-.1-.1 0-.1-.1-.1 0-.2 0-.4.1h-.1c-.2.1-.5-.1-.6 0l.1.1c-.1 0 0 0 0-.1-.2.1-.3 0-.4 0-.1-.1-.1-.1-.3-.1h-.3c0 .1-.1.1-.2.2 0 .1-.1.1-.1.1h.1c-.1.3-.4.6-.6.9-.1.1.1.1 0 .3v-.1c0 .3-.2.5-.3.7v-.1c-.1 0-.1.2 0 .2h-.1v.2s-.1.2 0 .1c-.1.1 0 .2-.1.2 0 .1-.1.2 0 .2-.1 0-.1.2-.1.2h-.1v.1c-.1.1.1.3-.1.4.1.2.1.4.3.6-.1 0-.1-.2-.2-.2.1.2.2.3.4.4h-.1c.1.1.2.1.2.2.1 0 .2.1.3.1h.1c0-.1.2-.1.2-.1-.1.1.1.1 0 .2h.1v.1c.1 0 .1-.1.2 0 .1 0 .1-.1.2 0 .2 0 .2-.1.4-.1 0 .1.1 0 .1.1h.1c.1 0 .1-.1.2 0h-.1.1-.1c.1 0 0-.1.1-.1h.2v.1c0-.1.2 0 .2-.1v.1-.1.1c.1 0 0-.1.1-.1h.3c0 .1-.1 0-.1.1.2 0 .3-.1.5-.1 0-.1.1.1.2 0 0 0 0 .1 0 0 .1 0 .2 0 .4-.1h.2s.1 0 0-.1c.2.2.4-.1.6 0 0 0-.1 0 0 0h.2l-.1-.1h.1c-.1 0 0 .1 0 .1.1.1 0-.1.1 0h.1v.1c.1 0 .1-.1.2 0h-.1c.1.1.1 0 .1.1h.1c.1-.1.2 0 .3-.1-.1.1 0 .1 0 .1s.1 0 .1.1h.2s.1 0 0 .1c.1 0 0 0 0-.1.1-.1.2.1.4 0 .1 0 .1-.1.3-.1v.1h.2v.1s0-.1.1 0v.1c.1 0 .1-.1.2-.1 0 0 0 .1-.1.1.1 0 .2 0 .2-.1v.1h-.1c0-.1-.2 0-.2 0v-.1l-.1.1v-.1h-.2s0-.1 0 0c-.1 0-.2.1-.2 0-.1 0 0 .1-.1.1l-.1-.2v.1c-.1 0 0 0 0 .1-.1-.1-.2 0-.2-.1 0 0 .1 0 0 .1 0-.1-.1 0-.2 0 0-.1.1 0 0-.1 0 .1-.1 0-.2 0 0 .1-.1 0-.2.1 0 0-.2 0-.3-.1 0 .1-.1.1-.2.1v-.1h-.2v-.1c-.1 0-.2.1-.3 0 0 .1.1.1 0 .2v-.1h-.2v-.1s-.1 0-.1-.1v.1c-.1 0 0 0-.1-.1 0 0-.1 0-.1.1 0 0-.2 0-.1.1-.1.1-.3 0-.4 0-.1 0-.2 0-.2.1 0 0-.1 0 0-.1h-.2.1-.2c0-.1-.1-.1-.1 0h.1-.1v-.1c-.2-.1-.3.1-.4 0 0 0 .1 0 .1.1-.1 0-.2-.1-.2-.1-.1 0-.1.1-.2.1 0 0 0 .1-.1.1s-.1-.1 0-.1c0 0 .1 0 0 0 0 0-.1 0-.1-.1-.1 0 0 0 0 .1h-.3c-.1 0-.1 0-.2.1-.1 0 0-.1-.1-.1s0-.1 0-.1c-.1 0-.2 0-.2-.1h-.1v.1h-.1c.1 0 0-.1.1-.1h-.1c-.1-.1-.1.1-.2 0v-.1.1c-.1-.1-.1 0-.1 0h-.1c-.1 0-.1-.1-.1-.1v-.1c-.1 0 0-.1-.1-.1h-.1s.1 0 .1.1h-.1s.1 0 .1.1h-.1c0-.1-.1 0-.1-.1l.2-.4c0-.1-.1-.1-.1-.2v-.1l.1-.1s0-.1-.1-.1l.1-.1c0-.1-.1-.1-.1-.2 0 0 .1 0 .1.1v-.2s-.1 0 0-.1c0 0 0-.1-.1 0 .1-.1.1-.3.2-.4v-.3c.1-.1-.1-.1 0-.2.1 0 0 .1 0 0 .1 0 0-.1.1-.2.1 0 0-.2.1-.2v-.3s0 .1.1.1c0 0-.1 0-.1-.1 0 0 .1-.1.1 0v.1c.1 0 0-.1.1-.1v-.3c0-.1.1 0 .1-.1h.1v-.3.2s.1-.1.1-.2v.1-.2c.1.1.2-.2.3-.2 0-.1 0-.1.1-.1h.2c-.1-.1.1 0 0-.1h.1l.1.1v.1c.1 0 0 .1.1.1 0 0 0-.1.1 0l-.1-.1c.1-.1.1.1.3 0 .1 0 .3 0 .3-.1v.1c.2 0 .4-.1.5 0 0 0 .1-.1.1 0 0 0 .1-.1.1 0 .2 0 .3-.1.4-.1 0 .1.1.1.2.1.2 0 .3-.1.5-.1.1.1.4 0 .6.1v-.1s.1-.1.1 0 .1.1.2.1v-.1c.2.2.5-.1.6.1 0 0 .1 0 .1-.1v.1h.3c.1 0 .1-.2.2-.2v.1c.1 0 .3.1.4 0 .1 0 .3.1.2-.1 0 .1.2 0 .2 0v.1c0-.1.1-.1.1-.1s.1-.1.1 0h.1s.1.1 0 .1h.1c0 .1.1.1.1.2v-.1s0 .1-.1.1c0 0 .2.1.1.2v.2h.1v-.1s.1.1 0 .1h.1c-.1.1-.1.2-.2.2 0 .1 0 .3.1.4h-.1v-.1c0 .1 0 .2.1.2 0 .1-.1-.1-.1.1-.1.2.1.4-.1.6-.1.3-.1.6-.2.9v.2h-.1v.1c0 .1-.2.2-.1.3 0 .1 0 .2-.1.2v.1c-.1.1-.1-.1-.2.1 0 .1 0 .2.1.2 0 0 0-.1.1 0v.1c.1 0 .2.1.3 0v-.1h.1v.1c.1 0 0-.1 0-.1h.1l-.1-.1s.1.1.1 0-.1 0-.1-.1c.1 0 .1 0 .1-.1v-.2c.1 0 0-.2.1-.1v-.1c.1.1 0-.2.2-.1-.1-.1 0-.2 0-.3 0-.1.1-.1.1-.1-.1 0-.1-.1-.1-.2.1-.1.1.1.2.1-.1 0 0-.1-.1-.1.1 0 0 0 .1-.1-.1 0 0-.1-.1-.1s-.1.1-.1.1c0-.1 0 0 0 0zm0-2.1zm0-.2c0 .1-.1.1 0 0 0 .1 0 0 0 0zm-.4.4c.1 0 .1 0 0 0 .1 0 .1 0 0 0zm.1 0v.1-.1zm-3.8 3.5zm1.8-4.6zm-.9 4.8zm.4 0c0 .1 0 0 0 0zm.3.1zm-5-.1zm1.6 0c-.1 0-.1 0 0 0-.1 0 0 0 0 0zm-2.4-1.6zm2.2 1.6c.1 0 .1 0 0 0 .1 0 .1 0 0 0zm5 .1zm0 0zm0 0zm-.4 0c-.1 0 0 0 0 0z" style="fill:#fff"/><path d="M86 37.8h.1s0-.1-.1 0zm-.5-.3h.1v-.1c-.1 0 0 .1-.1.1zm-.3 0s-.1 0 0 0zm-2.4 0c0-.1 0 0 0 0zm-.4.3.1-.1zm-.3-.4zM80 35.7c-.1.1 0 .1 0 0zm.6-1.5c0-.1 0 0 0 0zm4.4-.8h-.1.1z" style="fill:#fff"/></g><g style="opacity:.65"><path d="M91.1 31.9s0-.1 0 0zm-.2-.2s-.1.1 0 .1v-.1c.1.1.1.1 0 0l.1.1s0-.1-.1-.1c0 .1 0 .1 0 0zm-2.3-.1zm-1.5 0zm-.3-.1c.1 0 0 0 0 0zm1.8.1c-.1 0 0 0 0 0zm2 .3zm-1.4-.3zm.5 0zm.8.1zm-1.6-.1zm2.6-.3zm-.4.4zm-4.7-.3zm.5-2.8c0-.1.1-.1 0-.1.1 0 0 .1 0 .1zm3.7 3.3zM87 28.5h-.1zM85.9 31zm.3.5zm-.4-.8c0-.1.1-.1 0 0 0-.1.1-.1 0 0zm.1-.4zm5.9-.3zm-1.2 1.9zm-5.2-1.3c0-.1 0 0 0 0zm4.4-2.4zm-4.3 2.1s0-.1 0 0zm6.2-.3z" style="fill:#fff"/><path d="M91.8 30.4c0-.1-.1 0-.1-.1s.1 0 .1 0c0-.1-.1-.1-.1-.1V30h-.1v-.1c.1 0 0 0 .1.1 0-.1-.1-.1 0-.2.1 0 0 .1.1.1v.1h.1v-.2h-.1c-.1-.1.2-.1.1-.2 0 0-.1 0-.1-.1h.1c0-.1-.1-.1-.1-.2v.1c.1-.1 0 0 0-.1h.1c0-.1-.1-.2-.1-.3h.1c-.1-.1-.1-.3-.2-.5h-.1c-.1-.1 0 0-.1 0v-.1H91c-.1 0-.1.1-.1.1-.2 0-.3 0-.5-.1 0 .1-.2 0-.2.1-.1-.1-.1-.1-.2-.1l-.1.1v-.1l-.1.1v-.1c-.1 0-.1 0-.2-.1l-.1.1c-.1.1 0-.1-.1 0h-.5v.1-.1.1-.1h-.1v-.1s-.1-.1-.1 0h-.3c0 .1 0 0-.1.1-.1 0-.2-.1-.2-.1-.1 0 0 0 0 .1 0-.1-.1 0 0-.1-.1 0-.1 0-.3.1h-.1c-.1.1-.3-.1-.5 0l-.1.1c-.1 0 0 0 0-.1-.1.1-.2 0-.3 0-.1-.1-.1-.1-.3-.1h-.2c0 .1-.1.1-.1.1 0 .1 0 0-.1.1h.1c-.1.3-.3.4-.5.7-.1.1.1.1 0 .2v-.1c0 .2-.2.4-.2.6-.1 0-.1.1 0 .2h-.1v.2c0 .1 0 .1-.1.2 0 0-.1.1 0 .1-.1 0-.1.1-.1.2h-.1c0 .1 0 .1.1.1-.1.1.1.2-.1.3.1.2.1.3.2.5-.1 0-.1-.2-.2-.1l.3.3h-.1c.1.1.2.2.4.2h.1c0-.1.1-.1.1-.1-.1.1.1.1 0 .2v.1c.1 0 .1-.1.1 0 0 0 .1-.1.2 0 .1 0 .2-.1.3-.1v.1h.1c.1 0 .1-.1.1 0h.1-.1c.1 0 0-.1.1-.1h.2v.1c0-.1.1 0 .2-.1v.1-.1.1c.1 0 0-.1.1-.1h.3c0 .1-.1 0 0 .1.1 0 .2-.1.4-.1 0-.1.1.1.1 0 0 0 0 .1 0 0 .1 0 .2 0 .3-.1h.2V32c.2.2.3-.1.4 0h.1v-.1h.1c-.1 0 0 .1 0 .1.1.1 0-.1.1 0h.1v.1s.1-.1.1 0h-.1c0 .1.1 0 .1.1h.1c.1-.1.1 0 .2-.1-.1.1 0 .1 0 .1s.1 0 0 .1h.1v.1-.1c.1-.1.2.1.3 0 .1 0 .1-.1.2-.1v.1h.1v.1s0-.1.1 0v.1l.1-.1v.1s.1 0 .1-.1v.1h-.1c0-.1-.1 0-.2 0v-.1l-.1.1v-.1h-.1s0-.1 0 0c-.1 0-.1.1-.2 0-.1 0 0 .1-.1.1l-.1-.2v.2c-.1-.1-.1 0-.2-.1 0 0 .1 0 0 .1 0-.1-.1 0-.1 0 0-.1.1 0 0-.1 0 .1-.1 0-.1 0 0 .1-.1 0-.2.1 0 0-.1 0-.2-.1 0 .1-.1.1-.1.1v-.1h-.1v-.1c-.1 0-.1.1-.2 0 0 .1.1.1 0 .2v-.2s-.1 0-.1-.1v.1c-.1 0 0 0-.1-.1 0 0-.1 0-.1.1 0 0-.1 0-.1.1-.1.1-.2 0-.3 0-.1 0-.1 0-.2.1v-.1h-.2c0-.1 0-.1-.1 0h-.1v-.1c-.1-.1-.2.1-.3 0 0 0 .1 0 0 .1-.1 0-.1-.1-.1-.1-.1 0-.1.1-.2.1v.1c-.1 0-.1-.1 0-.1 0 0-.1 0-.1-.1v.1h-.2c-.1 0 0 0-.1.1 0 0 0-.1-.1-.1v-.1c-.1 0-.1 0-.1-.1v.1h-.1c.1 0 0-.1.1-.1-.1-.1 0 .1-.1.1v-.1.1h-.2c-.1 0-.1-.1-.1-.1v-.1c-.1 0 0-.1-.1-.1h-.1.1-.1.1-.1c0-.1-.1 0-.1-.1l.1-.1c0-.1-.1-.1-.1-.2v-.1h.1s0-.1-.1-.1h.1c0-.1-.1-.1-.1-.2h.1V31s-.1 0 0-.1c0 0 0-.1-.1 0 .1-.1 0-.2.2-.3v-.2c.1-.1-.1-.1 0-.2.1 0 0 .1 0 0 .1 0 0-.1.1-.1s0-.1 0-.2v-.2l.1.1s-.1 0-.1-.1h.1v.1c.1 0 0-.1.1-.1v-.2c0-.1.1 0 0-.1h.1v-.2.2s.1-.1 0-.1v-.2c.1.1.1-.1.3-.1v-.1h.1c-.1-.1 0 0 0-.1h.1l.1.1v.1c.1 0 0 .1.1.1 0 0 0-.1.1 0l-.1-.1c.1-.1.1.1.2 0 .1 0 .2 0 .3-.1v.1c.1 0 .3-.1.4 0 0 0 0-.1.1 0 0 0 .1-.1.1 0 .1 0 .2-.1.3-.1 0 .1.1.1.1.1.1 0 .3-.1.4-.1.1.1.3 0 .4.1v-.1s.1-.1.1 0 .1.1.1.1v-.1c.1.2.4-.1.4.1 0 0 .1 0 .1-.1v.1h.2c.1 0 .1-.2.1-.2v.1c.1 0 .2.1.3 0 .1 0 .2.1.2-.1 0 .1.1 0 .2 0v.1c0-.1 0-.1.1-.1 0 0 .1-.1.1 0h.1s.1.1 0 .1h.1c0 .1.1.1.1.2V29s0 .1-.1.1l.1.1v.1h.1v-.1s.1 0 0 .1h.1c-.1 0-.1.1-.2.1 0 .1 0 .2.1.3h-.1c0 .1 0 .1.1.2 0 .1-.1 0-.1 0-.1.2.2.3 0 .5-.1.2 0 .5-.2.7v.1H91l.1.1c0 .1-.2.1-.1.3 0 0 0 .1-.1.1v.1c0 .1-.1 0-.2.1l.1.1h.1c.1 0 .2.1.3 0v-.1.1c.1 0 0-.1 0-.1h.1l-.1-.1s.1.1.1 0c0 0-.1 0-.1-.1h.1v-.1c.1 0 0-.1.1-.1 0 0-.1-.1 0-.1.1.1 0-.1.1-.1-.1-.1 0-.2 0-.3l.1-.1c-.1 0-.1-.1-.1-.1.1 0 .1.1.2.1-.1 0 0-.1-.1-.1h.1c-.1 0 0 0-.1-.1.1-.3.1-.2.2-.3zm-.1-1.6c0 .1 0 .1 0 0 0 .1 0 .1 0 0zm0-.1c0 .1 0 .1 0 0 0 .1 0 0 0 0zm-.3.3c-.1 0 0 0 0 0zm0 .1zm-2.8 2.6zm1.4-3.6v.1-.1zm-.7 3.7c0 .1 0 .1 0 0 0 .1 0 .1 0 0zm.3.1zm.2 0zm-3.7-.1c-.1 0-.1 0 0 0zm1.1 0c0 .1 0 .1 0 0zm-1.8-1.2z" style="fill:#fff"/><path d="M87.1 31.8c.1.1.1.1 0 0 .1 0 .1 0 0 0zm3.7.1zm0 0zm.1 0zm-.4 0zm-.1 0s.1 0 0 0c.1 0 0 0 0 0zm-.4-.3c.1 0 .1 0 0 0 0-.1.1 0 0 0zm-.2 0zm-1.8 0zm-.3.3h.1zm-.2-.4zM86 30.3c-.1.1 0 .1 0 0zm.4-1.1zm3.2-.6v.1l.1-.1z" style="fill:#fff"/></g><g style="opacity:.65"><path d="M31.1 28s0 .1 0 0zm.2.1s.1-.1 0-.1v.1c-.1 0-.1 0 0 0l-.1-.1c0 .1 0 .1.1.1zm2.1.1zm1.3.1zm.2.1s0-.1 0 0zm-1.5-.2zm-1.9-.2zm1.3.3zm-.4 0zm-.8-.1zm1.5.1zm-2.4.3zm.4-.4h.1zm4.2.2c0 .1 0 0 0 0zm-.5 2.5c0 .1-.1.1 0 .1 0 0 .1 0 0-.1zM31.6 28zm3.2 3zm.9-2.2c.1 0 .1 0 0 0 .1 0 .1 0 0 0zm-.2-.4zm.3.7zm-.1.4h.1zm-5.2.3c0-.1 0-.1 0 0 0-.1 0-.1 0 0zm1-1.8c.1 0 .1 0 0 0zm4.8 1.2c-.1 0 0 0 0 0zm-4 2.2zm3.9-1.9zm-5.7.2z" style="fill:#fff"/><path d="M30.5 29.3c0 .1.1 0 .1.1s-.1 0-.1 0l.1.1v.2h.1v.1h-.1c0 .1.1.1 0 .2-.1 0 0-.1-.1-.1v-.1h-.1v.2h.1c.1.1-.2.1-.1.2 0 0 .1 0 .1.1h-.1c0 .1.1.1.1.1v-.1c-.1.1 0 0 0 .1h-.1c0 .1.1.2.1.3h-.1c.1.1.1.3.2.5h.1c.1.1 0 0 .1 0v.1h.4c.1 0 .1-.1.1-.1.1 0 .3 0 .4.1 0-.1.1 0 .1-.1.1.1.1.1.2.1 0 0 0-.1.1-.1v.1l.1-.1v.1c.1 0 .1 0 .1.1l.1-.1c.1-.1 0 .1.1 0h.5v-.1.1-.1.2s.1.1.1 0h.2c0-.1 0 0 .1-.1.1 0 .1.1.2.1s0 0 0-.1c0 .1.1 0 0 .1.1 0 .1 0 .2-.1s.3.1.4 0l.1-.1c.1 0 0 0 0 .1.1-.1.2 0 .3 0 0 .1.1.1.2.1h.2c0-.1.1-.1.1-.1 0-.1 0 0 .1-.1h-.1c.1-.3.3-.4.4-.6 0-.1-.1-.1 0-.2v.1c0-.2.2-.3.2-.5.1 0 0-.1 0-.1h.1v-.2c0-.1 0-.1.1-.2 0 0 .1-.1 0-.1.1 0 .1-.1.1-.2h.1s0-.1-.1-.1c.1-.1-.1-.2.1-.2-.1-.2-.1-.3-.2-.4.1 0 .1.1.2.1l-.3-.3h.1c-.1-.1-.2-.2-.4-.2h-.1c0 .1-.1.1-.1.1.1-.1-.1-.1 0-.2v.1-.1c-.1 0-.1.1-.1.1s-.1.1-.1 0c-.1 0-.2.1-.3.1v-.1h-.1s-.1.1-.1 0h-.1.1s0 .1-.1.1h-.2v-.1c0 .1-.1 0-.1.1v-.1.1-.1c-.1 0 0 .1-.1.1h-.2c0-.1.1 0 0-.1-.1 0-.2.1-.3.1 0 .1-.1-.1-.1 0 0 0 0-.1 0 0-.1 0-.1 0-.3.1H33v.1c-.1-.2-.3.1-.4 0h-.1v.1h-.1v-.1c-.1-.1 0 .1-.1 0h-.1v-.1s-.1.1-.1 0h.1c0-.1 0 0-.1-.1H32c-.1.1-.1 0-.2.1.1-.1 0-.1 0-.1v-.1h-.1V28v.1c-.1.1-.2-.1-.3 0-.1 0-.1.1-.2.1v-.1h-.1V28s0 .1-.1 0v-.1l-.1.1v-.1s-.1 0-.1.1v-.1h.1c0 .1.1 0 .2 0v.1l.1-.1v.1h.1s0 .1 0 0c.1 0 .1-.1.1 0 .1 0 0-.1.1-.1v.2-.2c0 .1.1 0 .1.1v-.1c0 .1.1 0 .1 0 0 .1-.1 0 0 .1 0-.1.1 0 .1 0 0-.1.1 0 .1-.1 0 0 .1 0 .2.1 0-.1.1-.1.1-.1v.2c.1 0 .1-.1.2 0 0-.1-.1-.1 0-.2v.2s.1 0 .1.1v-.1c.1 0 0 0 .1.1v-.1s.1 0 .1-.1c.1-.1.2 0 .3 0 .1 0 .1 0 .2-.1v.1h.2c0 .1 0 .1.1 0h.1v.1c.1.1.2-.1.3 0 0 0-.1 0 0-.1.1 0 .1.1.1.1.1 0 .1-.1.1-.1v-.1c.1 0 .1.1 0 .1 0 0 .1 0 .1.1V28h.2c.1 0 0 0 .1-.1 0 0 0 .1.1.1v.1h.1V28h.1c-.1 0 0 .1-.1.1 0 .1 0-.1.1-.1v.1-.1h.2c.1 0 0 .1.1.1v.1c.1 0 0 .1.1.1h.1-.1.1-.1.1c0 .1.1 0 .1.1l-.1.1c0 .1.1 0 .1.1v.1h-.1s0 .1.1.1h-.1c0 .1.1.1.1.2h-.1v.1s.1 0 0 0h.1c-.1.1 0 .2-.2.3v.2c-.1.1.1.1 0 .1s0-.1 0 0c-.1 0 0 .1-.1.1s0 .1 0 .2v.2H35s.1 0 .1.1H35c-.1 0 0 .1-.1.1v.2c0 .1-.1 0 0 .1h-.1v.2-.2.3c-.1-.1-.1.1-.2.1 0 .1-.1 0-.1 0v.1l.2-.2v-.1c-.1 0 0-.1-.1-.1 0 0 0 .1-.1 0l.1.1c-.1.1-.1-.1-.2 0 0 0-.2 0-.2.1v-.1c-.1 0-.3.1-.3 0 0 0 0 .1-.1 0 0 0-.1.1-.1 0-.1 0-.2.1-.3.1 0-.1-.1-.1-.1-.1-.1 0-.2.1-.3.1-.1-.1-.3 0-.4-.1v.1s-.1.1-.1 0-.1-.1-.1-.1v.1c-.1-.2-.3.1-.4-.1 0 0-.1 0-.1.1v-.1h-.2c-.1 0-.1.2-.1.2V31c-.1 0-.2-.1-.3 0 0 0-.2-.1-.2.1 0-.1-.1 0-.1 0V31c0 .1 0 .1-.1.1 0 0-.1.1-.1 0h-.1V31h-.1c0-.1-.1-.1-.1-.1v.1s0-.1.1-.1c0 0-.1 0-.1-.1v-.1h-.1v.1s-.1 0 0-.1h-.1c.1 0 .1-.1.2-.1 0-.1 0-.2-.1-.2 0 0 0-.1-.1-.2 0-.1.1 0 .1 0 .1-.1-.2-.3 0-.4.1-.2 0-.4.2-.6v-.1h.1l.3-.3c0-.1.2-.1.1-.2 0 0 0-.1.1-.1v-.1c0-.1.1 0 .2-.1l-.1-.1h-.1c-.1 0-.2-.1-.3 0v.1-.1.1h-.1l.1.1h-.1s.1 0 .1.1h-.1v.1c-.1 0 0 .1-.1.1 0 0 .1.1 0 .1-.1-.1 0 .1-.1.1.1.1 0 .1 0 .2l-.1.1c.1 0 .1.1.1.1-.1 0-.1 0-.2-.1.1 0 0 .1.1.1h-.1c.1 0 0 0 .1.1v-.1c0 .1 0 0 0 0zm0 1.4zm.1.2c0-.1 0-.1 0 0 0-.1 0-.1 0 0zm.3-.3zm-.1-.1zm2.6-2.3zm-1.3 3.2zm.6-3.4zm-.2 0zm-.2 0zm3.3 0s.1 0 0 0c.1 0 .1 0 0 0zm-1 .1s0-.1 0 0c0-.1 0-.1 0 0zm1.7 1.1zM34.7 28s-.1 0 0 0c-.1 0 0 0 0 0zm-3.3 0zm0 0c-.1 0-.1 0 0 0zm-.1 0zm.3 0zm.1 0z" style="fill:#fff"/><path d="M32.1 28.2c-.1.1-.1.1 0 0 0 .2-.1 0 0 0zm.2.1zm1.6 0zm.3-.3h-.1zm.1.4h.1zm1.4 1c.1 0 0 0 0 0zm-.3 1c-.1 0-.1 0 0 0-.1.1 0 0 0 0zm-3 .5h.1-.1z" style="fill:#fff"/></g><g style="opacity:.65"><path d="M43 40.2zm.1-.3-.1-.1c0 .1 0 .1.1.1 0 .1-.1.1 0 0-.1.1-.1.2-.1.2.1-.1.1-.1.1-.2zm.6-3c-.1 0-.1 0 0 0zm2.1 0s-.1 0 0 0zm.3.1zm-2.4-.1zm-.8 2.5s0 .1 0 0zm.4-2zm0 .7s-.1 0 0 0c-.1 0-.1 0 0 0-.1 0-.1 0 0 0zm-.1 1.2zm.1-2.2zm-.8 3.8c0-.1 0-.1 0 0zm.6-.7zm3.7-3.1zm3.2 2.6c.1-.1 0 .1.1 0 0 0 0-.1-.1 0zm-7.1-.3zm7.2.3zm-1.8-2.5zm-1.1-.2zm1.7.2zm.6.1zm-6 5.1s-.1 0 0 0zm-.5-3s-.1 0 0 0zm6-2.6c.1 0 0 0 0 0zm-1 5.8c-.1 0 0 0 0 0zm1.4-5.8c0 .1 0 0 0 0zm-5.9 5.6z" style="fill:#fff"/><path d="M42.6 42.3c.2.1.1 0 .2 0 .2.1.1.1.1.1.1 0 .2-.1.2-.1.1-.1.2 0 .3-.1v-.1h.1c0 .1-.1 0-.1.1.1 0 .2-.1.3 0 0 .1-.2 0-.1.1h-.1c.1.1-.1 0 0 .1h.3v-.1c.2 0 .1.2.3.1 0 0 .1-.1.2-.1v.1c.1 0 .1-.1.2 0h-.1c.1.1.1 0 .1 0v.1h.5v.1c.2 0 .4 0 .6.1l.1-.1c.1 0 0 0 0-.1 0 0 .1 0 0 .1.1 0 .4-.1.5 0 .1 0 .1-.1.2-.1.2 0 .5 0 .7.1 0-.1.2 0 .2-.1.1.1.1.1.3.1.1 0 .1-.1.1-.1v.1l.1-.1v.1h.1s-.1 0 0 0 .2 0 .2.1c.1 0 .1-.1.2-.1l-.1.1c.1-.1 0 .1.1 0v-.1h.3c.2 0 .3-.1.5-.1-.1 0-.1-.1 0-.1v.1s-.1 0 0-.1c.1 0 .1.1 0 .1l.1-.1v.1c0-.1.2 0 .2-.1.2-.1.3-.1.4-.2v-.1c.1 0 .2-.2.3-.3v-.1l.1-.1c0-.2.1-.3 0-.5V41c-.1-.2.2-.5.1-.6v-.2c0-.1 0 .1.1 0-.1-.2.1-.3 0-.5.2-.1.1-.4.2-.6V39h-.1c0-.4.2-.7.3-1.1 0-.1-.2-.1-.1-.3l.1.1c0-.2 0-.3-.1-.5s-.4-.4-.5-.3h.1c-.1-.1-.2 0-.2 0v-.1c-.1 0-.1.1-.2 0h-.4c-.1.1-.2 0-.2 0 0-.1-.2-.1-.2-.1s-.1 0 0-.1c-.1 0-.1 0-.1.1-.1-.1-.3.1-.3-.1h-.6c0-.1.2 0 .2-.1-.2 0-.3.1-.5 0h-.6c0 .1-.1.1-.1.1.1-.1-.2 0-.1-.2 0 0-.1 0 0 .1v-.1c-.1 0-.1.1-.2 0-.1 0-.1.1-.2 0-.2 0-.3.1-.4 0 .1-.1-.1 0-.1-.1h-.3.1-.1.1c-.1 0 0 .1-.1.1 0 0-.1 0-.1-.1h-.1v-.1c0 .1-.2 0-.2.1v-.2c-.1 0 0 .1-.1.1h-.4c0-.1.1 0 .1-.1-.2 0-.4.1-.5.1 0 .1-.1 0-.2 0 0 0 0-.1 0 0-.1 0-.2 0-.4.1h-.3s-.1 0 0 .1c-.4.3-.6.6-.6.8v.1s0-.1 0 0v.2l.1-.1v.1c0-.1-.1 0-.1 0-.1.1.1 0 0 .1v.1c-.1 0 0 0-.1-.1 0 .1.1.1 0 .2v-.1c-.1.1 0 .1-.1.1v.1c.1.1 0 .2.1.3-.1-.1-.1 0-.1 0s0 .1-.1.1v.2s0 .1-.1 0c0 .1 0 0 .1 0 .1.1-.1.3 0 .4 0 .1.1.2.1.3h-.1v.2h-.1c0 .1.1 0 0 .1 0 0-.1 0-.1-.1 0 .1.1.1.1.2 0 0-.1 0-.1-.1 0 .1 0 .2.1.2h-.1v-.1c.1 0 0-.2 0-.3h.1l-.1-.1h.1V39s.1 0 0 0c0-.1-.1-.2 0-.2 0-.2-.1 0-.1-.1l.2-.1h-.1c0-.1 0 0-.1 0 .1-.1 0-.2.1-.2 0 0 0 .1-.1 0 .1 0 0-.1 0-.2.1 0 0 .1.1 0-.1 0 0-.1 0-.2-.1 0 0-.1-.1-.2 0 0 0-.2.1-.3-.1 0-.1-.1-.1-.2 0 0 .1 0 .1.1v-.2h.1v-.3s-.2 0-.1-.1c0 0 .1 0 .1.1v.1-.1h.2v-.1h.1s.1 0 0-.1c0 0 .2-.1.1-.1.1-.1.3 0 .4-.1.1 0 .2 0 .3-.1 0 0 .1 0 .1.1h.2-.1.2c0 .1.1.1.1 0h-.1.1v.1c.2.1.3-.1.5 0 0 0-.1 0-.1-.1.1 0 .2.1.2.1.1 0 .1-.1.2-.1 0 0 0-.1.1-.1s.1.1 0 .1c0 0-.1 0 0 0 0 0 .2 0 .1.1.1 0 0 0 0-.1h.5c.1 0 0 .1.1.1s0 .1 0 .1c.1 0 .2 0 .2.1H46h.2v-.1h.1c-.1 0 0 .1-.1.1h.1c.1.1.1-.1.2-.1v.1c-.1 0 0-.1 0-.1h.2s-.1 0 0 0c.1-.1.1.1.2 0v.1c.1 0 .1.1.2 0v-.1h-.2l.1-.1h-.1c.1 0 0 0 0-.1.1.1.1 0 .2 0v.1c.1.1.2 0 .4 0h.2v.1s.1 0 .1-.1l.1.1c.1 0 .2-.1.3-.1 0 0 0 .1-.1.1h.3s0-.1.1 0c0 0 .1 0 0-.1.1.1.4 0 .5.1h.3c.1 0 .1-.1.2-.1.1.1-.1 0 0 .1 0 .1.2 0 .2.1h.2c.1 0 .2.1.2.2H50s.1 0 .1.1c0 0 0 .1-.1.1v-.1c-.1 0 0 .1 0 .1 0 .1.1.1.1.3.1.1-.1.1 0 .1H50v.3c0-.1-.1-.2-.1-.2v.2-.1c.1.1.1.2 0 .3-.1 0-.1.3-.2.3 0 .2-.1.4-.1.6.1-.1 0 .1.1.1v.1l.3.6v-.1c0 .1-.1 0-.1.1 0 0 .1 0 0 .1l.1-.1c0 .2-.1.1-.1.3V40c0 .1 0 .3.1.4h-.1c0 .2.1.4 0 .6 0 0 .1.1 0 .1v.4c-.1-.1-.1 0-.2 0-.1.1-.2.2-.4.3-.1 0-.4.1-.6.1v.1s-.1.1-.1 0-.1 0-.2 0v.1c-.2-.1-.5.1-.6 0 0 0-.1 0-.1.1v-.1h-.4c-.1 0-.1.2-.2.2v-.1c-.2 0-.3-.1-.5 0-.1 0-.3-.1-.3.1 0-.1-.2 0-.2 0v-.1c-.1.1-.1.1-.2.1s-.1.1-.2 0h-.1c-.1 0-.2 0-.2-.1l-.1.1c-.1 0-.2.1-.3 0h.2c0-.1-.1-.1 0-.1-.1 0-.2.1-.3.1h-.3c0 .1-.1 0 0 .1h.1-.1l-.1.1c-.1-.1-.2-.1-.2-.2-.1 0-.3 0-.4.1l-.1-.1h.1c-.1 0-.2 0-.3.1-.1 0 .1-.1-.1-.1-.3-.1-.4.1-.7 0-.1 0-.2-.1-.3-.2-.1-.1-.1-.3 0-.4v-.2h.1v-.1c0-.1.2-.2.2-.4 0-.1 0-.2.1-.2v-.2c.1-.1.1.1.2-.1v-.2H43v-.1c-.1-.1-.1-.1-.3 0v.1h-.1v-.1c-.1 0 0 .1 0 .1h-.1v.1s0-.1-.1 0c0 .1.1 0 .1.1-.1 0-.1 0-.1.1v.2c-.1 0 0 .2-.1.1v.2c-.1-.1-.1.2-.2.1.1.1 0 .3 0 .4 0 .1 0 .1-.1.1.1 0 .1.1.2.2-.1.1-.1 0-.2 0 .1 0 .1.2.1.1v.1c.1 0 .1.1.2.1.4.1.3.1.3.1.2.1 0 0 0 0zm2.4.2zm.2 0s-.1 0 0 0c-.1-.1-.1-.1 0 0-.1-.1 0 0 0 0zm-.4-.4c.1-.1.1 0 0 0 .1 0 0 0 0 0zm0 0zm-1.2-5.2zm4.2 5.7h-.1zM43 37.5zm0 .4c0 .1 0 .1 0 0zm0 .4zm4.2-1.7zm-1.6 0zm3.4.2zm-3.3-.2zm-2.8 3.1v.1zm0 .1zm.1 0c-.1 0-.1 0 0 0zm0-.5c-.1 0-.1 0 0 0z" style="fill:#fff"/><path d="M43 39.2v.1c-.1 0 0-.1 0-.1zm.2-.6v.1h.1c0-.1-.1 0-.1-.1zm0-.4c0 .1.1 0 0 0 .1 0 .1 0 0 0zm1.2-1.4c0 .1 0 .1 0 0zm.5-.2-.1-.1v.1zm.3.3v.1-.1zm4.2.4zm1 .8s-.1 0 0 0zm-2.2 4z" style="fill:#fff"/></g><g style="opacity:.65"><path d="M38 33.5zm.1-.2-.1-.1c0 .1 0 .1.1.1 0 .1-.1.1 0 0-.1.1-.1.1-.1.2.1-.1.1-.1.1-.2zm.5-2.5zm1.7 0zm.3.1zm-2-.1zm-.7 2.1zm.4-1.7v.1zm0 .6s-.1 0 0 0c-.1 0-.1 0 0 0-.1 0-.1 0 0 0zm-.1 1zm.1-1.8zm-.7 3.1zm.5-.6v.1zm3.1-2.5zm2.6 2.1c.1 0 0 .1.1 0 0 0 0-.1-.1 0zm-5.9-.2zm6 .2h.1zm-1.5-2zm-.9-.2zm1.4.2c.1 0 .1 0 0 0 .1 0 .1 0 0 0zm.6 0zm-5.1 4.3s-.1 0 0 0zm-.4-2.5s-.1 0 0 0zm5-2.2c.1 0 0 0 0 0zm-.8 4.9c-.1 0 0 0 0 0zm1.1-4.9c.1 0 .1 0 0 0 .1 0 .1 0 0 0zm-4.9 4.7z" style="fill:#fff"/><path d="M37.7 35.4c.1.1.1 0 .1 0 .1 0 0 .1.1.1s.2-.1.2-.1c.1-.1.2 0 .2-.1v-.1h.1c0 .1-.1 0-.1.1.1 0 .2-.1.2 0s-.1 0-.1.1h-.1c.1.1-.1 0 0 .1h.2v-.1c.2-.1.1.2.2.1l.1-.1v.1c.1 0 .1-.1.2 0h-.1c.1.1.1 0 .1 0v.1h.4v.1c.2 0 .3 0 .5.1l.1-.1c.1 0 0 0 0-.1v.1c.1 0 .3-.1.4 0 .1 0 .1-.1.2-.1.2 0 .4 0 .6.1 0-.1.2 0 .2-.1.1.1.1.1.2.1l.1-.1v.1l.1-.1v.1c.1 0 .2 0 .2.1.1 0 .1 0 .2-.1l-.1.1c.1-.1 0 .1.1 0h.2c.1 0 .3-.1.4-.1-.1 0-.1-.1 0-.1v.1s-.1 0 0-.1c.1 0 .1.1 0 .1h.1v.1s.1 0 .2-.1c.2-.1.2-.1.3-.2v-.1c.1 0 .2-.1.3-.3V35s.1-.1.1 0v-.5c-.1-.2.2-.4.1-.5v-.1c0-.1 0 0 .1 0-.1-.2 0-.2 0-.4.2-.1.1-.4.2-.5v-.1h-.1c0-.3.2-.6.2-.9 0-.1-.2-.1-.1-.2h.1c0-.1 0-.3-.1-.5s-.3-.3-.5-.3h.1c-.1-.1-.2 0-.2 0v-.1s-.1.1-.1 0h-.3c0 .1-.1 0-.2 0 0-.1-.1-.1-.2-.1v-.1c-.1 0-.1 0-.1.1-.1-.1-.2.1-.3-.1h-.5c0-.1.2 0 .2-.1-.2 0-.3.1-.4.1v-.1h-.5c0 .1-.1.1-.1.1.1-.1-.1 0 0-.2v.1-.1c-.1 0-.1.1-.2.1 0 0-.1.1-.2 0-.1 0-.2.1-.4 0v-.1H40h.1-.1.1c-.1 0 0 .1-.1.1 0 0-.1 0-.1-.1h-.1v-.1c0 .1-.2 0-.2.1v-.2c-.1 0 0 .1-.1.1h-.3c0-.1.1 0 .1-.1-.1 0-.3.1-.4.1 0 .1-.1 0-.2 0 0 0 0-.1 0 0-.1 0-.2 0-.3.1h-.2v.1c-.1-.1-.2 0-.3.1-.1.1 0 .2-.1.3v.1h.1v.1c0-.1-.1 0-.1 0-.1.1.1 0 0 .1v.1h-.1c0 .1.1.1 0 .2v-.1c-.1.1 0 .1-.1.1v.1c.1.1 0 .1.1.2.3 0 .3.1.3.1s0 .1-.1.1v.1h-.1c0 .1 0 0 .1 0 .1.1-.1.2 0 .3 0 .1.1.1.1.2h-.1v.2h-.1s.1 0 0 .1h-.1c0 .1.1.1.1.2 0 0-.1 0-.1-.1 0 .1 0 .2.1.2h-.1v-.1c.1 0 0-.2 0-.2h.1l-.1-.1h.1v-.2s.1 0 0 0c0-.1-.1-.2 0-.2 0-.1-.1 0-.1-.1l.2-.1h-.1c0-.1 0 0-.1 0 .1-.1 0-.2.1-.2 0 0 0 .1-.1 0 .1 0 0-.1 0-.1.1 0 0 .1.1 0-.1 0 0-.1 0-.2-.1 0 0-.1-.1-.2 0 0 0-.2.1-.2-.1 0-.1-.1-.1-.2h.1V31h.1c0-.1-.1-.1 0-.2 0 0-.2 0-.2-.1 0 0 .1 0 .1.1v.1-.1h.2v-.1h.1v-.1s.2 0 .1-.1c.1-.1.3 0 .4 0 .1 0 .2 0 .2-.1 0 0 .1 0 0 .1h.1-.1.2c0 .1.1.1.1 0H39h.1v.1c.1.1.3-.1.4 0 0 0-.1 0 0-.1.1 0 .1.1.2.1s.1-.1.2-.1c0 0 0-.1.1-.1s.1.1 0 .1c0 0-.1 0 0 0 0 0 .1 0 .1.1.1 0 0 0 0-.1h.4s0 .1.1.1 0 .1 0 .1c.1 0 .2 0 .2.1h.1v-.1h.1c-.1 0 0 .1-.1.1h.1c.1.1.1-.1.2-.1v.1-.1h.2c.1-.1.1.1.2 0v.1c.1 0 .1.1.2 0v-.1h-.1l.1-.1h-.1v-.1c.1.1.1 0 .2 0v.1c.1.1.2 0 .3 0h.1v.1s.1 0 .1-.1l.1.1c.1 0 .1-.1.2-.1 0 0 0 .1-.1.1h.2s0-.1.1 0c0 0 .1 0 0-.1.1.1.3 0 .4.1h.2c.1 0 .1-.1.2-.1.1.1-.1 0 0 .1 0 .1.2 0 .2.1h.1c.1 0 .1.1.2.1h-.1.1s0 .1-.1.1v-.1c-.1 0 0 .1 0 .1 0 .1.1.1.1.2.1.1 0 0 0 .1h-.1l.1.2c0-.1-.1-.1-.1-.2v.2-.1c.1.1.1.1.1.2-.1 0-.1.2-.2.3 0 .2-.1.3-.1.5.1 0 0 .1.1.1v.1l-.1.1c0 .1-.1 0-.1.1 0 0 .1 0 0 .1l.1-.1c0 .1-.1.1-.1.2s0 .3.1.3h-.1c0 .2.1.4 0 .5 0 0 .1.1 0 .1v.4c-.1-.1-.1 0-.2 0l-.3.3h-.5v.1s-.1.1-.1 0-.1 0-.2 0v.1c-.2-.1-.4.1-.5 0 0 0-.1 0-.1.1v-.1h-.3c-.1 0-.1.2-.2.2v-.1c-.1 0-.3-.1-.4 0-.1 0-.2-.1-.2.1 0-.1-.1 0-.2 0v-.1c-.1.1-.1.1-.2.1s-.1.1-.1 0h-.1s-.1 0-.1-.1l-.1.1c-.1 0-.2.1-.2 0h.2c0-.1-.1-.1 0-.1-.1 0-.2.1-.2.1h-.2v.1h.1-.1s0 .1-.1.1c0-.1-.1-.1-.1-.2-.1 0-.3 0-.3.1V35h.1c-.1 0-.2 0-.2.1-.1 0 .1-.1-.1-.1-.2-.1-.4.2-.6 0-.1 0-.2 0-.2-.1-.1-.1-.1-.2 0-.3v-.1h.1l-.1-.1c0-.1.2-.1.1-.3 0 0 0-.2.1-.1v-.1c.1-.1.1.1.2-.1v-.2h-.1v-.1c-.1 0-.1-.1-.3 0v.1H38v-.1c-.1 0 0 .1 0 .1h-.1v.1s-.1-.1-.1 0 .1 0 .1.1c-.1 0-.1 0-.1.1v.2c-.1 0 0 .1-.1.1v.1c-.1-.1 0 .1-.1.1.1.1 0 .2 0 .3 0 .1 0 .1-.1.1.1 0 .1.1.2.2-.1.1-.1 0-.2 0 .1 0 .1.1.1.1v.1c.1 0 0 .1.1.1 0 0-.1 0 0 .1.1 0 0 0 0 0zm2 .1c-.1 0 0 0 0 0zm.1 0s0-.1 0 0zm-.3-.4c.1 0 .1 0 0 0 .1 0 .1 0 0 0zm0 0v.1-.1zm-1-4.3h.1-.1zm3.5 4.8zm-4-4.3zm0 .4zm0 .3zm3.5-1.4c.1 0 0 0 0 0zm-1.3 0zm2.8.1zm-2.7-.1s-.1 0 0 0c-.1 0 0 0 0 0zm-2.4 2.6zm0 0zm.1 0c-.1 0-.1 0 0 0zm0-.4c-.1 0-.1 0 0 0z" style="fill:#fff"/><path d="M38 32.7v.1c-.1 0 0-.1 0-.1zm.2-.5c0 .1 0 .1 0 0 .1 0 0 .1 0 0zm0-.3c0 .1.1 0 0 0 .1 0 .1 0 0 0zm1-1.1zm.4-.3h-.1zm.2.4h.1zm3.6.3c-.1-.1-.1 0 0 0zm.8.6c-.1 0-.1 0 0 0-.1 0 0 0 0 0zm-1.9 3.3h.1-.1z" style="fill:#fff"/></g><g style="opacity:.65"><path d="M54.1 72.8v-.2.2zm0-.6v.7-.6.2-.2c-.1 0-.1 0 0-.1zm-.8-.5zm-.5-.2s0-.1 0 0c0-.1 0-.1 0 0zm-.1-.4zm.6.6v-.1.1zm.6 1.3s0-.1 0 0c0-.1 0-.1 0 0zm-.4-1.6v-.1.1zm.2 0v.4-.4zm.2.5c0-.1 0-.1 0 0zm-.5-.6v-.1.1zm-4.8 2zm-.1-1.4v-.2.2zm4.1-1.2zm-1.5.2v.6c0-.1.1-.4 0-.6zm2.8 2.1zm-2.8-1.5zm1.1-.6v.1-.1zm.3.4zm-.4 0c-.1 0-.1-.1 0 0-.1 0-.1 0 0 0-.1 0-.1-.1 0 0zm-.2 0zm-2.8 1.9v-.3c0 .2-.1.3 0 .3zm4.8-.4v.1-.1zm-1.9.7zm-1.9-.3zm1.8.3v-.2.2zm-2.8-.6z" style="fill:#fff"/><path d="M48.9 73.6V73v.5c0-.1 0-.4.1-.4v.2c0-.3.1 0 .1-.4v.1-.5s0-.2 0 0v.2-.1.4c0-.1.1-.4.1-.3v.4-.1.5c0 .1 0-.2.1-.1v-.5c.1-.3 0 .9.1.4v-.4.4s0-.6.1-.3v.2-.2.3c0-.1.1-.3.1-.4v.3c0-.2.1 0 .1.2v-.3.2-.3.3c0-.2.1-.5.1-.2v.1c0 .1 0-.6.1-.3v.1c0 .1.1-.1.1.3 0-.4 0 .2.1-.4v.6-.4.3-.3.4-.3.4l.1-.3v.2c0-.3 0 .3 0 0v-.2c0 .2 0 .2.1.1v.2c0 .1.1-.1.1-.1V73v.3-.4.5-.1.3c0-.2 0 .3 0 0v.1l.1-.1v-.4c0 .1 0 .3.1.3v-.4.4l.1-.3V73v.2c.1-.4.1.8.1.2v-.3.4c.1-.4.1.1.1-.2 0 .8.1-.1.1.4v-.2.1-.3c.1-.2.2.3.2.4 0 0 0-.9.1-.5v.3c.1-.4.1 0 .2-.3v.2c0 .2 0 0 .1-.2v.3-.1.1-.2c0 .1 0-.1.1 0 0-.3 0 .2.1-.3 0 .5 0 .4.1.2v.3-.3c0 .5.1-.4.1.3.1-.2.1-.4.2-.5 0 .5-.1 0-.1.5 0-.2.1-.6.1-.5v.3c0-.2.1 0 .1-.2v.1-.1.1c0-.3 0-.6.1-.8v.9-.3.3c0-.1 0-.3.1-.3v.3c0-.2 0-.4.1-.3v.1s.1-.5.1-.3v.5-.3s0-.3.1-.1v.2-.6.2-.2.5c0-.3 0-.1.1-.4v.3-.3.3-.3.1c0 .1.1-.2.1 0v.4c0-.1.1-.4.1-.4 0-.5 0 .3 0 0v.2c0 .1.1-.1.1-.3v.1c0 .1 0 .1.1.1v-.3c0 .8.1-.4.1.2v.1-.6.5-.4.1-.2.3s0-.5.1-.2v.5-.1c0-.7 0-.1.1-.6v.9-.2.3-.3c0-.3 0 .4.1-.1 0-.2.1-.5.1-.7v.4c0 .1 0 .1 0 0v.3-.2.4c0-.1 0-.3.1-.4v.4c0-.1 0-.2.1-.4v-.1.3-.3c0-.6 0 .1-.1.1v-.4.3-.6.1-.2c0-.2-.1.3-.1 0 0 .1 0 .3-.1.7v-.8.3-.2.3c0-.3-.1.1 0-.4v.3-.6c0 .5 0-.1 0 0 0 .4 0 .2-.1.3 0-.1 0-.2-.1-.3v-.1c0 .4 0 .3-.1.4v-.4.2-.3s-.1.3-.1.1v.9-.4.1-.2.2-.3s0 .1 0 0v-.3.3-.3.3-.2c0 .1-.1 0 0 .4 0 .3-.1-.2-.1 0v-.1c0 .1 0 .1-.1.3v-.3c0 .1 0 .2 0 0v-.1c0-.1 0-.2 0 0v-.2.2-.3c0-.4-.1.7-.1 0v.4-.5c0-.2 0 .5-.1.4v.5-.6.1-.2.1-.3.3c0-.2 0 0-.1-.1v.5-.7c0 .2 0-.2-.1-.2v-.1.3-.1.6-.7c0-.3 0 .4-.1.3v-.3.8-.2c0 .3 0-.3-.1-.1v-.5.4-.2.3-.1.3c0-.4 0 .2-.1 0V71c0-.3-.1.3-.1.2v.2-.4.4-.3c0-.1-.1.6-.1.5v-.5.5-.1.4c0-.6-.1 0-.1-.5 0 .1-.1.1-.1.1v-.1c0-.2 0 .6-.1.4v-.6c0-.2 0 .2-.1.2v-.1c0 .3-.1.4-.1.5v-.4.5-.8s0 .4-.1.4v.2-.4c0 .1-.1.4-.1.5 0-.3.1-.4.1-.6l-.1.2v-.1c0 .3 0 .5-.1.5 0-.8-.1-.2-.1-.8-.1.3-.1-.1-.1-.1v.6-1.1.5c0 .3 0-.5-.1-.2v-.2c0 .1-.1 0-.1.5v-.3c0-.1-.1.5-.1.2v-.1.1-.2.2-.2c0-.2-.1.4-.1.5v-.8c0-.1-.1.4-.1.5 0-.5-.1-.2-.1-.5v.4-.4.5c0-.8-.1.3-.1-.4v.3-.3c0-.1 0-.1-.1 0v-.2l-.1.8v-.4s-.1-.4-.1 0v-.2s-.1-.3-.1.3c0-.4 0 0-.1.1v-.3c0 .4 0 .5-.1.6V71v.1-.2.3-.3.3-.2c0-.2-.1.3-.1 0v-.9c0 .2-.1.6-.1.5v-.3 1.1-.8c0 .2-.1.1-.1.6v-.3c0 .1-.1.1-.1.4v-.4c0-.6-.1.9-.2.2v.1c-.1-.3-.2.3-.2-.2v.3-.3.3c0 .3 0-.7-.1-.3v.2-.1.1-.2.3-.7c0 .1-.1.5-.1.6v1.7-.3.2-.1.2-.4.5-.5.4-.3.4-.4.6c0-.5.1-.2.1-.5v.4c0-.4 0-.5.1-.7v.8-.6.4-.4.3c-.2.5-.2.7-.2.7zm.5-.8zm.1 0c0-.1 0-.1 0 0v-.2.2zm-.1-2c.1 0 .1 0 0 0v.1-.1zm0 .4zm3.9.5z" style="fill:#fff"/><path style="fill:#fff" d="M50.1 73.3v-.1l-.1.1zm3.4-.6zm.1 0v.1-.1zm.1.2v-.1.1zm-1.3.3zm.4-.7v.1-.1zm-.8 1zm.8-.8c0-.1 0-.1 0 0zm1.2.3zm0 0zm0-.1c0 .1 0 .1 0 0zm-.1 0v.1-.1zm0 0v.2-.2c0 .2 0-.2 0 0zm-.1-1.2v-.2.2zm-.1-.2v-.2.2zm-.6 0v-.3.3zm-.2 1.3v.2l.1-.3zm0-1.8v-.1.1zm-1 0v.3s.1-.4 0-.3zm-.4.3v-.1.1zm-1.3-.5.1-.1-.1.1z"/></g><g style="opacity:.65"><path d="M82.2 72c0-.1-.1-.3-.1-.2l.1.2z" style="fill:#fff"/><path d="M82 71.4c0 .2.1.4.2.7-.1-.3 0-.2-.1-.6 0 0 0 .1.1.2v-.1c-.1-.2-.1-.3-.1 0-.1 0-.1-.1-.1-.2zm-.9-.3zm-.6 0c.1 0 0-.1 0 0 0-.1 0-.1 0 0zm-.1-.4s0 .1 0 0zm.7.4zm1 1.1c0-.1 0 0 0 0zm-.9-1.4v-.1.1zm.2-.1s.1.3.1.4v-.2c-.1 0-.1-.1-.1-.2zm.3.4zm-.6-.3c0-.1 0-.1 0 0 0-.1 0-.1 0 0zm-4 3.2zm-.5-1.3v-.2.2zm3.5-2.3zm-1.3.6c.1.2.1.3.2.6-.1-.1-.1-.5-.2-.6zm3.3 1.2zm-3.1-.6zm.8-.9v.1c.1 0 0-.1 0-.1zm.4.3zm-.4.1s0-.1 0 0zm-.1 0c0 .1 0 .1 0 0 0 .1 0 .1 0 0zm-2.2 2.7c0-.1 0-.2-.1-.2.1.1.1.2.1.2zm4.5-1.7v.1-.1zm-1.6 1.1c-.1 0-.1.1 0 0zm-1.9.3zm1.8-.2c0-.1 0-.1-.1-.2v.1l.1.1zm-2.9.2z" style="fill:#fff"/><path d="M77.4 74.2s-.1-.4-.1-.6c0-.1.1.3.1.4 0-.1-.1-.4-.1-.4v.2c-.1-.3 0 0 0-.4v.1c-.1-.2-.1-.4-.1-.5 0 0 0-.2 0 0v.2-.1c.1.3 0 .1.1.4 0-.1-.1-.4 0-.3.1.3 0 .1.1.4l-.1-.1c.2.5 0 0 .1.5.1.1 0-.2 0-.1 0-.2-.1-.3-.1-.5 0-.3.3.8.2.4 0-.2-.2-.6-.1-.4l.1.4s-.1-.5 0-.3v.2c.1.3 0-.2 0-.2l.1.3v-.4c0 .1 0 .2.1.3 0-.2.1 0 .2.2l.1-.3s0 .1.1.2c0 .1 0-.2-.1-.3l.1.2c0-.2-.1-.5.1-.2v.1c.1.1-.1-.6 0-.3v.1c.1.1.1-.2.2.3-.1-.4.1.2 0-.4.1.3.1.4.2.6l-.1-.4.1.3-.1-.3.1.4v-.1s0-.1-.1-.2c0-.1.1.2.1.3v-.3.2c-.1-.3.1.3 0 0 0-.1 0-.2-.1-.2.1.2.1.2.1.1l.1.2s0-.1.1-.1c0-.1-.1-.4-.1-.5l.1.3c0-.2 0-.1-.1-.4 0 0 .1.4.1.5v-.1c0 .1 0 .1.1.3 0-.2.1.3 0 0v.1s0-.1.1-.1c-.1-.3 0-.2-.1-.4 0 .1.1.3.2.3 0-.1-.1-.2-.1-.4.1.2.1.2.1.4v-.3c0-.1 0-.1-.1-.2 0 0 0 .1.1.2 0-.4.3.7.2.2v-.3s0 .2.1.3c-.1-.4.1 0 0-.2.2.7.1-.1.2.4v-.2c0-.2 0 .1.1.1 0-.1-.1-.2-.1-.2 0-.2.2.2.4.3 0 0-.2-.9-.1-.5l.1.3c0-.4.1 0 .1-.4v.2c.1.2 0 0 0-.2 0 0 0 .2.1.3v-.1.1-.2c.1.1 0-.1.1 0-.1-.3.1.1 0-.3.1.4.1.3.1.1 0 .1 0 .1.1.3 0 0 0-.1-.1-.3.2.5-.1-.4.1.2v-.5c.1.4 0 .1.1.5 0-.2-.1-.6 0-.5 0 .1 0 .2.1.3 0-.2.1 0 .1-.2v.1-.1.1c-.1-.3-.1-.6-.2-.8.1.6.1.1.2.9 0 0 0-.1-.1-.3 0 0 0 .1.1.3 0-.1-.1-.3 0-.3 0 .1 0 .1.1.2 0-.2-.1-.4 0-.3v.1s-.1-.5 0-.3c.1.4 0 .1.1.5V73l-.1-.2v-.2.2-.1l-.1-.1c0-.2-.1-.5-.1-.4l.1.2v-.2c0 .1.1.4.1.5-.1-.3 0-.1-.1-.4 0 .1.1.3.1.3l-.1-.2c0 .1 0 .1.1.3 0 0-.1-.5 0-.3v.1c.1.1 0-.2.1-.1.1.4 0 .1.1.4v-.4c-.1-.5.1.2 0 0 0 0 .1.3.1.2v-.3.1c0 .1.1.1.1.1 0-.1 0-.1-.1-.3.2.7 0-.4.2.2v.1-.1c-.1-.2 0-.1-.1-.3v-.2c0 .2.1.4.1.5 0-.1 0-.1-.1-.2.1.4-.1-.5 0-.2v.1-.2c.1.3 0 .1.1.3 0 0-.1-.5 0-.2v.2c.1.3.1.2.1.3l.1.1v-.1c-.2-.7 0-.1-.1-.6.1.4.1.2.1.5 0 .1.1.2.1.3 0-.2.1.2 0-.2 0 .1 0 0 .1.2 0-.1 0-.2-.1-.3-.1-.3.2.4.1-.1 0-.2-.1-.5-.1-.7 0 .1.1.3.1.3.1.1.1.1 0 0 0 .1 0 .2.1.3 0 0-.1-.3 0-.2 0 .1.1.3.1.4 0-.1 0-.3-.1-.4 0 .2.1.3.1.4 0-.1 0-.2-.1-.4v-.1s.1.2.1.3c0 .2 0-.1-.1-.2v-.1c-.2-.6 0 .1 0 .1l-.1-.4.1.3c0-.1-.1-.3-.1-.4-.1-.2 0 .1 0-.1v-.1.1c0-.1-.1-.3-.1-.2-.1-.2 0 .3-.1 0 0 .1.1.3.1.6l-.2-.7.1.3v-.1c0 .2 0 .1.1.3-.1-.3 0 .1-.1-.3.1.2.1.2.1.3-.1-.5 0 .1-.1-.1-.1-.3 0-.1-.1-.4.1.4-.1-.1 0 0 .1.4 0 .2 0 .3 0-.1-.1-.2-.1-.3V71c.1.4 0 .3.1.4-.1-.2-.1-.3-.1-.4v.2l-.1-.3v.2c.1.2.2.7.2.9 0-.1-.1-.4-.1-.4v.1-.2.2c0-.2 0-.1-.1-.3 0 0 0 .1 0 0 0 0-.1-.1-.1-.3 0 .1.1.3.1.3s-.1-.2-.1-.3c0 .1 0 0 .1.3 0 0 0-.1-.1-.2 0 .1 0 0 .1.3 0 .3-.1-.1-.1 0v-.1.3s-.1-.2-.1-.3c0 .1 0 .2 0 0v-.1c0-.1-.1-.2 0 0-.1-.2-.1-.3-.1-.2l.1.2-.1-.3c-.1-.4.1.7-.1 0 0 .2.1.2.1.4l-.2-.5c-.1-.2.1.5 0 .4 0 .1.1.4.1.5 0 0-.1-.5-.2-.6v.1s0-.1-.1-.2v.1c0-.1-.1-.1-.1-.3 0 .1 0 .2.1.2-.1-.2 0 0-.1-.1 0 .1.1.2.1.2-.1-.1 0 .2 0 .3-.1-.2-.1-.4-.1-.3 0-.1-.1-.3-.1-.4 0 .2-.1-.1-.1-.2v-.1.1l.1.2v-.1c0 .2.1.4.1.6 0-.1 0 .1-.1-.2.1.1-.1-.3-.1-.4v-.1c-.1-.3.1.3 0 .3 0-.2-.1-.3-.1-.3s.1.3.1.4c-.1-.1 0 .1 0 .1v.3-.2c.1.3-.1-.3-.1-.1 0-.1-.1-.3-.1-.4 0 .2-.1-.2-.1 0 .1.2.1.2.1.4v-.2l.1.3v-.1c0 .2 0 .1.1.3-.1-.3 0 .2-.1 0l-.2-.6c-.1-.2 0 .3 0 .2v.1c.1.2 0 0 0 .1 0-.2-.1-.3-.1-.4 0 .1 0 0 .1.4l-.1-.2c-.1-.1.1.6.1.5 0-.2-.1-.3-.1-.5v.2c0 .1.1.3.1.3v-.1c0 .1 0 .1.1.3-.2-.6-.1.1-.2-.4v.2-.1c-.1-.2.1.6 0 .4-.1-.3 0-.2-.1-.3-.2-.6 0 .1-.1-.3-.1-.2 0 .2 0 .2v-.1c.1.3.1.4.1.5-.1-.2 0-.1-.1-.4 0 0 .1.4.1.5 0-.1-.1-.2-.2-.5v-.2c0 .1.1.4 0 .4v.1c.1.4-.1-.2 0 .1l-.1-.4c0 .1.1.4.1.5-.1-.3-.1-.4-.1-.6v.2-.1c.1.3.1.5.1.5-.5-.9-.4-.3-.6-.9 0 .3-.1-.1-.1 0 .2.6 0 0 .1.6l-.1-.3c-.1-.2 0-.1-.1-.3 0 0-.1-.2-.1-.4.1.2.1.3 0 .2l.1.3c0 .3-.2-.5-.1-.2v-.2c0 .1-.1 0 0 .5 0-.1-.1-.2-.1-.3-.1-.1 0 .5-.1.2V71s.1.3 0 .1v-.2.2-.2c-.1-.2 0 .4 0 .5-.1-.4-.2-.6-.2-.6v-.1c-.1 0 0 .4 0 .6-.2-.3-.2-.1-.3-.3 0 .1.1.3.1.4 0-.1 0 .3-.1-.1s-.1-.3-.1-.3l.1.5c-.2-.7 0 .3-.2-.4v.3l-.1-.3c0-.1-.1-.1-.1 0v-.2l.2.8-.1-.4s-.2-.3-.1 0v-.2s-.1-.3 0 .3c-.1-.4 0 0 0 .1l-.1-.3c.1.3.1.4.1.5 0 0-.1-.2 0-.1-.1-.1.1.3 0 .1v-.2.3c0 .1-.1-.1-.1-.3 0 .1.1.4 0 .3v-.2c-.1-.2 0 .3-.1.1v-.2h.1c-.1-.2-.1-.3-.2-.6 0 .2.1.6.1.5v-.2c-.1-.2-.1-.1-.1-.1.1.3 0 .2.1.5 0 .1.1.3 0 .1 0 .2.1.4.1.4-.1-.4-.2-.6-.3-.8 0 .2 0 .1.1.6 0 .1 0-.1-.1-.2v-.1c0 .1 0 .1.1.4-.1-.2-.1-.3-.1-.3v-.1c-.2-.6.1.9-.1.2v.1c-.2-.3-.1.3-.3-.2v.3h-.1l.1.3c0 .3-.2-.7-.2-.2l.1.2s0 .1-.1-.1v.1-.2.3c-.1-.1-.2-.6-.2-.6 0 .1.1.5.1.6 0 0 0 .1.1.2v.1c.1.5.2.9.3 1.2v-.3l.1.2c.1.2 0 0 0-.1 0 .1.1.2.1.2l-.1-.4c0 .2.1.4.1.4 0-.2-.1-.4-.1-.5.1.2.1.4.1.2 0 .1 0 .2.1.2v-.3c.1.2 0-.1.1.4 0-.1-.1-.3-.1-.4.1.5 0 0 .2.6-.1-.5 0-.2 0-.5v.1s.1.2.1.3c-.1-.4-.1-.5-.1-.7l.2.8c-.1-.3-.1-.3-.1-.6.1.2 0 .1.1.4-.1-.5 0-.1-.1-.4.1.2.1.4.1.3-.2.2-.2.4-.2.4zm.3-.9zm.1-.1c-.1 0-.1 0 0 0 0-.1-.1-.2-.1-.2 0 .1 0 .2.1.2zm-.6-1.8c0-.1 0 0 0 0v.1-.1zm.1.3s0 .1 0 0c0 .1 0 .1 0 0 0 .1 0 .1 0 0zm3.8-.5zm-2.6 2.4-.1-.1.1.1zm3.1-1.6c0 .1 0 .1 0 0 0 .1 0 .1 0 0zm.1.1zm.1.1v-.1.1zm-1.1.6c0 .1 0 .1 0 0zm.2-.7v.1-.1zm-.5 1.2v-.1zm.5-1.1c0 .1 0 .1 0 0zm1.2 0zm0 0zm0-.1c0 .1 0 .1 0 0zm-.1 0c0 .1 0 .1 0 0zm0 .1s.1.2.1.1l-.1-.1c.1.2 0-.2 0 0zm-.5-1.2v-.2c-.1-.3.1.2 0 .2zm-.1-.2c0-.1 0-.2-.1-.2.1.1.1.2.1.2zm-.5.2-.1-.2.1.2zm.2 1.3v.2-.3zm-.5-1.7v-.1.1z" style="fill:#fff"/><path d="m79.6 70.9.1.3c0-.1-.1-.4-.1-.3zm-.3.4c-.1-.1-.1-.2 0 0 0-.1 0 .1 0 0zm-1.4-.2V71v.1z" style="fill:#fff"/></g></g></svg>