<svg xmlns="http://www.w3.org/2000/svg" viewBox="0 0 131.2 142.8" style="enable-background:new 0 0 131.2 142.8" xml:space="preserve"><style>.st5{fill:#31458b}.st6{fill:#91bdfa}.st7{fill:none;stroke:#ef7937;stroke-width:.925;stroke-miterlimit:10}.st8{fill:#4f84d3}.st9{fill:#91bdfa}.st10{fill:none;stroke:#31458b;stroke-width:.8491;stroke-miterlimit:10}.st11{fill:#4f84d3}.st12{fill:#91bdfa}.st13{fill:none;stroke:#d9413d;stroke-width:.8491;stroke-miterlimit:10}.st14{opacity:.37}.st15{clip-path:url(#SVGID_2_)}.st16{clip-path:url(#SVGID_4_)}.st17{clip-path:url(#SVGID_6_)}.st18{clip-path:url(#SVGID_8_)}.st19{clip-path:url(#SVGID_10_)}.st20{clip-path:url(#SVGID_12_)}.st21{clip-path:url(#SVGID_14_)}.st22{clip-path:url(#SVGID_16_)}.st23{clip-path:url(#SVGID_18_)}.st24{clip-path:url(#SVGID_20_)}.st25{fill:none;stroke:#4f84d3;stroke-width:.925;stroke-miterlimit:10}.st26{clip-path:url(#SVGID_22_)}.st27{clip-path:url(#SVGID_24_)}.st28{clip-path:url(#SVGID_26_)}.st29{clip-path:url(#SVGID_28_)}.st30{clip-path:url(#SVGID_30_)}.st31{fill:none;stroke:#d9413d;stroke-width:.925;stroke-miterlimit:10}.st32{clip-path:url(#SVGID_32_)}.st33{clip-path:url(#SVGID_34_)}.st34{clip-path:url(#SVGID_36_)}.st35{clip-path:url(#SVGID_38_)}.st36{clip-path:url(#SVGID_40_)}.st39{fill:#ee8423}.st40{fill:#f18a50}.st41{fill:#019788}.st42{fill:#32867a}.st43{fill:#f67258}.st44{fill:#de5956}.st45{opacity:.5}.st46{fill:#4b5d9a}.st47{opacity:.6}.st48{fill:#21a497}.st49{fill:#f7846d}.st50{fill:#26a59a}.st51{opacity:.65;fill:none;stroke:#fff;stroke-width:.2;stroke-miterlimit:10}.st52{fill:#c6deff}.st53{fill:none;stroke:#31458b;stroke-miterlimit:10}.st54{fill:#31458b}.st55,.st56{stroke-width:.2}.st55{fill:none;stroke:#f5a800;stroke-miterlimit:10}.st56{stroke:#4db6ac}.st56,.st57,.st59,.st60,.st61{fill:none;stroke-miterlimit:10}.st57{stroke:#ff8a65;stroke-width:.2}.st59{stroke:#ef7937}.st60{stroke:#147467}.st61{stroke:#d9413d}.st62{fill:#4f84d3}.st63,.st64,.st65{fill:#c6deff}</style><g id="Calque_1"><path d="M77.2 112.6s-24.4-.3-29.7 1.4c-5.3 1.7 13.7 6.7 23.8 5.8s17.5-4.3 14.5-5.4c-3-1.3-6-1.5-8.6-1.8z" style="opacity:5.000000e-02"/><path d="M71.3 101.6c-.1.6 0 .6 0 1.2s-.1.6-.1 1.2v1.2c0 .6-.1.6-.1 1.2v1.2c0 .6.1.6.1 1.2s-.1.6-.1 1.2-.1.6-.1 1.2.1.6.1 1.2v2.4c0 .5.3.8.8.8.6 0 .6.1 1.3.1h1.3c.6 0 .7-.8.2-1l-1.2-.2c-.6 0-.6.1-1.2 0-.3-.1-.3-1.1-.3-1.5v-2.2c0-.6-.1-.6-.1-1.1 0-.6.1-.6.1-1.1v-4.4c0-.6.1-.6.1-1.1v-2.2c0-.5.5-1-.1-1.1-.5-.1-.3.5-.6 1 0 .3 0 .3-.1.8zm-5.9 0c.1.6 0 .6 0 1.2s-.1.6-.1 1.2.1.6.1 1.2-.1.6-.1 1.2v3.6c0 .6.1.6.1 1.2s.1.6.1 1.2-.2.6-.2 1.2v1.2c0 .5-.3.9-.8.9h-2.6c-.6 0-.7-.9-.2-1.1.5-.1.5 0 1 0s.5 0 1-.1c.3-.1.6-1.1.6-1.4V112c0-.6-.1-.6-.1-1.1 0-.6.1-.6.1-1.1v-2.2c0-.6.1-.6.1-1.1v-1.1c0-.6-.1-.6-.1-1.1v-1.1c0-.6.1-.6.1-1.1 0-.6-.1-.6-.1-1.1s-.6-1 0-1.2c.5-.1.2.6.5 1 .4.3.5.3.6.8z" style="fill:#31458b"/><path d="M87 95.5c-.3-.9-.5-1.8-.8-2.7-.3-.9-.4-1.9-.7-2.7-.3-.9-.8-1.7-1.1-2.6-.3-.9-.6-1.8-.9-2.6-.3-.9-.8-1.7-1.1-2.6-.3-.9-.6-1.8-.9-2.6-.3-.9-.6-1.8-.8-2.7-.2-.9-.2-1.9-.3-2.8-.1-.9-.1-1.8-.2-2.8-.1-.9 0-1.8 0-2.8 0-.9-.2-1.8-.2-2.8.1-.9-.1-1.8 0-2.8.1-.9.3-1.8.5-2.8l.6-2.7c.2-.9.4-1.8.7-2.7.3-1 .6-1.9.8-2.8.3-1 .4-2 .6-2.9.2-1 .7-1.9.9-2.8.2-1 .3-2 .5-2.9.1-1 0-2 0-2.9 0-1.1.1-2 0-2.9-.1-1.1-.5-1.9-.8-2.8-.4-.9-.9-1.7-1.5-2.4s-1.3-1.3-2.2-1.9c-.8-.5-1.4-1.3-2.2-1.5-.9 0-1.9 0-2.7-.1-1-.1-2 0-2.7-.2-1.1-.4-1.4-.7-2-1-.4-.2-1-.3-2.2-.4-1 0-1.7.3-2.6.6-.8.3-1.8.4-2.6.8s-1.6 1-2.6 1.2c-.8.1-1.8-.3-2.7-.4-.9-.1-1.8-.4-2.6-.5-1-.1-1.9-.1-2.6.2-.8.3-1.8.7-2.4 1.4-.6.6-.8 1.6-1.2 2.5-.4.8-.5 1.7-.7 2.6-.2.9-.6 1.7-.7 2.7-.1.9-.2 1.7-.2 2.7-.7.5-1.5 1-2.1 1.6-.6.8-.7 1.8-.5 2.6.1.6.5 1.6 1.1 2.8.5.8.9 1.7 1.5 2.7.5.8 1.2 1.6 1.8 2.5.6.9.9 1.9 1.4 2.6.3.9.8 1.7 1 2.6.2.9.4 1.8.6 2.8.2.9.3 1.9.5 2.8.1.9.2 1.9.3 2.8.1.9-.1 1.9 0 2.9 0 1 .3 1.9.3 2.9s0 1.9-.1 2.9-.4 1.9-.5 2.8c-.1 1 0 1.9-.2 2.9-.1 1-.6 1.9-.8 2.8-.2 1 0 2-.2 2.9-.2.9-.9 1.7-1.2 2.6-.3.9 0 2-.2 2.9-.2.9-.5 1.8-.7 2.8-.2 1-.6 1.9-.7 2.8-.1 1-.1 1.9-.1 2.9.1 1 .3 1.9.6 2.8.4.9 1 1.6 1.7 2.3.6.6 1.4 1.1 2.3 1.5.8.4 1.6.7 2.6 1 .8.2 1.8.4 2.8.5.9.1 1.8.3 2.9.3 1 0 1.9-.2 2.8-.2 1 0 1.9.4 2.8.4 1 0 1.9-.3 2.8-.3 1 0 1.9.1 2.8.1 1 0 1.9-.2 2.8-.3 1 0 2 .3 2.9.3 1-.1 2-.3 2.8-.5 1-.2 2-.3 2.8-.7.9-.4 1.5-1.3 2.1-1.9.7-.7 1.6-1.2 1.9-2.2.3-.8.2-1.8.2-2.9 0-.8-.2-1.8-.4-2.8 0-1.1-.5-1.9-.8-2.9z" style="fill:#91bdfa"/><path d="M63.8 91.9s-3.6-3.8-8.4-1.1c-4.8 2.7-4.2 9.9.6 11.4s8-.5 8.7-2.6 1.2-5.8-.9-7.7zm19.3-1.3s-4-4.2-9.4-1.2-4.7 11.1.7 12.8c5.4 1.7 8.9-.5 9.8-2.9s1.3-6.5-1.1-8.7z" style="fill:#fff"/><circle cx="59.3" cy="99.2" r="2.9"/><circle cx="77.3" cy="99.2" r="2.9"/><path d="M67.9 107c-2.8 0-4.2-2.7-4.3-2.8l.9-.4s1.2 2.3 3.4 2.3 3.4-2.3 3.4-2.3l.9.4c-.1.1-1.5 2.8-4.3 2.8zM36.1 96.3c.1-.3.2-.6.2-.9 0-.3-.1-.6-.1-.9 0-.3.1-.6.1-.9 0-.3-.1-.6-.2-.9-.1-.3-.1-.7-.1-.9-.1-.4-.2-.7-.2-.8-.5 0-.5 0-.9.2.1.3.2.5.2.8.1.3 0 .6 0 .9 0 .3.2.6.2.9 0 .3-.1.6-.1.9 0 .3.1.7.1 1-.3-.2-.6-.5-.9-.7l-.9-.6c-.3-.2-.6-.5-.9-.6-.5-.4-.9-.7-1-.7l-.6.8.8.6c.2.2.5.4.8.6.2.2.5.4.8.6.3.2.5.4.8.6.3.2.6.3.9.5 0 .1-.2.2-.3.3-.2.2-.5.3-.9.4H33c-.3 0-.6 0-.9-.1-.3 0-.6-.1-.9-.2-.3-.1-.7-.2-1-.3-.3.4-.2.5-.3 1 .1 0 .5.2 1.1.4.3.1.7 0 1.1.1.4.1.7.1 1.1.1.4 0 .8 0 1.2-.1.4-.1.8-.2 1.1-.5.1-.1.2-.2.2-.4.2.2.5.3.7.5.3.2.5.3.8.4.3.2.5.4.7.5.3.2.6.2.8.4l.9.3.9.3c.3.1.6.3.9.4.3.1.7 0 1 .1.3.1.6.2.9.2l.9.3c.3.1.7 0 1 .1.3.1.6.2 1 .2.3.1.7.2 1 .2.4.1.7.1 1 .1.5.1.9.2 1 .2.1-.5 0-.5.1-1 0 0-.3-.1-.9-.2-.3 0-.6 0-.9-.1-.3-.1-.6-.1-.9-.1-.3-.1-.6-.1-.9-.2-.3-.1-.6-.3-.9-.4-.3-.1-.6 0-1-.1-.3-.1-.6-.3-.9-.3-.3-.1-.6-.2-.9-.2-.3-.1-.6-.1-.9-.2l-.9-.3c-.3-.1-.6-.3-.8-.5-.2-.1-.5-.2-.8-.4-.2-.1-.6-.2-.8-.4-.2-.2-.5-.3-.8-.5-.4-.2-.6-.4-.9-.5zm68.4 1.5c-.1-.5 0-.5-.2-1-.2.1-.5 0-.9.1-.3 0-.6.1-.9.1-.3 0-.6.1-.9.2h-.9c-.3 0-.6 0-.9-.1-.3-.1-.7-.2-.9-.3.2-.2.6-.3.8-.5.2-.2.4-.5.6-.7.3-.2.5-.4.7-.6.3-.2.5-.4.7-.6l.6-.6c-.3-.4-.4-.3-.7-.7 0 0-.3.2-.8.7-.2.2-.4.5-.8.8-.3.2-.5.5-.8.7-.3.2-.6.5-.9.7-.1-.3-.2-.7-.2-1 0-.3-.1-.6 0-.9 0-.3.1-.7.2-.9.1-.5.4-.8.4-.9-.7-.2-.7-.1-1.2-.3 0 0-.1.3-.2.9-.1.3-.3.6-.4.9 0 .3.1.6.1 1 0 .3 0 .6.1.9.1.3 0 .6.2.9-.2.2-.4.4-.6.5-.2.2-.5.3-.8.4-.2.2-.4.5-.6.6-.3.2-.6.2-.9.4-.3.2-.6.3-.8.4-.3.2-.6.3-.8.5-.3.1-.5.4-.8.5-.3.1-.6.2-.9.4-.3.1-.6.2-.9.4l-.9.3c-.3.1-.6.3-.9.4-.3.1-.7.1-1 .2-.6.2-.8.3-.8.3.1.5 0 .5.1 1 .1 0 .5-.1 1-.2.3-.1.6-.3.9-.4.3-.1.6-.1 1-.3l.9-.3c.3-.1.6-.3.9-.4.3-.1.6-.2.9-.4.3-.1.6-.3.9-.4.3-.1.5-.4.8-.6.3-.2.6-.2.9-.4.3-.2.5-.4.8-.6.3-.2.6-.2.8-.4.3-.2.4-.5.7-.7.3-.2.6-.3.8-.5.3.2.6.4.9.5.3.1.7.3 1 .3h1.1c.3 0 .6-.1.9-.1h.9c.3 0 .6 0 .9-.1.4.1.7-.1.8-.1z" style="fill:#31458b"/><g style="opacity:.65"><path d="M60 80.9s.1.1 0 0zm.4-.3v-.2c0 .1-.1.1 0 .2-.1.1-.2.1-.2.1l-.1.1c.2 0 .2-.1.3-.2zm5.8-3.5zm1 .8c.1-.1.1-.1 0 0 0-.1 0 0 0 0zm-.4.5zm-.6-1.3h.1c0-.1-.1 0-.1 0zm-5.3 2.7zm3.6-2h-.1v.1zm-1.3.7s0-.1 0 0c0-.1 0-.1 0 0zm-1.9 1.2zm4.1-2.3s0 .1 0 0zm5.9 8.3zm-.8 1.5v-.1h-.1zM66 79.5zm4.3.1c-.1 0 .2-.1 0-.1 0 0-.1.2 0 .1zm-9.3.2c0-.1 0 0 0 0zm9.3-.3zm-5.4 3s.1 0 0 0c.1-.1.1-.1 0 0zm.9-2.2zm-1.1 3.4zm.5-.1zm8-1s-.1 0 0 0c0 0-.1.1 0 0zM61 79.8c-.1 0 0 0 0 0zm4.2 4v.2c-.1-.1 0-.1 0-.2zm12.9-7.2zm-13.5 7.2c.1-.1.1-.1 0 0l.1-.1-.1.1zm8.5-1.2z" style="fill:#fff"/><path d="M72.5 83.7c.1-.2 0-.1 0-.2.1-.2.1-.1.2-.1.1-.1.1-.3.1-.3 0-.2.3-.3.3-.5H73c0-.1.1-.2.1-.1v.1-.1c.1 0-.1.1 0 .1.1-.1.2-.3.3-.4.1 0-.2.2 0 .2l-.1.1c.2-.1-.1.1.1.1.2-.2.2-.2.3-.4 0-.1-.1 0 0-.1.2-.3.3-.1.4-.4 0-.1 0-.2.1-.3v.1c.2-.2 0-.2.3-.3 0 .1-.1.2-.1.1.2-.1.1-.1.2-.2h.1l.6-.6s0 .1 0 0c.3-.3.7-.5 1-.7l.1-.1s.1 0 0 0c.1-.1 0 0 0-.1.1-.1.1 0 .1 0 .2-.2.5-.5.8-.6.2-.1.1-.2.3-.3.4-.2.8-.6 1.1-.7 0-.1.1-.1.2-.2s.2-.2.1-.3c.1-.1.1-.2.1-.3 0-.1 0-.2-.1-.4-.1-.1-.2-.1-.3-.2v-.1h-.2l-.1-.1h-.2.1c-.3.1-.4.1-.5 0l-.4.2.1-.1c-.2.1-.1-.1-.2.1v.1c-.1 0-.3.1-.5.1v-.1c-.3.1-.6.2-1 .3.1 0 .1.1 0 .1h-.1c-.1.1.1 0 0 .1-.1 0-.1 0 0-.1l-.1.1v-.1c0 .1-.3 0-.3.1-.3.1-.5.2-.7.3 0 .1-.1.1-.2.1-.2 0-.4.1-.7.2-.2.1 0 .1-.1.1h-.2c-.3.1-.4.1-.7.3h.1-.2c-.4.2-1 .2-1.3.4l-.3.2c-.2 0 .1-.1 0-.1-.3.2-.6.2-.8.4-.3 0-.8.4-1.1.4-.1.1-.1 0-.2 0h.1c-.6.4-1.3.7-2 1.1-.2.2 0 .2-.3.4v-.1c-.4.4-.9.8-1.2 1.2V82c-.1.1-.3.3-.2.4-.1.1 0 0-.1 0-.1.1-.1.3-.2.3v-.1c0 .1-.2.3-.1.3-.1.2-.2.4-.3.5 0 .1-.2.3-.1.4l-.1.1.5.1c0-.1.1-.3 0-.4 0 0 0-.1.1 0v-.3c.2-.2 0-.5.2-.6.1-.4.1-.8.2-1.2.1 0-.1.4 0 .4.1-.4.1-.6.2-.9v.1c.1-.4.3-.6.3-1v.1c0-.1.1-.1 0-.1v.1c-.1.1 0-.3 0-.3.1.1.2-.3.2-.1v-.1c0-.1.1-.1.1 0 .1-.2 0-.2.1-.3v.1c0-.1 0-.2.1-.4v.1c.1-.3.2-.5.4-.7 0 .1.1-.1.2 0l.1-.2H67c.1-.1.1-.3.2-.4v.1l.2-.2v.2c.1-.2-.1 0 0-.2l.2-.2c0-.1 0-.2.1-.2l.1.1c0-.1.2-.3.2-.4v.1-.1l.1-.1c.2-.2-.2.1.1-.2v.1c.1-.1.2-.3.3-.4 0-.1.1-.1.1-.2h-.2c0-.1.3-.1.3-.1-.5.1-1.1.3-1.4.4h.1c0 .1-.3 0-.4.1v-.1c-.2 0-.4.2-.8.3-.1 0-.3.1-.5.1 0 0-.1.1 0 .1-.5 0-.8.4-1.2.4l.1-.1-.3.2h.1s-.1.1-.2.1c.1-.1 0-.1-.1-.1-.2 0 0 .1-.2.2l-.2.2c-.1 0 .1-.1.1-.1-.1.1-.2.2-.3.2.1 0 .1-.1.2-.1-.1 0-.2 0-.2.1l-.2.1h.1c-.1.2-.3.2-.4.4.1-.2 0-.1 0-.1h-.1c-.1.1-.2.1-.3.2 0 0-.1.1-.1 0-.1.1 0 0 .1 0-.1.2-.5.2-.7.5-.2.2-.2.3-.3.5-.1 0 0-.1 0-.1-.1.1-.2.1-.3.2h-.1c-.1.1 0 .1-.1.2v-.1c-.1.1-.1.2-.2.3v-.1c-.1.1-.2.3-.2.4l.1-.1s-.1 0 0 0c.1-.1.1-.1.2-.1l-.1.1c.1 0 .2-.3.4-.4v.1l.1-.2s.1 0 0 .1c.1-.1.1-.1.2-.1l.1-.1s.1 0 0 .1c.2-.1.2-.3.3-.3.2-.2 0-.1.1-.3h.2v-.1s.1-.1.1 0c.1-.1 0 0 0-.1.2 0 .3-.3.4-.2 0-.1-.1 0 0-.1.1.1.2-.1.3-.2 0 .1-.1.1 0 .1 0-.1.2-.1.3-.2 0-.1.2-.2.4-.3 0 0 .3-.1.5-.2 0-.1.2-.2.3-.2 0 0 0 .1-.1.1l.1-.1s0-.1.1-.1v.1c.2-.1.3-.2.5-.3 0-.1-.2-.1 0-.2v.1l.1-.1-.1.1c.1 0 0-.1.1-.1h.1-.1.2v-.1c.2-.1.1 0 .2 0l.1-.1h.1c.1-.1.4-.1.3-.2.3-.2.6-.2.9-.3.2-.1.4-.1.5-.2h.1c.1 0 .1-.1.2-.1l-.1.1c.1 0 .1 0 .2-.1-.1.1 0 .1 0 0h.1l-.1.1-.1.1c0 .1 0 .1-.2.2 0 .1.1-.1.1 0-.1.1-.3.2-.3.3-.2.2 0 .2-.2.4 0 0 .1 0 0 .2-.1.1-.2.1-.2 0 0 0 .1-.1 0-.1l-.2.2c-.1.1 0 .1.1 0-.1.2-.2.3-.3.4h.1c-.2.2 0 .1-.2.3-.1.1 0-.1-.1.1-.1.1-.1 0-.1-.1-.1.2-.2.3-.3.4v-.1c0 .1 0 .1-.1.2h.1c0 .1-.1.1-.1.1 0 .1.1 0 .1.1-.1.1-.1.2-.2.2.1-.2-.1 0 0-.2 0 0 0 .1-.1.1-.2.2 0 .1-.1.4 0 0-.1 0-.1.1 0-.1.1 0 .1.1-.1.1-.1.2-.1.3l.1-.1s0 .1-.1.2v-.1c0 .1-.2.2-.2.4-.1.1-.1 0-.1 0 0 .2-.1.2-.2.4.1 0 .1-.1.1.1l.1-.3v.2c0-.1 0-.2.1-.3v.1c-.1.1-.1.3-.2.4h-.1c-.1.2-.1.4-.2.7v-.1c0 .1-.1.2-.1.3 0 0-.1 0-.1.1 0 0-.1.2 0 .3l-.1.1c-.1.2 0 .3 0 .6 0-.1-.1 0-.1-.1v.6s0 .1.1.1c0 .1-.1.1-.1.2h.2c.1-.2.1-.5.3-.6.1-.2.2-.4.2-.5.2-.2 0-.2.2-.4.1-.1-.1.1 0 .1s.2-.2.3-.3c.1-.1.2-.3.3-.4 0-.2.2-.4.4-.5 0 .1-.1.1 0 .1.1-.1-.1 0 .1-.2.1 0 .2-.1.2-.1l-.1.1c.1 0 .2-.1.3-.2l.4-.4c.1-.2.1 0 .2-.2h.1l.4-.4c-.1.1-.2.2-.3.4.1-.1.3-.2.3-.3l-.1.1c.1-.1.2-.2.4-.3 0 .2.5-.2.7-.2.3-.2.6-.3 1-.5-.2 0 .1-.1 0-.2.1 0 .1-.1.1-.1l.3-.1c.1 0-.1.1-.1.1.2-.1.1 0 .2 0 0 0 0-.1.2-.1h-.2c.3-.2.3 0 .5-.2l-.1.1c.1-.1.5-.2.6-.3 0 0 .1 0 0 .1.4-.1.8-.4 1.1-.4.1 0 .1-.1.2-.1 0 0 .2-.1.3-.1l-.1.1c.4-.1.5-.2.8-.4 0 .1.3 0 .4 0 .4-.1.7-.3 1-.4.3 0 .8-.2 1.2-.3-.1 0 0-.1.1-.1s.2-.1.2-.1c.1.1.3 0 .4-.1v-.1c.2 0 .4-.1.7-.2.2-.1.3 0 .3 0 .1 0 .1.1.2.1h-.1c0 .1 0 .2-.1.3v-.1s0 .2-.2.3h-.1c-.3.2-.6.3-.8.6v-.1c-.1.1-.5.3-.4.4 0-.1-.3.2-.4.3V78c-.1.1-.1.2-.2.3 0 0-.1 0 0 0l-.2.2v-.1l-.2.2c-.1.1-.3.2-.3.1 0 0 0 .1-.1.2v-.1c-.2.1-.3.3-.5.4.2-.1.3-.2.3-.2s-.2.1-.1-.1c-.1.1-.2.3-.4.4 0 0-.1 0-.1.1 0 0-.1 0-.1.1 0 0-.2.1-.2.2 0 0-.1.1.1.1l.1-.1s.1-.1.2-.1c0 .1-.1.1-.2.2v.1c-.1 0-.3.2-.4.1-.2.2-.4.5-.5.7 0 .1-.1 0-.1.1l.1-.1c-.1.1-.3.3-.3.4-.1.1 0-.1-.1.1-.4.3-.4.8-.8 1.1h.1c-.4.5-.7 1.2-1.1 1.7-.1.2-.1.2-.1.3H71v.2c-.1.3-.3.4-.4.7h.1c-.1.1-.1.4-.2.3v.1l-.1.3c-.1.2-.1-.1-.2.2v.3c0-.1.1-.1.1-.1v.1c.1 0 .1.2.3-.1v-.2h.1l.1.9c.1-.1.1-.1.1-.2 0 0 .1 0 .1-.1v-.2s0 .1.1 0c0-.1-.1.1-.1-.1.1-.1.1 0 .1-.1v.1c0-.1.1-.2.1-.3.1-.1.1-.3.2-.3v-.3c0 .2.1-.3.2-.2 0-.1.2-.4.2-.6v.1l.2-.2c-.1-.1 0-.2 0-.3.1-.1 0 .1.1.1-.1 0 .1-.3 0-.2.1-.1.1-.1.2-.1-.1-.1 0-.1 0-.2.1-.3.1-.1.2-.2 0-.2 0 0 0 0zm2.7-3.3c-.1 0 0 0 0 0zm.3-.2-.1.1v-.1h.1zm-.9.1c.1 0 .1 0 0 0 .1 0 .1 0 0 0 0 .1 0 .1 0 0zm0 .2zm-8.5-3.4zm12.5-.5h.1zm-14.4 1.1zm-.8.4h-.1.1zm-.6.3zm3.3 2c0 .1 0 .1 0 0zm1.5-2.7s.1 0 0 0zm-2.4 6.1z" style="fill:#fff"/><path d="m67.5 77.9.1-.1s-.1 0-.1.1zm-7 2.3v.1zm0 .1zm-.1.1c.1-.1 0-.1 0 0zm.8-.8zm.2-.2c-.1 0-.2.1-.2.1s.1 0 .2-.1zm1-.5-.2.1s.1 0 0 .1c.3-.1 0 0 .2-.2zm.6-.3c-.1.1 0 0 0 0 .1 0 .1-.1 0 0zm4.6-1.9c.1 0 0 0 0 0zm1-.4.1-.1zm-.8.6zm-2.6 6.9c-.1 0-.1.1 0 0zm2.3-2.7c.1 0 .1 0 .2-.1-.1 0-.2.1-.2.1zm10.2-3.9h-.1.1z" style="fill:#fff"/></g><path d="M79.4 70.4h.5c0-1.7 0-3.5.3-5.4-1.4-.7-5.2-2.2-12.2-2.2-9 0-15.4 1.3-15.4 1.3v.7c.2 1.4.3 2.8.4 4.2.8-.3 3.6-.2 8.6.2 7.9.5 17.8 1.2 17.8 1.2z" style="fill:#4f84d3"/><path style="opacity:.65;fill:none;stroke:#fff;stroke-width:.5;stroke-miterlimit:10" d="m52.5 67.8 1.9-3.2 3.7 3.6 2.7-4.6 3.8 5.3 4.1-5.6 3.4 6.1 3.4-5.3 2 5.7 2.8-3.4"/><g style="opacity:.65"><path d="M57.7 50.5s0-.1 0 0zm0-.1zm-.3-.7zm-.3-.3s0-.1 0 0zm0-.1zm.3.4zm.2.6zm-.1-.4zm.1.1zm.1.3zm-.3-.5c.1 0 .1 0 0 0 .1 0 .1 0 0 0zm-2.5-3.5zm0-.2zm2.2 3zm-.8-1.1c0 .1 0 0 0 0 0 .1 0 .1 0 0zm1.3 2.3zm-1.3-2.2zm.6.8zm.1.2zm-.2-.3zm-.1-.1zm-1.6-2.1zm2.5 3.7zm-1-1.4zm-1-1.5zm.9 1.4zm-1.4-2.2zm-.1-.1c0 .1 0 0 0 0 .1 0 0 0 0 0 0 .1.1.1 0 0 .1.1.1.1 0 0 .1 0 .1.1.1.1h.1c.1 0-.1.1 0 .1h.1s.1 0 0 0c0 0 .1 0 .1.1 0 0 0 .1.1.1 0 0 .1 0 .1.1h.1l.1.1s0 .1.1 0v.1h.1v.2s0 .1.1.1l.1.1v.1l.1.1c.1 0 0 .1.1.1s0 .1.1.1c0 .1.1.1 0 .1.1.1.1.1.1.2h.1c.1 0 .1.1.1.1v.2c0 .1.1 0 0 .1l.1.1h-.1s.1 0 .1.1c0 0 0 .1.1.1h.1c-.1 0 0 0-.1.1 0 0 .1 0 .1.1h.1v.1s.1 0 .1.1l.1.1v.1c0 .1.1.1.1.1s.1 0 0 0h.1s0 .1.1.1h.3-.1l.1-.1v-.1h-.1v-.1h-.1s0 .1-.1 0c0 0 0-.1-.1-.1h-.1c0-.1-.1 0-.1-.1v-.1h-.2V49H57s-.1 0-.1-.1h-.1v-.1h-.1c.1 0 0 0 0-.1h-.4.1-.1c.1 0 0-.1 0-.1s0-.1-.1-.1h-.1v-.1s0-.1-.1 0c0 0-.1 0-.1-.1h-.1v-.1s-.1 0-.1-.1v-.2c0-.1-.1-.1 0-.1v-.1h-.1s0-.1-.1-.1c0 0 0-.1-.1 0h-.1s-.1 0 0-.1h.1-.1v-.1s0-.1-.1 0h-.1c0-.1-.1 0-.1-.1s-.1-.1-.1-.2V47s.1 0 0-.1h-.1s-.1 0-.1.1c-.1 0 0 0 0 .1h.2c.1-.6.1-.7.1-.6 0-.1 0 0 0 0zm.3.4zm.1 0zm.1-.2zm-.1 0v.1-.1zm2 3.1v-.1.1zm-1.8-2.4zm1.8 2.6zm.1.1zm0 0zm-.7-.9zm.3.2s0 .1 0 0zm-.5-.5zm.4.5zm.6 1h.1zm.1 0zm0 0zm-.1-.1zm0 0zm0-.2c.1 0 0 .1 0 0zm0 0s0-.1 0 0c0-.1 0-.1 0 0zm-.3-.5zm-.2 0zm.1-.2h.1-.1zm-.5-.7zm-.2-.3c0-.1 0-.1 0 0 0-.1 0 0 0 0zm-.6-1.1z" style="fill:#fff"/></g><g style="opacity:.65"><path d="M75.9 47.1zm0-.1s-.1 0 0 0c-.1 0-.1 0 0 0 0 0 0 .1 0 0 0 .1 0 .1 0 0zm-.4-.6zm-.2-.4zm0-.1zm.2.5zm.3.6zm-.1-.5zm0 .2zm.1.2zm-.2-.5zM73 42.9zm.1-.2zm2.1 3.1zm-.7-1.1s-.1 0 0 0c-.1 0 0 0 0 0zm1.3 2.3zm-1.4-2.3zm.6.8zm.1.2zm-.2-.3zm-.1-.1h.1zm-1.5-2s0-.1 0 0zm2.5 3.7zm-1.1-1.5zm-.9-1.4zm.9 1.4c0-.1 0-.1 0 0 0-.1 0-.1 0 0zm-1.4-2.3zm-.1 0c.1 0 .1.1.1.1h.1c.1 0-.1.1 0 .1h.1s.1 0 0 0c0 0 .1 0 .1.1 0 0 0 .1.1.1 0 0 .1 0 .1.1h.1l.1.1s0 .1.1 0v.1h.1v.2s0 .1.1.1l.1.1v.1l.1.1c.1 0 0 .1.1.1s0 .1.1.1c0 .1.1.1 0 .1.1.1.1.1.1.2h.1c.1 0 .1.1.1.1v.2c0 .1.1 0 0 .1l.1.1H75s.1 0 .1.1c0 0 0 .1.1.1h.1c-.1 0 0 0-.1.1 0 0 .1 0 .1.1h.1v.1s.1 0 .1.1l.1.1v.1c0 .1.1.1.1.1s.1 0 0 0h.1s0 .1.1.1h.3-.1l.1-.1v-.1h-.1v-.1H76s0 .1-.1 0c0 0 0-.1-.1-.1h-.1c0-.1-.1 0-.1-.1v-.1h-.2v-.2h-.2s-.1 0-.1-.1H75v-.1h-.1c.1 0 0 0 0-.1h-.4.1-.1c.1 0 0-.1 0-.1s0-.1-.1-.1h-.1v-.1s0-.1-.1 0c0 0-.1 0-.1-.1H74v-.1s-.1 0-.1-.1v-.2c0-.1-.1-.1 0-.1v-.1h-.1s0-.1-.1-.1c0 0 0-.1-.1 0h-.1s-.1 0 0-.1h.1-.1v-.1s0-.1-.1 0h-.1c0-.1-.1 0-.1-.1s-.1-.1-.1-.2v-.1s.1 0 0-.1H73s-.1 0-.1.1c-.1 0 0 0 0 .1h.2c.1-.7 0-.7.1-.6-.1-.1 0-.1 0 0 0-.1 0-.1 0 0 0-.1 0-.1 0 0 0-.1 0-.1 0 0zm.3.3zm0 0zm.1-.1zm0 0zm1.9 3zM73.8 44zm1.8 2.6zm0 .1zm0 .1zm-.6-1zm.2.3zm-.5-.6zm.5.6zm.6.9zm0 0zm0 0zm0-.1c-.1.1 0 .1 0 0zm-.1 0s0 .1 0 0c0 .1.1 0 0 0zm.1-.1c0-.1 0 0 0 0zm-.1-.1c.1 0 .1 0 0 0 .1 0 0 0 0 0zm-.3-.5c.1 0 .1 0 0 0zm-.1 0zm.1-.1zm-.5-.8zm-.3-.3s.1 0 0 0zm-.6-1z" style="fill:#fff"/></g><path d="M65.1 54.2zm0-.1s-.1 0-.1.1l.1-.1s0 .1 0 0zm-.3-.7zm-.2-.4zm0-.1zm.2.5zm.1.7s.1 0 0 0c.1 0 .1 0 0 0 .1 0 0 0 0 0zm.1-.5zm.1.1s-.1 0 0 0c-.1 0-.1 0 0 0-.1 0 0 0 0 0zm0 .2zm-.2-.4s0-.1 0 0zm-2.7-3.4zm.1-.3zm2.3 3zm-.8-1.1s-.1 0-.1.1c0-.1.1-.1.1-.1zm1.1 2.4zm-1.2-2.4zm.7.8zm0 .2zm-.2-.3s.1 0 0 0zm0-.1zm-1.8-1.9zm2.6 3.7zm-1.1-1.4zm-.9-1.5c-.1 0-.1 0 0 0zm.8 1.4zm-1.3-2.2z" style="fill:#6594d9"/><path d="M62.3 50.3s.1 0 .1-.1c0 .1-.1.1-.1.1h.2s.1 0 .1-.1h-.1.1-.1l-.1.1h.1c.1 0-.1.1 0 .1 0 0 .1-.1.1 0h-.1.2-.1.1-.1c.1 0 0 .1 0 .1h.2c.1 0 .1 0 .1.1h.1c0 .1.1.1 0 .2.1 0 0 .1.1 0 0 .1-.1.1-.1.1h.1-.1.1-.1v.1h.1c.1 0-.1 0 0 0v.1s.1 0 .1.1l.1-.1h-.1.1s-.1 0-.1.1c0 0 0 .1 0 0l.1.1h.1v.1h.1l-.1.1h.1c.1 0-.1.2 0 .1h.1-.1c.1 0 0 .1.1.1-.1.1.1.1 0 .2.1 0 0 .2.1.2 0 0 .2-.1.1 0h-.1c.1 0 .1.1.2.1h.1s.1 0 0 0h.1v.1h.1c-.1 0 0 .1 0 .1h-.1.1c-.1.1.1 0 0 .1.1 0 .1 0 .2.1h-.1.1-.1c.1 0 0 .1.1.1 0 0 .1 0 .1-.1l-.1.1h.4c-.1 0 0 0-.1.1 0 0 .1 0 0 0 0 0 .1-.1.1 0 0 0-.1 0-.1.1h.1-.1s.1-.1.1 0c0 0 .1 0 0 .1h-.1s.1 0 .1.1c.1-.1 0 .1 0 0 0 0-.1 0 0 0h.1v.1h.1c-.1.1.1 0 0 .1h.1s-.1 0-.1.1c-.1.1.1 0 0 0h-.1.1v.1c.1-.1 0 0 .1 0-.1 0 0 0-.1.1.1 0 0 .1.1.1h.1-.1s.1 0 0 0H65h.1-.1.1c.1-.1 0 0 0 0h.1l-.2.3h.1s-.1 0 0 0H65l.1-.1h-.2v-.1h-.1c.1-.1 0 0 0 0h.1c-.1 0 0 0 0 0h-.1v-.1h-.1.1-.1s-.1.1-.2.1h.1v-.1h-.1v-.1h-.2c-.1 0 0-.1 0-.1h-.1.1c0-.1-.2 0-.1-.1l-.1.1.1-.1h-.1s-.1.1-.1 0l.1-.1v-.2H64s.1 0 0 0h.1V53s-.1 0-.1.1h.1c0-.1-.1 0-.1 0s.1 0 0 0h-.1c-.1 0 0-.1 0-.1s.1 0 .1-.1c-.1 0 0 0 0 0h-.3c.1-.1-.1 0 0 0l.1-.1c0-.1-.1 0-.1-.1l.1-.1h-.2.1s-.1 0 0 0h-.2c.1-.1 0-.1 0-.1h-.2.1c.1-.1 0 0 0-.1h-.2.1-.1l.1-.1c.1 0 0 0 0 0h-.1c-.1 0 0 0 0 0h.1-.1.1-.2c.1-.1 0-.1.1-.1-.1 0 0-.1-.1-.1l-.1.1v-.1h.1l.1-.1h-.1c-.1 0 .1-.1 0-.1 0 0 0-.1-.1 0 0 0-.1 0-.1-.1 0 0-.1 0 0 0 0 0-.1 0 0 0 0-.1-.1 0-.1 0 .1 0 .1-.1.1-.1h-.2c.1-.1 0-.1 0-.2h-.1s-.1 0 0 0 0-.1 0-.1l.7-.4c.1-.1-.1-.1 0-.2h-.1v-.1s-.1.1-.2.1l.1-.1s0-.1-.1-.1c0 0 0-.1-.1 0h-.2s-.1 0 0 0h-.1v-.1h-.1s-.1 0 0 0l.1-.1h-.1l-.1.1s-.1 0 0 0h-.1l.1-.1h-.3s.1 0 0 0c.1-.1-.2 0-.1-.1 0-.1-.1-.1-.1-.2h-.2c-.1 0 .1-.1 0-.1h-.1l.1-.1h-.1c-.1 0-.2.1-.2.2h.2s-.1 0-.1.1l.1-.1s-.1 0 0 0h.1v.1h.1c-.1 0 0 0-.1.1h.1v.1c.1 0 .1 0 .1-.1.4-.1.4-.1.4 0 0-.1 0-.1.1-.1-.1 0-.1 0-.1.1.1-.1 0 0 0 0zm.4.3zm0 .1c0-.1 0-.1 0 0 0-.1 0-.1 0 0 0-.1 0-.1 0 0zm.3-.3zm-.1 0zm1.9 3zm-1.9-2.2zm1.9 2.5zm0 .1zm0 .1zm-.7-.9zm.3.2zm-.5-.5zm.5.5zm.6 1zm0 0c0-.1 0-.1 0 0zm0-.1c0 .1 0 .1 0 0zm-.1 0zm0-.1s0 .1 0 0c0 .1.1 0 0 0zm.2-.2c.1-.1 0 0 0 0zm0-.1zm-.3-.4c0-.1 0-.1 0 0zm-.3 0zm.2-.2h.1-.1zm-.5-.8c0 .1 0 0 0 0zM64 52s-.1 0 0 0zm-.6-1zm-1-5.7c.1 0 .1-.1 0 0zm.1-.2s-.1 0-.1.1l.1-.1c0 .1 0 .1 0 0 0 .1 0 .1 0 0 0 .1 0 .1 0 0 0 .1 0 .1 0 0zm-.3-.6zm-.2-.4zm0-.1zm.2.5zm.1.7c0-.1 0-.1 0 0 0-.1 0 0 0 0zm.1-.6zm0 .1s0 .1 0 0c0 .1 0 .1 0 0 0 .1 0 0 0 0zm.1.3zm-.2-.5zm-2.7-3.4zm.1-.3zm2.3 3zm-.8-1.1s-.1 0-.1.1c0 0 .1 0 .1-.1zm1.1 2.4zm-1.2-2.3zm.7.8s-.1 0 0 0c-.1 0 0 0 0 0zm0 .2zm-.2-.3zm0-.1h-.1zm-1.8-1.9c0-.1 0-.1 0 0 0-.1 0-.1 0 0zm2.6 3.6c-.1 0-.1 0 0 0-.1 0-.1 0 0 0-.1 0 0 0 0 0zm-1.1-1.4c-.1 0-.1 0 0 0zm-1-1.5zm.9 1.5c0-.1 0-.1 0 0 0-.1 0-.1 0 0zm-1.4-2.3z" style="fill:#6594d9"/><path d="M59.7 41.4s.1 0 .1-.1l-.1.1h.2s.1 0 .1-.1h-.1.1-.1l-.1.1h.1c.1 0-.1.1 0 .1 0 0 .1-.1.1 0h-.1.2-.1.1-.1c.1 0 0 .1 0 .1h.2c.1 0 .1 0 .1.1h.1c0 .1.1.1 0 .2.1 0 0 .1.1 0 0 .1-.1.1-.1.1h.1-.1.1-.1v.1h.1c.1 0-.1 0 0 0v.1s.1 0 .1.1l.1-.1h-.1.1s-.1 0-.1.1c0 0 0 .1 0 0l.1.1h.1v.1h.1l-.1.1h.1c.1 0-.1.2 0 .1h.1-.1c.1 0 0 .1.1.1-.1.1.1.1 0 .2.1 0 0 .2.1.2 0 0 .2-.1.1 0h-.1c.1 0 .1.1.2.1h.1s.1 0 0 0h.1v.1h.1c-.1 0 0 .1 0 .1h-.1.1c-.1.1.1 0 0 .1.1 0 .1 0 .2.1h-.1.1-.1c.1 0 0 .1.1.1 0 0 .1 0 .1-.1l-.1.1h.4c-.1 0 0 0-.1.1 0 0 .1 0 0 0 0 0 .1-.1.1 0 0 0-.1 0-.1.1h.1-.1s.1-.1.1 0c0 0 .1 0 0 .1h-.1s.1 0 .1.1c.1-.1 0 .1 0 0 0 0-.1 0 0 0h.1v.1h.1c-.1.1.1 0 0 .1h.1s-.1 0-.1.1c-.1.1.1 0 0 0h-.1.1v.1c.1-.1 0 0 .1 0-.1 0 0 0-.1.1.1 0 0 .1.1.1h.1-.1s.1 0 0 0h-.1.1-.1.1c.1-.1 0 0 0 0h.1-.1.1s-.1 0 0 0h-.1l.1-.1h-.2v-.1h-.1c.1-.1 0 0 0 0h.1c-.1 0 0 0 0 0h-.1v-.1h-.1.1-.1s-.1.1-.2.1h.1v-.1H62v-.1h-.2c-.1 0 0-.1 0-.1h-.1.1c0-.1-.2 0-.1-.1l-.1.1.1-.1h-.1s-.1.1-.1 0l.1-.1v-.2h-.1s.1 0 0 0h.1v-.1s-.1 0-.1.1h.1c0-.1-.1 0-.1 0s.1 0 0 0h-.1c-.1 0 0-.1 0-.1s.1 0 .1-.1c-.1 0 0 0 0 0h-.3c.1-.1-.1 0 0 0l.1-.1c0-.1-.1 0-.1-.1l.1-.1h-.2.1s-.1 0 0 0H61c.1-.1 0-.1 0-.1h-.2.1c.1-.1 0 0 0-.1h-.2.1-.1l.1-.1c.1 0 0 0 0 0h-.1c-.1 0 0 0 0 0h.1-.1.1-.2c.1-.1 0-.1.1-.1-.1 0 0-.1-.1-.1l-.1.1v-.1h.1l.1-.1h-.1c-.1 0 .1-.1 0-.1 0 0 0-.1-.1 0 0 0-.1 0-.1-.1 0 0-.1 0 0 0 0 0-.1 0 0 0 0-.1-.1 0-.1 0 .1 0 .1-.1.1-.1h-.2c.1-.1 0-.1 0-.2h-.1s-.1 0 0 0 0-.1 0-.1l-.1.1c.1-.1-.1-.1 0-.2h-.1V42s-.1.1-.2.1l.1-.1s0-.1-.1-.1c0 0 0-.1-.1 0h-.2s-.1 0 0 0h-.1v-.1h-.1s-.1 0 0 0l.1-.1h-.1l-.1.1s-.1 0 0 0H59l.1-.1h-.3s.1 0 0 0c.1-.1-.2 0-.1-.1 0-.1-.1-.1-.1-.2h-.2c-.1 0 .1-.1 0-.1h-.1l.1-.1h-.1c-.1 0-.2.1-.2.2h.2s-.1 0-.1.1l.1-.1s-.1 0 0 0h.1v.1h.1c-.1 0 0 0-.1.1h.1v.1c.1 0 .1 0 .1-.1 1.1-.3 1.1-.3 1.1-.2 0-.1 0-.1.1-.1-.1 0-.1 0-.1.1.1-.1 0-.1 0 0 0-.1 0 0 0 0zm.4.3s-.1 0 0 0c-.1 0 0 0 0 0zm0 0zm.3-.3c-.1 0-.1 0 0 0-.1 0-.1 0 0 0-.1 0 0 0 0 0zm-.1.1zm1.9 3zm-1.9-2.3zm1.8 2.6zm.1.1zm0 0zm-.7-.9zm.3.2zm-.5-.5zm.5.5zm.6 1zm0 0zm0 0zm-.1-.1zm0 0zm.2-.2s0-.1 0 0c0-.1 0 0 0 0zm-.1-.1c.1 0 .1 0 0 0 .1 0 0 0 0 0zm-.3-.5c.1 0 .1 0 0 0zm-.2.1h-.1.1zm.2-.3zm-.5-.7z" style="fill:#6594d9"/><path d="M61.3 43.1c.1 0 .1-.1 0 0zm-.5-1.1zm13.4 12.6s.1 0 0 0zm.1-.1s-.1 0-.1.1l.1-.1c0 .1 0 .1 0 0 0 .1-.1.1 0 0 0 .1 0 0 0 0zm-.3-.6zm-.2-.4c0-.1 0-.1 0 0zm0-.2c0 .1 0 .1 0 0zm.2.6c0-.1 0-.1 0 0zm.1.6zm0-.5zm.1.1zm.1.3zm-.2-.5zm-2.8-3.4zm.2-.3zm2.3 3zm-.8-1.1s-.1 0-.1.1l.1-.1zm1.1 2.4zm-1.2-2.3zm.6.7zm.1.3zm-.2-.3zm-.1-.1zm-1.7-2zm2.5 3.7zM73 53.1zm-.9-1.5zM73 53zm-1.4-2.2z" style="fill:#6594d9"/><path d="M71.4 50.8s.1 0 .1-.1c.1 0 0 0-.1.1h.2s.1 0 .1-.1h-.1.1-.1l-.1.1h.1c.1 0-.1.1 0 .1 0 0 .1-.1.1 0h-.1.2-.1.1-.1c.1 0 0 .1 0 .1h.2c.1 0 .1 0 .1.1h.1c0 .1.1.1 0 .2.1 0 0 .1.1 0 0 .1-.1.1-.1.1h.1-.1.1-.1v.1h.1c.1 0-.1 0 0 0v.1s.1 0 .1.1l.1-.1h-.1.1s-.1 0-.1.1c0 0 0 .1 0 0l.1.1h.1v.1h.1l-.1.1h.1c.1 0-.1.2 0 .1h.1-.1c.1 0 0 .1.1.1-.1.1.1.1 0 .2.1 0 0 .2.1.2 0 0 .2-.1.1 0h-.1c.1 0 .1.1.2.1h.1s.1 0 0 0h.1v.1h.1c-.1 0 0 .1 0 .1h-.1.1c-.1.1.1 0 0 .1.1 0 .1 0 .2.1h-.1.1-.1c.1 0 0 .1.1.1 0 0 .1 0 .1-.1l-.1.1h.4c-.1 0 0 0-.1.1 0 0 .1 0 0 0 0 0 .1-.1.1 0 0 0 .1 0 0 0 0 0-.1 0-.1.1h.1-.1s.1-.1.1 0c0 0 .1 0 0 .1h-.1s.1 0 .1.1c.1-.1 0 .1 0 0 0 0-.1 0 0 0h.1v.1h.1c-.1.1.1 0 0 .1h.1s-.1 0-.1.1c-.1.1.1 0 0 0H74h.1v.1c.1-.1 0 0 .1 0-.1 0 0 0-.1.1.1 0 0 .1.1.1h.1-.1s.1 0 0 0h-.1.1-.1.1c.1-.1 0 0 0 0h.1-.1.1s-.1 0 0 0h-.1l.1-.1h-.2V54H74c.1-.1 0 0 0 0h.1c-.1 0 0 0 0 0H74v-.1h-.1.1-.1s-.1.1-.2.1h.1v-.1h-.1v-.1h-.2c-.1 0 0-.1 0-.1h-.1.1c0-.1-.2 0-.1-.1l-.1.1.1-.1h-.1s-.1.1-.1 0l.1-.1v-.2h-.1s.1 0 0 0h.1c-.1 0 0-.1 0-.1s-.1 0-.1.1h.1c0-.1-.1 0-.1 0s.1 0 0 0h-.1c-.1 0 0-.1 0-.1s.1 0 .1-.1c-.1 0 0 0 0 0h-.3c.1-.1-.1 0 0 0l.1-.1c0-.1-.1 0-.1-.1l.1-.1h-.2.1s-.1 0 0 0h-.2c.1-.1 0-.1 0-.1h-.2.1c.1-.1 0 0 0-.1h-.2.1-.1l.1-.1c.1 0 0 0 0 0h-.1c-.1 0 0 0 0 0h.1-.1.1-.2c.1-.1 0-.1.1-.1-.1 0 0-.1-.1-.1l-.1.1v-.1h.1l.1-.1h-.1c-.1 0 .1-.1 0-.1 0 0 0-.1-.1 0 0 0-.1 0-.1-.1 0 0-.1 0 0 0 0 0-.1 0 0 0 0-.1-.1 0-.1 0 .1 0 .1-.1.1-.1h-.2c.1-.1 0-.1 0-.2h-.1s-.1 0 0 0 0-.1 0-.1l-.1.1c.1-.1-.1-.1 0-.2h-.1v-.1s-.1.1-.2.1l.1-.1s0-.1-.1-.1c0 0 0-.1-.1 0h-.2s-.1 0 0 0H71v-.1h-.1s-.1 0 0 0l.1-.1h-.1l-.1.1s-.1 0 0 0h-.1l.1-.1h-.3s.1 0 0 0c.1-.1-.2 0-.1-.1 0-.1-.1-.1-.1-.2h-.2c-.1 0 .1-.1 0-.1H70l.1-.1H70c-.1 0-.2.1-.2.2h.2s-.1 0-.1.1l.1-.1s-.1 0 0 0h.1v.1h.1c-.1 0 0 0-.1.1h.1v.1c.1 0 .1 0 .1-.1 1.2-.3 1.2-.4 1.1-.2 0-.1 0-.1.1-.1l-.1.1c.1-.2.1-.1 0 0 .1-.1.1-.1 0 0 .1 0 0 0 0 0zm.4.3zm.1 0zm.2-.3zm0 0zm1.9 3.1zm-1.9-2.3zm1.8 2.6zm.1 0zm0 .1zm-.7-.9zm.3.2zm-.6-.5zm.6.5zm.5 1zm0 0c.1 0 .1 0 0 0zm.1 0zm-.1-.1zm0 0z" style="fill:#6594d9"/><path d="M74.2 54.2s.1 0 0 0c.1 0 0 .1 0 0zm0 0s0-.1 0 0c0-.1 0-.1 0 0zm-.3-.5zm-.3.1h.1zm.3-.3zm-.5-.7c-.1 0 0 0 0 0zm-.3-.3c0-.1 0-.1 0 0 0-.1 0 0 0 0zm-.6-1.1h.1-.1z" style="fill:#6594d9"/></g></svg>