<svg xmlns="http://www.w3.org/2000/svg" viewBox="0 0 131.2 142.8" style="enable-background:new 0 0 131.2 142.8" xml:space="preserve"><style>.st5{fill:#0d695c}.st6{fill:#4db6ac}.st7{fill:none;stroke:#ef7937;stroke-width:.925;stroke-miterlimit:10}.st8{fill:#147467}.st9{fill:#4db6ac}.st10{fill:none;stroke:#0d695c;stroke-width:.8491;stroke-miterlimit:10}.st11{fill:#147467}.st12{fill:#4db6ac}.st13{fill:none;stroke:#d9413d;stroke-width:.8491;stroke-miterlimit:10}.st14{opacity:.37}.st15{clip-path:url(#SVGID_2_)}.st16{clip-path:url(#SVGID_4_)}.st17{clip-path:url(#SVGID_6_)}.st18{clip-path:url(#SVGID_8_)}.st19{clip-path:url(#SVGID_10_)}.st20{clip-path:url(#SVGID_12_)}.st21{clip-path:url(#SVGID_14_)}.st22{clip-path:url(#SVGID_16_)}.st23{clip-path:url(#SVGID_18_)}.st24{clip-path:url(#SVGID_20_)}.st25{fill:none;stroke:#147467;stroke-width:.925;stroke-miterlimit:10}.st26{clip-path:url(#SVGID_22_)}.st27{clip-path:url(#SVGID_24_)}.st28{clip-path:url(#SVGID_26_)}.st29{clip-path:url(#SVGID_28_)}.st30{clip-path:url(#SVGID_30_)}.st31{fill:none;stroke:#d9413d;stroke-width:.925;stroke-miterlimit:10}.st32{clip-path:url(#SVGID_32_)}.st33{clip-path:url(#SVGID_34_)}.st34{clip-path:url(#SVGID_36_)}.st35{clip-path:url(#SVGID_38_)}.st36{clip-path:url(#SVGID_40_)}.st37{fill:#147467}.st39{fill:#ee8423}.st40{fill:#f18a50}.st41{fill:#019788}.st42{fill:#32867a}.st43{fill:#f67258}.st44{fill:#de5956}.st45{opacity:.5}.st46{fill:#4b5d9a}.st47{opacity:.6}.st48{fill:#21a497}.st49{fill:#f7846d}.st50{fill:#26a59a}.st51{opacity:.65;fill:none;stroke:#fff;stroke-width:.2;stroke-miterlimit:10}.st52{fill:#80cbc4}.st53{fill:none;stroke:#31458b;stroke-miterlimit:10}.st54{fill:#0d695c}.st55{fill:none;stroke:#f5a800;stroke-miterlimit:10}.st55,.st56,.st57{stroke-width:.2}.st56{fill:none;stroke:#4db6ac;stroke-miterlimit:10}.st57{stroke:#ff8a65}.st57,.st58,.st59,.st60,.st61{fill:none;stroke-miterlimit:10}.st58{opacity:.65;stroke:#fff;stroke-width:.5}.st59{stroke:#ef7937}.st60{stroke:#147467}.st61{stroke:#d9413d}.st62{fill:#147467}.st63,.st64,.st65{fill:#80cbc4}</style><g id="Calque_1"><path d="M78 114.8s-24.4-.3-29.7 1.4c-5.3 1.7 13.7 6.7 23.8 5.8 10-1 17.5-4.3 14.5-5.4s-6-1.5-8.6-1.8z" style="opacity:5.000000e-02"/><path d="M67.1 104c-.1.6 0 .6 0 1.2s.2.6.2 1.2-.1.6 0 1.2c0 .6 0 .6.1 1.2 0 .6.1.6.1 1.2v1.2c0 .6.1.6.1 1.2s0 .6.1 1.2c0 .6.1.6.2 1.2v2.4c0 .5.5.8 1 .8.6 0 .6 0 1.3-.1s.6-.1 1.3-.2c.6 0 .7-.8.1-1-.6-.1-.6 0-1.2 0s-.6.1-1.2.1c-.3-.1-.2-1.1-.3-1.4 0-.6 0-.6-.1-1.1 0-.6-.1-.6-.2-1.1v-1.1c0-.6 0-.6-.1-1.1 0-.6 0-.6-.1-1.1 0-.6-.1-.6-.1-1.1 0-.6-.1-.6-.1-1.1 0-.6-.1-.6-.1-1.1v-1.1c0-.6.1-.6 0-1.1 0-.6-.2-.6-.2-1.1 0-.6.5-1.1 0-1.2-.6-.1-.2.6-.5 1.1-.2.3-.2.3-.3.8zm-5.2 0c.1.6 0 .6-.1 1.2v1.2c0 .6-.1.6-.1 1.2s0 .6-.1 1.2c0 .6.1.6.1 1.2s-.2.6-.2 1.2.1.6.1 1.2-.1.6-.2 1.2c0 .6 0 .6-.1 1.2 0 .6-.1.6-.1 1.2v1.2c0 .5-.4.8-.9.8-.6 0-.6 0-1.3-.1s-.6.1-1.3 0c-.6 0-.6-.8-.1-1 .5-.1.5-.2 1-.2s.5.2 1 .1c.3-.1.7-1.1.8-1.5 0-.6-.2-.6-.1-1.1 0-.6.1-.6.1-1.1 0-.6.1-.6.1-1.1 0-.6-.1-.6 0-1.1v-1.1c0-.6.1-.6.2-1.1v-2.2c0-.6.1-.6.1-1.1 0-.6 0-.6.1-1.1v-1.1c0-.6-.4-.9.2-1 .5-.1.1.5.3 1 .3.3.4.3.5.8z" style="fill:#0d695c"/><path d="M89.7 61.4c-.1-.9-.1-1.7-.1-2.6 0-.9.1-1.7.1-2.6 0-.9-.1-1.7-.1-2.5 0-.9.2-1.7.2-2.5.1-1.1.2-2.1.3-3.1 0-1.1.1-2.1.1-3.2s-.1-2.1-.2-3.1c0-1.5-.1-3-.3-4.3-.1-.9-.5-1.8-.6-2.6-.2-.9.1-1.9-.1-2.7-.2-.9-.6-1.7-.9-2.5-.3-.9-.4-1.8-.6-2.6-.4-1-.7-1.8-1.1-2.5-.6-1-1.5-1.2-2.2-1.3-1.1-.2-1.8 0-2.3 1-.3.7-.6 1.7-.7 2.7-.1.9.4 1.7.4 2.6-.1-1-.5-1.9-.8-2.9-.3-1.1-.5-2.2-1-3.1-.6-1-1.6-1.8-2.6-2-.9-.2-1.3.5-1.7 1.4-.3.6-.7 1.4-.8 2.3 0 .8.2 1.6.2 2.4-.2-1.1-.3-2.2-.6-3-.5-1.3-1.5-2-2.4-1.7-.8.2-1.2 1.3-1.4 2.6-.1.9-.1 2 0 3.1s.2 2.1.4 3c-.2-1.1-.5-2.3-.9-3.3-.5-1.5-1.4-2.6-2.2-2.5-1 .1-1.5.7-1.7 1.8-.1.7 0 1.5 0 2.7 0 .8-.5 1.6-.5 2.7 0 .8.7 1.7.7 2.6 0 .9-.4 1.9-.3 3 0 1 .4 1.9.5 3 .1 1 .2 2 .2 3 .1 1-.2 2-.1 3 .1 1.1.6 2 .7 2.9.1 1.2-.4 2.2-.3 3v3c0 1 .5 2 .5 3v3c0 1.1-.2 2.1-.2 3 0 1.1.4 2.1.4 3 0 1.1-.3 2.1-.3 3 0 1.2.1 2.2.1 3 .1 2 .2 1.5.2 3 0 .9-.1 1.8-.3 2.8-.2.9-.5 1.8-.8 2.7-.4.9-1.1 1.5-1.7 2.2-.7.8-1.3 1.2-2.2 1.2-1.2 0-2.1-.2-2.9-.6-1-.5-1.8-.9-2.3-1.8-.4-.9-.3-1.9-.5-3-.1-1-.8-2-.9-2.9-.1-1.1-.3-2-.8-2.8-.4-.6-1-1.1-2.2-1.5-.8-.3-1.7-.7-2.8-.8-.9-.1-1.9-.2-2.9-.2s-2-.2-2.9-.1c-1 .1-2 .1-2.9.3-1 .3-2.1.7-2.8 1.1-1 .6-1.2 1.6-1.2 2.6 0 1.3-.1 2.4-.1 3.2v3.2c0 1 .2 1.9.3 2.9.1 1-.3 2-.1 2.9.2 1 .5 1.9.7 2.8.3.9.7 1.8 1.1 2.7.4.9.7 1.9 1.2 2.7.5.8 1.2 1.6 1.8 2.3.6.8 1.4 1.3 2.1 2 .7.7 1.2 1.6 2 2.1.8.6 1.7.9 2.5 1.4.8.5 1.8.7 2.7 1.1.9.4 1.8.6 2.7.9.9.3 1.8.5 2.8.7.9.2 1.8.5 2.8.6.9.1 1.9.3 2.9.3s1.9-.2 2.8-.3c1-.1 1.8-.6 2.8-.7.9-.2 1.9-.3 2.8-.6.9-.3 1.7-.8 2.5-1.2.9-.4 1.7-.8 2.5-1.3s1.6-1 2.3-1.6c.7-.6 1.4-1.2 2.1-1.9.6-.7 1.4-1.3 1.9-2.1.6-.8.9-1.7 1.4-2.5.5-.8.9-1.7 1.3-2.5.4-.9.9-1.7 1.2-2.6.3-.9.4-1.9.6-2.8.2-.9.4-1.9.5-2.8.1-1.1.2-2.1.3-3 .1-1.1.5-2.1.6-3 .2-1.1.2-2.1.4-3 .2-1 .5-2 .7-3 .1-1 .3-2 .3-3 .1-.9 0-1.9 0-3 0-.9-.4-1.9-.5-3 .4-1.2.3-2.2.2-3.3z" style="fill:#4db6ac"/><path d="M87.1 90.6c-.3.4-.2.5-.5.9 0 0 .2.3.7.7.2.2.5.4.7.7.2.3.4.6.5.9.2.3.2.7.3 1 .1.3.1.7.1 1 0 .3 0 .7-.1 1-.1.3-.2.6-.4.9-.2.3-.5.4-.7.7-.2.2-.4.5-.6.8-.2.2-.5.4-.8.7-.3.2-.5.4-.8.6-.3.2-.5.4-.8.6-.3.2-.6.4-.8.6-.3.2-.6.4-.8.6-.3.2-.5.5-.8.7-.3-.1-.6-.1-1-.1h-1c-.3.1-.7.1-.9.2-.5.1-.8.3-.9.4.1.5.1.5.4.9.2-.1.5-.2.9-.3.3-.1.7-.2 1-.2-.5.3-1 .5-1.4.7.1.5.2.5.5.9.1 0 .4-.3.8-.6.2-.1.5-.3.8-.5.2-.2.5-.3.8-.5.1.1.2.1.2.2.2.2.2.5 0 .8-.1.3-.2.5-.4.8-.2.2-.4.5-.5.7-.2.2-.5.5-.7.6.2.4.4.4.7.7l.7-.7c.2-.2.5-.5.7-.8.2-.3.3-.6.4-.9.1-.3.3-.7.3-1 0-.3-.2-.6-.4-.9 0-.1-.1-.1-.2-.2.3-.2.6-.3.9-.5.3-.2.6-.4.8-.6l.9-.6c.3-.2.5-.5.8-.7.3-.2.5-.5.8-.7.3-.2.5-.5.7-.7.3-.3.6-.4.8-.7l.6-.9c.2-.3.3-.7.4-1 .1-.3.1-.6.2-.9V95c0-.3 0-.6-.1-.9-.1-.3-.3-.6-.4-.8-.1-.3-.3-.6-.4-.8-.2-.3-.4-.5-.6-.7-.2-.3-.4-.5-.6-.7-.5-.1-.8-.5-.8-.5zm-56.8-2.9c.4-.2.5-.1 1-.3 0 0 .1.4.2 1 0 .3.1.7.2 1 0 .3-.1.7-.1 1 0 .3-.2.7-.3 1-.1.3-.2.7-.4.9.2.3.2.6.4.9.2.3.4.6.5.8.2.3.4.6.5.8.2.3.3.6.5.9.2.3.4.6.5.8.2.3.5.5.7.7.2.3.5.5.7.7.3.2.6.4.9.4.3 0 .6-.1.9-.1.3-.1.6 0 .9-.2.3-.1.6-.3.8-.4.3-.2.4-.5.7-.6.3-.2.5-.4.7-.6.2-.2.5-.4.7-.6.4-.4.5-.7.6-.7l.8.6s-.2.3-.5.7c-.2.2-.4.4-.7.6-.2.2-.4.4-.7.6-.2.2-.5.4-.8.5-.3.2-.5.4-.8.5l-.9.3c-.3.1-.6.3-.9.3-.3 0-.6 0-.9-.1-.3 0-.6-.1-.9-.3-.3-.2-.5-.4-.8-.6-.2-.2-.5-.4-.7-.6-.2-.2-.3-.6-.5-.8-.2-.3-.4-.5-.6-.8-.2-.3-.4-.5-.6-.8-.2-.3-.3-.6-.5-.9-.2-.3-.3-.5-.5-.8-.2-.3-.2-.7-.4-.9-.3.1-.6.3-.9.2-.3 0-.5-.3-.8-.4-.3-.1-.5-.3-.8-.4-.2-.2-.5-.4-.7-.6-.2-.2-.5-.4-.7-.6-.3-.3-.5-.7-.5-.7.4-.3.4-.3.8-.5.1.2.3.3.6.6.2.2.3.5.6.7.2.2.5.4.8.5.3.2.6.4.8.4.1 0 .3-.1.4-.1-.1-.3-.4-.5-.5-.8l-.3-.9c-.1-.3-.3-.6-.4-.8l-.3-.9-.4-.8c.4-.3.4-.5.9-.5.1.3.2.7.4 1.1.1.3.3.6.5.9.1.3.3.6.5 1 .1.3.3.6.4.9.1-.3.3-.5.3-.8.1-.3 0-.6 0-.9v-.9c-.3 0-.4-.4-.4-.6z" style="fill:#0d695c"/><path d="M59.1 88s-3.2-3.3-7.4-.9-3.7 8.7.5 10 7-.4 7.6-2.2c.8-2 1.2-5.2-.7-6.9zm16.4 0s-3.2-3.3-7.4-.9-3.7 8.7.5 10c4.2 1.3 7-.4 7.6-2.2.7-2 1.1-5.2-.7-6.9z" style="fill:#fff"/><circle cx="55.3" cy="93.5" r="3.7"/><circle cx="71.4" cy="93.2" r="3.8"/><g style="opacity:.65"><path d="M75 101.2v-.1.1zm0-.3v.4c-.1-.2 0-.1 0-.4v.2-.1c0-.1 0-.1 0 0-.1 0 0 0 0-.1zm-.9-.2zm-.5-.1zm-.1-.2zm.6.3zm.7.6zm-.5-.8zm.2 0v.2-.2c0 .1 0 0 0 0zm.3.3c0-.1 0-.1 0 0zm-.6-.3zm-5 1.1c0-.1 0-.1 0 0 0-.1 0 0 0 0zm-.2-.7c0-.1 0-.1 0 0zm4.3-.7zm-1.5.1v.3-.3zm3 1zm-3-.7zm1.1-.3zm.3.2zm-.4 0zm-.2 0zm-2.9 1v-.1.1zm5.1-.3c0 .1 0 .1 0 0 0 .1 0 .1 0 0 0 .1 0 .1 0 0zm-2 .4zm-2-.1zm1.9.1s0-.1 0 0c0-.1 0-.1 0 0zm-3-.2zm-.2.3v-.3c.1 0 0 .1 0 .3.1-.1.1-.3.1-.3v.1c0-.1.1 0 .1-.2v-.3s0-.1 0 0v.1-.1.2c0-.1 0-.2.1-.2v.2-.1.3s0-.1.1 0v-.2c0-.2 0 .4.1.2v-.2.2s0-.3.1-.1v.1-.1.2s.1-.1.1-.2v.2c0-.1.1 0 .1.1v-.1.1-.2.1c0-.1.1-.3.1-.1 0 .1 0-.3.1-.2.1.1.1-.1.2.2 0-.2.1.1.1-.2 0 .1 0 .2.1.3v-.2.2-.2.2-.1c0-.1.1.1.1.2l.1-.1v.1c0-.2 0 .2 0 0v-.1c0 .1 0 .1.1.1v.1s.1-.1.1 0v-.3.2-.2.2-.1.1c0-.1 0 .2 0 0l.1-.1v-.2s.1.2.1.1v-.2.2l.1-.1v-.1.1c.1-.2.1.4.2.1v-.1.2c0-.2.1 0 .1-.1 0 .4.1 0 .1.2v-.1.1-.1c.1-.1.2.1.3.2 0 0 0-.5.1-.2v.2c.1-.2.1 0 .2-.2v.1c0 .1.1 0 .1-.1v.1c0 .1 0-.2 0 0v-.1c0 .1 0-.1.1 0v-.1c0 .2 0 .2.1.1v.2-.2c0 .3.1-.2.1.1.1-.1.1-.2.1-.3 0 .2-.1 0-.1.3 0-.1.1-.3.1-.2v.1c0-.1.1 0 .1-.1v.1-.5.4-.1.1-.2.1-.2.1s.1-.3.1-.2v.3-.2s0-.1.1-.1v.1-.3.1-.1.2c0-.2 0 0 .1-.2v.2-.1.1-.1c0 .1.1-.1.1 0v.2l.1-.2c0-.3 0 .1.1 0v.1l.1-.1v.1c0 .1 0 0 .1.1v-.2c.1.4.1-.2.2.1v.1-.4.2-.2.1-.1.2-.1.3c0-.3 0-.1.1-.3v.4-.1.1-.1c0-.2.1.2.1 0 0-.1 0-.3.1-.3v.2c0 .1 0 .1 0 0v.1-.1.2-.2.2s0-.1.1-.2v.1-.1c0-.3 0 0-.1 0v-.2.2-.2c0-.1 0 .1 0 0v.1-.1c0-.1 0 .2-.1 0v.3-.4.2-.1.2c0-.1-.1.1-.1-.2v.2-.3c0 .2 0 0 0 0 0 .2 0 .1-.1.1 0-.1 0-.1-.1-.2v.2-.2.1-.1s0 .2-.1.1v.4-.2s0 .1 0 0v-.1.1-.3.1-.2.1-.1c0 .1-.1 0 0 .2 0 .1-.1-.1-.1 0s0 0-.1.1v-.1s0 .1 0 0v-.1s0-.1-.1 0v-.1.1-.2c0-.2-.1.3-.1 0v.2-.3c0-.1 0 .2-.1.2v.3-.4.1-.2.1c0-.1 0 0-.1-.1v.2-.3c0 .1 0-.1-.1-.1v.1-.1.3-.3.2-.1.2c0-.1 0 .1 0 0v.1-.1c0 .2 0-.2-.1-.1v-.2c0 .1 0-.1-.1 0v.2-.1.2-.1.2c0-.2 0 .1-.1 0v-.3c0-.1-.1.2-.1.1v.2-.2.2-.1c0-.1 0 .3-.1.2v-.3c0-.1 0 .1 0 0v.3c0-.3-.1 0-.1-.2 0 0 0 .1-.1.1v.2-.1c0-.3 0 0-.1-.1 0-.1 0 .1-.1.1 0 .2-.1.2-.1.3v-.2.2-.3c0-.2 0 0 0 0v-.1s0 .2-.1.2v.1c0 .2 0-.1 0 0v-.2s0 .2-.1.2c0-.1 0-.2.1-.3l-.1.1s0-.1 0 0c0 .2 0 .2-.1.2 0-.4-.1-.1-.1-.4 0 .1-.1-.1-.1 0v.3-.5.2c0 .2 0-.3-.1-.1v-.1c0 .1-.1 0-.1.2v-.1s-.1.3-.1.1v-.1.1-.1.1-.1c0-.1-.1.2-.1.3 0-.2 0-.3-.1-.3s-.1.2-.1.3c0-.2-.1-.1-.2-.2v.2s0 .2 0 0 0-.1-.1-.2v.3c0-.4-.1.1-.2-.2v.1-.1s0-.1-.1 0v-.1.4-.2s-.1-.2-.1 0v-.1s-.1-.1-.1.1c0-.2 0 0-.1.1v-.1.3-.1.1-.1.1-.2.1-.1c0-.1-.1.2-.1 0v-.4c0 .1 0 .3-.1.2v-.1.5-.4c0 .1-.1.1-.1.3v-.2c0 .1-.1 0-.1.2v-.2c-.1-.3-.1.5-.2.1v.1c-.1-.2-.2.2-.2-.1v.2-.2.2c0 .1-.1-.4-.1-.1v.1-.1.1-.1.1-.3 1-.1.1-.1.1-.2.2-.3.2-.2.2-.2.3c0-.2.1-.1.1-.2 0 0 0 .1 0 0v.1-.4c0 .3-.1.4 0 .6-.1-.2-.1-.2-.1-.3v.2-.2.2c.1 0 .1.1.1.1zm.6-.4s-.1 0 0 0c-.1 0 0 0 0 0zm0 0v-.1.1zm-.1-1c0 .1 0 .1 0 0zm0 .2zm4.1.2zm-3.4.8zm3.7-.3zm.1 0zm0 .1c.1-.1.1-.1 0 0 .1-.1.1-.1 0 0zm-1.3.1c0 .1 0 .1 0 0zm.4-.3s0 .1 0 0c0 .1 0 .1 0 0zm-.8.5zm.8-.4zm1.3.1zm0 0zm0 0zm-.1 0zm0 0s0 .1 0 0c0 .1 0-.1 0 0zm-.2-.6c0-.1 0-.1 0 0 0-.3.1 0 0 0zm-.1-.1v-.1.1zm-.6 0v-.1.1zm-.1.6v.1-.1zm-.1-.9v.1zm-1 .1v.2-.2zm-.5.1s0-.1 0 0c0 0 0 .1 0 0zm-1.4-.2.1-.1-.1.1z" style="fill:#fff"/></g><g style="opacity:.65"><path d="M58 101.2v-.1.1zm0-.3v.4c-.1-.2 0-.1 0-.4v.2-.1c0-.1 0-.1 0 0-.1 0 0 0 0-.1zm-.9-.2zm-.5-.1zm-.1-.2zm.6.3zm.7.6zm-.5-.8zm.2 0v.2-.2c0 .1 0 0 0 0zm.3.3c0-.1 0-.1 0 0zm-.6-.3zm-5 1.1c0-.1 0-.1 0 0 0-.1 0 0 0 0zm-.2-.7c0-.1 0-.1 0 0zm4.3-.7zm-1.5.1v.3-.3zm3 1zm-3-.7zm1.1-.3zm.3.2zm-.4 0zm-.2 0zm-2.9 1v-.1.1zm5.1-.3c0 .1 0 .1 0 0 0 .1 0 .1 0 0 0 .1 0 .1 0 0zm-2 .4zm-2-.1zm1.9.1s0-.1 0 0c0-.1 0-.1 0 0zm-3-.2zm-.2.3v-.3c.1 0 0 .1 0 .3.1-.1.1-.3.1-.3v.1c0-.1.1 0 .1-.2v-.3s0-.1 0 0v.1-.1.2c0-.1 0-.2.1-.2v.2-.1.3s0-.1.1 0v-.2c0-.2 0 .4.1.2v-.2.2s0-.3.1-.1v.1-.1.2s.1-.1.1-.2v.2c0-.1.1 0 .1.1v-.1.1-.2.1c0-.1.1-.3.1-.1 0 .1 0-.3.1-.2.1.1.1-.1.2.2 0-.2.1.1.1-.2 0 .1 0 .2.1.3v-.2.2-.2.2-.1c0-.1.1.1.1.2l.1-.1v.1c0-.2 0 .2 0 0v-.1c0 .1 0 .1.1.1v.1s.1-.1.1 0v-.3.2-.2.2-.1.1c0-.1 0 .2 0 0l.1-.1v-.2s.1.2.1.1v-.2.2l.1-.1v-.1.1c.1-.2.1.4.2.1v-.1.2c0-.2.1 0 .1-.1 0 .4.1 0 .1.2v-.1.1-.1c.1-.1.2.1.3.2 0 0 0-.5.1-.2v.2c.1-.2.1 0 .2-.2v.1c0 .1.1 0 .1-.1v.1c0 .1 0-.2 0 0v-.1c0 .1 0-.1.1 0v-.1c0 .2 0 .2.1.1v.2-.2c0 .3.1-.2.1.1.1-.1.1-.2.1-.3 0 .2-.1 0-.1.3 0-.1.1-.3.1-.2v.1c0-.1.1 0 .1-.1v.1-.5.4-.1.1-.2.1-.2.1s.1-.3.1-.2v.3-.2s0-.1.1-.1v.1-.3.1-.1.2c0-.2 0 0 .1-.2v.2-.1.1-.1c0 .1.1-.1.1 0v.2l.1-.2c0-.3 0 .1.1 0v.1l.1-.1v.1c0 .1 0 0 .1.1v-.2c.1.4.1-.2.2.1v.1-.4.2-.2.1-.1.2-.1.3c0-.3 0-.1.1-.3v.4-.1.1-.1c0-.2.1.2.1 0 0-.1 0-.3.1-.3v.2c0 .1 0 .1 0 0v.1-.1.2-.2.2s0-.1.1-.2v.1-.1c0-.3 0 0-.1 0v-.2.2-.2c0-.1 0 .1 0 0v.1-.1c0-.1 0 .2-.1 0v.3-.4.2-.1.2c0-.1-.1.1-.1-.2v.2-.3c0 .2 0 0 0 0 0 .2 0 .1-.1.1 0-.1 0-.1-.1-.2v.2-.2.1-.1s0 .2-.1.1v.4-.2s0 .1 0 0v-.1.1-.3.1-.2.1-.1c0 .1-.1 0 0 .2 0 .1-.1-.1-.1 0s0 0-.1.1v-.1s0 .1 0 0v-.1s0-.1-.1 0v-.1.1-.2c0-.2-.1.3-.1 0v.2-.3c0-.1 0 .2-.1.2v.3-.4.1-.2.1c0-.1 0 0-.1-.1v.2-.3c0 .1 0-.1-.1-.1v.1-.1.3-.3.2-.1.2c0-.1 0 .1 0 0v.1-.1c0 .2 0-.2-.1-.1v-.2c0 .1 0-.1-.1 0v.2-.1.2-.1.2c0-.2 0 .1-.1 0v-.3c0-.1-.1.2-.1.1v.2-.2.2-.1c0-.1 0 .3-.1.2v-.3c0-.1 0 .1 0 0v.3c0-.3-.1 0-.1-.2 0 0 0 .1-.1.1v.2-.1c0-.3 0 0-.1-.1 0-.1 0 .1-.1.1 0 .2-.1.2-.1.3v-.2.2-.3c0-.2 0 0 0 0v-.1s0 .2-.1.2v.1c0 .2 0-.1 0 0v-.2s0 .2-.1.2c0-.1 0-.2.1-.3l-.1.1s0-.1 0 0c0 .2 0 .2-.1.2 0-.4-.1-.1-.1-.4 0 .1-.1-.1-.1 0v.3-.5.2c0 .2 0-.3-.1-.1v-.1c0 .1-.1 0-.1.2v-.1s-.1.3-.1.1v-.1.1-.1.1-.1c0-.1-.1.2-.1.3 0-.2 0-.3-.1-.3s-.1.2-.1.3c0-.2-.1-.1-.2-.2v.2s0 .2 0 0 0-.1-.1-.2v.3c0-.4-.1.1-.2-.2v.1-.1s0-.1-.1 0v-.1.4-.2s-.1-.2-.1 0v-.1s-.1-.1-.1.1c0-.2 0 0-.1.1v-.1.3-.1.1-.1.1-.2.1-.1c0-.1-.1.2-.1 0v-.4c0 .1 0 .3-.1.2v-.1.5-.4c0 .1-.1.1-.1.3v-.2c0 .1-.1 0-.1.2v-.2c-.1-.3-.1.5-.2.1v.1c-.1-.2-.2.2-.2-.1v.2-.2.2c0 .1-.1-.4-.1-.1v.1-.1.1-.1.1-.3 1-.1.1-.1.1-.2.2-.3.2-.2.2-.2.3c0-.2.1-.1.1-.2 0 0 0 .1 0 0v.1-.4c0 .3-.1.4 0 .6-.1-.2-.1-.2-.1-.3v.2-.2.2c.1 0 .1.1.1.1zm.6-.4s-.1 0 0 0c-.1 0 0 0 0 0zm0 0v-.1.1zm-.1-1c0 .1 0 .1 0 0zm0 .2zm4.1.2zm-3.4.8zm3.7-.3zm.1 0zm0 .1c.1-.1.1-.1 0 0 .1-.1.1-.1 0 0zm-1.3.1c0 .1 0 .1 0 0zm.4-.3s0 .1 0 0c0 .1 0 .1 0 0zm-.8.5zm.8-.4zm1.3.1zm0 0zm0 0zm-.1 0zm0 0s0 .1 0 0c0 .1 0-.1 0 0zm-.2-.6c0-.1 0-.1 0 0 0-.3.1 0 0 0zm-.1-.1v-.1.1zm-.6 0v-.1.1zm-.1.6v.1-.1zm-.1-.9v.1zm-1 .1v.2-.2zm-.5.1s0-.1 0 0c0 0 0 .1 0 0zm-1.4-.2.1-.1-.1.1z" style="fill:#fff"/></g><g style="opacity:.65"><path d="m69.3 45.9.1.1-.1-.1zm.3.1c0-.1-.1-.2-.3-.3.2.1.1.1.3.3-.1 0-.1-.1-.2-.1 0 0-.1 0 0 .1h.2c0-.1 0-.1 0 0zm1.7-.6zm.9.3zm.1.3s0-.1 0 0zm-1-.6s0 .1 0 0zm-1.7.1c-.1 0 0 0 0 0zm1.3.1c0 .1 0 .1 0 0zm-.3.2s0-.1-.1-.2c0 0 0 .1.1.2-.1-.1 0-.1 0 0zm-.6.1zm1.1-.3s0 .1 0 0zm-2.4.6zm.9-.1.1.1zm2.8.2c-.1 0 0 0 0 0zm.1 1.9c.1.1.1.2.2.3 0-.1-.1-.3-.2-.3zm-2.9-2.7zm3.1 2.9v.1zm0-1.7c.1 0 .1-.1 0 0 .1-.1.1-.1 0 0zm0-.5zm.3.6s0 .1 0 0c0 .1 0 .1 0 0zm0 .3h.1zm-4.4.4h.1c-.1 0-.2-.1-.1 0zm1-2zm4.5 1.1zm-3.5 2.9zm3.5-2.6c-.1 0 0 0 0 0zm-5.4.5z" style="fill:#fff"/><path d="M68.4 47c0 .1.2.1.3.1 0 .1-.1 0-.2 0 0 .1.2.1.2.1h-.1c.1.1 0 .2.2.2h.3s.1 0 0 .1H69h.1-.2c.1.1.2.1.2.1-.2 0-.1-.1-.2 0l.1-.1c-.3.1 0 0-.3 0 0 .1.1.1.1.2h.2c.2.1-.4.2-.2.2.1 0 .3-.1.2 0h-.2c0 .1.3 0 .2.1h-.1c-.1.1.1 0 .1 0l-.2.1c.1.1.2.1.3.2 0 0-.1 0-.1.1.1.1.1.3.2.4l.1-.1s0 .1-.1.1c0 .1.1-.1.1-.1s0 .1-.1.1c.2 0 .4 0 .4.2 0 .1.2-.2.2-.1.1.1.3.1.4.3.1-.2.1.1.2-.2 0 .2 0 .2.1.3l.1-.2v.2l.1-.2v.2-.1c.1-.1.1.1.1.2l.1-.1c0 .1 0 .1-.1.1.1-.1 0 .2.1 0v-.1c0 .1.1.1.1.1v.1h.3v-.3.2-.2.2-.1.1c0-.1.1.2.1 0 .1 0 .2-.1.2-.1 0-.1 0-.1.1-.2.1 0 .1.1.2.1V49c0 .1.1.1.1.2.1 0 .1 0 .2-.2v-.1s.1 0 .1.1c.1-.2.4.3.5 0 0-.1 0-.1.1-.2.1 0 0 .1.1.2 0-.3.2-.1.2-.3.3.3.3-.2.5-.1l-.1-.1c0-.1.1 0 .1 0-.1 0-.1 0-.1-.1.1-.3.4-.4.6-.7.1-.1-.4-.2-.2-.2l.2.1c-.2-.2.1-.4-.1-.6h.1c.1 0 0-.1-.1-.1h.1c.1 0-.2-.1 0-.1-.1 0 0-.1-.1-.1.1-.1-.1-.1 0-.2-.2 0 .1-.1-.2-.1.2 0 .2-.1 0-.2.1 0 .1-.1.2-.1 0 0-.1-.1-.2 0 .2-.2-.3-.1.1-.3-.2-.1-.3-.2-.4-.3.2-.1.1.1.3 0-.1-.1-.3 0-.4-.2h.1c-.1-.1-.1-.2-.3-.2h.1s0-.1-.1 0-.3.1-.3.2c.2-.2 0-.1.3-.3 0 0-.1 0-.1.1 0 0 0-.1.1-.1-.1 0-.2.1-.2 0 0 0 .1 0 .1-.1-.1 0-.2.1-.2 0 0 0 0-.1.1 0-.1-.1-.3.1-.3 0 .1-.2 0-.1.1-.2h-.1v.1s-.1.1-.2 0l.1-.1h-.1v.1c-.1.1-.1.2-.1.1v-.1s-.1.1-.1 0 .1-.2.1-.2c-.1.1-.1 0-.2.1l.1-.1-.1.1v-.1c-.1 0-.1.2-.1.1-.1-.1-.2 0-.2 0 0-.2.1 0 .1-.2-.1 0-.3.2-.3.1 0 .3-.1-.1-.1 0v-.1c-.1 0-.1.1-.2.1v-.1c0-.1-.1 0-.2-.1v.2c-.2-.4-.2.2-.4-.1v-.1l-.2.6c0 .1 0 .1.1.1v.1c0-.1 0-.2-.1-.2v.1c-.1-.2.1.2 0 .1v-.1.1c-.1-.1 0-.1 0-.2 0 0 0 .3-.1.2v-.1l-.1-.1h-.1c.1.3-.1.1 0 .3 0-.2 0-.1-.1-.3l-.1-.1c0 .1-.1-.1-.1.1l-.1-.1c0 .1.1.1.1.1 0 .2-.2-.1-.2.2 0 .1.1.3.1.4-.1 0-.1-.2-.1-.2-.1 0-.1 0-.1.1l-.1-.1s.1.1 0 .1c0 0-.1-.1-.1-.2v.2c-.1-.1-.1-.1-.1-.2 0 .1 0 .1.1.2h.1l-.1-.1c0-.1.1 0 .1 0 .2.2 0-.1.1-.1l.1.2-.1-.2s.1.1.1.2c.1.1 0-.1.1 0v-.1l.1.1c.1.1 0-.2.1-.1 0-.1-.1-.1-.1-.3l.2.3-.1-.1.1.1c0-.1 0-.1-.1-.1.1.1.1-.1.2.1 0-.1-.1-.1-.1-.2.1.2 0-.1.1 0 0 .1 0 .1.1.2-.1-.2.1 0 .1 0-.1-.2 0-.1.1-.2 0 .1.1.1.2.1v-.2.2-.1.1s0-.2.1-.1c0-.1-.1-.3-.1-.4v.2s0-.1 0 0v.1-.1.1l.1.1v-.1s0 .1.1.2v-.1.1c0-.1.1 0 .1-.2.1-.1.2.1.2 0s.1 0 .1-.1v.2s0-.1.1 0v.1s0 .1.1 0v.1-.1h.1v.2c0 .2.2-.3.2 0 .1-.1 0-.1.1-.2v.3c0 .1.1-.2.2-.1 0-.1.1-.2.1-.2s-.1.2-.1.3l-.1.1v-.1.2l.1-.1c0 .1.1 0 .1.1v-.1c0 .1.1-.1.1-.1 0 .1-.1.2 0 .1 0 .1-.1.1-.1.2.1-.1 0 .1 0 .1l.1-.1v.1c.1 0 .1-.2.2-.2 0 .1.1 0 0 .1 0-.1-.1.1-.2.1-.1.1.1-.1.2-.1l-.1.1s.1-.1.2-.1c0 .1.1 0 .1 0 .1-.1.1 0 .1 0h-.1c.1-.1-.1.1 0 .1 0 0-.1.1-.2.1.1 0-.1.1 0 .1.1-.1.1-.1.2-.1h-.1l.2-.1h-.1c.1 0 .1 0 .1-.1-.1.1.1 0 0 .1l-.3.1c-.1.1.2 0 .1.1h.1c-.1 0-.1.1-.2.1h.2l-.1.1c0 .1.3 0 .3 0-.1 0-.2.1-.3 0h.1c-.1 0 .1 0 .1.1h.3c-.3.5 0 .5-.2.6l.1.1c-.1.1.3 0 .2.1h-.1c-.3 0 0 .1-.1.1s.1.1.1.1c.2 0 .2.1.2.2h-.2s.2 0 .2.1h-.3c-.2 0 0 0 0 .1h-.1c0 .1.2.1.2.2h.1c.2.1-.1 0 0 .1l-.4-.3.2.2c-.2-.1-.2-.1-.3-.2 0 0 0 .1.1.1 0 0-.1 0 0 0 .1.1.2.2.1.2-.3-.2-.1 0-.4-.1.1.1-.1 0-.2.1.2.2 0 0 .2.3-.1 0-.1-.1-.1-.1-.1-.1 0-.1-.1-.1 0 0-.1-.1-.1-.2.1.1.1.1 0 .1l.1.1c0 .2-.2-.2-.1 0v-.1c0 .1-.1 0 0 .3v-.1c-.1 0-.1.3-.2.2v-.1.1-.1.1-.1c-.1-.1-.1.2-.2.3 0-.2-.1-.3-.1-.3-.1 0-.2.2-.3.3-.1-.2-.2-.1-.3-.2v.2s-.1.1-.1-.1 0-.2-.1-.2v.3c-.1-.4-.3.1-.3-.2 0 .1-.1.1-.1.1v-.1c-.1 0-.1-.1-.2 0v-.1s-.1.4-.2.4v-.2c-.1 0 0-.2-.1 0 0 0 0-.1.1-.1 0 0 0-.2-.1.1.1-.2 0 0-.1 0l.1-.1-.2.2.1-.1c0-.1-.1.1-.1 0l.1-.1-.1.1c-.1 0 0-.1.1-.2-.1 0-.2.1-.1.1h.1c0-.1-.2 0-.1-.1h.1v.1c.1-.1.1-.1.3-.2-.4-.4-.6-.4-.6-.4.1-.1 0-.1 0-.1-.1.1-.1 0-.2.1h-.1c-.1 0-.2.1-.2.1.2-.1.2-.2.4-.2-.1 0-.1-.1-.3-.1 0 0 .1 0 .1-.1h.1c-.1 0 0-.1-.2-.1.1-.1.2 0 .1-.1h.1c.3-.1-.5-.2-.1-.3h-.1c.2-.1-.1-.3.2-.4.1 0 0-.1-.1-.1h.1l-.1-.1c-.1-.1.4.1.2-.1h-.1s0-.1.1 0c0 0-.1-.1 0 0h.1l-.1-.1c.1 0 .3.2.3.1 0 0-.1-.2-.2-.2 0 0-.1 0-.1-.1v-.1c-.2-.1-.3-.3-.5-.3l.1.1h-.1v-.1c-.1 0 0 0 0 .1h-.1l.1.2c-.1 0-.1-.1-.2-.1.1.1.2.1.2.2-.1 0-.2-.1-.1 0-.1 0-.1-.1-.1-.1 0 .1 0 .1.1.2-.1 0 0 .1-.2 0 0 0 .1.1.1.2-.2-.2-.1.1-.3 0 .2.1 0 .2.1.3 0 0-.1 0 0 0h-.2c.2.1.2.1.3.2-.2 0-.2-.1-.4-.1.2 0 .1.1.3.1h-.2c.2 0 0 0 .2.1-.1 0-.2 0-.2.1l-.2-.2zm.6 1.4zm.1.1c0-.1.1-.1 0 0 0-.1 0 0 0 0zm.8-.6c-.1 0-.1 0 0 0-.1 0-.1 0 0 0zm-.2 0h-.1.1zm1.6-2.5zm-.8 4.2v-.1.1zm.2-4.6s-.1 0 0 0c-.1 0 0 0 0 0zm-.3.1zm-.2 0s0 .1 0 0zm3.2.5zm-1-.4c0-.1 0-.1 0 0zm1.7 1.4zm-1.6-1.4c0-.1 0-.1 0 0zm-3.1.4zm0 0zm0 .1c0-.1 0 0 0 0z" style="fill:#fff"/><path d="M69.7 45.5c-.1-.1-.1-.1 0 0zm0-.1s-.1-.1-.1 0h.1c-.1 0 .1.1 0 0zm.6.3v.1c.2.2 0 0 0-.1zm.2 0c0 .1 0 .1 0 0 0 .1 0 .1 0 0zm1.2-.2v.1c0 .1-.1 0 0-.1zm.3-.6v.1zm-.1 1 .1-.1zm1 1.2h.2c-.1-.1-.2 0-.2 0zm.1.8c-.1 0-.1 0 0 0zm-2.1.4z" style="fill:#fff"/></g><g style="opacity:.65"><path d="m65.1 44.1.1.1-.1-.1zm.3.1c0-.1-.1-.2-.3-.3l.3.3c-.1 0-.1-.1-.2-.1 0 0-.1 0 0 .1h.2c-.1-.1 0-.1 0 0zm1.6-.6zm1 .3zm0 .3c0-.1 0-.1 0 0zm-1-.6c.1 0 .1 0 0 0zm-1.7.1zm1.3.1c0 .1 0 .1 0 0zm-.3.2s0-.1-.1-.2c.1 0 .1.1.1.2 0-.1 0-.1 0 0zm-.6 0zm1.2-.2s0 .1 0 0zm-2.4.6zm.8-.1h.1zm2.8.1c0 .1 0 .1 0 0zm.2 2c.1.1.1.2.2.3-.1-.1-.2-.3-.2-.3zm-3-2.7zm3.1 2.9zm.1-1.7c0-.1 0-.1 0 0 0-.1 0-.1 0 0zm-.1-.5zm.3.6zm.1.3zm-4.5.4h.1c-.1-.1-.1-.1-.1 0zm1.1-2c-.1 0-.1 0 0 0-.1 0-.1 0 0 0-.1 0-.1 0 0 0zm4.4 1.1zm-3.5 2.9zm3.6-2.6c-.1 0-.1 0 0 0-.1 0-.1 0 0 0zm-5.5.5z" style="fill:#fff"/><path d="M64.1 45.2c0 .1.2.1.3.1 0 .1-.1 0-.2 0 0 .1.2.1.2.1h-.1c.1.1 0 .2.2.2h.3s.1 0 0 .1h-.1.1-.2c.1.1.2.1.2.1-.2 0-.1-.1-.2 0l.1-.1c-.3.1 0 0-.3 0 0 .1.1.1.1.2h.2c.2.1-.4.2-.2.2.1 0 .3-.1.2 0h-.2c0 .1.3 0 .2.1h-.1c-.1.1.1 0 .1 0l-.2.1c.1.1.2.1.3.2 0 0-.1 0-.1.1.1.1.1.3.2.4l.1-.1s0 .1-.1.1c0 .1.1-.1.1-.1s0 .1-.1.1c.2 0 .4 0 .4.2 0 .1.2-.2.2-.1.1.1.3.1.4.3.1-.2.1.1.2-.2 0 .2 0 .2.1.3l.1-.2v.2l.1-.2v.2-.1c.1-.1.1.1.1.2l.1-.1c0 .1 0 .1-.1.1.1-.1 0 .2.1 0v-.1c0 .1.1.1.1.1v.1h.3v-.3.2-.2.2-.1.1c0-.1.1.2.1 0 .1 0 .2-.1.2-.1 0-.1 0-.1.1-.2.1 0 .1.1.2.1v-.2c0 .1.1.1.1.2.1 0 .1 0 .2-.2v-.1s.1 0 .1.1c.1-.2.4.3.5 0 0-.1 0-.1.1-.2.1 0 0 .1.1.2 0-.3.2-.1.2-.3.3.3.3-.2.5-.1l-.1-.1c0-.1.1 0 .1 0-.1 0-.1 0-.1-.1.1-.3.4-.4.6-.7.1-.1-.4-.2-.2-.2l.2.1c-.2-.2.1-.4-.1-.6h.1c.1 0 0-.1-.1-.1h.1c.1 0-.2-.1 0-.1-.1 0 0-.1-.1-.1.1-.1-.1-.1 0-.2-.2 0 .1-.1-.2-.1.2 0 .2-.1 0-.2.1 0 .1-.1.2-.1 0 0-.1-.1-.2 0 .2-.2-.3-.1.1-.3-.2-.1-.3-.2-.4-.3.2-.1.1.1.3 0-.1-.1-.3 0-.4-.2h.1c-.1-.1-.1-.2-.3-.2h.1s0-.1-.1 0-.3.1-.3.2c.2-.2 0-.1.3-.3 0 0-.1 0-.1.1 0 0 0-.1.1-.1-.1 0-.2.1-.2 0 0 0 .1 0 .1-.1-.1 0-.2.1-.2 0 0 0 0-.1.1 0-.1-.1-.3.1-.3 0 .1-.2 0-.1.1-.2h-.1v.1s-.1.1-.2 0l.1-.1h-.1v.1c-.1.1-.1.2-.1.1V43s-.1.1-.1 0 .1-.2.1-.2c-.1.1-.1 0-.2.1l.1-.1-.1.1v-.1c-.1 0-.1.2-.1.1-.1-.1-.2 0-.2 0 0-.2.1 0 .1-.2-.1 0-.3.2-.3.1 0 .3-.1-.1-.1 0v-.1c-.1 0-.1.1-.2.1v-.1c0-.1-.1 0-.2-.1v.2c-.2-.4-.2.2-.4-.1v-.1l-.1.1c0 .1 0 .1.1.1v.1c0-.1 0-.2-.1-.2v.1c-.1-.2.1.2 0 .1v-.1.1c-.1-.1 0-.1 0-.2 0 0 0 .3-.1.2v-.1l-.1-.1h-.1c.1.3-.1.1 0 .3 0-.2 0-.1-.1-.3l-.1-.1c0 .1-.1-.1-.1.1l-.1-.1c0 .1.1.1.1.1 0 .2-.2-.1-.2.2 0 .1.1.3.1.4-.1 0-.1-.2-.1-.2-.1 0-.1 0-.1.1l-.1-.1s.1.1 0 .1c0 0-.1-.1-.1-.2v.2c-.1-.1-.1-.1-.1-.2 0 .1 0 .1.1.2h.1l-.1-.1c0-.1.1 0 .1 0 .2.2 0-.1.1-.1l.1.2-.1-.2s.1.1.1.2c.1.1 0-.1.1 0v-.1l.1.1c.1.1 0-.2.1-.1 0-.1-.1-.1-.1-.3L66 44l-.1-.1.1.1c0-.1 0-.1-.1-.1.1.1.1-.1.2.1 0-.1-.1-.1-.1-.2.1.2 0-.1.1 0 0 .1 0 .1.1.2-.1-.2.1 0 .1 0-.1-.2 0-.1.1-.2 0 .1.1.1.2.1v-.2.2-.1.1s0-.2.1-.1c0-.1-.1-.3-.1-.4v.2s0-.1 0 0v.1-.1.1l.1.1v-.1s0 .1.1.2v-.1.1c0-.1.1 0 .1-.2.1-.1.2.1.2 0s.1 0 .1-.1v.2s0-.1.1 0v.1s0 .1.1 0v.1-.1h.1v.2c0 .2.2-.3.2 0 .1-.1 0-.1.1-.2v.3c0 .1.1-.2.2-.1 0-.1.1-.2.1-.2s-.1.2-.1.3l-.1.1v-.1.2l.1-.1c0 .1.1 0 .1.1v-.1c0 .1.1-.1.1-.1 0 .1-.1.2 0 .1 0 .1-.1.1-.1.2.1-.1 0 .1 0 .1l.1-.1v.1c.1 0 .1-.2.2-.2 0 .1.1 0 0 .1 0-.1-.1.1-.2.1-.1.1.1-.1.2-.1l-.1.1s.1-.1.2-.1c0 .1.1 0 .1 0 .1-.1.1 0 .1 0h-.1c.1-.1-.1.1 0 .1 0 0-.1.1-.2.1.1 0-.1.1 0 .1.1-.1.1-.1.2-.1h-.1l.2-.1h-.1c.1 0 .1 0 .1-.1-.1.1.1 0 0 .1l-.3.1c-.1.1.2 0 .1.1h.1c-.1 0-.1.1-.2.1h.2l-.1.1c0 .1.3 0 .3 0-.1 0-.2.1-.3 0h.1c-.1 0 .1 0 .1.1h.3c-.3.1.1.2-.2.3l.1.1c-.1.1.3 0 .2.1H69c-.3 0 0 .1-.1.1s.1.1.1.1c.2 0 .2.1.2.2H69s.2 0 .2.1h-.3c-.2 0 0 0 0 .1h-.1c0 .1.2.1.2.2h.1c.2.1-.1 0 0 .1l-.2-.1.2.2-.2-.2s0 .1.1.1c0 0-.1 0 0 0 .1.1.2.2.1.2-.3-.2-.1 0-.4-.1.1.1-.1 0-.2.1.2.2 0 0 .2.3-.1 0-.1-.1-.1-.1-.1-.1 0-.1-.1-.1 0 0-.1-.1-.1-.2.1.1.1.1 0 .1l.1.1c0 .2-.2-.2-.1 0v-.1c0 .1-.1 0 0 .3v-.1c-.1 0-.1.3-.2.2V47v.1-.1.1-.1c-.1-.1-.1.2-.2.3 0-.2-.1-.3-.1-.3-.1 0-.2.2-.3.3-.1-.2-.2-.1-.3-.2v.2s-.1.1-.1-.1 0-.2-.1-.2v.3c-.1-.4-.3.1-.3-.2 0 .1-.1.1-.1.1v-.1c-.1 0-.1-.1-.2 0V47s-.1.4-.2.4v-.2c-.1 0 0-.2-.1 0 0 0 0-.1.1-.1 0 0 0-.2-.1.1.1-.2 0 0-.1 0l.1-.1-.2.2.1-.1c0-.1-.1.1-.1 0l.1-.1-.1.1c-.1 0 0-.1.1-.2-.1 0-.2.1-.1.1h.1c0-.1-.2 0-.1-.1h.1v.1c.1-.1.1-.1.3-.2-.1 0-.3.1-.3.1.1-.1 0-.1 0-.1-.1.1-.1 0-.2.1h-.1c-.1 0-.2.1-.2.1.2-.1.2-.2.4-.2-.1 0-.1-.1-.3-.1 0 0 .1 0 .1-.1h.1c-.1 0 0-.1-.2-.1.1-.1.2 0 .1-.1h.1c.3-.1-.5-.2-.1-.3h-.1c.2-.1-.1-.3.2-.4.1 0 0-.1-.1-.1h.1l-.1-.1c-.1-.1.4.1.2-.1h-.1s0-.1.1 0c0 0-.1-.1 0 0h.1l-.1-.1c.1 0 .3.2.3.1 0 0-.1-.2-.2-.2 0 0-.1 0-.1-.1v-.1c-.8-1-1-1.1-1.2-1.1l.1.1h-.1V44c-.1 0 0 0 0 .1h-.1l.1.2c-.1 0-.1-.1-.2-.1.1.1.2.1.2.2-.1 0-.2-.1-.1 0-.1 0-.1-.1-.1-.1 0 .1 0 .1.1.2-.1 0 0 .1-.2 0 0 0 .1.1.1.2-.2-.2-.1.1-.3 0 .2.1 0 .2.1.3 0 0-.1 0 0 0h-.2c.2.1.2.1.3.2-.2 0-.2-.1-.4-.1.2 0 .1.1.3.1h-.2c.2 0 0 0 .2.1-.1 0-.2 0-.2.1 0-.2-.1-.2-.1-.2zm.7 1.4zm.1.1c-.1 0-.1 0 0 0 0-.1 0-.1 0 0 0-.1 0-.1 0 0zm.7-.7s0 .1 0 0c0 .1 0 .1 0 0 0 .1 0 .1 0 0zm-.2.1zm1.6-2.5zm-.8 4.2v-.1zm.2-4.6zm-.2.1c-.1 0-.1 0 0 0zm-.3 0z" style="fill:#fff"/><path d="M69.1 43.8c.1 0 .1-.1 0 0zm-1-.4c.1 0 .1 0 0 0 .1-.1.1-.1 0 0zm1.7 1.4zm-1.6-1.4c0-.1 0-.1 0 0zm-3 .4h-.1.1zm0 0zm0 .1c0-.1-.1-.1 0 0zm.2-.2c0-.1 0-.1 0 0zm.1-.1s-.1-.1-.1 0h.1c-.2-.1 0 .1 0 0zm.6.3v.1c.1.2-.1 0 0-.1zm.2 0c-.1.1 0 .1 0 0 0 .1 0 .1 0 0zm1.1-.2v.1-.1zm.4-.6-.1.1zm-.1 1V44zm1 1.2h.2c-.1-.1-.3 0-.2 0zm.1.8c-.1-.1-.2-.1 0 0-.1 0 0 0 0 0zm-2.2.4h.1-.1z" style="fill:#fff"/></g><g style="opacity:.65"><path d="m72.9 49.3.1.1-.1-.1zm.3.1c0-.1-.1-.2-.3-.3.1.2.1.1.3.3-.1 0-.1-.1-.2-.1 0 0-.1 0 0 .1h.2c-.1-.1 0 0 0 0zm1.6-.5zm1 .3zm0 .2zm-1-.5c.1 0 .1 0 0 0zm-1.7 0zm1.3.2zm-.3.1s0-.1-.1-.2c.1.1.1.1.1.2zm-.6.1zm1.2-.2zm-2.4.5zm.8-.1.1.1zm2.8.2zm.2 1.9c.1.1.1.2.2.3-.1-.1-.2-.2-.2-.3zm-3-2.7zm3.1 3zm.1-1.8zm-.1-.5zm.3.7zm.1.3v-.1zm-4.5.3h.1c-.1 0-.1-.1-.1 0zm1.1-1.9c-.1 0-.1-.1 0 0-.1-.1-.1-.1 0 0-.1 0-.1 0 0 0zm4.4 1c0 .1 0 .1 0 0zm-3.5 3zm3.6-2.7c-.1 0-.1 0 0 0-.1.1-.1.1 0 0zm-5.5.6z" style="fill:#fff"/><path d="M71.9 50.4c0 .1.2.1.3.1 0 .1-.1 0-.2 0 0 .1.2.1.2.1h-.1c.1.1 0 .2.2.2h.3s.1 0 0 .1h-.1.1-.2c.1.1.2.1.2.1-.2 0-.1-.1-.2 0l.1-.1c-.3.1 0 0-.3 0 0 .1.1.1.1.2h.2c.2.1-.4.2-.2.2.1 0 .3-.1.2 0h-.2c0 .1.3 0 .2.1h-.1c-.1.1.1 0 .1 0l-.2.1c.1.1.2.1.3.2 0 0-.1 0-.1.1.1.1.1.3.2.4l.1-.1s0 .1-.1.1c0 .1.1-.1.1-.1s0 .1-.1.1c.2 0 .4 0 .4.2 0 .1.2-.2.2-.1.1.1.3.1.4.3.1-.2.1.1.2-.2 0 .2 0 .2.1.3l.1-.2v.2l.1-.2v.2-.1c.1-.1.1.1.1.2l.1-.1c0 .1 0 .1-.1.1.1-.1 0 .2.1 0v-.1c0 .1.1.1.1.1v.1h.3v-.3.2-.2.2-.1.1c0-.1.1.2.1 0 .1 0 .2-.1.2-.1 0-.1 0-.1.1-.2.1 0 .1.1.2.1v-.2c0 .1.1.1.1.2.1 0 .1 0 .2-.2v-.1s.1 0 .1.1c.1-.2.4.3.5 0 0-.1 0-.1.1-.2.1 0 0 .1.1.2 0-.3.2-.1.2-.3.3.3.3-.2.5-.1l-.1-.1c0-.1.1 0 .1 0-.1 0-.1 0-.1-.1.1-.3.4-.4.6-.7.1-.1-.4-.2-.2-.2l.2.1c-.2-.2.1-.4-.1-.6h.1c.1 0 0-.1-.1-.1h.1c.1 0-.2-.1 0-.1-.1 0 0-.1-.1-.1.1-.1-.1-.1 0-.2-.2 0 .1-.1-.2-.1.2 0 .2-.1 0-.2.1 0 .1-.1.2-.1 0 0-.1-.1-.2 0 .2-.2-.3-.1.1-.3-.2-.1-.3-.2-.4-.3.2-.1.1.1.3 0-.1-.1-.3 0-.4-.2h.1c-.1.5-.1.3-.2.3h.1s0-.1-.1 0-.3.1-.3.2c.2-.2 0-.1.3-.3 0 0-.1 0-.1.1 0 0 0-.1.1-.1-.1 0-.2.1-.2 0 0 0 .1 0 .1-.1-.1 0-.2.1-.2 0 0 0 0-.1.1 0-.1-.1-.3.1-.3 0 .1-.2 0-.1.1-.2h-.1v.1s-.1.1-.2 0l.1-.1h-.1v.1c-.2 0-.2.1-.2.1v-.1s-.1.1-.1 0 .1-.2.1-.2c-.1.1-.1 0-.2.1l.1-.1-.1.1v-.1c-.1 0-.1.2-.1.1-.1-.1-.2 0-.2 0 0-.2.1 0 .1-.2-.1 0-.3.2-.3.1 0 .3-.1-.1-.1 0v-.1c-.1 0-.1.1-.2.1v-.1c0-.1-.1 0-.2-.1v.2c-.2-.4-.2.2-.4-.1v-.1l-.1.1c0 .1 0 .1.1.1v.1c0-.1 0-.2-.1-.2v.1c-.1-.2.1.2 0 .1v-.1.1c-.1-.1 0-.1 0-.2 0 0 0 .3-.1.2v-.1c-.2 0-.2.1-.2 0h-.1c.1.3-.1.1 0 .3 0-.2 0-.1-.1-.3l-.1-.1c0 .1-.1-.1-.1.1l-.1-.1c0 .1.1.1.1.1 0 .2-.2-.1-.2.2 0 .1.1.3.1.4-.1 0-.1-.2-.1-.2-.1 0-.1 0-.1.1l-.1-.1s.1.1 0 .1c0 0-.1-.1-.1-.2v.2c-.1-.1-.1-.1-.1-.2 0 .1 0 .1.1.2h.1l-.1-.1c0-.1.1 0 .1 0 .2.2 0-.1.1-.1l.1.2-.1-.2s.1.1.1.2c.1.1 0-.1.1 0v-.1l.1.1c.1.1 0-.2.1-.1 0-.1-.1-.1-.1-.3l.2.3-.1-.1.1.1c0-.1 0-.1-.1-.1.1.1.1-.1.2.1 0-.1-.1-.1-.1-.2.1.2 0-.1.1 0 0 .1 0 .1.1.2-.1-.2.1 0 .1 0-.1.1 0 .1 0 .1 0 .1.1.1.2.1v-.2.2-.1.1s0-.2.1-.1c0-.1-.1-.3-.1-.4v.2s0-.1 0 0v.1-.1.1l.1.1v-.1s0 .1.1.2V49v.1c0-.1.1 0 .1-.2.1-.1.2.1.2 0s.1 0 .1-.1v.2s0-.1.1 0v.1s0 .1.1 0v.1-.1h.1v.2c0 .2.2-.3.2 0 .1-.1 0-.1.1-.2v.3c0 .1.1-.2.2-.1 0-.1.1-.2.1-.2s-.1.2-.1.3l-.1.1v-.1.2l.1-.1c0 .1.1 0 .1.1v-.1c0 .1.1-.1.1-.1 0 .1-.1.2 0 .1 0 .1-.1.1-.1.2.1-.1 0 .1 0 .1l.1-.1v.1c.1 0 .1-.2.2-.2 0 .1.1 0 0 .1 0-.1-.1.1-.2.1-.1.1.1-.1.2-.1H76s.1-.1.2-.1c0 .1.1 0 .1 0 .1-.1.1 0 .1 0h-.1c.1-.1-.1.1 0 .1 0 0-.1.1-.2.1.1 0-.1.1 0 .1.1-.1.1-.1.2-.1h-.1l.2-.1h-.1c.1 0 .1 0 .1-.1-.1.1.1 0 0 .1l-.3.1c-.1.1.2 0 .1.1h.1c-.1 0-.1.1-.2.1h.2l-.1.1c0 .1.3 0 .3 0-.1 0-.2.1-.3 0h.1c-.1 0 .1 0 .1.1h.3c-.3.1.1.2-.2.3l.1.1c-.1.1.3 0 .2.1h-.1c-.3 0 0 .1-.1.1s.1.1.1.1c.2 0 .2.1.2.2h-.2s.2 0 .2.1h-.3c-.2 0 0 0 0 .1h-.1c0 .1.2.1.2.2h.1c.2.1-.1 0 0 .1l-.2-.1.2.2-.2-.2s0 .1.1.1c0 0-.1 0 0 0 .1.1.2.2.1.2-.3-.2-.1 0-.4-.1.1.1-.1 0-.2.1.2.2 0 0 .2.3-.1 0-.1-.1-.1-.1-.1-.1 0-.1-.1-.1 0 0-.1-.1-.1-.2.1.1.1.1 0 .1l.1.1c0 .2-.2-.2-.1 0v-.1c0 .1-.1 0 0 .3V52c-.1 0-.1.3-.2.2v-.1.1-.1.1-.1c-.1-.1-.1.2-.2.3 0-.2-.1-.3-.1-.3-.1 0-.2.2-.3.3-.1-.2-.2-.1-.3-.2v.2s-.1.1-.1-.1 0-.2-.1-.2v.3c-.1-.4-.3.1-.3-.2 0 .1-.1.1-.1.1v-.1c-.1 0-.1-.1-.2 0v-.1s-.1.4-.2.4v-.2c-.1 0 0-.2-.1 0 0 0 0-.1.1-.1 0 0 0-.2-.1.1.1-.2 0 0-.1 0l.1-.1-.2.2.1-.1c0-.1-.1.1-.1 0l.1-.1-.1.1c-.1 0 0-.1.1-.2-.1 0-.2.1-.1.1h.1c0-.1-.2 0-.1-.1h.1v.1c.1-.1.1-.1.3-.2-.1 0-.3.1-.3.1.1-.1 0-.1 0-.1-.1.1-.1 0-.2.1h-.1c-.1 0-.2.1-.2.1.2-.1.2-.2.4-.2-.1 0-.1-.1-.3-.1 0 0 .1 0 .1-.1h.1c-.1 0 0-.1-.2-.1.1-.1.2 0 .1-.1h.1c.3-.1-.5-.2-.1-.3h-.1c.2-.1-.1-.3.2-.4.1 0 0-.1-.1-.1h.1l-.6-.7c-.1-.1.4.1.2-.1h-.1s0-.1.1 0c0 0-.1-.1 0 0h.1l-.1-.1c.1 0 .3.2.3.1 0 0-.1-.2-.2-.2 0 0-.1 0-.1-.1v-.1c-.2-.1-.3-.3-.5-.3l.1.1h-.1v-.1c-.1 0 0 0 0 .1h-.1l.1.2c-.1 0-.1-.1-.2-.1.1.1.2.1.2.2-.1 0-.2-.1-.1 0-.1 0-.1-.1-.1-.1 0 .1 0 .1.1.2-.1 0 0 .1-.2 0 0 0 .1.1.1.2-.2-.2-.1.1-.3 0 .2.1 0 .2.1.3 0 0-.1 0 0 0h-.2c.2.1.2.1.3.2-.2 0-.2-.1-.4-.1.2 0 .1.1.3.1h-.2c.2 0 0 0 .2.1-.1 0-.2 0-.2.1-.1-.2-.2-.3-.2-.3zm.7 1.4zm0 .1c.1 0 .1-.1 0 0 .1 0 .1 0 0 0zm.8-.6zm-.2.1zm1.6-2.5zM74 53zm.2-4.5zm-.2 0c-.1 0-.1 0 0 0zm-.3.1zm3.2.4c.1 0 .1 0 0 0zm-1-.4c.1 0 .1 0 0 0 .1 0 .1 0 0 0zm1.7 1.4zM76 48.6z" style="fill:#fff"/><path style="fill:#fff" d="m73 49-.1.1h.1zm0 .1zm0 0s-.1 0 0 0zm.2-.2zm.1-.1s-.1-.1-.1 0h.1c-.2 0 0 .1 0 0zm.6.4v.1c.1.1-.1-.1 0-.1zm.2 0c-.1 0 0 0 0 0zm1.1-.2v.1-.1zm.4-.6v-.1l-.1.1zm-.1.9zm1 1.2h.2-.2zm.1.8c-.1 0-.2 0 0 0-.1 0 0 0 0 0zm-2.2.5.1-.1-.1.1z"/></g><g style="opacity:.65"><path d="m77.8 50.5.1.1-.1-.1zm.3.1c0-.1-.1-.2-.3-.3.2.1.1.1.3.3-.1 0-.1-.1-.2-.1 0 0-.1 0 0 .1h.2c0-.1 0 0 0 0zm1.7-.5c0-.1 0 0 0 0zm.9.2s0 .1 0 0c0 .1 0 .1 0 0zm.1.3zm-1-.5zm-1.8 0s.1 0 0 0zm1.4.2zm-.3.1s0-.1-.1-.2c0 .1 0 .1.1.2-.1-.1 0 0 0 0zm-.6.1zm1.1-.3c0 .1 0 .1 0 0zm-2.4.6zm.9-.1.1.1zm2.8.2c-.1 0 0 0 0 0zm.1 1.9c.1.1.1.2.2.3 0-.1-.1-.2-.2-.3zm-2.9-2.7zm3.1 3zm0-1.8c.1 0 .1 0 0 0 .1 0 .1 0 0 0zm0-.5zm.3.7zm0 .2h.1zm-4.4.4h.1c-.1 0-.2-.1-.1 0zm1-1.9c0-.1 0-.1 0 0 0-.1 0-.1 0 0 0-.1 0-.1 0 0zm4.5 1c0 .1 0 0 0 0zm-3.5 2.9zm3.5-2.6s-.1 0 0 0c-.1 0 0 0 0 0zm-5.4.6z" style="fill:#fff"/><path d="M76.9 51.6c0 .1.2.1.3.1 0 .1-.1 0-.2 0 0 .1.2.1.2.1h-.1c.1.1 0 .2.2.2h.3s.1 0 0 .1h-.1.1-.2c.1.1.2.1.2.1-.2 0-.1-.1-.2 0l.1-.1c-.3.1 0 0-.3 0 0 .1.1.1.1.2h.2c.2.1-.4.2-.2.2.1 0 .3-.1.2 0h-.2c0 .1.3 0 .2.1h-.1c-.1.1.1 0 .1 0l-.2.1c.1.1.2.1.3.2 0 0-.1 0-.1.1.1.1.1.3.2.4l.1-.1s0 .1-.1.1c0 .1.1-.1.1-.1s0 .1-.1.1c.2 0 .4 0 .4.2 0 .1.2-.2.2-.1.1.1.3.1.4.3.1-.2.1.1.2-.2 0 .2 0 .2.1.3l.1-.2v.2l-.1.1v.2-.1c.1-.1.1.1.1.2l.1-.1c0 .1 0 .1-.1.1.1-.1 0 .2.1 0v-.1c0 .1.1.1.1.1v.1h.3v-.3.2-.2.2-.1.1c0-.1.1.2.1 0 .1 0 .2-.1.2-.1 0-.1 0-.1.1-.2.1 0 .1.1.2.1v-.2c0 .1.1.1.1.2.1 0 .1 0 .2-.2v-.1s.1 0 .1.1c.1-.2.4.3.5 0 0-.1 0-.1.1-.2.1 0 0 .1.1.2 0-.3.2-.1.2-.3.3.3.3-.2.5-.1l-.1-.1c0-.1.1 0 .1 0-.1 0-.1 0-.1-.1.1-.3.4-.4.6-.7.1-.1-.4-.2-.2-.2l.2.1c-.2-.2.1-.4-.1-.6h.1c.1 0 0-.1-.1-.1h.1c.1 0-.2-.1 0-.1-.1 0 0-.1-.1-.1.1-.1-.1-.1 0-.2-.2 0 .1-.1-.2-.1.2 0 .2-.1 0-.2.1 0 .1-.1.2-.1 0 0-.1-.1-.2 0 .2-.2-.3-.1.1-.3-.2-.1-.3-.2-.4-.3.2-.1.1.1.3 0-.1-.1-.3 0-.4-.2h.1c-.1-.1-.1-.2-.3-.2h.1s0-.1-.1 0-.3.1-.3.2c.2-.2 0-.1.3-.3 0 0-.1 0-.1.1 0 0 0-.1.1-.1-.1 0-.2.1-.2 0 0 0 .1 0 .1-.1-.1 0-.2.1-.2 0 0 0 0-.1.1 0-.1-.1-.3.1-.3 0 .1-.2 0-.1.1-.2h-.1v.1s-.1.1-.2 0l.1-.1h-.1v.1c-.1.1-.1.2-.1.1v-.1s-.1.1-.1 0 .1-.2.1-.2c-.1.1-.1 0-.2.1l.1-.1-.1.1v-.1c-.1 0-.1.2-.1.1-.1-.1-.2 0-.2 0 0-.2.1 0 .1-.2-.1 0-.3.2-.3.1 0 .3-.1-.1-.1 0v-.1c-.1 0-.1.1-.2.1v-.1c0-.1-.1 0-.2-.1v.2c-.2-.4-.2.2-.4-.1v-.1l-.1.1c0 .1 0 .1.1.1v.1c0-.1 0-.2-.1-.2v.1c-.1-.2.1.2 0 .1v-.1.1c-.1-.1 0-.1 0-.2 0 0 0 .3-.1.2v-.1l-.1-.1h-.1c.1.3-.1.1 0 .3 0-.2 0-.1-.1-.3l-.1-.1c0 .1-.1-.1-.1.1l-.1-.1c0 .1.1.1.1.1 0 .2-.2-.1-.2.2 0 .1.1.3.1.4-.1 0-.1-.2-.1-.2-.1 0-.1 0-.1.1l-.1-.1s.1.1 0 .1c0 0-.1-.1-.1-.2v.5c0 .1 0 .1.1.2h.1l-.1-.1c0-.1.1 0 .1 0 .2.2 0-.1.1-.1l.1.2-.1-.2s.1.1.1.2c.1.1 0-.1.1 0v-.1l.1.1c.1.1 0-.2.1-.1 0-.1-.1-.1-.1-.3l.2.3-.1-.1.1.1c0-.1 0-.1-.1-.1.1.1.1-.1.2.1 0-.1-.1-.1-.1-.2.1.2 0-.1.1 0 0 .1 0 .1.1.2-.1-.2.1 0 .1 0-.1-.2 0-.1.1-.2 0 .1.1.1.2.1V50v.2-.1.1s0-.2.1-.1c0-.1-.1-.3-.1-.4v.2s0-.1 0 0v.1-.1.1l.1.1V50s0 .1.1.2v-.1.1c0-.1.1 0 .1-.2.1-.1.2.1.2 0s.1 0 .1-.1v.2s0-.1.1 0v.1s0 .1.1 0v.1-.1h.1v.2c0 .2.2-.3.2 0 .1-.1 0-.1.1-.2v.3c0 .1.1-.2.2-.1 0-.1.1-.2.1-.2s-.1.2-.1.3l-.1.1v-.1.2l.1-.1c0 .1.1 0 .1.1v-.1c0 .1.1-.1.1-.1 0 .1-.1.2 0 .1 0 .1-.1.1-.1.2.1-.1 0 .1 0 .1l.1-.1v.1c.1 0 .1-.2.2-.2 0 .1.1 0 0 .1 0-.1-.1.1-.2.1-.2.1 0-.1 0-.1l-.1.1s.1-.1.2-.1c0 .1.1 0 .1 0 .1-.1.1 0 .1 0h-.1c.1-.1-.1.1 0 .1 0 0-.1.1-.2.1.1 0-.1.1 0 .1.1-.1.1-.1.2-.1h-.1l.2-.1h-.1c.1 0 .1 0 .1-.1-.1.1.1 0 0 .1l-.3.1c-.1.1.2 0 .1.1h.1c-.1 0-.1.1-.2.1h.2l-.1.1c0 .1.3 0 .3 0-.1 0-.2.1-.3 0h.1c-.1 0 .1 0 .1.1h.3c-.3.1.1.2-.2.3l.1.1c-.1.1.3 0 .2.1h-.1c-.3 0 0 .1-.1.1s.1.1.1.1c.2 0 .2.1.2.2h-.2s.2 0 .2.1h-.3c-.2 0 0 0 0 .1h-.1c0 .1.2.1.2.2h.1c.2.1-.1 0 0 .1l-.2-.1.2.2-.2-.2s0 .1.1.1c0 0-.1 0 0 0 .1.1.2.2.1.2-.3-.2-.1 0-.4-.1.1.1-.1 0-.2.1.2.2 0 0 .2.3-.1 0-.1-.1-.1-.1-.1-.1 0-.1-.1-.1 0 0-.1-.1-.1-.2.1.1.1.1 0 .1l.1.1c0 .2-.2-.2-.1 0V53c0 .1-.1 0 0 .3v-.1c-.1 0-.1.3-.2.2v-.1.1-.1.1-.1c-.1-.1-.1.2-.2.3 0-.2-.1-.3-.1-.3-.1 0-.2.2-.3.3-.1-.2-.2-.1-.3-.2v.2s-.1.1-.1-.1 0-.2-.1-.2v.3c-.1-.4-.3.1-.3-.2 0 .1-.1.1-.1.1v-.1c-.1 0-.1-.1-.2 0v-.1s-.1.4-.2.4v-.2c-.1 0 0-.2-.1 0 0 0 0-.1.1-.1 0 0 0-.2-.1.1.1-.2 0 0-.1 0l.1-.1-.2.2.1-.1c0-.1-.1.1-.1 0l.1-.1-.1.1c-.1 0 0-.1.1-.2-.1 0-.2.1-.1.1h.1c0-.1-.2 0-.1-.1h.1v.1c.1-.1.1-.1.3-.2-.1 0-.3.1-.3.1.1-.1 0-.1 0-.1-.1.1-.1 0-.2.1h-.1c-.1 0-.2.1-.2.1.2-.1.2-.2.4-.2-.1 0-.1-.1-.3-.1 0 0 .1 0 .1-.1h.1c-.1 0 0-.1-.2-.1.1-.1.2 0 .1-.1h.1c.3-.1-.5-.2-.1-.3h-.1c.2-.1-.1-.3.2-.4.1 0 0-.1-.1-.1h.1l-.5-.7c-.1-.1.4.1.2-.1h-.1s0-.1.1 0c0 0-.1-.1 0 0h.1l-.1-.1c.1 0 .3.2.3.1 0 0-.1-.2-.2-.2 0 0-.1 0-.1-.1v-.1c-.2-.1-.3-.3-.5-.3l.1.1h-.1v-.1c-.1 0 0 0 0 .1h-.1l.1.2c-.1 0-.1-.1-.2-.1.1.1.2.1.2.2-.1 0-.2-.1-.1 0-.1 0-.1-.1-.1-.1 0 .1 0 .1.1.2-.1 0 0 .1-.2 0 0 0 .1.1.1.2-.2-.2-.1.1-.3 0 .2.1 0 .2.1.3 0 0-.1 0 0 0h-.2c.2.1.2.1.3.2-.2 0-.2-.1-.4-.1.2 0 .1.1.3.1h-.2c.2 0 0 0 .2.1-.1 0-.2 0-.2.1-.2-.2-.2-.3-.2-.3zm.6 1.4zm.1.1c0-.1.1-.1 0 0 0-.1 0 0 0 0zm.8-.6c-.1 0-.1 0 0 0-.1 0-.1 0 0 0zm-.2 0h-.1.1zm1.6-2.5zm-.8 4.2v-.1.1z" style="fill:#fff"/><path d="M79.2 49.7c0-.1-.1-.1 0 0-.1-.1-.1-.1 0 0zm-.3 0zm-.2 0c0 .1 0 .1 0 0zm3.2.5zm-1-.4s0-.1 0 0zm1.7 1.4zM81 49.8c-.1 0 0 0 0 0zm-3.1.4zm0 0c0 .1 0 0 0 0zm0 .1zm.3-.2c-.1-.1-.1 0 0 0zm0-.1s-.1-.1-.1 0h.1c-.1 0 0 .1 0 0zm.6.4v.1c.2.1-.1-.1 0-.1zm.2-.1c0 .1 0 .1 0 0 0 .1 0 .1 0 0zm1.2-.1v.1s-.1-.1 0-.1zm.3-.6v-.1.1zm-.1.9zm1 1.2h.2-.2zm.1.8c-.1 0-.1 0 0 0zm-2.1.5v-.1z" style="fill:#fff"/></g><g style="opacity:.65"><path d="m82.7 51 .1.1-.1-.1zm.3.1c0-.1-.1-.2-.3-.3.2.1.1.1.3.3-.1 0-.1-.1-.2-.1 0 0-.1 0 0 .1h.2c0-.1 0-.1 0 0zm1.7-.6zm.9.3zm.1.3c0-.1 0-.1 0 0zm-1-.6zm-1.8.1zm1.4.1c0 .1 0 .1 0 0zm-.3.2s0-.1-.1-.2c0 0 0 .1.1.2-.1-.1-.1-.1 0 0zm-.6 0zm1.1-.2s0 .1 0 0zm-2.4.6zm.9-.1zm2.7.1zm.2 2c.1.1.1.2.2.3-.1-.1-.1-.3-.2-.3zM83 50.6zm3.1 2.9zm0-1.7c0-.1.1-.1 0 0 .1-.1 0-.1 0 0zm0-.5zm.3.6zm0 .3h.1-.1zm-4.5.4h.1c0-.1-.1-.1-.1 0zm1.1-2zm4.5 1.1zM84 54.6zm3.5-2.6s-.1 0 0 0c-.1 0-.1 0 0 0zm-5.4.5z" style="fill:#fff"/><path d="M81.7 52.1c0 .1.2.1.3.1 0 .1-.1 0-.2 0 0 .1.2.1.2.1h-.1c.1.1 0 .2.2.2h.3s.1 0 0 .1h-.1.1-.2c.1.1.2.1.2.1-.2 0-.1-.1-.2 0l.1-.1c-.3.1 0 0-.3 0 0 .1.1.1.1.2h.2c.2.1-.4.2-.2.2.1 0 .3-.1.2 0h-.2c0 .1.3 0 .2.1h-.1c-.1.1.1 0 .1 0l-.2.1c.1.1.2.1.3.2 0 0-.1 0-.1.1.1.1.1.3.2.4l.1-.1s0 .1-.1.1c0 .1.1-.1.1-.1s0 .1-.1.1c.2 0 .4 0 .4.2 0 .1.2-.2.2-.1.1.1.3.1.4.3.1-.2.1.1.2-.2 0 .2 0 .2.1.3l.1-.2v.2l.1-.2v.2-.1c.1-.1.1.1.1.2l.1-.1c0 .1 0 .1-.1.1.1-.1 0 .2.1 0v-.1c0 .1.1.1.1.1v.1h.3v-.3.2-.2.2-.1.1c0-.1.1.2.1 0 .1 0 .2-.1.2-.1 0-.1 0-.1.1-.2.1 0 .1.1.2.1v-.2c0 .1.1.1.1.2.1 0 .1 0 .2-.2V54s.1 0 .1.1c.1-.2.4.3.5 0 0-.1 0-.1.1-.2.1 0 0 .1.1.2 0-.3.2-.1.2-.3.3.3.3-.2.5-.1l-.1.3c0-.1.1 0 .1 0-.1 0-.1 0-.1-.1.1-.3.4-.4.6-.7.1-.1-.4-.2-.2-.2l.2.1c-.2-.2.1-.4-.1-.6h.1c.1 0 0-.1-.1-.1h.1c.1 0-.2-.1 0-.1-.1 0 0-.1-.1-.1.1-.1-.1-.1 0-.2-.2 0 .1-.1-.2-.1.2 0 .2-.1 0-.2.1 0 .1-.1.2-.1 0 0-.1-.1-.2 0 .2-.2-.3-.1.1-.3-.2-.1-.3-.2-.4-.3.2-.1.1.1.3 0-.1-.1-.3 0-.4-.2h.1c-.1-.1-.1-.2-.3-.2h.1s0-.1-.1 0-.3.1-.3.2c.2-.2 0-.1.3-.3 0 0-.1 0-.1.1 0 0 0-.1.1-.1-.1 0-.2.1-.2 0 0 0 .1 0 .1-.1-.1 0-.2.1-.2 0 0 0 0-.1.1 0-.1-.1-.3.1-.3 0 .1-.2 0-.1.1-.2h-.1v.1s-.1.1-.2 0l.1-.1h-.1v.1c-.1.1-.1.2-.1.1v-.1s-.1.1-.1 0 .1-.2.1-.2c-.1.1-.1 0-.2.1l.1-.1-.1.1v-.1c-.1 0-.1.2-.1.1-.1-.1-.2 0-.2 0 0-.2.1 0 .1-.2-.1 0-.3.2-.3.1 0 .3-.1-.1-.1 0V50c-.1 0-.1.1-.2.1V50c0-.1-.1 0-.2-.1v.2c-.2-.4-.2.2-.4-.1v-.1l-.1.1c0 .1 0 .1.1.1v.1c0-.1 0-.2-.1-.2v.1c-.1-.2.1.2 0 .1v-.1.1c-.1-.1 0-.1 0-.2 0 0 0 .3-.1.2v-.1l-.1-.1h-.1c.1.3-.1.1 0 .3 0-.2 0-.1-.1-.3l-.1-.1c0 .1-.1-.1-.1.1l-.1-.1c0 .1.1.1.1.1 0 .2-.2-.1-.2.2 0 .1.1.3.1.4-.1 0-.1-.2-.1-.2-.1 0-.1 0-.1.1l-.1-.1s.1.1 0 .1c0 0-.1-.1-.1-.2v.2c-.1-.1-.1-.1-.1-.2 0 .1 0 .1.1.2h.1l-.1-.1c0-.1.1 0 .1 0 .2.2 0-.1.1-.1l.1.2-.1-.2s.1.1.1.2c.1.1 0-.1.1 0v-.1l.1.1c.1.1 0-.2.1-.1 0-.1-.1-.1-.1-.3l.2.3-.1-.1.1.1c0-.1 0-.1-.1-.1.1.1.1-.1.2.1 0-.1-.1-.1-.1-.2.1.2 0-.1.1 0 0 .1 0 .1.1.2-.1-.2.1 0 .1 0-.1-.2 0-.1.1-.2 0 .1.1.1.2.1v-.2.2-.1.1s0-.2.1-.1c0-.1-.1-.3-.1-.4v.2s0-.1 0 0v.1-.1.1l.1.1v-.1s0 .1.1.2v-.1.1c0-.1.1 0 .1-.2.1-.1.2.1.2 0s.1 0 .1-.1v.2s0-.1.1 0v.1s0 .1.1 0v.1-.1h.1v.2c0 .2.2-.3.2 0 .1-.1 0-.1.1-.2v.3c0 .1.1-.2.2-.1 0-.1.1-.2.1-.2s-.1.2-.1.3l-.1.1v-.1.2l.1-.1c0 .1.1 0 .1.1v-.1c0 .1.1-.1.1-.1 0 .1-.1.2 0 .1 0 .1-.1.1-.1.2.1-.1 0 .1 0 .1l.1-.1v.1c.1 0 .1-.2.2-.2 0 .1.1 0 0 .1 0-.1-.1.1-.2.1-.1.1.1-.1.2-.1l-.1.1s.1-.1.2-.1c0 .1.1 0 .1 0 .1-.1.1 0 .1 0h-.1c.1-.1-.1.1 0 .1 0 0-.1.1-.2.1.1 0-.1.1 0 .1.1-.1.1-.1.2-.1h-.1l.2-.1h-.1c.1 0 .1 0 .1-.1-.1.1.1 0 0 .1l-.3.1c-.1.1.2 0 .1.1h.1c-.1 0-.1.1-.2.1h.2l-.1.1c0 .1.3 0 .3 0-.1 0-.2.1-.3 0h.1c-.1 0 .1 0 .1.1h.3c-.3.1.1.2-.2.3l.1.1c-.1.1.3 0 .2.1h-.1c-.3 0 0 .1-.1.1s.1.1.1.1c.2 0 .2.1.2.2h-.2s.2 0 .2.1h-.3c-.2 0 0 0 0 .1h-.1c0 .1.2.1.2.2h.1c.2.1-.1 0 0 .1l-.4.1.2.2-.2-.2s0 .1.1.1c0 0-.1 0 0 0 .1.1.2.2.1.2-.3-.2-.1 0-.4-.1.1.1-.1 0-.2.1.2.2 0 0 .2.3-.1 0-.1-.1-.1-.1-.1-.1 0-.1-.1-.1 0 0-.1-.1-.1-.2.1.1.1.1 0 .1l.1.1c0 .2-.2-.2-.1 0v-.1c0 .1-.1 0 0 .3v-.1c-.1 0-.1.3-.2.2v-.1.1-.1.1-.1c-.1-.1-.1.2-.2.3 0-.2-.1-.3-.1-.3-.1 0-.2.2-.3.3-.1-.2-.2-.1-.3-.2v.2s-.1.1-.1-.1 0-.2-.1-.2v.3c-.1-.4-.3.1-.3-.2 0 .1-.1.1-.1.1v-.1c-.1 0-.1-.1-.2 0v-.1s-.1.4-.2.4v-.2c-.1 0 0-.2-.1 0 0 0 0-.1.1-.1 0 0 0-.2-.1.1.1-.2 0 0-.1 0l.1-.1-.2.2.1-.1c0-.1-.1.1-.1 0l.1-.1-.1.1c-.1 0 0-.1.1-.2-.1 0-.2.1-.1.1h.1c0-.1-.2 0-.1-.1h.1v.1c.1-.1.1-.1.3-.2-.1 0-.3.1-.3.1.1-.1 0-.1 0-.1-.1.1-.1 0-.2.1h-.1c-.1 0-.2.1-.2.1.2-.1.2-.2.4-.2-.1 0-.1-.1-.3-.1 0 0 .1 0 .1-.1h.1c-.1 0 0-.1-.2-.1.1-.1.2 0 .1-.1h.1c.3-.1-.5-.2-.1-.3h-.1c.2-.1-.1-.3.2-.4.1 0 0-.1-.1-.1h.1l-.1-.1c-.1-.1.4.1.2-.1h-.1s0-.1.1 0c0 0-.1-.1 0 0h.1l-.6-.7c.1 0 .3.2.3.1 0 0-.1-.2-.2-.2 0 0-.1 0-.1-.1v-.1c-.2-.1-.3-.3-.5-.3l.1.1h-.1v-.1c-.1 0 0 0 0 .1h-.1l.1.2c-.1 0-.1-.1-.2-.1.1.1.2.1.2.2-.1 0-.2-.1-.1 0-.1 0-.1-.1-.1-.1 0 .1 0 .1.1.2-.1 0 0 .1-.2 0 0 0 .1.1.1.2-.2-.2-.1.1-.3 0 .2.1 0 .2.1.3 0 0-.1 0 0 0h-.2c.2.1.2.1.3.2-.2 0-.2-.1-.4-.1.2 0 .1.1.3.1h-.2c.2 0 0 0 .2.1-.1 0-.2 0-.2.1-.1-.1-.2-.1-.2-.1zm.7 1.4zm.1.1c0-.1 0-.1 0 0 0-.1 0-.1 0 0zm.7-.7c.1 0 0 .1 0 0 0 .1 0 .1 0 0 0 .1 0 .1 0 0zm-.1.1H83h.1zm1.6-2.5zm-.8 4.2v-.1h-.1zm.1-4.6zm-.2.1zm-.2 0zm3.2.4c0 .1 0 0 0 0zm-1-.3c0-.1 0-.1 0 0zm1.7 1.4z" style="fill:#fff"/><path d="M85.9 50.3c0-.1-.1-.1 0 0-.1 0-.1 0 0 0zm-3.1.4zm0 0zm0 .1c0-.1 0-.1 0 0zm.2-.2c0-.1 0-.1 0 0zm.1-.1s-.1-.1-.1 0h.1c-.1-.1 0 .1 0 0zm.6.3v.1c.2.2-.1 0 0-.1zm.2 0c0 .1 0 .1 0 0 0 .1 0 .1 0 0zm1.1-.2v.1-.1zm.4-.6v.1zm-.1.9v.1-.1zm1 1.3h.2c-.1-.1-.3 0-.2 0zm.1.8c-.1-.1-.1-.1 0 0zm-2.1.4z" style="fill:#fff"/></g><g style="opacity:.65"><path d="m86.9 51.4.1.1-.1-.1zm.3.1c0-.1-.1-.2-.3-.3.1.2.1.1.3.3-.1 0-.1-.1-.2-.1 0 0-.1 0 0 .1s.2 0 .2 0c-.1 0 0 0 0 0zm1.6-.5zm1 .3zm0 .2zm-1-.5c.1 0 .1 0 0 0zm-1.7 0s0 .1 0 0zm1.3.2zm-.3.1s0-.1-.1-.2c.1.1.1.1.1.2zm-.6.1zm1.2-.2zm-2.4.5zm.8-.1v.1h.1zm2.8.2zm.2 1.9c.1.1.1.2.2.3-.1 0-.2-.2-.2-.3zm-3-2.7zm3.1 3zm.1-1.8zm-.1-.5zm.3.7zm.1.3zm-4.5.3h.1c-.1 0-.1-.1-.1 0zm1.1-1.9c-.1 0-.1-.1 0 0-.1-.1-.1-.1 0 0-.1 0-.1 0 0 0zm4.4 1.1zm-3.5 2.9zm3.6-2.7c-.1 0-.1 0 0 0-.1.1-.1.1 0 0zm-5.5.6z" style="fill:#fff"/><path d="M85.9 52.5c0 .1.2.1.3.1 0 .1-.1 0-.2 0 0 .1.2.1.2.1h-.1c.1.1 0 .2.2.2h.3s.1 0 0 .1h-.1.1-.2c.1.1.2.1.2.1-.2 0-.1-.1-.2 0l.1-.1c-.3.1 0 0-.3 0 0 .1.1.1.1.2h.2c.2.1-.4.2-.2.2.1 0 .3-.1.2 0h-.2c0 .1.3 0 .2.1h-.1c-.1.1.1 0 .1 0l-.2.1c.1.1.2.1.3.2 0 0-.1 0-.1.1.1.1.1.3.2.4l.1-.1s0 .1-.1.1c0 .1.1-.1.1-.1s0 .1-.1.1c.2 0 .4 0 .4.2 0 .1.2-.2.2-.1.1.1.3.1.4.3.1-.2.1.1.2-.2 0 .2 0 .2.1.3l.1-.2v.2l.1-.2v.2-.1c.1-.1.1.1.1.2l.1-.1c0 .1 0 .1-.1.1.1-.1 0 .2.1 0v-.1c0 .1.1.1.1.1v.1h.3v-.3.2-.2.2-.1.1c0-.1.1.2.1 0 .1 0 .2-.1.2-.1 0-.1 0-.1.1-.2.1 0 .1.1.2.1v-.2c0 .1.1.1.1.2.1 0 .1 0 .2-.2v-.1s.1 0 .1.1c.1-.2.4.3.5 0 0-.1 0-.1.1-.2.1 0 0 .1.1.2 0-.3.2-.1.2-.3.3.3.3-.2.5-.1l-.1-.1c0-.1.1 0 .1 0-.1 0-.1 0-.1-.1.1-.3.4-.4.6-.7.1-.1-.4-.2-.2-.2l.2.1c-.2-.2.1-.4-.1-.6h.1c.1 0 0-.1-.1-.1h.1c.1 0-.2-.1 0-.1-.1 0 0-.1-.1-.1.1-.1-.1-.1 0-.2-.2 0 .1-.1-.2-.1.2 0 .2-.1 0-.2.1 0 .1-.1.2-.1 0 0-.1-.1-.2 0 .2-.2-.3-.1.1-.3-.2-.1-.3-.2-.4-.3.2-.1.1.1.3 0-.1-.1-.3 0-.4-.2h.1c-.1-.1-.1-.2-.3-.2h.1s0-.1-.1 0-.3.1-.3.2c.2-.2 0-.1.3-.3 0 0-.1 0-.1.1 0 0 0-.1.1-.1-.1 0-.2.1-.2 0 0 0 .1 0 .1-.1-.1 0-.2.1-.2 0 0 0 0-.1.1 0-.1-.1-.3.1-.3 0 .1-.2 0-.1.1-.2h-.1v.1s-.1.1-.2 0l.1-.1h-.1v.1c-.1.5-.1.7-.2.6v-.1s-.1.1-.1 0 .1-.2.1-.2c-.1.1-.1 0-.2.1l.1-.1-.1.1v-.1c-.1 0-.1.2-.1.1-.1-.1-.2 0-.2 0 0-.2.1 0 .1-.2-.1 0-.3.2-.3.1 0 .3-.1-.1-.1 0v-.1c-.1 0-.1.1-.2.1v-.1c0-.1-.1 0-.2-.1v.2c-.2-.4-.2.2-.4-.1v-.1l-.1.1c0 .1 0 .1.1.1v.1c0-.1 0-.2-.1-.2v.1c-.1-.2.1.2 0 .1v-.1.1c-.1-.1 0-.1 0-.2 0 0 0 .3-.1.2v-.1l-.1-.1h-.1c.1.3-.1.1 0 .3 0-.2 0-.1-.1-.3l-.1-.1c0 .1-.1-.1-.1.1l-.1-.1c0 .1.1.1.1.1 0 .2-.2-.1-.2.2 0 .1.1.3.1.4-.1 0-.1-.2-.1-.2-.1 0-.1 0-.1.1l-.1-.1s.1.1 0 .1c0 0-.1-.1-.1-.2v.2c-.1-.1-.1-.1-.1-.2 0 .1 0 .1.1.2h.1l-.1-.1c0-.1.1 0 .1 0 .2.2 0-.1.1-.1l.1.2-.1-.2s.1.1.1.2c.1.1 0-.1.1 0v-.1l.1.1c.1.1 0-.2.1-.1 0-.1-.1-.1-.1-.3l.2.3-.1-.1.1.1c0-.1 0-.1-.1-.1.1.1.1-.1.2.1 0-.1-.1-.1-.1-.2.1.2 0-.1.1 0 0 .1 0 .1.1.2-.1-.2.1 0 .1 0-.1-.2 0-.1.1-.2 0 .1.1.1.2.1v-.2.2-.1.1s0-.2.1-.1c0-.1-.1-.3-.1-.4v.2s0-.1 0 0v.1-.1.1l.1.1v-.1s0 .1.1.2v-.1.1c0-.1.1 0 .1-.2.1-.1.2.1.2 0s.1 0 .1-.1v.2s0-.1.1 0v.1s0 .1.1 0v.1-.1h.1v.2c0 .2.2-.3.2 0 .1-.1 0-.1.1-.2v.3c0 .1.1-.2.2-.1 0-.1.1-.2.1-.2s-.1.2-.1.3l-.1.1v-.1.2l.1-.1c0 .1.1 0 .1.1v-.1c0 .1.1-.1.1-.1 0 .1-.1.2 0 .1 0 .1-.1.1-.1.2.1-.1 0 .1 0 .1l.1-.1v.1c.1 0 .1-.2.2-.2 0 .1.1 0 0 .1 0-.1-.1.1-.2.1-.1.1.1-.1.2-.1l-.2.4s.1-.1.2-.1c0 .1.1 0 .1 0 .1-.1.1 0 .1 0h-.1c.1-.1-.1.1 0 .1 0 0-.1.1-.2.1.1 0-.1.1 0 .1.1-.1.1-.1.2-.1h-.1l.2-.1h-.1c.1 0 .1 0 .1-.1-.1.1.1 0 0 .1l-.2.2c-.1.1.2 0 .1.1h.1c-.1 0-.1.1-.2.1h.2l-.1.1c0 .1.3 0 .3 0-.1 0-.2.1-.3 0h.1c-.1 0 .1 0 .1.1h.3c-.3.1.1.2-.2.3l.1.1c-.1.1.3 0 .2.1h-.1c-.3 0 0 .1-.1.1s.1.1.1.1c.2 0 .2.1.2.2h-.2s.2 0 .2.1h-.3c-.2 0 0 0 0 .1h-.1c0 .1.2.1.2.2h.1c.2.1-.1 0 0 .1l-.2-.1.2.2-.2-.2s0 .1.1.1c0 0-.1 0 0 0 .1.1.2.2.1.2-.3-.2-.1 0-.4-.1.1.1-.1 0-.2.1.2.2 0 0 .2.3-.1 0-.1-.1-.1-.1-.1-.1 0-.1-.1-.1 0 0-.1-.1-.1-.2.1.1.1.1 0 .1l.1.1c0 .2-.2-.2-.1 0V54c0 .1-.1 0 0 .3v-.1c-.1 0-.1.3-.2.2v-.1.1-.1.1-.1c-.1-.1-.1.2-.2.3 0-.2-.1-.3-.1-.3-.1 0-.2.2-.3.3-.1-.2-.2-.1-.3-.2v.2s-.1.1-.1-.1 0-.2-.1-.2v.3c-.1-.4-.3.1-.3-.2 0 .1-.1.1-.1.1v-.1c-.1 0-.1-.1-.2 0v-.1s-.1.4-.2.4v-.2c-.1 0 0-.2-.1 0 0 0 0-.1.1-.1 0 0 0-.2-.1.1.1-.2 0 0-.1 0l.1-.1-.2.2.1-.1c0-.1-.1.1-.1 0l.1-.1-.1.1c-.1 0 0-.1.1-.2-.1 0-.2.1-.1.1h.1c0-.1-.2 0-.1-.1h.1v.1c.1-.1.1-.1.3-.2-.1 0-.3.1-.3.1.1-.1 0-.1 0-.1-.1.1-.1 0-.2.1h-.1c-.1 0-.2.1-.2.1.2-.1.2-.2.4-.2-.1 0-.1-.1-.3-.1 0 0 .1 0 .1-.1h.1c-.1 0 0-.1-.2-.1.1-.1.2 0 .1-.1h.1c.3-.1-.5-.2-.1-.3h-.1c.2-.1-.1-.3.2-.4.1 0 0-.1-.1-.1h.1l-.7-.8c-.1-.1.4.1.2-.1h-.1s0-.1.1 0c0 0-.1-.1 0 0h.1l-.1-.1c.1 0 .3.2.3.1 0 0-.1-.2-.2-.2 0 0-.1 0-.1-.1v-.1c-.2-.1-.3-.3-.5-.3l.1.1h-.1v-.1c-.1 0 0 0 0 .1h-.1l.1.2c-.1 0-.1-.1-.2-.1.1.1.2.1.2.2-.1 0-.2-.1-.1 0-.1 0-.1-.1-.1-.1 0 .1 0 .1.1.2-.1 0 0 .1-.2 0 0 0 .1.1.1.2-.2-.2-.1.1-.3 0 .2.1 0 .2.1.3 0 0-.1 0 0 0h-.2c.2.1.2.1.3.2-.2 0-.2-.1-.4-.1.2 0 .1.1.3.1h-.2c.2 0 0 0 .2.1-.1 0-.2 0-.2.1-.1-.2-.2-.3-.2-.3zm.7 1.4zm0 .1c.1 0 .1-.1 0 0 .1 0 .1 0 0 0zm.8-.6zm-.2.1zm1.6-2.5zm-.8 4.1zm.2-4.5zm-.3.1c0-.1 0-.1 0 0zm-.2 0zm3.2.4c.1 0 .1 0 0 0z" style="fill:#fff"/><path d="M89.9 50.8c.1-.1.1-.1 0 0 .1-.1.1-.1 0 0zm1.7 1.3v.1zM90 50.7zm-3 .5h-.1.1zm0 0zm0 0s-.1 0 0 0zm.2-.2zm.1-.1s-.1-.1-.1 0h.1c-.2 0 0 .1 0 0zm.6.4v.1c.1.1-.1-.1 0-.1zm.2 0c-.1 0 0 .1 0 0zm1.1-.2v.1-.1zm.4-.6v-.1l-.1.1zm-.1.9zm1 1.2h.2-.2zm.1.8c-.1 0-.2 0 0 0-.1 0 0 0 0 0zm-2.2.5.1-.1-.1.1z" style="fill:#fff"/></g><path d="M64.2 103c-1.2 0-2.1-.3-2.6-1-.8-.9-.6-2.1-.6-2.2l1 .2-.5-.1.5.1s-.1.8.3 1.4c.4.4 1 .6 2 .6s1.7-.3 2-.7c.4-.5.3-1.2.3-1.2l1-.2s.2 1.2-.5 2.1c-.6.7-1.5 1.1-2.8 1.1 0-.1-.1-.1-.1-.1z" style="fill:#0d695c"/><path d="M72.1 67.5s0 .1 0 0zm-.1.1s.1 0 .1-.1c0 .1.1.1-.1.1.1 0 .1 0 0 0 .1 0 .1 0 0 0 .1 0 .1 0 0 0zm.3.8c0-.1 0 0 0 0zm.1.4zm0 .1zm-.1-.5zm-.1-.7zm-.1.5zm0-.1s0-.1 0 0c0-.1 0-.1 0 0 0-.1 0-.1 0 0zm-.1-.3zm.2.5zm2.2 3.8zm-.2.2zM72.4 69zm.6 1.2h.1-.1zm-.8-2.5zm.9 2.5zm-.5-.9zm-.1-.2zm.2.3zm0 .1zm1.5 2.2zm-2-4zm.9 1.5zm.7 1.6zm-.7-1.5zm1 2.4zm.2.1h-.1.1-.1.1c-.2 0-.1-.1-.2-.1H74h.1-.1.1c.1-.1 0 0 .1 0h-.1c-.1 0 .1-.1 0-.1H74h.1-.2.1s-.1 0-.1-.1h.1v-.1h-.2c-.1 0-.1 0-.1-.1h-.1c0-.1-.1-.1 0-.2-.1 0 0-.1-.1 0l.1-.1h-.1.1-.1.1v-.1h-.1.1c-.1 0 .1 0 0 0v-.1s0-.1-.1-.1h-.1.1-.1.2s0-.1 0 0l-.1-.1h-.1v-.1h-.1.1l-.1-.1c-.1 0 .1-.2 0-.1h-.1.1c-.1 0 0-.1-.1-.1.1-.1 0-.1 0-.2-.1-.1 0-.2 0-.3 0 0-.2.1-.1 0h.1c-.1 0 0-.1-.1-.1H73s-.1 0 0 0h-.1v-.1h-.1c.1 0 .1-.1 0-.1h.1-.1c.1-.1-.1 0 0-.1-.1 0-.1 0-.1-.1h.1c-.1 0-.1 0-.1-.1h.1c-.1 0 0-.1-.1-.1h-.2c.1 0 0 0 .2-.1h-.3s-.1 0-.1-.1c.1 0 0 0 .1-.1 0 0-.1 0 0 0h-.1s-.1 0 0 0h.1-.1.1-.1s-.1 0 0-.1h.1s-.1 0-.1-.1c-.1 0 0 0 0 0s.1 0 0 0l-.1-.1v-.1h-.1c.1-.1-.1 0 0-.1h-.2.1c.1-.1-.1 0 0 0h.1-.1c.1 0 0 0 0 0h-.1.1-.1c-.1 0 .1-.1 0-.1h-.1.1s-.1 0 0 0h.1-.1.1-.1.1c-.1.1 0 0 0 0h-.1.1-.1s-.1 0 0 0c0 0 .1 0 0 0h.1v-.2h.2v.1h.1c-.1 0 0 0 0 0h-.1c.1 0 0 0 0 0h.1v.1h.1-.2.1s.1-.1.2-.1h-.2.1-.1.2c.1 0 0 .1 0 .1h.1s-.1 0 0 0h-.1c-.1.1.2 0 0 .1h.1l-.1.1h.2l-.1.1v.2h.1s-.1 0 0 0h-.1c.1 0 0 0 0 .1h.1-.1.1s-.1 0 0 0h.1c.1 0 0 .1 0 .1h-.1c.1 0 0 0 0 0h.3c-.1 0 .1 0 0 0h-.1s.1 0 .1.1h-.1.2-.1s.1 0 0 0h.2c-.1.1 0 .1 0 .1h.2-.1c-.1.1 0 0 0 .1h.2-.1.1l-.1.1c-.1 0 0 0 0 0h.1c.1 0 0 0 0 0h-.1.1-.1.2c-.1.1 0 .1-.1.1.1 0 0 .1 0 .1.1-.1 0 0 .1 0l-.6.8h-.1l-.1.1h.1c.1 0-.1.1 0 .1 0 0 0 .1.1 0h-.1s.1 0 .1.1c0 0 .1 0 0 0 0 0 .1 0 0 0 0 .1.1 0 .1 0-.1 0-.1.1-.1.1s.1 0 .1.1c-.1.1 0 .1 0 .2h.1s.1 0 0 0 0 0 0 .1h.1c-.1.1.1.1 0 .2h.1-.1v.1h.2-.1v.1s0 .1.1 0c-.1 0 0 0 0 0h-.1.1s.1 0 0 0h.1v.1h.1s.1 0 0 .1l-.1.1h.2s.1 0 0 0h.1c-.1 0-.1.1-.1.1s0 .1.2 0h.1s-.1 0 0 0c-.1.1.2 0 .1.1 0 .1.1.1.1.2h.1-.1.1c.1 0-.1.1 0 .1h.1s-.1 0-.1.1h.1c.1 0 .2-.1.2-.1h-.2.1-.1s.1 0 0 0h-.1l.1-.1h-.1c.1 0 0 0 .1-.1h-.2c-.1-.1 0-.1 0-.2 0 .1-.1.1-.1.1.1 0 0 0 .1-.1-.1.1 0 .1-.1.1 0-.1.1-.1.1-.1zm-.3-.4zm-.1 0zm-.3.2s.1 0 0 0zm.1 0zm-1.4-3.3zm1.5 2.6zm-1.4-2.8zm-.1-.1zm0-.1zm.6 1zm-.3-.2c0-.1 0-.1 0 0zm.5.5zm-.5-.5zm-.4-1.1zm0 0zm0 0zm0 .1zm0 0s.1 0 0 0c.1 0 0 0 0 0z" style="fill:#6594d9"/><path d="M72.1 67.9s-.1 0 0 0c-.1.1 0 0 0 0zm0 .1s-.1 0 0 0zm.2.5zm.3 0zm-.3.2zm.4.8zm.2.4zm.4 1.1zm1.9-9.3s-.1 0 0 0zm-.1.1s.1 0 .1-.1l-.1.1c0-.1 0-.1 0 0 0-.1.1-.1 0 0 0-.1 0-.1 0 0 0-.1 0-.1 0 0zm.2.7zm.2.4zm-.1.1zm-.1-.5zm0-.7zm-.1.5zm-.1-.1s.1 0 0 0c.1 0 0 0 0 0zm0-.3zm.1.5zm2.2 3.8zm-.2.2s0 .1 0 0zm-1.8-3.2zm.6 1.1h.1-.1zm-.7-2.5zm.8 2.5zm-.5-.9zm0-.2zm.1.3zm.1.1zm1.4 2.2zm-1.9-4zm.8 1.5c0 .1 0 .1 0 0zm.7 1.7s0-.1 0 0zm-.6-1.6s-.1 0 0 0c-.1 0-.1 0 0 0zm1 2.4zm.2.1h-.1.1-.1.1c-.2 0-.1-.1-.2-.1h-.1.1-.1.1c.1-.1 0 0 .1 0h-.1c-.1 0 .1-.1 0-.1h-.1.1-.2.1s-.1 0-.1-.1h.1v-.1h-.2c-.1 0-.1 0-.1-.1h-.1c0-.1-.1-.1 0-.2-.1 0 0-.1-.1 0l.1-.1h-.1.1-.1.1V65h-.1.1c-.1 0 .1 0 0 0v-.1s0-.1-.1-.1h-.1.1-.1.2s0-.1 0 0l-.1-.1h-.1v-.1h-.1.1l-.1-.1c-.1 0 .1-.2 0-.1h-.1.1c-.1 0 0-.1-.1-.1.1-.1 0-.1 0-.2-.1-.1 0-.2 0-.3 0 0-.2.1-.1 0h.1c-.1 0 0-.1-.1-.1h-.1s-.1 0 0 0H76v-.1h-.1c.1 0 .1-.1 0-.1h.1-.1c.1-.1-.1 0 0-.1-.1 0-.1 0-.1-.1h.1c-.1 0-.1 0-.1-.1h.1c-.1 0 0-.1-.1-.1h-.2c.1 0 0 0 .2-.1h-.3s-.1 0-.1-.1c.1 0 0 0 .1-.1 0 0-.1 0 0 0h-.1s-.1 0 0 0h.1-.1.1-.1s-.1 0 0-.1h.1s-.1 0-.1-.1c-.1 0 0 0 0 0s.1 0 0 0l-.1-.1v-.1h-.1c.1-.1-.1 0 0-.1H75h.1c.1-.1-.1 0 0 0h.1-.1c.1 0 0 0 0 0H75h.1-.1c-.1 0 .1-.1 0-.1h-.1.1s-.1 0 0 0h.1-.1.1-.1.1c-.1.1 0 0 0 0H75h.1-.1s-.1 0 0 0c0 0 .1 0 0 0h.1V62h.2v.1h.1c-.1 0 0 0 0 0h-.1c.1 0 0 0 0 0h.1v.1h.1-.2.1s.1-.1.2-.1h-.2.1-.1.2c.1 0 0 .1 0 .1h.1s-.1 0 0 0h-.1c-.1.1.2 0 0 .1h.1l-.1.1h.2l-.1.1v.2h.1s-.1 0 0 0h-.1c.1 0 0 0 0 .1h.1-.1.1s-.1 0 0 0h.1c.1 0 0 .1 0 .1h-.1c.1 0 0 0 0 0h.3c-.1 0 .1 0 0 0H76s.1 0 .1.1H76h.2-.1s.1 0 0 0h.2c-.1.1 0 .1 0 .1h.2-.1c-.1.1 0 0 0 .1h.2-.1.1l-.1.1c-.1 0 0 0 0 0h.1c.1 0 0 0 0 0l-.6.7h.1-.1.2c-.1.1 0 .1-.1.1.1 0 0 .1 0 .1.1-.1 0 0 .1 0l-.1.1H76l-.1.1h.1c.1 0-.1.1 0 .1 0 0 0 .1.1 0H76s.1 0 .1.1c0 0 .1 0 0 0 0 0 .1 0 0 0 0 .1.1 0 .1 0-.1 0-.1.1-.1.1s.1 0 .1.1c-.1.1 0 .1 0 .2h.1s.1 0 0 0 0 0 0 .1h.1c-.1.1.1.1 0 .2h.1-.1v.1h.2-.1v.1s0 .1.1 0c-.1 0 0 0 0 0h-.1.1s.1 0 0 0h.1v.1h.1s.1 0 0 .1l-.1.1h.2s.1 0 0 0h.1c-.1 0-.1.1-.1.1s0 .1.2 0h.1s-.1 0 0 0c-.1.1.2 0 .1.1 0 .1.1.1.1.2h.1-.1.1c.1 0-.1.1 0 .1h.1s-.1 0-.1.1h.1c.1 0 .2-.1.2-.1h-.2.1-.1s.1 0 0 0h-.1l.1-.1h-.1c.1 0 0 0 .1-.1h-.2c-.1-.1-.1-.1 0-.2 0 .1-.1.1-.1.1l.1-.1c-.1.1 0 .1-.1.1 0-.1 0-.1.1-.1-.1 0 0 0 0 0zm-.4-.3zm0-.1s0 .1 0 0zm-.3.3s0-.1 0 0c0-.1 0-.1 0 0 0-.1 0-.1 0 0zm0-.1c.1 0 .1 0 0 0 .1 0 0 0 0 0zm-1.4-3.2zm1.6 2.5h-.1.1zm-1.5-2.8zm0-.1zm0-.1c-.1 0-.1 0 0 0zm.5 1zm-.3-.2c.1 0 .1 0 0 0 .1 0 .1 0 0 0zm.5.5zm-.4-.5zm-.4-1.1zm0 0c-.1 0-.1 0 0 0zm-.1 0zm.1.1zm0 0z" style="fill:#6594d9"/><path d="M75.1 62.1c0-.1 0 0 0 0-.1 0 0-.1 0 0zm0 0s0 .1 0 0c0 .1 0 .1 0 0zm.2.5c0 .1 0 0 0 0zm.3 0h.1-.1zm-.3.2zm.4.8c.1 0 0 0 0 0zm.3.4c-.1 0-.1 0 0 0-.1 0 0 0 0 0zm.4 1.1h-.1.1zm5.9-1.8zm-.1.1s.1 0 .1-.1c0 .1 0 .1-.1.1 0 0 .1 0 0 0 .1 0 .1-.1 0 0 .1 0 0 0 0 0zm.2.7zm.2.5zm0 .1zm-.2-.6zm0-.7zm-.1.6zm-.1-.2s.1 0 0 0c.1 0 .1 0 0 0 .1 0 0 0 0 0zm0-.2zm.1.5zm2.2 3.7zm-.1.3s-.1 0 0 0zm-1.8-3.3zm.6 1.2h.1-.1zm-.8-2.6c0 .1 0 .1 0 0 0 .1 0 0 0 0zm.9 2.5zm-.6-.8zm0-.2zm.2.3s-.1 0 0 0zm0 .1zm1.5 2.2c-.1 0-.1 0 0 0-.1 0 0 0 0 0zm-2-4s0-.1 0 0c0-.1 0-.1 0 0 0-.1 0 0 0 0zm.9 1.5zm.6 1.6c.1 0 .1 0 0 0zm-.6-1.5zm1 2.4zm.2.1h-.1.1-.1c0-.1 0-.1.1 0-.2 0-.1-.1-.2-.1h-.1.1-.1.1c.1-.1 0 0 .1 0h-.1c-.1 0 .1-.1 0-.1h-.1.1-.2.1s-.1 0-.1-.1h.1v-.1H84c-.1 0-.1 0-.1-.1h-.1c0-.1-.1-.1 0-.2-.1 0 0-.1-.1 0l.1-.1h-.1.1-.1.1v-.1h-.1.1c-.1 0 .1 0 0 0v-.1s0-.1-.1-.1h-.1.1-.1.2s0-.1 0 0l-.1-.1h-.1v-.1h-.1.1l-.1-.1c-.1 0 .1-.2 0-.1h-.1.1c-.1 0 0-.1-.1-.1.1-.1 0-.1 0-.2-.1-.1 0-.2 0-.3 0 0-.2.1-.1 0h.1c-.1 0 0-.1-.1-.1h-.1s-.1 0 0 0h-.1v-.1H83c.1 0 .1-.1 0-.1h.1-.1c.1-.1-.1 0 0-.1-.1 0-.1 0-.1-.1h.1c-.1 0-.1 0-.1-.1h.1c-.1 0 0-.1-.1-.1h-.2c.1 0 0 0 .2-.1h-.3s-.1 0-.1-.1c.1 0 0 0 .1-.1 0 0-.1 0 0 0h-.1s-.1 0 0 0h.1-.1.1-.1s-.1 0 0-.1h.1s-.1 0-.1-.1c-.1 0 0 0 0 0s.1 0 0 0l-.1-.1v-.1h-.1c.1-.1-.1 0 0-.1h-.2.1c.1-.1-.1 0 0 0h.1-.1c.1 0 0 0 0 0h-.1.1-.1c-.1 0 .1-.1 0-.1H82h.1s-.1 0 0 0h.1-.1.1-.1.1c-.1.1 0 0 0 0h-.1.1-.1s-.1 0 0 0c0 0 .1 0 0 0h.1l-.1.1h.2v.1h.1c-.1 0 0 0 0 0h-.1c.1 0 0 0 0 0h.1v.1h.1-.2.1s.1-.1.2-.1h-.2.1-.1.2c.1 0 0 .1 0 .1h.1s-.1 0 0 0h-.1c-.1.1.2 0 0 .1h.1l-.1.1h.2l-.1.1v.2h.1s-.1 0 0 0h-.1c.1 0 0 0 0 .1h.1-.1.1s-.1 0 0 0h.1c.1 0 0 .1 0 .1h-.1c.1 0 0 0 0 0h.3c-.1 0 .1 0 0 0H83s.1 0 .1.1H83h.2-.1s.1 0 0 0h.2c-.1.1 0 .1 0 .1h.2-.1c-.1.1 0 0 0 .1h.2-.1.1l-.1.1c-.1 0 0 0 0 0h.1c.1 0 0 0 0 0h-.1.1-.1.2c-.1.1 0 .1-.1.1.1 0 0 .1 0 .1.1-.1 0 0 .1 0l-.5.5h-.1l-.1.1h.1c.1 0-.1.1 0 .1 0 0 0 .1.1 0h-.1s.1 0 .1.1c0 0 .1 0 0 0 0 0 .1 0 0 0 0 .1.1 0 .1 0-.1 0-.1.1-.1.1s.1 0 .1.1c-.1.1 0 .1 0 .2h.1s.1 0 0 0 0 0 0 .1h.1c-.1.1.1.1 0 .2h.1-.1v.1h.2-.1v.1s0 .1.1 0c-.1 0 0 0 0 0h-.1.1s.1 0 0 0h.1v.1h.1s.1 0 0 .1l-.1.1h.2s.1 0 0 0h.1c-.1 0-.1.1-.1.1s0 .1.2 0h.1s-.1 0 0 0c-.1.1.2 0 .1.1 0 .1.1.1.1.2h.1-.1.1c.1 0-.1.1 0 .1h.1s-.1 0-.1.1h.1c.1 0 .2-.1.2-.1h-.2.1-.1s.1 0 0 0h-.1l.1-.1h-.1c.1 0 0 0 .1-.1h-.2c-.1-.1-.1-.1 0-.2 0 .1-.1.1-.1.1 0-.1 0 0 .1-.1-.1.1 0 .1-.1.1 0-.1.1-.1.1-.1zm-.4-.4zm0 0zm-.3.2zm.1 0zm-1.5-3.3h.1zm1.6 2.5zm-1.5-2.8zm0 0c0-.1 0-.1 0 0zm0-.1zm.5 1c.1 0 .1 0 0 0zm-.2-.3zm.5.6zm-.5-.6zm-.4-1zm0 0zm0 0zm0 .1zm0 0s.1 0 0 0c.1 0 0 0 0 0zm-.2.2c0 .1 0 0 0 0zm0 .1zm.3.5c-.1 0-.1 0 0 0zm.3 0h-.1zm-.3.2h-.1.1zm.4.8s-.1 0 0 0z" style="fill:#6594d9"/><path d="M83.1 65.6c0 .1-.1.1 0 0 0 .1 0 0 0 0zm.4 1.2z" style="fill:#6594d9"/></g></svg>