<svg xmlns="http://www.w3.org/2000/svg" xmlns:xlink="http://www.w3.org/1999/xlink" viewBox="0 0 131.2 142.8" style="enable-background:new 0 0 131.2 142.8" xml:space="preserve"><style>.st5{fill:#31458b}.st6{fill:#91bdfa}.st7{fill:none;stroke:#ef7937;stroke-width:.925;stroke-miterlimit:10}.st8{fill:#4f84d3}.st9{fill:#91bdfa}.st10{fill:none;stroke:#31458b;stroke-width:.8491;stroke-miterlimit:10}.st11{fill:#4f84d3}.st12{fill:#91bdfa}.st13{fill:none;stroke:#d9413d;stroke-width:.8491;stroke-miterlimit:10}.st20{clip-path:url(#SVGID_12_)}.st21{clip-path:url(#SVGID_14_)}.st22{clip-path:url(#SVGID_16_)}.st23{clip-path:url(#SVGID_18_)}.st24{clip-path:url(#SVGID_20_)}.st25{fill:none;stroke:#4f84d3;stroke-width:.925;stroke-miterlimit:10}.st26{clip-path:url(#SVGID_22_)}.st27{clip-path:url(#SVGID_24_)}.st28{clip-path:url(#SVGID_26_)}.st29{clip-path:url(#SVGID_28_)}.st30{clip-path:url(#SVGID_30_)}.st31{fill:none;stroke:#d9413d;stroke-width:.925;stroke-miterlimit:10}.st32{clip-path:url(#SVGID_32_)}.st33{clip-path:url(#SVGID_34_)}.st34{clip-path:url(#SVGID_36_)}.st35{clip-path:url(#SVGID_38_)}.st36{clip-path:url(#SVGID_40_)}.st37{fill:#4f84d3}.st38{fill:#6594d9}.st39{fill:#ee8423}.st40{fill:#f18a50}.st41{fill:#019788}.st42{fill:#32867a}.st43{fill:#f67258}.st44{fill:#de5956}.st45{opacity:.5}.st46{fill:#4b5d9a}.st47{opacity:.6}.st48{fill:#21a497}.st49{fill:#f7846d}.st50{fill:#26a59a}.st51{opacity:.65;fill:none;stroke:#fff;stroke-width:.2;stroke-miterlimit:10}.st52{fill:#c6deff}.st53{fill:none;stroke:#31458b;stroke-miterlimit:10}.st54{fill:#31458b}.st55{fill:none;stroke:#f5a800;stroke-miterlimit:10}.st55,.st56,.st57{stroke-width:.2}.st56{fill:none;stroke:#4db6ac;stroke-miterlimit:10}.st57{stroke:#ff8a65}.st57,.st58,.st59,.st60,.st61{fill:none;stroke-miterlimit:10}.st58{opacity:.65;stroke:#fff;stroke-width:.5}.st59{stroke:#ef7937}.st60{stroke:#147467}.st61{stroke:#d9413d}.st62{fill:#4f84d3}.st63,.st64,.st65{fill:#c6deff}</style><g id="Calque_1"><path d="M76.4 114.8s-24.4-.3-29.7 1.4c-5.3 1.7 13.7 6.7 23.8 5.8 10-1 17.5-4.3 14.5-5.4s-6-1.5-8.6-1.8z" style="opacity:5.000000e-02"/><path d="M67.4 89.9c-.1.6.1.6.1 1.2s.3.6.3 1.1c0 .6-.1.6-.1 1.1 0 .6-.2.6-.2 1.1 0 .6.2.6.2 1.1v1.1c0 .6-.2.6-.2 1.1 0 .6.2.6.2 1.1 0 .6-.1.6-.1 1.1 0 .6.2.6.2 1.1 0 .6-.1.6-.1 1.1 0 .6-.2.6-.2 1.1 0 .6-.1.6-.1 1.1 0 .6.1.6.1 1.1 0 .6.2.6.2 1.1 0 .6-.3.6-.3 1.1 0 .6.3.6.3 1.1 0 .6-.3.6-.3 1.1 0 .6.3.6.3 1.1 0 .6-.2.6-.2 1.1 0 .6.2.6.2 1.1 0 .6-.3.6-.3 1.1v1.1c0 .5.5.7 1 .7.6 0 .6.1 1.3.1.6 0 .6-.1 1.3-.1.6 0 .7-.7.2-.9-.6-.1-.6 0-1.2 0s-.6.1-1.2.1c-.3-.1-.3-1.4-.3-1.8 0-.6.1-.6.1-1.1 0-.6.2-.6.2-1.1 0-.6-.1-.6-.1-1.1V109c0-.6-.2-.6-.2-1.1 0-.6.1-.6.1-1.1 0-.6-.1-.6-.1-1.1 0-.6.2-.6.2-1.1 0-.6.1-.6.1-1.1v-3.3c0-.6-.2-.6-.2-1.1 0-.6.1-.6.1-1.1 0-.6.2-.6.2-1.1v-2.3c0-.6.1-.6.1-1.2s-.3-.6-.3-1.2.2-.6.2-1.2v-1.2c0-.6.1-.6.1-1.2s.4-1.1-.1-1.3c-.5-.2-.1.7-.4 1.2-.7 1-1 .8-1.1 1.4zm-5 0c.1.6-.2.6-.2 1.1 0 .6.3.6.3 1.1 0 .6-.3.6-.3 1.1v1.1c0 .6.2.6.2 1.1 0 .6-.2.6-.2 1.1 0 .6.2.6.2 1.1 0 .6.1.6.1 1.1v1.1c0 .6-.2.6-.2 1.1v1.1c0 .6.2.6.2 1.1 0 .6-.2.6-.2 1.1v1.1c0 .6.2.6.2 1.1 0 .6.1.6.1 1.1 0 .6-.1.6-.1 1.1 0 .6-.2.6-.2 1.1v1.1c0 .6.2.6.2 1.1v2.2c0 .5-.2.6-.2 1.1 0 .5-.3.8-.8.8-.6 0-.6.1-1.3.1-.6 0-.6-.1-1.3-.1-.6 0-.7-.7-.2-.9.6-.1.6 0 1.2 0s.6.1 1.2.1c.3-.1.3-1.4.3-1.8 0-.6.1-.6.1-1.1 0-.6-.2-.6-.2-1.1 0-.6.2-.6.2-1.1 0-.6-.2-.6-.2-1.1 0-.6.2-.6.2-1.1 0-.6-.2-.6-.2-1.1 0-.6.2-.6.2-1.1v-2.2c0-.6-.3-.6-.3-1.1 0-.6.2-.6.2-1.1 0-.6.1-.6.1-1.1 0-.6-.2-.6-.2-1.1 0-.6.1-.6.1-1.1v-1.1c0-.6-.1-.6-.1-1.2s.1-.6.1-1.1c0-.6-.1-.6-.1-1.2V91c0-.6-.1-.6-.1-1.2v-1.2c0-.6-.4-.9.1-1 .5-.2.2.4.5.9.4.9.5.9.6 1.4z" style="fill:#31458b"/><path d="M40.9 108.5c5 5.6 10.6 1.6 13 0 2.4-1.6 3.3-5.7 4.9-10.6 1.6-4.9 9.8-3.3 14.7 2.4 4.9 5.7 4.9 9.8 10.6 10.6 5.7.8 11.4.8 14.7-4.9 1.7-2.9 2.6-10.2-3.3-17.1s-13-14.7-12.2-22c.8-7.3 4.3-10.9 7.3-16.3 3.3-5.7 9-12.2 8.1-17.9s-12.7-2.4-15.5 0c-7.3 6.5-9.8 14.7-14.7 14.7s-9.8-9.8-11.4-13-9-4.3-12.2-1.6c-9.5 8-11.3 67.5-4 75.7z" style="fill:#91bdfa"/><path d="M56.5 56.1s-5.1-5.3-11.8-1.5c-6.8 3.8-5.9 13.9.8 16 6.8 2.1 11.2-.6 12.2-3.6 1.1-2.9 1.8-8.2-1.2-10.9z" style="fill:#fff"/><circle cx="50.4" cy="65" r="5.9"/><path d="M79.9 56.1s-5.1-5.3-11.8-1.5c-6.8 3.8-5.9 13.9.8 16 6.8 2.1 11.2-.6 12.2-3.6s1.7-8.2-1.2-10.9z" style="fill:#fff"/><circle cx="73.8" cy="65" r="5.9"/><path d="M61.8 81.2c-.7 0-1.4-.3-1.8-.8-1.3-1.5-.9-4.4-.9-4.5l1 .1c-.1.7-.2 2.8.7 3.8.3.3.6.5 1.1.5 2.2 0 2.3-1.6 2.3-3.8h1c-.1 1.7-.1 4.7-3.4 4.7z" style="fill:#31458b"/><g style="opacity:.65"><path d="M81.1 75.8v-.2.2zm-.1-.5v.6-.4.2-.1c0-.2 0-.2-.1 0 .1-.2.1-.2.1-.3zm-1.7-.4zm-1-.1c0-.1 0 0 0 0zm-.2-.3zm1.2.4zm1.5 1zm-1-1.2v-.1.1zm.3 0v.3-.3zm.6.4c0-.1 0-.1 0 0zm-1.2-.4c0-.1 0-.1 0 0 0-.1 0 0 0 0zm-9.7 1.6c0-.1 0-.1 0 0 0-.1 0 0 0 0zm-.4-1.1v-.1.1zm8.4-1zm-2.9.2c0 .2-.1.2 0 .5v-.5zm5.9 1.5s-.1 0 0 0c-.1 0 0 0 0 0zm-5.9-1.1s0 .1 0 0c0 .1 0 .1 0 0zm2.2-.4zm.5.3zm-.8 0c0-.1 0-.1 0 0 0-.1 0-.1 0 0zm-.3 0zm-5.8 1.5V76v.2zm10.1-.4s0 .1 0 0c0 .1 0 .1 0 0zm-4 .5c-.1 0 0 0 0 0zm-3.9-.2c0 .1 0 .1 0 0zm3.7.2v-.1.1zm-5.9-.3z" style="fill:#fff"/><path d="M70.4 76.5v-.4c.1-.1.1.1 0 .4.1-.2.1-.4.2-.4v.1c0-.2.1 0 .1-.3v.1-.4s0-.2 0 0v.1-.1.3c0-.1.1-.3.1-.2 0 .3-.1.1 0 .3v-.1.4c.1.1.1-.1.1-.1v-.4c.1-.3.1.6.1.3 0-.2 0-.5.1-.3v.3c.1 0 0-.4.1-.2v.1c0 .2 0-.2.1-.2v.3c.1 0 .1-.2.2-.3v.2c.1-.1.2 0 .3.2V76v.1-.2.2c.1-.2.2-.4.2-.2v.1c.1.1.1-.5.1-.2.1.1.2-.1.3.2 0-.3.1.1.1-.3.1.2 0 .3.1.4 0 0 0-.3.1-.3v.2-.2.3-.3c0-.1.1.2.1.3l.1-.2v.2c.1-.2 0 .2.1 0v-.2c0 .1.1.1.1.1v.2c.1 0 .2-.1.2-.1v-.4.2-.3.4-.1.2c0-.2.1.2.1 0v.1c.1 0 .1-.1.2-.1v-.3c.1.1.1.2.2.2v-.3c0 .2.1.2 0 .3.1 0 .1 0 .2-.2v-.2.2c.1-.3.2.6.3.2l.1-.2v.3c.1-.3.1 0 .2-.2.1.6.2 0 .3.3v-.1.1-.2c.2-.2.4.2.5.3.1 0 0-.7.1-.4v.2c.1-.3.3 0 .4-.2v.1c0 .2.1 0 .1-.1v.2c0 .1.1-.2.1-.1v.1c0-.1.1 0 .1-.2 0 .1.1-.1.1 0 0-.2.1.1.1-.2 0 .3.1.3.1.1v.2s.1-.1.1-.2c.1.4.1-.3.2.2.1-.2.2-.3.3-.4 0 .3-.1 0-.1.4.1-.1.1-.4.2-.3v.2c.1-.1.2 0 .2-.2v.1-.1c0-.2.1-.5.1-.6 0 .4.1.1 0 .7v-.2.2c.1-.1 0-.2.1-.2v.2c0-.1.1-.3.1-.2v.1c.1 0 .1-.4.2-.2v.4-.2s.1-.2.1-.1v.1l.1-.1v-.4l.1.2c0-.1 0-.2.1-.1v.4c0-.2.1-.1.1-.3v.2-.2.2c.1 0 0-.4 0-.2v.1c.1.1.1-.1.2 0v.3c.1-.1.2-.3.3-.3 0-.4.1.2.1 0v.2c.1.1.1-.1.2-.2v.1c0 .1.1.1.1.1v-.2c.1.6.2-.3.3.2v.1l.1-.1v-.2c0-.1 0-.2.1-.2v.4-.2c0 .3 0-.3.1-.1v.1s0-.2.1-.1v.3s.1-.4.1-.2v.1c0 .2 0 .2.1.2l.1.1v-.1c0-.5.1-.1.1-.4-.1.3 0 .2 0 .4v.2c0-.2 0 .1.1-.1v.2-.2c.1-.2.1.3.2 0 .1-.1.1-.4.1-.5v.3c0 .1.1.1.1 0v.2-.2.3c0-.1.1-.2.1-.3v.3c0-.1.1-.1.1-.3v-.1.2-.1c0-.4-.1.1-.1 0v-.3.3-.3c0-.2 0 .1-.1-.1v-.1.1-.2c-.1-.2-.1.2-.1 0-.1.1 0 .2-.1.5V75v.2-.1.2c0-.2-.1.1-.1-.3v.3c0-.4 0 .1-.1-.1v-.3c0 .3-.1-.1-.1 0 0 .3-.1.1-.1.2 0-.1-.1-.1-.1-.2 0 .3-.1.2-.1.3v-.3.2-.2s-.1.2-.1.1v.7-.3s0 .1 0 0v-.2.1-.2s0 .1 0 0c0 0 0-.1-.1-.2v.2-.3.2-.2c0 .1-.1 0-.1.3-.1.2-.1-.1-.2 0V75c0 .1-.1.1-.1.2V75c0 .1 0 .1-.1 0v-.1c0-.1-.1-.2-.1 0 0-.2 0-.2-.1-.2v.1h-.1v-.2c-.1-.3-.2.5-.2 0v.3l-.1-.4c-.1-.1-.1.4-.1.3v.4-.4.1-.2.1c0-.1-.1-.1-.1-.2v.2c-.1-.1-.1 0-.1-.1v.2c-.1-.1 0 .2-.1.2v-.5c0 .2-.1-.1-.1-.1v-.1.2-.1.5c0-.1-.1.1-.1-.1.1.1 0-.2 0-.3v-.1c-.1-.2 0 .3-.1.3v-.2.3c0-.1 0 .1-.1.1 0 .1 0 .1-.1.2v-.1c0 .2-.1-.2-.1-.1v-.3c0 .2-.1-.2-.1 0v.3l.1-.1-.1.3.1-.1v.2c0-.3-.1.2-.1 0v-.4c-.1-.2-.1.2-.2.1v.1c0 .2 0 0-.1.1v-.3c0 .1-.1 0-.1.3V75c-.1-.1-.1.4-.1.4V75v.1c0-.1-.1.2-.1.1v.2-.1.3c-.1-.5-.2 0-.2-.4l-.1.1v-.1c-.1-.1 0 .4-.1.3v-.2c0-.5-.1.1-.1-.2 0-.2-.1.2-.1.1v-.1c0 .2-.1.3-.2.4v-.3.4c0-.1 0-.2-.1-.4 0-.3-.1 0-.1 0v-.1c-.1 0-.1.3-.1.3v.1c0 .3 0-.2-.1.1v-.3c0 .1-.1.3-.1.3 0-.2.1-.3.1-.5 0 0-.1 0-.1.2v-.1c0 .2-.1.3-.1.3 0-.6-.1-.1-.2-.6-.1.2-.2-.1-.3-.1v.5l-.1-.3v-.2c-.1 0 0-.2-.1-.3v.4c-.1.2-.1-.4-.1-.1v-.1c0 .1-.1 0-.2.4v-.2c-.1-.1-.2.4-.3.2V75s0 .2-.1.1V75s0 .2-.1.1V75c-.1-.1-.1.3-.2.4 0-.3-.1-.4-.1-.5-.1 0-.2.3-.3.4-.1-.4-.2-.2-.3-.4v.3c0-.1-.1.2-.1-.1 0-.3-.1-.2-.1-.2v.4c-.1-.6-.2.2-.3-.3 0 .1-.1.1-.1.2V75c-.1-.1-.1-.1-.2 0v-.2l-.1.6v-.3c-.1 0-.2-.3-.2 0v-.2s-.1-.2-.1.2c0-.3-.1 0-.1.1V75c0 .3 0 .3-.1.4v-.1c0-.1 0 .2-.1.1v-.1s0 .1-.1.2c0 .1-.1-.1-.1-.2v.2-.1c-.1-.1-.1.2-.1 0v-.1h.1v-.5c0 .1-.1.5-.1.4V75c0-.2 0-.1-.1-.1v.4h.1c0 .1 0 .2-.1.1v.3c0-.3-.1-.5-.1-.6-.1.1-.2.1-.2.5v-.3c0 .1-.1 0-.1.3v-.3c-.1-.4-.2.7-.3.1v.1c-.2-.3-.3.2-.5-.2 0-.1 0 .1-.1.2v-.2.3c-.1.2-.1-.6-.2-.2v.2s-.1.1-.1-.1v.1-.1l-.2-.5c-.1-.1 0-.5-.1-.5 0 0-.1.3-.1.4v1.3-.2.2c0 .2 0 0 .1-.1v.2-.3.3-.4.4c0-.1.1 0 .1-.2 0 .2.1-.1.1.3 0-.1 0-.3.1-.3 0 .4.1 0 .1.4 0-.4.1-.2.2-.4v.1s0 .1.1.2c0-.3 0-.4.1-.5v.6c0-.2.1-.2.1-.4v.3-.3c0 .2 0 .3.1.2l-.1.2zm1.1-.7zm.1 0c-.1 0-.1 0 0 0v-.2c-.1.1-.1.2 0 .2zm-.2-1.4c0-.1 0 0 0 0v.1-.1z" style="fill:#fff"/><path d="M71.3 74.6s0 .1 0 0c0 .1 0 .1 0 0 .1.1.1.1 0 0 .1 0 0 0 0 0zm8.1.4zm-6.6 1.2zm7-.5zm.2 0c.1.1.1 0 0 0zm.2.1c0-.1 0-.1 0 0zm-2.6.3zm.8-.5s0 .1 0 0c0 .1 0 .1 0 0zm-1.6.7zm1.5-.6c.1 0 .1 0 0 0 .1 0 .1 0 0 0zm2.6.2zm0 0zm0-.1c0 .1 0 .1 0 0zm-.2 0c0 .1 0 .1 0 0zm-.1.1s0 .2.1.1l-.1-.1c.1.1 0-.2 0 0zm-.2-1s0-.1.1-.1c-.2-.3-.1.1-.1.1zm-.2-.1v-.2.2zm-1.2 0v-.2.2zm-.3 1 .1.1v-.2zm-.1-1.4v.1zm-2 .1v.2-.2zm-.9.2c0-.1-.1-.2 0 0-.1 0 0 .1 0 0zm-2.7-.4z" style="fill:#fff"/></g><g style="opacity:.65"><path d="M54.2 75.9v-.2.2zm-.1-.5v.6-.4.2-.1c0-.2 0-.2-.1 0 .1-.2.1-.3.1-.3zm-1.7-.4zm-1-.1s0-.1 0 0c0-.1 0 0 0 0zm-.2-.3zm1.2.4zm1.4 1s.1 0 0 0c.1-.1 0-.1 0 0zm-.9-1.2v-.1.1zm.3 0v.3-.3zm.6.3zm-1.2-.3c0-.1 0-.1 0 0 0-.1 0-.1 0 0zm-9.7 1.5zm-.4-1v-.1.1zm8.4-1zm-2.9.2c0 .2-.1.2 0 .5-.1-.1 0-.4 0-.5zm5.8 1.5zm-5.9-1.1c.1 0 .1 0 0 0zm2.3-.4zm.5.3c0-.1 0 0 0 0zm-.8 0c0-.1 0-.1 0 0 0-.1 0 0 0 0 0-.1 0-.1 0 0zm-.3 0zm-5.8 1.4V76v.2zm10-.3s0 .1 0 0c0 .1 0 .1 0 0zm-3.9.5c-.1 0-.1 0 0 0zm-3.9-.2c-.1 0-.1 0 0 0zm3.7.2v-.1c-.1 0-.1 0 0 .1zm-5.9-.3z" style="fill:#fff"/><path d="M43.5 76.6v-.4c.1-.2.1.1 0 .4.1-.2.1-.4.2-.4v.1c0-.2.1 0 .1-.3v.1-.4s0-.2 0 0v.1-.1.3c0-.1.1-.3.1-.2 0 .3-.1.1 0 .3V76v.4c.1.1.1-.1.1-.1v-.4c.1-.3.1.6.1.3 0-.2 0-.5.1-.3v.3c.1 0 0-.4.1-.2v.1c0 .2 0-.2.1-.2v.3c.1 0 .1-.2.2-.3v.2c.1-.1.2 0 .3.2v-.2.1-.2.2c.1-.2.2-.4.2-.2v.1c.1.1.1-.5.1-.2.1.1.2-.1.3.2 0-.3.1.1.1-.3.1.2 0 .3.1.4 0 0 0-.3.1-.3v.2-.2.3-.3c0-.1.1.2.1.3l.1-.2v.2c.1-.2 0 .2.1 0V76c0 .1.1.1.1.1v.2c.1 0 .2-.1.2-.1v-.4.2-.3.4-.1.2c0-.2.1.2.1 0v.1c.1 0 .1-.1.2-.1v-.3c.1.1.1.2.2.2v-.3c0 .2.1.2 0 .3.1 0 .1 0 .2-.2v-.2.2c.1-.3.2.6.3.2l.1-.2v.3c.1-.3.1 0 .2-.2.1.6.2 0 .3.3v-.1.1-.2c.2-.2.4.2.5.3.1 0 0-.7.1-.4v.2c.1-.3.3 0 .4-.2v.1c0 .2.1 0 .1-.1v.2c0 .1.1-.2.1-.1v.1c0-.1.1 0 .1-.2 0 .1.1-.1.1 0 0-.2.1.1.1-.2 0 .3.1.3.1.1v.2s.1-.1.1-.2c.1.4.1-.3.2.2.1-.2.2-.3.3-.4 0 .3-.1 0-.1.4.1-.1.1-.4.2-.3v.2c.1-.1.2 0 .2-.2v.1-.1c0-.2.1-.5.1-.6 0 .4.1.1 0 .7v-.2.2c.1-.1 0-.2.1-.2v.2c0-.1.1-.3.1-.2v.1c.1 0 .1-.4.2-.2v.4-.2s.1-.2.1-.1v.1l.1-.1v-.4l.1.2c0-.1 0-.2.1-.1v.4c0-.2.1-.1.1-.3v.2-.2.2c.1 0 0-.4 0-.2v.1c.1.1.1-.1.2 0v.3c.1-.1.2-.3.3-.3 0-.4.1.2.1 0v.2c.1.1.1-.1.2-.2v.1c0 .1.1.1.1.1v-.2c.1.6.2-.3.3.2v.1l.1-.1v-.2c0-.1 0-.2.1-.2v.4-.2c0 .3 0-.3.1-.1v.1s0-.2.1-.1v.3s.1-.4.1-.2v.1c0 .2 0 .2.1.2l.1.1v-.1c0-.5.1-.1.1-.4-.1.3 0 .2 0 .4v.2c0-.2 0 .1.1-.1v.2-.2c.1-.2.1.3.2 0 .1-.1.1-.4.1-.5v.3c0 .1.1.1.1 0v.2-.2.3c0-.1.1-.2.1-.3v.3c0-.1.1-.1.1-.3v-.1.2-.1c0-.4-.1.1-.1 0v-.3.3-.3c0-.2 0 .1-.1-.1v-.1.1-.2c-.1-.2-.1.2-.1 0-.1.1 0 .2-.1.5v-.6.2-.1.2c0-.2-.1.1-.1-.3v.3c0-.4 0 .1-.1-.1V75c0 .3-.1-.1-.1 0 0 .3-.1.1-.1.2 0-.1-.1-.1-.1-.2 0 .3-.1.2-.1.3V75v.2-.2s-.1.2-.1.1v.7-.3s0 .1 0 0v-.2.1-.2s0 .1 0 0c0 0 0-.1-.1-.2v.2-.3.2-.2c0 .1-.1 0-.1.3-.1.2-.1-.1-.2 0v-.1c0 .1-.1.1-.1.2v-.2c0 .1 0 .1-.1 0V75c0-.1-.1-.2-.1 0 0-.2 0-.2-.1-.2v.1h-.1v-.2c-.1-.3-.2.5-.2 0v.3l-.1-.4c-.1-.1-.1.4-.1.3v.4-.4.1-.2.1c0-.1-.1-.1-.1-.2v.2c-.1-.1-.1 0-.1-.1v.2c-.1-.1 0 .2-.1.2v-.5c0 .2-.1-.1-.1-.1v-.1.2-.1.5c0-.1-.1.1-.1-.1.1.1 0-.2 0-.3v-.1c-.1-.2 0 .3-.1.3v-.2.3c0-.1 0 .1-.1.1 0 .1 0 .1-.1.2v-.1c0 .2-.1-.2-.1-.1v-.3c0 .2-.1-.2-.1 0v.3l.1-.1-.1.3.1-.1v.2c0-.3-.1.2-.1 0V75c-.1-.2-.1.2-.2.1v.1c0 .2 0 0-.1.1V75c0 .1-.1 0-.1.3v-.2c-.4-.5-.4 0-.5-.1v-.4.1c0-.1-.1.2-.1.1v.2-.1.3c-.1-.5-.2 0-.2-.4l-.1.1v-.1c-.1-.1 0 .4-.1.3v-.2c0-.5-.1.1-.1-.2 0-.2-.1.2-.1.1v-.1c0 .2-.1.3-.2.4v-.3.4c0-.1 0-.2-.1-.4 0-.3-.1 0-.1 0v-.1c-.1 0-.1.3-.1.3v.1c0 .3 0-.2-.1.1v-.3c0 .1-.1.3-.1.3 0-.2.1-.3.1-.5 0 0-.1 0-.1.2v-.1c0 .2-.1.3-.1.3 0-.6-.1-.1-.2-.6-.1.2-.2-.1-.3-.1v.5l-.1-.3v-.2c-.1 0 0-.2-.1-.3v.4c-.1.2-.1-.4-.1-.1v-.1c0 .1-.1 0-.2.4v-.2c-.1-.1-.2.4-.3.2v-.1s0 .2-.1.1v-.1s0 .2-.1.1v-.1c-.1-.1-.1.3-.2.4 0-.3-.1-.4-.1-.5-.1 0-.2.3-.3.4-.1-.4-.2-.2-.3-.4v.3c0-.1-.1.2-.1-.1 0-.3-.1-.2-.1-.2v.4c-.1-.6-.2.2-.3-.3 0 .1-.1.1-.1.2v-.2c-.1-.1-.1-.1-.2 0v-.2l-.1.6v-.3c-.1 0-.2-.3-.2 0v-.2s-.1-.2-.1.2c0-.3-.1 0-.1.1v-.2c0 .3 0 .3-.1.4v-.1c0-.1 0 .2-.1.1v-.1s0 .1-.1.2c0 .1-.1-.1-.1-.2v.2-.1c-.1-.1-.1.2-.1 0v-.1h.1v-.5c0 .1-.1.5-.1.4v-.2c0-.2 0-.1-.1-.1v.4h.1c0 .1 0 .2-.1.1v.3c0-.3-.1-.5-.1-.6-.1.1-.2.1-.2.5v-.3c0 .1-.1 0-.1.3v-.3c-.1-.4-.2.7-.3.1v.1c-.2-.3-.3.2-.5-.2 0-.1 0 .1-.1.2v-.2.3c-.1.2-.1-.6-.2-.2v.2s-.1.1-.1-.1v.1-.1l-.1.2c-.1-.1 0-.5-.1-.5 0 0-.1.3-.1.4v1.3-.2.2c0 .2 0 0 .1-.1v.2-.3.3-.4.4c0-.1.1 0 .1-.2 0 .2.1-.1.1.3 0-.1 0-.3.1-.3 0 .4.1 0 .1.4 0-.4.1-.2.2-.4v.1s0 .1.1.2c0-.3 0-.4.1-.5v.6c0-.2.1-.2.1-.4v.3-.3c0 .2 0 .3.1.2.2-.2.2 0 .2 0zm1-.7zm.1 0v-.2.2zm-.2-1.4c.1-.1.1 0 0 0 .1 0 .1 0 0 0v.1-.1zm0 .2c0 .1 0 .1 0 0 0 .1 0 0 0 0zm8 .3s0 .1 0 0c0 .1 0 .1 0 0zm-6.5 1.3h-.1zm7-.5zm.2 0zm.2.1c0-.1 0-.1 0 0zm-2.6.3zm.8-.5s0 .1 0 0c0 .1 0 .1 0 0zm-1.6.7zm1.5-.6s0-.1 0 0zm2.6.2zm0 0zm0-.1c0 .1 0 .1 0 0zm-.2 0c0 .1 0 .1 0 0z" style="fill:#fff"/><path d="M53.7 75.9s0 .2.1.1l-.1-.1c.1.2 0-.1 0 0zm-.3-.9s0-.1.1-.1c-.1-.3 0 .1-.1.1zm-.1-.1v-.2c-.1.1-.1.1 0 .2zm-1.3 0v-.2.2zm-.2 1v.1-.2zm-.1-1.4h-.1zm-2.1.1v.2s.1-.3 0-.2zm-.9.2c0-.1 0-.2 0 0 0-.1 0 0 0 0zm-2.6-.4v-.1.1z" style="fill:#fff"/></g><g style="opacity:.37"><defs><path id="SVGID_1_" d="M40.5 92.4c1-.9 1.4-.1 1.7.2.3.3 1.4 2.7 1.4 2.7s-.1-7.7.5-8.2c.6-.5 1.9-.6 1.9.1s-.3 5.7-.3 5.7l.5.2s.2-6.2.7-6.8c.5-.7.8-.9 1.2-.7.5.2.7.7.5 2.1-.2 1.4-.5 5.5-.5 5.5l.7.2s1-5.3 1.2-5.6.6-.6.9-.5c.3.1 1 .4.3 2.9-.6 2.5-.6 3.3-.6 3.3l.3.2s1.1-4.4 1.9-4.7c.8-.3 1.5 0 1.3.7-.2.7-1.6 4.3-1.6 4.3s-.4 4.1-.4 4.6.1 2.9-1 3.5-4.1 1-5.2.5c-1.1-.5-2-.8-2.4-1.8s-1.6-3.9-2-4.6-1.8-3.1-1-3.8z" style="opacity:.37"/></defs><clipPath id="SVGID_2_"><use xlink:href="#SVGID_1_" style="overflow:visible"/></clipPath><g style="clip-path:url(#SVGID_2_)"><path d="M46 103.2c0 .1 0 .2 0 0 0 0 .1-.1.2-.1h1-.9s-.2-.1-.3.1zm5.2-.2c.4 0 .7-.1 1-.1v.1c-.5 0-.7-.1-.3 0h.3v-.1c-.6.1-.9.1-1.7.1h-1.2c-.3 0-1.1 0-1.6.1 1 0 2.3 0 3.5-.1.4 0 .1 0 0 0zm-8.4-10.8h-.5.5zm5.3-6.5c.3 0 .5.1.5.1-.3-.1-.5-.2-.5-.1zm-3.6-.5c-.2 0-.3-.1-.5-.1.2 0 .4 0 .5.1zm-1.7 7 1.2.1c.2-.1-.6-.1-1.2-.1zm.2 9.2c.3.1.5.1.7.2-.2 0-.4-.1-.7-.2.1 0 0 0 0 0zm.9-7.6h-.7.7zm9.2.9c.4 0 .5 0 .6-.1h-.8c0 .1 0 .1.2.1zm-7.5 5.8-.4.1c.1 0 .3 0 .4-.1zm5.6-7h-.1.1zm-6.7 7.9c.1 0 .1 0 0 0zm-1.4-.8c.1.1.1.1.2.1h.1c-.1 0-.2 0-.3-.1zm3.3-15.1c.4 0 .2 0 0 0zm2.1 8.6c1.5-.1-2.4.3-.2.1-.2 0 2.1-.3.2-.1zm-5.9 7c0-.1.1-.2.3-.3.1 0 .2 0 .3-.1-.1 0-.2 0-.4.1-.1.2-.2.2-.2.3zm5.7-6.9h.2-.2zm-3.2-7.4h.3-.3zm5.2.4.6.1c-.2 0-.4 0-.6-.1zm5.9 2.1c.3 0 .4.1.9.1H57c-.2 0-.4 0-.8-.1zm-10.4-.7h.6-.6zm-1.6 10.3c.3.1.5.1.6.1-.2 0 1.8.2-.6-.1zm-1.2 2.5c-.1 0-.2-.1-.4-.2.1.1.2.1.3.2h.1c.1 0 .1 0 0 0z" style="fill:#fff"/><path d="m56.8 89.2.5.1h.2c.1 0 .3 0 .4.2l.1.2h-.2l-1.2-.1c.3 0 .7 0 1.2.1h.2l-.1-.2c0-.1-.2-.2-.3-.2h-.2c-.2-.1-.4-.1-.6-.1zm-19.6 4c.2 0 .3.1.5.1-.2 0-.3-.1-.5-.1zm13-4.1c-.4 0-.8-.1-1.2-.1h-.2l1.4.1zM44.8 99z" style="fill:#fff"/><path d="M44.4 99.9c2 .2 1 0 1.4 0 2.4.2 1.1.1 2 .2 1.5.1 2.7.1 3.9.1h.3l-.1-.1c-.1-.1-.2-.2 0 0v.2-.2.2-.2s-.1 0-.1-.1c-.1 0-.1-.1-.2-.1h-.4c-.2 0-.5-.1-.8-.1-.5-.1-1.1-.2-1.8-.3-1.2-.2-2.4-.3-3.4-.5H45l.3.1c-.9-.1-1.7-.2-2-.3.6.1.6.1.9.1l-1.2-.1c-.8-.2 1.3.2 1.3.2-1.1-.2-2.3-.4-3.4-.5v.1c.8.1 1.5.1 2 .2.3.1-3.4-.2-1.4-.1l-.6-.1v-.2c.3 0 .6.1.8.1l.8.1c-1.7-.3 1.3.2-.2-.1-.6-.1-1-.2-1.4-.2v.3c1.8.1 2.4.2 4.8.3h.4c2.1.1 2.9.1 3.6.1h4c.2 0 .5 0 .8-.1h.1c-.1-.2-.2-.1-.3-.2h-.9.7c-2.8-.2-1.6 0-4.6-.2.5 0 2.2.1 1.8.1-1.9-.1-1.4-.1-2.8-.1l-.3-.1c-2.5-.2-5.1-.3-7.8-.9v.2c.2 0 .5.1.8.1l.9.1c-.2 0-.8-.1 0 0 1.7.1 3.5.3 5.3.3 1.8 0 3.6.1 5.4.1V98c-.8-.1-1.6-.1-2.3-.2-.5 0-1-.1-1.5-.2-.4-.1-.7-.1-.3-.1-1.6-.3-.1 0-.8-.1-.9-.1-1.2-.2-.6-.1-1.2-.2-2.7-.5-4.4-.8-.8-.2-1.7-.3-2.5-.5l-1.2-.3c-.2-.1-.2 0-.3-.1h-.1 1.3-.6c2.3.2 2.6 0 4.7.1h-.4c2.2.1 4.6.1 6.8.2 2.2 0 4.4 0 6.2-.1v-.2c-.4 0-.8 0-1.2-.1-.7 0-4.9-.3-5.2-.3-2.8-.4-2-.3-5.9-.8-1-.1-1.6-.2-2.9-.4l-1.8-.3-.9-.2c-.4-.1-.8-.1-1.2-.2.5.1 1 .2.9.2-.5-.1-1-.2-1.6-.2v.2c.8.3 1.6.4 2.2.5.6.1.9.1 1 .1 1.5.2 3 .2 4.6.3-.1 0-.9 0-1.5-.1 2.4.1.4.1 2.7.2h.2c1.1.1 3.7.2 5.5.3h-.4 1.1v-.3c-3.1-.1-6.5-.1-9.9-.1 1.4 0 1.1.1-.1 0h-.8l-1.7.1h.4-1.9l-.1.1v.3c.1.1.1.1.3.1h.4c.1 0 .2 0 .3.1.4.1.7.1 1 .2h.1c.9.2 1.8.2 2.5.3.7.1 1.4.1 2.1.2 1.3.1 2.5.2 4 .4.1 0 1.3.1 2.2.2.2 0 .3.1.6.1l.7-.1-.7-.1c-1.1-.1-2.2 0-3.4-.2l-3.6-.3c-1.9-.1-.6 0-1.4-.1-.1 0-2.9-.2-1.5-.1-1.7-.1-2.7-.3-3.9-.3h-.3l.2.2c.3.3.6.3.9.4.3.1.6.2 1 .2.7.1 1.5.2 2.6.3-.4-.1-1-.1-.7-.1.8.1 1.7.2 1.6.2h-.2c3.2.3 7 .4 10.3.6v-.3c-1.6-.2-3-.3-4.2-.4h.2c-1.3-.1-2.6-.2-3.8-.3-1.8-.2 1.1.1-.2-.1-.5-.1-1-.1-1.5-.1-.5-.1-.9-.2-1.3-.2-.1 0-.2 0-.3-.1-.1 0-.1 0-.1-.1l.1-.1c.1-.1.2-.1.2-.2.3-.2.7-.3 1.1-.4 1.5-.3 3-.5 4.7-.7.5 0 1.1-.1 1.8-.1.4 0 .7-.1 1.1-.1h1.1c.2 0 .2-.2.3-.2-.1-.1-.2-.2-.4-.3-.1-.1-.2-.1-.3-.1-.2-.1-.4-.2-.5-.2-.4-.1-.7-.3-1.1-.4-.8-.2-1.5-.5-2.3-.6-1.5-.4-3-.7-4.1-1l.2.1c-.9-.2-1.1-.3-1.8-.4.1 0 1 .2.4.1-.3-.1-.7-.1-1-.2l-.2.3c2.2.5 4.4.7 6.7.9 1.1.1 2.3.2 3.4.4l1.7.2.8.1.4.1h.2l.1-.2c-1.6-.1-3.2-.2-4.8-.4-1.6-.2-3.2-.4-4.7-.8-1.4-.3-1.8-.4-2.3-.5-.3-.1-.5-.1-1-.2-.2 0-.5-.1-.8-.2-.1 0-.1 0-.3-.1h-.3c-.2 0-.2-.2-.1-.2-.1 0 0 .1.1.2h.5-.4c-.1 0-.1-.1-.1-.1s.2 0 .3-.1h.4c.6 0 1.2.1 1.8.1 1.2.1 2.4.2 3.7.4 1.2.1 2.4.3 3.7.4.6.1 1.2.1 1.8.2.3 0 .6 0 .9.1.3 0 .6.1 1 0l.4-.1-.4-.1c-.5-.1-1.1-.3-1.6-.4-.5-.1-1.1-.2-1.6-.3.3.1.4.1.9.2-1.2-.2-4.3-.8-4.5-.9-.9-.2-.2-.1-.7-.2-1.2-.3-3-.6-3.7-.8-.1 0 .3.1.6.1-.3-.1-1.1-.2-1.7-.4v.3c.9.1 1.7.2 1.2.2 2.2.3 4.2.4 5.9.5 1.1 0 3.7.3 4.1.2-.1 0 2.9.3 4.6.3h.2l-.1-.2c-.1-.2-.3-.2-.4-.1h-.2c.5 0-1.2-.2-.6-.1-1.6-.2-3-.4-2.7-.3-2.9-.4-5.7-1-7.3-1.3-.7-.1-1.8-.4-1.7-.4h.2c.2 0 .5 0 .7.1.5.1.9.1 1.4.2l2.7.3c1.8.2 3.5.4 5.3.7-.2 0-4.6-.6-4.4-.5 1.8.2 3.3.4 4.7.6.7.1 1.4.2 2.2.3.8.1 1.6.1 2.4.4v-.2h-.8c-.9-.1.4.1.8 0v.2H60h.1v-.2c-.9.1-1.9-.2-2.9-.3-.9-.2-1.9-.3-2.8-.5-.9-.1-1.8-.4-2.7-.6-.9-.2-1.7-.4-2.6-.6 0 0 .4.1.7.2-.7-.2-1.6-.4-1.5-.3l.7.2c.5.1-.1 0-1-.2-.8-.1-1.8-.5-1.8-.5l-.9-.3c-.2-.1-.4-.1-.5-.2 0 0 .1 0 .4.1-.1 0-.3-.1-.1-.1 0 0 .1 0 0 0 .4 0 .4.1.2 0 .4 0 .7.1.9.1.3 0 .5.1.7.1.4 0 .7.1 1.8.2H48c1.1.1 2.3.3 4.2.6-.1 0 .1 0-.5-.1.3 0 .6.1.9.1l.1-.1c-.7-.2-1.4-.3-2-.4-.6-.1-1.3-.2-1.9-.3-1.3-.2-2.6-.4-4.3-.7 1.1.1-1.2-.2-1.4-.3h-.7v.1c0 .1.2.3.3.3h.4l.7.1-.8-.2c1.7.4 3.2.5 4.6.7l-1.3-.1c1.1.1 2.1.2 3.2.4l-1.8-.3c1.7.2-.2-.1 2.1.2-.5 0 1.7.2 2.5.5.1 0 .1.1.1.2-.2.2-.7.3-1.1.3-.4 0-.9.1-1.5.1-.3 0 .3-.1 0-.1-.4 0-1.4.1-2.4.2-1 0-2 .1-2.6.1h.3l-.7.1h-.8c-2.4.1.8 0-2.1.1h.6c-.7 0-1.4.1-2.1.1-.3 0-.7 0-1 .1l-.5.1c-.2 0-.4 0-.5.2-.1.1-.2.1-.1.2 0 .1.1.2.1.2.1.1.2.3.4.4.3.2.6.3.9.4.6.3 1.2.5 1.8.7.4.1-.2 0-.7-.2-.5-.2-1-.4-.6-.2.9.4 1.8.7 2.7 1 .9.2 1.9.5 2.8.7 1.9.4 3.7 1 5.5 1.3l-.7-.1c.2 0 .7.1 1.3.3.6.1 1.4.4 2.2.4h.5l-.5-.1c-.3-.1-.6-.1-.9-.2.4.1.6.1.5 0-1.2-.2-2.5-.2-3.9-.3-1.4-.1-3-.1-4.9-.2h.5c-.7 0-1.6-.1-2.6-.1h-.4l.4.1c1 .3 2 .5 2.8.6.5.1 1.4.2.8.1 1 .2 1.9.3 2.9.4.4 0 .8.1 1.2.1.4 0 .7.1 1 .1.3 0 .7.1 1 .1h-5.5.8c-1.2 0-2.4-.1-3.7-.1.3 0 .5 0 1.3.1-.5 0-1.5 0-2.4-.1h-.2v.1c.2 0 .4 0 .5.1h.1c1.9.2.3 0 2.9.3h-.1c1 .1 1.9.1 2.9.2.4.1-1-.1-1.1-.1.7.1 1.5.1 2.2.2.7 0 1.4.1 2.1.1-.6 0-1.5-.1-2.2-.1 1.5.1 1.6.1 2.7.2h-.1l2.5.1h-.6.7v-.1c-1.7.1-3.4.1-5.6.2 2.4-.1.4 0 .6-.1h-1.3c-1.2.1-2 0-3.6.1-.1 0-1.3.1-1 0-1.5.1.4 0 .2 0-.7.1-1.5.1-2.4.3-.2.1-.4 0-.7.1-.1 0-.2.1-.3.1l-.1.1s-.1 0-.2.1c-.2.1-.3.4-.2.7.1.2.3.4.4.6.5.4.9.8 1.5 1.2.5.3 1.1.6 1.8.9 2.1.8 3 1 4.3 1.4-.5.1-1 .2-1.7.3-.9.1.7-.2.7-.2-1.5.2-2.6.4-4 .6h.1c-.1 0-.3 0-.5.2.3.3.5.3.6.3.1 0 .2.1.4.1s.5.1 1.2.3c-.3 0-.6-.1-1.1-.2 1.3.3 2.6.5 3.9.7.4.1-.8-.1-1.3-.2.8.2 1.7.3 2.6.4.9.1 1.6.2 1.8.2l-1-.1c.6.1.3.1-.1 0-1.3-.2-1.9-.3-2-.3l1 .1c-.5-.1-1.5-.2-2.5-.5-.5-.1-1.1-.2-1.7-.3-.6-.1-1.1-.2-1.6-.4.3.1.5.2.8.2-.4-.1-.7-.2-1.1-.4.1-.1.3-.2.4-.2l.4-.1c.4-.1.7-.1-.2.1 1.4-.2 1.2-.2 2.4-.4.1 0 .1 0 0 0l1.4-.2c-.3.1.2 0-.6.1.6-.1 1.1-.2 1.5-.2h.2-.1c-1.5-.5-2.5-.8-3.2-1.1l.2.1c-.8-.3-1.2-.4-1.4-.5l-.2-.1s.1.1-1-.5c-.5-.3-.9-.7-1.4-1.1l-.3-.2-.1-.1c-.4-1-.7-1.4-.6-1.4-.1-.3 0-.4.1-.5 0 .1-.1.3 0-.1.1-.1.2-.1.3-.2.1-.1.2-.1.3-.2.2-.1.5-.1.8-.1.5-.1 1.1-.2 1.6-.2 1-.1 1.8-.1 2-.1.6-.1-1.6.1.2 0h3.7-.4c.9-.1 3 0 4.3-.1 0 0 .8 0 1.8-.1v-.1c-1 0-2.2-.1-3.2-.2.1 0-1 0-2.3-.1-1.3-.1-2.9-.2-3.9-.3h.1c-.3 0-1.7-.1-3.1-.3v.1h1-1v-.1h.2-.2v.1h2.9-.4c1 0 1.9.1 3 0h3.8-1 1.2-.3 1.2-.8 1.1-.1s-.5-.1-.3-.1c.1 0 .2 0 .4.1h.1-.3.3l-.3-.1c-.2 0-.4-.1-.5-.1-.4-.1-.7-.1-.9-.1.1 0-.2 0-1.1-.1-.5-.1-.8-.1-1-.1h-.3c-.1 0 0 0-.6-.1-.5 0-1.7-.2-1.7-.2-.6-.1-.7-.1-.9-.1-.7-.1-2.8-.5-3.4-.7v.1c.3 0 .3 0 0 0v-.1l.2.1h-.3v.1c3.2 0 6.7.2 10 .5.5 0 .9.1 1.4.2v-.1c-.7-.1-1.5-.3-2.2-.4-.7-.2-1.4-.3-1.9-.4-.6-.1-1.3-.3-1.1-.3-1.4-.4-1.6-.4-3.7-.9 1.4.3-.5-.1 1.5.4-1.9-.5-2.3-.6-4.3-1.1.7.2-1.4-.5-2.2-.9.4.2.8.4 1.2.5-1-.4-1.8-.7-2.6-1.1.1.1.3.1.4.2-.2-.1-.4-.2-.6-.4-.1-.1-.1-.2-.2-.3 0-.1-.1-.1 0-.1.1-.1.4-.1.6-.1.2 0 .5-.1.7-.1.9-.1 1.7-.1 2.6-.2 1.7-.1 3.2-.2 4.7-.2 1-.1-2.1.1-1.2 0 1.8 0 3.7-.1 4.3-.2 1.5-.2 1.9.1 2.8-.5-.2-.4-.5-.4-.9-.5-.3-.1-.7-.1-1.3-.2.3.1.6.1-1.3-.1-1.8-.3-2.2-.3-1.1-.2.4 0 .6.1.6.1.6.1 1.3.2.6.1H49c-.9-.2-3.4-.4-2.8-.4-1.4-.1-.6 0 .4.1-.9-.1-1.6-.2-2.3-.3-.3-.1-.7-.1-1-.2-.2 0-.3-.1-.5-.1-.3 0-.3 0-.4-.1l-.1.1c.5 0 1 .1 1.6.2-.4-.1-.7-.1-.3-.1 3.5.6 1.5.2 3.9.6 1.3.2-.5 0 1.9.3 1.4.2.3.1-.3 0l1.8.3c.3 0 .6.1.8.2.1 0 .3.1.4.1h.3l.1-.2c-.7-.1-1.3-.2-1.8-.3l1.1.2c-.7-.1-1.2-.2-1.8-.3l.6.1h-.7c-.2 0-.4-.1-.4-.1-.7-.1.5.1-.8-.1-.9-.1-2.7-.3-3-.4 2.8.4-.3-.1 2.1.2-.5-.1-1-.1-1.7-.2h.3c-.3 0-.6-.1-.8-.1h-1.5l-.1.1h-.1c.1 0 .1.1.2.1 0 0 .4.1.7.3l.9.3c-.3-.1.6.2 1 .4-1.1-.4-.5-.2.5.1 1.8.4 1.9.4 2.8.7l-1-.3c.4.1 1.2.3 2.5.6.1 0-1.1-.3-.7-.1.7.2 1.4.3 2.3.5.8.2 1.7.3 2.7.5.9.2.1 0 .9.2 1.6.2 2.1.5 3.2.4l.7-.1-.7-.2c-.4-.1-.8-.2-1.4-.3.7.1.8.1-.8-.1.8.1 1.5.1 2.3.3l.5.1-.4.2c-.5.1-1 0-1.5-.1.5.1 1 .1 1.5.1l.4-.1-.4-.1c-.3-.1-.6-.1-.9-.2.3 0 .6.1.9.2l.3.1H60c-.9.1-1.7-.1-2.1-.2 1.1.2 1 .2.5.1.5.1 1.1.2 1.6.1h.3l-.3-.1c-1-.3-2-.3-3.2-.5l.1-.1c-2.7-.3-4.8-.6-8.2-1l1.1.2c-.5 0-2.1-.3-3.3-.4.1 0-.6-.1-1.1-.2h-.8c-.2 0-.4 0-.6.1.4.3 1 .5 1.3.5.3.1.6.1.7.1l1.5.3c2.8.6 3.2.6 5.9 1-.8-.1.4.1-1.4-.1.4.1.9.1 1.2.2.3 0 .5.1.5.1.5.1 2.5.3 3.3.5h.3c.2 0 .3-.1.3 0l.1-.1H57c-.1 0 0 0 0 0s-1.6-.1-.7 0c-2.8-.3-7.8-.5-10.2-.7-1.3-.1-2.8-.3-4.1-.5v.1c.8.2 1.4.3 2 .5-.1 0 0 0-.3-.1 2.4.6 1.5.3 4.3.9 1.4.3-1.5-.3-.6-.1.4.2 3.3.7 5.2 1.1l-.6-.2c.3.1.7.1 1.1.2l1.2.3v-.2c-.5.1-1.1-.1-1.6-.1-.6-.1-1.2-.1-1.9-.2 0 0 .1 0 0 0-1.6-.1-4.7-.5-6.9-.7.7 0 1 .1.6 0-1-.1.3.1-1.7-.1-.3 0-.9-.1-1.3-.1-.2 0-.4 0-.7.1-.2 0-.1.2-.1.2 0 .1 0 .1.1.2-.1-.1-.1-.2-.1-.3 0-.1.2-.1.3-.1.2 0 .3-.1.5-.1h1c-.2 0-.5-.1-.8 0-.2 0-.3 0-.5.1h-.4c-.1 0 0 .1 0 .2 0 .3.2.4.4.4h.2s.1 0 .2.1c.3.1.6.2.8.2h-.1c1.4.3 2.2.5 2.9.7.8.2 1.5.4 3.1.6l-.3-.1c1.7.2 1.4.2 3.2.4l.5.1c.7.1 2.1.2 3.6.3h.4l-.7.2c-.8-.2-1.7-.3-2.4-.4.6.1 1.5.1 2.4.4l.5.1h-.6c-.9-.1-1.9-.1-2.6-.2.6 0 1.7.1 2.6.2h.1l-.1-.1c-.1-.2-.3-.1-.3-.1h-.3c-.2 0-.4-.1-.5-.1-.3 0-.6-.1-.7-.1.5.1 1 .1 1.5.2-1.4-.2-3.2-.5-5.4-.7.4 0-5.9-.6-7.4-1-.1 0-.1 0-.1-.1l-.1.2c1.7.3 3.4.8 5.2 1.2.9.2 1.8.4 2.7.7.5.1.9.3 1.4.5.2.1.5.2.7.3.2.1.5.3.5.3h-.9c1.7-.1-1.4.1-1.1.1-1.1.1-1.5.1-1.6.1-1.1.1-2.2.2-3.3.4-.8.1 1-.2.9-.2-2.4.4-1 .1-2.5.4.2 0 0 0-.5.1-.2.1-.5.2-.7.3-.1 0-.1.1-.2.1l-.1.1-.1.1c0 .1-.1.1-.1.2l.2.1c.1.1.2.1.3.1-.1 0-.1 0-.3-.1-.1-.1-.3-.2-.1-.3 0-.1.1-.1.1-.1l.1-.1c.1-.1.1-.1.2-.1.3-.2.6-.3.9-.3-.4.1-.8.2-1 .4-.1 0-.1.1-.2.1l-.2.2c.1.1.2.1.3.2.1 0 .1.1.2.1.5.1.8.1 1.2.2.7.1 1.4.2 3.1.4l-1.1-.1c.8.1 2.4.3 3.9.4 1.5.1 3.1.2 3.9.3v-.2h-.1c-.3 0-.7-.1 0 0-4.1-.3-9.1-.3-12.3-.8h.3c-.8-.1-1.4-.1-2.3-.4 0 0 .3.1 0 0-.1 0-.2-.1-.4-.1-.2-.1-.4-.1-.6-.3v.2c.1 0 .3.1.4 0h.5c.3 0 .7.1.9.1H39c4 .4 6.1.4 9.5.7h.3c.2 0 .4 0 .7.1.6 0 1.4 0 2.2.1v-.3c-.2 0-.5-.1-.7-.1-.3 0-.5 0-.7-.1h.1c-2.3-.2-4.3-.4-6.2-.5-1-.1-1.9-.1-2.9-.3l-1.5-.3c-.2 0-.5-.1-.7-.1h-.2c-.1 0-.1-.1 0-.1h5.8c2.5 0 5.1 0 7.3.1h-.2.7v-.2h-.3c-1 0-2.8-.1-2.6-.1h.4c-.8-.1-2.8-.2-4.4-.3h-.3c-2.3-.2-5.4-.3-8-.9v.2c.1 0 .2 0 .4.1l.4.1c.3 0 .5.1.8.1.5.1 1 .2 1.4.3.9.2 1.6.3 2.2.4 1 .2 2.3.3 3.3.4h-.1c1.4.2 2.5.3 3.6.5.6.1 1.2.1 1.8.2.7 0 1.4.1 2.3.1h-.7c2 .1 2.5.1 4.3.1v-.1h-5.7c-1.7 0-3.4-.1-5.1-.1h.7c-1.6 0-6.3-.2-5.7-.1h-.7c-.5 0-.9-.1-2 0v.1s0 .1.1.1c.1.1.1.1.3.1.5.1.7.1 1 .2.5.1 1 .2 1.4.3H41c1.5.3 1.6.3 3.8.7.5.1.4.1-.2 0 1.7.4 1.3.2 3.4.6l-.8-.1c1.8.3 1.6.3 2.6.4.9.1 2.7.3 3.4.4v-.1h-2.5.4c-3-.1-4.4 0-6.5-.2h-.3c1.2.1 2.2.2 3 .2h1.1s-1.9-.1-.4-.1c-.8 0-1.8 0-2.9-.1-1.1-.1-2.2-.1-3.1-.2h-.2.2c-.4 0-.8-.2-1.2-.2h-.1l-.7-.2.4.1c.6.1.9.2 1.5.3.2.1 2.2.3 3.1.4-.1 0 1.2.1 0 0 .2 0-.2 0-.8-.1h-.4.1c-.6-.1-1.4-.2-2.4-.3.7.1 1.5.2 2.6.4.5 0 1 .1 1.3.1 1.3.2 3.8.3 4.2.4.8.1 1.6.1 2.5.1.8 0 1.8 0 2.5.1v-.1c-.3.1-.7.1-1 .1h-3.9H51h-3.1c-1.1 0-2-.1-2.2-.1-2.1-.1 1.2 0-1.7-.1h.4c-1.2-.1-2.3-.2-3.3-.2v.2c1.7.3 3.4.6 5.1.8 1.7.2 3.6.4 5.6.9v-.1c-.2.1-.4 0-.6 0h-.6c.4 0 .7 0 .7.1-.8-.1-1.7-.1-2.5-.1-.8-.1-1.7-.1-2.5-.2-1.7-.1-3.5-.2-5-.8v.1c1.5.3 3.1.7 4.7.9 1.6.2 3.2.4 4.7.5v-.1c-.6.1-1.3.1-1.9.1h-3.4l-.4-.1c-.7 0-1.4-.1-2.1-.2-.5-.1-1.1-.1-1.6-.2h-.2l.2.1c.3.1.5.2.8.4l.8.3c.5.2 1 .4 1.6.6 1.1.4 2.3.7 3.8 1l-.5-.1c1.3.3 4.2.6 4 .6.1 0 .4 0 1 .1h.3v-.1l-3-.6c-2.5-.6.4 0-3.2-.8-.7-.2-1.6-.4-2.3-.6-.4-.1-.7-.2-.8-.3-.1-.1-.2-.1-.1-.1.2.2.6.3.8.4.3.1.5.2.5.2-.4-.1-.8-.2-1.2-.4-.1 0-.4-.2-.3-.1 0 0 .2.2.5.3.3.1.8.3 1.6.5.7.2 1.4.3 2.1.5l.7.2-1.8-.4c1 .3 1.6.4 2.4.5.2 0 .5.1.9.2l2.1.4c.2.1-.9-.2.5.1 1 .2-.9-.2.7.1v-.1c-1-.2-.7-.1-1.9-.3h.6c-1.1-.1-2.8-.4-3.4-.5-1.1-.2-3.6-.9-3.4-.9l-2.7-.9c.8.2.1.1-.7-.4l-.1.2c1.1.2 2.7.3 2.4.3 1.3.1 4.7.2 7 0v-.2h-.2.2v.2h-.4.4v-.2c-1.1-.1-1.4-.1-2.2-.2-.2 0-2.3-.2-3.4-.4-1.6-.3 1 .1.5 0 .1.1-2.8-.5-2.3-.4-1.2-.3-1.1-.2-1.7-.4h-.4l-1-.1.4.3c.2.1.5.2.8.3.3 0 .7.1 1 .1 1.8.3.5.2 2.5.3.9 0-.8-.1-.8-.1zm-2.2-2.2c-.4-.1-.8-.1-1-.1.2 0 .5 0 1 .1zm4 .3c-.5 0-1.1-.1-1.7-.1h.4c-.3-.1.7 0 1.3.1zm-3.2-.1c-.6-.1-.8-.1-.9-.1.3 0 .6.1 1.1.2h.1c-.1 0-.2-.1-.3-.1zm1.2.1h.3-.6.3z" style="fill:#fff"/><path d="M42.3 92.2c0-.1 0-.1 0 0 0-.1-.1-.1 0 0-.1 0-.1 0 0 0zm-.7 1.8h.4zm1.2-.3h.3c-.1.1-.2.1-.3 0zm9.5.8 1.3.1c-.6-.1-1-.1-1.3-.1zm-2.5.1h-.1.1zm.1-7.7c.1 0 .2 0 .3.1.6.1.1 0-.3-.1zm2.3-.4c-.1-.1-.3-.1-.5-.1s-.4-.1-.6-.1c.3.1.6.1.8.2.2-.1.3 0 .3 0zm4.4 2.6h.2-.2zM49.5 86c.6.1 1.1.2 1.6.2-.5-.1-1.1-.1-1.6-.2zm0 16.7.3.1-.3-.1zm.4 0 .4.1c-.2-.1-.4-.1-.4-.1zm1.2.2-.8-.1c.2 0 .6 0 .8.1zm-5.9-2.4h.1-.1zm2.5-.4c.1 0 .1.1.2.1v-.1c-.7.1-1.6.2-2.4.4h-.1c.4-.1 1.8-.3 2.5-.4v.1c-.1-.1-.2-.1-.2-.1zM43 94.9c-.4 0-.8.1-1.2.1-.4.1-.8 0-1.2.2.2-.1.4-.1.5-.1.1 0-.1 0-.6.2.3-.2.6-.2.8-.2.2 0 .3-.1.4-.1.1 0 .1 0 0 0-.2.1-.3.1 1.3-.1zm7.7-.2c-1.4 0 0 0 0 0 .7 0 .9 0 0 0zm-2.9-3.2h.1c-.9-.2.1 0-.1 0zm-9.9-3.4c.1.3.4.6.7.7.1 0 .3.1.4.2-.2-.1-.4-.2-.7-.3-.1-.2-.3-.4-.4-.6zm6-.7-.4.1 1.7-.1zm4.3 1.4.3.1c.7 0 .9-.1-.3-.1zm-.5 3.2c.4.1 1.5.3 2.2.3-.9-.1-1.8-.3-2.2-.3zm-4.6 2h.9l-1.6-.1z" style="fill:#fff"/></g></g><g style="opacity:.37"><defs><path id="SVGID_3_" d="M77.3 83.5c-1.2 0-1 .8-1 1.2 0 .4.7 2.6.7 2.6s-4.5-5-5.2-5c-.7 0-1.6.7-1.2 1.2s3.5 3.5 3.5 3.5l-.1.4s-3.7-3.9-4.5-4-1-.2-1.2.3c-.2.4 0 .9.9 1.6.9.8 3.5 3.2 3.5 3.2l-.3.5s-3.8-2.9-4.1-2.9-.7 0-.9.2c-.1.3-.4.8 1.5 2s2.3 1.8 2.3 1.8l-.1.3s-3.3-2.2-4-1.9c-.7.3-1 .9-.4 1.2.5.3 3.6 1.8 3.6 1.8s2.7 2.4 3 2.7c.3.3 1.7 1.9 2.7 1.7s3.2-1.7 3.6-2.7c.4-1 .8-1.7.5-2.6-.3-.9-1.3-3.4-1.4-4.1-.1-.6-.4-3-1.4-3z" style="opacity:.37"/></defs><clipPath id="SVGID_4_"><use xlink:href="#SVGID_3_" style="overflow:visible"/></clipPath><g style="clip-path:url(#SVGID_4_)"><path d="M80 93.8c.1.1.2.1 0 0-.2.1-.3.2-.4.3l-.3.3.4-.4c.1 0 .3-.2.3-.2zm-3.4 2.9c-.2.2-.5.4-.7.6l-.2.2.2-.2c.2-.3.4-.5.1-.3-.1.1-.1.2-.2.2l-.4.5.5-.4c.4-.4.6-.5 1.2-1 .5-.4.9-.8.8-.7.2-.2.8-.7 1.1-.9-.7.6-1.5 1.3-2.4 2-.2.2 0 0 0 0zm-1-12 .3-.3c0 .1-.1.2-.3.3zm-7.1-1c-.2.2-.3.3-.3.4.2-.2.3-.4.3-.4zm1.8-2.6.3-.3-.3.3zm5.3 3.6c-.3.2-.5.5-.8.7 0 .1.4-.4.8-.7zm5.2 6.1c-.1.2-.2.4-.3.5.1-.2.2-.4.3-.5zm-5-4.5.3-.2.2-.3zm-5.4 5.9-.4.4.5-.5c.1.1 0 .1-.1.1zm8.4-.5.3-.2c-.1.1-.2.2-.3.2zM71.7 90c0-.1.1-.1 0 0 .1-.1.1-.1 0 0zm8.6 1.8s-.1 0 0 0c-.1.1-.1.1 0 0zm.1-1.4v.3-.3zm-10.8-7.8c0 .1 0 .1 0 0-.2.3-.1.2 0 0zm3.7 6.9c-1.1.8 1.7-1.3.1-.1.1-.2-1.5 1.1-.1.1zm7.6 1h-.2l-.1.1c.1 0 .2-.1.3-.1-.1 0 0 0 0 0zm-7.6-1.1-.2.1c.1-.1.2-.1.2-.1zm-2.1-6.6-.2.2s0-.1.2-.2zm-3.4 3.1-.3.4c.1-.2.2-.3.3-.4zm-2.6 4.8c-.2.2-.2.3-.5.6l.1-.1c.1-.1.2-.3.4-.5zm6.5-6.4s-.1.1-.1.2c-.1.1-.2.2-.2.3l.3-.5zm7.2 5.7-.4.4c.2-.1-.9 1.2.4-.4zm1.9.8c0-.1 0-.1.1-.2 0 0 0 .1-.1.2z" style="fill:#fff"/><path d="m65.1 91.2-.3.3-.1.1c-.1 0-.1 0-.1.1l-.2-.1.7-.7-.7.7.2.1.2-.2.3-.3zM80 82.3c-.1.1-.1.2-.2.3.1-.1.2-.3.2-.3zM68.9 87l.7-.7c.1-.1.1-.1.1-.2l-.8.9zm9.6 3.4z" style="fill:#fff"/><path d="M79 90.4c-1.2 1.3-.5.6-.8.9L77 92.5c-.5.5-.9 1-1.3 1.4 0 0 .1-.1.1-.2-.1 0 .1-.1.2-.2l.2-.2c.1-.1.2-.3.3-.4.7-.8 1.4-1.7 1.9-2.3.1-.1.1-.1.1-.2l-.2.2c.5-.6.9-1.2 1.1-1.4-.3.4-.3.4-.5.6l.5-.7c.2-.3.1-.1-.2.2-.2.3-.5.7-.5.7l1.8-2.4-.1-.1c-.5.5-.9.9-1.2 1.3-.2.2 2-2.1.8-.9l.4-.4.1.1c-.2.1-.3.3-.4.5l-.4.6c1-1.1-.7.9.2-.1.3-.4.5-.8.7-.9l-.2-.2c-1 1.1-1.4 1.6-2.9 3-.4.4.2-.1-.2.3-1.3 1.3-1.8 1.7-2.3 2.1-.4.4-.8.7-1.8 1.6l-.5.5-.3.3c-.1.1-.3.3-.5.3.1-.1.3-.4.6-.7-.1.2-.3.3-.4.5l2.8-2.8c-.3.4-1.4 1.4-1.1 1.1 1.2-1.1.8-.9 1.7-1.8l.2-.2c1.5-1.6 3.1-3.3 4.5-5.2l.3-.4-.4.3c-.3.2-.4.4-.5.6l-.5.6c.1-.1.4-.5 0 0-1 1.1-2.1 2.2-3.2 3.3-1.1 1.1-2.3 2.2-3.4 3.2l.2.2c.5-.5.9-1 1.4-1.5.3-.3.6-.7.8-1.1l.2-.2c.9-1.1 0-.1.4-.6.5-.6.7-.8.4-.4.6-.8 1.5-1.9 2.3-3.1.4-.6.9-1.2 1.3-1.8.1-.1.2-.3.3-.4.1-.2.2-.3.3-.5.1-.1.2-.3.2-.3 0-.1.1-.1.1-.2V84h-.1c-.2.1-.5.4-.7.6l-.4.4.3-.4-2.9 2.9.3-.2c-1.4 1.3-2.9 2.8-4.3 4.1-1.5 1.3-2.8 2.6-4.1 3.6l.1.1c.3-.3.5-.5.8-.7.4-.5 3-3 3.2-3.3 1.6-1.9 1.2-1.3 3.4-4 .6-.7.8-1.1 1.6-2 .3-.4.6-.8.9-1.3l.5-.6c.2-.3.4-.6.7-.9-.3.3-.6.7-.6.7.1-.2.3-.3.4-.5l.2-.3c.1-.1.1-.2.2-.2l-.1-.1c-.3.5-.8 1.1-1.1 1.5-.2.2-.3.4-.4.5l-.2.2c-.9 1-1.8 1.9-2.7 2.9.1-.1.5-.6.9-.9-1.4 1.6-.3.3-1.6 1.7.2-.2-.1.1-.1.2-.7.7-2.2 2.3-3.4 3.4l.2-.2-.7.7.2.2.3-.3c1.9-1.7 3.9-3.6 6-5.5-.9.8-.7.6 0-.1l.3-.2c.5-.4-.8.7.2-.2.9-.8.7-.5.1 0l1.1-1c.1 0-.2.2-.3.3.1-.1.3-.3.5-.4.1-.1.2-.1.3-.2 0 .1-.1.1-.1.2-.2.3-.4.5-.5.7l-.1.1c-.5.7-1 1.2-1.4 1.7-.4.5-.8.9-1.2 1.3-.8.8-1.5 1.6-2.4 2.6 0 .1-.7.8-1.3 1.5-.1.1-.2.3-.3.3l.1.1c.6-.7 1.4-1.3 2.1-2.1.7-.7 1.4-1.5 2.2-2.3 1.2-1.2.3-.4.8-.9.1-.1 1.7-1.8.9-.9 1-1.1 1.6-1.7 2.2-2.5l-.2-.1c-.3.9-1.1 1.7-2.2 3.1l.4-.4c-.4.5-1 1.1-.9 1l.1-.1c-1.8 2.1-4.3 4.3-6.3 6.4l.2.2c.8-1 1.8-1.9 2.4-2.7l-.1.1c.8-.8 1.5-1.7 2.2-2.5 1-1.2-.6.7.2-.1.3-.3.6-.7.9-1 .3-.3.5-.7.7-.9.1-.1.1-.2.2-.3 0-.1.1-.1.1-.2v-.2h-.7c-.4.1-.7.3-1 .4-1.2.7-2.2 1.4-3.4 2.3-.3.2-.8.6-1.3.9-.2.2-.5.4-.8.6-.1.1-.3.2-.4.3-.1.1-.1.1-.1 0l.1-.2c.1-.1.1-.3.2-.4.2-.3.3-.6.5-.9.3-.6.7-1.2 1.1-1.7.8-1.1 1.5-2.2 2.1-3l-.1.1c.4-.7.5-.8.9-1.3-.1.1-.5.7-.2.3.2-.2.4-.5.5-.7l-.2-.1c0 .1-.1.2-.1.2-.1.1-.2.2-.2.3l-.5.6c-.3.4-.6.8-.9 1.1-.6.7-1.3 1.5-2 2.2-.7.7-1.3 1.5-2 2.3l-1 1.2-.5.6-.2.3-.1.1h-.1c-.1 0-.2.2-.1.3l.1.2.1-.1 1.5-1.5 1.4-1.6 1.4-1.6.7-.8.6-.9c.7-1.1.9-1.4 1.1-1.8.1-.2.3-.4.5-.7.1-.2.2-.4.4-.6 0-.1.1-.1.1-.2l.2-.2c.1-.1.1-.2.1-.4-.1-.1-.2-.3-.3-.2.1 0 .1-.1.2-.1l.1.1c.1.1.1.2.1.3-.1.2-.3.3-.3.4.1-.1 0-.1.1-.1.1-.1.1-.1.1-.2s.1-.2.1-.3c0-.1-.1-.2-.2-.3-.1 0-.2.1-.3.1v.1c-.1.1-.2.2-.3.2-.4.4-.7.8-1.1 1.2l-2.1 2.4-2.1 2.4-1.1 1.2c-.4.4-.7.9-1.1 1.1l.2.2c.3-.4.5-.8.8-1.2.3-.4.6-.8.8-1.1-.2.2-.2.3-.5.7.3-.4.9-1.2 1.4-1.9.3-.3.5-.7.7-.9.2-.2.3-.4.3-.4.5-.6.1-.1.4-.5.6-.9 1.5-2.2 1.9-2.7.1-.1-.2.3-.3.4.2-.3.5-.8.8-1.3l-.2-.2c-.5.6-1 1.1-.7.8-1.3 1.4-2.4 2.8-3.5 3.8-.7.7-2.3 2.3-2.5 2.6.1-.1-1.8 1.9-2.8 2.9h.2l.1-.1.2-.2c-.3.3.7-.8.4-.4.9-1.1 1.7-2 1.5-1.9 1.7-1.9 3.1-4.1 4-5.2.4-.6.8-1.1 1-1.7l.1-.3-.3.2c-.7.5-1.2 1.2-1.7 1.8l-1.5 1.8c-1 1.2-2 2.4-3 3.5.1-.1 2.6-3.1 2.5-3-1 1.2-1.9 2.2-2.7 3.2L64 90.9c-.4.5-.9 1-1.3 1.7l-.2.4.4-.2c.2-.1.4-.3.6-.5.6-.6-.2.3-.5.5l-.4.2.2-.4v-.1.1l-.3.5.5-.4c.7-.5 1.2-1.3 1.7-1.9.5-.7 1-1.3 1.5-2 1-1.3 1.8-2.6 2.7-3.9l-.4.6c.3-.5.8-1.2.7-1.1l-.6.6c-.3.4 0-.1.4-.7s.8-1.4.8-1.4c-.1.2-.1.2 0 0s.3-.6.5-.9c.1-.1.1-.2.2-.3.1-.1.1-.1.1-.2s.1-.2.1-.2v.1c0-.1.1-.3-.1-.2-.1 0 0 0-.1.1 0 0-.1.1 0 0l-.1.1c-.5.5-.8.8-.9 1-.2.2-.3.3-.4.5-.2.3-.4.5-1 1.2 0 0 .1-.1.1-.2.1-.1.2-.2.2-.3-.6.8-1.3 1.6-2.3 2.9.1-.1-.1.1.2-.3-.2.2-.3.4-.5.6l.1.1c.6-.9 1.4-1.8 2.1-2.7.7-.9 1.4-1.8 2.3-3-.5.8.7-.8.8-.9.1-.1.2-.3.4-.4h-.2v.2s-.1 0-.1.1l-.1.1-.3.5.4-.5c-.8 1.2-1.7 2.2-2.6 3.1l.7-.8-1.8 2.1c.3-.4.7-.8 1-1.2-1 1.1.1-.1-1.1 1.4.3-.3-1 1.1-1.4 1.8v.3c.4-.1.7-.2 1-.5.3-.2.6-.5 1-.8.2-.2-.2.2 0 .1.3-.2 1-.8 1.7-1.3.7-.6 1.4-1.2 1.7-1.5-.2.2-.2.2-.1.2l.4-.4c.5-.4.6-.5.5-.4 1.6-1.3-.5.4 1.4-1.2-.1.1-.1.1-.4.3.5-.4.9-.8 1.4-1.1.2-.2.5-.4.7-.5l.4-.3c.1-.1.2-.2.4-.2.1 0 .1.1.2.3v.4c-.1.3-.2.5-.3.8-.2.5-.5 1-.7 1.5-.3.6.9-1.8.5-1.1-.3.7-.7 1.5-1.1 2.2-.5.7-.9 1.4-1.4 2.1-.9 1.4-1.8 2.8-2.7 4.1l.3-.5c-.2.3-.9 1.3-1.7 2.4 0 .1 0 .1-.1.1v.1c.2-.2.3-.5.5-.7-.2.3-.3.4-.2.3.7-.8 1.5-1.6 2.3-2.5.9-.9 1.8-1.9 3-3l-.3.3c.4-.4 1-1 1.6-1.5v-.4c-.5.7-1 1.5-1.4 2-.2.3-.7.9-.4.6-1.2 1.4-2.4 2.7-3.5 4.1-.2.2-.4.5-.5.7.3-.2.5-.4.8-.6 1.5-1.4 2.3-2.1 3.4-3.1-.3.3-.8.7-.5.5.8-.7 1.5-1.5 2.3-2.2-.2.2-.3.3-.8.7l1.5-1.5c-.8.8-.3.3.2-.1l-.1-.1-.3.3c.1-.1-.1.1 0 .1-1.1 1.2-.1.3-1.7 1.9l.1-.1c-.6.6-1.1 1.2-1.7 1.9-.3.3.6-.7.6-.7-.9 1-1.7 1.9-2.6 2.7.4-.4.9-1 1.3-1.4L71 91.7l.1-.1-1.6 1.5.4-.4-.4.4.1.1c1.1-1 2.3-2 3.7-3.3-1.6 1.4-.2.3-.3.4.4-.4 1.1-.9.9-.7.8-.7 1.3-1.1 2.4-2.1.1 0 .9-.7.7-.5 1.1-.8-.3.2-.2.1.5-.4 1.1-.8 1.7-1.2.2-.1.3-.2.5-.3.1 0 .2-.1.3-.1.1 0 .2-.1.3-.1.2-.1.4.1.4.2 0 .2.1.4.1.6-.1.5-.1 1.1-.3 1.6-.1.5-.4 1.1-.6 1.6-.9 1.7-1.3 2.4-1.8 3.5.4-.2.7-.5 1.2-.8.7-.4-.5.4-.5.4 1.1-.7 1.9-1.2 2.9-1.9-.2.2 0-.1.2 0 0 .1-.1.3-.1.4-.1.1-.1.2-.2.3-.1.2-.2.4-.6.9.1-.2.3-.4.5-.8-.7.9-1.3 1.9-2 2.8-.2.2.4-.6.7-.9-.8 1.1-2.2 2.7-2.4 3.1l.6-.7c-.3.4-.2.2 0-.1.7-.9 1.1-1.3 1.1-1.3l-.5.7c.3-.3.8-1 1.4-1.8.5-.8 1.3-1.6 1.6-2.4l-.3.6c.2-.3.4-.6.4-.9-.2 0-.4.2-.6.3-.3.2-.5.3.2-.2-1 .7-.9.6-1.8 1.2-.1.1-.1 0 0 0l-1 .7c.2-.1-.2.1.4-.3-.4.3-.8.5-1.1.7h.1c.6-1.1 1.1-2 1.4-2.5l-.1.2c.4-.7.5-1 .6-1.2l.1-.2s0 .1.3-.9c.2-.5.3-1 .4-1.5v-.5c-.1-.3-.1-.7-.1-.6-.2-.3-.3-.3-.4-.3.1.1.3.1-.1 0-.1 0-.2 0-.3.1-.1 0-.2 0-.3.1-.2.1-.4.2-.6.4-.4.2-.8.5-1.1.8-.7.5-1.3 1-1.4 1.1-.4.4 1.1-.9-.1.1-.4.3-1.4 1.2-2.4 2.1.3-.3 1.3-1.1.2-.3-.6.6-2 1.7-2.9 2.5 0 0-.5.5-1.2 1v.1l2-2L73 90c.8-.8 1.7-1.8 2.4-2.5.3-.3 1-1.2 1.8-2h-.1l-.6.6.6-.6.1.1-.1.1.1-.1-.1-.1-.8.8-1.1 1.1.2-.2c-.6.6-1.2 1.2-1.9 1.8-.6.5-1.1 1-1.8 1.6-.1.1 0 0 .1 0s.1 0-.6.6l-.3.3.1-.1c.1-.1.2-.2.5-.4-.1.1-.5.5-.8.7l.8-.7c-.2.2-.3.3-.5.4l-.2.2-.1.1-.1.1.1-.1.6-.6c-.1.1-.1.2-.2.3l-.1.1.1-.1.2-.2-.5-.2s-.1.1 0 0l.3-.3c.2-.2.3-.3.4-.5l.3-.3.2-.2c.2-.3.4-.4.5-.5l.2-.2.4-.4c.3-.3 1-1.1 1-1.2.3-.4.4-.4.5-.6.4-.5 1.5-2 1.8-2.5l.2-.3-.6.3c-.2.2-.2.2 0 0l.2-.2-.2.3v.2s0-.1.1-.1l.1-.2H76c-2.1 1.9-4.2 4.1-6.2 6.1-.3.3-.5.6-.8 1v.1h.1c.1 0 .2-.1.2-.2.8-1 1.5-2.1 2-2.9.3-.4.7-1 .6-.8.7-1.1.8-1.2 1.8-2.8-.7 1.1.3-.4-.7 1.1.9-1.4 1.2-1.7 2.1-3.2-.3.6.7-1.1 1-1.8-.2.4-.3.7-.5 1.1.4-.8.7-1.5 1-2.3 0 .1-.1.3-.1.4.1-.2.2-.4.2-.6v-.3s0-.2-.1-.2h-.2c-.1 0-.2.1-.3.1l-.2.2c-.2.1-.3.2-.5.3-.6.5-1.2 1-1.7 1.4-1.1.9-2.1 1.8-3.1 2.6-.7.6 1.4-1.2.8-.6-1.2 1-2.5 2-2.9 2.3-1 .7-1.4 1.2-1.8 1.3-.1-.1 0-.3.2-.5.2-.3.4-.5.7-.9-.2.2-.4.4.7-.9 1-1.2 1.3-1.4.6-.7l-.4.4c-.3.4-.7.9-.3.4l.1-.2c.5-.6 1.9-2.2 1.6-1.8.8-.9.3-.4-.3.3 1-1.2 1.8-1.8 2.3-3.1l.1-.3-.3.3c-.3.3-.6.7-1 1.1.2-.3.4-.5.2-.2-1.9 2.4-.8 1.1-2.1 2.7-.7.9.2-.4-1.1 1.3-.8 1-.2.2.1-.2-.7.9-1.4 1.6-1.9 2.5l.2.1c.4-.5.7-.9 1-1.2l-.6.8c.4-.5.7-.8 1-1.2l-.4.4c.2-.2.4-.4.5-.6.1-.2.2-.2.2-.2.4-.5-.3.3.4-.6.5-.6 1.6-1.9 1.7-2-1.6 1.8.2-.2-1.1 1.4.3-.3.6-.7 1-1.1.1-.1 0 .1-.2.2.2-.2.3-.4.4-.5 0 0 .1-.1.1-.2.1-.1.1-.1.1 0 0 0 0 .1-.1.1-.1.1-.2.3-.3.5.1-.3-.3.5-.5.8.5-.9.3-.4-.2.4-.9 1.3-1 1.4-1.4 2.1l.5-.8L67 87c-.1.1.6-.8.3-.5-.3.5-.7 1.1-1.2 1.7-.5.6-.9 1.2-1.5 1.9-.5.6-.1 0-.5.6-.9 1.1-1.1 1.5-1.8 2.1l.2.2c.2-.3.4-.6.8-1-.4.4-.5.5.4-.6-.4.5-.9 1-1.2 1.6l-.1-.1c.3-.2.6-.6.9-.9-.3.3-.5.7-.9.9l.1.1c.1-.2.3-.4.5-.7-.2.2-.3.4-.5.7l-.1-.1c.6-.4 1-1 1.2-1.4-.6.8-.5.7-.2.4-.3.4-.6.7-1 1l.1.1c.5-.7 1.1-1.4 1.8-2.2v.1c1.6-1.8 2.7-3.2 4.7-5.5l-.6.7c.2-.3 1.2-1.4 1.8-2.2 0 .1.3-.4.6-.7 0 0 .3-.4.7-.6l-.1-.1c-.2.6-.7 1.2-.7 1.3-.3.4-.5.7-.8 1.1-1.5 2-1.6 2.3-3.1 4.1.4-.6-.3.3.7-1-.3.3-.5.6-.7.8-.2.2-.3.4-.3.4-.3.3-1.4 1.7-1.9 2.2-.1.1-.1.2-.2.2 0 .1-.3.1-.2.3v.1l.1-.1.5-.5c.1-.1 0 0 0 0s1-1 .4-.5c1.7-1.7 4.8-4.9 6.2-6.4.8-.9 1.6-1.9 2.4-2.7l-.1-.1c-.4.6-.7 1-1 1.5.1-.1 0 0 .2-.3-1.3 1.8-.7 1.1-2.2 3.1-.8 1 .7-1.1.3-.4-.2.2-1.7 2.4-2.8 3.7l.2-.3c-.4.4-.7 1-1.1 1.7l-.2.3.3-.1c.5-.3.7-.7 1.1-1.1.4-.4.7-.8 1.1-1.2 0 0-.1.1 0 0 .9-1.1 2.7-3.1 4-4.6-.4.5-.6.7-.3.4.6-.7-.2.2 1-1.1.2-.2.5-.6.8-.8.2-.1.4-.2.4-.3.1 0 .1.1.1.1v-.1h-.1c-.1.1-.2.1-.3.2l-.6.6.5-.5c.1-.1.2-.2.3-.2.1-.1.2-.2.2-.1v.2l-.1.1c-.1.1-.1.1-.1.2-.1.2-.2.4-.4.6v-.1c-.7 1.1-1.1 1.6-1.4 2.2-.4.6-.7 1.2-1.6 2.2l.2-.2c-.9 1.2-.8 1-1.8 2.1l-.3.3c-.4.5-1.2 1.4-2.1 2.3h.1c0-.1 0-.1.1-.2l.2-.2c.1-.1.2-.3.3-.4.2-.3.4-.6.7-.8-.3.4-.8 1-1.3 1.6H68c.5-.6 1.1-1.2 1.5-1.7-.3.4-1 1.1-1.5 1.6h.1l.1-.1.2-.2c.1-.1.2-.3.3-.4.2-.2.3-.4.4-.5-.3.3-.6.7-.8 1 .7-1 1.7-2.2 3-3.7-.2.3 3.4-3.8 4.4-4.9 0-.1.1-.1.1-.2l.1-.5-.3.4c-1 1.2-1.7 2.6-2.7 3.8-.5.6-.9 1.3-1.3 2-.2.4-.4.7-.6 1.1l-.3.6c0 .1-.1.2-.1.3 0 .1-.1.3-.1.5 0 0 .2.1.3 0 .1 0 .3-.2.3-.3.1-.1.3-.2.5-.4-1.2.8.9-.7.7-.6.7-.6 1-.8 1.1-.8.8-.6 1.6-1.1 2.4-1.6.6-.4-.7.5-.7.5 1.7-1.1.7-.5 1.9-1.1-.1.1 0 0 .3-.2.2-.1.4-.2.6-.2.3 0 .3-.1.2.1.1-.2.1-.1-.2-.1-.3 0-.5.2-.7.3.3-.2.6-.3.8-.3h.2s0 .1-.1.2c-.3.3-.5.6-.7.8-.4.5-.8.9-1.8 2l.6-.7c-.9 1.1-3.6 3.9-4.6 5.1l.2.1.1-.1c.2-.2.4-.4 0 .1 2.5-2.6 5.6-5.6 7.4-7.8l-.2.2c.4-.5.7-.9 1.2-1.6 0 0-.1.2 0 0 0-.1.1-.2.2-.3.1-.2.2-.3.2-.6v-.3l-.2.2c-.4.4-.8.9-1.2 1.3l.5-.6c-2.4 2.6-3.6 3.9-5.6 6.1 0 0-.3.2-.6.6-.4.4-.9.8-1.4 1.3l.2.2c.3-.2.3-.4.5-.6l.4-.4c1.4-1.5 2.5-2.8 3.7-4 .6-.6 1.1-1.2 1.7-1.9.3-.3.5-.7.8-1.1.2-.2.2-.3.5-.6.1-.2.1-.2.1-.3 0-.1-.1-.3-.2-.2-.7.4-1.2.9-1.9 1.5s-1.5 1.3-2.3 2c-1.6 1.5-3.3 3-4.7 4.3.2-.2.2-.2 0 0-.1.1-.2.2-.3.4l.2.1.2-.2 1.6-1.6-.2.2c.5-.4 1.8-1.7 2.7-2.8l.1-.2c1.4-1.5 3.4-3.3 4.7-5.3-.4.5-.6.8-.9 1.1-.3.4-.5.7-.8 1-.5.6-.9 1.1-1.2 1.5-.5.7-1.2 1.6-1.8 2.2v-.1c-.8.9-1.4 1.6-2.1 2.4-.3.4-.7.8-1 1.2l-1.4 1.4.4-.5c-1.2 1.2-1.5 1.6-2.6 2.7l.1.1.4-.3c1.1-1 2.3-2 3.4-3s2.2-2.1 3.3-3.1l-.4.4c1-1 4-3.8 3.6-3.5 0 0 .2-.2.5-.4l.5-.5c.1 0 .1-.1.2-.2l.1-.1c.1-.1.1 0 0 .1l-.2.3c-.2.4-.5.7-.7 1l.1-.2c-.8 1.1-.8 1.2-1.9 2.7-.6.9-.6.8-.2.3-.9 1.2-.7 1-1.8 2.4l.4-.5c-1 1.2-.9 1.1-1.4 1.8-.5.7-1.6 1.8-2 2.2l.1.1c.1-.1.1-.1.2-.1.1-.2.7-.8 1.4-1.4.1-.1-.1.2-.3.3 1.9-1.8 2.8-2.7 4-4l.2-.2c-.7.7-1.4 1.4-1.8 1.9-.5.4-.6.6-.7.7 0 0 1.2-1.1.3-.2l1.8-1.8c.6-.7 1.3-1.4 1.9-2 .1-.1.1-.1.1-.2l-.1.1c.2-.3.4-.6.6-.8l-.1-.1c-.3.4-.5.7-.8 1-.1.1-1.2 1.5-1.8 2.1.1 0-.7.8 0 0l.5-.5c.1-.1.2-.2.2-.3.4-.4.8-1 1.3-1.6-.4.5-.8 1.1-1.4 1.7-.3.3-.6.7-.7.9-.8.8-2.3 2.4-2.6 2.6l-1.5 1.5-.8.8-.4.4-.2.2-.1.1c0 .1-.1.1 0 .2h.1c.4-.1.5-.4.8-.6l.6-.6 1-1c.5-.5.6-.5.8-.7-.3.3-.7.6-.8.8.5-.5 1.3-1.2 2-1.9s1.2-1.2 1.3-1.4c1.3-1.3-.7.7 1.1-1l-.2.2c.8-.7 1.4-1.4 2-2.1l-.1-.1c-1 1.3-1.8 2.4-2.8 3.6l-1.5 1.8c-.3.3-.5.7-.8 1.1-.1.2-.3.4-.4.6l-.1.1s-.1 0-.1.1c0 0 0 .1-.1.1v.1l.2-.2c.1-.1.2-.1.3-.2-.2.2-.3.2-.3.3l.3-.3.2-.2.3-.3 1-1c.5-.5 1-1.1 1.5-1.6 1-1.1 2.1-2.2 2.8-3.5l-.1-.1c-.8 1.2-1.6 2.3-2.5 3.4-.9 1.1-1.8 2.1-2.7 3.1l-.4.7.5-.3c.5-.3.9-.7 1.3-1.1 1.3-1.1 1.4-1.3 2.2-2.1l.3-.2c.4-.4.8-.9 1.2-1.4.3-.4.6-.7.9-1.1h-.1c-.3.9-.9 1.7-1.3 2.6-.5.9-1.1 1.8-1.9 2.9l.3-.3c-.7 1-2.3 2.9-2.2 2.7-.1.1-.2.3-.5.6l-.1.2.1.1 1.5-2.2c1.3-1.8-.1.3 1.7-2.4.3-.5.8-1.2 1.1-1.8.1-.3.3-.5.3-.7v-.1c-.1.5-.6 1.1-.6 1.2.2-.3.4-.6.5-1v-.3c0 .1-.2.5-.9 1.7-.3.5-.7 1.1-1 1.6l-.4.5.9-1.3c-.5.7-.8 1.2-1.2 1.8-.1.1-.3.3-.5.6l-1 1.5c-.3.2.3-.7-.4.3-.5.7.5-.7-.3.5l.1.1c.6-.7.4-.5 1.1-1.3.1-.1 0 .1-.3.4.6-.7 1.6-1.9 1.9-2.3.6-.7 1.8-2.7 1.7-2.6.1-.3.8-1.5 1.2-2.3-.3.6 0 .1.3-.7l.3-.7-.5.6c-.6.8-1.5 1.8-1.4 1.6-.7.9-2.8 2.9-4.5 4.2l.1.2c0-.1.1-.1.1-.1s-.1.1-.1.2l-.1-.2c.1-.1.2-.1.3-.2-.1.1-.2.1-.3.2l.2.2c.6-.7.9-.9 1.3-1.4.1-.1 1.3-1.5 1.9-2.3.9-1.1-.5.7-.2.4-.1.1 1.5-2 1.2-1.6.7-.9.6-.8.9-1.2 0-.1.1-.1.2-.3l-.2-.1c0 .2-.1.4-.3.6-.2.2-.4.5-.6.7-1 1.2-.3.3-1.4 1.6-.6.4.4-.8.4-.8zm.2-2.6c.2-.3.4-.5.5-.7 0 .2-.2.4-.5.7zm-2.4 2.5 1.1-1.1c.1-.1 0 0-.2.3.1-.1-.5.5-.9.8zm2-1.9c.4-.4.5-.6.5-.6-.2.2-.4.4-.6.7v.1s0-.1.1-.2z" style="fill:#fff"/><path d="M78.1 89.2c-.1.1-.1.1-.1.2.1-.1.1-.2.1-.2l.2-.2c0 .1-.1.1-.2.2zM76 84.4l.3-.2-.3.2c.1 0 .1 0 0 0 .1 0 .1 0 0 0l.3-.2-.3.2zm1.7.9-.2.3zm-1.1.3-.2.2.2-.2zm-5.7 6.1-.9.8c.4-.3.6-.6.9-.8zm1.8-1.2c0-.1 0-.1 0 0 .1-.1 0-.1 0 0zm-4.5-4.9c0 .1-.1.1-.1.2-.3.5-.1.2.1-.2zm-2 .9c0-.2.2-.3.2-.4.1-.1.2-.3.3-.4-.2.2-.3.4-.4.6-.1.1-.1.2-.1.2zm-1 4.5c0 .1-.1.1-.1.2l.1-.2zm2.4-6.4c-.3.4-.6.8-.9 1.1.3-.3.6-.7.9-1.1zm9.8 10.7-.2.2.2-.2zm-.2.3-.2.2.2-.2zm-.7.8.5-.6c-.2.2-.4.5-.5.6zm2.6-4.7c-.1 0 0 0 0 0zm-2 .9c0 .1-.1.2-.1.3v.1l.1-.1c.5-.3 1.2-.8 1.8-1.2l.1-.1c-.3.2-1.3.9-1.9 1.2l-.1.2v-.1c0-.1 0-.2.1-.3zm0-6.1.9-.6c.3-.2.6-.5.9-.5-.2 0-.4.1-.4.2 0 0 0-.1.5-.2-.4 0-.6.2-.7.3-.1.1-.2.1-.3.2-.1.1 0 0 0 0 .2-.1.3-.2-.9.6zM72 90.9c.9-.8 0 0 0 0-.5.4-.6.5 0 0zm.1-3.6v.1c.5-.7 0 0 0-.1zm4.2-8c.1.3 0 .5-.1.8-.1.1-.1.3-.1.4.1-.2.2-.4.2-.6.1-.2.1-.4 0-.6zM72 82.2l.3-.3-1.1 1zm-1.7 3.6-.2.2c-.4.5-.5.6.2-.2zm2 1.5c-.3.3-.9 1-1.3 1.5.5-.6 1-1.2 1.3-1.5zm4.4-1-.5.5.9-1z" style="fill:#fff"/></g></g><g style="opacity:.37"><defs><path id="SVGID_5_" d="M92.3 97.5c-1.2 0-1 .8-1 1.2 0 .4.7 2.6.7 2.6s-4.5-5-5.2-5c-.7 0-1.6.7-1.2 1.2s3.5 3.5 3.5 3.5l-.2.4s-3.7-3.9-4.5-4-1-.2-1.2.3c-.2.4 0 .9.9 1.6.9.8 3.5 3.2 3.5 3.2l-.3.5s-3.8-2.9-4.1-2.9-.7 0-.9.2c-.1.3-.4.8 1.5 2s2.3 1.8 2.3 1.8l-.1.3s-3.3-2.2-4-1.9c-.7.3-1 .9-.4 1.2.5.3 3.6 1.8 3.6 1.8s2.7 2.4 3 2.7c.3.3 1.7 1.9 2.7 1.7s3.2-1.7 3.6-2.7c.4-1 .8-1.7.5-2.6-.3-.9-1.3-3.4-1.4-4.1 0-.6-.3-3-1.3-3z" style="opacity:.37"/></defs><clipPath id="SVGID_6_"><use xlink:href="#SVGID_5_" style="overflow:visible"/></clipPath><g style="clip-path:url(#SVGID_6_)"><path d="M95 107.8c.1.1.2.1 0 0-.2.1-.3.2-.4.3l-.3.3.4-.4c.1 0 .3-.2.3-.2zm-3.4 2.9c-.2.2-.5.4-.7.6l-.2.2.2-.2c.2-.3.4-.5.1-.3-.1.1-.1.2-.2.2l-.4.5.5-.4c.4-.4.6-.5 1.2-1 .5-.4.9-.8.8-.7.2-.2.8-.7 1.1-.9-.7.6-1.5 1.3-2.4 2-.2.2 0 0 0 0zm-1-12 .3-.3c0 .1-.1.2-.3.3zm-7.1-1c-.2.2-.3.3-.3.4.2-.2.3-.4.3-.4zm1.8-2.6.3-.3-.3.3zm5.3 3.6c-.3.2-.5.5-.8.7 0 .1.4-.4.8-.7zm5.2 6.1c-.1.2-.2.4-.3.5.1-.2.2-.4.3-.5zm-5-4.5.3-.2.2-.3zm-5.4 5.9-.4.4.5-.5c.1.1 0 .1-.1.1zm8.4-.5.3-.2c-.1.1-.2.2-.3.2zm-7.1-1.7c0-.1.1-.1 0 0 .1-.1.1-.1 0 0zm8.6 1.8s-.1 0 0 0c-.1.1-.1.1 0 0zm.1-1.4v.3-.3zm-10.8-7.8c0 .1 0 .1 0 0-.2.3-.1.2 0 0zm3.7 6.9c-1.1.8 1.7-1.3.1-.1.1-.2-1.5 1.1-.1.1zm7.6 1h-.2l-.1.1c.1 0 .2-.1.3-.1-.1 0 0 0 0 0zm-7.6-1.1-.2.1c.1-.1.2-.1.2-.1zm-2.1-6.6-.2.2s0-.1.2-.2zm-3.4 3.1-.3.4c.1-.2.2-.3.3-.4zm-2.6 4.8c-.2.2-.3.3-.5.6l.1-.1c.1-.1.2-.3.4-.5zm6.5-6.4s-.1.1-.1.2c-.1.1-.2.2-.2.3l.3-.5zm7.2 5.7-.4.4c.2-.1-.9 1.2.4-.4zm1.9.8c0-.1 0-.1.1-.2 0 0 0 .1-.1.2z" style="fill:#fff"/><path d="m80.1 105.2-.3.3-.1.1c-.1 0-.1 0-.1.1l-.2-.1.7-.7-.7.7.2.1.2-.2.3-.3zM95 96.3c-.1.1-.1.2-.2.3.1-.1.2-.3.2-.3zM83.9 101l.7-.7c.1-.1.1-.1.1-.2l-.8.9zm9.6 3.4z" style="fill:#fff"/><path d="M94 104.4c-1.2 1.3-.5.6-.8.9l-1.2 1.2c-.5.5-.9 1-1.3 1.4 0 0 .1-.1.1-.2-.1 0 .1-.1.2-.2l.2-.2c.1-.1.2-.3.3-.4.7-.8 1.4-1.7 1.9-2.3.1-.1.1-.1.1-.2l-.2.2c.5-.6.9-1.2 1.1-1.4-.3.4-.3.4-.5.6l.5-.7c.2-.3.1-.1-.2.2-.2.3-.5.7-.5.7l1.8-2.4-.1-.1c-.5.5-.9.9-1.2 1.3-.2.2 2-2.1.8-.9l.4-.4.1.1c-.2.1-.3.3-.4.5l-.4.6c1-1.1-.7.9.2-.1.3-.4.5-.8.7-.9l-.2-.2c-1 1.1-1.4 1.6-2.9 3-.4.4.2-.1-.2.3-1.3 1.3-1.8 1.7-2.3 2.1-.4.4-.8.7-1.8 1.6l-.5.5-.3.3c-.1.1-.3.3-.5.3.1-.1.3-.4.6-.7-.1.2-.3.3-.4.5l2.8-2.8c-.3.4-1.4 1.4-1.1 1.1 1.2-1.1.8-.9 1.7-1.8l.2-.2c1.5-1.6 3.1-3.3 4.5-5.2l.3-.4-.4.3c-.3.2-.4.4-.5.6l-.5.6c.1-.1.4-.5 0 0-1 1.1-2.1 2.2-3.2 3.3-1.1 1.1-2.3 2.2-3.4 3.2l.2.2c.5-.5.9-1 1.4-1.5.3-.3.6-.7.8-1.1l.2-.2c.9-1.1 0-.1.4-.6.5-.6.7-.8.4-.4.6-.8 1.5-1.9 2.3-3.1.4-.6.9-1.2 1.3-1.8.1-.1.2-.3.3-.4.1-.2.2-.3.3-.5.1-.1.2-.3.2-.3 0-.1.1-.1.1-.2V98h-.1c-.2.1-.5.4-.7.6l-.4.4.3-.4-2.9 2.9.3-.2c-1.4 1.3-2.9 2.8-4.3 4.1-1.5 1.3-2.8 2.6-4.1 3.6l.1.1c.3-.3.5-.5.8-.7.4-.5 3-3 3.2-3.3 1.6-1.9 1.2-1.3 3.4-4 .6-.7.8-1.1 1.6-2 .3-.4.6-.8.9-1.3l.5-.6c.2-.3.4-.6.7-.9-.3.3-.6.7-.6.7.1-.2.3-.3.4-.5l.2-.3c.1-.1.1-.2.2-.2l-.1-.1c-.3.5-.8 1.1-1.1 1.5-.2.2-.3.4-.4.5l-.2.2c-.9 1-1.8 1.9-2.7 2.9.1-.1.5-.6.9-.9-1.4 1.6-.3.3-1.6 1.7.2-.2-.1.1-.1.2-.7.7-2.2 2.3-3.4 3.4l.2-.2-.7.7.2.2.3-.3c1.9-1.7 3.9-3.6 6-5.5-.9.8-.7.6 0-.1l.3-.2c.5-.4-.8.7.2-.2.9-.8.7-.5.1 0l1.1-1c.1 0-.2.2-.3.3.1-.1.3-.3.5-.4.1-.1.2-.1.3-.2 0 .1-.1.1-.1.2-.2.3-.4.5-.5.7l-.1.1c-.5.7-1 1.2-1.4 1.7-.4.5-.8.9-1.2 1.3-.8.8-1.5 1.6-2.4 2.6 0 .1-.7.8-1.3 1.5-.1.1-.2.3-.3.3l.1.1c.6-.7 1.4-1.3 2.1-2.1.7-.7 1.4-1.5 2.2-2.3 1.2-1.2.3-.4.8-.9.1-.1 1.7-1.8.9-.9 1-1.1 1.6-1.7 2.2-2.5l-.2-.1c-.3.9-1.1 1.7-2.2 3.1l.4-.4c-.4.5-1 1.1-.9 1l.1-.1c-1.8 2.1-4.3 4.3-6.3 6.4l.2.2c.8-1 1.8-1.9 2.4-2.7l-.1.1c.8-.8 1.5-1.7 2.2-2.5 1-1.2-.6.7.2-.1.3-.3.6-.7.9-1 .3-.3.5-.7.7-.9.1-.1.1-.2.2-.3 0-.1.1-.1.1-.2v-.2h-.7c-.4.1-.7.3-1 .4-1.2.7-2.2 1.4-3.4 2.3-.3.2-.8.6-1.3.9-.2.2-.5.4-.8.6-.1.1-.3.2-.4.3-.1.1-.1.1-.1 0l.1-.2c.1-.1.1-.3.2-.4.2-.3.3-.6.5-.9.3-.6.7-1.2 1.1-1.7.8-1.1 1.5-2.2 2.1-3l-.1.1c.4-.7.5-.8.9-1.3-.1.1-.5.7-.2.3.2-.2.4-.5.5-.7l-.2-.1c0 .1-.1.2-.1.2-.1.1-.2.2-.2.3l-.5.6c-.3.4-.6.8-.9 1.1-.6.7-1.3 1.5-2 2.2-.7.7-1.3 1.5-2 2.3l-1 1.2-.5.6-.2.3-.1.1h-.1c-.1 0-.2.2-.1.3l.1.2.1-.1 1.5-1.5 1.4-1.6 1.4-1.6.7-.8.6-.9c.7-1.1.9-1.4 1.1-1.8.1-.2.3-.4.5-.7.1-.2.2-.4.4-.6 0-.1.1-.1.1-.2l.2-.2c.1-.1.1-.2.1-.4-.1-.1-.2-.3-.3-.2.1 0 .1-.1.2-.1l.1.1c.1.1.1.2.1.3-.1.2-.3.3-.3.4.1-.1 0-.1.1-.1.1-.1.1-.1.1-.2s.1-.2.1-.3c0-.1-.1-.2-.2-.3-.1 0-.2.1-.3.1v.1c-.1.1-.2.2-.3.2-.4.4-.7.8-1.1 1.2l-2.1 2.4-2.1 2.4-1.1 1.2c-.4.4-.7.9-1.1 1.1l.2.2c.3-.4.5-.8.8-1.2.3-.4.6-.8.8-1.1-.2.2-.2.3-.5.7.3-.4.9-1.2 1.4-1.9.3-.3.5-.7.7-.9.2-.2.3-.4.3-.4.5-.6.1-.1.4-.5.6-.9 1.5-2.2 1.9-2.7.1-.1-.2.3-.3.4.2-.3.5-.8.8-1.3l-.2-.2c-.5.6-1 1.1-.7.8-1.3 1.4-2.4 2.8-3.5 3.8-.7.7-2.3 2.3-2.5 2.6.1-.1-1.8 1.9-2.8 2.9h.2l.1-.1.2-.2c-.3.3.7-.8.4-.4.9-1.1 1.7-2 1.5-1.9 1.7-1.9 3.1-4.1 4-5.2.4-.6.8-1.1 1-1.7l.1-.3-.3.2c-.7.5-1.2 1.2-1.7 1.8l-1.5 1.8c-1 1.2-2 2.4-3 3.5.1-.1 2.6-3.1 2.5-3-1 1.2-1.9 2.2-2.7 3.2l-1.2 1.5c-.4.5-.9 1-1.3 1.7l-.2.4.4-.2c.2-.1.4-.3.6-.5.6-.6-.2.3-.5.5l-.4.2.2-.4v-.1.1l-.3.5.5-.4c.7-.5 1.2-1.3 1.7-1.9.5-.7 1-1.3 1.5-2 1-1.3 1.8-2.6 2.7-3.9l-.4.6c.3-.5.8-1.2.7-1.1l-.6.6c-.3.4 0-.1.4-.7s.8-1.4.8-1.4c-.1.2-.1.2 0 0s.3-.6.5-.9c.1-.1.1-.2.2-.3.1-.1.1-.1.1-.2s.1-.2.1-.2v.1c0-.1.1-.3-.1-.2-.1 0 0 0-.1.1 0 0-.1.1 0 0l-.1.1c-.5.5-.8.8-.9 1-.2.2-.3.3-.4.5-.2.3-.4.5-1 1.2 0 0 .1-.1.1-.2.1-.1.2-.2.2-.3-.6.8-1.3 1.6-2.3 2.9.1-.1-.1.1.2-.3-.2.2-.3.4-.5.6l.1.1c.6-.9 1.4-1.8 2.1-2.7.7-.9 1.4-1.8 2.3-3-.5.8.7-.8.8-.9.1-.1.2-.3.4-.4h-.2v.2s-.1 0-.1.1l-.1.1-.3.5.4-.5c-.8 1.2-1.7 2.2-2.6 3.1l.7-.8-1.8 2.1c.3-.4.7-.8 1-1.2-1 1.1.1-.1-1.1 1.4.3-.3-1 1.1-1.4 1.8v.3c.4-.1.7-.2 1-.5.3-.2.6-.5 1-.8.2-.2-.2.2 0 .1.3-.2 1-.8 1.7-1.3.7-.6 1.4-1.2 1.7-1.5-.2.2-.2.2-.1.2l.4-.4c.5-.4.6-.5.5-.4 1.6-1.3-.5.4 1.4-1.2-.1.1-.1.1-.4.3.5-.4.9-.8 1.4-1.1.2-.2.5-.4.7-.5l.4-.3c.1-.1.2-.2.4-.2.1 0 .1.1.2.3v.4c-.1.3-.2.5-.3.8-.2.5-.5 1-.7 1.5-.3.6.9-1.8.5-1.1-.3.7-.7 1.5-1.1 2.2-.5.7-.9 1.4-1.4 2.1-.9 1.4-1.8 2.8-2.7 4.1l.3-.5c-.2.3-.9 1.3-1.7 2.4 0 .1 0 .1-.1.1v.1c.2-.2.3-.5.5-.7-.2.3-.3.4-.2.3.7-.8 1.5-1.6 2.3-2.5.9-.9 1.8-1.9 3-3l-.3.3c.4-.4 1-1 1.6-1.5v-.4c-.5.7-1 1.5-1.4 2-.2.3-.7.9-.4.6-1.2 1.4-2.4 2.7-3.5 4.1-.2.2-.4.5-.5.7.3-.2.5-.4.8-.6 1.5-1.4 2.3-2.1 3.4-3.1-.3.3-.8.7-.5.5.8-.7 1.5-1.5 2.3-2.2-.2.2-.3.3-.8.7l1.5-1.5c-.8.8-.3.3.2-.1l-.1-.1-.3.3c.1-.1-.1.1 0 .1-1.1 1.2-.1.3-1.7 1.9l.1-.1c-.6.6-1.1 1.2-1.7 1.9-.3.3.6-.7.6-.7-.9 1-1.7 1.9-2.6 2.7.4-.4.9-1 1.3-1.4l-1.7 1.7.1-.1-1.6 1.5.4-.4-.4.4.1.1c1.1-1 2.3-2 3.7-3.3-1.6 1.4-.2.3-.3.4.4-.4 1.1-.9.9-.7.8-.7 1.3-1.1 2.4-2.1.1 0 .9-.7.7-.5 1.1-.8-.3.2-.2.1.5-.4 1.1-.8 1.7-1.2.2-.1.3-.2.5-.3.1 0 .2-.1.3-.1.1 0 .2-.1.3-.1.2-.1.4.1.4.2 0 .2.1.4.1.6-.1.5-.1 1.1-.3 1.6-.1.5-.4 1.1-.6 1.6-.9 1.7-1.3 2.4-1.8 3.5.4-.2.7-.5 1.2-.8.7-.4-.5.4-.5.4 1.1-.7 1.9-1.2 2.9-1.9-.2.2 0-.1.2 0 0 .1-.1.3-.1.4-.1.1-.1.2-.2.3-.1.2-.2.4-.6.9.1-.2.3-.4.5-.8-.7.9-1.3 1.9-2 2.8-.2.2.4-.6.7-.9-.8 1.1-2.2 2.7-2.4 3.1l.6-.7c-.3.4-.2.2 0-.1.7-.9 1.1-1.3 1.1-1.3l-.5.7c.3-.3.8-1 1.4-1.8.5-.8 1.3-1.6 1.6-2.4l-.3.6c.2-.3.4-.6.4-.9-.2 0-.4.2-.6.3-.3.2-.5.3.2-.2-1 .7-.9.6-1.8 1.2-.1.1-.1 0 0 0l-1 .7c.2-.1-.2.1.4-.3-.4.3-.8.5-1.1.7h.1c.6-1.1 1.1-2 1.4-2.5l-.1.2c.4-.7.5-1 .6-1.2l.1-.2s0 .1.3-.9c.2-.5.3-1 .4-1.5v-.5c-.1-.3-.1-.7-.1-.6-.2-.3-.3-.3-.4-.3.1.1.3.1-.1 0-.1 0-.2 0-.3.1-.1 0-.2 0-.3.1-.2.1-.4.2-.6.4-.4.2-.8.5-1.1.8-.7.5-1.3 1-1.4 1.1-.4.4 1.1-.9-.1.1-.4.3-1.4 1.2-2.4 2.1.3-.3 1.3-1.1.2-.3-.6.6-2 1.7-2.9 2.5 0 0-.5.5-1.2 1v.1l2-2L88 104c.8-.8 1.7-1.8 2.4-2.5.3-.3 1-1.2 1.8-2h-.1l-.6.6.6-.6.1.1-.1.1.1-.1-.1-.1-.8.8-1.1 1.1.2-.2c-.6.6-1.2 1.2-1.9 1.8-.6.5-1.1 1-1.8 1.6-.1.1 0 0 .1 0s.1 0-.6.6l-.3.3.1-.1c.1-.1.2-.2.5-.4-.1.1-.5.5-.8.7l.8-.7c-.2.2-.3.3-.5.4l-.2.2-.1.1-.1.1.1-.1.6-.6c-.1.1-.1.2-.2.3l-.1.1.1-.1.2-.2-.1.1s-.1.1 0 0l.3-.3c.2-.2.3-.3.4-.5l.3-.3.2-.2c.2-.3.4-.4.5-.5l.2-.2.4-.4c.3-.3 1-1.1 1-1.2.3-.4.4-.4.5-.6.4-.5 1.5-2 1.8-2.5l.2-.3h-1c-.2.2-.2.2 0 0l.2-.2-.2.3v.2s0-.1.1-.1l.1-.2H91c-2.1 1.9-4.2 4.1-6.2 6.1-.3.3-.5.6-.8 1v.1h.1c.1 0 .2-.1.2-.2.8-1 1.5-2.1 2-2.9.3-.4.7-1 .6-.8.7-1.1.8-1.2 1.8-2.8-.7 1.1.3-.4-.7 1.1.9-1.4 1.2-1.7 2.1-3.2-.3.6.7-1.1 1-1.8-.2.4-.3.7-.5 1.1.4-.8.7-1.5 1-2.3 0 .1-.1.3-.1.4.1-.2.2-.4.2-.6v-.3s0-.2-.1-.2h-.2c-.1 0-.2.1-.3.1l-.2.2c-.2.1-.3.2-.5.3-.6.5-1.2 1-1.7 1.4-1.1.9-2.1 1.8-3.1 2.6-.7.6 1.4-1.2.8-.6-1.2 1-2.5 2-2.9 2.3-1 .7-1.4 1.2-1.8 1.3-.1-.1 0-.3.2-.5.2-.3.4-.5.7-.9-.2.2-.4.4.7-.9 1-1.2 1.3-1.4.6-.7l-.4.4c-.3.4-.7.9-.3.4l.1-.2c.5-.6 1.9-2.2 1.6-1.8.8-.9.3-.4-.3.3 1-1.2 1.8-1.8 2.3-3.1l.1-.3-.3.3c-.3.3-.6.7-1 1.1.2-.3.4-.5.2-.2-1.9 2.4-.8 1.1-2.1 2.7-.7.9.2-.4-1.1 1.3-.8 1-.2.2.1-.2-.7.9-1.4 1.6-1.9 2.5l.2.1c.4-.5.7-.9 1-1.2l-.6.8c.4-.5.7-.8 1-1.2l-.4.4c.2-.2.4-.4.5-.6.1-.2.2-.2.2-.2.4-.5-.3.3.4-.6.5-.6 1.6-1.9 1.7-2-1.6 1.8.2-.2-1.1 1.4.3-.3.6-.7 1-1.1.1-.1 0 .1-.2.2.2-.2.3-.4.4-.5 0 0 .1-.1.1-.2.1-.1.1-.1.1 0 0 0 0 .1-.1.1-.1.1-.2.3-.3.5.1-.3-.3.5-.5.8.5-.9.3-.4-.2.4-.9 1.3-1 1.4-1.4 2.1l.5-.8L82 101c-.1.1.6-.8.3-.5-.3.5-.7 1.1-1.2 1.7-.5.6-.9 1.2-1.5 1.9-.5.6-.1 0-.5.6-.9 1.1-1.1 1.5-1.8 2.1l.2.2c.2-.3.4-.6.8-1-.4.4-.5.5.4-.6-.4.5-.9 1-1.2 1.6l-.1-.1c.3-.2.6-.6.9-.9-.3.3-.5.7-.9.9l.1.1c.1-.2.3-.4.5-.7-.2.2-.3.4-.5.7l-.1-.1c.6-.4 1-1 1.2-1.4-.6.8-.5.7-.2.4-.3.4-.6.7-1 1l.1.1c.5-.7 1.1-1.4 1.8-2.2v.1c1.6-1.8 2.7-3.2 4.7-5.5l-.6.7c.2-.3 1.2-1.4 1.8-2.2 0 .1.3-.4.6-.7 0 0 .3-.4.7-.6l-.1-.1c-.2.6-.7 1.2-.7 1.3-.3.4-.5.7-.8 1.1-1.5 2-1.6 2.3-3.1 4.1.4-.6-.3.3.7-1-.3.3-.5.6-.7.8-.2.2-.3.4-.3.4-.3.3-1.4 1.7-1.9 2.2-.1.1-.1.2-.2.2 0 .1-.3.1-.2.3v.1l.1-.1.5-.5c.1-.1 0 0 0 0s1-1 .4-.5c1.7-1.7 4.8-4.9 6.2-6.4.8-.9 1.6-1.9 2.4-2.7l-.1-.1c-.4.6-.7 1-1 1.5.1-.1 0 0 .2-.3-1.3 1.8-.7 1.1-2.2 3.1-.8 1 .7-1.1.3-.4-.2.2-1.7 2.4-2.8 3.7l.2-.3c-.4.4-.7 1-1.1 1.7l-.2.3.3-.1c.5-.3.7-.7 1.1-1.1.4-.4.7-.8 1.1-1.2 0 0-.1.1 0 0 .9-1.1 2.7-3.1 4-4.6-.4.5-.6.7-.3.4.6-.7-.2.2 1-1.1.2-.2.5-.6.8-.8.2-.1.4-.2.4-.3.1 0 .1.1.1.1v-.1h-.1c-.1.1-.2.1-.3.2l-.6.6.5-.5c.1-.1.2-.2.3-.2.1-.1.2-.2.2-.1v.2l-.1.1c-.1.1-.1.1-.1.2-.1.2-.2.4-.4.6v-.1c-.7 1.1-1.1 1.6-1.4 2.2-.4.6-.7 1.2-1.6 2.2l.2-.2c-.9 1.2-.8 1-1.8 2.1l-.3.3c-.4.5-1.2 1.4-2.1 2.3h.1c0-.1 0-.1.1-.2l.2-.2c.1-.1.2-.3.3-.4.2-.3.4-.6.7-.8-.3.4-.8 1-1.3 1.6H83c.5-.6 1.1-1.2 1.5-1.7-.3.4-1 1.1-1.5 1.6h.1l.1-.1.2-.2c.1-.1.2-.3.3-.4.2-.2.3-.4.4-.5-.3.3-.6.7-.8 1 .7-1 1.7-2.2 3-3.7-.2.3 3.4-3.8 4.4-4.9 0-.1.1-.1.1-.2l.1-.5-.3.4c-1 1.2-1.7 2.6-2.7 3.8-.5.6-.9 1.3-1.3 2-.2.4-.4.7-.6 1.1l-.3.6c0 .1-.1.2-.1.3 0 .1-.1.3-.1.5 0 0 .2.1.3 0 .1 0 .3-.2.3-.3.1-.1.3-.2.5-.4-1.2.8.9-.7.7-.6.7-.6 1-.8 1.1-.8.8-.6 1.6-1.1 2.4-1.6.6-.4-.7.5-.7.5 1.7-1.1.7-.5 1.9-1.1-.1.1 0 0 .3-.2.2-.1.4-.2.6-.2.3 0 .3-.1.2.1.1-.2.1-.1-.2-.1-.3 0-.5.2-.7.3.3-.2.6-.3.8-.3h.2s0 .1-.1.2c-.3.3-.5.6-.7.8-.4.5-.8.9-1.8 2l.6-.7c-.9 1.1-3.6 3.9-4.6 5.1l.2.1.1-.1c.2-.2.4-.4 0 .1 2.5-2.6 5.6-5.6 7.4-7.8l-.2.2c.4-.5.7-.9 1.2-1.6 0 0-.1.2 0 0 0-.1.1-.2.2-.3.1-.2.2-.3.2-.6v-.3l-.2.2c-.4.4-.8.9-1.2 1.3l.5-.6c-2.4 2.6-3.6 3.9-5.6 6.1 0 0-.3.2-.6.6-.4.4-.9.8-1.4 1.3l.2.2c.3-.2.3-.4.5-.6l.4-.4c1.4-1.5 2.5-2.8 3.7-4 .6-.6 1.1-1.2 1.7-1.9.3-.3.5-.7.8-1.1.2-.2.2-.3.5-.6.1-.2.1-.2.1-.3 0-.1-.1-.3-.2-.2-.7.4-1.2.9-1.9 1.5s-1.5 1.3-2.3 2c-1.6 1.5-3.3 3-4.7 4.3.2-.2.2-.2 0 0-.1.1-.2.2-.3.4l.2.1.2-.2 1.6-1.6-.2.2c.5-.4 1.8-1.7 2.7-2.8l.1-.2c1.4-1.5 3.4-3.3 4.7-5.3-.4.5-.6.8-.9 1.1-.3.4-.5.7-.8 1-.5.6-.9 1.1-1.2 1.5-.5.7-1.2 1.6-1.8 2.2v-.1c-.8.9-1.4 1.6-2.1 2.4-.3.4-.7.8-1 1.2l-1.4 1.4.4-.5c-1.2 1.2-1.5 1.6-2.6 2.7l.1.1.4-.3c1.1-1 2.3-2 3.4-3s2.2-2.1 3.3-3.1l-.4.4c1-1 4-3.8 3.6-3.5 0 0 .2-.2.5-.4l.5-.5c.1 0 .1-.1.2-.2l.1-.1c.1-.1.1 0 0 .1l-.2.3c-.2.4-.5.7-.7 1l.1-.2c-.8 1.1-.8 1.2-1.9 2.7-.3.4-.3.3.1-.2-.9 1.2-.7 1-1.8 2.4l.4-.5c-1 1.2-.9 1.1-1.4 1.8-.5.7-1.6 1.8-2 2.2l.1.1c.1-.1.1-.1.2-.1.1-.2.7-.8 1.4-1.4.1-.1-.1.2-.3.3 1.9-1.8 2.8-2.7 4-4l.2-.2c-.7.7-1.4 1.4-1.8 1.9-.5.4-.6.6-.7.7 0 0 1.2-1.1.3-.2l1.8-1.8c.6-.7 1.3-1.4 1.9-2 .1-.1.1-.1.1-.2l-.1.1c.2-.3.4-.6.6-.8l-.1-.1c-.3.4-.5.7-.8 1-.1.1-1.2 1.5-1.8 2.1.1 0-.7.8 0 0l.5-.5c.1-.1.2-.2.2-.3.4-.4.8-1 1.3-1.6-.4.5-.8 1.1-1.4 1.7-.3.3-.6.7-.7.9-.8.8-2.3 2.4-2.6 2.6l-1.5 1.5-.8.8-.4.4-.2.2-.1.1c0 .1-.1.1 0 .2h.1c.4-.1.5-.4.8-.6l.6-.6 1-1c.5-.5.6-.5.8-.7-.3.3-.7.6-.8.8.5-.5 1.3-1.2 2-1.9s1.2-1.2 1.3-1.4c1.3-1.3-.7.7 1.1-1l-.2.2c.8-.7 1.4-1.4 2-2.1l-.1-.1c-1 1.3-1.8 2.4-2.8 3.6l-1.5 1.8c-.3.3-.5.7-.8 1.1-.1.2-.3.4-.4.6l-.1.1s-.1 0-.1.1c0 0 0 .1-.1.1v.1l.2-.2c.1-.1.2-.1.3-.2-.2.2-.3.2-.3.3l.3-.3.2-.2.3-.3 1-1c.5-.5 1-1.1 1.5-1.6 1-1.1 2.1-2.2 2.8-3.5l-.1-.1c-.8 1.2-1.6 2.3-2.5 3.4-.9 1.1-1.8 2.1-2.7 3.1l-.4.4.5-.3c.5-.3.9-.7 1.3-1.1 1.3-1.1 1.4-1.3 2.2-2.1l.3-.2c.4-.4.8-.9 1.2-1.4.3-.4.6-.7.9-1.1h-.1c-.3.9-.9 1.7-1.3 2.6-.5.9-1.1 1.8-1.9 2.9l.3-.3c-.7 1-2.3 2.9-2.2 2.7-.1.1-.2.3-.5.6l-.1.2.1.1 1.5-2.2c1.3-1.8-.1.3 1.7-2.4.3-.5.8-1.2 1.1-1.8.1-.3.3-.5.3-.7v-.1c-.1.5-.6 1.1-.6 1.2.2-.3.4-.6.5-1v-.3c0 .1-.2.5-.9 1.7-.3.5-.7 1.1-1 1.6l-.4.5.9-1.3c-.5.7-.8 1.2-1.2 1.8-.1.1-.3.3-.5.6l-1 1.5c-.1.2.5-.7-.3.3-.5.7.5-.7-.3.5l.1.1c.6-.7.4-.5 1.1-1.3.1-.1 0 .1-.3.4.6-.7 1.6-1.9 1.9-2.3.6-.7 1.8-2.7 1.7-2.6.1-.3.8-1.5 1.2-2.3-.3.6 0 .1.3-.7l.3-.7-.5.6c-.6.8-1.5 1.8-1.4 1.6-.7.9-2.8 2.9-4.5 4.2l.1.2c0-.1.1-.1.1-.1s-.1.1-.1.2l-.1-.2c.1-.1.2-.1.3-.2-.1.1-.2.1-.3.2l.2.2c.6-.7.9-.9 1.3-1.4.1-.1 1.3-1.5 1.9-2.3.9-1.1-.5.7-.2.4-.1.1 1.5-2 1.2-1.6.7-.9.6-.8.9-1.2 0-.1.1-.1.2-.3l-.2-.1c0 .2-.1.4-.3.6-.2.2-.4.5-.6.7-1 1.2-.3.3-1.4 1.6-1 1.2 0 0 0 0zm.2-2.6c.2-.3.4-.5.5-.7 0 .2-.2.4-.5.7zm-2.4 2.5 1.1-1.1c.1-.1 0 0-.2.3.1-.1-.5.5-.9.8zm2-1.9c.4-.4.5-.6.5-.6-.2.2-.4.4-.6.7v.1s0-.1.1-.2z" style="fill:#fff"/><path d="M93.1 103.2c-.1.1-.1.1-.1.2.1-.1.1-.2.1-.2l.2-.2c0 .1-.1.1-.2.2zM91 98.4l.3-.2-.3.2c.1 0 .1 0 0 0 .1 0 .1 0 0 0l.3-.2-.3.2zm1.7.9-.2.3zm-1.1.3-.2.2.2-.2zm-5.7 6.1-.8.8c.3-.3.5-.6.8-.8zm1.8-1.2c0-.1 0-.1 0 0 .1-.1 0-.1 0 0zm-4.5-4.9c0 .1-.1.1-.1.2-.3.5-.1.2.1-.2zm-2 .9c0-.2.2-.3.2-.4.1-.1.2-.3.3-.4-.2.2-.3.4-.4.6-.1.1-.1.2-.1.2zm-1 4.5c0 .1-.1.1-.1.2l.1-.2zm2.4-6.4c-.3.4-.6.8-.9 1.1.3-.3.6-.7.9-1.1zm9.8 10.7-.2.2.2-.2zm-.2.3-.2.3c.1-.2.2-.3.2-.3zm-.7.8.5-.6c-.2.2-.4.5-.5.6zm2.6-4.7c-.1 0 0 0 0 0zm-2 .9c0 .1-.1.2-.1.3v.1l.1-.1c.5-.3 1.2-.8 1.8-1.2l.1-.1c-.3.2-1.3.9-1.9 1.2l-.1.2v-.1c0-.1 0-.2.1-.3zm0-6.1.9-.6c.3-.2.6-.5.9-.5-.2 0-.4.1-.4.2 0 0 0-.1.5-.2-.4 0-.6.2-.7.3-.1.1-.2.1-.3.2-.1.1 0 0 0 0 .2-.1.3-.2-.9.6zm-5.1 4.4c.9-.8 0 0 0 0-.5.4-.6.5 0 0zm.1-3.6v.1c.5-.7 0 0 0-.1zm4.2-8c.1.3 0 .5-.1.8-.1.1-.1.3-.1.4.1-.2.2-.4.2-.6.1-.2.1-.4 0-.6zM87 96.2l.3-.3-1.1 1zm-1.7 3.6-.2.2c-.4.5-.5.6.2-.2zm2 1.5c-.3.3-.9 1-1.3 1.5.5-.6 1-1.2 1.3-1.5zm4.4-1-.5.5.9-1z" style="fill:#fff"/></g></g><g style="opacity:.37"><defs><path id="SVGID_7_" d="M52.4 37.9c1.1.7.4 1.3.2 1.7-.2.3-2.2 1.9-2.2 1.9s7.2-1.9 7.8-1.4c.6.4 1 1.6.3 1.8S53.2 43 53.2 43l-.1.5s5.8-1.3 6.5-1 1.1.5.9 1-.5.8-1.8 1c-1.3.1-5.2.8-5.2.8v.7s5.2-.3 5.5-.2c.3.1.7.4.7.8 0 .3-.1 1-2.6 1s-3.2.2-3.2.2l-.2.2s4.4 0 4.8.7c.5.7.3 1.4-.3 1.4-.7 0-4.3-.5-4.3-.5s-3.9.6-4.4.7c-.5 0-2.7.7-3.5-.2-.8-.9-1.9-3.5-1.7-4.7.2-1.2.3-2 1.1-2.6s3.3-2.4 3.8-2.9 2.3-2.6 3.2-2z" style="opacity:.37"/></defs><clipPath id="SVGID_8_"><use xlink:href="#SVGID_7_" style="overflow:visible"/></clipPath><g style="clip-path:url(#SVGID_8_)"><path d="M43.6 45.5c-.2 0-.2 0 0 0 0 0 .1 0 .1.2 0 .1.1.3.1.4l.2.5-.1-.6-.1-.3c-.1 0-.1-.1-.2-.2zm1.3 4.8c.1.3.2.7.3.9h-.1c-.1-.4-.1-.6-.1-.3v.3h.1c-.2-.6-.3-.8-.5-1.6-.2-.7-.3-1.2-.3-1.1-.1-.3-.3-1.1-.4-1.5.4 1 .7 2.1 1 3.3.2.3.1.1 0 0zM53.1 40c0-.2-.1-.3-.1-.4 0 .1 0 .2.1.4zm7.3 3.4c0 .3.1.5.1.5-.1-.3-.1-.6-.1-.5zm-.4-3.5v-.4.4zm-6.9.1.2 1.2c.1 0-.1-.7-.2-1.2zm-8.6 2.3v.7-.7zm7.4-1-.1-.3c0-.1-.1-.2-.1-.3l.2.6zm1.3 8.8c.1.3.1.4.2.6-.1-.2-.1-.4-.2-.7-.1-.1-.1 0 0 .1zm-7.3-5.6-.2-.4c.1.1.2.3.2.4zm7.9 3.6V48v.1zm-8.9-4.4c0-.1 0 0 0 0s0 .1 0 0zm.4-1.5c0 .1-.1.1-.1.2v.1c0-.1.1-.2.1-.3zm14.9-.5s0 .1 0 0c0 .4 0 .2 0 0zm-7.6 4c.5 1.4-.8-2.2-.1-.1 0-.2.7 1.8.1.1zm-7.9-3.9c.2 0 .4.3.4.5 0-.1-.1-.2-.2-.3 0-.1-.1-.2-.2-.2z" style="fill:#fff"/><path d="m52.5 45.6.1.2c0-.1-.1-.2-.1-.2zm6.2-4.7v.3-.3zm.7 4.9v.6-.6zm-.5 6c0 .3 0 .4.1.9v-.1c-.1-.2-.1-.4-.1-.8zm-1.8-9.9v.2c0 .1 0 .3.1.4l-.1-.6zm-9.9.9v.6c0-.2.2 1.7 0-.6zm-2.6-.5v-.2c0-.1.1-.2.1-.3 0 .1-.1.2-.1.3v.2c-.1.1-.1.1 0 0z" style="fill:#fff"/><path d="m59.1 52.3.1.5c0 .1 0 .1.1.2s0 .3-.1.4l-.2.1v-.2l-.2-1.1c0 .3.1.7.2 1.1v.2l.2-.1c.1-.1.1-.3.1-.3s0-.1-.1-.1v-.1c0-.3 0-.4-.1-.6zM50.8 35v.5c0-.2.1-.3 0-.5zm6.8 11.2c-.1-.4-.1-.8-.2-1.1v-.2l.2 1.3zm-10.4-2.8z" style="fill:#fff"/><path d="M46.2 43.2c.3 1.9.2.9.3 1.3.4 2.3.2 1.1.3 1.9.3 1.4.5 2.5.8 3.6v.1l.1.1.1-.2c.1-.1.1-.2 0 0h-.2.2-.2.2v-.6c0-.2 0-.5-.1-.7 0-.5-.1-1.1-.2-1.7-.1-1.2-.3-2.4-.4-3.3v-.2.3c-.1-.9-.2-1.6-.2-2 0 .5.1.6.1.8v-.9c0-.8.1 1.3.1 1.2l-.3-3.3h-.1c.1.7.2 1.4.3 1.9 0 .3-.5-3.2-.3-1.4l-.1-.6h.2c.1.3 0 .5.1.8l.1.8c-.1-1.6.1 1.3 0-.2-.1-.5 0-1-.1-1.4h-.3c.3 1.7.4 2.3.9 4.5.1.6 0-.2.1.4.4 1.9.6 2.7.7 3.3.1.6.2 1.1.6 2.6.1.3.1.5.2.8 0 .1.1.3.2.5s.1.4.3.7c.2-.1.1-.2.1-.3v-.3c0-.2-.1-.4-.1-.6.1.2.1.5.2.7-.5-2.7-.4-1.5-.9-4.3.1.5.4 2.1.4 1.7-.4-1.8-.3-1.3-.5-2.7v-.3c-.4-2.3-.9-4.9-1-7.5l-.2.3c.1.2 0 .5.1.8l.1.9c0-.2-.1-.7 0 0 .3 1.6.6 3.3.9 5 .4 1.7.8 3.4 1.1 5l.3-.1c-.1-.8-.2-1.5-.3-2.2-.1-.5-.1-1-.2-1.5v-.3c-.1-1.5 0-.1-.1-.8-.1-.9-.1-1.1 0-.6-.1-1.1-.2-2.7-.3-4.3 0-.8-.1-1.6-.1-2.4v-1.6s0 .1.1.1l.1.2c0 .1 0 .2.1.2.1.2.1.5.1.7l-.1-.5c.4 2.2.6 2.4 1 4.4l-.1-.4c.5 2.1 1 4.3 1.4 6.4.5 2.1 1 4.1 1.5 5.8h.2c-.1-.4-.2-.8-.2-1.1-.2-.7-.9-4.6-.9-4.9-.3-2.7-.2-1.9-.6-5.7-.1-1-.2-1.5-.3-2.8-.1-.6-.1-1.1-.2-1.7v-.9c0-.4-.1-.8-.1-1.2 0 .5.1 1 .1.9 0-.5-.1-1-.1-1.5h-.2c-.1.8 0 1.5.1 2.1.1.6.1.9.1 1 .2 1.4.5 2.9.8 4.3 0-.1-.2-.8-.3-1.4.4 2.3 0 .4.4 2.5 0-.3 0 .1.1.2.2 1.1.6 3.5 1 5.2l-.1-.3c.1.3.1.7.2 1h.3c-.6-3-1.4-6-2.2-9.3.3 1.3.2 1-.1 0l-.1-.4c-.2-.7.3 1.1-.1-.3-.4-1.3-.2-.9 0-.1l-.5-1.6c0-.1.1.3.1.4-.1-.2-.1-.4-.2-.7-.1-.2-.1-.3-.2-.5s-.1-.3-.2-.5c0-.1-.1-.1-.1-.1-.1 0-.2 0-.3.1 0 .1-.1.1-.1.3.1.5 0 .5.1.7 0 .4.1.7.1.9v.1c0 .9.2 1.7.3 2.4.1.7.2 1.3.3 2 .2 1.2.4 2.4.6 3.8 0 .1.2 1.2.4 2.1 0 .2 0 .3.1.5l.3.7-.1-.7c-.1-1-.5-2.1-.6-3.2-.2-1.1-.4-2.3-.6-3.5-.3-1.8-.1-.5-.3-1.3 0-.1-.4-2.7-.2-1.4-.3-1.6-.4-2.5-.6-3.7v-.3l-.1.3c-.2.3-.1.6-.2.9v1c.1.7.1 1.5.3 2.5 0-.4-.1-.9-.1-.7.1.7.2 1.6.2 1.5v-.2c.5 3 1.3 6.6 1.8 9.8h.3c-.2-1.5-.4-2.8-.6-4v.2c-.2-1.2-.4-2.4-.6-3.7-.2-1.7.2 1 0-.2-.1-.5-.1-1-.2-1.4-.1-.5-.1-.9-.1-1.3v-.4l.3.3.6.9c.7 1.3 1.2 2.6 1.7 4.2.1.4.3 1 .5 1.6.1.3.2.7.3 1 .1.2.1.4.2.5v.2c0 .1 0 .2.1.2.1.1.2.2.3.2.1-.1.1-.3.2-.4 0-.1.1-.2.1-.3 0-.2.1-.4.1-.6 0-.4.1-.7.1-1.1.1-.8.1-1.5.1-2.3 0-1.5-.1-2.9 0-4v.2-1.7.4c0-.3 0-.7-.1-1h-.2c.1 2.2.4 4.3.7 6.5.1 1.1.3 2.2.4 3.2l.2 1.6.1.8v.5c0 .1.1.1 0 .1l.2.1c-.3-1.5-.5-3-.7-4.6-.2-1.5-.4-3-.3-4.6 0-1.4 0-1.8-.1-2.3v-2.2c0-.2.1-.3.2-.2 0-.1-.1 0-.1.1v.5-.4c0-.1.1-.1.1-.1s.1.1.1.3c.1.1.1.3.1.4.2.5.2 1.1.3 1.7.2 1.2.3 2.3.5 3.5.2 1.2.3 2.3.5 3.5.1.6.2 1.2.3 1.7 0 .3.1.6.1.9 0 .3 0 .6.2.9l.2.4v-.4c0-.5.1-1.1 0-1.6 0-.5-.1-1-.1-1.6 0 .3 0 .3.1.9 0-.6-.1-1.7-.1-2.6 0-.5 0-.9-.1-1.2v-1.2c0-1.2-.1-3-.1-3.6v.5-1.7h-.3c.1.9.2 1.6.1 1.2.2 2.1.6 4 .9 5.6.2 1.1.6 3.5.7 3.9-.1-.1.4 2.8.8 4.4v.2l.1-.1c.2-.1.1-.3 0-.4v-.2c.1.4-.1-1.1 0-.6-.2-1.5-.3-2.9-.3-2.6-.3-2.8-.4-5.6-.4-7.1V41c0 .1 0 .1.1.2 0 .2.1.4.1.6 0 .4.1.9.1 1.3.1.9.2 1.8.3 2.6.2 1.7.4 3.4.6 5-.1-.1-.5-4.4-.6-4.2.2 1.7.4 3.2.6 4.5l.3 2.1c.1.7.2 1.5.2 2.3h.2c-.1-.2-.2-.5-.2-.8-.1-.9 0 .4.2.7h-.2v-.1.1h.2c-.3-.9-.3-1.8-.4-2.7-.1-.9-.1-1.8-.2-2.7-.1-.9-.1-1.8-.1-2.6v-2.6.7-1.5.7c0 .5 0-.1-.1-.9s.1-1.8 0-1.8c0 .3 0 .2 0 0s0-.6.1-.9v-.5.4-.2s0 .1 0 0v.2c.1.4.1.7.1.9 0 .3.1.5.1.7 0 .4.1.7.2 1.8V44c0-.1 0-.3-.1-.4.2 1.1.3 2.2.4 4 0-.1 0 .1-.1-.4 0 .3.1.6.1.9h.2c0-.7 0-1.3-.1-2-.1-.6-.1-1.2-.2-1.9-.1-1.3-.2-2.6-.3-4.1.1 1-.1-1.2-.1-1.4 0-.2-.1-.4-.1-.6V38l-.1.1c-.1.1-.2.3-.2.4 0 .1 0 .2.1.3v.6-.8c0 1.7.3 3.1.5 4.5l-.2-1.5c.1 1 .3 2 .4 3 0-.6-.1-1.1-.2-1.7.2 1.6 0-.2.2 2-.1-.4.2 1.6.1 2.5 0 .1-.1.1-.1.2-.1-.2-.4-.6-.4-1-.1-.4-.3-.8-.4-1.4-.1-.3.1.2.1 0-.1-.4-.5-1.3-.7-2.2-.3-.9-.6-1.9-.7-2.4.1.3.1.3.1.2l-.4-.5c-.2-.7-.2-.8-.2-.7-.6-2.2.2.7-.6-1.9.1.2 0 .1.2.5-.2-.6-.4-1.3-.6-1.9l-.3-.9-.2-.4c0-.2-.1-.3-.3-.4-.1-.1-.2-.1-.3 0l-.2.2c-.1.1-.2.3-.3.4-.1.3-.1.6-.2.9-.1.6-.2 1.2-.3 1.9-.1.4 0-.2.1-.7.1-.5.2-1 .1-.6l-.3 2.7v8.2-.6c0 .2 0 .7.1 1.3 0 .6 0 1.4.1 2.1l.1.4v-.5c0-.3 0-.6-.1-.9.1.4.1.6.1.4-.1-1.2-.4-2.4-.6-3.7-.2-1.3-.6-2.8-1-4.6l.1.4c-.2-.7-.3-1.5-.5-2.4V39v.4c0 1 0 2 .1 2.8 0 .4.1 1.3.1.8.1.9.2 1.9.3 2.8 0 .4.1.8.1 1.2 0 .3.1.6.1 1 0 .3.1.7.1 1-.1-.3-.1-.6-.2-.8-.2-.7-.3-1.3-.5-1.9-.2-.8-.4-1.5-.6-2.3.1.5.3 1.1.2.8-.3-1.1-.5-2.3-.8-3.4 0 .3.1.5.2 1.2-.1-.5-.3-1.4-.5-2.3.3 1.2.1.5 0-.2h-.1c0 .2 0 .4.1.5v.1c.2 1.8.1.3.4 2.8v-.1c.2.9.3 1.8.5 2.8 0 .4-.2-1-.2-1 .2 1.4.5 2.8.8 4-.1-.6-.3-1.4-.4-2 .2 1.4.3 1.5.5 2.6v-.1l.5 2.4-.1-1.1c0 .2.1.4.1.6h.1c-.5-1.5-.9-3.2-1.5-5.2.6 2.2.1.4.2.5-.2-.6-.4-1.5-.3-1.2-.3-1.1-.5-1.8-.9-3.4 0-.1-.4-1.2-.3-.9-.5-1.4.1.3 0 .2-.2-.7-.5-1.4-.8-2.2-.1-.2-.1-.4-.2-.6-.1-.1-.1-.2-.2-.3l-.1-.1-.1-.1c-.2-.2-.5-.2-.7 0l-.5.5c-.3.6-.6 1.1-.8 1.7-.2.6-.3 1.2-.4 1.8-.2 2.1-.2 3-.3 4.3-.2-.4-.4-.9-.7-1.5-.3-.8.3.7.3.7-.6-1.3-1-2.3-1.5-3.5 0 .1.1.1 0 .1 0-.1-.1-.3-.3-.4-.2.3-.1.5-.2.7v1.6c0-.2-.1-.6-.1-1.1.1 1.3.1 2.5.2 3.8 0 .4-.1-.8-.1-1.3 0 1.5.4 3.8.4 4.3l.2-1.1c.1.5 0 .3 0-.1-.2-1.3-.2-1.8-.2-1.9l.1.9c0-.5-.1-1.4-.2-2.5 0-1.1-.2-2.2-.1-3.2v.8c0-.4 0-.7.2-1.1l.3.3.2.4c.2.4.2.7-.1-.2.5 1.3.5 1.1.9 2.2 0 .1 0 .1 0 0l.5 1.2c-.1-.2.1.2-.3-.5.2.5.4 1 .6 1.4l.1.2v-.1c.1-1.5.2-2.5.2-3.2v.2c.1-.8.1-1.2.2-1.5V42s-.1.1.2-1.1c.2-.5.4-1 .7-1.5l.1-.3s0-.1.1-.2l.5-.5c.2-.1.4-.1.5 0-.1 0-.3-.1.1 0 .1 0 .2.1.2.2.1.1.2.2.2.3.2.2.2.4.3.7.2.5.4 1 .6 1.4.3.9.5 1.7.6 1.9.2.6-.4-1.5.1.2.1.5.5 1.9.9 3.4-.1-.4-.5-1.8-.1-.4.3.9.7 2.8 1.1 4 0 0 .2.7.5 1.7h.1c-.2-.9-.4-2-.6-3.1 0-.1-.2-.9-.4-2.1-.2-1.2-.4-2.7-.6-3.7v.1c-.1-.3-.3-1.6-.5-2.9h-.1c.1.3.1.6.2.9 0 0-.1-.3-.2-.9h.1v.2-.2h-.1l.2 1.2c.1.3.2.8.4 1.6l-.5-.6c.2.9.4 1.8.7 2.8.3 1.1.6 2.3.9 3.6 0 0 0-.2-.1-.4 0-.2-.1-.4-.1-.5-.1-.3 0-.2.2.5 0 .1 0 .2.1.3 0 .1 0 .2.1.3 0 0 0-.1-.1-.3v-.1.1c.1.2.2.6.3.9-.1-.3-.1-.5-.2-.7.1.4.1.5.2.6v.3-.4.4-.1c0-.1 0-.1-.1-.2v.3s0 .1 0 0v-.8c0-.4-.1-.7-.1-.8 0 .1 0-.2-.2-1-.1-.5-.1-.8-.1-1v-.8c-.1-.4-.2-1.6-.2-1.6-.1-.5-.1-.6-.1-.8-.1-.7-.2-2.7-.1-3.3H53c.1.3.1.3 0 0h.1v.2-.3H53c.8 3 1.3 6.3 1.9 9.4.1.4.1.9.1 1.4h.1c-.1-.6-.1-1.5-.1-2.2 0-.7 0-1.3-.1-1.9v-4.7V43v-4.2c0 .7.1-1.4.3-2.2-.1.4-.1.8-.2 1.3.1-1 .3-1.8.5-2.7-.1.1-.1.3-.1.5 0-.2.1-.4.2-.6.1-.1.1-.2.2-.2.1-.1 0-.1.1 0 .2.1.2.3.3.5.1.2.2.4.2.6.3.8.5 1.6.8 2.4.5 1.5.9 2.9 1.3 4.3.3 1-.6-2-.3-1.1.5 1.7 1 3.4 1.2 3.9.5 1.3.4 1.8 1.1 2.5.3-.3.3-.6.2-.9 0-.3 0-.7-.1-1.2 0 .3 0 .6-.2-1.2-.2-1.7-.2-2.1-.1-1 .1.4.1.6.1.6.1.6.1 1.3.1.6v-.2c-.1-.9-.4-3.2-.3-2.7-.2-1.3-.1-.6 0 .4-.1-.8-.2-1.5-.3-2.2v-1.5c0-.2-.1-.3 0-.4l-.1-.1c.1.5.2 1 .2 1.5v-.3c.2 3.4.1 1.5.3 3.7.1 1.3-.1-.5.1 1.8.1 1.4 0 .3-.1-.3.1.6.1 1.2.2 1.8v1.5h.2c-.1-.7-.1-1.3-.2-1.7l.1 1.1c-.1-.7-.1-1.2-.2-1.7v.6c0-.3-.1-.6-.1-.8v-.3c-.1-.7 0 .5-.1-.8-.1-.9-.3-2.6-.3-2.9.3 2.7 0-.3.3 2-.1-.4-.1-1-.2-1.6v.3c0-.3-.1-.6-.1-.8 0-.2-.1-.3-.1-.5v-.5l-.1-.2-.1-.1h-.1c0 .1 0 .1-.1.2v.7c0 .3 0 .6-.1 1 0-.3-.1.6-.1 1.1.1-1.1.1-.5 0 .5v2.8-1 2.4-.7 2.2c.1.8.1 1.7.2 2.6v.8c.2 1.5 0 2 .4 3.1l.2.7v-.7c0-.4 0-.8-.1-1.4 0 .6.1.7-.1-.8.1.7.2 1.4.2 2.2v.5l-.2-.4c-.2-.5-.2-.9-.3-1.4 0 .5.1.9.3 1.4l.1.4v-.4c0-.3 0-.6-.1-.9v1.3l-.1-.3c-.3-.8-.3-1.6-.3-2 .1 1.1.1 1 .1.5 0 .5.1 1.1.3 1.6l.1.3V56c0-1-.2-2-.3-3.1h.1c-.3-2.6-.5-4.6-.9-7.9l.1 1.1c-.1-.4-.2-2.1-.4-3.1 0 .1 0-.6-.1-1 0 0 0-.1-.1-.3 0-.1-.1-.3-.1-.5-.1-.2-.1-.4-.2-.6-.1.2-.1.5-.2.7V44c.1 2.7.1 3.1.4 5.7-.1-.8 0 .4-.2-1.3 0 .4.1.8.1 1.1 0 .3.1.5.1.5.1.5.3 2.4.4 3.2 0 .1 0 .2.1.3 0 .2.2.2.1.3h.1c0-.2-.1-.4-.2-.7 0-.1 0 0 0 0s-.3-1.5-.2-.7c-.4-2.7-1.4-7.4-1.7-9.7-.2-1.3-.4-2.7-.5-3.9h-.1v1.9-.3c0 2.4.1 1.5.2 4.2 0 1.4-.1-1.4 0-.6-.1.4.1 3.3.2 5.1v-.4 2.2h.2c-.2-.4-.2-1-.3-1.5l-.3-1.8s0 .1 0 0c-.3-1.5-.7-4.5-1-6.6.1.7.2 1 .1.6-.2-1 0 .3-.3-1.6-.1-.3-.1-.8-.2-1.3-.1-.2-.1-.4-.2-.6 0-.1-.2-.1-.2 0-.1 0-.1.1-.1.1.1-.1.2-.1.3-.1.1 0 .1.2.2.2.1.1.1.3.2.4.1.3.2.6.2.9 0-.2-.1-.5-.2-.8 0-.1-.1-.3-.2-.4l-.1-.2c0-.1-.1-.1-.1-.1 0-.1-.1 0-.1 0-.2.1-.3.3-.3.5v1.2-.1 2.9c0 .7 0 1.5.1 3v-.3c.2 1.7.1 1.4.3 3v.5c.1.7.3 2 .6 3.4l.1.4v-.3c0-.8-.1-1.6-.2-2.4.1.6.2 1.4.2 2.4v.5l-.1-.6c-.2-.9-.3-1.8-.4-2.5.1.6.3 1.6.4 2.5v.1l.1-.1c.1-.1.1-.3 0-.4V51c0-.3-.1-.5-.1-.7.1.4.1 1 .1 1.4-.2-1.3-.3-3.1-.6-5.2.1.4-.8-5.6-.8-7.2v-.2h-.2c.1 1.7 0 3.4.1 5.1v2.7c0 .5-.1.9-.1 1.4 0 .2 0 .5-.1.7 0 .1 0 .2-.1.3 0 .1 0 .1-.1.1v-.2c-.1-.2-.1-.4-.2-.6.4 1.5-.4-1.2-.4-1-.3-1-.5-1.4-.5-1.4-.3-1-.7-2-1.1-3-.3-.7.4.9.4.8-.9-2.1-.3-.9-1-2.3.1.1 0 0-.2-.4-.1-.2-.2-.4-.5-.6l-.2-.2-.1-.1c-.1 0-.1-.1-.2-.1s-.1-.1-.2-.1l.2-.2c-.1.2-.1.2-.1.3 0-.1 0-.2.1-.3.1-.1.1-.3.2-.2.3.1.3.2.5.3.2.2.4.5.5.8-.2-.4-.4-.6-.6-.9h-.2c-.1-.1-.2-.1-.3-.1-.1.2-.1.4-.1.5.1.5.1.8.1 1.2.1.7.2 1.4.4 3l-.2-1c.1.8.3 2.3.6 3.7.2 1.5.6 2.9.6 3.7h.2v-.1c0-.3-.1-.7 0 0-.7-3.9-1.8-8.6-2.1-11.6v.3c-.1-.7-.2-1.3-.2-2.2 0 0 0 .3 0 0V37c0-.2 0-.4.1-.6h-.2s0 .3.1.4c0 .2.1.3.1.5 0 .3.1.6.1.9v-1c.5 3.8 1 5.8 1.6 9v.3c0 .2.1.4.1.7.1.6.3 1.3.4 2l.2-.1c-.1-.1 0-.5-.1-.7 0-.2-.1-.5-.1-.7v.1c-.4-2.2-.7-4.1-.9-5.9-.1-.9-.3-1.8-.4-2.8 0-.5-.1-.9-.1-1.4v-.9c0-.1.1-.1.1 0 .1.2.2.5.3.8.1.4.2.9.4 1.3.3 1 .5 2.1.8 3.2.6 2.3 1.1 4.8 1.6 6.8-.1-.3-.1-.3 0-.2 0 .1.1.4.1.7h.2c0-.1 0-.2-.1-.3-.2-1-.6-2.6-.5-2.5l.1.3c-.1-.7-.5-2.7-.8-4.2l-.1-.2c-.3-2.2-1-5.1-1-7.6h-.2v.7c0 .3.1.5.1.8 0 .5.1 1 .1 1.4.1.9.1 1.6.1 2.1.1 1 .2 2.2.3 3.2.2 1.4.3 2.4.4 3.5.1.5.1 1.1.2 1.8.1.6.3 1.3.4 2.2l-.1-.7c.3 1.9.5 2.3.9 4.1h.1l-.1-.5-1.2-4.8c-.4-1.6-.7-3.2-1.1-4.8 0 .1.1.1.2.7-.3-1.5-1.3-5.9-1.2-5.3 0 0 0-.3-.1-.7 0-.2-.1-.5-.1-.7 0-.2-.2-.8-.4-1.1H49l-.1.1c0 .1-.1.1-.1.3v1c0 .5 0 1 .1 1.4v-.3c.1 1.5.1 1.6.2 3.7v-.2c.1 1.7.1 1.3.2 3.3l-.1-1.1c.1 1.7.1 1.6.2 2.5.1.9.3 2.6.4 3.2h.1v-.2c-.1-.2-.3-1.1-.5-2.1 0-.1.1.2.1.4-.6-2.8-1-4.1-1.3-6.1v-.3c.2 1.1.4 2.1.5 2.8.2.7.2.9.2 1 0 0-.4-1.8 0-.4-.2-.7-.4-1.7-.6-2.7-.2-1-.4-2.1-.5-3v-.2.2c-.1-.4 0-.8-.1-1.1v-.1l-.2-.4v.4c0 .5 0 .9.1 1.4 0 .2.2 2.1.3 3 0-.1.2 1.1 0 0 0 .1 0-.2-.1-.8 0-.1 0-.3-.1-.4v.1c-.1-.6-.2-1.4-.2-2.3.1.7.1 1.5.3 2.5.1.5.2 1 .2 1.3.1 1.2.6 3.6.6 4 .1.7.3 1.5.5 2.3.2.8.4 1.7.5 2.3h.1c-.2-.2-.2-.6-.3-.9l-.3-.9c-.2-.6-.3-1.1-.4-1.5-.2-.8-.2-.9-.3-1.2.1.4.2 1 .3 1.2-.2-.8-.5-1.9-.7-2.9-.2-1-.4-1.9-.5-2-.4-2 .3 1.1-.3-1.6l.1.4c-.2-1.1-.4-2.2-.5-3.2h-.2c.1 1.7.3 3.3.5 4.9.2 1.6.4 3.4.5 5.4h.1c-.1-.1-.1-.3-.1-.5s-.1-.4-.1-.6c.1.4.1.6.1.7-.1-.8-.3-1.6-.5-2.4-.1-.8-.3-1.6-.4-2.4-.3-1.6-.6-3.3-.5-4.9h-.1c0 1.5.1 3.1.2 4.6.1 1.5.4 3 .6 4.5h.1c-.2-.6-.4-1.2-.5-1.8-.5-1.9-.6-2-.8-3.2v-.4c-.1-.7-.2-1.3-.3-2-.1-.5-.1-1-.2-1.5v-.2l-.1.2c-.1.3-.1.5-.2.8l-.1.8c-.1.5-.1 1.1-.2 1.6-.1 1.1-.1 2.3 0 3.8v-.5c0 1.3.4 4.1.3 3.9 0 .1.1.4.1.9v.3h.1l-.1-2.9c0-2.5.1.4 0-3.2v-2.3c0-.4 0-.7.1-.8.1-.2.1-.2 0-.1-.1.2-.1.6-.2.9 0 .3 0 .5-.1.5 0-.4 0-.8.1-1.2 0-.1.1-.4.1-.3 0 0-.1.2-.2.5 0 .3-.1.8-.1 1.6v2.8-1.8c0 1 0 1.6.1 2.3v.9l.1 2c0 .2-.1-.9 0 .5 0 1 0-.9.1.7h.2c-.1-1 0-.7-.2-1.9 0-.2 0 .1.1.5-.2-1-.3-2.7-.3-3.3-.1-1 0-3.5.1-3.4 0-.3.1-1.8.2-2.8 0 .8 0 .1.2-.7h-.2c.1 1.1.3 2.6.2 2.3.2 1.2.9 4.4 1.6 6.6h.2v-.2.2h-.2c0-.1-.1-.2-.1-.3 0 .1.1.3.1.3l.2-.1c-.2-1-.2-1.4-.3-2.1-.1-.2-.3-2.1-.4-3.2-.1-1.6.1 1 .1.5-.1.1-.2-2.7-.2-2.2v-1.7c0-.1 0-.2-.1-.4l-.1-.5-.1.5v.7c0 .3.1.6.1 1 .1 1.8-.1.5.3 2.4.1.9-.2-.8-.2-.8zm1.6-2.6c0-.4-.1-.7-.1-.9 0 .2.1.5.1.9zm.7 3.8c-.1-.5-.2-1-.3-1.6 0-.1 0 0 .1.4-.1-.2.1.7.2 1.2zm-.7-2.9c-.1-.6-.1-.8-.1-.9 0 .3.1.6.1 1.1v.1-.3zm.1 1.1v.2-.6.4z" style="fill:#fff"/><path d="M52.9 39.5c.1 0 0-.1 0 0 .1-.1.1-.1 0 0 .1-.1.1-.1 0 0 0-.1 0-.1 0 0zm-1.7-.2v.3zm.4 1v.3-.3zm1.5 9 .2 1.3c0-.6-.1-1-.2-1.3zm-.6-2.3v-.1.1zm7.1-1.7v.3-.3zm1 2.1c.1-.2 0-.3 0-.5v-.5 1zm-1.5 4.7v.2-.2zm1.3-7.3c.1.6.1 1.1.1 1.5 0-.5 0-1-.1-1.5zm-15.5 3.8v.3-.3zm0 .4v.4-.4zm.1 1.1v-.8.8zm.9-5.9zm1 2.1c0 .1 0 .1-.1.2h.1c-.3-.6-.6-1.4-.9-2.2v-.1c.2.4.7 1.6 1 2.3h-.1c-.1-.1 0-.1 0-.2zm3.7-5.5c-.1-.4-.3-.7-.4-1.1-.2-.3-.2-.8-.5-1 .1.1.2.4.2.4 0 .1 0-.1-.3-.5.3.2.3.5.4.7.1.2.1.3.2.4.1.1 0 .1 0 0-.2-.2-.2-.4.4 1.1zm2 7.1c-.4-1.3 0 0 0 0 .1.7.2.9 0 0zm2.3-3.4v.1-.1zm.8-10c-.3.2-.4.5-.5.9 0 .1 0 .3-.1.4.1-.2.1-.5.1-.7.2-.3.4-.5.5-.6zm2.1 5.4-.2-.4.5 1.6zm-.3 4.3v.3c.2.7.2.8 0-.3zm-3.1.2c0 .4.1 1.5.2 2.2-.1-.9-.1-1.7-.2-2.2zm-2.9-3.7.1.8-.2-1.5z" style="fill:#fff"/></g></g><g style="opacity:.37"><defs><path id="SVGID_9_" d="M76.4 50.5c.2-1.3 1-1 1.4-.9s2.7 1.1 2.7 1.1-4.9-5.6-4.8-6.3c.1-.7 1-1.6 1.5-1.1s3.4 4.3 3.4 4.3l.5-.2s-3.7-4.6-3.8-5.4 0-1.2.4-1.3c.5-.1.9.1 1.7 1.2s3.1 4.3 3.1 4.3l.6-.3s-2.6-4.5-2.7-4.8c0-.4.1-.8.4-.9.3-.1.9-.3 2 1.9s1.7 2.8 1.7 2.8h.4s-2-3.9-1.6-4.6 1.1-.9 1.4-.3c.3.6 1.5 4.1 1.5 4.1s2.2 3.2 2.5 3.6c.3.4 1.9 2.1 1.5 3.2s-2.3 3.3-3.5 3.6c-1.1.3-1.9.7-2.9.2-.9-.5-3.6-1.9-4.3-2.1-.7-.4-3.2-1-3.1-2.1z" style="opacity:.37"/></defs><clipPath id="SVGID_10_"><use xlink:href="#SVGID_9_" style="overflow:visible"/></clipPath><g style="clip-path:url(#SVGID_10_)"><path d="M87.2 54.9c0 .1 0 .1 0 0 0 0 0-.1.1-.2l.3-.3.4-.4-.4.4-.2.2c-.1 0-.3.1-.2.3zm3.6-3.4.7-.7c-.4.2-.5.4-.2.2.1-.1.2-.1.3-.2l-.1-.1-1.2 1.2c-.5.5-1 .9-.9.8-.2.2-.8.7-1.1 1 .8-.5 1.7-1.4 2.5-2.2.3-.2.1 0 0 0zm-12.9-2.6-.3.3.3-.3zm-.2-8.1c.3-.2.4-.3.4-.3-.2.2-.5.4-.4.3zm-2.9 1.9c-.1.1-.3.2-.4.2.1 0 .3-.1.4-.2zm3.1 6.2.9-.7c.1-.1-.4.3-.9.7zm6 6.6.6-.3-.6.3zm-4.2-6.1-.3.2c-.1.1-.2.1-.2.2l.5-.4zm7.2-5.1c.3-.2.3-.3.4-.4l-.5.5s.1 0 .1-.1zm-1.7 8.9-.2.3s.1-.2.2-.3zm-.3-8.6s-.1 0-.1.1c-.1 0 0-.1.1-.1zm0 10c.1-.1.1-.1 0 0zm-1.4.2h.2-.2zm-7.2-13c.4-.3.2-.2 0 0zm7 4.9c1-1-1.6 1.7-.1.2-.1.1 1.4-1.5.1-.2zm.1 8.8h-.1c0-.2.2-.5.3-.6-.1.1-.2.2-.2.3-.1.1-.1.2-.1.3h.1zm-.2-8.6.2-.2-.2.2zm-7-3.4c.1 0 .2-.1.3-.2 0 0-.1.1-.3.2zm4.1-2.9.5-.3c-.2.1-.4.2-.5.3zm5.6-2.2c.3-.2.4-.2.7-.5 0 0-.1 0-.1.1-.1.1-.3.2-.6.4zm-8 6c.1 0 .1-.1.2-.1.1-.1.2-.2.3-.2l-.5.3zm5.3 8.5c.2-.1.4-.2.5-.3-.2.1 1.4-.9-.5.3zm.7 2.6h-.4.4c.1-.1.1-.1 0 0z" style="fill:#fff"/><path d="m86.2 37.9.4-.3c.1-.1.1 0 .1-.1.1-.1.2-.2.4-.1l.2.1-.2.1-.9.7c.2-.2.5-.4.9-.7l.1-.1-.2-.1c-.1-.1-.3 0-.4.1l-.1.1h-.1c.1.1 0 .2-.2.3zM74.5 53.1c.2-.1.3-.1.4-.2-.1.1-.3.1-.4.2zM81.4 42c-.3.2-.6.4-.9.7-.1.1-.1.1-.2.1l1.1-.8zm2.3 10.6z" style="fill:#fff"/><path d="M83.9 53.6c1.6-1.2.7-.6 1-.8 1.9-1.4.9-.6 1.5-1.1 1.2-.9 2-1.6 2.9-2.3v-.1l.1-.1h-.2c-.1 0-.2 0 0 0l.1.2-.1-.2.1.2c0-.1.1.2-.1-.2h-.1c-.1 0-.1 0-.2.1-.1 0-.1.1-.1.1l-.1.1c-.2.1-.4.3-.6.4-.4.3-1 .6-1.4.9-1 .6-2 1.3-2.8 1.8-.1.1-.2.1-.2.1l.3-.1c-.7.5-1.4.9-1.7 1 .5-.3.5-.3.7-.4l-.8.5c-.7.4 1.1-.7 1.1-.7-.9.6-1.9 1.2-2.8 1.7l.1.1c.6-.4 1.1-.8 1.6-1.2.3-.1-2.6 1.9-1.1.9l-.5.3-.1-.2c.2-.2.5-.3.7-.4l.7-.4c-1.4.8 1.1-.7-.2.1-.5.3-.9.4-1.2.7l.2.2c1.4-1 1.9-1.4 3.7-2.8.5-.4-.2.1.3-.3 1.6-1.2 2.2-1.7 2.7-2.2.5-.4.9-.7 2-1.7l.6-.6.4-.4c.1-.1.3-.3.5-.6v-.1c-.2-.1-.2 0-.3 0-.1 0-.2.1-.2.1-.2.1-.3.2-.5.4.2-.2.4-.3.6-.5-2.2 1.7-1.2 1-3.4 2.8.4-.3 1.7-1.3 1.3-1.1-1.4 1.1-1 .8-2.1 1.7l-.3.1c-1.9 1.4-3.9 3-6.2 4.2l.1.1c.1-.2.4-.3.7-.4l.7-.5c-.1.1-.6.4 0 0 1.3-1 2.7-2 4.1-3.1 1.3-1.1 2.7-2.2 4-3.3l-.2-.2c-.6.5-1.2.9-1.8 1.3-.4.3-.8.6-1.2.8-.3.2-.6.3-.2.1-1.3.8-.1.1-.7.4-.7.5-1 .6-.5.3-.9.6-2.3 1.4-3.7 2.2L79 52.7c-.3.2-.7.4-1 .5-.1.1-.2.1-.2.1h-.1s0-.1.1-.1l.1-.1.2-.2c.2-.2.4-.3.5-.4l-.4.3c1.8-1.3 1.9-1.6 3.5-2.8l-.3.3c1.7-1.4 3.4-2.8 5-4.1 1.6-1.4 3.2-2.8 4.5-3.9l-.1-.2c-.3.3-.6.5-.9.7-.5.5-3.7 2.9-4 3.1-2.3 1.5-1.6 1.1-4.8 3.1-.8.5-1.3.8-2.3 1.5l-1.5.9-.8.4c-.3.2-.7.4-1 .6.4-.2.8-.5.8-.5-.4.3-.9.5-1.3.8l.1.1c.8-.3 1.4-.7 1.9-1 .5-.3.8-.5.8-.5 1.2-.8 2.3-1.8 3.5-2.6-.1.1-.7.5-1.1.9 1.9-1.4.4-.2 2.1-1.5l.1-.1c.9-.6 2.8-2.1 4.2-3.2l-.3.2c.3-.2.5-.4.8-.6l-.2-.2c-2.4 1.9-4.7 4-7.3 6.1 1-.8.8-.6 0 .1l-.8.6c-.5.5.8-.7-.2.2-1 .9-.7.6-.1.1l-1.2 1.1.3-.3-.5.5-.4.4-.4.4c-.1.1 0 .1-.1.2 0 .1.1.2.2.2s.1 0 .3-.1c.4-.3.5-.3.6-.4.3-.2.6-.3.8-.5h.1c.8-.4 1.4-.9 2-1.3.6-.4 1.1-.8 1.6-1.2 1-.7 1.9-1.4 3.2-2.3 0-.1 1-.7 1.7-1.3.1-.1.3-.1.5-.3l.5-.5-.7.4c-.9.6-1.6 1.3-2.6 2-.9.7-1.8 1.4-2.8 2.1-1.5 1.1-.4.3-1.1.9-.1.1-2.2 1.6-1.1.8-1.3.9-2.1 1.5-3 2.2l-.2.2h.3c.4 0 .6-.2.9-.3.3-.1.6-.3.9-.5.6-.4 1.3-.8 2.1-1.4-.4.2-.8.5-.6.4.6-.4 1.4-.9 1.3-.9l-.2.1c2.5-1.8 5.3-4.1 7.9-6l-.1-.2c-1.3.8-2.3 1.7-3.3 2.4l.2-.1c-1 .8-2 1.5-3 2.2-1.4 1 .8-.6-.2.1-.4.3-.8.6-1.2.8-.4.3-.7.4-1.1.7-.1.1-.2.1-.2.1h-.1s0-.3.1-.4c.1-.3.3-.7.6-.9.9-1.2 1.8-2.2 2.9-3.4l1.2-1.2.8-.8.4-.4.1-.1.2-.2c.1-.1.1-.3 0-.3h-.5c-.1 0-.2 0-.3.1-.2 0-.4.1-.5.2-.3.1-.7.3-1.1.4-.7.3-1.4.6-2.1 1-1.3.7-2.6 1.4-3.6 1.8l.2-.1c-.8.4-1 .5-1.5.8.1 0 .9-.5.4-.2-.3.2-.6.3-.9.5l.1.2c1.9-1.1 3.6-2.3 5.4-3.5l2.7-1.8 1.4-.9.7-.4.4-.2.1-.1c.1 0 .1-.1.1-.1v-.2c-1.2.9-2.5 1.8-3.8 2.7-1.3.8-2.6 1.7-3.9 2.3-1.3.6-1.6.8-2 1.1-.2.1-.5.2-.8.4-.2.1-.4.2-.7.3-.1 0-.1.1-.2.1-.1.1-.1.1-.2.1-.1.1-.3 0-.2-.1 0 0 0 .1.1.1s.1-.1.2-.1l.1-.1c.1 0 .1 0 .1-.1h-.1c-.1 0-.1.1-.1.1l-.1.1h-.2l.2-.2.3-.3c.4-.4.9-.7 1.4-1.1.9-.7 1.9-1.4 2.9-2 1-.7 1.9-1.3 2.9-2l1.4-1c.2-.2.5-.3.7-.5.2-.2.5-.3.7-.6l.2-.4-.4.2c-.5.2-1 .4-1.4.7-.5.3-.9.5-1.4.8.3-.2.3-.2.8-.5-.5.3-1.5.8-2.3 1.3-.4.2-.8.5-1.1.6-.3.2-.5.3-.5.3-.8.4-.2.1-.7.3-1 .6-2.6 1.5-3.2 1.7-.1 0 .3-.2.5-.3-.3.2-.9.5-1.5.8l.1.2c.7-.4 1.3-.9 1-.6 1.8-1.1 3.3-2.3 4.6-3.3.8-.7 2.9-2.1 3.1-2.4-.1.1 2.3-1.7 3.5-2.7l.1-.1-.2-.1c-.2-.1-.4.1-.4.1s-.1.1-.2.1c.4-.3-1 .6-.5.3-1.3.8-2.4 1.6-2.2 1.4-2.3 1.5-4.8 2.9-6.2 3.6-.3.2-.7.4-1 .5l-.2.1h-.2l.1-.1c.1-.1.3-.3.5-.4.4-.2.8-.5 1.1-.7.7-.5 1.5-1 2.2-1.5 1.4-1 2.8-1.9 4.2-2.8-.1.1-3.7 2.5-3.5 2.4 1.5-1 2.6-1.8 3.8-2.6l1.8-1.2c.6-.4 1.2-.9 2-1.2l-.1-.1c-.1.2-.4.3-.6.5-.8.5.3-.2.6-.5l.1.2h-.1.1l-.1-.2c-.6.7-1.5 1.1-2.3 1.6-.8.5-1.6.9-2.3 1.4-.8.5-1.5.9-2.3 1.3-.8.4-1.5.8-2.3 1.2 0 0 .3-.2.6-.3-.6.3-1.4.7-1.3.7l.7-.2c.5-.2-.1.1-.8.5-.7.4-1.6.7-1.7.8.3-.1.2-.1 0 0s-.5.2-.9.3l-.4.2s.1-.1.3-.2c-.1 0-.2.1-.2 0 0 0 .1 0 0 0 .3-.2.3-.2.2-.1.3-.2.6-.4.7-.5.2-.2.4-.3.5-.4l1.5-1s-.1.1-.2.1c-.1.1-.2.2-.3.2.9-.6 1.8-1.2 3.4-2.2-.1.1.1 0-.4.3.3-.2.5-.3.7-.5v-.2c-.7.3-1.2.6-1.7 1-.5.3-1.1.7-1.6 1-1.1.7-2.2 1.3-3.5 2.1.9-.6-1 .6-1.2.7-.2.1-.3.2-.5.4l-.1.1.1.1c.1.1.3.1.4 0l.2-.2.6-.3-.7.4c1.5-.8 2.6-1.7 3.8-2.4l-1 .7c.8-.6 1.7-1.2 2.5-1.7l-1.5.9c1.4-.9-.2 0 1.7-1.1-.4.3 1.4-.9 2.1-1.2h.2c-.1.3-.3.6-.6.9l-1 1c-.2.2.1-.2 0-.1-.3.3-.9 1-1.6 1.7-.7.7-1.4 1.4-1.8 1.7.2-.2.2-.3.2-.2l-.4.6c-.6.5-.6.6-.6.5-1.7 1.6.5-.5-1.4 1.4l.4-.4c-.5.5-1 .9-1.4 1.4-.2.2-.5.4-.7.7l-.3.3c-.1.1-.2.3-.3.4 0 .1 0 .2.1.2s.2.1.2.1c.2 0 .3.1.5 0 .3-.1.6-.2.9-.2l1.8-.6c.3-.1-.2.1-.7.3-.5.2-1 .3-.6.2.9-.3 1.7-.6 2.6-1 .8-.4 1.6-.8 2.5-1.2 1.6-.9 3.3-1.6 4.8-2.5l-.6.3c.2-.1.6-.3 1.1-.6.5-.3 1.2-.6 1.9-1.1l.4-.3-.4.2c-.3.1-.5.3-.8.5.4-.2.5-.3.4-.3-1 .6-2 1.4-3 2.2-1.1.8-2.3 1.8-3.7 2.9l.3-.3c-.5.4-1.2.9-1.9 1.6l-.3.3.4-.2c.9-.4 1.8-.9 2.4-1.3.4-.2 1.1-.7.7-.4.8-.5 1.6-1 2.3-1.5.3-.2.7-.4 1-.7.3-.2.5-.4.8-.6.3-.2.5-.4.8-.6l-.6.6c-.5.4-1 .9-1.5 1.3l-1.8 1.5c.4-.3.9-.8.6-.5-.9.8-1.8 1.5-2.7 2.2.2-.2.4-.3 1-.7-.4.3-1.1.9-1.8 1.5 1-.8.4-.3-.2.1l.1.1c.2-.1.3-.2.4-.3-.1.1.1-.1 0-.1 1.5-1 .3-.2 2.3-1.6l-.1.1c.8-.6 1.5-1.1 2.3-1.7.4-.2-.8.6-.8.7 1.2-.8 2.2-1.7 3.3-2.5-.5.4-1.2.9-1.6 1.3 1.1-.8 1.3-.9 2.1-1.6l-.1.1 1.9-1.5-.5.4c.2-.1.3-.3.5-.4H88c-1.1 1.1-2.4 2.2-4 3.6 1.7-1.6.3-.3.4-.4-.5.4-1.2 1-1 .8-.8.8-1.4 1.2-2.6 2.4-.1 0-.9.9-.7.7-1 1.1.3-.2.2-.1-.5.5-1 1.1-1.6 1.7-.1.2-.3.3-.4.5-.1.1-.1.2-.2.3v.1s-.1.1-.1.2c-.1.3 0 .5.3.7.2.1.4.1.7.2.6 0 1.2 0 1.8-.1.6-.1 1.2-.3 1.8-.5 2-.7 2.7-1.2 4-1.7-.3.4-.6.8-1 1.3-.6.6.4-.6.4-.6-.9 1.1-1.6 1.9-2.5 2.9.1-.1.1-.1 0-.1s-.2.2-.2.4h.1c.4 0 .5-.1.7-.1.1-.1.2-.1.3-.2.2-.1.4-.2 1.1-.6-.2.1-.5.3-.9.6 1.1-.6 2.2-1.3 3.3-1.9.3-.2-.7.4-1.1.7 1.3-.7 3.2-2.1 3.6-2.3l-.8.5c.5-.3.2-.1-.1.1-1.1.7-1.5 1-1.6 1l.8-.5c-.4.2-1.2.7-2.1 1.3-.9.5-1.9 1.2-2.8 1.5.3-.1.5-.2.7-.3-.3.2-.6.3-1 .3 0-.1.1-.3.2-.4l.3-.3c.3-.3.5-.5-.1.2.9-1 .8-.9 1.5-1.8.1-.1 0-.1 0 0l.8-1c-.2.2.2-.2-.4.5.4-.4.7-.8 1-1.1l.1-.1-.1.1c-1.4.6-2.3 1-3 1.2l.2-.1c-.8.3-1.2.4-1.4.5l-.2.1s.2 0-1 .3c-.6.1-1.1.1-1.7.1h-.5c-.3-.1-.8-.2-.7-.2-.2-.2-.2-.3-.2-.4v.1c0 .1.1.3 0-.1 0-.1 0-.2.1-.3 0-.1.1-.2.1-.3.1-.2.3-.4.5-.6.3-.4.7-.8 1-1.1l1.4-1.4.1-.1c.4-.3 1.5-1.4 2.6-2.3-.3.3-1.4 1.3-.3.3.6-.6 2.2-1.9 3.1-2.8 0 0 .5-.5 1.3-1.2v-.1c-.7.6-1.6 1.3-2.5 1.9-.1.1-.7.6-1.7 1.3-1 .7-2.2 1.6-3 2.2-.2.2-1.3 1-2.4 1.7v.1c.2-.2.5-.4.7-.6 0 0-.2.2-.7.6l-.1-.1s.1-.1.2-.1l-.2.1.1.1.9-.7c.3-.2.6-.5 1.3-1.1l-.3.2c.7-.6 1.4-1.2 2.2-1.8.9-.7 1.8-1.5 2.8-2.4 0 0-.1.1-.3.2-.1.1-.3.2-.4.3-.2.2-.2.1.4-.4l.2-.2c.1-.1.2-.1.2-.2l-.2.2-.1.1.1-.1c.2-.1.5-.4.7-.7l-.5.5c.3-.3.4-.3.4-.4l.1-.1.1-.1.1-.1s-.1 0-.1.1c0 0-.4.3-.3.2.1 0 .2-.1.3-.2l.1-.1-.1.1-.1.1.1-.1.1-.1-.3.3c-.2.1-.3.2-.4.2-.3.2-.5.4-.7.5 0 0-.1.1-.8.6-.4.3-.7.5-.8.6l-.3.1c-.1 0 0 0-.5.3-.4.3-1.4.9-1.4.9-.5.3-.5.3-.7.4-.6.4-2.3 1.4-2.9 1.6l.1.1c.2-.2.2-.2 0 0v-.1l.2-.1s-.1 0-.1.1v.1c2.3-2 5-4 7.5-5.9.4-.3.7-.5 1.2-.7l-.1-.1c-.5.3-1.3.7-1.9 1.1-.6.3-1.2.6-1.6.9-.5.2-1.2.6-1 .5-1.3.6-1.4.7-3.2 1.6 1.3-.7-.4.2 1.3-.7-1.7.8-2 1-3.8 1.9.6-.3-1.3.5-2.1.8.4-.1.8-.3 1.2-.4-.9.3-1.8.6-2.6.8.2 0 .3-.1.4-.1-.2.1-.4.1-.6.1-.1 0-.2 0-.3-.1-.1 0-.1 0-.1-.1 0-.2.2-.3.4-.5.1-.2.3-.3.4-.5.6-.6 1.2-1.2 1.8-1.7 1.1-1.1 2.2-2.1 3.3-3.1.7-.7-1.5 1.4-.9.8 1.3-1.2 2.6-2.4 3-2.8 1-1 1.4-1.2 1.7-2.1-.4-.2-.7 0-.9.2-.3.2-.6.4-1.1.6.3-.2.5-.3-1 .7-1.5.9-1.8 1.1-.9.5.3-.2.5-.3.5-.3.5-.3 1.1-.7.5-.3l-.2.1c-.7.4-2.7 1.8-2.3 1.5-1.1.7-.5.3.4-.2-.7.5-1.3.9-1.8 1.2-.3.2-.6.3-.9.5-.1.1-.3.2-.4.2-.2.2-.2.2-.4.2v.2c.4-.3.8-.6 1.3-.9-.3.2-.6.3-.3.2 2.9-1.7 1.3-.8 3.2-2 1.1-.7-.4.3 1.6-.9 1.2-.7.3-.1-.2.2l1.5-.9c.2-.2.5-.3.7-.4.1-.1.2-.1.3-.2 0 0 .1-.1.2-.1h.1l-.1-.2c-.6.4-1.1.7-1.5.9l.9-.6c-.6.4-1 .6-1.5.9l.5-.3c-.3.2-.5.3-.7.4-.2.1-.3.2-.3.2-.6.4.4-.2-.7.5-.7.5-2.2 1.5-2.5 1.6 2.3-1.5-.3.1 1.6-1.1-.4.2-.8.5-1.4.9l.2-.2c-.3.2-.5.3-.7.4-.1.1-.3.2-.4.3-.1.1-.2.2-.4.3-.2.1-.1.2-.2.2v.2h.4c.1-.1.3-.1.5-.2s.5-.2.9-.4c-.3.1.6-.2 1-.4-1 .4-.5.2.4-.2 1.5-.8 1.7-.9 2.5-1.3l-.9.5c.3-.2 1.1-.6 2.1-1.1.1 0-1 .5-.6.3.6-.3 1.3-.7 2-1 .7-.4 1.5-.9 2.3-1.3.7-.4.1 0 .7-.4 1.3-.8 1.8-1 2.6-1.7l.5-.5-.7.3c-.3.2-.7.4-1.2.7.5-.3.6-.4-.6.5.6-.4 1.2-.8 1.9-1.2l.4-.2-.3.4c-.3.4-.7.6-1.1.9.4-.3.8-.5 1.1-.9l.3-.3-.4.2c-.3.1-.5.3-.8.5.3-.2.5-.3.8-.4l.3-.2-.2.3c-.6.6-1.3 1-1.7 1.2.9-.6.8-.5.4-.3.5-.3.9-.5 1.3-.9l.2-.2-.3.1c-.9.4-1.7 1.1-2.6 1.7v-.1c-2.2 1.4-3.8 2.5-6.6 4.4l.9-.6c-.4.3-1.7 1.1-2.6 1.7.1-.1-.5.3-.9.5l-.2.2c-.1.1-.2.2-.4.3l-.4.4c.3-.1.5-.1.7-.2.3-.1.4-.2.6-.2.3-.1.5-.3.6-.3.4-.2.9-.5 1.3-.7 2.4-1.3 2.7-1.5 4.9-2.9-.6.4.4-.2-1.1.8.4-.2.7-.5 1-.6.3-.2.4-.3.4-.3.4-.3 2-1.3 2.7-1.8.1-.1.2-.1.3-.2.1-.1.1-.2.3-.2V38c-.1.1-.3.2-.6.5-.1.1 0 0 0 0s-1.2.9-.5.4c-2.2 1.6-6 4.5-7.9 5.9-1 .8-2.2 1.6-3.3 2.2l.1.1c.7-.3 1.2-.6 1.7-.9-.1.1 0 0-.3.2 2.1-1.1 1.3-.7 3.6-2 1.2-.6-1.3.7-.5.3.4-.1 2.9-1.6 4.4-2.5l-.4.2c.3-.1.6-.3.9-.5.3-.2.7-.3 1.1-.5l-.1-.1c-.2.4-.8.6-1.2 1-.5.3-1 .7-1.5 1 0 0 .1-.1 0 0-1.2.9-3.7 2.6-5.5 3.9.5-.4.8-.6.4-.4-.8.6.3-.1-1.3 1-.3.2-.7.5-1 .8-.2.2-.3.3-.4.5-.1.1 0 .2.1.2l.1.1c-.1 0-.2-.1-.3-.2-.1-.1.1-.2.1-.3.1-.1.2-.2.3-.4.2-.2.5-.4.7-.6-.2.1-.4.3-.6.5l-.3.3-.1.2-.1.1s0 .1.1.1c.2.2.4.1.5.1.1 0 .1-.1.2-.1 0 0 .1-.1.2-.1.3-.1.5-.2.7-.3l-.1.1c1.3-.7 1.9-1 2.6-1.3.7-.4 1.4-.7 2.7-1.5l-.3.2c1.4-.9 1.2-.7 2.6-1.7l.4-.3c.6-.4 1.7-1.2 2.8-2.1l.3-.2-.3.2c-.8.4-1.4.9-2 1.2.5-.3 1.1-.8 2-1.3l.5-.2-.4.3c-.7.5-1.4 1.1-2 1.5.5-.3 1.3-.9 2-1.5l.1-.1-.1-.1c-.2-.1-.3.1-.3.1-.1 0-.2.1-.2.1-.2.1-.3.2-.4.3-.3.2-.5.3-.6.4.4-.2.8-.5 1.2-.8-1.1.7-2.6 1.7-4.4 2.9.3-.3-4.7 3.2-6 3.9h-.2l.1.2c1.4-.9 3-1.6 4.5-2.4l2.4-1.2c.4-.2.8-.4 1.3-.5.2-.1.4-.2.7-.2.1 0 .2-.1.3-.1h.2v.1l-.1.1-.5.5c1.2-1.1-.9.9-.7.8l-1.1 1.1c-.7.8-1.5 1.5-2.1 2.3-.5.6.6-.8.6-.7-1.5 1.7-.6.7-1.6 1.9.1-.1 0 0-.2.4-.1.2-.2.4-.3.7 0 .1 0 .1-.1.2v.5h.2c.2 0 .2-.1.3-.1-.1 0-.1.1-.3.1-.1 0-.3.1-.3-.1 0-.3.1-.4.1-.6.1-.3.3-.6.5-.8-.2.3-.4.7-.5 1v.5c.2 0 .4 0 .5-.1.4-.3.7-.4 1-.6.6-.4 1.2-.8 2.5-1.7l-.8.6c.7-.5 1.9-1.3 3.1-2.2 1.2-.9 2.4-1.8 3.1-2.2l-.1-.2-.1.1c-.2.2-.6.4 0-.1-3.1 2.3-6.8 5.5-9.4 7.1l.2-.2c-.6.4-1.1.7-1.9 1.1 0 0 .3-.1 0 0-.1 0-.2.1-.4.2s-.4.2-.6.2l.1.2s.2-.1.3-.2l.4-.3c.3-.2.5-.4.7-.5l-.7.5c3.1-2.2 4.7-3.5 7.3-5.4 0 0 .1 0 .2-.1s.3-.2.6-.4c.5-.4 1-.9 1.6-1.3l-.2-.2c-.1.1-.4.2-.6.4-.2.1-.4.3-.5.4-1.8 1.3-3.3 2.4-4.9 3.5-.8.5-1.5 1.1-2.3 1.6-.4.2-.8.5-1.2.7l-.6.3-.1.1c-.1 0-.1 0-.1-.1l.6-.6c.3-.3.7-.6 1-.9.7-.7 1.6-1.4 2.5-2.2 1.8-1.5 3.8-3.2 5.4-4.5l-.1.1c.1-.1.3-.3.5-.4l-.1-.2c-.1.1-.2.1-.2.2-.8.6-2.1 1.7-2 1.6l.3-.2c-.6.4-2.2 1.7-3.4 2.6l-.2.2c-1.8 1.3-4.1 3.2-6.4 4.3l.1.2c0-.1.2-.1.3-.2l.3-.2c.2-.1.4-.3.7-.4.4-.3.8-.5 1.2-.7.7-.4 1.4-.8 1.8-1.1.8-.5 1.9-1.2 2.7-1.7v.1c1.1-.7 2-1.3 2.9-1.9.5-.3.9-.6 1.5-1 .5-.4 1.1-.8 1.7-1.3l-.5.4c1.5-1.1 1.9-1.5 3.2-2.6l-.1-.1-.4.3c-1.2 1.1-2.5 2.2-3.7 3.3-1.3 1.1-2.5 2.1-3.8 3.2l.5-.5c-1.2 1-4.7 3.8-4.2 3.5 0 0-.2.2-.6.4-.2.1-.4.3-.6.4-.2.1-.6.5-.8.8v.1l.1.1c.1 0 .2 0 .3-.1.1-.1.4-.2.5-.3l.3-.2c.4-.2.8-.5 1.2-.7l-.3-.4c1.3-.8 1.3-.8 3.2-1.8l-.2.1c1.5-.8 1.1-.7 2.8-1.7l-.6.4c1.5-.9 1.3-.8 2.1-1.3s2.2-1.5 2.7-1.8l-.1-.1c-.1.1-.2.1-.2.1-.2.2-.9.8-1.7 1.4l.3-.3c-2.2 1.8-3.2 2.7-4.8 3.9 0 0-.1.1-.3.2.9-.7 1.7-1.3 2.3-1.7.5-.4.7-.6.8-.7 0 0-1.4 1.1-.3.2-.6.5-1.3 1.1-2.2 1.7-.8.6-1.7 1.3-2.4 1.8-.1 0-.1.1-.2.1l.2-.1c-.3.2-.7.4-1 .6v.1l-.2.4.4-.2c.5-.3.8-.4 1.2-.7.2-.1 1.8-1.1 2.5-1.7-.1 0 .9-.7 0 0 .1-.1-.1.1-.6.5-.1.1-.2.2-.3.2h.1c-.5.3-1.2.8-1.9 1.2l2.1-1.4c.4-.3.8-.6 1-.8 1.1-.7 3-2.1 3.3-2.3.6-.4 1.2-1 1.8-1.5.6-.5 1.3-1.1 1.9-1.5l-.1-.1c-.1.3-.5.5-.7.7-.2.2-.5.4-.7.6-.4.4-.8.7-1.2 1-.6.5-.7.6-.9.8.3-.3.7-.7.9-.8-.6.5-1.5 1.3-2.3 1.9-.8.6-1.5 1.2-1.6 1.3-1.6 1.2.9-.7-1.3 1l.3-.2c-.9.7-1.8 1.3-2.6 1.9l.1.2c1.4-.9 2.8-1.7 4.2-2.6 1.4-.9 2.9-1.9 4.6-2.8v-.1c-.1.1-.3.2-.4.3-.2.1-.3.2-.5.4.3-.3.5-.4.6-.4-.7.5-1.3 1-1.9 1.5-.7.5-1.3 1-2 1.5-1.3 1-2.7 2-4.1 2.6v.1c1.3-.7 2.7-1.5 4-2.3 1.3-.8 2.5-1.7 3.8-2.6l-.1-.1c-.4.5-.9.9-1.3 1.3-1.4 1.3-1.6 1.4-2.5 2.2l-.3.2c-.5.4-1.1.8-1.6 1.2-.4.3-.9.6-1.3.8l-.4.1.2-.1c.3-.1.5-.1.8-.2l.7-.3 1.5-.6c1-.4 2.1-.9 3.4-1.7l-.4.2c1.2-.6 3.5-2.2 3.3-2 .1-.1.3-.3.8-.5l.2-.1-.1-.1-2.5 1.4c-2.2 1.1.3-.2-2.9 1.4-.6.3-1.4.7-2.1 1-.3.1-.6.3-.8.3h-.1c.3 0 .6-.2.8-.2.3-.1.5-.2.5-.2-.4.2-.7.3-1.1.4-.1.1-.4.1-.3.1 0 0 .2 0 .6-.1.3-.1.8-.3 1.5-.6.6-.3 1.2-.6 1.8-1l.6-.3-1.6.8c.9-.4 1.4-.8 2.1-1.1l.8-.4 1.8-1c.2-.1-.8.5.4-.2.8-.5-.8.4.6-.4l-.1-.1c-.8.5-.6.4-1.6 1-.1.1.1-.1.4-.3-.9.6-2.3 1.5-2.8 1.8-.9.5-3.1 1.6-3.1 1.5-.3.1-1.7.7-2.6 1 .7-.3.1 0-.7.2l.1.2c1-.6 2.2-1.4 2-1.3 1-.7 3.5-2.8 5.1-4.4l-.1-.2c-.1 0-.1.1-.2.1 0 0 .1-.1.2-.1l.1.2c-.1.1-.2.2-.2.3l.3-.3-.1-.2c-.8.6-1.1.8-1.7 1.2-.1.1-1.8 1.3-2.7 1.8-1.4.8.8-.5.4-.3.1 0-2.4 1.4-1.9 1.2-1.1.6-.9.5-1.5.7-.1.1-.2.1-.3.2l-.4.3.5-.1c.2 0 .5-.1.8-.3.3-.2.5-.3.8-.5 1.5-.9.4-.2 2-1.3.7-.3-.7.8-.7.8zm-3-.3c-.3.2-.6.4-.8.5.2-.1.4-.2.8-.5zM84 51c-.4.3-.8.6-1.3 1l.3-.3c-.2.2.5-.4 1-.7zm-2.3 1.9c-.5.3-.7.4-.8.5.2-.2.5-.3.9-.6h.1c-.1 0-.1.1-.2.1z" style="fill:#fff"/><path d="M82.6 52.3c.1-.1.1-.1.2-.1-.1 0-.2.1-.2.1-.2.1-.2.1-.3.2.1-.1.2-.1.3-.2zm-5.1-3c.1-.1 0 0 0 0 0-.1 0-.1 0 0 0-.1 0-.1 0 0zm.7 1.6.3-.2zm.7-.8.2-.2-.2.2zm7.4-5.4 1-.8c-.5.3-.8.6-1 .8zm-1.8 1.6-.1.1s0-.1.1-.1zm-4.7-5.6c.1 0 .2-.1.2-.1.6-.4.2-.2-.2.1zm1.4-1.8c-.2 0-.3.1-.5.2s-.3.2-.5.3c.3-.1.5-.3.7-.4.2-.1.3-.1.3-.1zm4.8-.8c.1 0 .1-.1.2-.1l-.2.1zm-7.1 2.1c.5-.3.9-.6 1.3-.8-.4.2-.8.5-1.3.8zm10.4 12.1.3-.2-.3.2zm.4-.2.3-.2c-.2.1-.3.2-.3.2zm.9-.6-.6.4c.2-.1.5-.3.6-.4zm-5.7 1.9zm1.5-1.8h.2v-.1c-.4.5-1 1.2-1.5 1.8H85c.3-.3 1.1-1.3 1.6-1.9v.1c-.1.1-.1.1-.2.1zm-6.6-.8c-.3.3-.5.6-.8.9-.2.3-.6.6-.7.9.1-.2.2-.4.3-.4.1 0-.1 0-.3.5.1-.3.3-.5.4-.7.1-.2.2-.2.2-.3.1-.1 0 0 0 0 0 .2-.1.2.9-.9zm5.4-5c-.9.9 0 0 0 0 .6-.5.7-.6 0 0zm-4-.6.1-.1c-.9.5 0 .1-.1.1zM71.8 49c.3.1.7.2 1 .1.1-.1.3-.1.4-.1-.2.1-.4.1-.7.2-.2-.1-.4-.1-.7-.2zm4-4.2-.3.2 1.2-1.1zm3.9-1.8.3-.2c.5-.3.6-.5-.3.2zm1.6 2.7c.4-.2 1.3-.8 1.8-1.2-.6.5-1.4 1-1.8 1.2zm-2 4.3.6-.5-1.1.9z" style="fill:#fff"/></g></g><path d="M39 69.3c-.2-.4-.1-.5-.4-.9-.1 0-.6.2-1 .5-.2.2-.4.5-.7.7-.2.2-.6.2-.9.5-.2.2-.5.4-.8.6-.2.2-.3.6-.6.8-.2.2-.6.4-.8.6-.2.3-.5.5-.7.7-.2.3-.3.6-.4.9-.2.3-.3.6-.5.9-.1.3-.1.7-.1 1 0 .3-.1.6-.2 1 0 .3-.1.6-.1 1v1c0 .3.1.6.1 1v2c0 .3.1.6.1 1 0 .3-.2.7-.2 1 0 .3.3.6.4 1v1c0 .3-.1.7 0 1 0 .3.2.6.3 1 0 .3-.1.7 0 1v1c0 .3.2.6.2 1v1c0 .3-.1.7 0 1 0 .3 0 .7.1 1 0 .3.1.7.1 1 0 .3.3.6.3 1 0 .3-.1.6-.1.9-.3.1-.5.3-.8.5-.3.2-.5.4-.7.7-.2.2-.3.6-.5.9-.2.3-.5.5-.6.8-.3.5-.3.8-.3.8.5.2.5.2.9.3 0 0 .1-.3.3-.8.1-.2.4-.4.6-.7.2-.2.4-.4.6-.7.2-.2.4-.6.6-.7 0 .3.2.7.2.9v.9c0 .3-.1.7-.1.9 0 .5.2.8.2.9.5 0 .5-.1 1-.1 0 0 0-.4-.1-1 0-.3-.1-.6-.2-.9 0-.3 0-.6-.1-.9 0-.3-.1-.7-.1-1 .3.1.6.4.9.6.2.2.5.4.7.7.2.3.4.6.5.9.2.4.2.7.3 1 .5-.1.4-.2.9-.5 0-.1-.1-.4-.3-.9-.1-.3-.4-.6-.6-.9l-.6-.9c-.2-.3-.5-.6-.8-.8-.3-.2-.8-.1-1.2-.1 0-.3-.1-.7-.1-1.1 0-.3.1-.6.1-1 0-.3-.2-.6-.2-.9v-1c0-.3-.3-.6-.3-.9 0-.3 0-.6-.1-1 0-.3.2-.7.2-1 0-.3-.3-.6-.3-.9 0-.3.2-.7.2-1 0-.3-.1-.6-.1-1 0-.3-.1-.6-.1-1 0-.3-.1-.6-.2-1 0-.3 0-.7-.1-1v-2c0-.3-.2-.6-.2-1 0-.3 0-.7-.1-1 0-.3.2-.7.2-1 0-.3-.2-.7-.2-1 0-.4.1-.7.1-1 0-.4-.1-.7 0-1 .1-.3.4-.6.6-.9.1-.3.3-.6.5-.9.2-.3.3-.6.5-.8.2-.3.3-.6.5-.9.2-.2.4-.6.7-.8.3-.2.7-.2 1-.4.3-.2.4-.6.7-.8.3-.2.6-.4.8-.6.7-.1 1-.2 1.1-.2zm61.4-14.8c-.3.1-.6.1-.8.1-.3 0-.6-.1-.8-.2l-.3.9-.3.9-.3.9c-.1.3-.3.6-.4.9-.1.3-.2.6-.4.9-.1.3-.3.6-.4.9l-.3.9c-.1.3-.3.6-.4.9-.1.3-.3.6-.4.9l-.3.9c-.1.3-.3.6-.5.8-.2.3-.2.6-.3.9-.2.3-.4.6-.5.8-.2.3-.4.6-.6.8l-.7.7c-.3.2-.6.3-.9.4-.3.2-.5.4-.8.5l-.9.3-.9.3-.9.3c-.3.1-.6.2-1 .2-.3.1-.7.1-1 .2-.3.1-.6.2-1 .3-.4.1-.7-.1-1 0-.5.1-.9.2-.9.2-.1-.5-.1-.5-.1-1 0 0 .4-.1 1-.1.3 0 .6 0 1-.1.3-.1.6-.1 1-.2.3-.1.6-.2 1-.2.3-.1.6-.2 1-.3.3-.1.6-.2 1-.3.3-.1.6-.3.9-.4.3-.1.6-.2.9-.4.3-.2.7-.3.9-.4.3-.2.5-.5.7-.8.2-.2.4-.5.6-.8.2-.3.3-.5.5-.9.2-.3.4-.5.6-.8.1-.3.2-.6.4-1 .1-.3.4-.6.5-.9.1-.3.3-.6.4-.9.1-.3.2-.6.4-1 .1-.3.3-.6.5-.9.1-.3.1-.7.2-1 .1-.3.2-.7.3-1 .1-.3.3-.6.4-.9.1-.3.2-.6.3-1 .1-.3.1-.6.3-.9-.3-.2-.5-.5-.6-.7-.2-.3-.4-.6-.5-.9-.1-.3 0-.7 0-1 0-.4.1-.7.2-1 .1-.4.2-.8.3-1 .5.1.5.2.9.5 0 0-.2.6-.3 1.1-.1.3-.2.7-.1 1.1.1.3.3.5.6.9.1-.4.2-.6.3-.9.1-.4.4-.7.5-1 .2-.6.2-1 .2-1 .5.1.5 0 1 .2 0 .1-.2.4-.3.9-.1.2 0 .6-.2.9-.1.3-.4.5-.5.8l-.3.9c.4.2.8.2 1.2.1.3-.1.6-.3.9-.5.3-.2.5-.5.7-.8.4-.4.6-.8.6-.8.4.2.4.3.8.6l-.6.6c-.2.2-.3.5-.6.8-.2.2-.5.4-.8.6-.5.1-.8.1-1.1.2z" style="fill:#31458b"/></g></svg>