<svg xmlns="http://www.w3.org/2000/svg" viewBox="0 0 131.2 142.8" style="enable-background:new 0 0 131.2 142.8" xml:space="preserve"><style>.st5{fill:#ef7937}.st6{fill:#f5a800}.st7{fill:none;stroke:#ef7937;stroke-width:.925;stroke-miterlimit:10}.st8{fill:#ee8e39}.st9{fill:#f5a800}.st10{fill:none;stroke:#ef7937;stroke-width:.8491;stroke-miterlimit:10}.st11{fill:#ee8e39}.st12{fill:#f5a800}.st13{fill:none;stroke:#d9413d;stroke-width:.8491;stroke-miterlimit:10}.st14{opacity:.37}.st15{clip-path:url(#SVGID_2_)}.st16{clip-path:url(#SVGID_4_)}.st17{clip-path:url(#SVGID_6_)}.st18{clip-path:url(#SVGID_8_)}.st19{clip-path:url(#SVGID_10_)}.st20{clip-path:url(#SVGID_12_)}.st21{clip-path:url(#SVGID_14_)}.st22{clip-path:url(#SVGID_16_)}.st23{clip-path:url(#SVGID_18_)}.st24{clip-path:url(#SVGID_20_)}.st25{fill:none;stroke:#ee8e39;stroke-width:.925;stroke-miterlimit:10}.st26{clip-path:url(#SVGID_22_)}.st27{clip-path:url(#SVGID_24_)}.st28{clip-path:url(#SVGID_26_)}.st29{clip-path:url(#SVGID_28_)}.st30{clip-path:url(#SVGID_30_)}.st31{fill:none;stroke:#d9413d;stroke-width:.925;stroke-miterlimit:10}.st32{clip-path:url(#SVGID_32_)}.st33{clip-path:url(#SVGID_34_)}.st34{clip-path:url(#SVGID_36_)}.st35{clip-path:url(#SVGID_38_)}.st36{clip-path:url(#SVGID_40_)}.st37{fill:#ee8e39}.st38{fill:#6594d9}.st39{fill:#ee8423}.st40{fill:#f18a50}.st41{fill:#019788}.st42{fill:#32867a}.st43{fill:#f67258}.st44{fill:#de5956}.st45{opacity:.5}.st46{fill:#4b5d9a}.st48{fill:#21a497}.st49{fill:#f7846d}.st50{fill:#26a59a}.st51{opacity:.65;fill:none;stroke:#fff;stroke-width:.2;stroke-miterlimit:10}.st52{fill:#f8dd91}.st53{fill:none;stroke:#31458b;stroke-miterlimit:10}.st54{fill:#ef7937}.st55{fill:none;stroke:#f5a800;stroke-miterlimit:10}.st55,.st56,.st57{stroke-width:.2}.st56{fill:none;stroke:#4db6ac;stroke-miterlimit:10}.st57{stroke:#ff8a65}.st57,.st58,.st59,.st60,.st61{fill:none;stroke-miterlimit:10}.st58{opacity:.65;stroke:#fff;stroke-width:.5}.st59{stroke:#ef7937}.st60{stroke:#147467}.st61{stroke:#d9413d}.st62{fill:#ee8e39}.st63,.st64,.st65{fill:#f8dd91}</style><g id="Calque_1"><path d="M76.4 114.8s-24.4-.3-29.7 1.4c-5.3 1.7 13.7 6.7 23.8 5.8 10-1 17.5-4.3 14.5-5.4s-6-1.5-8.6-1.8z" style="opacity:5.000000e-02"/><path d="M67.9 103.3c-.1.6 0 .6 0 1.2s.2.6.2 1.2-.1.6 0 1.2c0 .6 0 .6.1 1.2 0 .6.1.6.1 1.2v1.2c0 .6.1.6.1 1.2s0 .6.1 1.2c0 .6.1.6.2 1.2v2.4c0 .5.5.8 1 .8.6 0 .6 0 1.3-.1.6 0 .6-.1 1.3-.2.6 0 .7-.8.1-1-.6-.1-.6 0-1.2 0s-.6.1-1.2.1c-.3-.1-.2-1.1-.3-1.4 0-.6 0-.6-.1-1.1 0-.6-.1-.6-.2-1.1v-1.1c0-.6 0-.6-.1-1.1 0-.6 0-.6-.1-1.1 0-.6-.1-.6-.1-1.1 0-.6-.1-.6-.1-1.1 0-.6-.1-.6-.1-1.1v-1.1c0-.6.1-.6 0-1.1 0-.6-.2-.6-.2-1.1s.5-1.1 0-1.2c-.6-.1-.2.6-.5 1.1-.1.3-.2.3-.3.8zm-5.2 0c.1.6 0 .6-.1 1.2v1.2c0 .6-.1.6-.1 1.2s0 .6-.1 1.2c0 .6.1.6.1 1.2s-.2.6-.2 1.2.1.6.1 1.2-.1.6-.2 1.2c0 .6 0 .6-.1 1.2 0 .6-.1.6-.1 1.2v1.2c0 .5-.4.8-.9.8-.6 0-.6 0-1.3-.1s-.6.1-1.3 0c-.6 0-.6-.8-.1-1 .5-.1.5-.2 1-.2s.5.2 1 .1c.3-.1.7-1.1.8-1.5 0-.6-.2-.6-.1-1.1 0-.6.1-.6.1-1.1 0-.6.1-.6.1-1.1 0-.6-.1-.6 0-1.1v-1.1c0-.6.1-.6.2-1.1v-2.2c0-.6.1-.6.1-1.1 0-.6 0-.6.1-1.1v-1.1c0-.6-.4-.9.2-1 .5-.1.1.5.3 1 .3.3.4.2.5.8z" style="fill:#ef7937"/><path d="M66.5 35.9c.2.1.4.9.5 2.7 0 .8.3 1.8.3 3 0 .9-.2 1.9-.2 3 0 .9-.3 1.9-.3 3v3c0 1 .4 2 .4 3v6c0 1-.4 2-.3 3 0 1 0 2 .1 3 0 1 .2 2 .2 3v3c.1 1.1.1 2.1.2 3 .2 1.6.4 2.8.7 2.9.6.3 1.7.5 2.9.6 1 0 2-.2 2.9-.2 1.6-.1 1.5-.1 2.9-.2 1.5-.1 1.3-.3 3.1-.3.9 0 2 .3 3.1.3 1 0 2.1-.4 3.1-.4 1.1 0 2.2.3 3.1.3 1.4 0 2.5-.3 3.1-.3.7 0 .6 1 .3 2.6-.1.8-.3 1.7-.5 2.8-.1.8-.3 1.8-.5 2.8.1.5.5 1.5.4 2.5-.1.9-.5 1.8-.6 2.8-.1.9-.3 1.9-.3 2.8 0 .9.3 1.9.3 2.9 0 .9-.1 1.9 0 2.9.1.9.2 1.9.3 2.8.1.9.3 1.8.5 2.8.1.9.1 1.9.2 2.9.1.4-.7.7-2.4.8h-2.8c-.9 0-1.8-.1-2.8-.1-.9 0-1.9.1-2.8.1-.9-.1-1.9-.1-2.8-.1-1-.1-1.9-.5-2.8-.6-1-.1-2 .1-2.8 0-1.2-.1-2.2-.4-2.8-.3-.6 0-1.5.2-2.8.3-.8 0-1.7.5-2.7.6h-2.8c-.9 0-1.8-.2-2.8-.2-.9 0-1.8.4-2.7.4-.9 0-1.9 0-2.8.1-.9 0-1.9-.2-2.8-.2-1 0-1.9.3-2.8.3-1 0-2-.3-2.7-.4-1.4-.1-2.6-.1-2.8-.4-.5-.6-.7-1.8-.8-3.1 0-.9.3-2 .4-3.1.1-1 .4-2 .5-3 .1-1 .1-2.1.2-3.1.1-.8-.3-1.8-.2-2.9 0-.9.6-1.9.6-2.9s-.5-1.9-.6-2.9c0-1 .5-2 .5-2.9 0-1.1-.6-2-.6-2.9 0-1.7.3-1.5.3-2.9-.1-1.5-.4-1.2-.5-3.1 0-.9.4-2 .4-3.1 0-1-.1-2-.1-3.1 0-1-.4-2.1-.4-3.1 0-1.1.2-2.1.3-3.1v-3.1c.1-.8.2-1.7.2-2.7v-2.8c0-.9-.1-1.8-.1-2.8 0-.9-.1-1.8-.1-2.8 0-.9.1-1.9.1-2.8 0-1 .3-1.9.3-2.8 0-1-.2-1.9-.2-2.8 0-1.1.1-2 .1-2.7.9-1.7 1-1.8 3.3-1.8.5 0 1.5.1 2.9 0 .9 0 1.8-.3 2.9-.3.9 0 1.9.2 2.9.2s2 .1 2.9.1c1 0 2-.1 2.9-.1 1.1 0 2.1-.1 2.9-.1 1.5.1 2.5.1 2.8.2z" style="fill:#f5a800"/><path d="M59.5 81.6s-4.5-4.7-10.6-1.3-5.3 12.5.8 14.4c6.1 1.9 10-.6 11-3.2.9-2.7 1.4-7.4-1.2-9.9z" style="fill:#fff"/><circle cx="53.1" cy="87.7" r="5.3"/><path d="M82.5 81.6s-4.5-4.7-10.6-1.3-5.3 12.5.8 14.4c6.1 1.9 10-.6 11-3.2s1.4-7.4-1.2-9.9z" style="fill:#fff"/><circle cx="76.1" cy="87.7" r="5.3"/><path d="M66.4 100.2c-.1 0-2.7 0-4.1-1.2-1.4-1.2-1.4-3.6-1.4-3.7h1s0 2 1.1 2.9c1.1 1 3.4 1 3.4 1v1zM36.7 84.6c-.1-.3-.3-.5-.4-.8-.1-.3-.1-.6-.2-.9.4-.2.8-.4 1-.7.2-.3.1-.6.2-.9.1-.3.2-.6.2-.9v-.9c-.1-.5-.2-.8-.2-.9-.5.1-.5.1-1 .3.1.2.2.6.2 1 0 .3 0 .6-.1 1 0 .3-.1.7-.3.9-.1.2-.3.3-.4.4-.1-.3-.2-.7-.3-1-.2-.4-.4-.6-.5-.9-.2-.6-.4-1-.4-1-.5.2-.4.3-.8.5 0 0 .1.3.3.8.1.2.2.5.3.8.1.3.3.5.4.8-.3 0-.6-.2-.9-.4-.3-.1-.7-.1-1-.3-.3-.2-.6-.4-.8-.6-.3-.2-.6-.5-.8-.7-.4.3-.3.4-.6.8 0 0 .4.3.9.6.2.2.5.4.8.6.3.2.6.4.9.5.3.1.7.2 1 .3.3.1.7.2 1 .2l.3.9.3.9c.1.3.2.6.3 1l.3.9c.1.3.3.6.4.9.1.3.1.7.2 1 .1.3.4.6.5.9.1.3.3.6.4.9.1.3.3.6.4.9.1.3.2.6.4.9.2.3.4.6.5.9.2.3.2.7.4.9.2.3.5.5.7.8.2.3.3.7.5.9.2.3.5.5.7.7.3.3.5.5.8.6.5.4.8.5.9.6.2-.5.1-.5.2-1 0 0-.3-.2-.8-.6l-.7-.7c-.2-.2-.4-.5-.6-.8-.2-.2-.4-.5-.6-.8-.2-.3-.3-.5-.5-.9-.2-.3-.3-.6-.5-.9-.1-.3-.3-.6-.4-.9-.1-.3-.3-.6-.5-.9-.1-.3-.3-.6-.4-.9-.1-.3-.3-.6-.4-.9-.1-.3-.1-.6-.3-1l-.3-.9c-.1-.3-.2-.6-.3-1-.2-.4-.3-.7-.4-1zm65.1-1.6c-.3-.4-.4-.3-.8-.6l-.6.6c-.2.2-.5.3-.8.5-.3.2-.5.3-.8.4-.3.1-.5.3-.8.3l.3-.9c.1-.3.3-.6.4-.8.2-.5.3-.8.3-.8-.5-.2-.4-.3-.9-.5 0 0-.3.4-.5 1-.1.3-.1.6-.2 1-.1.3-.3.6-.4 1-.3-.2-.4-.6-.5-1-.1-.3-.1-.7 0-1.1 0-.4.1-.8.2-1.1-.4-.2-.5-.2-1-.2-.1.3-.1.6-.1.9 0 .3-.2.6-.2.9 0 .3.1.6.2.9.1.3.2.6.4.9.2.3.4.5.6.6-.1.3-.1.6-.2.9-.1.3-.3.5-.4.8-.1.3-.1.7-.2 1-.1.3-.1.7-.2 1-.1.3-.3.6-.4.9l-.3.9c-.1.3-.3.6-.4.9l-.3.9-.3.9c-.1.3-.2.6-.4.9-.1.3-.4.6-.5.8-.2.3-.3.6-.4.9-.2.3-.3.6-.4.9-.2.3-.4.6-.5.8-.2.3-.4.6-.6.8-.5.5-.8.5-.8.5.1.2.1.2.2.5.1.2 0 .3.1.5.1 0 .4-.1.8-.5l.7-.7c.2-.2.3-.5.6-.8.2-.2.4-.5.6-.8.2-.3.4-.5.6-.8.1-.3.3-.6.4-.9.1-.3.3-.6.4-.9.1-.3.1-.6.3-.9.1-.3.3-.6.4-.9.1-.3.3-.6.4-.9.1-.3.1-.6.2-1 .1-.3.4-.6.5-.9.1-.3 0-.7.1-1l.3-.9.3-.9.3-.9c.1-.3.2-.5.3-.8.3 0 .6-.2.9-.3.3-.1.6-.1.9-.2.3-.1.6-.3.8-.5.3-.2.5-.5.7-.7.2-.3.6-.5.7-.6z" style="fill:#ef7937"/><g style="opacity:.65"><path d="M57 101.1v-.2.2zm-.1-.6v.7-.6.2-.1c0-.3 0-.3-.1-.1.1.1.1 0 .1-.1zm-1.4-.5zm-.8-.2zm-.2-.4c0 .1 0 .1 0 0zm1 .6v-.1.1zm1.2 1.3zm-.8-1.6v-.1.1zm.3 0v.4-.4zm.5.5zm-1-.5v-.1.1zm-8.2 2zm-.3-1.4v-.2.2zm7-1.2c.1 0 .1 0 0 0zm-2.4.2v.6-.6zm4.9 2zm-4.9-1.4zm1.8-.7v.1-.1zm.5.4zm-.7 0zm-.3 0c0 .1 0 .1 0 0 0 .1 0 .1 0 0zm-4.8 2v-.3c0 .2-.1.3 0 .3zm8.4-.4v.1-.1zm-3.4.7c0-.1 0 0 0 0zm-3.2-.3zm3.1.3v-.2.2zm-5-.6c.1 0 .1 0 0 0 .1 0 .1 0 0 0z" style="fill:#fff"/><path d="M48 102v-.6.5c0-.1.1-.4.1-.4v.2c0-.3.1 0 .1-.4v.1-.5s0-.2 0 0v.2-.1.4c0-.1.1-.4.1-.3 0 .3-.1.1 0 .4v-.1.5c.1.1.1-.2.1-.1v-.5c.1-.3.1.9.1.4 0-.2 0-.7.1-.4v.4c.1 0 0-.6.1-.3v.2c0 .3 0-.2.1-.2v.3c.1-.1.1-.3.2-.4v.3c.1-.2.2 0 .2.2v-.3.2-.3.3c.1-.2.2-.5.2-.2v.1c0 .1.1-.6.1-.3v.1c.1.1.2-.1.3.3 0-.4.1.2.1-.4 0 .3 0 .4.1.6 0 0 0-.4.1-.4v.3-.3.4-.3c0-.1.1.2.1.4l.1-.3v.2c0-.3 0 .3 0 0v-.2c0 .2.1.2.1.1v.2c.1.1.1-.1.2-.1v-.5.3-.4.5-.1.3c0-.2.1.3.1 0v.1c.1 0 .1-.1.2-.1v-.4c0 .1.1.3.1.3v-.4c0 .3.1.2 0 .4.1 0 .1-.1.2-.3v-.2.2c.1-.4.2.7.3.2l.1-.3v.4c.1-.4.1.1.2-.2 0 .8.2-.1.2.4v-.2.1-.3c.1-.2.3.3.4.4.1 0 0-.9.1-.5v.3c.1-.4.2 0 .3-.3v.2c0 .2.1 0 .1-.2v.3c0 .1.1-.3.1-.1v.1c0-.1.1 0 .1-.2 0 .1.1-.1.1 0 0-.3.1.1.1-.3 0 .5.1.4.1.2v.3s.1-.1.1-.3c0 .5.1-.4.1.3.1-.2.2-.4.3-.5 0 .5-.1 0-.1.5.1-.2.1-.6.2-.5v.3c.1-.2.1 0 .2-.2v.1-.1.1c0-.3.1-.6.1-.8 0 .6.1.1 0 .9v-.3.3c0-.1 0-.3.1-.3v.3c0-.2 0-.4.1-.3v.1c.1 0 .1-.5.2-.3v.5-.3s.1-.3.1-.1v.2l.1-.1v-.5.2c0-.1 0-.2.1-.2v.5c0-.3.1-.1.1-.4v.3-.3.3-.3.1c.1.1.1-.2.1 0v.4c.1-.1.1-.4.2-.4 0-.5 0 .3.1 0v.2c0 .1.1-.1.2-.3v.1c0 .1.1.1.1.1v-.3c.1.8.2-.4.3.2v.1l.1-.1v-.5.5-.2c0 .4 0-.5.1-.2v.1c0-.1 0-.2.1-.2v.3s.1-.5.1-.2v.5-.1c0-.7.1-.1.1-.6v.9c0-.2 0 .2.1-.2v.3-.3c0-.3.1.4.2-.1.1-.2.1-.5.1-.7v.4c0 .1 0 .1.1 0v.3-.2.4c0-.1.1-.3.1-.4v.4c0-.1.1-.2.1-.4v-.1.3-.3c0-.6-.1.1-.1.1v-.4.3-.6.1-.2c0-.2-.1.3-.1 0-.1.1 0 .3-.1.7v-.8.3-.2.3c0-.3-.1.1-.1-.4v.3c0-.5 0 .1-.1-.2v-.4c0 .5-.1-.1-.1 0 0 .4-.1.2-.1.3 0-.1-.1-.2-.1-.3v-.1c0 .4 0 .3-.1.4v-.4.2-.3s-.1.3-.1.1v.9-.4.1-.2.2-.3s0 .1 0 0v-.3.3-.3.3-.2c0 .1-.1 0-.1.4-.1.3-.1-.2-.2 0v-.1c0 .1-.1.1-.1.3v-.3c0 .1 0 .2-.1 0v-.1c0-.1 0-.2-.1 0v-.2.2h-.1v-.3c-.1-.4-.1.7-.2 0v.4l-.1-.5c0-.2 0 .5-.1.4v.5-.6.1-.2.1c0-.1-.1-.1 0-.3v.3c0-.2-.1 0-.1-.1v.2c-.1-.1 0 .2-.1.3v-.7c0 .2-.1-.2-.1-.2v-.1.3-.1.6c0-.1-.1.1-.1-.2.1.1 0-.3 0-.4v-.1c0-.3 0 .4-.1.3v-.3.4c0-.1 0 .1-.1.1v.3-.2c0 .3-.1-.3-.1-.1v-.4c0 .2 0-.2-.1-.1v.4l.1-.2v.3s0-.1.1-.1v.3c0-.4-.1.2-.1 0v-.6c0-.3-.1.3-.2.2v.1c0 .2 0 0-.1.1v-.4c0 .1 0 0-.1.4v-.3c-.1-.1-.1.6-.1.5v-.5.1c0-.1 0 .3-.1.1v.3-.1.4c0-.6-.1 0-.2-.5 0 .1-.1.1-.1.1v-.1c0-.2 0 .6-.1.4v-.3c0-.6-.1.1-.1-.3 0-.2-.1.2-.1.2v-.1c0 .3-.1.4-.1.5v-.4.5-.5c0-.4 0 0-.1-.1v-.2c-.1.1-.1.4-.1.4v.1c0 .4 0-.2-.1.1v-.4c0 .1-.1.4-.1.5 0-.3.1-.4.1-.6 0 0-.1 0-.1.2v-.1c0 .3-.1.5-.1.5 0-.8-.1-.2-.1-.8-.1.3-.1-.1-.2-.1v.6l-.1-.4v-.7.5c-.1.3 0-.5-.1-.2v-.2c0 .1-.1 0-.2.5v-.3c-.1-.1-.2.5-.2.2v-.1.1-.2c0 .1 0 .3-.1.2v-.2c-.7-.1-.7.5-.8.6 0-.4-.1-.6-.1-.7v-.1c-.1-.1-.2.4-.2.5 0-.5-.2-.2-.2-.5v.4c0-.1-.1.3 0-.1 0-.4 0-.3-.1-.3v.5c-.1-.8-.2.3-.2-.4 0 .1 0 .1-.1.3V99c-.1-.1-.1-.1-.1 0v-.2l-.1.8v-.4c-.1 0-.1-.4-.2 0V99s-.1-.3-.1.3c0-.4-.1 0-.1.1v-.3c0 .4 0 .5-.1.6v-.2c0-.1 0 .3-.1.1v-.2s0 .1-.1.3c0 .1-.1-.1-.1-.3v.3-.2c-.1-.2-.1.3-.1 0v-.2h.1v-.7c0 .2-.1.6-.1.5v-.2c0-.2 0-.1-.1-.1v1.1c0-.4-.1-.6-.1-.8-.1.2-.1.1-.2.6v-.3c0 .1-.1.1-.1.4v-.4c-.1-.6-.2.9-.3.2v.1c-.1-.3-.3.3-.4-.2 0-.1 0 .1-.1.3v-.3.3c-.1.3-.1-.7-.2-.3v.2s-.1.1-.1-.1v.1-.2l-.1.3c0-.1 0-.6-.1-.7 0 .1-.1.5-.1.6v1.7-.3.2-.1.2-.4.5-.5.4c0-.1.1-.1.1-.3 0 .3.1-.1.1.4 0-.1 0-.3.1-.4 0 .5.1 0 .1.6 0-.5.1-.2.1-.5v.4c0-.4 0-.5.1-.7v.8c0-.3.1-.3 0-.6v.4-.4.3c.4.4.4.6.4.6zm.9-.9c0 .1 0 .1 0 0 0 .1 0 .1 0 0 0 .1 0 .1 0 0zm0 0v-.2.2zm-.1-1.9v.1-.1zm0 .4zm6.7.4c0 .1 0 .1 0 0 0 .1 0 .1 0 0zm-5.5 1.7v-.1.1zm5.9-.7s0 .1 0 0c0 .1 0 0 0 0zm.2.1v.1-.1zm.1.1v-.1.1zm-2.1.3c0 .1 0 .1 0 0zm.6-.6v.1-.1zm-1.3 1h-.1zm1.3-.9c0 .1 0 .1 0 0zm2.1.4c0-.1 0-.1 0 0zm0-.1zm.1-.1c0 .1 0 .1 0 0zm-.2 0v.1-.1zm-.1.1v.2-.2c0 .2 0-.2 0 0z" style="fill:#fff"/><path d="M56.4 100s0-.2.1-.2c-.1-.3-.1.2-.1.2zm-.2-.2v-.2.2zm-1 0v-.3.3zm-.2 1.3v.2-.2zm-.1-1.8v.1zm-1.7.1v.3-.3zm-.8.3v-.1.1zm-2.2-.5v-.1z" style="fill:#fff"/></g><g style="opacity:.65"><path d="M83 101.1v-.2.2zm-.1-.6v.7-.6.2-.1c0-.3 0-.3-.1-.1.1.1.1 0 .1-.1zm-1.4-.5zm-.8-.2zm-.2-.4c0 .1 0 .1 0 0zm1 .6v-.1.1zm1.2 1.3zm-.8-1.6v-.1.1zm.3 0v.4-.4zm.5.5zm-1-.5v-.1.1zm-8.2 2zm-.3-1.4v-.2.2zm7-1.2c.1 0 .1 0 0 0zm-2.4.2v.6-.6zm4.9 2zm-4.9-1.4zm1.8-.7v.1-.1zm.5.4zm-.7 0zm-.3 0c0 .1 0 .1 0 0 0 .1 0 .1 0 0zm-4.8 2v-.3c0 .2-.1.3 0 .3zm8.4-.4v.1-.1zm-3.4.7c0-.1 0 0 0 0zm-3.2-.3zm3.1.3v-.2.2zm-5-.6c.1 0 .1 0 0 0 .1 0 .1 0 0 0z" style="fill:#fff"/><path d="M74 102v-.6.5c0-.1.1-.4.1-.4v.2c0-.3.1 0 .1-.4v.1-.5s0-.2 0 0v.2-.1.4c0-.1.1-.4.1-.3 0 .3-.1.1 0 .4v-.1.5c.1.1.1-.2.1-.1v-.5c.1-.3.1.9.1.4 0-.2 0-.7.1-.4v.4c.1 0 0-.6.1-.3v.2c0 .3 0-.2.1-.2v.3c.1-.1.1-.3.2-.4v.3c.1-.2.2 0 .2.2v-.3.2-.3.3c.1-.2.2-.5.2-.2v.1c0 .1.1-.6.1-.3v.1c.1.1.2-.1.3.3 0-.4.1.2.1-.4 0 .3 0 .4.1.6 0 0 0-.4.1-.4v.3-.3.4-.3c0-.1.1.2.1.4l.1-.3v.2c0-.3 0 .3 0 0v-.2c0 .2.1.2.1.1v.2c.1.1.1-.1.2-.1v-.5.3-.4.5-.1.3c0-.2.1.3.1 0v.1c.1 0 .1-.1.2-.1v-.4c0 .1.1.3.1.3v-.4c0 .3.1.2 0 .4.1 0 .1-.1.2-.3v-.2.2c.1-.4.2.7.3.2l.1-.3v.4c.1-.4.1.1.2-.2 0 .8.2-.1.2.4v-.2.1-.3c.1-.2.3.3.4.4.1 0 0-.9.1-.5v.3c.1-.4.2 0 .3-.3v.2c0 .2.1 0 .1-.2v.3c0 .1.1-.3.1-.1v.1c0-.1.1 0 .1-.2 0 .1.1-.1.1 0 0-.3.1.1.1-.3 0 .5.1.4.1.2v.3s.1-.1.1-.3c0 .5.1-.4.1.3.1-.2.2-.4.3-.5 0 .5-.1 0-.1.5.1-.2.1-.6.2-.5v.3c.1-.2.1 0 .2-.2v.1-.1.1c0-.3.1-.6.1-.8 0 .6.1.1 0 .9v-.3.3c0-.1 0-.3.1-.3v.3c0-.2 0-.4.1-.3v.1c.1 0 .1-.5.2-.3v.5-.3s.1-.3.1-.1v.2l.1-.1v-.5.2c0-.1 0-.2.1-.2v.5c0-.3.1-.1.1-.4v.3-.3.3-.3.1c.1.1.1-.2.1 0v.4c.1-.1.1-.4.2-.4 0-.5 0 .3.1 0v.2c0 .1.1-.1.2-.3v.1c0 .1.1.1.1.1v-.3c.1.8.2-.4.3.2v.1l.1-.1v-.5.5-.2c0 .4 0-.5.1-.2v.1c0-.1 0-.2.1-.2v.3s.1-.5.1-.2v.5-.1c0-.7.1-.1.1-.6v.9c0-.2 0 .2.1-.2v.3-.3c0-.3.1.4.2-.1.1-.2.1-.5.1-.7v.4c0 .1 0 .1.1 0v.3-.2.4c0-.1.1-.3.1-.4v.4c0-.1.1-.2.1-.4v-.1.3-.3c0-.6-.1.1-.1.1v-.4.3-.6.1-.2c0-.2-.1.3-.1 0-.1.1 0 .3-.1.7v-.8.3-.2.3c0-.3-.1.1-.1-.4v.3c0-.5 0 .1-.1-.2v-.4c0 .5-.1-.1-.1 0 0 .4-.1.2-.1.3 0-.1-.1-.2-.1-.3v-.1c0 .4 0 .3-.1.4v-.4.2-.3s-.1.3-.1.1v.9-.4.1-.2.2-.3s0 .1 0 0v-.3.3-.3.3-.2c0 .1-.1 0-.1.4-.1.3-.1-.2-.2 0v-.1c0 .1-.1.1-.1.3v-.3c0 .1 0 .2-.1 0v-.1c0-.1 0-.2-.1 0v-.2.2h-.1v-.3c-.1-.4-.1.7-.2 0v.4l-.1-.5c0-.2 0 .5-.1.4v.5-.6.1-.2.1c0-.1-.1-.1 0-.3v.3c0-.2-.1 0-.1-.1v.2c-.1-.1 0 .2-.1.3v-.7c0 .2-.1-.2-.1-.2v-.1.3-.1.6c0-.1-.1.1-.1-.2.1.1 0-.3 0-.4v-.1c0-.3 0 .4-.1.3v-.3.4c0-.1 0 .1-.1.1v.3-.2c0 .3-.1-.3-.1-.1v-.4c0 .2 0-.2-.1-.1v.4l.1-.2v.3s0-.1.1-.1v.3c0-.4-.1.2-.1 0v-.6c0-.3-.1.3-.2.2v.1c0 .2 0 0-.1.1v-.4c0 .1 0 0-.1.4v-.3c-.1-.1-.1.6-.1.5v-.5.1c0-.1 0 .3-.1.1v.3-.1.4c0-.6-.1 0-.2-.5 0 .1-.1.1-.1.1v-.1c0-.2 0 .6-.1.4v-.3c0-.6-.1.1-.1-.3 0-.2-.1.2-.1.2v-.1c0 .3-.1.4-.1.5v-.4.5-.5c0-.4 0 0-.1-.1v-.2c-.1.1-.1.4-.1.4v.1c0 .4 0-.2-.1.1v-.4c0 .1-.1.4-.1.5 0-.3.1-.4.1-.6 0 0-.1 0-.1.2v-.1c0 .3-.1.5-.1.5 0-.8-.1-.2-.1-.8-.1.3-.1-.1-.2-.1v.6l-.1-.4v-.7.5c-.1.3 0-.5-.1-.2v-.2c0 .1-.1 0-.2.5v-.3c-.1-.1-.2.5-.2.2v-.1.1-.2c0 .1 0 .3-.1.2v-.2c-.7-.1-.7.5-.8.6 0-.4-.1-.6-.1-.7v-.1c-.1-.1-.2.4-.2.5 0-.5-.2-.2-.2-.5v.4c0-.1-.1.3 0-.1 0-.4 0-.3-.1-.3v.5c-.1-.8-.2.3-.2-.4 0 .1 0 .1-.1.3V99c-.1-.1-.1-.1-.1 0v-.2l-.1.8v-.4c-.1 0-.1-.4-.2 0V99s-.1-.3-.1.3c0-.4-.1 0-.1.1v-.3c0 .4 0 .5-.1.6v-.2c0-.1 0 .3-.1.1v-.2s0 .1-.1.3c0 .1-.1-.1-.1-.3v.3-.2c-.1-.2-.1.3-.1 0v-.2h.1v-.7c0 .2-.1.6-.1.5v-.2c0-.2 0-.1-.1-.1v1.1c0-.4-.1-.6-.1-.8-.1.2-.1.1-.2.6v-.3c0 .1-.1.1-.1.4v-.4c-.1-.6-.2.9-.3.2v.1c-.1-.3-.3.3-.4-.2 0-.1 0 .1-.1.3v-.3.3c-.1.3-.1-.7-.2-.3v.2s-.1.1-.1-.1v.1-.2l-.1.3c0-.1 0-.6-.1-.7 0 .1-.1.5-.1.6v1.7-.3.2-.1.2-.4.5-.5.4c0-.1.1-.1.1-.3 0 .3.1-.1.1.4 0-.1 0-.3.1-.4 0 .5.1 0 .1.6 0-.5.1-.2.1-.5v.4c0-.4 0-.5.1-.7v.8c0-.3.1-.3 0-.6v.4-.4.3c.4.4.4.6.4.6zm.9-.9c0 .1 0 .1 0 0 0 .1 0 .1 0 0 0 .1 0 .1 0 0zm0 0v-.2.2zm-.1-1.9v.1-.1zm0 .4zm6.7.4c0 .1 0 .1 0 0 0 .1 0 .1 0 0zm-5.5 1.7v-.1.1zm5.9-.7s0 .1 0 0c0 .1 0 0 0 0zm.2.1v.1-.1zm.1.1v-.1.1zm-2.1.3c0 .1 0 .1 0 0zm.6-.6v.1-.1zm-1.3 1h-.1zm1.3-.9c0 .1 0 .1 0 0zm2.1.4c0-.1 0-.1 0 0zm0-.1zm.1-.1c0 .1 0 .1 0 0zm-.2 0v.1-.1zm-.1.1v.2-.2c0 .2 0-.2 0 0z" style="fill:#fff"/><path d="M82.4 100s0-.2.1-.2c-.1-.3-.1.2-.1.2zm-.2-.2v-.2.2zm-1 0v-.3.3zm-.2 1.3v.2-.2zm-.1-1.8v.1zm-1.7.1v.3-.3zm-.8.3v-.1.1zm-2.2-.5v-.1z" style="fill:#fff"/></g><path d="M53.4 37.7c-.2-.2-.2-.5 0-.7.8-.9 2.9-3.4 3.4-5.3.6-2.3 1-6.1 1-6.1s-1.5-1.2-.2-2.6 3.6 1.8 1.4 2.7c-.1 1-.2 1.8-.2 2.4 0 1.3 1.7 1.7 2.4.6.2-.3.3-.5.3-.5s-.8-1.1.4-2 1.9 1 1.3 1.6c-.6.6-1 .5-1 .5s-.2.9-.2 1.7c0 1 1.1 1.6 1.9 1.1.8-.5 1.8-1.4 2.3-3-.3-1.4.2-3.6 2.1-3 1.9.6 1.4 3.5-.8 3.6-.8 1.9-1.9 4.8-.9 5.4 1.1.6 3-1.3 2.9-1.9-.1-.7.2-2.2 1.9-1.5s-.1 2.3-.8 2.1c-.7 1.1.5 2.4 1.6 1.8.8-.4 1.4-.9 1.8-1.5.6-1.4 2.1-1.8 2.7-.5.6 1.3-2 1.3-2 1.3s-5.4 4.4-7.4 10.1c-.1.3-.4.4-.6.3-7.7-2.4-9.5-2.2-13.3-6.6z" style="fill:#f5a800"/><g style="opacity:.6"><path d="M68.1 39.5s.1 0 0 0zm.2 0-.1-.1.1.1c-.1 0-.1 0 0 0-.1 0-.1 0 0 0-.1 0 0 0 0 0zm0-1zm-.4-.5c.1 0 .1 0 0 0 .1 0 0 0 0 0zm0-.1zm.4.6zm-.1.8zm.3-.5zm0 .2zm-.1.3zm.1-.7zm-.6 1zm.4-.1v.1zm-.6-1.7zm-1.6.9c.1 0 .1.1.1 0h-.1zm2.1.6zm-2-.6zm1-.9zm.4.1c-.1 0 0 0 0 0zm-.6 0zm-.2 0zm.8 1.9zm.6-.5zm-1.1-1zm-.3 1.3zm.2-1.3zm.6 1.5z" style="fill:#fff"/><path d="M67.7 39.7v.1-.1.1-.1c0 .2-.1.1 0 .2v.1s0 .1 0 0v-.1.1-.1c-.1-.1 0 0 0-.1v.1c0 .1-.1-.2-.1-.1v.1-.1.1c0-.1 0 0 0 0v-.1l-.1.1v-.1s-.1 0-.1-.1v.2-.1s-.1.1-.1 0c0 0-.1.1-.1 0 0 0-.1 0-.1-.1-.1.1 0-.1-.1 0v-.1h-.2v-.2h-.1c-.1 0 0 0 0 0v-.1s-.1 0-.1-.1c0 0-.1.1-.1 0h.1-.1.2s0-.1 0 0l-.1-.1h-.1V39h-.1.1l-.1-.1c-.1-.1.1-.1 0-.1h.1c-.1-.1 0-.1 0-.1.2 0 0-.1.1-.1 0-.1.1-.1.2-.1 0 0-.1-.1 0-.1v.1c0-.1.1-.1.1-.2v-.1s0-.1 0 0v-.1h.1V38c0 .1.1.1.1 0v.1-.1c0 .1 0-.1.1 0 0-.1.1-.1.1-.1v.1l.1-.1v.1h.1c0-.1.1-.1.1-.1v.2-.1.1s0-.1.1-.1c0 0 0-.1.1 0 0 0 .1-.1.1 0v.1h.1s0-.1.1 0v.1s0 .1-.1.1h.1s.1-.1.1 0c0 0 .1 0 .1.1s0 0-.1 0h.1c.1-.1 0 .1 0 0 0 0-.1 0 0 0l.1.1v.1h.1c-.1.1.1.1 0 .2h.2-.1c-.1 0 .1 0 0 0h-.1.1-.1c.1 0 0 0 .1.1h-.3.1c.1 0-.1 0 0 .1l.1.1h-.2s.1 0 0 0h-.1l.1.1h-.1s0 .1.1.1h-.1c.1 0 0-.1 0-.1h.1-.1.1s.1 0 0 0c.1 0 0-.1 0-.1s-.1 0-.1-.1h.2-.2c.1 0 0-.1.1-.1h-.1c.1 0 0 0 0 0h.1c-.1 0 0 0 0-.1-.1 0 0 0-.1-.1 0 0 0-.1.1-.1h-.1.2s-.1 0-.1-.1c0 0-.1.1-.2 0h.2v-.1h-.1.1-.1s0-.1-.1 0c-.1 0 0-.1-.1-.1h-.1s0-.1 0 0v-.1h.1c0-.1-.2 0-.1-.1v.1-.1c0-.1-.1.1-.1 0 0 0 0 .1-.1.1 0 0 0-.1.1-.1V38l-.1-.1h-.1v-.2s0-.1-.1-.1c0 0 0 .1-.1.1 0 0 0-.1.1-.1 0-.1 0 .1-.1.1v-.1.1c0 .1 0-.1-.1 0v-.1s0-.1-.1 0v.1h.1v.2c0-.1 0 0-.1 0v-.1c0-.1-.1.1-.1 0v-.1.1s0 .1-.1.1v-.1s0 .1 0 0v.2c-.1-.1-.1 0-.2 0l-.1.1v.1-.1c-.1-.1 0 0-.1 0v.2-.1s.1.1 0 .1c0 0-.1 0-.1-.1-.1 0 0 0 0 0v.1c0 .1 0 0 0 0h-.1v.1s0-.1-.1-.1v.1c0 .1.1.1 0 .1-.1-.1-.1 0-.2 0 0 .1-.1.1-.1.2.1 0 0 0 .1.1h-.2s.1 0 0 0h.1c.1.1-.1 0-.1.1 0 0 0 .1.1.1h-.1c0 .1.1.1 0 .2 0 0 .1 0 0 0 0 0 .1 0 0 0 0 .1.1.1.1.1-.1 0-.1.1-.1.1 0 .1.1.1.2.1-.1.1 0 .1 0 .2h.1s.1 0 0 0c-.1.1 0 .1 0 .1l.1-.1c-.1.2.2.1.1.2h.1s0 .1.1.1l.1-.1v.1l.1.1s.1.1.1 0c0 .1 0 0 .1 0v.1c0-.1 0-.1.1-.1h.1v.1-.1s.1-.1.1 0h-.1v.1l.1-.1V40s0-.1 0 0v-.1c0 .1.1.1.1.2 0 0 .1 0 .1-.1 0 0 .1 0 .1-.1 0 0 0 .1 0 0 .1.1.1-.2.2-.1.1 0 .1-.2.3-.1v-.2c0-.1.2 0 .1-.1 0 0 0-.1.1 0v-.1s.1.1.1 0l-.1-.1h-.1c-.1 0-.2-.1-.2-.1l.1.1H68s.1 0 .1.1c0 0-.1 0 0 0v.1H68v.1l-.1-.1c.1.1 0 .1 0 .1h-.1c0 .1 0 .1.1.1-.1.1-.1.1-.2.1.1 0 .1 0 .1.1 0-.1 0-.1-.1-.1.1.1.1 0 0 0zm-.4.2zm0 0c0 .1 0 .1 0 0 0 .1 0 .1 0 0zm.1.4zm0 0s0-.1 0 0zm.9-1.8v.1zm-1.5 1.1v.1-.1zm1.4-.7zm0 .1zm0 .1zm-.7-.9zm.4.1zm-.8 0zm.7 0zm.3 1.1zm0 0zm.1 0c-.1 0-.1 0 0 0zm0-.1zm0 0s-.1 0 0 0c-.1 0 0 0 0 0z" style="fill:#fff"/><path d="M68.5 39.1c0 .1 0 .1 0 0 .1 0 0 .1 0 0zm0-.1c0 .1 0 0 0 0zm-.2-.7zm-.3.1zm.2-.3h-.1zm-1.4-.2c.1 0 .1 0 0 0zm-.4.4zm0 1.6h-.1.1z" style="fill:#fff"/></g><g style="opacity:.6"><path d="M63.4 37.8s.1.1 0 0zm.2 0-.1-.1c0 .1 0 .1.1.1-.1 0-.1 0 0 0-.1 0-.1 0 0 0-.1.1 0 .1 0 0-.1 0-.1 0 0 0zm0-.9zm-.4-.5zm0-.1zm.4.6zm-.1.8zm.3-.6v.1zm0 .3zm-.1.3zm0-.7c.1 0 .1 0 0 0zm-.5.9zm.4 0zm-.6-1.8zm-1.6 1c.1 0 .1.1.1 0 0 0-.1-.1-.1 0zm2.1.6zm-2-.6zm1-1zm.3.1zm-.5 0zm-.2.1zm.8 1.9zm.6-.5zm-1.1-1zM62 38c.1 0 0 0 0 0zm.3-1.3zm.6 1.5z" style="fill:#fff"/><path d="M63 38v.1-.1.1-.1c0 .2-.1.1 0 .2v.1s0 .1 0 0v-.1.1-.1c-.1-.1 0 0 0-.1v.1c0 .1-.1-.2-.1-.1v.1-.1.1c0-.1 0 0 0 0v-.1l-.1.1v-.1s-.1 0-.1-.1v.2-.1s-.1.1-.1 0c0 0-.1.1-.1 0 0 0-.1 0-.1-.1-.1.1 0-.1-.1 0v-.1h-.1l-.2.1v-.2h-.1c-.1 0 0 0 0 0v-.1s-.1 0-.1-.1c0 0-.1.1-.1 0h.1-.1.2s0-.1 0 0l-.1-.1h-.1v-.1h-.1.1l-.1-.1c-.1-.1.1-.1 0-.1h.1c-.1-.1 0-.1 0-.1.2 0 0-.1.1-.1 0-.1.1-.1.2-.1 0 0-.1-.1 0-.1v.1c0-.1.1-.1.1-.2v-.1s0-.1 0 0v-.1h.1v-.1c0 .1.1.1.1 0v.1-.1c0 .1 0-.1.1 0 0-.1.1-.1.1-.1v.1l.1-.1v.1h.1c0-.1.1-.1.1-.1v.2-.1.1s0-.1.1-.1c0 0 0-.1.1 0 0 0 .1-.1.1 0v.1h.1s0-.1.1 0v.1s0 .1-.1.1h.1s.1-.1.1 0c0 0 .1 0 .1.1s0 0-.1 0h.1c.1-.1 0 .1 0 0 0 0-.1 0 0 0l.1.1v.1h.1c-.1.1.1.1 0 .2h.2-.1c-.1 0 .1 0 0 0h-.1.1-.1c.1 0 0 0 .1.1h-.3.1c.1 0-.1 0 0 .1l.1.1h-.2s.1 0 0 0h-.1l.1.1h-.1s0 .1.1.1h-.1c.1 0 0-.1 0-.1h.1-.1.1s.1 0 0 0c.1 0 0-.1 0-.1s-.1 0-.1-.1h.2-.2c.1 0 0-.1.1-.1h-.1c.1 0 0 0 0 0h.1c-.1 0 0 0 0-.1-.1 0 0 0-.1-.1 0 0 0-.1.1-.1h-.1.2s-.1 0-.1-.1c0 0-.1.1-.2 0h.2v-.1h-.1.1-.1s0-.1-.1 0c-.1 0 0-.1-.1-.1h-.1s0-.1 0 0v-.1h.1c0-.1-.2 0-.1-.1v.1-.1c0-.1-.1.1-.1 0 0 0 0 .1-.1.1 0 0 0-.1.1-.1v-.1l-.1-.1h-.1v-.2s0-.1-.1-.1c0 0 0 .1-.1.1 0 0 0-.1.1-.1 0-.1 0 .1-.1.1V36v.1c0 .1 0-.1-.1 0V36s0-.1-.1 0v.1h.1v.2c0-.1 0 0-.1 0v-.1c0-.1-.1.1-.1 0v-.1.1s0 .1-.1.1v-.1s0 .1 0 0v.2c-.1-.1-.1 0-.2 0l-.1.1v.1-.1c-.1-.1 0 0-.1 0v.2-.1s.1.1 0 .1c0 0-.1 0-.1-.1-.1 0 0 0 0 0v.1c0 .1 0 0 0 0h-.1v.1s0-.1-.1-.1v.1c0 .1.1.1 0 .1-.1-.1-.1 0-.2 0 0 .1-.1.1-.1.2.1 0 0 0 .1.1h-.2s.1 0 0 0h.1c.1.1-.1 0-.1.1 0 0 0 .1.1.1h-.1c0 .1.1.1 0 .2 0 0 .1 0 0 0 0 0 .1 0 0 0 0 .1.1.1.1.1-.1 0-.1.1-.1.1 0 .1.1.1.2.1-.1.1 0 .1 0 .2h.1s.1 0 0 0c-.1.1 0 .1 0 .1l.1-.1c-.1.2.2.1.1.2h.1s0 .1.1.1l.1-.1v.1l.1.1s.1.1.1 0c0 .1 0 0 .1 0v.1c0-.1 0-.1.1-.1h.1v.1-.1s.1-.1.1 0h-.1v.1l.1-.1v-.1s0-.1 0 0v-.1c0 .1.1.1.1.2 0 0 .1 0 .1-.1 0 0 .1 0 .1-.1 0 0 0 .1 0 0 .1.1.1-.2.2-.1.1 0 .1-.2.3-.1v-.2c0-.1.2 0 .1-.1 0 0 0-.1.1 0v-.1s.1.1.1 0l-.1-.1h-.1c-.1 0-.2-.1-.2-.1l.1.1h-.1s.1 0 .1.1c0 0-.1 0 0 0v.1h-.1v.1l-.1-.1c.1.1 0 .1 0 .1H63c0 .1 0 .1.1.1 0 .1 0 .1-.1 0 .1 0 .1 0 .1.1L63 38c.1.1.1.1 0 0 0 .1 0 .1 0 0 0 .1 0 0 0 0zm-.4.3zm0 0zm.1.4zm0-.1zm.9-1.7zM62.1 38zm1.4-.8zm0 .1zm0 .1zm-.7-.8zm.4 0s-.1 0 0 0c-.1 0-.1 0 0 0zm-.8.1zm.7-.1zm.3 1.1zm0 0zm0 .1c0-.1 0 0 0 0zm.1-.2zm0 0s-.1 0 0 0c-.1 0 0 0 0 0zm.3-.1c.1 0-.1 0 0 0zm0-.1z" style="fill:#fff"/><path d="M63.5 36.7c.1-.1.1 0 0 0zm-.2.1h-.1.1zm.1-.4h.1-.1zm-1.3-.2c.1.1 0 0 0 0zm-.4.4s-.1 0 0 0zm-.1 1.7z" style="fill:#fff"/></g><g style="opacity:.6"><path d="M59.2 34.5c.1 0 .1 0 0 0zm.2 0-.1-.1.1.1c-.1 0-.1 0 0 0-.1 0-.1 0 0 0zm.1-1zm-.4-.5zm-.1-.1zm.5.6c-.1 0 0 0 0 0zm-.2.8zm.3-.5zm0 .2zm-.1.3zm.1-.7zm-.6 1zm.4-.1v.1zm-.6-1.7zm-1.6.9c.1 0 .1.1.1 0h-.1zm2.1.6zm-2-.6zm1-.9zm.4.1zm-.6 0zm-.2 0h.1zm.8 1.9s.1 0 0 0zm.6-.5zm-1.1-1zm-.3 1.3zm.3-1.3c-.1 0-.1 0 0 0-.1 0-.1 0 0 0zm.6 1.5z" style="fill:#fff"/><path d="M58.8 34.7v.1c.1 0 0-.1 0-.1v.1-.1c0 .2-.1.1 0 .2v.1s0 .1 0 0v-.1.1-.1c-.1-.1 0 0 0-.1v.1c0 .1-.1-.2-.1-.1v.1-.1.1c0-.1 0 0 0 0v-.1l-.1.1v-.1s-.1 0-.1-.1v.2-.1s-.1.1-.1 0c0 0-.1.1-.1 0 0 0-.1 0-.1-.1-.1.1 0-.1-.1 0v-.1h-.2v-.2h-.1c-.1 0 0 0 0 0v-.1s-.1 0-.1-.1c0 0-.1.1-.1 0h.1-.1.2s0-.1 0 0l-.1-.1h-.1V34h-.1.1l-.1-.1c-.1-.1.1-.1 0-.1h.1c-.1-.1 0-.1 0-.1.2 0 0-.1.1-.1 0-.1.1-.1.2-.1 0 0-.1-.1 0-.1v.1c0-.1.1-.1.1-.2v-.1s0-.1 0 0v-.1h.1V33c0 .1.1.1.1 0v.1-.1c0 .1 0-.1.1 0 0-.1.1-.1.1-.1v.1l.1-.1v.1h.1c0-.1.1-.1.1-.1v.2-.1.1s0-.1.1-.1c0 0 0-.1.1 0 0 0 .1-.1.1 0v.1h.1s0-.1.1 0v.1s0 .1-.1.1h.1s.1-.1.1 0c0 0 .1 0 .1.1s0 0-.1 0h.1c.1-.1 0 .1 0 0 0 0-.1 0 0 0l.1.1v.1h.1c-.1.1.1.1 0 .2h.2-.1c-.1 0 .1 0 0 0h-.1.1-.1c.1 0 0 0 .1.1h-.3.1c.1 0-.1 0 0 .1l.1.1h-.2s.1 0 0 0h-.1l.1.1h-.1s0 .1.1.1h-.1c.1 0 0-.1 0-.1h.1-.1.1s.1 0 0 0c.1 0 0-.1 0-.1s-.1 0-.1-.1h.2-.2c.1 0 0-.1.1-.1h-.1c.1 0 0 0 0 0h.1c-.1 0 0 0 0-.1-.1 0 0 0-.1-.1 0 0 0-.1.1-.1h-.1.2s-.1 0-.1-.1c0 0-.1.1-.2 0h.2v-.1h-.1.1-.1s0-.1-.1 0c-.1 0 0-.1-.1-.1H59s0-.1 0 0v-.1h.1c0-.1-.2 0-.1-.1v.1-.1c0-.1-.1.1-.1 0 0 0 0 .1-.1.1 0 0 0-.1.1-.1V33l-.1-.1h-.1v-.2s0-.1-.1-.1c0 0 0 .1-.1.1 0 0 0-.1.1-.1 0-.1 0 .1-.1.1v-.1.1c0 .1 0-.1-.1 0v-.1s0-.1-.1 0v.1h.1v.2c0-.1 0 0-.1 0v-.1c0-.1-.1.1-.1 0v-.1.1s0 .1-.1.1v-.1s0 .1 0 0v.2c-.1-.1-.1 0-.2 0l-.1.1v.1-.1c-.1-.1 0 0-.1 0v.2-.1s.1.1 0 .1c0 0-.1 0-.1-.1-.1 0 0 0 0 0v.1c0 .1 0 0 0 0h-.1v.1s0-.1-.1-.1v.1c0 .1.1.1 0 .1-.1-.1-.1 0-.2 0 0 .1-.1.1-.1.2.1 0 0 0 .1.1H57s.1 0 0 0h.1c.1.1-.1 0-.1.1 0 0 0 .1.1.1H57c0 .1.1.1 0 .2 0 0 .1 0 0 0 0 0 .1 0 0 0 0 .1.1.1.1.1-.1 0-.1.1-.1.1 0 .1.1.1.2.1-.1.1 0 .1 0 .2h.1s.1 0 0 0c-.1.1 0 .1 0 .1l.1-.1c-.1.2.2.1.1.2h.1s0 .1.1.1l.1-.1v.1l.1.1s.1.1.1 0c0 .1 0 0 .1 0v.1c0-.1 0-.1.1-.1h.1v.1-.1s.1-.1.1 0h-.1v.1l.1-.1V35s0-.1 0 0v-.1c0 .1.1.1.1.2 0 0 .1 0 .1-.1 0 0 .1 0 .1-.1 0 0 0 .1 0 0 .1.1.1-.2.2-.1.1 0 .1-.2.3-.1v-.2c0-.1.2 0 .1-.1 0 0 0-.1.1 0v-.1s.1.1.1 0l-.1-.1h-.1c-.1 0-.2-.1-.2-.1l.1.1h-.1s.1 0 .1.1c0 0-.1 0 0 0v.1h-.1v.1l-.1-.1c.1.1 0 .1 0 .1h-.1c0 .1 0 .1.1.1-.1.1-.1.1-.2.1.1 0 .1 0 .1.1 0-.1 0-.1-.1-.1.1.1.1 0 0 0 .1 0 0 0 0 0zm-.4.2zm0 0c0 .1 0 .1 0 0 0 .1 0 .1 0 0zm.1.4zm0 0s0-.1 0 0zm1-1.8-.1.1zm-1.6 1.1v.1-.1zm1.5-.7s-.1 0 0 0c-.1 0 0 0 0 0zm0 .1c-.1 0 0 0 0 0zm-.1.1s.1 0 0 0zm-.7-.9zm.4.1zm-.8 0zm.7 0c.1 0 .1 0 0 0zm.3 1.1zm0 0c.1 0 .1 0 0 0zm.1 0s-.1 0 0 0zm0-.1zm0 0z" style="fill:#fff"/><path d="M59.6 34.1c0 .1 0 .1 0 0 .1 0 0 .1 0 0zm0-.1c0 .1 0 0 0 0zm-.2-.7zm-.3.1zm.2-.3h-.1zm-1.3-.2zm-.5.4zm0 1.6h-.1.1z" style="fill:#fff"/></g></g></svg>