<svg xmlns="http://www.w3.org/2000/svg" viewBox="0 0 131.2 142.8" style="enable-background:new 0 0 131.2 142.8" xml:space="preserve"><style>.st5{fill:#31458b}.st6{fill:#91bdfa}.st7{fill:none;stroke:#ef7937;stroke-width:.925;stroke-miterlimit:10}.st8{fill:#4f84d3}.st9{fill:#91bdfa}.st10{fill:none;stroke:#31458b;stroke-width:.8491;stroke-miterlimit:10}.st11{fill:#4f84d3}.st12{fill:#91bdfa}.st13{fill:none;stroke:#d9413d;stroke-width:.8491;stroke-miterlimit:10}.st14{opacity:.37}.st15{clip-path:url(#SVGID_2_)}.st16{clip-path:url(#SVGID_4_)}.st17{clip-path:url(#SVGID_6_)}.st18{clip-path:url(#SVGID_8_)}.st19{clip-path:url(#SVGID_10_)}.st20{clip-path:url(#SVGID_12_)}.st21{clip-path:url(#SVGID_14_)}.st22{clip-path:url(#SVGID_16_)}.st23{clip-path:url(#SVGID_18_)}.st24{clip-path:url(#SVGID_20_)}.st25{fill:none;stroke:#4f84d3;stroke-width:.925;stroke-miterlimit:10}.st26{clip-path:url(#SVGID_22_)}.st27{clip-path:url(#SVGID_24_)}.st28{clip-path:url(#SVGID_26_)}.st29{clip-path:url(#SVGID_28_)}.st30{clip-path:url(#SVGID_30_)}.st31{fill:none;stroke:#d9413d;stroke-width:.925;stroke-miterlimit:10}.st32{clip-path:url(#SVGID_32_)}.st33{clip-path:url(#SVGID_34_)}.st34{clip-path:url(#SVGID_36_)}.st35{clip-path:url(#SVGID_38_)}.st36{clip-path:url(#SVGID_40_)}.st37{fill:#4f84d3}.st39{fill:#ee8423}.st40{fill:#f18a50}.st41{fill:#019788}.st42{fill:#32867a}.st43{fill:#f67258}.st44{fill:#de5956}.st45{opacity:.5}.st46{fill:#4b5d9a}.st47{opacity:.6}.st48{fill:#21a497}.st49{fill:#f7846d}.st50{fill:#26a59a}.st51{opacity:.65;fill:none;stroke:#fff;stroke-width:.2;stroke-miterlimit:10}.st52{fill:#c6deff}.st53{fill:none;stroke:#31458b;stroke-miterlimit:10}.st54{fill:#31458b}.st55{fill:none;stroke:#f5a800;stroke-miterlimit:10}.st55,.st56,.st57{stroke-width:.2}.st56{fill:none;stroke:#4db6ac;stroke-miterlimit:10}.st57{stroke:#ff8a65}.st57,.st58,.st59,.st60,.st61{fill:none;stroke-miterlimit:10}.st58{opacity:.65;stroke:#fff;stroke-width:.5}.st59{stroke:#ef7937}.st60{stroke:#147467}.st61{stroke:#d9413d}.st62{fill:#4f84d3}.st63,.st64,.st65{fill:#c6deff}</style><g id="Calque_1"><path d="M81.7 114s-34.8-.4-42.4 1.9c-7.6 2.3 19.6 9.4 34 8.1 14.4-1.4 25-6.1 20.8-7.6-4.2-1.7-8.6-2-12.4-2.4z" style="opacity:5.000000e-02"/><path d="M54 117.7c-.8.4-.9.1-1.8.1s-1 .3-1.7-.1c-.4-.2-.4-.6 0-.8.9-.4 1 .2 1.9 0-.2-.4-.6-1.1-1-1.7-.3-.5-.5-1.1-.8-1.7-.3-.6-.5-1.2-.7-1.7-.3-.6-.7-1.2-.8-1.7-.2-.7-.3-1.4-.3-1.9 0-.4-.1-1.1-.1-2 0-.6.1-1.3.2-2v-2c0-.7.1-1.3.1-2s.1-1.3.2-2c0-.7.1-1.4.1-2 0-.7-.1-1.4 0-2 .1-1.1.2-2 .2-2.1.4 0 .5.2.9.2 0 0 0 .7-.1 1.9 0 .6 0 1.3-.1 2 0 .6-.3 1.3-.3 2v2c0 .7-.2 1.3-.2 2s0 1.4-.1 2c0 .7-.1 1.4-.1 2v2c0 .5.2 1.2.5 1.9.2.6.4 1.2.6 1.9.3.6.6 1.2.9 1.7.3.6.6 1.3.9 1.8.6 1 1.1 1.6 1.1 1.6.5.1.8.4.5.6zm31.6.2c-1.2.4-1.3.5-2.5.1-.3-.1.2-.3.3-.7 0 0 .2-.8.6-1.9.2-.6.5-1.2.7-1.9.2-.6.3-1.3.5-2 .2-.6.4-1.3.5-1.9.2-.7.3-1.3.4-2 .1-.7.1-1.4.1-2 0-.6.1-1.3 0-2-.1-.6-.3-1.3-.4-2-.1-.6-.1-1.3-.2-2s-.3-1.3-.4-1.9c-.1-.7-.2-1.3-.4-2s-.4-1.4-.5-1.9c-.3-1.2-.3-1.9-.3-1.9.4-.1.4 0 .9-.1 0 .1.1.7.3 1.9.1.6.4 1.2.6 1.9.1.6.2 1.3.3 2 .1.6.2 1.3.3 2 .1.7.4 1.3.5 2 .1.7.1 1.4.1 2 .1.7.2 1.4.2 2 0 .6-.2 1.3-.3 1.9-.1.6-.1 1.3-.3 1.9-.1.6-.3 1.3-.5 1.9-.2.6-.4 1.3-.6 1.9-.2.7-.5 1.3-.7 1.8-.3.8-.4 1.3-.6 1.8.5.2.6-.2 1.1 0 .8.4.7 1 .3 1.1z" style="fill:#31458b"/><path d="M105 97.3c-.1-1.1.1-2.6.1-4.1 0-1.4-.4-2.8-.3-4.1 0-2.3.5-2.1.6-4.1 0-1.7-.2-1.7-.2-3.4s.1-1.7.1-3.4.1-1.7.1-3.4-.5-1.7-.5-3.4.4-1.7.4-3.4c0-1.5-.3-1.2-.3-3.1 0-.9.2-1.9.2-3.1 0-1 .2-2 .2-3.1 0-1.3-.5-2.5-.5-3.6-.1-1.3 0-2.5-.1-3.6h.4c.2-1.7.1-1.4-.1-3.5-.1-1-.7-2.1-1-3.3-.3-1-.6-2.1-1-3.3-.4-1-.9-2-1.5-3s-1.2-1.9-1.9-2.8c-.7-.9-1.4-1.8-2.2-2.6-.8-.7-1.6-1.6-2.6-2.3-.9-.6-1.8-1.3-2.9-1.9-1-.5-2.1-.8-3.3-1.2-1-.4-2.2-.6-3.3-.9-1.1-.3-2.1-.8-3.3-1-1.1-.2-2.2-.3-3.4-.4-1.3-.1-2.5-.4-3.6-.4-1.4 0-2.5.4-3.6.5-1.4.2-2.6.2-3.6.6-1.4.6-2 1.7-2.4 2.6-.6 1.2-.8 2.4-.2 3.4.6 1 1.8 1.4 3.2 1.4 1.3 0 2.3-.4 2.9-.9 1.9 1 2.6 2.5 3.3-.4.8-1.2 0 1 2.3.4 2 .1 1.7 1 2.1 3.2.2 1 .5 2.3-.1 3.9-.2.4-.7.7-1 1.2-1 1-1.6 2.1-2.5 2.8-1.1.8-2.4 1.2-3.4 1.7-1.3.6-2.4 1-3.6 1.2-1.4.2-2.6 0-3.8-.3-1.3-.3-2.4-1-3.4-1.5-1.5-.8-2.6-1.5-3.2-1.9-.7-.5-1.8-1.1-2.8-2.1-.7-.8-1.2-1.9-2.1-2.9-.7-.8-1.7-1.5-2.6-2.4-.8-.8-1.4-1.8-2.3-2.7-.8-.8-1.7-1.4-2.6-1.9-1-.6-2.1-.5-3.1-.7-1.1-.2-2.1-.5-3.1-.4-1.1.1-2.2.5-3.1.7-1.2.2-2.3.6-3.1 1.2-.9.7-1.8 1.4-2.4 2.5-.5.9-1 2-1.3 3.2-.3 1 0 2.3-.2 3.5-.1 1.1-.3 2.2-.3 3.4-.1 1.1-.6 2.2-.6 3.4 0 1.1.4 2.3.4 3.5 0 1.1-.3 2.3-.2 3.5 0 1.1.4 2.3.4 3.5 0 1.1 0 2.3.1 3.5.1 1.1.2 2.3.3 3.5.1 1.1.1 2.3.2 3.5.1 1 0 2.3-.1 3.7-.1 1.2-.6 2.4-.8 3.6-.2 1.3-.4 2.5-.6 3.6-.4 2.1-.6 1.7-.7 3.6-.1 2.1.2 2.1.2 4.2v4.2c0 2.1-.1 2.1-.2 4.2-.1 1.5-.3 1.4-.4 3-.1 1-.4 2.1-.4 3.1 0 1.3.4 2.4.8 3 .5.9 2.1.7 3.8.5 2-.2 2-.2 4.1-.5 1.9-.3 1.5.3 3.8.3 1.1 0 2.4-.5 3.8-.5 1.1 0 2.1-.2 2.8-.9.7-.7 1.2-1.7 1.6-2.6.6-1.5 1.3-1.5 1-3-.5-2.5-1.5-3.5-.5-5 1.1-1.5 1.6.5 2.6 2.2.9 1.3 1 1.2 2.2 2.2s1.4.9 2.6 1.9c1.2 1.1.9.9 2.6 1.9.8.5 1.6 1.4 2.7 1.9 1 .4 2.1.6 3.2.9 1.1.3 2.2.5 3.3.6 1.5.1 2.8-.2 3.9-.4 1.5-.3 2.6-.9 3.7-1.4 1.4-.7 2.4-1.8 3.3-2.2.5-.2.5 0 .8-.2 1.1-1 1.1-1 2.3-2 1.1-1 1.4-.7 2.5-1.8 1.1-1.2.9-1.4 1.9-2.7 1-1.1 2-2.2 2.5-1.6 1 .9.6-.3.3 2.4-.1.7-.3 1.6-.4 2.8-.1 1.2 0 2.4.2 3.2.4 1.2 1.2 2 1.9 2.6 1.3 1.2 1.3.9 2.9 1 1.5.1 1.5.1 2.9.1 1.5 0 1.5.1 2.9.1 1.7.1 1.6.4 3.4.5 1.2 0 2.5-.2 3.4-.5 1.3-.4.9-1.4.5-3.2-.7-1.3-.9-2.6-1-4.1z" style="fill:#91bdfa"/><path d="M57.9 53.5s-6.1-6.3-14.2-1.8-7.1 16.7 1 19.2 13.4-.8 14.7-4.3c1.2-3.5 2-9.8-1.5-13.1z" style="fill:#fff"/><circle cx="50.5" cy="64.2" r="7.1"/><path d="M90.6 54.8s-6.1-6.3-14.2-1.8-7.1 16.7 1 19.2 13.4-.8 14.7-4.3c1.3-3.5 2-9.8-1.5-13.1z" style="fill:#fff"/><circle cx="83.3" cy="65.5" r="7.1"/><path d="M62.1 79.8c-.7 0-1.4-.2-2.2-.7-2.6-1.6-2-3.6-2-3.7l.9.3c0 .1-.4 1.5 1.6 2.7 2.2 1.3 3.7-.2 3.7-.3l.7.6c-.1 0-1.1 1.1-2.7 1.1z" style="fill:#31458b"/><g style="opacity:.65"><path d="M52.5 77.2V77v.2zm0-.5v.7-.5.2-.4zm-.7-.5zm-.5-.2c.1 0 .1 0 0 0 .1 0 0 0 0 0zm0-.3s0-.1 0 0zm.5.5zm.6 1.2s0-.1 0 0c0-.1 0-.1 0 0 0-.1 0 0 0 0zm-.4-1.5v-.1.1zm.1 0v.4-.4zm.3.5c0-.1 0-.1 0 0zm-.5-.5c0-.1 0-.1 0 0 0-.1 0 0 0 0zm-4.3 1.8c0-.1 0-.1 0 0 0-.1 0 0 0 0zm-.1-1.3v-.2.2zm3.7-1.1zm-1.3.2v.5-.5zm2.5 1.8c0 .1 0 .1 0 0zM49.9 76zm.9-.5v.1-.1zm.3.4c0-.1 0-.1 0 0zm-.4-.1zm-.1 0c0 .1 0 .1 0 0 0 .1 0 .1 0 0zM48 77.5v-.2.2zm4.4-.3v.1-.1c0 .1 0 .1 0 0zm-1.8.6zm-1.7-.3c0 .1 0 .1 0 0zm1.6.3v-.2.2zm-2.6.1v-.5.4-.4.1c0-.3 0 0 .1-.3v.1-.5s0-.2 0 0v.1-.1.3c0-.1 0-.4.1-.3v.4-.1.5c0 .1 0-.2.1-.1v-.4.4-.4.3s0-.5.1-.3v.2-.2.3l.1-.3v.3c0-.2.1 0 .1.2v-.3.2-.3.2c0-.2.1-.5.1-.2v.1c0 .1 0-.5.1-.3 0 .1.1-.1.1.3 0-.4 0 .2.1-.4v.5-.4.3-.3.3-.3.3l.1-.2v.2c0-.3 0 .3 0 0v-.2.3l.1-.1v-.5.3-.3.4-.1.2c0-.2 0 .3 0 0v.1l.1-.1v-.4c0 .1 0 .3.1.3v-.4.4l.1-.2v-.2.2c.1-.3.1.7.1.2V77v.3c.1-.4.1.1.1-.2 0 .7.1 0 .1.4v-.2.1-.2c.1-.2.1.2.2.4 0 0 0-.8.1-.4v.3c.1-.4.1 0 .2-.3v.2-.2.2-.1.1-.2c0 .1 0-.1.1 0v-.3.4-.3c0 .5.1-.4.1.2.1-.2.1-.4.1-.5 0 .4 0 0-.1.5 0-.2.1-.5.1-.4v.2c0-.2.1 0 .1-.2v.1-.8.8-.2.2-.3.2-.3.1s.1-.5.1-.3v.5-.4.1-.5.2-.1.4c0-.3 0-.1.1-.4v.3-.2.2-.2.1c0 .1.1-.1.1 0v.4c0-.1.1-.4.1-.3 0-.5 0 .2 0 0v.2c0 .1.1-.1.1-.3v.2-.3c0 .7.1-.4.1.2v.1-.6.4-.4.1-.2.3-.2.5-.1c0-.6 0-.1.1-.5v.7-.1.2-.3c0-.3 0 .4.1 0 0-.2 0-.5.1-.6v.3c0 .1 0 .1 0 0v.2-.2.4-.3.3c0-.1 0-.1.1-.4v-.1.3-.3c0-.5 0 .1-.1.1v-.4.3-.6.1-.2c0-.2 0 .3 0 0v.6-.7.3-.1.3-.3.3-.4c0 .4 0-.1 0 0 0 .3 0 .1-.1.2 0-.1 0-.2-.1-.3V75v.3-.4.2-.2s0 .3-.1.1v.8-.4s0 .1 0 0v-.2.2-.3s0 .1 0 0v-.3.3-.3.3-.2.3c0 .3-.1-.2-.1 0v-.1c0 .1 0 .1-.1.2V75c0 .1 0 .2 0 0v-.1c0-.1 0-.2 0 0v-.2.2-.3c0-.4-.1.6-.1 0v.4-.5c0-.2 0 .4-.1.3v.5-.5.1-.2.1-.3.2c0-.2 0 0-.1-.1v.4-1c0 .1 0 0 0 0v.2-.1.5-.6.3-.3.8-.6c0 .2 0-.2 0 0v.4-.1.3-.1.3c0-.3 0 .2 0 0v-.5c0-.2-.1.3-.1.1v.2-.4.3-.2c0-.1 0 .5-.1.4v-.5.4-.1.3c0-.6-.1 0-.1-.4 0 .1 0 .1-.1.1v-.1c0-.2 0 .5-.1.3v-.6c0-.2 0 .2-.1.2v-.1c0 .3-.1.4-.1.5v-.4.4-.5c0-.3 0 0 0 0v-.1s0 .4-.1.4v.2-.4c0 .1 0 .3-.1.4 0-.3 0-.4.1-.6v.2-.1c0 .3 0 .4-.1.4 0-.7-.1-.2-.1-.7 0 .3-.1-.1-.1-.1v.6-.9.5c0 .3 0-.5-.1-.2v-.2c0 .1-.1 0-.1.4v-.3c0-.1-.1.5-.1.2V74v.1-.1.2-.2c0-.2-.1.4-.1.5v-.7c0-.1-.1.3-.1.5 0-.4-.1-.2-.1-.4v.3-.4.5c0-.7-.1.2-.1-.4v.2-.3c0-.1 0-.1-.1 0v-.2s0 .7-.1.7v-.4s-.1-.3-.1 0v-.2s-.1-.3-.1.3c0-.3 0 0-.1.1v-.2c0 .3 0 .4-.1.5v-.1.1-.2.3-.3.3-.2c0-.2-.1.3-.1 0v-.7c0 .2-.1.5-.1.4v-.3.9-.8c0 .1-.1.1-.1.6v-.3c0 .1 0 0-.1.4v-.4c0-.5-.1.8-.2.2v.1c-.1-.3-.1.3-.2-.2v.3-.3.3c0 .2 0-.7-.1-.2v.2-.1.1-.1.2-.6c0 .1-.1.4 0 .5v1.4-.3.2-.1.2-.4.4-.5.4-.3.3-.3.5c0-.4.1-.2.1-.4v.3c0-.4 0-.4.1-.6.2 2.1.2 2.2.3 2.6-.1-.4 0-.4 0-.6v.4-.3.5zm.5-.7c-.1 0-.1 0 0 0-.1 0-.1 0 0 0-.1 0-.1 0 0 0zm0 0c0-.1 0-.1 0 0V77v.2zm0-1.8c0 .1 0 .1 0 0v.1-.1zm-.1.3s0 .1 0 0c0 .1 0 .1 0 0 0 .1 0 .1 0 0zm3.5.5zm-2.9 1.5v-.1zm3.1-.6zm.1 0c0 .1 0 .1 0 0zm0 .2v-.1.1zm-1.1.2c0 .1 0 .1 0 0zm.4-.5v.1-.1zm-.8.8zm.7-.7s0-.1 0 0zm1.1.3zm0 0c0-.1 0-.1 0 0zm0-.1zm-.1 0c0 .1 0 0 0 0zm0 0v.1-.1c0 .2 0-.1 0 0zm-.1-1.1V76c0-.3.1.2 0 .2zm0-.2v-.2.2zm-.6 0v-.2.2zm-.1 1.2v.1-.2zm0-1.6v-.1.1zm-.9 0v.3-.3zm-.4.3c0-.2 0-.2 0 0 0-.1 0 0 0 0zm-1.1-.5v-.1.1z" style="fill:#fff"/></g><g style="opacity:.65"><path d="M84.6 77.3v-.2.2zm-.1-.5v.7-.5.2-.1c0-.2 0-.2 0 0v-.3zm-.7-.5zm-.4-.1s0-.1 0 0c0-.1 0-.1 0 0zm-.1-.4zm.5.5zm.6 1.2c0-.1 0-.1 0 0zm-.4-1.4V76v.1zm.2-.1v.4-.4zm.2.5zm-.5-.5zm-4.2 1.9zm-.2-1.2v-.2.2zm3.7-1.2zm-1.3.2v.5-.5zm2.5 1.8zm-2.5-1.3zm.9-.5v.1-.1zm.3.3zm-.4 0zm-.1 0s0 .1 0 0c0 .1 0 .1 0 0zm-2.5 1.8v-.2.2zm4.3-.4v.1-.1zm-1.7.6zm-1.7-.2zm1.6.2v-.2.2zm-2.5-.4zm-.1.6v-.5.4-.4.1c0-.3 0 0 .1-.3v.1-.5s0-.2 0 0v.1-.1.3c0-.1 0-.4.1-.3v.4-.1.5c0 .1 0-.2.1-.1v-.4c0-.3 0 .8.1.4v-.4.3-.3.2-.2.3l.1-.3v.3c0-.2.1 0 .1.2v-.3.2-.3.2c0-.2.1-.5.1-.2v.1-.3c0 .1.1-.1.1.3v-.4c0 .3 0 .4.1.5v-.4.3-.3.3-.3.3-.2.2c0-.3 0 .3 0 0v-.2c0 .2 0 .2.1.1v.2l.1-.1v-.5.3-.3.4-.1.2c0-.2 0 .3 0 0v.1l.1-.1v-.4c0 .1 0 .3.1.3v-.4.4l.1-.2v-.2.2c0-.3.1.7.1.2v-.2.3c0-.4.1.1.1-.2 0 .7.1 0 .1.4v-.2.1-.2c.1-.2.2.2.2.4 0 0 0-.8.1-.4v.3c.1-.4.1 0 .2-.3v.2-.2.2-.1.1-.2c0 .1 0-.1.1 0v-.3.4-.3c0 .5.1-.4.1.2 0-.2.1-.4.1-.5v.5c0-.2.1-.5.1-.4v.2c0-.2.1 0 .1-.2v.1-.8.8-.2.2-.3.2-.3.1s.1-.5.1-.3v.5-.4.1-.5.2-.1.4-.4.3-.2.2-.2.1c0 .1.1-.1.1 0v.4c0-.1.1-.4.1-.3 0-.5 0 .2 0 0v.2c0 .1 0-.1.1-.3v.1c0 .1 0 .1.1.1v-.3c0 .7.1-.4.1.2v.1-.6.4-.4.1-.2.3-.2.5-.1c0-.6 0-.1.1-.5v.7-.1.2-.3c0-.3.1.4.1 0 0-.2 0-.5.1-.6v.3c0 .1 0 .1 0 0v.2-.2.4-.3.3-.5.3-.3c0-.5 0 .1-.1.1v-.4.3-.6.1-.2c0-.2 0 .3 0 0v.6-.7.3-.1.3-.3.3-.4c0 .4 0-.1 0 0v.2c0-.1 0-.2-.1-.3v-.1.3-.4.2-.2s0 .3-.1.1v.8-.4.1-.2.2-.3s0 .1 0 0v-.3.3-.3.3-.2.3c0 .3-.1-.2-.1 0v-.1c0 .1 0 .1-.1.3v-.3c0 .1 0 .2 0 0v-.1c0-.1 0-.2 0 0v-.2.2-.3c0-.4-.1.6-.1 0v.4-.5.8-.5.1-.2.1-.3.2c0-.2 0 0-.1-.1v.4-.7c0 .2 0-.1-.1-.2v-.1c0 .1 0 0 0 0v.2-.1.5-.6.3-.3.8-.6c0 .2 0-.2 0 0v.4-.2.3-.1.3c0-.3 0 .2 0 0v-.5c0-.2 0 .3-.1.1v.2-.4.3-.2c0-.1 0 .5-.1.4v-.5.4-.1.3c0-.6-.1 0-.1-.4 0 .1 0 .1-.1.1V75v.3-.3c0-.6 0 .1-.1-.3 0-.2 0 .2-.1.2v-.1c0 .3 0 .4-.1.5v-.4.4-.5c0-.3 0 0 0 0v-.1s0 .4-.1.4v.2-.4c0 .1 0 .3-.1.4v-.6.2-.1c0 .3 0 .4-.1.4 0-.7-.1-.2-.1-.7 0 .3-.1-.1-.1-.1v.6-.9.5c0 .3 0-.5-.1-.2v-.2c0 .1-.1 0-.1.4v-.3c0-.1-.1.5-.1.2v-.1.1-.1.2-.2c0-.2-.1.4-.1.5v-.7s-.1.3-.1.5c0-.4-.1-.2-.1-.4v.3-.4.5c0-.7-.1.3-.1-.4v.2-.3c0-.1 0-.1-.1 0V74v.7-.4s-.1-.3-.1 0v-.2s-.1-.3-.1.3c0-.3 0 0-.1.1v-.2.5-.1.1-.2.3-.3.3-.2c0-.2 0 .3-.1 0V74c0 .2 0 .6-.1.4v-.3.9-.8c0 .1-.1.1-.1.6v-.3c0 .1 0 0-.1.4v-.4c-.1-.5-.1.8-.1.2v.1c-.1-.3-.1.3-.2-.2v.3-.3.3c0 .2 0-.7-.1-.2v.2-.1.1-.1.2-.6 1.9-.3.2-.1.2-.4.4-.5.4-.3.3-.3.5c0-.4 0-.2.1-.4v.3-.6c.1 2 .1 2 .2 2.5-.1-.4 0-.4-.1-.6v.4-.3.3c.1 0 .1.2.1.2zm.4-.8zm0 0v-.2.2zm0-1.7c0-.1 0 0 0 0v.1-.1zm0 .3zm3.4.4zM81 77.9v-.1.1zm3-.7s0 .1 0 0c0 .1 0 .1 0 0zm.1.1zm.1.1v-.1.1zm-1.1.3c0 .1 0 0 0 0zm.3-.6v.1-.1zm-.7.9zm.7-.8c0 .1 0 .1 0 0zm1.1.3zm0 0zm0-.1c0 .1 0 .1 0 0zm-.1 0c0 .1 0 0 0 0zm0 0v.1-.1c0 .2 0-.1 0 0zm-.1-1.1v-.2.2zm-.1-.1V76v.2zm-.5 0V76c-.1 0 0 0 0 .2zm-.1 1.1v.2-.2zm-.1-1.6v.1zm-.9.1v.3-.3zm-.4.3c0-.2 0-.3 0 0 0-.1 0 0 0 0zm-1.1-.5v-.1.1z" style="fill:#fff"/></g><path d="M25.8 75.1c0 .3.2.6.4.8.1.3.3.5.5.8.2.3.3.6.4.8.2.3.3.5.5.7.2.2.5.4.7.6.2.2.3.5.6.7.2.2.3.5.5.7.2.2.5.3.8.5-.1.3-.1.7-.1 1 0 .3.1.7.2 1 .1.3.2.7.4.9.2.3 1 .6 1 .5.1-.1-.1-.8-.2-1.1-.2-.3-.3-.5-.4-.8-.1-.3-.2-.6-.2-.9.2.2.5.4.8.5.3.2.5.4.8.5.3.1 1 0 1.1-.1 0-.1-.4-.6-.7-.8-.3-.1-.5-.4-.7-.6-.3-.2-.6-.2-.9-.4l.1-.2c.2-.3.6-.4.9-.5.3-.1.7 0 1 0 .6.1 1.1-.3 1.2-.4 0-.1-.2-.5-.6-.6H33c-.3 0-.5.1-.8.1-.3.1-.6.1-.8.2-.2.1-.4.3-.6.6l-.1.1-.6-.6c-.2-.2-.5-.4-.7-.6-.2-.2-.3-.5-.5-.8-.2-.2-.4-.5-.6-.7-.2-.3-.4-.5-.6-.7-.2-.3-.2-.6-.3-.9-.1-.3-.4-.5-.5-.8 0 0 0-.4.2-1.1 0-.2.1-.6.2-.8.1-.3.3-.5.5-.8.1-.2.3-.5.5-.7.2-.3.2-.2.5-.5.2-.1.6-.6.8-.7v-.9s-.8.3-1.7 1.1l-.7.7c-.2.2-.4.5-.5.8-.2.3-.2.7-.3 1-.1.3-.3.6-.4.9s-.2 1.2-.2 1.5zm84.3 1c.3 0 .6-.2.8-.4.3-.1.5-.3.8-.5.3-.2.6-.3.8-.4.3-.2.5-.3.7-.5.2-.2.4-.5.6-.7.2-.2.5-.3.7-.6.2-.2.5-.3.7-.5.2-.2.3-.5.5-.8.3.1.7.1 1 .1.3 0 .7-.1 1-.2.3-.1.7-.2.9-.4.3-.2.6-1 .5-1-.1-.1-.8.1-1.1.2-.3.2-.5.3-.8.4-.3.1-.6.2-.9.2.2-.2.4-.5.5-.8.2-.3.4-.5.5-.8.1-.3 0-1-.1-1.1-.1 0-.6.4-.7.7-.1.3-.4.5-.6.7-.2.3-.2.6-.4.9l-.2-.1c-.3-.2-.4-.6-.5-.9-.1-.3 0-.7 0-1 .1-.6-.3-1.1-.4-1.2-.1 0-.5.2-.6.6v.9c0 .3.1.5.1.8.1.3.1.6.2.8.1.2.3.4.6.6l.1.1-.6.6c-.2.2-.4.5-.6.7-.2.2-.5.3-.8.5-.2.2-.5.4-.7.6-.3.2-.5.4-.7.6-.3.2-.6.2-.9.3-.3.1-.5.4-.8.5 0 0-.4 0-1.1-.2-.2 0-.6-.1-.8-.2-.3-.1-.5-.3-.8-.5-.2-.1-.5-.3-.7-.5-.3-.2-.2-.2-.5-.5-.1-.2-.6-.6-.7-.8h-.9s.3.8 1.1 1.7l.7.7c.2.2.5.4.8.5.3.2.7.2 1 .3.3.1.6.3.9.4s1 .2 1.4.2z" style="fill:#31458b"/><g style="opacity:.65"><path d="M67.4 27.9c-.1 0-.1 0 0 0zm-.1.2h.1-.1s0-.1 0 0V28v.1zm1.2 1.8zm1.4.3zm.2 0zm-1.6-.3c0 .1 0 .1 0 0zm-.9-1.6c-.1 0-.1 0 0 0zm.4 1.3zm-.3-.4zm-.3-.7zm.8 1.3zm10.7-1.3zm.2-.5h.1zm-8.5 2.1c0 .1 0 0 0 0zM74 30c-.1 0 0-.1 0 0 0-.1-.1 0 0 0zm-6.4-1.7c0 .1 0 0 0 0zm6.3 1.6zm-2.4-.3zm-.7.3zm.8-.5s0 .1 0 0c.1 0 0 0 0 0zm.2.2zm6.5-.4zm-10.8-.9zm4.2.6c.1.1 0 .1 0 0zm4.1.9zm-3.8-.5zm6.3 0z" style="fill:#fff"/><path d="M78.5 29v.1-.1c-.1.1-.1.2-.1.2 0 .1-.1.1-.1.1v.1s0 .1-.1 0v-.1l-.1.1c0-.1.1 0 0-.1h.1c-.1-.1 0 0 0-.1h-.1v.1c-.1.1-.1-.1-.2 0 0 0 0 .1-.1.1v-.1c-.1 0 0 .1-.1.1 0 0 .1 0 0 0-.1-.1 0 0-.1 0v-.1h-.3v-.1c-.1 0-.2 0-.3-.1h-.1c-.1 0 0 0 0 0s-.1 0 0-.1h-.1c-.1.1-.2.3-.2.3-.1 0 0 .1-.1.1-.1.1-.2.2-.3.2 0 .1-.1 0-.1.1-.1 0-.1-.1-.2-.1 0 0 0 .1-.1.1v-.1.1-.1l-.1-.1h-.1c-.1 0 0-.1-.1 0l-.1-.1c-.1-.1-.2-.1-.2-.1s0 .1-.1.1v-.1s0-.1.1-.1c0 0 0-.1-.1-.1l-.2-.2h-.1c0-.1-.1-.2-.2-.4h-.1c0-.1-.1-.2 0-.2 0-.1-.1-.1-.1-.1 0 .1 0 .1-.1.3 0 .2-.1.2-.2.3-.1.1-.1.1-.1.2v.1c0 .1-.1.1-.2.2-.1-.1-.2.1-.3.1-.2.1-.4 0-.6 0-.1 0-.1.1-.1 0-.2 0-.3-.1-.4-.2 0-.1-.1-.1-.1 0v-.1s-.1 0-.1-.1c0 0-.1-.1-.1 0 0-.1-.1-.1-.1-.1l-.1-.1c.1-.1-.1-.2-.2-.2v-.1c-.1 0-.1.1-.1.1-.1 0-.2.3-.3.2l-.3.3c0-.1.1-.1.1-.1-.1.1-.1.2-.2.2v-.1c-.1.1-.2.1-.3.2.1 0 0 .1 0 .2 0-.1-.1 0-.1-.1v.1c-.1 0 0 .1-.1.1 0 0 0 .1-.1.1s-.1.1-.2.1c0-.1 0 0-.1-.1l-.1.1h-.1.1v.1h-.2v-.1c0 .1-.1 0-.1.1v-.2c-.1 0 0 .1-.1 0h-.2c0-.1.1 0 0-.1H69c0 .1-.1-.1-.1 0-.1 0-.1 0-.2-.1l-.1-.1c0-.2-.3-.1-.3-.3 0 0-.1 0-.1-.1v.1h-.1c.1 0 0 0 .1-.1 0-.1-.1 0-.1 0H68h.1s-.1 0-.1-.1h.1v-.2c-.1 0-.1-.1-.2-.1h.1v-.1c-.1 0 0-.1-.1-.1s0-.2-.1-.2c-.1-.1-.1-.1-.2-.1h.1V28h-.1.1l-.1-.1h.1l-.1-.1v.1c-.1.1.1.1.1.2h-.1.1-.1v.1c0 .1.1.1.1.1.1.1.1 0 .1 0l-.1.1h.2c0 .1.1.1 0 .2 0 0 0-.1.1 0-.1.1 0 0 0 .1h-.1c.1 0 0 .1.1.1s.1.1.1.1.1.1.1.2h.1-.1.1s.1 0 .2.1c0 0 0-.1.1-.1 0 0 0 .1-.1 0h-.1.1v.3h.1s.1.1.1 0c.1 0 .2.1.3.1h.2v.1h.1-.1c.1 0 .1.1.1 0 0 0 0 .1.1.1h.1v.1c.1.1.2-.1.3 0 0 0-.1 0 0-.1.1 0 .1.1.1.1.1 0 .1-.1.1-.1v-.1c.1 0 .1.1 0 .1h.3c.1 0 0-.1.1-.1 0 0 0 .1.1 0v.1c.1-.1.1 0 .2 0h.1v-.1s.1-.1.1 0c-.1 0 0 0 0 .1h.1c.1 0 0-.1.1-.1h.1v-.1c.1 0 0 0 .1-.1l.1-.1c0-.1.1 0 .1 0s0 .1.1.1c0-.1.1 0 .1-.1v-.1l-.7.7v-.1s0 .1-.1.1v-.1c.1 0 .1-.1.1-.1l.1.1c.1 0 .1-.1.2-.2 0 0 .1 0 .1-.1h.1s.1 0 0-.1h.1v-.1.1s0-.1 0 0v-.1c0 .1 0 .1.1.1l.1.1c.1 0 .1.1.2.1 0 .1.1-.1.1 0s-.1 0 0 0c-.1.1.1.1.1.1 0 .1.1 0 .2.1h.2v.1s0-.1.1-.1v.1h-.1c0 .1.1 0 .1 0h.2c.1-.1 0 0 .1 0v.1l.2-.1c0 .1-.1.1-.2.1h.1c0-.1.1-.1.2-.1 0 .1.2 0 .3.1.1-.1.3-.1.4-.2-.1-.1 0 0 0-.1h.1v.1h.1v-.1h-.1c0-.1.1 0 .2-.1 0-.1.1-.2.1-.3.1-.1 0 0 0-.1V29c0 .1 0-.1.1 0 0 .1 0 .1-.1.1.1.1.2.2.3.2 0 .1.2.2.3.3 0 0 0-.1.1 0 0 0 .1 0 .1.1s.1.1.1.1v-.1c.1.2.4 0 .5.1 0 0 .1 0 .1-.1v.1c.1 0 .2 0 .3-.1.1 0 0-.2.1-.2l.1.1c.1-.1.2-.1.3-.2 0 0 .2-.1.1-.2l.1-.1V29s0-.1 0 0c0 0 .1 0 .1.1 0 0 0-.1.1 0h.2-.1v.1c.1 0 .1-.1.2-.1h.1V29h-.1.1v-.1c0 .1.1.1.1.2.1 0 .2 0 .3-.1 0 0 .2 0 .2-.1.1 0 0 .1.1 0 .2.1.2-.2.4-.2.2-.1.3-.3.5-.5v-.1h.1V28c0-.1.2-.1.1-.3v-.2c0-.1.1 0 .1-.1l-.1-.1v.1c-.1 0-.2 0-.2.1l.1.1v.1l.1.1h-.1.1s-.1 0 0 0v.1s0 .1-.1.1c0 0 .1.1 0 .1-.1-.1 0 .1-.1 0 .1.1 0 .1 0 .2H79c.1 0 0 .1.1.1-.1 0-.1-.1-.1-.1s0 .1.1.1c-.4.6-.4.6-.6.6.2 0 .1 0 .1.1 0 0 0-.1-.1-.1 0 .1 0 0 0 0zm-1.1.4zm-.1 0c.1 0 .1 0 0 0zm.2.4c0-.1 0-.1 0 0 0-.1 0-.1 0 0zm.1-.1zm-9.1.2zm7.4-.1zm-7.8-.4zm-.2-.2c0-.1 0 0 0 0zm0-.2h-.1zm2.7.6zm-.9.4zm2-1.1zM69.8 30zm-2.3-1.8v-.1.1zm0 0c0-.1 0 0 0 0zm-.1-.1c.1 0 .1 0 0 0zm.2.3zm0 .1s0-.1 0 0c0-.1 0 0 0 0zm0 .4c-.1 0-.1 0 0 0-.1.1-.1-.1 0 0zm.1.2c-.1 0-.1.1 0 0 0 .1 0 .1 0 0zm1.3 1.1zm.3-.2zm.2.3zm2.3-.7s-.1 0 0 0zm1.1.6zm2.6 0z" style="fill:#fff"/></g><g style="opacity:.65"><path d="M88.2 44.2c0 .1 0 .1 0 0zm.2-.1s0-.1-.1-.1c0 .1 0 .1.1.1-.1.1-.1.1 0 0-.1.1-.2.1 0 0-.1.1-.1.1 0 0-.1 0 0 0 0 0zm.8-2.2zm.1-1.5s.1 0 0 0c.1 0 .1 0 0 0zm.1-.2zm-.2 1.7c0-.1 0 0 0 0zm-.8 1.9zm.7-1.3v.1zm-.2.5zm-.3.8zm.6-1.6zm-6.3-11.5zm-.3-.5v-.1zm6.9 9.5zm-1.3-4.2c0 .1 0 0 0 0 0 .1.1.1 0 0zm.2 8.3zm-.2-8.2h-.1zm1.1 3zm0 .8zm-.1-1.2zm-.1-.4zM84 31.4s0-.1 0 0zm4.4 12.4zm.4-5.5c0-.1 0-.1 0 0zm-2.6-4.9zm2.5 4.6s.1 0 0 0c.1 0 0 0 0 0zM84 31.3z" style="fill:#fff"/><path d="M83.6 31.2s.1-.1 0 0c.2-.1.1 0 0 0 .1.1.2 0 .2.1.1 0 .1.1.2.1v-.1h.1c0 .1 0 0-.1 0 .1 0 .1 0 .2.1 0 .1-.1 0-.1 0v-.1c0 .1 0 0-.1.1.1.1.1 0 .2.1l.1-.1c.1 0 0 .2.1.2 0 0 .1-.1.1 0h-.1c.1.1.1 0 .1 0h-.1c0 .1.1 0 .1 0v.1c.1.1.2.1.3.1l.3.3h.2c.1 0 .2.1.3.2 0 .1.1 0 .1.1.1.1.3.2.3.4.1 0 .1.1.2.1v.2h.2v.1c.1 0 .1.1.1.2l.1.1h-.1c.1 0 0 0 0 .1 0 0 0 .1.1.1.1.1.2.2.2.3 0 0 0-.1.1-.1h.1s0 .1-.1.1c0 0 0 .1.1.1l.2.2h.1c0 .1 0 .2.1.2h.1v.1l.2.2v.1c.1.1.1.4.2.4l.1.1c0 .1 0 0-.1 0 .1.1.1.2.2.3-.3.2-.1.3-.1.4v.1c.1.2.2.5.2.7 0 .1.2 0 .1.1h-.1c.1.1.1.4.2.5 0 0 0 .1.1.1 0 0 .1.1 0 .1 0 0 0 .1.1.1 0 .1.1.1 0 .2.1 0 0 .1.1.1-.1 0 0 .1 0 .2h-.1s0 .1.1.1c-.1.1.1.2 0 .2.1.1.1.3.2.4-.1 0 0-.1-.1-.1.1.1.2.1.2.2h-.1c0 .1 0 .2.1.3 0 0 0 .1 0 0 .1 0 .1.1.1.1-.1 0 0 .1-.2.1h.1c0 .1.1 0 .1.1l.1.1c0 .1.1.2.1.3h-.1v.3-.1c0 .1.1 0 .1.1v.2h-.1c.1 0 0 .1.1.2h-.2c0 .1.1 0 0 .1v.3c-.1 0 0-.1-.1-.1 0 .1.1.3 0 .4.1 0-.1.1 0 .1v.3s0 .1-.1.2h.1c-.2.1 0 .3-.1.4v.1h.1v.1c0-.1-.1 0-.1 0-.1 0 .1 0 0 .1v.1l-.1-.1s.1.1 0 .1v-.1c-.1 0-.1 0-.1.1v.1c.1.1 0 .1 0 .2-.1-.1 0 0-.1 0h-.1s-.1 0 0 .1h-.1.1c0 .1-.1.1-.1.3v.2h-.1v.1s.1 0 0 .1l-.1-.1v.1-.1.2c0-.1 0 0 .1 0s0-.1.1-.2l.1.1v-.1h.1c.1 0 0 0 0-.1 0 0 .1 0 0 0 .1-.1 0-.1.1-.1 0-.1 0 0-.1-.1h.1c0-.1 0 0-.1 0 .1 0 0-.1.1-.1h-.1c.1 0 0-.1.1-.1 0 0 0 .1.1 0-.1-.1 0-.1 0-.1-.1 0 0-.1 0-.2 0 0 .1-.1.1-.2-.1 0 0-.1 0-.1s.1 0 .1.1v-.3s-.1 0-.2-.1h.1v-.1h.1s0-.1.1-.1c0-.1 0 0 .1 0v-.2c0-.1.1-.2.1-.3v-.2h.1v-.1.1c0-.1.1-.1 0-.1 0 0 .1 0 .1-.1v-.1h.1c.1-.1-.1-.2 0-.3 0 0 0 .1-.1 0 0-.1.1-.1.1-.1 0-.1-.1-.1-.1-.2h-.1c0-.1.1-.1.1 0 0 0 0-.1.1-.1v-.2c0-.1 0-.1-.1-.1 0 0 .1 0 0-.1h.1v-.3h-.1v-.1c0 .1.1 0 .1.1v-.1c0-.1-.1 0-.1-.1h.1-.1v-.2c-.1 0 .1-.1 0-.2h.1v-.2h-.1v.1l-.1-.1v.1h-.1c.1-.1 0-.1 0-.2h.1c0-.1-.1-.1-.1-.3v-.1h.1s0-.1-.1-.1v-.1c0-.1-.1-.1-.1-.2h.1v-.1s-.1-.1 0-.1h-.2c.1-.1-.1-.2 0-.3 0-.1-.1-.1-.1-.2s-.1 0-.1-.1 0 0 .1 0 0-.1 0-.2-.1-.1-.1-.2c-.1 0-.1-.1-.2-.2h.1-.1s0-.1.1-.1v.1c.1-.1 0-.1 0-.1 0-.1-.1-.1-.1-.2-.1 0 0-.1-.1-.1h.1s-.1-.1-.2-.1c.1 0 .1.1.2.1l-.1-.1c-.1 0-.1-.1-.1-.1.1 0 0-.2 0-.3-.1-.1-.1-.2-.2-.4-.1.1 0 0-.1 0v-.1h.1v-.1h-.1v.1c-.1-.1 0-.1-.1-.2 0 0-.1-.2-.2-.2l-.3-.3h-.1s-.1 0-.1-.1-.2-.1-.2-.2c.1 0 0-.1 0-.2l-.3-.3c0-.1-.2-.3-.2-.4h-.1s-.1 0 0-.1v-.1l-.1.1c0-.2-.3-.2-.2-.4h-.1l-.2-.2h-.2v-.1c-.1-.1-.1-.2-.2-.2 0 0-.1-.2-.2-.1l-.1-.1h-.2c0-.1-.1 0-.1-.1h-.1s-.1-.1 0-.1h-.1c0-.1-.1 0-.2-.1l.1.1s0-.1.1-.1c-.1 0-.2 0-.2-.1 0 0 0-.1-.1-.1 0 0-.1 0-.1.1h.1-.2v-.2c-.1 0-.2-.1-.3-.1v-.1c-.1 0-.1-.1-.2 0 0-.1.1 0 0-.1-.1-.2-.3 0-.4-.3-.1-.2-.4-.2-.5-.4 0-.1-.1 0-.1 0v-.1h-.1c-.1 0-.1-.2-.2-.2l-.1-.1h-.1c-.1-.1.1-.1 0-.2h-.1v.1c0 .1-.1.1-.1.2h.1-.1.1v.1h.1s-.1 0 0 .1c0 0 0-.1.1-.1v.1h.1c0 .1.1.1.1.1h.1c-.1 0 .1.1 0 .1.1 0 .1.1.2.1v.1c0-.1.1 0 .2 0 0 .1-.1.1-.1.1h.1v.1c.1-.1 0 0 .1 0 .4-.1.4-.1.4 0 .1 0 0 0 0 0zm1.3.8s-.1 0 0 0c-.1 0 0 0 0 0zm.1.1c-.1-.1-.1-.1 0 0-.1-.1 0-.1 0 0zm0-.5c0 .1 0 0 0 0zm-.1.1zm4.2 10.2zm-3-8.5v-.1zm2.7 9.1s0 .1 0 0c0 .1 0 .1 0 0zm-.1.3c0 .1 0 0 0 0zm-.1.2.1.1zm.4-3.6zm.1 1.1zm-.3-2.2zm.3 2.1c0 .1 0 .1 0 0 0 .1 0 .1 0 0zm-.8 3.6zm0 0zm0 0zm.1-.3z" style="fill:#fff"/><path d="M88.4 43.6c0 .1.1 0 0 0zm.4-.3c0 .1 0 .1 0 0 .1 0-.1.1 0 0zm.1-.2zm.4-1.7c0-.1 0 0 0 0zm-.2-.4H89h.1zm.3-.2zm-.3-3c0 .1.1.1 0 0zm-.4-1.2zm-2-3.3z" style="fill:#fff"/></g><g style="opacity:.65"><path d="M72.5 49.1s0 .1 0 0zm.2.1v-.1.1s-.1-.1 0 0h-.1.1c0-.1 0-.1 0 0zm2.5-1zm1.4-.8s.1 0 0 0zm.3 0zm-1.7.8zm-2.2.7zm1.5-.4v.1zm-.5.3s0-.1 0 0c0-.1 0-.1 0 0 0-.1 0-.1 0 0zm-.8.2zm1.7-.6zm6.9-12.1zm0-.7zm-4.4 11.5zm3.5-3.1s.1-.1 0 0c0-.1 0 0 0 0zM73 48.9zm7.9-5zm-2.5 2.5c-.1 0 0 0 0 0zm-.8.5zm1.1-.8zm.4-.3s-.1 0 0 0zm3.1-8.1c0-.1 0-.1 0 0 0-.1 0-.1 0 0zM73 48.9zm5.5-3.1c0-.1 0 0 0 0zm3.5-4.9zm-3.3 4.7zm3.5-8z" style="fill:#fff"/><path d="M82 37.2c0 .1.1 0 .1 0 0 .1 0 0-.1.1l.1.1c.1 0 0 .2.1.2h.1s.1.1 0 .1h-.1c0 .1.1.1.1.2-.1 0 0-.1-.1 0v-.1c-.1.1 0 0-.1 0v.2h.1c.1.1-.1.1 0 .2 0 0 .1 0 .1.1h-.1c0 .1.1 0 .1.2v-.1.1h-.1c0 .1.1.2.1.3h-.1v.4l.1.1c0 .1 0 0 .1 0 .1.1.1.3 0 .4 0 .1.1.1 0 .2 0 .2 0 .4-.1.5.1 0-.1.2 0 .2l-.2.2v.1H82v.1h-.1.1v.2-.1c0 .1-.1 0 0 .1 0 0-.1.1-.1.2s-.1.2-.1.3h.1-.1.1-.1v.1l-.1.1c-.1.1-.1.2-.1.3v.1c0 .1-.1.1-.2.2v.1s-.1.1-.1 0c-.1.1-.1.1-.1.3h-.1c0 .2-.3.2-.3.4v.1s0-.1-.1 0c0 .2-.1.2-.2.3-.2 0-.2.3-.4.3H80c-.1.2-.4.4-.6.6-.1.1.1.2-.1.2v-.1c-.1.2-.3.3-.4.5-.1 0-.1.1-.1.1h-.1s0 .1-.1.1c0 0-.1.1 0 .1-.1 0-.1.1-.2.1 0 .1-.1.1-.1.1 0-.1-.1 0-.2.1H78s-.1.1 0 .1c-.1 0-.1.2-.2.1l-.3.3c0-.1.1-.1.1-.2-.1.1-.1.2-.2.3v-.1c-.1.1-.2.1-.3.3 0 0-.1 0 0 .1.1 0 0 .1 0 .2 0-.1-.1 0-.1-.1v.1c-.1.1 0 .1-.1.1v-.1c0 .1 0 .1-.1.1-.1.1-.1.2-.2.2 0-.1-.1 0-.1-.1-.1 0-.1.1-.1.1l-.1.1h.1v.1h-.1s0 .1-.1.1v-.1c0 .1-.1.1-.1.1v-.1.1c-.1 0 .1.1 0 .1s-.2.1-.2.1c-.1 0 .1-.1 0-.1-.1.1-.2.2-.3.2 0 .1-.1 0-.1.1 0 0 0-.1 0 0-.1 0-.1.1-.2.2-.2-.1-.3-.1-.3 0v.1c-.2 0-.3.2-.5.2l-.1.1h.1s0 .1-.1.1c0 0 0-.1-.1-.1s0 .1-.1.1c0 0 0 .1-.1.1v-.1l-.1.1.1-.1h-.2c0 .1-.1.1-.2.2v-.1h-.1c0 .1-.1 0-.1.1h-.1c-.1.1-.2 0-.3.1l-.2.2V49c-.1 0-.1 0-.1.1 0 0 0 .1-.1.1v-.1l-.1.1v-.1l-.1.1c0-.1.1 0 .1 0 .3-.1.4-.2.4-.2v.1-.1.1h.1c.1 0 .1-.1.2-.1.1-.1 0-.1 0-.2l.1.1v-.2c.1 0 .1-.1.2 0 0 0-.1 0 0-.1.1.1.1 0 .1 0 0 .1-.1 0 0 .1 0-.1.1 0 .1-.1s.1-.1.1-.1h.2c0-.1.1-.1.1-.1v.1-.1c.1 0 .1-.1.2-.1 0 0-.1-.1 0-.2v.2h.1v-.1h.1s.1 0 0-.1l.1-.1c.1-.1.2-.1.3-.2.1-.1.1-.1.2-.1h.1s0-.1.1-.1c0 .1 0 0 0 0 .1 0 .1 0 .1-.1 0 .1.1 0 .1 0h-.1.1v.1c.2 0 .2-.2.3-.2 0-.1-.1 0-.1 0h.2c.1 0 0-.1.1-.1 0 0-.1-.1 0-.1s.1 0 .1.1h.1c.1 0 .1-.1.2-.1s0-.1.1-.1 0 .1.1 0c.1 0 0 0 0 .1 0-.1.1-.1.2-.1 0 0-.1 0 0-.1 0 0 .1-.1.1 0-.1 0 0 0 0 .1h.1c.1 0 0-.1.1-.1h.1v-.1c.1 0 0-.1.1-.1l.1-.1c0-.1.1 0 .2-.1h.1c0-.1.1 0 .1-.1v-.1l-.1.1v-.1l-.1.1v-.1c.1 0 .1-.1.1-.1l.1.1c.1 0 .1-.1.2-.2 0 0 .1 0 .1-.1h.1s.1 0 0-.1h.1c.1 0 0-.1.1-.2 0 0 .1 0 0 .1 0 0 .1 0 0 0 0 0 0-.1.1-.1v-.2c.1 0 .2-.2.3-.2 0-.1.1-.1.1-.2.1 0 0-.1.1-.2.1 0 0 .1 0 .1.1.1.1-.1.2-.1s.1-.1.1-.2.1-.2.1-.2v.1s-.1 0 0-.1h.1c.1 0 .1-.1.1-.1.1-.1 0-.1.1-.2 0-.1.1 0 .1-.1h.1s0-.2.1-.2v.2l.1-.1c0-.1 0-.1.1-.2.1.1.2-.1.3-.1l.3-.3c-.1 0 0 0-.1-.1 0 0 .1 0 .1-.1v.1c.1-.1.1 0 .1 0v-.1h-.1c0-.1.1 0 .1-.2v.1c0-.1.1-.2.1-.3.1-.1.1-.3.2-.4v-.2c.1-.1.1-.2.1-.3.1 0 .1-.1.2-.1.4.4.4.3.4.1.1-.1.2-.3.3-.4 0 0-.1 0-.1-.1v-.1c.1 0 .1-.1.1-.1h-.1c.2-.1.1-.4.2-.4v-.1c0-.1.1-.1.1-.3 0-.1-.1-.1-.1-.2h.1c0-.1.1-.2 0-.4 0-.1.1-.2 0-.2.1 0 0-.1 0-.2l-.1-.1v-.2s0-.1.1-.1c0 0-.1 0-.1-.1s-.1-.2 0-.2v.1s.1-.1.1 0c0-.1-.1-.2-.1-.2v-.2h-.1v.1-.1h-.1c.1 0 .1-.1.1-.2s0-.2-.1-.3c0-.1 0-.2-.1-.2 0-.1.1 0 0-.1.1-.2-.2-.3-.1-.5 0-.3-.2-.5-.2-.8 0-.1 0-.1-.1-.1l-.1-.1c-.1-.1.1-.2-.1-.3 0 0-.1-.1 0-.1l-.1-.1c0-.1.1 0 .1-.2l-.1-.1v.1c-.1 0-.2 0-.2.2h.1v-.1s0 .1.1.1h.1-.1s.1-.1.1 0c0 0-.1 0 0 .1 0 0 0 .1.1.1 0 .1.1.1 0 .1 0 0 .1 0 .1.1-.1 0 0 .1-.1.1.1 0 .1.1.2.2v.1c.1 0 .1.1.2.1 0 .1-.1 0-.1 0 .1 0 .1.1.1 0 0 .1 0 0-.1.1.2.3.2.4.1.5.1 0 0-.1 0 0 .1 0 0 0 0 0zm.4 1.6c0-.1 0 0 0 0zm0 .1c0-.1 0 0 0 0zm.3-.3zm0 0h-.1.1zm-7.5 9.6zm6.8-7.4h.1-.1zm-7.6 7.6s0-.1 0 0c0-.1 0-.1 0 0zm-.3.1c-.1 0 0 0 0 0zm-.3.1zm3.6-2zm-1 .7zm2.1-1.5zm-2 1.5zM72.8 49zm0 0zm-.1 0c.1 0 0 0 0 0zm.4-.1c0-.1 0-.1 0 0zm.1-.1s-.1 0 0 0c-.1 0 0 0 0 0z" style="fill:#fff"/><path d="M73.7 48.8c-.1.1-.1.1 0 0 0 .1-.1.1 0 0zm.2 0s.1 0 0 0c.1 0 .1 0 0 0zm1.8-.9c.1.1 0 .1 0 0zm.2-.4v.1zm.4.2zm2.7-1.8zm1-1c.1 0 .1 0 0 0 .1-.1.1 0 0 0zm2.4-3.6v-.1z" style="fill:#fff"/></g><g style="opacity:.65"><path d="M33.2 38.6c0 .1 0 .1 0 0zm.2-.1-.1-.1c0 .1 0 .1.1.1-.1.1-.1.1 0 0-.1.1-.2.1 0 0-.1.1-.1.1 0 0-.1 0-.1 0 0 0zm1.2-1.9c-.1 0-.1 0 0 0zm1.1-.9zm.2-.1zm-1.3 1c0-.1 0-.1 0 0zm-1.3 1.6zm.9-1.1zm-.2.4s-.1-.1 0 0c-.1-.1-.1 0 0 0-.1 0-.1 0 0 0zm-.5.6zm.9-1.3zm12.3-.8c0 .1 0 0 0 0zm.2.6v.1zm-10.6-1.1zm3.9-1.2c-.1 0 .1-.1 0-.1v.1zm-6.9 3.8zm6.9-3.9zm-3 .8zm-.7.2zm1.1-.4zm.4-.1zm7.8.5zm-12.5 3c0-.1 0 0 0 0zm4.2-3.8zm5.5-.6zm-5.3.6c.1 0 .1 0 0 0 .1 0 .1 0 0 0zm8.1.8z" style="fill:#fff"/><path d="M46.2 35.4h-.1.1c-.1-.1-.2-.1-.2-.1-.1 0-.1-.1-.2-.1 0 0 0 .1-.1.1 0 0-.1 0 0 0 0-.1 0 0 .1 0-.1 0-.1 0-.2-.1 0-.1.1.1.1 0v.1c0-.1 0 0 .1-.1-.1-.1-.1 0-.2-.1l-.1.1c-.1 0 0-.2-.1-.2 0 0-.1.1-.1 0h.1c-.1-.1-.1.1-.2 0h.1c0-.1-.1 0-.1 0v-.1c-.1 0-.2-.1-.3-.1-.1 0-.2-.2-.3-.3h-.1c-.1 0-.3 0-.3-.1-.1 0-.1.1-.2 0s-.3-.1-.4-.2c0 .1-.1-.1-.2 0-.1-.1 0-.1-.2-.2h-.1v-.1H43v-.1c-.1 0-.1-.1-.1-.1h-.2.1c-.1 0 0-.1-.1 0h-.6v.1-.1.1-.1H42s-.1-.1-.1 0h-.3c0 .1 0 0-.1.1h-.2c-.1 0 0 0 0 .1 0 0-.1 0-.1-.1-.1 0-.1 0-.3.1h-.1c-.1.1-.4-.1-.5 0l-.1.1c-.1 0 0 0 0-.1-.1.1-.2 0-.3.1-.1-.1-.3.1-.4 0H39c-.1 0 0 .2-.1.1V34c-.2.1-.4.1-.5.2 0 0-.1 0-.1.1 0 0-.1.1-.1 0 0 0-.1 0-.1.1-.1 0-.1.1-.2 0 0 .1-.1 0-.1.1 0-.1-.1 0-.2 0 0 0-.1 0-.1.1-.1-.1-.1.1-.2 0-.1.1-.2.2-.4.2 0-.1.1-.1.1-.1-.1.1-.1.2-.3.2v-.1c-.1.1-.2.1-.3.2 0 0-.1 0 0 0s0 .1 0 .2c0-.1-.1 0-.1-.1v.1c-.1.1 0 .1-.1.1v-.1s0 .1-.1.1c-.1.1-.1.2-.2.2 0-.1 0 0-.1-.1l-.1.1-.1.1h.1c0 .1.1.1 0 .1h-.1s0 .1-.1.1v-.1c0 .1-.1.1-.1.2v-.1c-.1 0 .1.1 0 .1s-.1.1-.2.2c-.1 0 0-.1 0-.1-.1.1-.1.2-.2.3.1.1-.1 0-.1.1 0 0 0-.1 0 0-.1 0-.1.1-.2.2l-.1.1v.1c-.2 0-.1.3-.3.3l-.3-.2h.1v.1c0-.1-.1 0-.1 0-.1 0 .1.1 0 .1v.1-.1.1-.1h-.1l-.1.1c.1.1 0 .1 0 .2 0-.1 0 0-.1-.1h-.1c0 .1-.1 0 0 .1h-.1c0 .1 0 0 .1 0 0 .1-.1.1-.1.3v.3s.1 0 0 .1l-.1-.1v.1-.1.2c0-.1 0-.1.1 0 .1 0 0-.1 0-.2h.1v-.1h.1v-.1s.1 0 0 0c.1-.1 0-.1.1-.1 0-.1 0 0-.1-.1h.1c0-.1 0 0 0 0 .1 0 0-.1.1-.1h-.1c.1 0 0-.1.1-.1 0 0 0 .1.1 0-.1-.1.1-.1.1-.1-.1 0 0-.1 0-.2l.1-.1v-.1.1-.1s0-.1.1-.2c0 0-.1 0-.1-.1 0 0 .1 0 .1.1v.1-.1h.2v-.1h.1v-.1s.1-.1 0-.1c0-.1.2-.1.2-.2s.1-.1.1-.2h.1s0-.1.1-.1c0 .1 0 0 0 0 .1 0 .1 0 .1-.1h.1-.1l.1-.1v.1c.1 0 .1-.2.2-.2 0-.1-.1 0-.1 0h.2c.1 0 0-.1.1-.1 0 0-.1-.1 0-.1s.1 0 .1.1h.1c.1 0 .1-.1.2-.1s0-.1.1-.1 0 .1.1 0v.1c0-.1.1 0 .2 0v-.1s.1-.1.1 0c-.1 0 0 0 0 .1.1 0 0-.1.1-.1h.1v-.1c.1 0 0 0 .1-.1l.1-.1c0-.1.1 0 .2 0 0 0 0 .1.1.1 0-.1.1 0 .1 0V35l-.1.1V35l-.1.1V35c.1 0 .1-.1.1-.1v.1c.1 0 .1-.1.2-.1 0 0 .1 0 .1-.1l.1.1s.1 0 .1-.1h.1c.1 0 .1-.1.1-.1v.1s.1 0 0 0c0 0 .1-.1.1 0v-.2c.1.1.2-.1.3 0 .1 0 .1-.1.2-.1s0-.1.1-.1 0 0 0 .1.1 0 .2 0 .1-.1.2-.1c0-.1.1-.1.2-.1v.1-.1s.1 0 .1.1h-.1c0 .1.1 0 .1 0 .1 0 .1-.1.2-.1 0-.1.1 0 .1 0v.1s.1-.1.2-.1c0 .1-.1.1-.1.1s.1 0 .1-.1.1-.1.2-.1c0 .1.2 0 .3.1.1-.1.2 0 .4-.1-.1-.1 0 0 0-.1h.1v.1c.1 0 0 0 .1.1 0 0 0-.1.1-.1H41c.1-.1.1.1.2 0 0 0 .2 0 .2-.1v.1c.1 0 .3-.1.4-.1 0 0 0-.1.1 0 0 0 .1-.1.1 0 .1 0 .2-.1.3-.1 0 .1.1.1.2.1s.2-.1.4-.1c.1.1.3 0 .4.1V34h.1c0 .1.1.1.1.1V34c.1.2.3 0 .4.2h.1c.1 0 .1.1.2.1s.1-.1.2-.1v.1c.1 0 .2.1.3.1 0 0 .1.1.2 0 0 .1.1 0 .2 0s.1-.1.1 0h.2l.1.1h.1c.1.1.1 0 .2.1-.1 0-.1-.1-.1-.1s0 .1-.1.1h.2s0 .1.1.1c0 0 .1 0 0-.1h-.1.2v.2c.1 0 .2.1.3.1v.1c.1 0 .1.1.2 0 0 .1-.1 0 0 .1.1.2.3 0 .4.3.1.2.4.3.5.5 0 .1.1 0 .1 0h.1c.1 0 0 .2.2.2l.1.1h.1c0 .1-.1.1 0 .2h.1v-.1c.1 0 .2-.1.1-.2H48V36h-.1s.1 0 .1-.1c0 0 0 .1-.1 0v-.1s-.1-.1-.1 0c0-.1-.1-.1 0-.1h-.1c.1 0-.1-.1 0-.1-.1 0-.1-.1-.2-.1v-.1h-.2c0-.1.1 0 .1-.1h-.1v-.1c-.1.1 0 0-.1 0-1.1.3-1 .3-1 .2-.1 0 0 0 0 0zm-1.3-.8zm-.1 0zm0 .4zm.1 0c0-.1 0-.1 0 0zm-10.4 1.6zm8.7-2.8zM34 37zm-.2.2c0 .1 0 0 0 0zm-.1.2zm2.7-2.5zm-1 .7zm2.1-1.2zm-2 1.1zm-2.3 2.9zm0 0c.1 0 .1 0 0 0zm.1 0c-.1 0-.1 0 0 0zm.1-.3c-.1 0 0 0 0 0zm0-.1s-.1 0 0 0c-.1 0 0 0 0 0z" style="fill:#fff"/><path d="M33.8 37.7c-.1.1 0 .1 0 0 .1 0-.1.1 0 0zm.1-.2c0 .1 0 0 0 0zm1-1.3c.1 0 .1 0 0 0zm.1-.4v.1zm.4.2v-.1zm2.5-1.2c0-.1 0 0 0 0zm1.2-.4s.1 0 0 0c.1 0 0 0 0 0zm3.7-.3-.1.1h.1z" style="fill:#fff"/></g><g style="opacity:.65"><path d="M44.9 38.2s-.1 0 0 0zm0 .1s.1 0 .1-.1c-.1.1-.1 0-.1.1 0 0 0-.1 0 0 0-.1 0-.1 0 0-.1 0-.1 0 0 0zm.7 1.2zm.6.7zm0 .2zm-.6-.9c.1 0 .1 0 0 0zm-.5-1.1zm.3.8h-.1zm-.2-.2zm-.2-.4zm.5.8zm6.8 4.6zm.2.3v.1zm-6.2-3.7zm1.9 1.8c0-.1.1 0 0 0 .1-.1 0-.1 0 0zm-3.1-4zm3.2 3.9zm-1.5-1.2zm-.3-.4zm.5.5zm.2.2zm4.4 2.3zm-6.5-5.3zm2.2 2.6zm2.6 2zm-2.5-1.9zm4.2 2.7z" style="fill:#fff"/><path d="M51.8 43.8c0-.1 0 0 0 0-.1 0 0 0 0 0h-.3v.1-.1h-.1c0-.1.1 0 .1-.1v-.1h-.1v.1c-.1 0 0-.2-.1-.1 0 0-.1.1-.1 0v-.1s-.1.1-.1 0 0 0-.1 0v-.1h-.2v-.1c-.1 0-.2-.1-.2-.1-.1 0-.2 0-.2-.1 0 0-.1.1-.1 0-.1-.1-.2-.1-.2-.2 0 .1-.1-.1-.1 0 0-.1 0-.1-.1-.1h-.2v-.1s-.1-.1 0-.1h-.1c-.1 0 0-.1 0 0 0 0 0-.1-.1-.1s-.1 0-.2-.1v.1-.1.1-.1s0-.1-.1 0c-.1 0-.1 0-.1-.1H49s0-.1-.1-.1h-.1v-.1h-.2V42c-.1 0-.1-.2-.2-.2h-.1v-.1c-.1 0-.1-.1-.2-.1 0-.1-.1-.1-.1-.2l-.3-.3s-.1.1-.1 0h.1c-.1 0-.2-.2-.3-.2 0 0-.1-.1-.1 0h-.1s0-.1-.1 0c0 0-.1 0-.1-.1-.1 0 0-.1-.1 0 .1-.1 0-.1 0-.1h-.1c0-.1-.1 0-.1-.1-.1 0-.2-.1-.2-.1.1-.1.1.1.1 0-.1 0-.2 0-.2-.1-.1 0-.1-.1-.2-.1 0 .1-.1 0-.1 0 .1-.1 0-.1.1-.1H46s-.1 0-.2-.1c.1 0 0 0 .1-.1 0 0-.1 0-.1-.1 0 0-.1.1-.1 0v-.1h-.1s.1 0 .1-.1h-.1s-.1.1-.1 0-.1-.1-.1-.1c0-.1 0 0 .1 0-.1 0-.2-.1-.2-.1-.1.1 0-.1-.1-.1l-.1-.1v-.1H45c.1-.2-.2-.1-.1-.2h-.1v.1h-.1s.1 0 .1-.1-.1 0-.1 0h-.1.1-.1v-.2h-.2c.1 0 0 0 .1-.1 0 0 0-.1-.1 0-.1 0 0-.1-.1-.1h-.2.1v-.1h-.1.1-.1.1-.1v.1c-.1.1.1 0 .1.1h-.1.1-.1c0 .1.1 0 .1.1h.1l.7-.1h.1c0 .1.1.1 0 .1h.1c-.1.1 0 0 0 .1h-.1c.1 0 0 .1 0 .1h.1v.1h.1-.1.1s.1 0 .1.1l.1-.1h-.1v.1h.1v.1h.1s.1.1.1 0c.1 0 .1.1.1.2l.1.1v.1s0 .1.1.1v.1h-.1c0 .1.2 0 .1.1v-.1.1c0 .1.1 0 .1 0s.1-.1.1 0c0 0 0 .1-.1.1v.1c0 .1 0 .1.1.1 0 .1 0 0 .1 0 0 0-.1 0 0 .1h-.1c.1 0 0 .1 0 .1s0-.1.1-.1c0 0 .1 0 0 .1 0-.1 0 0-.1 0 0 .1.1 0 .1 0v.1h.2c.1 0 0 .1 0 .1v.1c.1 0 0 .1.1.1h.1-.1.1-.1.1c0 .1.1 0 .1.1l-.1.1c0 .1.1 0 .1.1h.1v.1h.1v.1c0 .1.1 0 .1 0H47h.3c0 .1.1.1.1.2 0 0 .1 0 .1.1s.1-.1.1 0c-.1.1.1 0 0 .1 0 0 .1 0 .1.1h.2-.1s0-.1.1 0v.2h.2v.1h.1-.1.2c-.1.1.1.1 0 .2.1 0 .1.1.2.2 0-.1 0 0 .1-.1v.2h.1v-.1c.1 0 0 .1.1.1 0 0 .1.1.2 0 .1.1.2 0 .2.1h.2c0 .1.1 0 .2 0v.1c.1.1.2 0 .3 0 0 .1.1.1.2.2V43s.1 0 0 0v.1-.1c0 .2.2.1.2.2h.1l.1.1.1-.1v.1c.1 0 .1.1.2.1 0 0 .1.1.1 0 0 .1.1 0 .1 0 .1 0 .1-.1.1-.1h.2s.1 0 0 .1h.1c0 .1.1 0 .1 0h-.1v.1s.1-.1.1 0v-.1h.1s0-.1.1-.1v.2h.3v.1c.1.1.2-.1.3.1.1.1.3.1.4.2h.1v.1h.1c.1 0 0 .2.1.1h.2v.1s.1 0 .1-.1V44c0-.1.1-.1 0-.2h-.1l-.1.1v-.1.1s0-.1 0 0H53c0-.1-.1 0 0-.1h-.1c.1-.1-.1 0 0-.1-.1.1-.1 0-.2 0v-.1c0 .1-.1.1-.1.1 0-.1 0-.1.1-.1 0 .1-.1 0-.1.1-.7.2-.7.2-.8.1v.1c0-.1.1-.1 0-.1zm-.8-.3zm-.1 0s0 .1 0 0zm0 .4zm0-.1zm-5.3-4.3h.1zM50 43zm-4.5-4zm-.1-.1zm0-.1h-.1zm1.4 1.7zm-.5-.5zm1 1zm-1-.9c0-.1 0-.1 0 0 0-.1 0-.1 0 0zM45 38.3zm0 0zm0 0zm.1.1zm0 .1s.1-.1 0 0c0-.1 0 0 0 0z" style="fill:#fff"/><path d="M45.1 38.8c-.1.1 0-.1 0 0zm.1.1c0 .1 0 .1 0 0zm.6.9zm.3 0v-.1.1zm-.2.3h.1zm1.2 1.3c.1 0 0 0 0 0zm.6.5s0 .1 0 0zm1.9 1.4z" style="fill:#fff"/></g><path d="M98.5 47s.1 0 0 0zm.1 0h-.1.1s-.1 0 0 0zm.1-.7zm0-.4s.1 0 0 0c.1 0 .1 0 0 0zm.1-.1zm-.1.5zm-.2.6zm.3-.4zm0 .1s-.1 0 0 0c-.1 0-.1 0 0 0zm-.1.3zm.1-.5zm-.4-3.9zm.2-.2c0 .1 0 .1 0 0zm.3 3.4zm-.1-1.2h-.1.1zm-.3 2.4zm.2-2.4zm.1.9zm0 .2zm0-.3zm0-.1zm-.4-2.3zm.1 4zm-.1-1.6zm0-1.6zm0 1.5zm0-2.3zm-.1-.2h.1c0 .1 0 .1-.1 0 0 .1.1.1 0 0 .1.1.1.1 0 0l.1.1h.1-.1.1-.2v.1h.1c.1 0-.2 0-.1.1h.1-.1.1c-.1 0 0 0 0 0h-.1l.1.1h-.1v.1h.2s.1.1 0 .1h.1s0 .1-.1.1h.1c-.1 0-.1 0-.1.1h.1-.1.1-.2c.1 0-.1 0 0 0v.1h.1-.1.1-.1s-.1 0 0 0v.1h.1s-.1 0-.1.1h.1-.1v.1c.1 0-.1.1 0 .1h.1-.1c.1 0 0 .1 0 .1-.1 0 0 .1-.1.1 0 .1 0 .1-.1.2h.1-.1c.1.1 0 .1.1.2 0 0 .1 0 0 0v.1h.1c-.1 0-.1 0 0 0h-.1.1c-.1 0 .1.1 0 .1l.1.1h-.1l.1.1v.1h.1-.2.2s.1 0 .1.1h-.1.1-.1.1-.1s.1 0 0 0v.1h-.1l.1.1c.1 0 0 0 0 0s-.1 0 0 0l.1.1h.1c-.1 0 .1.1 0 .1h.1-.1c-.1 0 .1 0 0 0h-.1s.1 0 0 0h-.1c.1 0 0 0 .1.1h-.1.1c.1 0-.1.1 0 .1 0 0 .1 0 .1.1h-.1s.1 0 0 0h-.1.1-.1.1-.1c.1 0 0 0 0-.1h.1-.1.1s.1 0 0 0c0 0-.1 0 0 0h-.1.1-.2.1-.1c.1 0 0 0 0 0h.1c-.1 0 0 0 0 0-.1 0 0 0 0 0l.1-.1h-.1.1s-.1 0 0-.1h-.2.3-.1.1-.2c-.1 0 0-.1 0-.1h-.1.1s.1 0 0 0h.1c.1 0-.1-.1 0-.1h-.1.1-.2.2v-.1h-.1.2-.1.1-.1.1-.1c-.1 0 .1 0 0 0h.1-.3c.1 0 0 0 0 0h.1s-.1 0 0-.1h.1-.1s-.1 0-.1-.1h.1s-.1 0 0 0h-.1c.1 0 0-.1.1-.1v-.1h-.1.2v-.1c-.1 0-.1 0-.1-.1h.1-.1.1c.1 0 0 0 0 0s-.1 0-.1-.1c-.1 0 0 0 0 0h.1s-.1 0-.1-.1h.1-.1c.1 0 0-.1.1-.1-.1 0 0-.1 0-.1h-.1.2s-.1 0 0 0h-.1c-.1 0 .1 0 0-.1 0 0 0-.1-.1-.1h.1s-.1-.1 0-.1c0 0-.1 0 0 0l-.1-.1h.1l-.1-.1c.1 0 0-.1.1-.1h-.1s-.1 0 0 0h.1-.1c.1 0-.1-.1.1-.1h.1v-.1h-.1.1s.1-.1 0-.1c0 0 .1-.1-.1 0 .1 0 0 0 0 0h.1-.2.1-.1s-.1 0 0-.1h.1s-.1 0-.1-.1h-.2.2s0-.1-.1-.1h-.1s.1 0 0 0c.1-.1-.2-.1 0-.1.1-.1-.1-.1 0-.2h-.1.1-.1s.1 0 0-.1h.1-.3.2-.1.1s-.1 0 0 0h.1-.1.1-.1c.1 0 0 0 .1.1 0-.2 0-.2-.1-.1.1-.1.1-.1.2-.1-.1.1-.1.1-.2.1.1-.1.1 0 .1-.1 0 .1 0 .1-.1.1h.1-.1c0 .1 0 0 0 0zm.2.5zm0 0zm.3-.1zm0 0c-.1 0-.1 0 0 0-.1 0-.1 0 0 0-.1 0-.1 0 0 0zm-.1 3.2zm-.3-2.6zm.1 2.8zm0 .1zm0 .1zm-.1-1.1zm.2.3c-.1 0-.1 0 0 0-.1 0-.1 0 0 0zm-.2-.6zm.1.6zm0 1v.1zm0 .1zm0 0zm0-.1zm0-.1s0 .1 0 0c0 .1 0 0 0 0zm.2-.1s.1 0 0 0c.1 0 0 .1 0 0zm.1 0s0-.1 0 0zm0-.5zm-.3-.1zm.3-.1zm0-.8zm0-.4s-.1 0 0 0zm0-1h.1-.1zm-3.9-2.1c.1 0 .1 0 0 0zm.2-.1H95h.1c-.1 0-.1.1 0 0-.1.1-.1.1 0 0-.1.1 0 0 0 0-.1 0-.1 0 0 0zm0-.6zm.1-.4zm0-.1zm-.1.5zm-.2.5zm.3-.4c0 .1 0 .1 0 0zm0 .2c-.1 0 0 0 0 0zm-.1.2zm.1-.4c0-.1 0-.1 0 0 0-.1 0-.1 0 0zm-.4-3.9zm.2-.2zm.3 3.4zm-.1-1.2h-.1.1zm-.3 2.3zm.2-2.3zm.2.9s-.1 0 0 0c-.1 0-.1 0 0 0zm-.1.2zm0-.4zm0-.1zm-.4-2.3zm.1 4zm-.1-1.6zm0-1.5zm0 1.5zm0-2.4zm-.1-.1h.1-.1c.1 0 .1.1 0 0 .1.1.1.1 0 0l.1.1h.1-.1.1-.2v.1h.1c.1 0-.2 0-.1.1h.1-.1.1c-.1 0 0 0 0 0h-.1l.1.1h-.1v.1h.2s.1.1 0 .1h.1s0 .1-.1.1h.1c-.1 0-.1 0-.1.1h.1-.1.1-.2c.1 0-.1 0 0 0v.1h.1-.1.1-.1s-.1 0 0 0v.1h.1s-.1 0-.1.1h.1-.1v.1c.1 0-.1.1 0 .1h.1-.1c.1 0 0 .1 0 .1-.1 0 0 .1-.1.1 0 .1 0 .1-.1.2h.1-.1c.1.1 0 .1.1.2 0 0 .1 0 0 0v.1h.1c-.1 0-.1 0 0 0h-.1.1c-.1 0 .1.1 0 .1l.1.1h-.1l.1.1v.1h.1-.2.2s.1 0 .1.1H95h.1-.1.1-.1s.1 0 0 0v.1h-.1l.1.1c.1 0 0 0 0 0s-.1 0 0 0l.1.1h.1c-.1 0 .1.1 0 .1h.1-.1c-.1 0 .1 0 0 0h-.1s.1 0 0 0H95c.1 0 0 0 .1.1H95h.1c.1 0-.1.1 0 .1 0 0 .1 0 .1.1h-.1s.1 0 0 0H95h.1-.1.1-.1c.1 0 0 0 0-.1h.1-.1.1s.1 0 0 0c0 0-.1 0 0 0H95h.1-.2.1-.1c.1 0 0 0 0 0h.1c-.1 0 0 0 0 0-.1 0 0 0 0 0l.1-.1H95h.1s-.1 0 0-.1h-.2.3-.1.1-.2c-.1 0 0-.1 0-.1h-.1.1s.1 0 0 0h.1c.1 0-.1-.1 0-.1H95h.1-.2.2V40H95h.2-.1.1-.1.1-.1c-.1 0 .1 0 0 0h.1-.3c.1 0 0 0 0 0h.1s-.1 0 0-.1h.1-.1s-.1 0-.1-.1h.1s-.1 0 0 0h-.1c.1 0 0-.1.1-.1v-.1h-.1.2v-.1c-.1 0-.1 0-.1-.1h.1-.1.1c.1 0 0 0 0 0s-.1 0-.1-.1c-.1 0 0 0 0 0h.1s-.1 0-.1-.1h.1-.1c.1 0 0-.1.1-.1-.1 0 0-.1 0-.1H95h.2s-.1 0 0 0h-.1c-.1 0 .1 0 0-.1 0 0 0-.1-.1-.1h.1s-.1-.1 0-.1c0 0-.1 0 0 0l-.1-.1h.1l-.1-.1c.1 0 0-.1.1-.1H95s-.1 0 0 0h.1-.1c.1 0-.1-.1.1-.1h.1v-.1h-.1.1s.1-.1 0-.1c0 0 .1-.1-.1 0 .1 0 0 0 0 0h.1-.2.1-.1s-.1 0 0-.1h.1s-.1 0-.1-.1h-.2.2s0-.1-.1-.1h-.1s.1 0 0 0c.1-.1-.2-.1 0-.1.1-.1-.1-.1 0-.2h-.1.1-.1s.1 0 0-.1h.1-.3.2-.1.1s-.1 0 0 0h.1-.1.1-.1c.1 0 0 0 .1.1 0-.2 0-.2-.1-.1.1-.1.1-.1.2-.1-.1 0-.1 0-.2.1.1-.1.1 0 .1-.1 0 .1 0 .1-.1.1h.1-.1c.1 0 0 0 0 0zm.2.4zm0 .1c0-.1 0-.1 0 0 0-.1 0-.1 0 0 0-.1 0-.1 0 0zm.3-.1zm0 0zm-.1 3.2zm-.3-2.7zm.2 2.9c-.1 0 0 0 0 0zm-.1.1zm0 0zm0-1c-.1 0-.1 0 0 0zm.1.3c-.1 0-.1 0 0 0zm-.2-.6v-.1zm.2.6c-.1 0-.1 0 0 0zm-.1 1zm0 0zm0 0zm0-.1zm0 0s.1 0 0 0zm.2-.1c.1 0 .1 0 0 0 .1 0 0 0 0 0zm.1-.1zm0-.5zm-.3-.1zm.4 0h-.1zm-.1-.8zm0-.4zm0-1.1h.1z" style="fill:#6594d9"/><g style="opacity:.65"><path d="M96.4 53.1zm0 0zm.1-.7zm0-.4s.1 0 0 0c.1 0 .1 0 0 0zm.1-.1zm-.1.5zm-.1.6zm.1-.4zm0 .1zm0 .3zm0-.5zm0-3.9zm.2-.1zm-.1 3.3zm.1-1.2c-.1.1-.1 0 0 0-.1 0-.1.1 0 0zm-.3 2.4zm.2-2.4zm0 .9zm0 .2zm0-.3zm0-.1zm-.1-2.3zm-.1 4zm0-1.6zm.1-1.6zm-.1 1.5zm.1-2.3z" style="fill:#fff"/><path d="M96.5 48.8c0 .1 0 .1 0 0 .1.1 0 .1 0 0 0 .1 0 .1 0 0 0 .1 0 .1 0 0 .1.1 0 .1.1.1v.1s-.1 0 0 .1c0 0 .1 0 0 0v.3s.1 0 0 0v.1l-.1.1v.4s-.1.1 0 .1v.1c-.1 0 0 .1 0 .1v.2s.1 0 0 0v.7h.1-.1v.4c-.1 0 0 .1 0 .1.1 0 0 0 0 .1v.1l.1.1c.1 0 0 0 0-.1h-.1.1v-.2h-.1v-.2s-.1-.1 0-.1h.1v-.1h-.1.1v-.2c.1 0 0-.1 0-.1v-.1s-.1 0 0 0v-.4h.1v-.1c.1 0 0-.1.1-.1v-.1h-.1v-.4h.1v-.2c.1 0 0-.1 0-.1v-.1h-.1v-.3h.1s-.1 0 0-.1h.1s0-.1-.1-.1c.1 0-.1-.1 0-.1v-.2s.1 0 0-.1h.1-.2v.1c-.2.1-.2.1-.2.2 0 0 .1 0 0 0 .1 0 0 0 0 0 0 .1 0 0 0 0zm0 .5zm0 0c.1 0 .1 0 0 0 .1 0 .1 0 0 0zm.2-.1zm0 0zm-.2 3.2zm0-2.6zm-.1 2.8zm0 .1zm0 .1zm0-1.1zm.1.3c-.1 0-.1 0 0 0-.1 0-.1 0 0 0zm-.1-.6zm0 .6zm0 1zm0 0c0 .1 0 0 0 0zm0 .1zm0-.1zm0-.1c0 .1 0 0 0 0zm.1-.1s0 .1 0 0zm0 0zm0-.5c.1 0 .1 0 0 0zm-.1-.1zm.2-.1zm0-.8zm0-.3c0-.1 0-.1 0 0 0-.1 0-.1 0 0zm.1-1.1z" style="fill:#fff"/></g></g></svg>