<svg xmlns="http://www.w3.org/2000/svg" viewBox="0 0 131.2 142.8" style="enable-background:new 0 0 131.2 142.8" xml:space="preserve"><style>.st5{fill:#31458b}.st6{fill:#91bdfa}.st7{fill:none;stroke:#ef7937;stroke-width:.925;stroke-miterlimit:10}.st8{fill:#4f84d3}.st9{fill:#91bdfa}.st10{fill:none;stroke:#31458b;stroke-width:.8491;stroke-miterlimit:10}.st11{fill:#4f84d3}.st12{fill:#91bdfa}.st13{fill:none;stroke:#d9413d;stroke-width:.8491;stroke-miterlimit:10}.st14{opacity:.37}.st15{clip-path:url(#SVGID_2_)}.st16{clip-path:url(#SVGID_4_)}.st17{clip-path:url(#SVGID_6_)}.st18{clip-path:url(#SVGID_8_)}.st19{clip-path:url(#SVGID_10_)}.st20{clip-path:url(#SVGID_12_)}.st21{clip-path:url(#SVGID_14_)}.st22{clip-path:url(#SVGID_16_)}.st23{clip-path:url(#SVGID_18_)}.st24{clip-path:url(#SVGID_20_)}.st25{fill:none;stroke:#4f84d3;stroke-width:.925;stroke-miterlimit:10}.st26{clip-path:url(#SVGID_22_)}.st27{clip-path:url(#SVGID_24_)}.st28{clip-path:url(#SVGID_26_)}.st29{clip-path:url(#SVGID_28_)}.st30{clip-path:url(#SVGID_30_)}.st31{fill:none;stroke:#d9413d;stroke-width:.925;stroke-miterlimit:10}.st32{clip-path:url(#SVGID_32_)}.st33{clip-path:url(#SVGID_34_)}.st34{clip-path:url(#SVGID_36_)}.st35{clip-path:url(#SVGID_38_)}.st36{clip-path:url(#SVGID_40_)}.st39{fill:#ee8423}.st40{fill:#f18a50}.st41{fill:#019788}.st42{fill:#32867a}.st43{fill:#f67258}.st44{fill:#de5956}.st45{opacity:.5}.st46{fill:#4b5d9a}.st47{opacity:.6}.st48{fill:#21a497}.st49{fill:#f7846d}.st50{fill:#26a59a}.st51{opacity:.65;fill:none;stroke:#fff;stroke-width:.2;stroke-miterlimit:10}.st52{fill:#c6deff}.st53{fill:none;stroke:#31458b;stroke-miterlimit:10}.st54{fill:#31458b}.st55{fill:none;stroke:#f5a800;stroke-miterlimit:10}.st55,.st56,.st57{stroke-width:.2}.st56{fill:none;stroke:#4db6ac;stroke-miterlimit:10}.st57{stroke:#ff8a65}.st57,.st58,.st59,.st60,.st61{fill:none;stroke-miterlimit:10}.st58{opacity:.65;stroke:#fff;stroke-width:.5}.st59{stroke:#ef7937}.st60{stroke:#147467}.st61{stroke:#d9413d}.st62{fill:#4f84d3}.st63,.st64,.st65{fill:#c6deff}</style><g id="Calque_1"><path d="M83.1 119.3s-34.8-.2-42.4.9c-7.6 1.1 19.6 4.5 34 3.8 14.4-.7 25-2.9 20.8-3.6-4.3-.8-8.7-.9-12.4-1.1z" style="opacity:5.000000e-02"/><path style="fill:#fff" d="M41 44.3h49.3v45H41z"/><path d="M71.5 107.8c-.1.6-.1.6-.1 1.2s.1.6.1 1.2-.1.6-.1 1.2v2.4c0 .6-.1.6-.1 1.2v2.4c0 .6.1.6.1 1.2s-.1.6-.1 1.2-.1.6-.1 1.2c0 .5.5.9.9.9h1.3c.6 0 .6-.1 1.3-.1.6 0 .7-.8.2-1-.6-.1-.6 0-1.2-.1-.6 0-.6.1-1.2 0-.3-.1-.2-1.1-.2-1.5v-1.1c0-.6-.1-.6-.1-1.1 0-.6.1-.6.1-1.1v-2.2c0-.6-.1-.6-.1-1.1 0-.6-.1-.6-.1-1.1v-1.1c0-.6.1-.6.1-1.1 0-.6.1-.6.1-1.1 0-.6-.1-.6-.1-1.1 0-.6.6-1.1.1-1.2-.5-.1-.3.6-.5 1-.1.4-.2.4-.3.9zm-5.2 0c.1.6 0 .6 0 1.2s.1.6.1 1.2-.1.6-.1 1.2v1.2c0 .6.2.6.2 1.2s-.1.6-.1 1.2.1.6.1 1.2-.1.6-.1 1.2v1.2c0 .6-.1.6-.1 1.2v1.2c0 .5-.3.9-.8.9h-1.3c-.6 0-.6.1-1.3.1-.6 0-.7-.8-.2-1 .5-.1.5-.2 1-.3.5 0 .5.1 1 .1.3-.1.7-1.2.7-1.5 0-.6-.2-.6-.2-1.1 0-.6.1-.6.1-1.1 0-.6.1-.6.1-1.1 0-.6-.1-.6-.1-1.1v-1.1c0-.6.1-.6.1-1.1 0-.6-.1-.6-.1-1.1v-1.1c0-.6.1-.6.1-1.1v-2.2c0-.6-.5-.9.1-1 .5-.1.1.5.4 1 .2.2.3.1.4.6z" style="fill:#31458b"/><path d="M57.2 35.8s8.3-20.1 6.3-21-11.4 13.5-9.7 20c1.6 6.6 3.4 1 3.4 1zm-5.9 4.3s3.9-21.4 1.8-21.8-8.3 15.6-5.4 21.6c2.9 6 3.6.2 3.6.2zm-6.4 5s2.5-21.7.2-21.9-7.1 16.1-3.8 21.9c3.4 5.8 3.6 0 3.6 0z" style="fill:#4f84d3"/><path d="M62 31.1s19.5-15.7 18.2-17.5-18.8 8.5-20.7 14.9c-1.9 6.4 2.5 2.6 2.5 2.6z" style="fill:#4f84d3"/><path d="M68.7 29.9s24.4-5.7 24-7.9-20.6-.5-25.1 4.5 1.1 3.4 1.1 3.4z" style="fill:#4f84d3"/><path d="M66.1 26.6h2.1c.7 0 1.4.3 2.1.3.7 0 1.4.1 2.1.1.7 0 1.4.1 2.1.2.7.1 1.5-.1 2.1.1.7.2 1.3.7 1.9.9.6.2 1.4.2 2.1.5.6.3 1.1.8 1.8 1.2.6.4 1.4.6 2 1 .6.4 1 1.2 1.6 1.7.6.5 1.2.8 1.8 1.3.6.5 1.4.7 1.9 1.2.6.5 1 1.2 1.5 1.7s1.1 1 1.7 1.6c.5.6.9 1.2 1.4 1.8.5.6 1.1 1.1 1.5 1.7.5.6.8 1.3 1.2 1.9.4.6.6 1.4 1 2 .3.6 1 1.1 1.3 1.7.3.6.3 1.4.6 2.1.3.6.7 1.2 1 1.9.3.7.5 1.3.7 2 .2.7.1 1.4.3 2.1.2.7.5 1.3.7 2 .1.7.1 1.4.2 2.1.1.7.5 1.3.6 2 .1.7-.3 1.4-.2 2.1 0 .7.4 1.4.4 2.1v2.2c0 .7-.2 1.5-.3 2.2-.1.7-.3 1.4-.4 2.2-.1.7 0 1.5-.1 2.2-.1.7-.4 1.4-.5 2.2-.1.7-.3 1.4-.5 2.1-.2.7-.1 1.5-.3 2.2-.2.7-.6 1.4-.9 2-.2.7-.5 1.4-.8 2.1-.3.7-.4 1.4-.8 2.1-.3.6-.9 1.2-1.3 1.9-.4.6-.9 1.2-1.3 1.8-.4.6-.7 1.4-1.1 2-.5.6-1.2 1-1.7 1.5-.5.6-1 1.1-1.5 1.6-.5.6-1.1 1.1-1.6 1.6-.6.5-.9 1.3-1.4 1.8-.6.5-1.2.9-1.8 1.4-.6.5-1.2.8-1.7 1.2-.6.4-1 1-1.6 1.4-.6.4-1.1.9-1.8 1.2-.6.3-1.4.3-2 .6-.6.3-1.1.9-1.8 1.2-.7.2-1.4.4-2 .6-.7.2-1.4.4-2 .5-.7.1-1.4-.1-2.1 0-.7.1-1.4.4-2.1.4-.7.1-1.4 0-2.1.1-.7 0-1.4.1-2.1.1-.7 0-1.4-.1-2.1-.2l-2.1-.3c-.7-.1-1.4-.2-2.1-.4-.7-.2-1.3-.5-2-.7-.7-.2-1.5-.1-2.1-.3-.7-.2-1.4-.4-2.1-.7-.7-.3-1.1-1-1.8-1.3-.6-.3-1.3-.5-2-.9-.6-.3-1.4-.4-2-.7l-1.8-1.2c-.6-.4-1.2-.7-1.8-1.1-.6-.4-1-1.1-1.5-1.5-.6-.4-1.2-.8-1.7-1.3s-1.1-.9-1.6-1.4l-1.5-1.5c-.5-.5-.7-1.3-1.1-1.9-.4-.6-1.1-1-1.5-1.6-.4-.6-.7-1.3-1.1-1.9-.4-.6-.8-1.2-1.1-1.9-.3-.7-.7-1.4-1-2-.3-.7-.6-1.4-.8-2.1-.3-.7-.4-1.4-.7-2.2-.3-.7-.5-1.4-.7-2.1-.2-.7-.5-1.4-.6-2.2-.1-.7-.4-1.4-.5-2.2-.1-.7 0-1.5-.1-2.3 0-.7-.1-1.5-.1-2.3 0-.7.1-1.5.2-2.3 0-.7-.2-1.5-.1-2.3.1-.7.3-1.5.4-2.2.1-.7.2-1.5.3-2.2.1-.7.3-1.5.4-2.2.1-.7.4-1.5.5-2.2.2-.7.5-1.4.7-2.2.2-.7.4-1.5.6-2.2.2-.7.5-1.4.8-2.1.3-.7.5-1.4.8-2.1L34 46c.4-.7.8-1.3 1.2-1.9.4-.7 1-1.3 1.3-1.9.4-.7.5-1.6.9-2.2.4-.7 1-1.3 1.3-1.9.4-.7.8-1.3 1.3-1.9.5-.6 1.1-1 1.7-1.5.5-.5 1-1.1 1.7-1.6.6-.4 1.4-.5 2.2-.9.6-.3 1.2-.7 1.9-1 .6-.2 1.3-.5 2-.7.6-.2 1.4-.2 2.1-.4.7-.2 1.3-.4 2-.6.7-.2 1.3-.5 2-.7.7-.2 1.4-.3 2.1-.5.7-.2 1.4-.1 2.1-.3.7-.1 1.4-.5 2.1-.6.7-.1 1.5 0 2.1 0 .7-.5 1.4-.8 2.1-.8zm1.4 60.2c.8 0 1.5-.1 2.2-.2.7-.1 1.6 0 2.3-.2.7-.2 1.5-.5 2.1-.8.7-.3 1.3-.7 2-1.2.6-.4 1-1.1 1.6-1.7.6-.5 1.3-.8 1.8-1.4.5-.6.6-1.4 1-2 .4-.6.9-1.2 1.2-1.9.3-.7.3-1.5.5-2.2.2-.7.8-1.3.9-2.1.1-.7.1-1.5.2-2.3.1-.7-.3-1.5-.3-2.3 0-.7.2-1.5.1-2.3-.1-.7-.3-1.5-.4-2.2-.1-.7-.1-1.5-.2-2.2-.2-.7-.5-1.4-.7-2.1l-.6-2.1c-.3-.7-.4-1.5-.7-2.1-.3-.7-1.1-1.1-1.4-1.7-.4-.6-.5-1.4-1-2-.5-.6-1.1-1-1.7-1.4-.6-.5-1.2-.9-1.8-1.3-.6-.4-1.1-1-1.8-1.3-.7-.3-1.4-.4-2.1-.6-.7-.2-1.4-.5-2.1-.6-.6.1-1.4.4-2.1.4-.7 0-1.5-.3-2.2-.2-.7.1-1.4.6-2.1.8-.7.2-1.3.5-2 .8-.7.3-1.3.5-2 .9-.6.4-1.3.7-1.9 1.1-.6.4-1 1.1-1.5 1.6s-1.1 1-1.6 1.5c-.5.6-.9 1.1-1.3 1.7-.4.6-.6 1.3-.9 2-.3.6-.8 1.2-1.1 1.9-.3.7-.5 1.4-.7 2.1-.2.7-.2 1.4-.3 2.2-.1.7-.4 1.4-.5 2.1-.1.7-.2 1.4-.2 2.2 0 .7.3 1.4.4 2.1.1.7-.1 1.5 0 2.2.1.7.3 1.4.5 2.1.2.7.5 1.4.8 2 .3.7.9 1.2 1.3 1.8.4.6.7 1.3 1.1 1.8.5.6.8 1.2 1.3 1.7s1.2.8 1.8 1.3c.6.4 1.2.7 1.8 1.1.6.4 1.1 1 1.7 1.3.7.3 1.5.2 2.1.4.7.2 1.3.5 2 .6.7.2 1.4.2 2.1.3 1 .2 1.7.4 2.4.4z" style="fill:#91bdfa"/><ellipse cx="68.2" cy="71.5" rx="9.9" ry="9.5"/><path d="M67.2 94.9c-.6 0-1.2-.2-1.7-.5-1.9-1.2-2.5-4-2.5-4.1l1-.2s.6 2.5 2.1 3.5c.6.4 1.2.4 1.9.3 3.5-.9 3.1-3.4 3.1-3.6l1-.2s.6 3.6-3.8 4.7c-.5.1-.8.1-1.1.1z" style="fill:#31458b"/><g style="opacity:.65"><path d="M61.2 88.9v-.2.2zm-.1-.6v.7-.6.2-.1c0-.3 0-.3-.1-.1.1.1.1 0 .1-.1zm-1.4-.5zm-.8-.2s0-.1 0 0c0-.1 0 0 0 0zm-.2-.4zm1 .6v-.1.1zm1.2 1.3c0-.1 0-.1 0 0zm-.8-1.6v-.1.1zm.3 0v.4-.4zm.5.5c0-.1 0 0 0 0zm-1-.5v-.1.1zm-8.2 2zm-.3-1.4v-.2.2zm7.1-1.2c0-.1 0-.1 0 0zM56 87v.6-.6zm4.9 2.1zM56 87.6c0 .1 0 .1 0 0zm1.8-.6v.1-.1zm.5.4zm-.7 0zm-.3 0s0 .1 0 0c0 .1 0 .1 0 0zm-4.8 2v-.3c0 .2-.1.3 0 .3zm8.4-.5v.1-.1zm-3.3.7c-.1 0-.1 0 0 0zm-3.3-.3c0 .1 0 .1 0 0zm3.1.3v-.2.2zm-4.9-.5z" style="fill:#fff"/><path d="M52.2 89.8v-.6.5c0-.1.1-.4.1-.4v.2c0-.3.1 0 .1-.4v.1-.5s0-.2 0 0v.2-.1.4c0-.1.1-.4.1-.3 0 .3-.1.1 0 .4v-.1.5c.1.1.1-.2.1-.1v-.5c.1-.3.1.9.1.4 0-.2 0-.7.1-.4v.4c.1 0 0-.6.1-.3v.2c0 .3 0-.2.1-.2v.3c.1-.1.1-.3.2-.4v.3c.1-.2.2 0 .2.2v-.3.2-.3.3c.1-.2.2-.5.2-.2v.1c0 .1.1-.6.1-.3v.1c.1.1.2-.1.3.3 0-.4.1.2.1-.4 0 .3 0 .4.1.6 0 0 0-.4.1-.4v.3-.3.4-.3c0-.1.1.2.1.4l.1-.3v.2c0-.3 0 .3 0 0v-.2c0 .2.1.2.1.1v.2c.1.1.1-.1.2-.1v-.5.3-.4.5-.1.3c0-.2.1.3.1 0v.1c.1 0 .1-.1.2-.1v-.4c0 .1.1.3.1.3v-.4c0 .3.1.2 0 .4.1 0 .1-.1.2-.3v-.2.2c.1-.4.2.7.3.2l.1-.3v.4c.1-.4.1.1.2-.2 0 .8.2-.1.2.4v-.2.1-.3c.1-.2.3.3.4.4.1 0 0-.9.1-.5v.3c.1-.4.2 0 .3-.3v.2c0 .2.1 0 .1-.2v.3c0 .1.1-.3.1-.1v.1c0-.1.1 0 .1-.2 0 .1.1-.1.1 0 0-.3.1.1.1-.3 0 .5.1.4.1.2v.3s.1-.1.1-.3c0 .5.1-.4.1.3.1-.2.2-.4.3-.5 0 .5-.1 0-.1.5.1-.2.1-.6.2-.5v.3c.1-.2.1 0 .2-.2v.1-.1.1c0-.3.1-.6.1-.8 0 .6.1.1 0 .9v-.3.3c0-.1 0-.3.1-.3v.3c0-.2 0-.4.1-.3v.1c.1 0 .1-.5.2-.3v.5-.3s.1-.3.1-.1v.2l.1-.1v-.5.2c0-.1 0-.2.1-.2v.5c0-.3.1-.1.1-.4v.3-.3.3-.3.1c.1.1.1-.2.1 0v.4c.1-.1.1-.4.2-.4 0-.5 0 .3.1 0v.2c0 .1.1-.1.2-.3v.1c0 .1.1.1.1.1v-.3c.1.8.2-.4.3.2v.1l.1-.1v-.5.5-.2c0 .4 0-.5.1-.2v.1c0-.1 0-.2.1-.2v.3s.1-.5.1-.2v.5-.1c0-.7.1-.1.1-.6v.9c0-.2 0 .2.1-.2v.3-.3c0-.3.1.4.2-.1.1-.2.1-.5.1-.7v.4c0 .1 0 .1.1 0v.3-.2.4c0-.1.1-.3.1-.4v.4c0-.1.1-.2.1-.4v-.1.3-.3c0-.6-.1.1-.1.1v-.4.3-.6.1-.2c0-.2-.1.3-.1 0-.1.1 0 .3-.1.7v-.8.3-.2.3c0-.3-.1.1-.1-.4v.3c0-.5 0 .1-.1-.2v-.4c0 .5-.1-.1-.1 0 0 .4-.1.2-.1.3 0-.1-.1-.2-.1-.3v-.1c0 .4 0 .3-.1.4v-.4.2-.3s-.1.3-.1.1v.9-.4.1-.2.2-.3s0 .1 0 0v-.3.3-.3.3-.2c0 .1-.1 0-.1.4-.1.3-.1-.2-.2 0v-.1c0 .1-.1.1-.1.3v-.3c0 .1 0 .2-.1 0v-.1c0-.1 0-.2-.1 0v-.2.2h-.1v-.3c-.1-.4-.1.7-.2 0v.4l-.1-.5c0-.2 0 .5-.1.4v.5-.6.1-.2.1c0-.1-.1-.1 0-.3v.3c0-.2-.1 0-.1-.1v.2c-.1-.1 0 .2-.1.3v-.7c0 .2-.1-.2-.1-.2V87v.3-.1.6c0-.1-.1.1-.1-.2.1.1 0-.3 0-.4v-.1c0-.3 0 .4-.1.3v-.3.4c0-.1 0 .1-.1.1v.3-.2c0 .3-.1-.3-.1-.1v-.4c0 .2 0-.2-.1-.1v.4l.1-.2v.3s0-.1.1-.1v.3c0-.4-.1.2-.1 0v-.6c0-.3-.1.3-.2.2v.1c0 .2 0 0-.1.1v-.4c0 .1 0 0-.1.4v-.3c-.1-.1-.1.6-.1.5v-.5.1c0-.1 0 .3-.1.1v.3-.1.4c0-.6-.1 0-.2-.5 0 .1-.1.1-.1.1v-.1c0-.2 0 .6-.1.4v-.3c0-.6-.1.1-.1-.3 0-.2-.1.2-.1.2v-.1c0 .3-.1.4-.1.5v-.4.5-.5c0-.4 0 0-.1-.1v-.2c-.1.1-.1.4-.1.4v.1c0 .4 0-.2-.1.1v-.4c0 .1-.1.4-.1.5 0-.3.1-.4.1-.6 0 0-.1 0-.1.2v-.1c0 .3-.1.5-.1.5 0-.8-.1-.2-.1-.8-.6.2-.7-.2-.8-.2v.6l-.1-.4v-.7.5c-.1.3 0-.5-.1-.2v-.2c0 .1-.1 0-.2.5v-.3c-.1-.1-.2.5-.2.2v-.1.1-.2c0 .1 0 .3-.1.2v-.2c-.1-.2-.1.4-.2.5 0-.4-.1-.6-.1-.7v-.1c-.1-.1-.2.4-.2.5 0-.5-.2-.2-.2-.5v.4c0-.1-.1.3 0-.1 0-.4 0-.3-.1-.3v.5c-.1-.8-.2.3-.2-.4 0 .1 0 .1-.1.3v-.3c-.1-.1-.1-.1-.1 0v-.2l-.1.8v-.4c-.1 0-.1-.4-.2 0v-.2s-.1-.3-.1.3c0-.4-.1 0-.1.1v-.3c0 .4 0 .5-.1.6v-.2c0-.1 0 .3-.1.1V87s0 .1-.1.3c0 .1-.1-.1-.1-.3v.3-.2c-.1-.2-.1.3-.1 0v-.2h.1v-.7c0 .2-.1.6-.1.5v-.2c0-.2 0-.1-.1-.1v1.1c0-.4-.1-.6-.1-.8-.1.2-.1.1-.2.6V87c0 .1-.1.1-.1.4V87c-.1-.6-.2.9-.3.2v.1c-.1-.3-.3.3-.4-.2 0-.1 0 .1-.1.3v-.3.3c-.1.3-.1-.7-.2-.3v.2s-.1.1-.1-.1v.1-.2l-.1.3c0-.1 0-.6-.1-.7 0 .1-.1.5-.1.6V89v-.3.2-.1.2-.4.5-.5.4c0-.1.1-.1.1-.3 0 .3.1-.1.1.4 0-.1 0-.3.1-.4 0 .5.1 0 .1.6 0-.5.1-.2.1-.5v.4c0-.4 0-.5.1-.7v.8c0-.3.1-.3 0-.6v.4-.4.3c.4.6.4.8.4.8zm.9-.9zm.1 0s-.1 0 0 0v-.2c-.1.1-.1.1 0 .2zM53 87c0-.1 0 0 0 0v.1-.1zm0 .3s0 .1 0 0c0 .1 0 .1 0 0 0 .1 0 .1 0 0zm6.7.5zm-5.5 1.7v-.1.1zm5.9-.7zm.2.1v.1-.1zm.2.1v-.1.1zm-2.2.3c0 .1 0 .1 0 0zm.6-.6v.1-.1zm-1.3.9zm1.3-.8s0-.1 0 0zm2.1.3zm0 0c.1 0 .1 0 0 0zm.1-.1c0 .1 0 .1 0 0zm-.2 0v.1-.1z" style="fill:#fff"/><path d="M60.8 89v.2-.2c.1.3 0-.1 0 0zm-.2-1.2s0-.2.1-.2c-.1-.4 0 .2-.1.2zm-.1-.2v-.2c-.1.1-.1.1 0 .2zm-1.1 0v-.3.3zm-.2 1.3v.2-.3zm-.1-1.8v.1zm-1.7.1v.3-.3zm-.8.3v-.1.1zm-2.2-.6v-.1.1z" style="fill:#fff"/></g><g style="opacity:.65"><path d="M84.2 88.9v-.2.2zm-.1-.6v.7-.6.2-.1c0-.3 0-.3-.1-.1.1.1.1 0 .1-.1zm-1.4-.5zm-.8-.2s0-.1 0 0c0-.1 0 0 0 0zm-.2-.4zm1 .6v-.1.1zm1.2 1.3c0-.1 0-.1 0 0zm-.8-1.6v-.1.1zm.3 0v.4-.4zm.5.5c0-.1 0 0 0 0zm-1-.5v-.1.1zm-8.2 2zm-.3-1.4v-.2.2zm7.1-1.2c0-.1 0-.1 0 0zM79 87v.6-.6zm4.9 2.1zM79 87.6c0 .1 0 .1 0 0zm1.8-.6v.1-.1zm.5.4zm-.7 0zm-.3 0s0 .1 0 0c0 .1 0 .1 0 0zm-4.8 2v-.3c0 .2-.1.3 0 .3zm8.4-.5v.1-.1zm-3.3.7c-.1 0-.1 0 0 0zm-3.3-.3c0 .1 0 .1 0 0zm3.1.3v-.2.2zm-4.9-.5z" style="fill:#fff"/><path d="M75.2 89.8v-.6.5c0-.1.1-.4.1-.4v.2c0-.3.1 0 .1-.4v.1-.5s0-.2 0 0v.2-.1.4c0-.1.1-.4.1-.3 0 .3-.1.1 0 .4v-.1.5c.1.1.1-.2.1-.1v-.5c.1-.3.1.9.1.4 0-.2 0-.7.1-.4v.4c.1 0 0-.6.1-.3v.2c0 .3 0-.2.1-.2v.3c.1-.1.1-.3.2-.4v.3c.1-.2.2 0 .2.2v-.3.2-.3.3c.1-.2.2-.5.2-.2v.1c0 .1.1-.6.1-.3v.1c.1.1.2-.1.3.3 0-.4.1.2.1-.4 0 .3 0 .4.1.6 0 0 0-.4.1-.4v.3-.3.4-.3c0-.1.1.2.1.4l.1-.3v.2c0-.3 0 .3 0 0v-.2c0 .2.1.2.1.1v.2c.1.1.1-.1.2-.1v-.5.3-.4.5-.1.3c0-.2.1.3.1 0v.1c.1 0 .1-.1.2-.1v-.4c0 .1.1.3.1.3v-.4c0 .3.1.2 0 .4.1 0 .1-.1.2-.3v-.2.2c.1-.4.2.7.3.2l.1-.3v.4c.1-.4.1.1.2-.2 0 .8.2-.1.2.4v-.2.1-.3c.1-.2.3.3.4.4.1 0 0-.9.1-.5v.3c.1-.4.2 0 .3-.3v.2c0 .2.1 0 .1-.2v.3c0 .1.1-.3.1-.1v.1c0-.1.1 0 .1-.2 0 .1.1-.1.1 0 0-.3.1.1.1-.3 0 .5.1.4.1.2v.3s.1-.1.1-.3c0 .5.1-.4.1.3.1-.2.2-.4.3-.5 0 .5-.1 0-.1.5.1-.2.1-.6.2-.5v.3c.1-.2.1 0 .2-.2v.1-.1.1c0-.3.1-.6.1-.8 0 .6.1.1 0 .9v-.3.3c0-.1 0-.3.1-.3v.3c0-.2 0-.4.1-.3v.1c.1 0 .1-.5.2-.3v.5-.3s.1-.3.1-.1v.2l.1-.1v-.5.2c0-.1 0-.2.1-.2v.5c0-.3.1-.1.1-.4v.3-.3.3-.3.1c.1.1.1-.2.1 0v.4c.1-.1.1-.4.2-.4 0-.5 0 .3.1 0v.2c0 .1.1-.1.2-.3v.1c0 .1.1.1.1.1v-.3c.1.8.2-.4.3.2v.1l.1-.1v-.5.5-.2c0 .4 0-.5.1-.2v.1c0-.1 0-.2.1-.2v.3s.1-.5.1-.2v.5-.1c0-.7.1-.1.1-.6v.9c0-.2 0 .2.1-.2v.3-.3c0-.3.1.4.2-.1.1-.2.1-.5.1-.7v.4c0 .1 0 .1.1 0v.3-.2.4c0-.1.1-.3.1-.4v.4c0-.1.1-.2.1-.4v-.1.3-.3c0-.6-.1.1-.1.1v-.4.3-.6.1-.2c0-.2-.1.3-.1 0-.1.1 0 .3-.1.7v-.8.3-.2.3c0-.3-.1.1-.1-.4v.3c0-.5 0 .1-.1-.2v-.4c0 .5-.1-.1-.1 0 0 .4-.1.2-.1.3 0-.1-.1-.2-.1-.3v-.1c0 .4 0 .3-.1.4v-.4.2-.3s-.1.3-.1.1v.9-.4.1-.2.2-.3s0 .1 0 0v-.3.3-.3.3-.2c0 .1-.1 0-.1.4-.1.3-.1-.2-.2 0v-.1c0 .1-.1.1-.1.3v-.3c0 .1 0 .2-.1 0v-.1c0-.1 0-.2-.1 0v-.2.2h-.1v-.3c-.1-.4-.1.7-.2 0v.4l-.1-.5c0-.2 0 .5-.1.4v.5-.6.1-.2.1c0-.1-.1-.1 0-.3v.3c0-.2-.1 0-.1-.1v.2c-.1-.1 0 .2-.1.3v-.7c0 .2-.1-.2-.1-.2V87v.3-.1.6c0-.1-.1.1-.1-.2.1.1 0-.3 0-.4v-.1c0-.3 0 .4-.1.3v-.3.4c0-.1 0 .1-.1.1v.3-.2c0 .3-.1-.3-.1-.1v-.4c0 .2 0-.2-.1-.1v.4l.1-.2v.3s0-.1.1-.1v.3c0-.4-.1.2-.1 0v-.6c0-.3-.1.3-.2.2v.1c0 .2 0 0-.1.1v-.4c0 .1 0 0-.1.4v-.3c-.1-.1-.1.6-.1.5v-.5.1c0-.1 0 .3-.1.1v.3-.1.4c0-.6-.1 0-.2-.5 0 .1-.1.1-.1.1v-.1c0-.2 0 .6-.1.4v-.3c0-.6-.1.1-.1-.3 0-.2-.1.2-.1.2v-.1c0 .3-.1.4-.1.5v-.4.5-.5c0-.4 0 0-.1-.1v-.2c-.1.1-.1.4-.1.4v.1c0 .4 0-.2-.1.1v-.4c0 .1-.1.4-.1.5 0-.3.1-.4.1-.6 0 0-.1 0-.1.2v-.1c0 .3-.1.5-.1.5 0-.8-.1-.2-.1-.8-.6.2-.7-.2-.8-.2v.6l-.1-.4v-.7.5c-.1.3 0-.5-.1-.2v-.2c0 .1-.1 0-.2.5v-.3c-.1-.1-.2.5-.2.2v-.1.1-.2c0 .1 0 .3-.1.2v-.2c-.1-.2-.1.4-.2.5 0-.4-.1-.6-.1-.7v-.1c-.1-.1-.2.4-.2.5 0-.5-.2-.2-.2-.5v.4c0-.1-.1.3 0-.1 0-.4 0-.3-.1-.3v.5c-.1-.8-.2.3-.2-.4 0 .1 0 .1-.1.3v-.3c-.1-.1-.1-.1-.1 0v-.2l-.1.8v-.4c-.1 0-.1-.4-.2 0v-.2s-.1-.3-.1.3c0-.4-.1 0-.1.1v-.3c0 .4 0 .5-.1.6v-.2c0-.1 0 .3-.1.1V87s0 .1-.1.3c0 .1-.1-.1-.1-.3v.3-.2c-.1-.2-.1.3-.1 0v-.2h.1v-.7c0 .2-.1.6-.1.5v-.2c0-.2 0-.1-.1-.1v1.1c0-.4-.1-.6-.1-.8-.1.2-.1.1-.2.6V87c0 .1-.1.1-.1.4V87c-.1-.6-.2.9-.3.2v.1c-.1-.3-.3.3-.4-.2 0-.1 0 .1-.1.3v-.3.3c-.1.3-.1-.7-.2-.3v.2s-.1.1-.1-.1v.1-.2l-.1.3c0-.1 0-.6-.1-.7 0 .1-.1.5-.1.6V89v-.3.2-.1.2-.4.5-.5.4c0-.1.1-.1.1-.3 0 .3.1-.1.1.4 0-.1 0-.3.1-.4 0 .5.1 0 .1.6 0-.5.1-.2.1-.5v.4c0-.4 0-.5.1-.7v.8c0-.3.1-.3 0-.6v.4-.4.3c.4.6.4.8.4.8zm.9-.9zm.1 0s-.1 0 0 0v-.2c-.1.1-.1.1 0 .2zM76 87c0-.1 0 0 0 0v.1-.1zm0 .3s0 .1 0 0c0 .1 0 .1 0 0 0 .1 0 .1 0 0zm6.7.5zm-5.5 1.7v-.1.1zm5.9-.7zm.2.1v.1-.1zm.2.1v-.1.1zm-2.2.3c0 .1 0 .1 0 0zm.6-.6v.1-.1zm-1.3.9zm1.3-.8s0-.1 0 0zm2.1.3zm0 0c.1 0 .1 0 0 0zm.1-.1c0 .1 0 .1 0 0zm-.2 0v.1-.1z" style="fill:#fff"/><path d="M83.8 89v.2-.2c.1.3 0-.1 0 0zm-.2-1.2s0-.2.1-.2c-.1-.4 0 .2-.1.2zm-.1-.2v-.2c-.1.1-.1.1 0 .2zm-1.1 0v-.3.3zm-.2 1.3v.2-.3zm-.1-1.8v.1zm-1.7.1v.3-.3zm-.8.3v-.1.1zm-2.2-.6v-.1.1z" style="fill:#fff"/></g><path d="M91.5 84.3c-.5-.1-.5.1-1 .1 0 0-.1.2-.3.8-.1.3 0 .6-.1 1-.1.3-.1.6-.2 1-.1.3-.1.7-.2 1-.1.3-.4.6-.5.9-.1.3-.3.6-.4.9-.1.3-.2.6-.4.9-.1.3-.4.5-.6.8-.2.3-.2.7-.4 1-.2.3-.4.5-.6.8-.2.3-.4.5-.6.8-.2.3-.3.6-.5.9-.2.2-.5.4-.8.6-.2.2-.4.5-.7.7 0 0-.1 0-.1-.1-.2-.3-.4-.5-.7-.6-.3-.2-.6-.2-.9-.2-.3-.1-.6-.1-.9-.1-.3 0-.7-.1-1 0-.5.1-.7.6-.7.7.1.2.7.6 1.3.5.4 0 .7-.1 1.1 0 .4.1.8.2 1 .5l.1.2c-.3.2-.7.3-1 .4-.3.2-.5.5-.8.6-.3.2-.8.8-.8.8 0 .1.9.3 1.2.1.3-.2.6-.4.8-.6l.9-.6c0 .3-.1.7-.2 1-.1.3-.2.6-.4.9-.2.3-.3 1.1-.3 1.2.1.1.9-.2 1.1-.6.2-.3.3-.7.4-1.1.1-.4.2-.7.2-1.1 0-.4 0-.8-.1-1.1l.9-.6c.2-.2.4-.6.6-.8.2-.2.4-.5.6-.8.2-.3.5-.4.7-.7.2-.3.4-.6.6-.8.2-.3.3-.6.5-.9.2-.3.4-.6.5-.9.2-.3.3-.6.4-.9.1-.3.3-.6.4-.9.1-.3.3-.6.4-.9.1-.3.2-.7.3-1 .1-.3.3-.6.3-1 .1-.4.3-.7.3-1 .1-.4 0-.7.1-1 .5-.3.5-.8.5-.8zm-51.5 0c.5-.1.5.1 1 .1 0 0 .1.2.3.8.1.3 0 .6.1 1 .1.3.1.6.2 1 .1.3.1.7.2 1 .1.3.4.6.5.9.1.3.3.6.4.9.1.3.2.6.4.9.1.3.4.5.6.8.2.3.2.7.4 1 .2.3.4.5.6.8.2.3.4.5.6.8.2.3.3.6.5.9.2.2.5.4.8.6.2.2.4.5.7.7 0 0 .1 0 .1-.1.2-.3.4-.5.7-.6.3-.2.6-.2.9-.2.3-.1.6-.1.9-.1.3 0 .7-.1 1 0 .5.1.7.6.7.7-.1.2-.7.6-1.3.5-.4 0-.7-.1-1.1 0-.4.1-.8.2-1 .5l-.1.2c.3.2.7.3 1 .4.3.2.5.5.8.6.3.2.8.8.8.8 0 .1-.9.3-1.2.1-.3-.2-.6-.4-.8-.6l-.9-.6c0 .3.1.7.2 1 .1.3.2.6.4.9.2.3.3 1.1.3 1.2-.1.1-.9-.2-1.1-.6-.2-.3-.3-.7-.4-1.1-.1-.4-.2-.7-.2-1.1 0-.4 0-.8.1-1.1l-.9-.6c-.2-.2-.4-.6-.6-.8-.2-.2-.4-.5-.6-.8-.2-.3-.5-.4-.7-.7-.2-.3-.4-.6-.6-.8-.2-.3-.3-.6-.5-.9-.2-.3-.4-.6-.5-.9-.2-.3-.3-.6-.4-.9-.1-.3-.3-.6-.4-.9-.1-.3-.3-.6-.4-.9-.1-.3-.2-.7-.3-1-.1-.3-.3-.6-.3-1-.1-.4-.3-.7-.3-1-.1-.4 0-.7-.1-1-.4-.3-.5-.8-.5-.8z" style="fill:#31458b"/><path d="M41.9 43.3zm.1 0s-.1 0-.1-.1l.1.1c-.1 0-.1 0 0 0zm.4-.8zm.2-.4s.1 0 0 0c.1 0 .1 0 0 0zm.1-.1s.1 0 0 0zm-.3.5zm-.5.6zm.5-.3zm-.1.1zm-.2.2zm.3-.4zm2.3-4.4zm.3 0v.1zm-2.1 3.6zm.6-1.3c-.1 0 0-.1-.1-.1l.1.1zm-1.6 2.5zm1.5-2.5zm-.4 1zm-.2.2zm.2-.4zm.1-.1zm1.3-2.6s0-.1 0 0zm-2.5 4.4zm.7-1.9zm1.1-1.7zm-1 1.6zm1.7-2.4z" style="fill:#6594d9"/><path d="M44.4 38.5s.1 0 0 0c.1.1.1 0 0 0v.2s.1 0 .1.1c-.1 0 0 0 0-.1v.1c-.1 0 0 0-.1-.1l-.1-.1v.1l.1.1c0 .1-.2-.1-.1 0 0 0 .1.1 0 .1l-.1-.1s.1.1 0 .1 0 0 0 .1h-.1v.1c0 .1-.1.1-.1.1v.1s.1.1 0 .1 0 .1-.1.1c.1.1-.1 0 0 .1h-.1s0 .1.1.1h-.1v.1h-.2v.1c0 .1-.1 0 0 0h-.1s0 .1-.1.1c0 0 .1 0 .1.1h-.1.1s-.1 0-.1-.1c0 0-.1 0 0 0v.1l.1.1h-.1l.1.1h-.1v.1c0 .1-.2 0-.1.1v.1h-.1v.1c-.1-.1 0 .1-.1.1 0 .1-.1.1-.2.2 0 0 .2.1.1.1h-.1c0 .1-.1.1 0 .2v.1h-.1s0 .1 0 0v.3h-.2v.1c-.1 0 0 .1-.1.1v.2c-.1 0 0-.1-.1-.1 0 .1.1.1 0 .1v.1c.1 0 .1.1.1.1-.1-.1 0 0-.2-.1h-.1s.1 0 0 .1c0 0 .1.1 0 .1 0 0 .1.1 0 .1h-.1v.1s.1 0 .1.1H42c.1 0 0 0 .1.1h-.2s.1 0 0 0v.1h-.1v.1c.1 0-.1 0 0 0 0 0-.1 0 0 0v.1h.1c-.2 0 0 .1-.1.1h.1-.1c-.1 0 .1 0 0 0h-.1s.1.1 0 .1h-.1l.1.1c-.1-.1 0 0-.1 0h-.1v.1h-.1.1c.1 0-.1 0 0 .1l.1.1h-.2s.1 0 0 0h-.1l.1.1h-.1s0 .1.1.1h-.1c.1 0 0 0 0-.1h.1-.1.1s.1 0 0 0c.1 0 0-.1 0-.1s-.1 0-.1-.1h.1-.2c.1 0 0-.1.1 0h-.1c.1 0 0 0 0 0h.1c-.1 0 0 0 0 0-.1 0 0 0 0-.1h.1c-.1 0 0 0-.1-.1h.1v-.1s-.1 0-.2-.1h.3-.1.1s0-.1-.1-.1c0-.1.1-.1 0-.1v-.1h.1s.1 0 0 0h.2c.1 0-.1-.1 0-.1h-.1.1s-.1-.1 0-.1c0 0-.1 0-.1-.1h.2v-.1h.3s-.1 0-.1-.1c0 0 .1 0 .1.1.1 0-.1 0 0-.1h.1-.1s.1 0 0 0h.1s.1 0 0 0h-.1v.1-.1H42c.1 0 0 0 0 0l.1.1c.1 0 0-.1 0-.1h.1l-.1-.1h.1l-.1-.1s.1 0 .1.1h-.1c.1 0 0-.1.1-.1v-.1s-.1-.1 0-.1c.1.1 0 0 .1 0v-.1l-.1-.1h.1s-.1 0-.1-.1h.1c.1 0 0 0 0 0s-.1-.1 0-.1c-.1-.1 0 0 0 0h.1v-.1l.1.1v-.1s-.1-.1 0-.1c.1.1.1 0 .2 0 0-.1.1-.1.1-.1-.1 0 0 0-.1-.1h.2-.1c0-.1.1 0 .1 0V41c.1 0 0-.1 0-.1h.1v-.2c1-.6 1-.7 1-.7s-.1 0-.1-.1c0 0 0-.1 0 0h.1v-.1c.2.1 0-.1.2-.1v-.1l.1-.1-.1-.1h.1s.1 0 .1-.1c0 0 .1 0 0-.1.1 0 0 0 0-.1s-.1-.1-.1-.1v-.1h.1v-.2s.1 0 .1.1c0 0-.1-.1 0-.1l-.1-.1s0-.1-.1-.1c.1 0 .1 0 .2.1v-.3s0 .1.1 0c.1 0-.1-.2.1-.2.1 0 .1-.2.2-.2v-.2c0-.1.1.1.1 0 0 0 0-.1 0 0v-.1l.1.1s0-.1-.1-.1l-.2-.2v.2s0-.1-.1-.1c0 0 .1 0 .1.1 0 0-.1 0 0 0v.1h-.1v.1l-.1-.1c.1.1 0 .1 0 .1h-.1l.1.1c0 .6 0 .6-.2.6h.1-.1c.1.1.1 0 .1.1 0-.1 0-.1-.1-.1zm-.2.5zm0 0s0 .1 0 0zm.4.2s-.1 0 0 0c-.1 0-.1 0 0 0zm-.1 0s0-.1 0 0zm-2.1 3.3zm1.3-3zm-1.6 3.2zm0 .1zm-.1.1zm.5-1.3zm-.1.4zm.2-.8zm-.2.8zm-.5 1.2zm0 0zm0 0zm0-.1zm0 0s.1 0 0 0zm.3-.1s.1 0 0 0c.1 0 0 0 0 0zm.1-.1c0 .1 0 .1 0 0zm.2-.5c.1 0 0 0 0 0zm-.2-.2zm.4 0v.1-.1zm.4-.9s0 .1 0 0zm.2-.4zm.8-1zm-.7 20.7s.1 0 0 0zm.2-.1h-.1.1c-.1 0-.1 0 0 0-.1 0-.1.1 0 0 0 .1 0 0 0 0-.1 0-.1 0 0 0zm.2-.8zm.1-.5zm.1 0zm-.2.5zm-.4.7zm.4-.4zm0 .1s-.1 0 0 0c-.1 0-.1 0 0 0zm-.2.3zm.2-.6s.1 0 0 0zm1.3-4.7zm.4 0zM44.1 59zm.4-1.4h-.1.1zm-1.1 2.8zm1-2.8zm-.2 1.1zm-.2.2zm.1-.4s.1 0 0 0c0 0 .1 0 0 0zm.1-.1zm.7-2.9zm-1.5 4.9zm.3-2zm.7-1.9zm-.7 1.8c.1 0 .1 0 0 0 .1 0 .1 0 0 0zm1.3-2.8zm-.1-.2c0 .1.1.1 0 0 .1.1.1.1 0 0 0 .1.1.1.1.1v.1h.1-.1v.1c-.1 0 0 0-.1-.1h-.1v.1h.1c0 .1-.2 0-.1 0l.1.1h-.1s.1.1 0 .1h-.1v.1h-.1c0 .1-.1.1-.1.1h.1c0 .1.1.1 0 .1 0 0 .1.1 0 .1 0 0 0 .1-.1.1.1 0-.1 0 0 .1h-.1s.1 0 .1.1h-.1.1-.2v.1c0 .1-.1 0 0 0 0 0-.1 0 0 0v.1h.1-.1.1-.1s-.1 0 0 0v.1c.1 0 0 0 .1.1 0 0-.1 0-.1.1h.1-.1v.1c.1.1-.2.1-.1.1v.1h-.1c.1.1 0 .1 0 .1-.2 0 0 .1-.1.1h.1c0 .1-.1.2-.2.2 0 0 .2.1.1.1h-.1c.1.1 0 .1 0 .2v.1h-.1s0 .1 0 0v.1c.1 0 0 0 0 .1-.1 0-.1 0 0 0h-.1.1c-.1 0 .1.1-.1.1 0 .1.1.1.1.2-.1 0 0-.1-.1-.1 0 .1.1.1.1.1h-.1v.1c.1 0 .1.1.1.1h-.2.1-.1s.1 0 .1.1c0 0 .1 0 0 .1 0 0 .1.1 0 .1h-.1v.1h.1-.2c.1 0 0 0 .1.1h-.2s.1 0 0 0v.1h-.1s.1.1 0 .1c.1 0-.1 0 0 0 0 0-.1 0 0 0v.2h.1c-.2 0 .1.1-.1.1h.1-.1c-.1 0 .1 0 0 0h-.1s.1 0 0 .1h-.1c.1 0 0 0 .1.1h-.3.1c.1 0-.1.1 0 .1l.1.1h-.2s.1 0 0 0h-.1l.1.1h-.1l.1.1h-.1c.1 0 0 0 0-.1h.1-.1.1s.1 0 0 0c.1 0-.1-.1 0-.1h-.1.2-.2c.1 0 0-.1.1 0h-.1c.1 0 0 0 0 0h.1c-.1 0 0 0 0 0-.1 0 0 0 0-.1l.1-.1c-.1 0-.1 0-.1-.1h.2s-.1-.1 0-.1h-.2.3-.1.1-.1s0-.1-.1-.1 0-.1 0-.1v-.1h.1s.1 0 0 0h.2c.1 0-.1-.1 0-.1h-.1.1s-.1 0-.1-.1h-.1.2-.1v-.2h.3-.1.1c.1 0-.1 0-.1-.1h.1-.1c-.1 0 .1 0 0 0h.1s.1 0 0 0h-.3c.1 0 0 0 0-.1h.1c.1 0 0-.1 0-.1h.1l-.1-.1h.1l-.1-.1h.1s-.1 0 0 0h-.1c.1 0 0-.1.1-.1v-.1s-.1 0-.1-.1h.2v-.1c-.1 0-.1-.1-.1-.1h.1-.1.1c.1 0 0 0 0 0l-.1-.1c-.1 0 0 0 0 0h.1l-.1-.1c.1 0 .1.1.1.1v-.1c-.1 0-.1-.1-.1-.1.1.1.1 0 .2 0 0-.1.1-.1.1-.1-.1 0 0 0-.1-.1h.2s-.1 0 0 0h-.1c0-.1.1 0 .1-.1 0 0 0-.1-.1-.1h.1s-.1-.1 0-.1-.1-.1-.1-.1h.1V57c.1 0 .1-.1.1-.1h-.1s0-.1 0 0h.1-.1c.2 0 0-.1.1-.1v-.1h.1v-.1l-.1-.1h.1s.1 0 0-.1c0 0 .1 0 0-.1.1 0 0 0 0-.1-.1 0-.1-.1-.1-.1V56h.1s-.1 0 0 0v-.1s.1 0 .1.1l-.1-.1h-.1s-.1 0-.1-.1h.2s0-.1-.1-.1v-.1h.1c.1 0-.1-.2 0-.2s0-.2.2-.2v-.1h.1V55c0-.1.2 0 .1-.1 0 0 0-.1 0 0v-.1s.1.1.1 0l-.1-.1h-.1c1.1.3 1 .3.9.3v.1l.1.1h-.1s.1 0 .1.1c0 0-.1 0 0 0v.1h-.1v.1c-.1-.1 0 0-.1 0 .1.1 0 .1 0 .1 0-.3-.1-.3-.2-.3h.2-.2.2c-.1 0-.1.1-.2 0h.1c0 .1 0 0-.1 0 0 .1 0 0 0 0zm-.1.6zm0 0zm.4.1zm-.1 0zm-1.3 3.7zm.6-3.2h.1-.1zm-.9 3.4zm0 .1zm0 .1zm.2-1.3zm0 .4zm0-.8zm0 .8zm-.3 1.3zm0 0zm0 0zm0-.1zm0-.1s.1 0 0 0zm.3-.1c0 .1 0 0 0 0 .1 0 0 .1 0 0zm0-.1c.1.1.1.1 0 0 .1 0 .1 0 0 0zm.2-.5c0-.1 0 0 0 0zm-.3-.2zm.4 0zm.2-1zm.1-.4zm.6-1.2zm39.7-8.1s0 .1 0 0zm0 .2.1-.1c-.1 0-.1 0-.1.1 0-.1 0-.1 0 0 0-.1 0-.1 0 0-.1-.1 0 0 0 0zm.8.8zm.5.6c0-.1 0 0 0 0zm0 .1zm-.5-.7zm-.6-.9s0 .1 0 0zm.3.7zm-.2-.1s.1-.1 0 0c.1-.1.1 0 0 0 .1 0 .1 0 0 0zm-.2-.3zm.6.6c-.1 0-.1 0 0 0zm3.5 5.8c-.1 0 0 0 0 0zm-.3.3zM86 50.6zm1.2 1.7s.1 0 .1-.1c0 0-.1 0-.1.1zm-2.4-3.4zm2.5 3.3zm-.9-1.2zm-.2-.4zm.3.5zm.2.2v-.1zm1.9 3.6zm-3.8-6zm2.1 1.9c0 .1 0 0 0 0zm1.3 2.6zM87 50.9c0 .1 0 .1 0 0 0 .1 0 .1 0 0zm1.6 4z" style="fill:#6594d9"/><path d="M88.8 55.1h-.1c-.1-.1 0 0 .1 0-.1-.1-.2-.1-.2-.1-.1 0 0-.1-.1-.1h-.1s-.1 0 0 0h.1s-.1 0-.1-.1h.2v-.1h-.1c-.1-.1.2-.1.1-.1h-.1.1s-.1 0-.1-.1h-.1.1l-.1-.1h.1c-.1-.1 0-.1 0-.2h-.2c-.1 0-.1-.1-.1-.2 0 0-.1 0-.1-.1s-.1-.1 0-.2c-.1 0 0-.1-.1-.1 0-.1.1-.1.1-.1H88h.1-.1.1v-.1H88h.1c-.1 0 .1 0 0 0v-.1c0-.1-.1-.1-.1-.2 0 0-.1.1-.1 0h.1-.1.2V53c0-.1-.1-.1-.1-.1h-.1v-.1h-.1s0-.1.1-.1c0 0 0-.1-.1-.1s.1-.2-.1-.2h-.1.1c-.1 0 0-.1-.1-.1.1-.1-.1-.1 0-.2-.1-.1-.1-.3-.1-.4 0 0-.2.1-.1 0h.1c-.1 0-.1-.2-.2-.2 0 0 0-.1-.1 0 0 0-.1 0 0 0 0 0 0-.1-.1 0 0 0-.1 0-.1-.1-.1 0 0-.1-.1 0 .1-.1 0-.1 0-.1h-.1c.1-.1-.1 0 0-.1-.1 0-.2-.1-.2-.1.1-.1.1.1.1 0-.1 0-.2 0-.2-.1h.1c-.1 0-.1-.1-.1-.1 0 .1-.1 0-.1.1.1-.1 0-.1.1-.1h-.3s-.1 0-.1-.1c.1 0 0 0 .1-.1h-.1s-.1.1-.1 0v-.1h-.1l.1-.6h-.1s-.1.1-.1 0c0 0-.1 0-.1-.1s0 0 .1 0c-.1 0-.2 0-.2-.1-.1.1 0-.1-.1-.1 0 0-.1 0-.1-.1v-.1h-.1c0-.2-.2 0-.1-.2h-.1v.1H85s0-.1.1-.1c0-.1-.1.1-.1 0h-.1.1-.1v-.1c-.1.1-.1 0-.2 0 .1 0 0 0 .1-.1V49h-.1c-.1 0 0-.1-.1-.1h-.2.1-.1l.1-.1h-.1.1-.1v.1c-.1.1.1 0 .1 0l.2.1h.1s0 .1-.1.1c0 .1.1 0 .1 0 .1 0 0 0 .1-.1l-.1.1c0 .1.1 0 0 .1v-.1c-.1.1 0 0 0 .1l-.1.1c.1-.1 0 0 .1 0 0-.1.1 0 .1 0v.1c.1-.1.1 0 .1 0h-.1.1l.1-.1s0 .1-.1.1v.2h.2c.1 0 .1.1.1.1h.1v.1s0 .1.1 0v.1h-.1c0 .1.2 0 .1.1l.1-.1v.1c0 .1.1 0 .1 0l.1-.1-.1.1v.2c0 .1 0 0 .1 0 0 0-.1.1 0 .1l-.1.1c.1 0 0 .1 0 .1l.1-.1v.1h-.1c0 .1.1 0 .1 0v.1l.1-.1h.1c.1 0 0 .1 0 .1s-.1 0-.1.1c.1 0 0 .1 0 .1h.1-.1.2c0 .1.1 0 0 .1l-.1.1c0 .1.1 0 .1.1h.1l-.1.1h.1v.1h.1-.1s.1 0 0 0h.2c-.1.1.1.1 0 .2 0 0 .1 0 .1.1s.1 0 .1 0c0 .1 0 0-.1 0-.1.1 0 0 0 .1 0 0 .1 0 .1.1h.1-.1.1s0 .1-.1.1c-.1.1 0 0 0 .1h.1c.1 0 0 0 0 0h-.1.1-.1.2c-.1.1 0 .1-.1.2.1 0 0 .1.1.2.1-.1 0 0 .1 0v.1h-.1l-.1.1h.1v-.1c.1 0-.1.1 0 .1 0 0 0 .1.1.1h-.1c0 .1.2.1.1.2 0 0 .1 0 0 0h.1c0 .1.1.1.2.1-.1 0-.1.1-.1.1 0 .1.1.1.2.1-.1.1 0 .1 0 .2h.1s.1 0 0 0 0 .1 0 .1h.1c-.1.1.1.1 0 .2h.1-.1v.1h.2-.1c0 .1 0 .1.1.1 0 0 0 .1.1.1-.1 0 0 .1 0 .1h-.1.1s.1 0 0 0h.1v.1h.1c0 .1.1.1 0 .1v-.1h-.1s.1 0 .1.1v.1h.1s.1 0 0 0h.1c-.1 0-.1.1-.2.1 0 0 0 .1.2.1 0 0 0 .1.1.1 0 0-.1 0 0 0-.1.1.2.1.1.2 0 .1.1.2 0 .3h.1-.1.1c.1 0-.1.1 0 .1v.1h.1s-.1 0-.1.1c0 0 .1.1.1 0h.4-.2.1-.1s.1 0 0 0h.1l-.1-.1c.1 0 0-.1.1-.1h-.1c.1 0 0-.1.1-.1-.1 0-.1-.1-.1-.1h-.2.2-.1c0 .1 0 .1.1 0-.1.1-.1.1-.1 0h.1c-.1 0 0 0 0 0zm-.4-.7zm0-.1zm-.3.2zm.1 0zm-2.8-4.8zm2.9 3.7zm-3-4.1zm-.1-.1zm-.1-.1zm1.4 1.3zm-.5-.3c0-.1 0-.1 0 0zm.9.7zm-.9-.7zm-1.3-1.3zm0 0zm0 0zm.1.1zm.1 0s-.1 0 0 0z" style="fill:#6594d9"/><path d="M84.9 49.2c-.1 0-.1.1 0 0-.1.1-.1 0 0 0zm0 .1s0 .1 0 0c0 .1 0 .1 0 0zm.7.6c-.1.1-.1 0 0 0zm.3-.1h-.1zm-.2.4zm.9 1.1c0-.1 0 0 0 0zm.4.4c0 .1 0 .1 0 0 0 .1 0 0 0 0zm.7 1.7v.1zm5.6 1s0 .1 0 0zm0 .2s.1 0 .1-.1c-.1 0 0 0-.1.1 0-.1 0-.1 0 0 0-.1 0-.1 0 0 0-.1 0-.1 0 0zm.6 1zm.4.6zm0 .1zm-.4-.7zm-.4-1zm.2.7zm-.2-.2s.1 0 0 0c.1 0 .1 0 0 0 .1 0 0 0 0 0zm-.1-.3zm.4.7zm2.3 6.4zm-.3.2zm-1.5-5.6zm.9 1.9h.1-.1zm-1.7-3.8zm1.8 3.8zm-.7-1.4zm-.1-.4zm.3.5zm.1.2zm1.2 3.9s0 .1 0 0zm-2.6-6.6zm1.7 2.3c0 .1 0 0 0 0zm.8 2.8zm-.8-2.6zm.9 4.1zm.1.3h-.1c0-.1 0-.1.1 0 0-.1-.1-.1-.1-.1-.1 0 0-.1-.1-.1h-.1.1l-.1-.1c.1 0 0 .1.1 0h.1v-.1H96c0-.1.2-.1.1-.1 0 0-.1 0-.1-.1h.1s-.1 0-.1-.1c.1 0 0 0 0 0h.1s-.1-.1-.1-.2h.1v-.2h-.2.1c-.1 0-.1-.1-.1-.2 0 0-.1 0-.1-.1v-.2c-.1 0 0-.1-.1-.1.1-.1.1 0 .1-.1h-.1.1-.1.1s0-.1.1-.1l-.1-.1h.1c-.1 0 .1 0 0 0v-.1c0-.1 0-.1-.1-.2h-.1.1-.1.2s.1-.1 0-.1c0-.1 0-.1-.1-.1h-.1v-.1h-.1s0-.1.1 0c0 0 0-.1-.1-.1-.1-.1.1-.2 0-.2h-.1.1c-.1 0 0-.1-.1-.1.1-.1-.1-.1 0-.2-.1-.1 0-.3-.1-.4h-.1.1c-.1-.1-.1-.2-.2-.2 0 0 0-.1-.1-.1 0 0-.1 0 0-.1 0 0 0-.1-.1 0 0 0-.1-.1 0-.1-.1 0 0-.1-.1 0 .1 0 0-.1 0-.1h.1-.1c.1-.1-.1 0 0-.1-.1 0-.1-.1-.2-.1.1 0 0 .1.1 0-.1 0-.1 0-.2-.1h.1c-.1 0-.1-.1-.1-.1h-.2c.1 0 0-.1.1-.1h-.3s-.1 0-.1-.1c.1 0 0 0 .1-.1h-.1s-.1.1-.1 0v-.1s-.1 0 0 0c0 0 .1 0 .1-.1H94h.1s-.1.1-.1 0l-.1-.1c.1-.1 0 0 .1 0 0 0-.1-.1-.2-.1-.1.1 0-.1 0-.1s.1 0 0 0l-.1-.1v-.1h-.1c.1-.2-.2-.1-.1-.2h-.1v.1h-.1s.1 0 .1-.1-.1.1-.1 0h-.1.1-.1v-.1c-.1.1-.1 0-.2 0 .1 0 0 0 .1-.1H93c-.1 0 0-.1-.1-.1h-.2.1-.1.1-.1.1-.1c-.1.1.1 0 .1.1h-.1.1s0 .1-.1 0c0 .1.1 0 0 .1.1 0 0 0 .1-.1l-.1.1h.2c0 .1.1 0 0 .1h.1c-.1.1 0 0 0 .1h-.1c.1 0 0 0 0 .1h.1v.1h.1-.1.1s.1 0 .1.1l.1-.1h-.1v.1h.1v.1h.1s0 .1.1 0c.1 0 0 .1.1.1h.1v.2h-.1c0 .1.2 0 .1.1l.1-.1-.1.1c0 .1.1 0 .1 0s.1-.1.1 0l-.1.1v.2c0 .1.1 0 .1 0s-.1 0 0 .1h-.1c.1 0 0 .1 0 .1h.1v.1h-.1c0 .1.1 0 .1 0s-.1 0 0 0h.2c.1 0 0 .1 0 .1s-.1 0-.1.1c.1 0 0 .1 0 .1h.1-.1.2c-.1.1.1 0 0 .1l-.1.1c0 .1.1 0 .1.1l-.1.1h.2-.1s.1 0 0 0h.2c-.1.1.1.1 0 .2l.1.1c0 .1.1 0 .1 0h-.1c-.1.1 0 0 0 .1 0 0 .1 0 .1.1.1 0 .1 0 .1.1h-.1.1s0 .1-.1.1 0 0 0 .1c0 0 .1 0 .1.1.1 0 0 0 0 0h-.1s.1 0 .1.1h-.1s0 .1.1 0h.1c-.1 0 0 .1-.1.2.1 0 0 .1 0 .2.1-.1 0 0 .1 0l-.1.1h-.1l-.1.1h.1c.1 0-.1.1 0 .1 0 0 0 .1.1.1h-.1c0 .1.1.1.1.2 0 0 .1 0 0 0 0 0 .1 0 0 0 0 .1.1.1.1.1-.1 0-.1.1-.1.1 0 .1.1.1.1.2-.1.1 0 .1-.1.2h.1s.1 0 0 0 0 .1 0 .1h.1c-.1.1.1.2 0 .2h.1-.1v.1h.2-.1c0 .1-.1.1 0 .2 0 0 0 .1.1.1-.1 0 0 .1 0 .1H95h.1s.1 0 0 .1h.1s0 .1-.1.1h.1s.1.1 0 .1v-.1h-.1l.1.1h.1s.1 0 0 0h.1c-.1 0-.1.1-.2.1 0 0 0 .1.1.1 0 0 0 .1.1.1h-.1c-.1.1.2.1 0 .2-.1.1.1.2-.1.3l.1.1h-.1.1c0 .1-.2.1-.1.1v.2h-.1l.1.1h.1c.1 0 .2.1.3 0h-.1.1l.4-.9h.1-.1s.1 0 0 0l-.1-.1c.1 0 0-.1.1 0 0 0-.1 0-.1-.1.1 0 0-.1.1 0-.1 0 0-.1-.1-.1h.1c-.1 0-.1 0-.1-.1h.2c-.1 0-.1-.1-.1 0 .1-.1.1-.1.2-.1-.2.1-.1 0-.1 0h.1c0-.1 0 0 0 0zm-.2-.8zm0-.1c0 .1 0 .1 0 0 0 .1 0 0 0 0zm-.4.2zm.1 0zm-1.8-5.3zm2.1 4.2zm-2.1-4.6zm-.1-.1zm-.1-.1zm1.1 1.5c.1 0 .1 0 0 0zm-.4-.4c.1 0 .1 0 0 0 .1 0 .1 0 0 0zm.8.9zm-.7-.9zm-1.1-1.5zm0 0zm0 0zm.1.1zm0 .1s.1-.1 0 0c.1-.1 0 0 0 0zm0 .3s-.1 0 0 0c-.1.1 0-.1 0 0zm0 .1zm.5.7zm.4 0v-.1l-.1.1zm-.3.3zm.7 1.2c.1 0 0 0 0 0zm.3.5c0 .1 0 .1 0 0 0 .1 0 0 0 0zm.4 1.9v-.1.1zm-61.1-.1s.1 0 0 0zm.2-.1h-.1.1c-.1 0-.1 0 0 0-.1 0-.1.1 0 0 0 .1 0 0 0 0-.1 0-.1 0 0 0zm.2-.8zm.1-.5zm.1 0zm-.2.5zm-.4.7zm.4-.4zm0 .1s-.1 0 0 0c-.1 0-.1 0 0 0zm-.2.3zm.2-.6s.1 0 0 0zm1.3-4.7zm.4 0zM35.1 58zm.4-1.4h-.1.1zm-1.1 2.8zm1-2.8zm-.2 1.1zm-.2.2zm.1-.4s.1 0 0 0c0 0 .1 0 0 0zm.1-.1zm.7-2.9zm-1.5 4.9zm.3-2zm.7-1.9zm-.7 1.8c.1 0 .1 0 0 0 .1 0 .1 0 0 0zm1.3-2.8zm-.1-.2c0 .1.1.1 0 0 .1.1.1.1 0 0 0 .1.1.1.1.1v.1h.1-.1v.1c-.1 0 0 0-.1-.1h-.1v.1h.1c0 .1-.2 0-.1 0l.1.1h-.1s.1.1 0 .1h-.1v.1h-.1c0 .1-.1.1-.1.1h.1c0 .1.1.1 0 .1 0 0 .1.1 0 .1 0 0 0 .1-.1.1.1 0-.1 0 0 .1h-.1s.1 0 .1.1h-.1.1-.2v.1c0 .1-.1 0 0 0 0 0-.1 0 0 0v.1h.1-.1.1-.1s-.1 0 0 0v.1c.1 0 0 0 .1.1 0 0-.1 0-.1.1h.1-.1v.1c.1.1-.2.1-.1.1v.1h-.1c.1.1 0 .1 0 .1-.2 0 0 .1-.1.1h.1c0 .1-.1.2-.2.2 0 0 .2.1.1.1h-.1c.1.1 0 .1 0 .2v.1h-.1s0 .1 0 0v.1c.1 0 0 0 0 .1-.1 0-.1 0 0 0h-.1.1c-.1 0 .1.1-.1.1 0 .1.1.1.1.2-.1 0 0-.1-.1-.1 0 .1.1.1.1.1h-.1v.1c.1 0 .1.1.1.1h-.2.1-.1s.1 0 .1.1c0 0 .1 0 0 .1 0 0 .1.1 0 .1h-.1v.1h.1-.2c.1 0 0 0 .1.1h-.2s.1 0 0 0v.1h-.1s.1.1 0 .1c.1 0-.1 0 0 0 0 0-.1 0 0 0v.2h.1c-.2 0 .1.1-.1.1h.1-.1c-.1 0 .1 0 0 0h-.1s.1 0 0 .1h-.1c.1 0 0 0 .1.1h-.3.1c.1 0-.1.1 0 .1l.1.1h-.2s.1 0 0 0h-.1l.1.1h-.1l.1.1h-.1c.1 0 0 0 0-.1h.1-.1.1s.1 0 0 0c.1 0-.1-.1 0-.1h-.1.2-.2c.1 0 0-.1.1 0h-.1c.1 0 0 0 0 0h.1c-.1 0 0 0 0 0-.1 0 0 0 0-.1l.1-.1c-.1 0-.1 0-.1-.1h.2s-.1-.1 0-.1h-.2.3-.1.1-.1s0-.1-.1-.1 0-.1 0-.1v-.1h.1s.1 0 0 0h.2c.1 0-.1-.1 0-.1h-.1.1s-.1 0-.1-.1h-.1.2-.1v-.2h.3-.1.1c.1 0-.1 0-.1-.1h.1-.1c-.1 0 .1 0 0 0h.1s.1 0 0 0h-.3c.1 0 0 0 0-.1h.1c.1 0 0-.1 0-.1h.1l-.1-.1h.1l-.1-.1h.1s-.1 0 0 0h-.1c.1 0 0-.1.1-.1v-.1s-.1 0-.1-.1h.2v-.1c-.1 0-.1-.1-.1-.1h.1-.1.1c.1 0 0 0 0 0l-.1-.1c-.1 0 0 0 0 0h.1l-.1-.1c.1 0 .1.1.1.1v-.1c-.1 0-.1-.1-.1-.1.1.1.1 0 .2 0 0-.1.1-.1.1-.1-.1 0 0 0-.1-.1h.2s-.1 0 0 0h-.1c0-.1.1 0 .1-.1 0 0 0-.1-.1-.1h.1s-.1-.1 0-.1-.1-.1-.1-.1h.1V56c.1 0 .1-.1.1-.1h-.1s0-.1 0 0h.1-.1c.2 0 0-.1.1-.1v-.1h.1v-.1l-.1-.1h.1s.1 0 0-.1c0 0 .1 0 0-.1.1 0 0 0 0-.1-.1 0-.1-.1-.1-.1V55h.1s-.1 0 0 0v-.1s.1 0 .1.1l-.1-.1h-.1s-.1 0-.1-.1h.2s0-.1-.1-.1v-.1h.1c.1 0-.1-.2 0-.2s0-.2.2-.2v-.1h.1V54c0-.1.2 0 .1-.1 0 0 0-.1 0 0v-.1s.1.1.1 0l-.1-.1h-.1c1.1.3 1 .3.9.3v.1l.1.1h-.1s.1 0 .1.1c0 0-.1 0 0 0v.1h-.1v.1c-.1-.1 0 0-.1 0 .1.1 0 .1 0 .1 0-.3-.1-.3-.2-.3h.2-.2.2c-.1 0-.1.1-.2 0h.1c0 .1 0 0-.1 0 0 .1 0 0 0 0zm-.1.6zm0 0zm.4.1zm-.1 0zm-1.3 3.7zm.6-3.2h.1-.1zm-.9 3.4zm0 .1zm0 .1zm.2-1.3zm0 .4zm0-.8zm0 .8zm-.3 1.3zm0 0zm0 0zm0-.1zm0-.1s.1 0 0 0zm.3-.1c0 .1 0 0 0 0 .1 0 0 .1 0 0zm0-.1c.1.1.1.1 0 0 .1 0 .1 0 0 0zm.2-.5c0-.1 0 0 0 0zm-.3-.2zm.4 0zm.2-1zm.1-.4zm.6-1.2zm5.5-3.2s.1 0 0 0zm.2-.1h-.1.1c-.1 0-.1 0 0 0-.1 0-.1.1 0 0 0 .1 0 0 0 0-.1 0-.1 0 0 0zm.2-.8zm.1-.5zm.1 0zm-.2.5zm-.4.7zm.4-.4zm0 .1s-.1 0 0 0c-.1 0-.1 0 0 0zm-.2.3zm.2-.6s.1 0 0 0zm1.3-4.7zm.4 0zM42.1 51zm.4-1.4h-.1.1zm-1.1 2.8zm1-2.8zm-.2 1.1zm-.2.2zm.1-.4s.1 0 0 0c0 0 .1 0 0 0zm.1-.1zm.7-2.9zm-1.5 4.9zm.3-2zm.7-1.9zm-.7 1.8c.1 0 .1 0 0 0 .1 0 .1 0 0 0zm1.3-2.8zm-.1-.2c0 .1.1.1 0 0 .1.1.1.1 0 0 0 .1.1.1.1.1v.1h.1-.1v.1c-.1 0 0 0-.1-.1h-.1v.1h.1c0 .1-.2 0-.1 0l.1.1h-.1s.1.1 0 .1h-.1v.1h-.1c0 .1-.1.1-.1.1h.1c0 .1.1.1 0 .1 0 0 .1.1 0 .1 0 0 0 .1-.1.1.1 0-.1 0 0 .1h-.1s.1 0 .1.1h-.1.1-.2v.1c0 .1-.1 0 0 0 0 0-.1 0 0 0v.1h.1-.1.1-.1s-.1 0 0 0v.1c.1 0 0 0 .1.1 0 0-.1 0-.1.1h.1-.1v.1c.1.1-.2.1-.1.1v.1h-.1c.1.1 0 .1 0 .1-.2 0 0 .1-.1.1h.1c0 .1-.1.2-.2.2 0 0 .2.1.1.1h-.1c.1.1 0 .1 0 .2v.1h-.1s0 .1 0 0v.1c.1 0 0 0 0 .1-.1 0-.1 0 0 0h-.1.1c-.1 0 .1.1-.1.1 0 .1.1.1.1.2-.1 0 0-.1-.1-.1 0 .1.1.1.1.1h-.1v.1c.1 0 .1.1.1.1h-.2.1-.1s.1 0 .1.1c0 0 .1 0 0 .1 0 0 .1.1 0 .1h-.1v.1h.1-.2c.1 0 0 0 .1.1h-.2s.1 0 0 0v.1h-.1s.1.1 0 .1c.1 0-.1 0 0 0 0 0-.1 0 0 0v.2h.1c-.2 0 .1.1-.1.1h.1-.1c-.1 0 .1 0 0 0h-.1s.1 0 0 .1h-.1c.1 0 0 0 .1.1h-.3.1c.1 0-.1.1 0 .1l.1.1h-.2s.1 0 0 0h-.1l.1.1h-.1l.1.1h-.1c.1 0 0 0 0-.1h.1-.1.1s.1 0 0 0c.1 0-.1-.1 0-.1h-.1.2-.2c.1 0 0-.1.1 0h-.1c.1 0 0 0 0 0h.1c-.1 0 0 0 0 0-.1 0 0 0 0-.1l.1-.1c-.1 0-.1 0-.1-.1h.2s-.1-.1 0-.1h-.2.3-.1.1-.1s0-.1-.1-.1 0-.1 0-.1v-.1h.1s.1 0 0 0h.2c.1 0-.1-.1 0-.1h-.1.1s-.1 0-.1-.1h-.1.2-.1v-.2h.3-.1.1c.1 0-.1 0-.1-.1h.1-.1c-.1 0 .1 0 0 0h.1s.1 0 0 0h-.3c.1 0 0 0 0-.1h.1c.1 0 0-.1 0-.1h.1l-.1-.1h.1l-.1-.1h.1s-.1 0 0 0h-.1c.1 0 0-.1.1-.1v-.1s-.1 0-.1-.1h.2v-.1c-.1 0-.1-.1-.1-.1h.1-.1.1c.1 0 0 0 0 0l-.1-.1c-.1 0 0 0 0 0h.1l-.1-.1c.1 0 .1.1.1.1v-.1c-.1 0-.1-.1-.1-.1.1.1.1 0 .2 0 0-.1.1-.1.1-.1-.1 0 0 0-.1-.1h.2s-.1 0 0 0h-.1c0-.1.1 0 .1-.1 0 0 0-.1-.1-.1h.1s-.1-.1 0-.1-.1-.1-.1-.1h.1V49c.1 0 .1-.1.1-.1h-.1s0-.1 0 0h.1-.1c.2 0 0-.1.1-.1v-.1h.1v-.1l-.1-.1h.1s.1 0 0-.1c0 0 .1 0 0-.1.1 0 0 0 0-.1-.1 0-.1-.1-.1-.1V48h.1s-.1 0 0 0v-.1s.1 0 .1.1l-.1-.1h-.1s-.1 0-.1-.1h.2s0-.1-.1-.1v-.1h.1c.1 0-.1-.2 0-.2s0-.2.2-.2v-.1h.1V47c0-.1.2 0 .1-.1 0 0 0-.1 0 0v-.1s.1.1.1 0l-.1-.1h-.1c1.1.3 1 .3.9.3v.1l.1.1h-.1s.1 0 .1.1c0 0-.1 0 0 0v.1h-.1v.1c-.1-.1 0 0-.1 0 .1.1 0 .1 0 .1 0-.3-.1-.3-.2-.3h.2-.2.2c-.1 0-.1.1-.2 0h.1c0 .1 0 0-.1 0 0 .1 0 0 0 0zm-.1.6zm0 0zm.4.1zm-.1 0zm-1.3 3.7zm.6-3.2h.1-.1zm-.9 3.4zm0 .1zm0 .1zm.2-1.3zm0 .4zm0-.8zm0 .8zm-.3 1.3zm0 0zm0 0zm0-.1zm0-.1s.1 0 0 0zm.3-.1c0 .1 0 0 0 0 .1 0 0 .1 0 0zm0-.1c.1.1.1.1 0 0 .1 0 .1 0 0 0zm.2-.5c0-.1 0 0 0 0zm-.3-.2zm.4 0zm.2-1zm.1-.4zm.6-1.2z" style="fill:#6594d9"/></g></svg>