<svg xmlns="http://www.w3.org/2000/svg" viewBox="0 0 131.2 142.8" style="enable-background:new 0 0 131.2 142.8" xml:space="preserve"><style>.st5{fill:#0d695c}.st6{fill:#4db6ac}.st7{fill:none;stroke:#ef7937;stroke-width:.925;stroke-miterlimit:10}.st8{fill:#147467}.st9{fill:#4db6ac}.st10{fill:none;stroke:#0d695c;stroke-width:.8491;stroke-miterlimit:10}.st11{fill:#147467}.st12{fill:#4db6ac}.st13{fill:none;stroke:#d9413d;stroke-width:.8491;stroke-miterlimit:10}.st14{opacity:.37}.st15{clip-path:url(#SVGID_2_)}.st16{clip-path:url(#SVGID_4_)}.st17{clip-path:url(#SVGID_6_)}.st18{clip-path:url(#SVGID_8_)}.st19{clip-path:url(#SVGID_10_)}.st20{clip-path:url(#SVGID_12_)}.st21{clip-path:url(#SVGID_14_)}.st22{clip-path:url(#SVGID_16_)}.st23{clip-path:url(#SVGID_18_)}.st24{clip-path:url(#SVGID_20_)}.st25{fill:none;stroke:#147467;stroke-width:.925;stroke-miterlimit:10}.st26{clip-path:url(#SVGID_22_)}.st27{clip-path:url(#SVGID_24_)}.st28{clip-path:url(#SVGID_26_)}.st29{clip-path:url(#SVGID_28_)}.st30{clip-path:url(#SVGID_30_)}.st31{fill:none;stroke:#d9413d;stroke-width:.925;stroke-miterlimit:10}.st32{clip-path:url(#SVGID_32_)}.st33{clip-path:url(#SVGID_34_)}.st34{clip-path:url(#SVGID_36_)}.st35{clip-path:url(#SVGID_38_)}.st36{clip-path:url(#SVGID_40_)}.st37{fill:#147467}.st39{fill:#ee8423}.st40{fill:#f18a50}.st41{fill:#019788}.st42{fill:#32867a}.st43{fill:#f67258}.st44{fill:#de5956}.st45{opacity:.5}.st46{fill:#4b5d9a}.st48{fill:#21a497}.st49{fill:#f7846d}.st50{fill:#26a59a}.st51{opacity:.65;fill:none;stroke:#fff;stroke-width:.2;stroke-miterlimit:10}.st52{fill:#80cbc4}.st53{fill:none;stroke:#31458b;stroke-miterlimit:10}.st54{fill:#0d695c}.st55{fill:none;stroke:#f5a800;stroke-miterlimit:10}.st55,.st56,.st57{stroke-width:.2}.st56{fill:none;stroke:#4db6ac;stroke-miterlimit:10}.st57{stroke:#ff8a65}.st57,.st58,.st59,.st60,.st61{fill:none;stroke-miterlimit:10}.st58{opacity:.65;stroke:#fff;stroke-width:.5}.st59{stroke:#ef7937}.st60{stroke:#147467}.st61{stroke:#d9413d}.st62{fill:#147467}.st63,.st64,.st65{fill:#80cbc4}</style><g id="Calque_1"><path d="M81.1 121.6s-34.8-.2-42.4.9 19.6 4.5 34 3.8c14.4-.7 25-2.9 20.8-3.6-4.3-.7-8.7-.9-12.4-1.1z" style="opacity:5.000000e-02"/><path d="M68.2 96.6c-.1.6.1.6.1 1.2v3.3c0 .6.1.6.1 1.1 0 .6-.2.6-.2 1.1 0 .6.2.6.2 1.1v1.1c0 .6-.1.6-.1 1.1 0 .6.2.6.2 1.1 0 .6-.1.6-.1 1.1v1.1c0 .6.1.6.1 1.1 0 .6-.1.6-.1 1.1v3.3c0 .6-.2.6-.2 1.1v1.1c0 .6.2.6.2 1.1 0 .6.1.6.1 1.1 0 .6-.2.6-.2 1.1s.1.6.1 1.1c0 .5.3.7.8.7.6 0 .6.3 1.3.3.6 0 .6-.2 1.3-.2.6 0 .7-.8.2-1-.6-.1-.6.1-1.2.2h-1.2c-.3-.1-.3-1.3-.3-1.6 0-.6.2-.6.2-1.1 0-.6.1-.6.1-1.1 0-.6-.1-.6-.1-1.1 0-.6.1-.6.1-1.1 0-.6.1-.6.1-1.1 0-.6-.2-.6-.2-1.1v-3.3c0-.6-.2-.6-.2-1.1 0-.6.1-.6.1-1.1 0-.6.2-.6.2-1.1 0-.6-.1-.6-.1-1.1 0-.6.1-.6.1-1.1 0-.6.1-.6.1-1.1 0-.6-.1-.6-.1-1.2v-2.3c0-.6-.2-.6-.2-1.2V98c0-.6.1-.6.1-1.2s.1-.6.1-1.2.5-1.1 0-1.3c-.5-.2-.2.7-.5 1.2-.6.6-.8.5-.9 1.1zm-11.5 0c.1.6-.1.6-.1 1.2s-.2.6-.2 1.1v1.1c0 .6.2.6.2 1.1 0 .6-.2.6-.2 1.1 0 .6.2.6.2 1.1 0 .6-.3.6-.3 1.1v1.1c0 .6.3.6.3 1.1v1.1c0 .6-.3.6-.3 1.1v1.1c0 .6.2.6.2 1.1 0 .6.2.6.2 1.1v1.1c0 .6-.3.6-.3 1.1 0 .6.2.6.2 1.1 0 .6-.1.6-.1 1.1 0 .6.1.6.1 1.1 0 .6-.1.6-.1 1.1 0 .6.1.6.1 1.1v2.2c0 .5-.5.8-1 .8-.6 0-.6.3-1.3.3-.6 0-.6-.3-1.3-.3-.6 0-.7-.7-.2-.9.6-.1.6 0 1.2 0s.6.2 1.2.1c.3-.1.2-1.3.2-1.7 0-.6-.1-.6-.1-1.1v-1.1c0-.6.2-.6.2-1.1 0-.6-.1-.6-.1-1.1v-2.2c0-.6-.2-.6-.2-1.1 0-.6.2-.6.2-1.1 0-.6-.1-.6-.1-1.1 0-.6.1-.6.1-1.1 0-.6-.1-.6-.1-1.1v-1.1c0-.6-.1-.6-.1-1.1v-1.1c0-.6.2-.6.2-1.1v-1.2c0-.6-.2-.6-.2-1.1 0-.6.3-.6.3-1.2s-.1-.6-.1-1.2v-1.2c0-.6.1-.6.1-1.2s-.1-.6-.1-1.2-.5-.9 0-1c.5-.2.2.4.5.8.6.7.7.7.8 1.3z" style="fill:#0d695c"/><path d="M96.6 41c-.4-.9-.6-1.9-1.1-2.8-.5-.8-1.1-1.7-1.7-2.5-.6-.8-1.5-1.4-2.1-2.2-.6-.8-1.2-1.6-1.9-2.3-.7-.8-1.2-1.7-1.9-2.4-.8-.7-1.5-1.4-2.3-2-.9-.6-1.9-.9-2.8-1.2-.9-.4-1.9-.7-2.8-.7-1-.1-2 .1-2.9.3-1 .2-1.8.7-2.7 1.1-1 .4-2.1.5-2.8 1-.6.4-1.2 1-2 1-.7 0-1.5-.4-2.1-.8-.7-.5-1.5-1.1-2.6-1.5-.8-.3-1.8-.4-2.9-.6-.9-.1-1.9 0-3 0-.9 0-1.8-.2-2.6 0s-1.5.9-2.3 1.3c-.8.4-1.4.9-2.1 1.5-.7.6-1.3 1.2-1.9 1.8-.6.7-1.4 1.2-1.9 1.8-.5.7-.8 1.5-1.1 2.2-.4.8-.5 1.6-.8 2.4-.2.9-.7 1.7-.8 2.4-.2 1.1.1 2 .1 2.5v2.9c0 1.8-.6 1.4-.6 2.9 0 1.3.5 1.3.5 2.5 0 1.3-.1 1.3-.1 2.5s-.3 1.2-.4 2.5c-.1 1.3 0 .2.1 2.7 0 .7-.2 1.6-.1 2.7.1.9.7 1.8.8 3 0 .9-.4 2-.4 3s-.1 2-.1 3 .1 2 .1 3 .3 2.1.3 3c0 1.1-.1 2.1-.2 3 0 1.2-.1 2.2-.1 3 0 .9-.3 1.9-.3 3 0 .9.5 1.9.5 3 0 1-.4 2-.4 3s.5 2 .5 3c0 1.1-.5 2.1-.6 3-.1.9-.3 1.9-.5 2.9s-.1 2-.3 2.9c-.2 1.1-.5 2-.5 2.9.1 1.2.4 2.3 1.3 2.6.8.3 1.8.3 2.9.3h2.9c1.6-.1 1.4-.1 2.9-.3 1.5-.2 1.3-.5 3-.5 1 0 2 .3 3.1.3s2.3-.3 3.1-.2c.7.1 1.7.6 2.8.5.9-.1 1.8-.7 2.7-.9.9-.1 1.9-.2 2.7-.4 1-.2 1.9-.5 2.6-.8 1.1-.5 2-1 2-1.8s-.3-1.8-.5-2.9c-.2-1-.6-1.9-.8-2.8-.4-1.6-.3-1.5-.4-2.9-.1-1.5.3-1.5.3-2.9s-.4-1.5-.4-3c0-1 .6-2 1.1-2.9.5-.9 1-1.9 1.7-2.6.9-.7 2-.9 2.8-1.2 1-.4 1.9-.9 2.7-1.3 1.1-.5 2-.7 2.7-1.1 1.1-.6 1.8-1.4 2.5-1.7.6-.3 1.4-.8 2.3-1.6.7-.6 1.3-1.3 2-2 .6-.7 1.7-1.1 2.2-1.9.6-.8.7-1.8 1.2-2.7.5-.9 1.3-1.6 1.6-2.5.3-1 .1-2.1.4-2.9.3-.9 1-1.7 1.3-2.7.3-.9.4-1.8.6-2.9.2-.9.3-1.8.5-2.9.1-.9.6-1.8.7-2.9.1-.9-.1-1.8-.1-2.7-.1-.9-.3-1.8-.5-2.6-.2-.9-.4-1.7-.6-2.6-.3-.8-.6-1.7-1-2.4-.4-.6-1.1-1.2-1.5-1.9z" style="fill:#4db6ac"/><path d="M55.1 46.7s4.5-4.5 10.5-1.2 5.2 11.8-.7 13.6c-6 1.8-9.9-.5-10.8-3s-1.6-7 1-9.4zm21.5.8s4.5-4.5 10.5-1.2c6 3.2 5.2 11.8-.7 13.6-6 1.8-9.9-.5-10.8-3-1-2.6-1.6-7.1 1-9.4z" style="fill:#fff"/><ellipse cx="61.3" cy="52.4" rx="5.7" ry="5.4"/><ellipse cx="83.5" cy="53.5" rx="5.7" ry="5.5"/><path d="M71.7 69c-3.8 0-4.2-3.9-4.2-4h.6c0 .1.3 3.4 3.6 3.4 3.3 0 4.1-3.3 4.1-3.5l.6.1c-.1.2-1 4-4.7 4z" style="fill:#0d695c"/><g style="opacity:.65"><path d="M63.5 35c-.1 0-.1 0 0 0zm-.2.2s.1 0 .2-.1c-.1 0 0 0-.2.1.1-.1.1-.1 0 0 .1-.1.1-.2 0 0 0-.1 0-.1 0 0 .1-.1 0-.1 0 0zm.4 1zm.2.6zm0 .1zm-.2-.7zm-.1-1zm-.1.7s-.1.1 0 0zm-.1-.1h.1c-.1-.1-.1-.1-.1 0 0-.1 0-.1 0 0zm-.1-.4zm.2.7zm3.5 5.3c-.1 0-.1 0 0 0-.1 0 0 0 0 0zm-.3.4zm-2.8-4.6zm.9 1.6c.1-.1.1 0 .2-.1-.1.1-.2.1-.2.1zm-1.2-3.6zm1.4 3.5zm-.9-1.1c.1 0 .1 0 0 0 .1-.1.1 0 0 0zm0-.4zm.2.5zm.1.1zm2.2 3.1s.1 0 0 0zm-3-5.7zm1.3 2.2zm1.1 2.2zm-1-2.1s-.1 0 0 0c-.1 0 0 0 0 0zm1.6 3.4z" style="fill:#fff"/><path d="M66.9 41s-.1 0-.2.1c-.1-.1.1-.1.2-.1h-.2c-.1 0 0-.1-.1 0l-.1.1s-.1 0 0 0c.1-.1 0 0 .1 0h-.1c.1-.1.1 0 .1 0l.1-.1c0-.1-.1 0-.1-.1-.1 0-.1 0-.1.1-.1 0 .2-.2.1-.1-.1 0-.2.1-.1 0h.1s-.2.1-.1 0h.1c.1-.1-.1 0-.1 0l.1-.1s-.1 0-.2-.1h.1c-.1 0 0-.1 0-.2h-.2.1c-.1 0-.2 0-.1-.1 0 0-.2.1-.1 0 0-.1-.1-.1 0-.2-.1 0 0-.1-.1 0 .1-.1.1-.1.1-.2h-.1.1-.1l.1-.1h-.1s0-.1.1-.1h-.1.1c-.1 0 .1-.1 0 0h-.1v-.1h.1c0-.1-.1-.1-.1-.1l-.1.1.1-.1H66l.1-.1h.1c-.1 0 .1-.1 0 0l-.1-.1H66s.1-.1 0-.1h-.1c.1 0 0-.1.1-.1l-.1-.1h-.1l.1-.1c-.1 0 .1-.2 0-.2h-.1s.1 0 .1-.1c-.1 0 0-.1-.1-.1.2-.1-.1-.1 0-.2-.1 0 0 0 0 0h-.1c-.1-.1 0-.2 0-.4 0 0-.3.1-.2 0h.1c-.1 0-.1-.2-.2-.2h.1c.1 0 0-.1-.1 0h.1s-.1 0 0 0c0 0 0-.1-.1 0 0 0-.1 0 0-.1-.1 0 0-.1-.1 0 .1-.1.1-.1 0-.1l.1-.1h-.1c.1-.1-.2 0 0-.1-.1 0-.2-.1-.2-.1.1-.1 0 .1.2 0-.1 0-.2 0-.2-.1h.1c-.1 0 0-.1-.1-.1-.6-.1-.7-.1-.8-.1.2-.1 0-.1.2-.1h-.1.1-.1.1-.1s-.2 0-.1-.1c.1 0 0 0 .1-.1h-.1c-.1 0-.1.1-.1 0v-.1h-.1l.1-.1h-.1.1-.1.1s-.1.1-.1 0-.1 0-.1-.1c.1-.1 0 0 .1 0 0 0-.2 0-.2-.1-.1.1.1-.1 0-.1h.1s-.1 0-.1-.1V36h-.1c.2-.2-.2-.1 0-.2h-.1c-.1 0 0 0-.1.1h-.1c.1 0 .1-.1.1-.1h-.1c.1-.1-.1.1-.1 0h-.1.1-.1.1l.1-.1v-.1c-.2.1-.1 0-.2 0 .1 0 .1 0 .2-.1l.1-.1c-.1 0 0-.1-.1 0h.1-.1c-.1 0 .1-.1-.1-.1h-.2.1v-.1h.1-.1.1-.1.1-.1.1c.1 0 0 0 0 .1-.1.1 0 0 .1.1h-.1.1l-.1.1h-.1c0 .1.1 0 0 .1.1 0 .1 0 .2-.1l-.2.1h.2c-.1.1.1 0-.1.1h.1c-.1.1 0 0 0 .1h-.1c.1-.1 0 .1 0 .1h.1v.1h.1-.1.1-.1s.1 0 .1.1c.1 0 .2-.1.2-.1l-.1.1h-.1.1-.1l-.1.1h.1s-.1 0-.1.1h.1-.1s0 .1.1 0c.1 0 0 .1.1.1h.1l-.1.1s.1 0 0 0v.1c-.1 0-.1.1 0 .1h-.1c-.1.1.2 0 .1.1.1 0 0 0 .1-.1l-.1.1c0 .1.1 0 .1 0s.1-.1.2-.1c0 0-.1.1-.2.1h-.1s0 .1-.1.1h.1v.1h.1c0 .1.1 0 .1 0l-.1.1s-.1 0-.1.1c.1 0 0 .1 0 .1h.1s.1-.1.2-.1c0 0 .1 0 0 .1 0-.1-.1 0-.1 0-.1.1.1 0 .1 0l-.1.1s.1 0 .1-.1h.1c.1 0-.1.1 0 .1 0 0-.1 0-.1.1.1 0 0 .1 0 .1h.1-.1.1s-.1 0 0 0h.1c-.1.1.1 0 0 .1l-.2.1c-.1.1.1 0 .1.1h.1c-.1 0-.1 0-.1.1h.1l-.1.1c0 .1.2 0 .2 0-.1 0-.1.1-.1.1s.1 0 0 0h.2c-.1.1.1.1-.1.2 0 0 .1 0 .1.1s.2-.1.1 0-.1 0-.1 0c-.2.1 0 0 0 .1h.3-.1s.1-.1.1 0l-.1.1c-.1.1 0 0 0 .1h.2c.1 0 0 0 0 0l-.1.1h.2-.2.3c-.2.1 0 .1-.2.2.1 0 0 .1.1.2.1-.1 0 0 .2-.1l-.1.1h-.1s-.1 0-.1.1h.1l.1-.1c.1 0-.1.1 0 .1h-.1s0 .1.2 0H65c0 .1.2 0 .1.1 0 0 .1 0 0 0h.1-.1c0 .1.1 0 .2 0l-.1.1c0 .1.1 0 .2.1-.1.1 0 .1 0 .2h.1s.1 0 0 0l-.1.1.1-.1c-.2.2.1.1 0 .2h.1-.1v.1h-.1s.2-.1.3-.1l-.1.1s-.1.1.1.1h-.1s0 .1.1 0c-.1.1 0 0 .1.1h-.1.2s-.1 0 0 0h.1-.1.1s0 .1-.1.1h.1-.1c0 .1.1 0 .1.1v-.1c-.1 0-.1.1-.2.1h.2c-.1 0 0 0 0 .1.1 0 .1 0 .1-.1 0 0 .1 0 0 0h.1l-.2.2c.1 0 .1.1.2 0h-.1s0 .1.1 0c0 0-.1 0-.1.1-.1.2.3 0 .1.2 0 .1.2.1.1.3h.1-.1.1c.1 0-.2.2 0 .1h.1s.1 0 0 .1c0 0 .1 0 0 0h.1l-.2.1h.2l.1-.1c.1-.1.3-.1.3-.2h-.1.2-.1s.1 0 .1-.1c-.1 0-.1.1-.1.1s.1-.1 0-.1h.1-.1c.1 0 0 0 .1-.1H67c.2 0 0-.1.1-.1h-.2l.1-.1c-.1.1-.1 0-.2.1.1-.1.1-.1.2-.1-.1 0-.1 0-.2.1 0 0-.1 0 .1-.1-.2.1-.1.1-.2.1 0-.1.1-.1.2-.1-.1 0 0 0 0 0zm-.6-.5zm0 0s-.1 0 0 0zm-.5.3c.1 0 .1 0 0 0 .1 0 0 0 0 0zm.1 0s.1 0 0 0zm-2.2-4.6zm2.4 3.5zm-2.3-4zm0-.1zm-.1-.1zm.9 1.4zm-.4-.3zm.7.8zm-.7-.8c.1 0 0 0 0 0zm-.6-1.5zm0 0c-.1 0 0 0 0 0zm-.1 0zm.1.1zm0 .1s.1-.1 0 0c.1-.1 0 0 0 0z" style="fill:#fff"/><path d="M63.4 35.6s-.1 0 0 0c-.2.1 0-.1 0 0zm0 .1s-.1 0 0 0zm.3.7zm.5 0v-.1l-.1.1zm-.5.3zm.6 1.1c.1 0 0 0 0 0zm.4.5c-.1 0-.1.1 0 0zm.6 1.6z" style="fill:#fff"/></g><g style="opacity:.65"><path d="M75.8 35.2s-.1-.1 0 0zm-.2 0s.1.1.2.1c-.1-.1-.1-.1-.2-.1h.1-.1c0-.1 0 0 0 0zm-.6.8zm-.4.6zm-.1.1zm.5-.7c0 .1 0 0 0 0zm.7-.6zm-.7.3zm.1-.2s.1 0 .1.1l-.1-.1c.1.1 0 .1 0 0zm.3-.2zm-.5.6zm-2.3 5.8zm-.4.1c-.1-.1-.1-.1 0 0zm2.1-5zm-.8 1.7c.1 0 .1.1.2.1-.1 0-.2-.1-.2-.1zm2.2-3.1zm-2.1 3.2zm.5-1.4zm.3-.2zm-.3.5zm-.1.1c.1 0 .1 0 0 0zm-1.1 3.6c-.1 0-.1 0 0 0zm2.8-5.8zm-1 2.4zM73.5 40zm1.2-2.1c-.1 0-.1 0 0 0-.1 0-.1 0 0 0zm-1.9 3.3z" style="fill:#fff"/><path d="m72.9 41.4-.1-.1c-.1 0 0 .1.1.1 0-.1-.1-.2-.1-.2-.1-.1 0-.1-.1-.1s-.1 0-.1-.1c0 0-.1-.1 0 0 .1 0 0 0 .1.1 0 0-.1-.1 0-.1s0 .1.1.1c.2.1 0 0 .1.1v-.1s-.1 0-.1-.1c-.1-.1.2.1.1 0-.1 0-.2-.1-.1-.1l.2.1s-.1-.1 0-.1 0 0 0-.1h.1v-.2h.1c0-.1.1-.1.1-.1l-.1-.1h.1l-.1-.1h.1c0-.1-.1-.2 0-.2l-.1-.1c.1 0 0-.2.2-.1-.1-.1.1 0-.1-.1h.2l-.1-.1h.1l-.1.3h.1-.1.1v-.1l.1.1c-.1-.1.1 0 0 0h-.1c.1 0 .1 0 .1-.1h.1v-.2l-.1-.1h.1l-.1-.1s.1 0 .1.1h.1s.1 0 0-.1v-.1c-.1 0-.1 0-.1-.1 0 0 .1 0 .1-.1 0 0-.1 0-.1-.1h.1V39h-.1.1c-.1-.1.3 0 .2-.2v-.1h.1c-.1-.1.1-.1 0-.2.2.1 0-.1.2-.1h-.1c0-.1.2-.2.3-.2 0 0-.2-.1-.1-.1l.1.1c-.1-.1.1-.2 0-.3.1 0 0-.1 0-.1h.1s-.1-.1 0-.1v-.2c-.1-.1.1 0-.1-.1.1.1.1 0 .1 0h.1s0-.1-.1-.1c.2 0-.1-.1.1-.1 0-.1-.1-.2-.1-.2.1.1 0 .1.1.1 0-.1-.1-.2-.1-.2h.1c0-.1.1-.1 0-.2-.1 0-.1-.1-.2-.1.1.1.1 0 .2.1h-.1.1l-.1-.1h.1l-.1-.1s-.1-.1 0-.2l.1.1h-.1s-.1-.1 0-.1l-.1-.1h.1s-.1-.1 0-.1l.1.1c-.1-.1 0-.1-.1-.1h.1-.1.1l-.1-.1v-.1c.1 0 0 0 .1.1 0-.1-.1-.2 0-.2-.1-.1.1 0 0-.1h.1v-.2l.1-.1-.1-.1c.2 0-.1-.2.1-.1v-.1h-.1s-.1-.1 0-.1l.1.1h-.1c.1 0-.1-.1 0-.1v-.1c.1 0 0 0 .1.1 0 0-.1-.1 0-.1h.2c-.2-.1 0-.1-.1-.2.1.1.1 0 .1.1h.1c-.1 0 .1 0 0-.1h.1-.1c-.1-.1.1 0 0-.1 0-.1-.1-.1-.1-.2l.1.1h.1s-.1-.1 0-.1c0 0 .1 0 .1.1l-.1-.1s.1 0 .1.1c0 0 0-.1-.1-.1h.1-.1c-.2-.1 0 .1 0 .1l-.1-.1.1.1s-.1 0-.1-.1c-.1 0 0 0 0 0h-.1c-.1 0 .1.1 0 .1 0 .1.1 0 .2.1l-.2-.1h.1l.1.1c-.1 0 0 .1-.1 0h.1c-.1-.1 0 0-.1 0s0 0-.1-.1c.1.1 0 0 0 .1.1.1 0 .1 0 .1H75l.1.1c-.1 0-.1 0-.1-.1v.1h-.1s.1.1 0 .1c.1 0 .2.1.2.1s-.1 0-.1-.1h-.3.1-.1l.1.1h-.1s0 .1.1.1c.1.1-.1.1-.1.1v.1h-.1v.1s-.1 0 0 .1h-.1.1l-.1-.1c-.1 0 .1.2-.1.1h.1-.2c-.1 0 .1.1.1.1l.1.1s-.1 0-.2-.1h-.2.1c-.1 0 0 0-.1.1h.1c-.1 0 .1.1 0 .1s-.1-.1-.1 0c0 0-.1 0-.1-.1 0 .1-.1 0-.1 0h.1s.1 0 .2.1c0 0 0 .1-.1 0 0 0-.1 0-.1-.1-.1 0 .1.1.1.1H74s.1 0 .1.1v.1c.1.1-.1 0-.1 0h-.1c0 .1-.1 0 0 .1.1 0 .1 0 .1.1v-.1l.1.1v-.1l.1.1c-.1 0 0 .1 0 .1l-.2-.1c-.1 0 0 .1 0 .1.1 0 0 0 0 .1h-.1l.1.1h-.1l.1.1c-.1 0-.1 0-.1-.1 0 0 .1.1 0 .1 0 0 .1 0 .1.1l.1.1c-.2 0 0 .1-.2.1v.1c-.1 0 .1.1.1.1h-.1c-.2-.1 0 .1-.1 0-.1 0 0 .1 0 .1.2.7.2.8.2.8-.1 0 0 0-.1-.1l.1.1h-.2c-.1 0 0 0 0 0l.1.1c.1.1-.1 0 0 0h-.1l.1.1-.1-.1v.1l.1.1c-.2-.1-.1 0-.3 0 0 .1-.1.1-.1.1l.2.1h-.3c.1 0 .1.1 0 .1h.1c.1.1-.2 0-.1.1 0 0 0 .1.1.2h-.1s.1.2 0 .2c0 0 .1.1 0 0 0 0 .1.1 0 .1s.1.1.1.2c-.1-.1-.2 0-.2 0 0 .1 0 .1.1.2-.1 0-.1.1-.2.1 0 0 .1 0 .1.1 0 0 .1.1 0 0h-.1l.1.1c-.2-.1 0 .2-.2.1v.1H73s-.1 0-.1.1c0 0 .2.1.2.2l-.1-.1s-.1 0-.1.1c0 0-.1 0 0 .1-.1-.1 0 0 0 .1h-.1l.1.1s-.1 0 0 0c-.1 0 .1.1 0 .1l.1.1h-.1l.1.1c-.1 0 .1.1 0 .1 0 0 0-.1 0 0-.1 0-.1 0-.2-.1l.1.1h-.1c.1 0 .1 0 .1.1 0 0 .1.1 0 0l.1.1c-.1 0-.2 0-.3-.1 0 .1 0 .1.1.2h-.1s0 .1.1.1c-.1 0-.1-.1-.1 0-.2 0 .2.2-.1.2-.1 0 0 .2-.2.2l.1.1h-.1l.1.1c0 .1-.2 0-.1.1h.1s0 .1-.1 0c0 0 .1 0 0 0l.1.1s-.2-.1-.2 0l.1.1h.1c.1.1.2.1.4.2l-.1-.1h.1c.1 0 0 0 0 0h.1l-.1-.1c.1 0 .1.1.1.1s-.1 0-.1-.1h.2l-.1-.1c.1 0 0-.1.1 0l-.1-.1c.1.1 0 0 .2 0-.1-.1 0-.1-.1-.2h.1c-.1-.1-.1-.1-.2-.1-.3-.5-.3-.4-.1-.5h-.2.2c-.2-.1-.1 0-.2-.1.1.1.1.1.2.1zm.1-.7zm0 0s-.1 0 0 0c-.1 0 0 0 0 0zm-.6-.2s.1 0 0 0zm.1.1zM75 36zm-1.5 4zm1.9-4.1zm.1-.1zm0-.1zm-.6 1.5zm0-.5c.1 0 .1 0 0 0zm-.2 1.1zm.2-1c.1 0 .1-.1 0 0 0-.1 0-.1 0 0zm.9-1.5zm0 0zm0 0zm-.1.1zm0 .1c.1 0-.1-.1 0 0zm-.4 0c0-.1-.1-.1 0 0-.2-.1 0-.1 0 0zm-.1 0s-.1 0 0 0c-.1 0-.1 0 0 0zm-.4.7c-.1 0 0 0 0 0zm.3.3v.1-.1zm-.5-.1z" style="fill:#fff"/><path d="M74 37.6c.1 0 0-.1 0 0zm-.2.5s-.1 0 0 0zm-.9 1.5v-.1.1z" style="fill:#fff"/></g><g style="opacity:.65"><path d="M69.5 36.5zm-.1.1h.2-.2.1c0-.1 0-.1-.1 0 0-.1 0-.1 0 0zm-.2.6zm0 .4s-.1 0 0 0c-.1 0-.1 0 0 0zm-.2.1s.1 0 0 0zm.2-.5zm.4-.6zm-.5.4zm0-.1h.1-.1c.1 0 0 0 0 0zm.2-.2zm-.2.4zm.6 3.9zm-.4.2zm-.4-3.4zM69 39h.2-.2zm.6-2.3zm-.4 2.3zm-.2-.9zm.1-.2zm0 .3zm0 .2s0-.1 0 0c0-.1 0-.1 0 0zm.6 2.2s0 .1 0 0zm-.1-4s0 .1 0 0c0 .1 0 0 0 0zm.2 1.6c0 .1 0 0 0 0zm-.1 1.6zm.1-1.5c-.1 0-.1 0 0 0-.1 0-.1 0 0 0zm-.2 2.4zm.2.1h-.2c0-.1.1 0 .2 0-.1 0-.2-.1-.2-.1-.1 0 0 0-.1-.1h-.2s-.1 0 0 0h.1-.1.3s-.1 0 0-.1h-.1c-.1 0 .3 0 .1-.1h-.1.1-.1.1-.1.1l-.1-.1h.1c-.1 0 0-.1.1-.1h-.1.1-.1.1c-.1 0-.2-.1-.1-.1h-.1s0-.1.1-.1h-.1c.1 0 .1 0 .2-.1h-.1.1-.1.1-.1.1-.1.1c-.1 0 .1 0 0 0h-.1c.1 0 .1 0 0 0h.1v-.1h-.2.1-.1.2c-.1 0 .1 0 0 0v-.1h-.1s.1 0 .1-.1h-.1.1l-.1-.1h-.1.1c-.1 0 .2-.1.1-.1h-.1.1c-.1 0 0-.1-.1-.1.2 0 0-.1.1-.1h-.1c-.1 0 0 0 0 0h-.1c-.1-.1.1-.1.1-.2h-.1.1c-.1-.1 0-.1-.1-.2h.1-.1.1s-.1 0 0 0h-.1v-.1h-.1c.1 0 .1 0 0 0h.1-.1c.2 0-.1-.1.1-.1-.1 0-.1-.1-.2-.1h.2c-.1 0-.2-.1-.1-.1h.1c-.1 0 0-.1-.1-.1h-.2.3-.1.1-.1.1-.1s-.2 0-.1-.1h.2-.1s-.1 0 0 0h-.1.1s-.1 0 0 0h.1-.1.1-.1.1-.1v-.1h.1l-.1-.1c-.2 0 .1 0 0 0h.1l-.1-.1h-.1c.2 0-.1-.1.1-.1h-.2.2-.3.1-.1.1c-.2 0 0 0-.2-.1h.3c-.1 0 .1 0 0 0h.1-.1c-.1 0 .1 0 0-.1-.1 0-.2 0-.2-.1h.2-.1.1-.1.1-.1.1-.1c-.2 0 0 0 0 .1h-.1.1-.1c-.1 0 0 0 0 0H69c-.1 0 .1 0 0 0h.2-.2.2-.1.1c-.2 0 0 0 0 0h-.1c.1 0 0 0 0 0h.1s-.1 0-.1.1h.1-.1.1-.1s.1 0 0 .1h.3-.2.1-.2.1-.1.1-.1.1c.1 0-.1.1 0 .1l.1.1h-.1s.1 0 0 0c0 0-.1 0 0 0h-.1.1-.1c-.1 0 .2.1 0 .1h.1-.2.3-.4.1c-.1 0 0 0 0 .1h.2-.3.3-.2.1-.1.2c.1 0-.1 0 0 0h-.1c.1 0-.1 0 0 0h.1L69 38h.2c-.1 0 .1 0 0 0H69c-.1 0 .1 0 0 .1.1 0 0 0 0 0h-.1.1-.1s.2 0 .1.1h-.2s.1 0 0 0h.2c-.2 0 0 .1-.1.1v.1h.1-.2c-.1 0 .1 0 .1.1.1 0 .1 0 .2.1H69h.1-.2c-.1 0 0 0 0 0s.1 0 .1.1c.1 0-.1 0 0 0h-.1s.1 0 .1.1h-.2.2c-.2 0-.1.1-.2.1.1 0 0 .1 0 .1h.2-.3.2c.1 0-.2 0-.1.1h-.1s0 .1.1.1h-.1s.2.1.1.1c0 0 .1 0 0 0h.1-.1c-.1 0 .1.1.2.1h-.2s.1.1.2.1c-.1 0-.1.1-.1.1h.1s.1 0 0 0h-.1.2c-.2 0 .1.1-.1.1h.1-.1v.1h-.1.2l-.1.2s-.1.1 0 .1h-.1s-.1.1.1 0c-.1 0 0 0 0 0h-.1.2s-.1 0 0 0c0 0 .1 0 0 0H69h.1-.1.1-.1c-.1 0 .1 0 0 .1h-.2c.1 0 .2 0 .1.1-.1 0 0 0 0 0h.1s.1 0 0 0h.1-.3s0 .1.2.1h-.1.1-.1c-.2 0 .3.1.1.1-.1.1.1.1-.1.2h.1-.1.1c.1 0-.2 0-.1.1h.1s.1 0 0 0h.1-.2.7-.1.1c.1 0 0 0 0 0h.1-.1.1-.2.2-.1.1-.1.2c-.1 0-.1 0-.1-.1 0 .2 0 .2.1.1-.2.1-.2.1-.3.1.2-.1.2-.1.3-.1-.1.1-.1 0-.2 0h.2-.2.2zm-.2-.4zm0-.1c-.1 0-.1 0 0 0-.1 0-.1 0 0 0zm-.6.1zm.1 0zm.1-3.2zm.5 2.6zm-.2-2.8zm0-.1zm.1 0s-.1 0 0 0c-.1 0-.1 0 0 0zm.1 1zm-.2-.3zm.3.6zm-.3-.6zm.1-1zm0 0zm0 0zm0 .1zm0 0s-.1 0 0 0zm-.4.1c-.2 0 0 0 0 0zm0 .1c-.1 0-.1 0 0 0-.1 0-.1 0 0 0zm0 .5c-.1 0-.1 0 0 0zm.4.1v-.1h-.1zm-.6 0zm0 .8c.1 0 0 0 0 0zm.1.4zm-.1 1h-.1.1z" style="fill:#fff"/></g><path d="M43.5 83.5c.2.3.3.7.5 1 .2.4.5.6.6.9.3.6.6 1 .6 1-.4.3-.5.2-.9.4 0-.1-.2-.3-.4-.8-.1-.2-.4-.4-.6-.7-.1-.2-.3-.5-.4-.8-.1-.2-.2-.6-.3-.8-.4.2-.6.4-.8.8-.2.3-.2.6-.2 1v1c.1.6.2 1.1.2 1.1-.5.2-.5.2-.9.4 0 0-.3-.5-.3-1 0-.3-.1-.6-.1-1 0-.3.2-.6.2-.9.1-.3.1-.6.3-.9.1-.3.2-.6.4-.8.2-.2.4-.3.7-.4-.2-.3-.3-.5-.5-.8-.2-.3-.4-.6-.5-.9-.2-.3-.2-.7-.3-1-.2-.3-.3-.6-.5-.9-.2-.3-.2-.7-.3-1-.1-.3-.3-.6-.5-.9-.1-.3-.4-.6-.5-.9-.1-.3-.3-.6-.4-.9-.1-.3-.3-.6-.4-1-.1-.3-.2-.7-.3-1-.1-.4 0-.7-.1-1 0-.3 0-.6.1-1 .1-.3.1-.6.2-1 .1-.3.3-.6.5-.9.2-.3.3-.6.5-.8.2-.3.4-.5.6-.8.2-.3.4-.5.6-.8.2-.2.4-.5.7-.7.2-.2.5-.4.7-.7.2-.2.5-.4.8-.6l.7-.7c.3-.2.5-.4.8-.6.3-.2.5-.4.8-.6.3-.2.4-.6.7-.7.4-.3.7-.5.9-.6.4.4.3.4.5.9-.2.2-.4.4-.7.6-.2.2-.5.3-.8.6-.2.2-.5.4-.8.6-.2.2-.4.6-.6.8-.2.2-.6.3-.8.5-.2.2-.4.6-.6.8-.2.2-.6.4-.8.6l-.7.7c-.2.3-.4.5-.6.8-.2.3-.5.5-.7.7-.2.3-.2.7-.4.9-.2.3-.4.6-.5.9-.1.3-.2.7-.2 1 0 .3.1.6.2 1 .1.3.3.6.4.9l.3.9c.1.3.1.7.3 1 .1.3.3.6.5.9.1.3.2.6.3 1 .1.3.3.6.4.9.1.3.4.5.6.8.2.3.3.6.5.9.2.3.2.7.3 1 .2.3.4.5.6.7.5-.1.9-.1 1.3 0 .3.1.7.2.9.3.3.2.4.5.6.7.2.2.4.5.6.7.2.3.4.5.4.8-.4.3-.5.1-1 .2 0-.1-.1-.5-.5-.9-.2-.3-.5-.6-.9-.8-.1-.2-.6-.2-1-.1zm62.8-27.4.3-.9c.1-.3.1-.6.3-1 .1-.3.3-.6.4-.9.1-.3.3-.6.4-.9l.3-.9c.1-.3.1-.6.2-1 .1-.3.3-.6.4-.9.1-.3.2-.6.3-1 .1-.3 0-.7 0-1 0-.3.2-.6.2-1v-1c0-.3-.1-.7-.1-1 0-.3 0-.6-.1-1 .4-.1.7-.3 1-.5.2-.2.4-.5.6-.8.2-.3.3-.6.4-.9l.3-.9c.1-.5.1-.8.1-.8-.5 0-.5-.2-1-.2l-.2 1c-.1.3 0 .7-.2 1-.1.3-.4.6-.6.8-.2.2-.4.2-.6.2-.1-.3-.2-.6-.3-.8-.1-.3-.1-.6-.2-.9-.1-.3-.3-.6-.4-.8-.1-.5-.2-.8-.2-.9-.5.1-.5 0-.9.3.1.3.2.7.3 1.1.1.3.3.7.4 1 .1.3.1.7.2 1-.4-.1-.6-.1-.8-.2-.3-.2-.5-.5-.6-.7-.2-.3-.4-.5-.5-.8-.1-.5-.1-.9-.1-.9-.5-.1-.5 0-1 .1 0 .3-.1.5 0 .9.1.3.2.6.4.9.1.3.4.5.6.7.2.2.4.5.7.7.2.1.5.2.8.3.3.1.5.3.8.3.1 0 .2-.1.3-.1.1.3 0 .7 0 1 0 .3.1.6.2 1 0 .3.1.6 0 1v1c0 .3-.2.6-.2.9l-.3.9c-.1.3 0 .7-.1 1-.1.3-.3.6-.4.9-.1.3-.1.6-.3.9-.1.3-.3.6-.4.9-.1.3-.3.6-.4.9-.1.3-.1.7-.2 1-.1.3-.4.6-.5.9l-.3.9c-.2.3-.4.5-.6.8-.2.2-.4.5-.7.7-.2.2-.4.6-.7.8-.3.2-.6.2-.9.4-.3.2-.6.4-.9.5-.3.1-.6.3-1 .4-.3.1-.6.2-1 .3-.3.1-.7 0-1 0-.3 0-.6.1-1 .2-.1.5-.2.5 0 1 .3 0 .7 0 1.1-.1.3 0 .6-.2 1-.3.3-.1.7-.2 1-.3.3-.1.7-.1 1-.3.3-.1.6-.3.9-.4.3-.2.5-.4.8-.6.3-.2.7-.2.9-.4.3-.2.4-.6.7-.8.2-.2.6-.4.8-.6.2-.3.3-.6.5-.9-.1-.5 0-.8.1-1.2z" style="fill:#0d695c"/><g style="opacity:.65"><path d="M62.9 63.7v-.2.2zm-.1-.6v.7-.6.2-.1c0-.3 0-.3-.1-.1.1 0 .1 0 .1-.1zm-1.3-.5zm-.8-.2zm-.2-.4s0 .1 0 0zm1 .6v-.1.1zm1.1 1.3c0-.1 0-.1 0 0zm-.8-1.6v-.1.1zm.3 0v.4-.4zm.5.5c0-.1 0-.1 0 0zm-1-.5v-.1.1zm-7.7 2.1c0-.1 0-.1 0 0 0-.1 0 0 0 0zm-.3-1.4v-.2.2zm6.7-1.3zm-2.4.2v.6c0-.1.1-.5 0-.6zm4.7 2zm-4.7-1.4zm1.8-.7v.1-.1zm.4.4zm-.6 0c-.1 0-.1 0 0 0-.1 0-.1 0 0 0-.1 0-.1 0 0 0zm-.3 0c0 .1 0 .1 0 0 0 .1 0 .1 0 0zm-4.6 2v-.3.3zm8-.5v.1-.1zm-3.2.8c0-.1 0 0 0 0zm-3.1-.3zm3 .3v-.2.2zm-4.7-.5z" style="fill:#fff"/><path d="M54.4 64.6V64v.5c0-.1 0-.4.1-.4v.2c0-.3.1 0 .1-.4v.1-.5s0-.2 0 0v.2-.1.4c0-.1.1-.4.1-.3 0 .3-.1.1 0 .4V64v.5c.1.1.1-.2.1-.1v-.5c.1-.3.1.9.1.4 0-.2 0-.7.1-.4v.4s0-.6.1-.3v.2-.2.3c.1-.1.1-.3.2-.4v.3c.1-.2.2 0 .2.2v-.3.2-.3.3c0-.2.1-.5.2-.2v.1c0 .1 0-.6.1-.3v.1c.1.1.2-.1.2.3 0-.4.1.2.1-.4 0 .3 0 .4.1.6 0 0 0-.4.1-.4v.3-.3.4-.3c0-.1.1.2.1.4l.1-.3v.2c0-.3 0 .3 0 0v-.2c0 .2.1.2.1.1v.2c.1.1.1-.1.2-.1V64v.3-.4.5-.1.3c0-.2.1.3.1 0v.1c.1 0 .1-.1.2-.1v-.4c0 .1.1.3.1.3v-.4c0 .3.1.2 0 .4.1 0 .1-.1.1-.3V64v.2c.1-.4.2.7.3.2l.1-.3v.4c.1-.4.1.1.2-.2 0 .8.2-.1.2.4v-.2.1-.3c.1-.2.3.3.4.4.1 0 0-.9.1-.5v.3c.1-.4.2 0 .3-.3v.2c0 .2.1 0 .1-.2v.3c0 .1.1-.3.1-.1v.1c0-.1.1 0 .1-.2 0 .1.1-.1.1 0 0-.3.1.1.1-.3 0 .5.1.4.1.2v.3s.1-.1 0-.3c.1.5.1-.4.1.3.1-.2.2-.4.2-.5 0 .5-.1 0-.1.5.1-.2.1-.6.2-.5v.3c.1-.2.1 0 .2-.2v.1-.1.1c0-.3 0-.6.1-.8 0 .6.1.1 0 .9V64v.3c0-.1 0-.3.1-.3v.3c0-.2 0-.4.1-.3v.1c.1 0 .1-.5.2-.3v.5-.3s.1-.3.1-.1v.2l.1-.1v-.5.2c0-.1 0-.2.1-.2v.5c0-.3.1-.1.1-.4v.3-.3.3-.3.1c0 .1.1-.2.1 0v.4c.1-.1.1-.5.2-.4 0-.5 0 .3.1 0v.2c0 .1.1-.1.2-.3v.1c0 .1.1.1.1.1v-.3c.1.8.2-.4.2.2v.1l.1-.1v-.5.5-.2c0 .4 0-.5.1-.2v.1c0-.1 0-.2.1-.2v.3s.1-.5.1-.2v.5-.1c0-.7.1-.1.1-.6v.9c0-.2 0 .2.1-.2v.3-.3c0-.3.1.4.2-.1.1-.2.1-.5.1-.7v.4c0 .1 0 .1.1 0v.3-.2.4c0-.1 0-.3.1-.4v.4c0-.1.1-.2.1-.4v-.1.3-.3c0-.6-.1.1-.1.1v-.4.3-.6.1-.2c0-.2-.1.3-.1 0-.1.1 0 .3-.1.7v-.8.3-.2.3c0-.3-.1.1-.1-.4v.3c0-.5 0 .1-.1-.2v-.4c0 .5-.1-.1-.1 0 0 .4-.1.2-.1.3 0-.1-.1-.2-.1-.3v-.1c0 .4 0 .3-.1.4v-.4.2-.3s-.1.3-.1.1v.9-.4.1-.2.2-.3s0 .1 0 0v-.3.3-.3.3-.2c0 .1-.1 0-.1.4-.1.3-.1-.2-.2 0v-.1c0 .1-.1.1-.1.3v-.3c0 .1 0 .2-.1 0v-.1c0-.1 0-.2-.1 0v-.2.2-.3c-.1-.4-.1.7-.2 0v.4l-.1-.5c0-.2 0 .5-.1.4v.5-.6.1-.2.1c0-.1-.1-.1 0-.3v.3c0-.2-.1 0-.1-.1v.2c-.1-.1 0 .2-.1.3v-.7c0 .2-.1-.2-.1-.2v-.1.3-.1.6c0-.1 0 .1-.1-.2v-.5c0-.3 0 .4-.1.3v-.3.4c0-.1 0 .1-.1.1v.3-.2c0 .3-.1-.3-.1-.1V62c0 .2 0-.2-.1-.1v.4L60 62v.3s0-.2.1-.1v.3c0-.4-.1.2-.1 0v-.6c0-.3-.1.3-.1.2v.1c0 .2 0 0-.1.1v-.4c0 .1 0 0-.1.4V62c0-.1-.1.6-.1.5V62v.1c0-.1 0 .3-.1.1v.3-.1.4c0-.6-.1 0-.2-.5 0 .1-.1.1-.1.1v-.1c0-.2 0 .6-.1.4v-.3c0-.6-.1.1-.1-.3 0-.2-.1.2-.1.2v-.1c0 .3-.1.4-.1.5v-.4.5-.5c0-.4 0 0-.1 0v-.2c-.1.1-.1.4-.1.4v.1c0 .4 0-.2-.1.1v-.4c0 .1-.1.4-.1.5 0-.3.1-.4.1-.6 0 0-.1 0-.1.2v-.1c0 .3-.1.5-.1.5 0-.8-.1-.2-.1-.8-.1.3-.1-.1-.2-.1v.6l-.1-.4v-.7.5c-.1.3-.1-.5-.1-.2v-.2c0 .1-.1 0-.1.5v-.3c-.1-.1-.2.5-.2.2v-.1.1-.2c0 .1 0 .3-.1.2v-.2c-.1-.2-.1.4-.2.5 0-.4-.1-.6-.1-.7v-.1c-.1-.1-.1.4-.2.5 0-.5-.2-.2-.2-.5v.4-.1c0-.4 0-.3-.1-.3v.5c-.1-.8-.2.3-.2-.4 0 .1 0 .1-.1.3v-.3c0-.1-.1-.1-.1 0v-.2s0 .8-.1.8v-.4c-.1 0-.1-.4-.2 0v-.2s-.1-.3-.1.3c0-.4-.1 0-.1.1v-.3c0 .4 0 .5-.1.6V62c0-.1 0 .3-.1.1v-.2.3c0 .1-.1-.1-.1-.3v.3-.2c-.1-.2-.1.3-.1.1v-.2h.1v-.7c0 .2-.1.6-.1.5v-.2c0-.2 0-.1-.1-.1v1.1c0-.4-.1-.6-.1-.8-.1.2-.1.1-.2.6V62c0 .1-.1.1-.1.4V62c-.1-.6-.2.9-.3.2v.1c-.1-.3-.3.3-.4-.2 0-.1 0 .1-.1.3v-.3.3c-.1.3-.1-.7-.2-.3v.2s-.1.1-.1-.1v.1-.2l-.1.3c0-.1 0-.6-.1-.7 0 .1-.1.5-.1.6V64v-.3.2-.1.2-.4.5-.5.4c0-.1.1-.1.1-.3 0 .3.1-.1.1.4 0-.1 0-.3.1-.4 0 .5.1 0 .1.6 0-.5.1-.2.1-.5v.4c0-.4 0-.5.1-.7v.8c0-.3.1-.3 0-.6v.4-.4.3c.4.5.4.6.4.6zm.8-.8zm.1 0v-.2.2zm-.2-2c.1 0 .1.1 0 0v.1-.1zm0 .4c0 .1 0 .1 0 0 0 .1 0 0 0 0zm6.4.4c0 .1 0 0 0 0zm-5.2 1.7zm5.6-.7z" style="fill:#fff"/><path d="M62 63.7v.1c.1-.1 0-.1 0-.1zm.2.1v-.1.1zm-2.1.3c0 .1 0 .1 0 0zm.6-.6v.1-.1zm-1.3 1zm1.3-.9c0 .1 0 0 0 0zm2 .3zm0 0zm.1-.1c-.1.1 0 .1 0 0zm-.2 0v.1-.1zm-.1 0v.2-.2c0 .2 0-.1 0 0zm-.2-1.2v-.2.2zm-.1-.2v-.2c-.1.1-.1.1 0 .2zm-1 0v-.3.3zm-.2 1.3v.2-.2zm-.1-1.8v.1zm-1.6.1v.3-.3zm-.7.3v-.1c-.1 0-.1.2 0 .1zm-2.2-.5.1-.1-.1.1z" style="fill:#fff"/></g><g style="opacity:.65"><path d="M89.7 63.7v-.2.2zm-.1-.6v.7-.6.2-.1c0-.3 0-.3-.1-.1.1 0 .1 0 .1-.1zm-1.3-.5zm-.8-.2zm-.2-.4s0 .1 0 0zm1 .6v-.1c-.1.1 0 .1 0 .1zm1.1 1.3c0-.1 0-.1 0 0zm-.8-1.6v-.1.1zm.3 0v.4-.4zm.4.5c0-.1 0-.1 0 0zm-.9-.5v-.1.1zm-7.7 2.1c0-.1 0-.1 0 0 0-.1 0 0 0 0zm-.3-1.4v-.2.2zm6.7-1.3zm-2.4.2v.6c0-.1.1-.5 0-.6zm4.7 2zm-4.7-1.4zm1.8-.7v.1-.1zm.4.4zm-.7 0zm-.2 0c0 .1 0 .1 0 0 0 .1 0 .1 0 0zm-4.6 2v-.3.3zm8-.5v.1-.1zm-3.2.8c0-.1 0 0 0 0zm-3.1-.3zm3 .3v-.2.2zm-4.7-.5z" style="fill:#fff"/><path d="M81.2 64.6V64v.5c0-.1 0-.4.1-.4v.2c0-.3.1 0 .1-.4v.1-.5s0-.2 0 0v.2-.1.4c0-.1.1-.4.1-.3 0 .3-.1.1 0 .4V64v.5c.1.1.1-.2.1-.1v-.5c.1-.3.1.9.1.4 0-.2 0-.7.1-.4v.4s0-.6.1-.3v.2-.2.3c.1-.1.1-.3.2-.4v.3c.1-.2.2 0 .2.2v-.3.2-.3.3c0-.2.1-.5.2-.2v.1c0 .1 0-.6.1-.3v.1c.1.1.2-.1.2.3 0-.4.1.2.1-.4 0 .3 0 .4.1.6 0 0 0-.4.1-.4v.3-.3.4-.3c0-.1.1.2.1.4l.1-.3v.2c0-.3 0 .3 0 0v-.2c0 .2.1.2.1.1v.2c.1.1.1-.1.2-.1V64v.3-.4.5-.1.3c0-.2.1.3.1 0v.1c.1 0 .1-.1.2-.1v-.4c0 .1.1.3.1.3v-.4c0 .3.1.2 0 .4.1 0 .1-.1.1-.3V64v.2c.1-.4.2.7.3.2l.1-.3v.4c.1-.4.1.1.2-.2 0 .8.2-.1.2.4v-.2.1-.3c.1-.2.3.3.4.4.1 0 0-.9.1-.5v.3c.1-.4.2 0 .3-.3v.2c0 .2.1 0 .1-.2v.3c0 .1.1-.3.1-.1v.1c0-.1.1 0 .1-.2 0 .1.1-.1.1 0 0-.3.1.1.1-.3 0 .5.1.4.1.2v.3s.1-.1 0-.3c.1.5.1-.4.1.3.1-.2.2-.4.2-.5 0 .5-.1 0-.1.5.1-.2.1-.6.2-.5v.3c.1-.2.1 0 .2-.2v.1-.1.1c0-.3 0-.6.1-.8 0 .6.1.1 0 .9V64v.3c0-.1 0-.3.1-.3v.3c0-.2 0-.4.1-.3v.1c.1 0 .1-.5.2-.3v.5-.3s.1-.3.1-.1v.2l.1-.1v-.5.2c0-.1 0-.2.1-.2v.5c0-.3.1-.1.1-.4v.3-.3.3-.3.1c0 .1.1-.2.1 0v.4c.1-.1.1-.5.2-.4 0-.5 0 .3.1 0v.2c0 .1.1-.1.2-.3v.1c0 .1.1.1.1.1v-.3c.1.8.2-.4.2.2v.1l.1-.1v-.5.5-.2c0 .4 0-.5.1-.2v.1c0-.1 0-.2.1-.2v.3s.1-.5.1-.2v.5-.1c0-.7.1-.1.1-.6v.9c0-.2 0 .2.1-.2v.3-.3c0-.3.1.4.2-.1.1-.2.1-.5.1-.7v.4c0 .1 0 .1.1 0v.3-.2.4c0-.1 0-.3.1-.4v.4c0-.1.1-.2.1-.4v-.1.3-.3c0-.6-.1.1-.1.1v-.4.3-.6.1-.2c0-.2-.1.3-.1 0-.1.1 0 .3-.1.7v-.8.3-.2.3c0-.3-.1.1-.1-.4v.3c0-.5 0 .1-.1-.2v-.4c0 .5-.1-.1-.1 0 0 .4-.1.2-.1.3 0-.1-.1-.2-.1-.3v-.1c0 .4 0 .3-.1.4v-.4.2-.3s-.1.3-.1.1v.9-.4.1-.2.2-.3s0 .1 0 0v-.3.3-.3.3-.2c0 .1-.1 0-.1.4-.1.3-.1-.2-.2 0v-.1c0 .1-.1.1-.1.3v-.3c0 .1 0 .2-.1 0v-.1c0-.1 0-.2-.1 0v-.2.2-.3c-.1-.4-.1.7-.2 0v.4l-.1-.5c0-.2 0 .5-.1.4v.5-.6.1-.2.1c0-.1-.1-.1 0-.3v.3c0-.2-.1 0-.1-.1v.2c-.1-.1 0 .2-.1.3v-.7c0 .2-.1-.2-.1-.2v-.1.3-.1.6c0-.1 0 .1-.1-.2v-.5c0-.3 0 .4-.1.3v-.3.4c0-.1 0 .1-.1.1v.3-.2c0 .3-.1-.3-.1-.1V62c0 .2 0-.2-.1-.1v.4l.1-.2v.3s0-.2.1-.1v.3c0-.4-.1.2-.1 0V62c0-.3-.1.3-.1.2v.1c0 .2 0 0-.1.1V62c0 .1 0 0-.1.4v-.3c0-.1-.1.6-.1.5v-.5.1c0-.1 0 .3-.1.1v.3-.1.4c0-.6-.1 0-.2-.5 0 .1-.1.1-.1.1v-.1c0-.2 0 .6-.1.4v-.3c0-.6-.1.1-.1-.3 0-.2-.1.2-.1.2v-.1c0 .3-.1.4-.1.5v-.4.5-.5c0-.4 0 0-.1 0v-.2c-.1.1-.1.4-.1.4v.1c0 .4 0-.2-.1.1v-.4c0 .1-.1.4-.1.5 0-.3.1-.4.1-.6 0 0-.1 0-.1.2v-.1c0 .3-.1.5-.1.5 0-.8-.1-.2-.1-.8-.1.3-.1-.1-.2-.1v.6l-.1-.4v-.7.5c-.1.3-.1-.5-.1-.2v-.2c0 .1-.1 0-.1.5v-.3c-.1-.1-.2.5-.2.2v-.1.1-.2c0 .1 0 .3-.1.2v-.2c-.1-.2-.1.4-.2.5 0-.4-.1-.6-.1-.7v-.1c-.1-.1-.1.4-.2.5 0-.5-.2-.2-.2-.5v.4-.1c0-.4 0-.3-.1-.3v.5c-.1-.8-.2.3-.2-.4 0 .1 0 .1-.1.3v-.3c0-.1-.1-.1-.1 0v-.2s0 .8-.1.8v-.4c-.1 0-.1-.4-.2 0v-.2s-.1-.3-.1.3c0-.4-.1 0-.1.1v-.3c0 .4 0 .5-.1.6v-.2c0-.1 0 .3-.1.1V62v.3c0 .1-.1-.1-.1-.3v.3-.2c-.1-.2-.1.3-.1.1V62h.1v-.7c0 .2-.1.6-.1.5v-.2c0-.2 0-.1-.1-.1v1.1c0-.4-.1-.6-.1-.8-.1.2-.1.1-.2.6v-.3c0 .1-.1.1-.1.4v-.4c-.1-.6-.2.9-.3.2v.1c-.1-.3-.3.3-.4-.2 0-.1 0 .1-.1.3v-.3.3c-.1.3-.1-.7-.2-.3v.2s-.1.1-.1-.1v.1-.2l-.1.3c0-.1 0-.6-.1-.7 0 .1-.1.5-.1.6v1.7-.3.2-.1.2-.4.5-.5.4c0-.1.1-.1.1-.3 0 .3.1-.1.1.4 0-.1 0-.3.1-.4 0 .5.1 0 .1.6 0-.5.1-.2.1-.5v.4c0-.4 0-.5.1-.7v.8c0-.3.1-.3 0-.6v.4-.4.8zm.8-.8zm.1 0v-.2.2zm-.2-2s0 .1 0 0v.1-.1zm0 .4c0 .1 0 .1 0 0 0 .1 0 0 0 0zm6.4.4c0 .1 0 0 0 0zM83 64.3zm5.7-.7zm.1.1v.1-.1zm.2.1v-.1.1zm-2.1.3c0 .1 0 .1 0 0zm.6-.6v.1-.1zm-1.3 1zm1.3-.9c0 .1 0 0 0 0zm2 .3zm0 0zm0-.1c0 .1 0 .1 0 0zm-.2 0v.1-.1zm0 0v.2-.2c0 .2 0-.1 0 0zm-.2-1.2v-.2.2zm-.2-.2v-.2.2zm-.9 0v-.3.3zm-.2 1.3v.2-.2zm-.1-1.8v.1zm-1.6.1v.3-.3zm-.8.3v-.1.1zm-2.1-.5.1-.1-.1.1z" style="fill:#fff"/></g><path d="M51.7 76.9zm.1.1v-.1.1s0-.1 0 0c0-.1-.1-.1 0 0zm.4.1zm.2 0s0 .1 0 0c0 .1 0 .1 0 0zm.1.1zm-.3-.1zm-.4-.3s0 .1 0 0c0 .1 0 .1 0 0zm.3.4zm-.1 0s0-.1 0 0c0-.1 0-.1 0 0 0-.1 0 0 0 0zm-.2-.1zm.3.1zm2.5-.4zm.1.3zm-2.1.2zm.7 0v-.1.1zm-1.5-.5zm1.5.3zm-.5.2s-.1-.1 0 0c-.1-.1-.1-.1 0 0zm-.2-.1zm.2 0zm.1 0zm1.5-.4zm-2.6.1zm1-.2zm1 .1zm-.9-.1c0 .1 0 .1 0 0 0 .1 0 .1 0 0zm1.5.1z" style="fill:#6594d9"/><path d="M54.4 76.7v.1-.1.1-.1c-.1.1-.1.1-.1.2v.1-.1.1-.1c0-.1.1 0 .1-.2-.1 0-.1.1-.1.1v.1-.1.1-.1.1c0-.1 0 0 0 0v-.1s0 .1-.1.1v-.1h-.1v.2-.1s0 .1-.1 0v.1s-.1 0-.1-.1v.1-.1.1-.1.1-.2.1c0 .1 0-.1 0 0h-.1v.1-.1.1-.2s0-.1 0 0v.1-.1.1-.1.1c0 .1-.1-.1-.1 0v.1-.1c0 .1 0 0-.1 0 0-.2-.1 0-.1-.1v.1l-.1-.1v.1-.1c0 .1-.1 0-.1.1v-.1s0 .1 0 0v.1c0-.1 0-.1 0 0v-.1.1-.1l-.1.1v-.1s0 .1-.1.1v-.1H53v.2-.2.1-.1.1-.1.1s0 .1-.1.1v-.1s0 .1 0 0v.1-.1.1-.1.1-.1.1-.1s0 .1-.1.1c0 .1 0-.1 0 0 0 0 0-.1 0 0v.2c0-.2-.1.1-.1 0v.1-.1c0-.1 0 .1 0 0v-.1s0 .1 0 0V77v.1-.3.1c0 .1 0-.1-.1 0v.1-.2s0 .1 0 0v-.1.1-.1.1-.1c0 .1 0 0 0 0v.1-.1.1s0 .1 0 0c0 0 0-.1 0 0v-.1.2-.2.1-.1c0 .1 0 0 0 0v.1c0-.1 0 0 0 0v-.1.1-.1.2s0-.1 0 0v-.2.3-.1.1-.2c0-.1 0 0 .1 0v-.1.1c0 .1 0 .1 0 0v.1c0 .1 0-.1.1 0v-.1.1-.2.2-.2.2-.1.1-.1.1-.1c0-.1 0 .1 0 0v.1-.3c0 .1 0 0 0 0v.1c0 .1 0-.1 0 0v.1-.1.1-.1.1s0-.1 0 0v-.2c0 .1 0 0 .1.1v-.1.2-.1.1-.1.1c0 .1 0 0 0 0v-.1c0-.1 0 0 0 0v.1-.1.1-.1.2c0-.1 0 0 .1 0v-.1.3s0-.1 0 0V77c0-.1 0 .1 0 0v-.1.1s.1-.1.1 0c0 0 0-.1 0 0 0 0 0-.1 0 0 0 0 0-.1.1-.1v.1s0-.1.1-.1c0 .1.1 0 .1.1v-.1s0-.1 0 0v.1-.1c0 .2.1-.1.1.1v-.1.1-.2.1s0 .1.1 0v-.1c0 .1 0 0 0 0v.1-.1s0-.1 0 0v-.1.1-.1s0-.1 0 0v.1-.2s0-.1 0 0v-.1.2-.2.1c0 .1.1-.2.1 0 0 .1.1-.1.1 0v-.1.1-.1.1-.1.1-.5.2-.1.1s0-.1 0 0v.1-.1.1-.1.1c.7.4.7.4.6.3.1.1.1.1 0 0 .1.1 0 .1 0 .2.1-.1.1-.1 0-.2v.1c.1 0 .1 0 0-.1v.1-.1zm-.2.2zm-.1 0c.1 0 .1 0 0 0 .1 0 .1 0 0 0 .1 0 .1 0 0 0zm.1.4c0-.1 0-.1 0 0zm0-.1zm-2-.1zm1.6-.3zm-1.7.1zm-.1 0zm0 0zm.6-.1zm-.2.1zm.4-.2zm-.4.2zm-.6-.1zm0 0c0 .1 0 0 0 0zm0 .1s0-.1 0 0zm0 0c0-.1 0 0 0 0zm.1 0s-.1-.1 0 0c-.1-.1 0 0 0 0zm0 .2c0 .1 0 0 0 0zm.1 0c0 .1 0 .1 0 0 0 .1 0 .1 0 0zm.3 0c0 .1 0 .1 0 0zm0-.2v-.1.1zm.1.3v.1-.1zm.5 0s0 .1 0 0zm.2 0zm.7.1zm4.3 9.7s0 .1 0 0zm.1.1V87v.1c-.1 0-.1 0 0 0-.1 0-.1-.1 0 0-.1 0-.1 0 0 0zm.7.1zm.4.1zm.1.1zm-.5-.2s0 .1 0 0zm-.6-.2zm.4.3zm-.2 0s0-.1 0 0c0-.1 0 0 0 0zm-.2-.1zm.5.1zm4.3-.3zm.2.3zm-3.7.1c0 .1 0 .1 0 0zm1.3 0v-.1.1zm-2.6-.4zm2.6.3zm-1 .1zm-.3-.1zm.4 0c0 .1 0 .1 0 0 0 .1 0 0 0 0 0 .1 0 .1 0 0zm.2.1c0-.1 0-.1 0 0-.1-.1-.1-.1 0 0zm2.5-.4c0 .1 0 .1 0 0 0 0 .1 0 0 0zm-4.4 0zm1.7-.1c.1 0 0 0 0 0zm1.8.1zm-1.7-.1zm2.6.2z" style="fill:#6594d9"/><path d="M62.9 87v.1c-.1 0 0-.1 0-.1l-.1.1s0-.1.1-.1l-.1.1v.1-.1s0 .1-.1.1V87h-.1v.1c0 .1 0-.2-.1-.1v.1-.1.1c0-.1 0 0 0 0V87l-.1.1V87s-.1 0-.1-.1v.2-.1s-.1.1-.1 0v.1s-.1 0-.1-.1c0 .1 0 0-.1.1 0-.1 0-.1-.1-.1v.1-.1.1-.2.1c0 .1 0-.1 0 0h-.2v.1-.1.1-.2s0-.1 0 0h-.1v.1s0-.1-.1-.1v.1-.1h-.1c0 .1-.1-.2-.1 0v.1-.1c0 .1-.1 0-.1 0 0-.2-.1 0-.1-.1v.1c-.1 0-.2-.1-.2-.1s0 .2-.1.1v-.1c-.1.1-.1 0-.2.1v-.1s0 .1 0 0h-.1v.1c0-.1 0-.1-.1 0v-.1.1c0-.1-.1.1-.1-.1l-.1.1v-.1l-.1.1v-.1H60v.2-.2.1-.1.1-.1.1l-.1.1v-.1s0 .1 0 0v.1-.1c0 .1 0 0-.1.1v-.1.1-.1.1h-.1v-.1l-.1.1c0 .1 0-.1 0 0 0 0 0-.1 0 0 0 0-.1 0-.1.1h-.1v.1c0-.2-.1.1-.1-.1v.1-.1c0-.1 0 .1 0 0V87s0 .1 0 0v-.1c0 .1 0 0-.1.1v-.3.1c0 .1-.1-.1-.1 0 0 0 0 .1-.1.1v-.2s0 .1 0 0v-.1.1-.1.1-.1c0 .1 0 0 .1 0v.1-.1.1s0 .1 0 0c0 0 0-.1 0 0v-.1.2-.2.1-.1c0 .1 0 0 0 0v.1c0-.1 0 0 0 0 0-.1 0 0 .1-.1l.1.1v-.1.2s0-.1.1 0v-.2.3-.1.1-.2c0-.1.1 0 .1 0l.1-.1v.1c0 .1 0 .1 0 0v.1c0 .1.1-.1.1 0v-.1.1s0-.1.1-.1v-.1.2-.1h.1v-.1.2h.1v-.1.1-.1.1-.1c0-.1 0 .1 0 0v.1-.3c0 .1 0 0 0 0v.1c0 .1 0-.1.1 0v.1-.1.1s0-.1.1-.1v.1s0-.1 0 0v-.2c0 .1.1 0 .1.1h.1v-.1.1c0 .1 0 0 .1.1h.1c0-.1 0-.1.1-.1v.1-.1.1c0 .1 0 0 0 0s0-.1.1-.1c0-.1 0 0 0 0v.1s0-.1.1-.1c0 .1 0 .1-.1.1 0-.1 0-.1.1-.1 0 .2.1 0 .1.2 0-.1.1 0 .1 0v-.1.3s0-.1 0 0v-.1c0-.1 0 .1.1 0 0 0 .1 0 .1-.1v.1s.1-.1.1 0c0 0 0-.1 0 0 0 0 0-.1 0 0l.1-.1v.1l.1-.1c0 .1.1 0 .1.1v-.1s0-.1 0 0v.1-.1c0 .2.1-.1.1.1v-.1.1h.1v-.2.1s.1.1.1 0c0 0 .1.1.1-.1 0 .1 0 0 .1 0v.1-.1s0-.1 0 0v-.1.1-.1s0-.1.1 0v.1s0-.1.1-.1v-.1s0-.1 0 0v-.1.2s.1 0 .1-.1l.1-.1v.1c.1.1.1-.2.2 0 .1.1.1-.1.2 0v-.1.1-.1c0-.1 0 .1.1.1v-.1.1-.5.2-.1.1s0-.1 0 0v.1-.1.1-.1c0 .1 0 0-.1.1v-.1.1c-.1.8 0 .8-.1.7.1.1 0 .1.1.1-.1 0-.1 0-.1-.1v.1-.1zm-.5.1zm0 0s0 .1 0 0zm0 .4zm.1-.1c-.1 0-.1 0 0 0-.1 0-.1 0 0 0zm-3.6-.2zm2.9-.2zm-3.1 0zm-.1 0zm-.1 0zm1.2 0c0-.1 0 0 0 0zm-.4.1s0-.1 0 0zm.7-.2zm-.7.2c0-.1 0-.1 0 0zm-1.1-.1zm0 0zm0 0zm.1 0zm0 0s0-.1 0 0c0-.1 0 0 0 0zm.1.2s0 .1 0 0c0 .1 0 0 0 0zm.1.1zm.5 0c.1 0 0 0 0 0zm.2-.3h-.1zm0 .4zm.9 0c0-.1 0 0 0 0zm.4 0s0-.1 0 0zm1.2.1z" style="fill:#6594d9"/><g style="opacity:.6"><path d="M49.8 92.8zm0 0c.1 0 .1 0 0 0 .1 0 .1 0 0 0 .1 0 0 0 0 0zm.8.1zm.4 0zm.1.1zm-.5-.1zm-.6-.2s-.1 0 0 0c-.1.1 0 .1 0 0zm.4.2zm-.2 0zm-.2 0zm.5 0zm4.3 0zm.2.1zm-3.7 0zm1.3 0zm-2.6-.3zm2.6.3zm-1 0zm-.3 0c.1 0 0 0 0 0zm.4 0zm.2 0h-.1zm2.5-.1s.1 0 0 0zm-4.4-.1c0-.1 0-.1 0 0zm1.7-.1zm1.8.1zm-1.7-.1c0 .1 0 .1 0 0 0 .1 0 .1 0 0zm2.6.2zm.2-.1s0 .1 0 0c-.1.1-.1 0 0 0-.1 0-.1.1 0 0-.1.1-.1.1 0 0-.1.1-.1 0-.1.1v.1h-.1v-.1h-.1s0-.1-.1 0c0 0 0 .1 0 0 0 0 0 .1 0 0H54s-.1.1-.1 0c0 0 0 .1 0 0h-.2l-.1-.1h-.2v.1h-.3s-.1-.1-.1 0h-.1c0-.1-.1 0-.1 0h-.2s0 .1-.1 0h-.4c0-.1-.1 0-.1 0h-.1v-.1s-.1.1-.1 0h-.1v.1-.1h-.1v-.1h-.3c0 .1 0 0 0 0h-.2c0-.1-.1 0-.1 0v-.1c0 .1 0 0-.1.1v-.1h-.1s0 .1-.1.1c0 .1 0 0 .1 0v-.1.1c0 .1 0 0 0 0h.3v-.1h.2s.1-.1.1 0v.1-.1.1h.2v-.1.1h.1s0-.1.1 0v.1c0 .1.1 0 .1.1h.1s0-.1 0 0 0 0 .1 0h.1l.1-.1v.1h.2l-.1.1h.1c0 .1.1 0 .1.1h.1V93s0 .1.1 0h.3v.1h.1s.1 0 .1.1v-.1c0 .1.1 0 .1 0h.1V93h.3v-.1h.1v.1s0-.1.1 0v.1s.1 0 .1-.1h.1c.1.1.1-.1.2 0h.2s0 .1.1 0v.1-.2.1-.1h-.1c.1 0 .1 0 0-.1 0 .1.1.1 0 0 .1.1 0 .1 0 0 0 .1 0 .1 0 0 0 .1 0 0 0 0 0 .1 0 0 0 0zm-.5.1zm0 0zm0 .2zm.1-.1h-.1zm-3.6-.1zm2.9-.1zm-3.1 0zm-.1 0zm-.1 0zm1.1 0s.1 0 0 0c.1 0 .1 0 0 0zm-.3 0zm.7-.1zm-.7.1zm-1.1-.1zm0 0zm0 .1c0-.1 0-.1 0 0zm.1 0c0-.1 0 0 0 0zm0 0s0-.1 0 0c0-.1 0 0 0 0zm.1.1zm.1 0zm.5 0c.1 0 0 0 0 0zm.2-.1h-.1zm0 .2zm.9 0zm.4 0zm1.2.1z" style="fill:#fff"/></g><path d="M78.9 76.9s0 .1 0 0zm.1.1v-.1.1s0-.1 0 0zm.7.2zm.5 0zm.1.1s-.1 0 0 0c-.1 0 0 0 0 0zm-.6-.1zm-.6-.3zm.4.3zm-.1 0zm-.3-.1zm.5.1zm4.4-.3zm.1.3zm-3.7.2zm1.3 0v-.1.1zm-2.6-.5zm2.6.3zm-1 .1zm-.2-.1zm.4.1zm.1 0zm2.6-.4c0 .1 0 .1 0 0 0 .1 0 0 0 0zm-4.5 0zm1.8-.1zm1.7.1zm-1.6-.1c0 .1 0 0 0 0zm2.6.2zm.1-.1v.1-.1l-.1.1.1-.1-.1.1v.1-.1s0 .1-.1.1v-.2h-.1v.1c0 .1 0-.2-.1-.1v.1-.1.1c0-.1 0 0 0 0v-.1l-.1.1v-.1s-.1 0-.1-.1v.2-.1s-.1.1-.1 0v.1s-.1 0-.1-.1c0 .1 0 0-.1.1 0-.1 0-.1-.1-.1v.1-.1.1-.2.1c0 .1 0-.1 0 0h-.2v.1-.1.1-.2s0-.1 0 0h-.1v.1s0-.1-.1-.1v.1-.1h-.1c0 .1-.1-.2-.1 0v.1-.1c0 .1-.1 0-.1 0 0-.2-.1 0-.1-.1v.1c-.1 0-.2-.1-.2-.1s0 .2-.1.1v-.1c-.1.1-.1 0-.2.1v-.1s0 .1 0 0h-.1v.1c0-.1 0-.1-.1 0v-.1.1c0-.1-.1.1-.1-.1l-.1.1v-.1l-.1.1v-.1h-.1v.2-.2.1-.1.1-.1.1l-.1.1v-.1s0 .1 0 0v.1-.1c0 .1 0 0-.1.1v-.1.1-.1.1h-.1v-.1l-.1.1c0 .1 0-.1 0 0 0 0 0-.1 0 0 0 0-.1 0-.1.1h-.1v.1c0-.2-.1.1-.1-.1v.1-.1c0-.1 0 .1 0 0v-.1s0 .1 0 0v-.1c0 .1 0 0-.1.1v-.3.1c0 .1-.1-.1-.1 0 0 0 0 .1-.1.1v-.2s0 .1 0 0v-.1.1-.1.1-.1c0 .1 0 0 .1 0v.1-.1.1s0 .1 0 0c0 0 0-.1 0 0v-.1.2-.2.1-.1c0 .1 0 0 0 0v.1c0-.1 0 0 0 0 0-.1 0 0 .1-.1l.1.1v-.1.2s0-.1.1 0v-.2.3-.1.1-.2c0-.1.1 0 .1 0l.1-.1v.1c0 .1 0 .1 0 0v.1c0 .1.1-.1.1 0v-.1.1s0-.1.1-.1v-.1.2-.1h.1v-.1.2h.1v-.1.1-.1.1-.1c0-.1 0 .1 0 0v.1-.3c0 .1 0 0 0 0v.1c0 .1 0-.1.1 0v.1-.1.1s0-.1.1-.1v.1s0-.1 0 0v-.2c0 .1.1 0 .1.1h.1v-.1.1c0 .1 0 0 .1.1h.1c0-.1 0-.1.1-.1v.1-.1.1c0 .1 0 0 0 0s0-.1.1-.1c0-.1 0 0 0 0v.1s0-.1.1-.1c0 .1 0 .1-.1.1 0-.1 0-.1.1-.1 0 .2.1 0 .1.2 0-.1.1 0 .1 0v-.1.3s0-.1 0 0v-.1c0-.1 0 .1.1 0 0 0 .1 0 .1-.1v.1s.1-.1.1 0c0 0 0-.1 0 0 0 0 0-.1 0 0l.1-.1v.1l.1-.1c0 .1.1 0 .1.1v-.1s0-.1 0 0v.1-.1c0 .2.1-.1.1.1v-.1.1h.1v-.2.1s.1.1.1 0c0 0 .1.1.1-.1 0 .1 0 0 .1 0v.1-.1s0-.1 0 0v-.1.1-.1s0-.1.1 0v.1s0-.1.1-.1v-.1s0-.1 0 0v-.1.2s.1 0 .1-.1l.1-.1v.1c.1.1.1-.2.2 0 .1.1.1-.1.2 0v-.1.1-.1c0-.1 0 .1.1.1v-.1.1-.5.1-.1.1-.1.1s0-.1 0 0v.1-.1.1-.1c0 .1 0 0-.1.1V76v.1c0 .9 0 .9-.1.8.1.1 0 .1.1.1l-.1-.1v.1-.1zm-.5.1zm0 0s0 .1 0 0zm.1.4zm0-.1zm-3.6-.2zm3-.2zm-3.2 0zm-.1 0zm-.1 0zm1.2 0zm-.4.1s.1 0 0 0zm.8-.2zm-.7.2zm-1.2-.1zm0 0zm0 0zm.1 0zm.1 0c-.1 0-.1-.1 0 0-.1-.1-.1 0 0 0zm.1.2c-.1 0-.1.1 0 0 0 .1-.1 0 0 0zm0 .1zm.6 0zm.1-.3zm0 .4h.1zm1 0s-.1 0 0 0zm.4 0zm1.1.1z" style="fill:#6594d9"/></g></svg>