<svg xmlns="http://www.w3.org/2000/svg" viewBox="0 0 131.2 142.8" style="enable-background:new 0 0 131.2 142.8" xml:space="preserve"><style>.st5{fill:#ef7937}.st6{fill:#f5a800}.st7{fill:none;stroke:#ef7937;stroke-width:.925;stroke-miterlimit:10}.st8{fill:#ee8e39}.st9{fill:#f5a800}.st10{fill:none;stroke:#ef7937;stroke-width:.8491;stroke-miterlimit:10}.st11{fill:#ee8e39}.st12{fill:#f5a800}.st13{fill:none;stroke:#d9413d;stroke-width:.8491;stroke-miterlimit:10}.st14{opacity:.37}.st15{clip-path:url(#SVGID_2_)}.st16{clip-path:url(#SVGID_4_)}.st17{clip-path:url(#SVGID_6_)}.st18{clip-path:url(#SVGID_8_)}.st19{clip-path:url(#SVGID_10_)}.st20{clip-path:url(#SVGID_12_)}.st21{clip-path:url(#SVGID_14_)}.st22{clip-path:url(#SVGID_16_)}.st23{clip-path:url(#SVGID_18_)}.st24{clip-path:url(#SVGID_20_)}.st25{fill:none;stroke:#ee8e39;stroke-width:.925;stroke-miterlimit:10}.st26{clip-path:url(#SVGID_22_)}.st27{clip-path:url(#SVGID_24_)}.st28{clip-path:url(#SVGID_26_)}.st29{clip-path:url(#SVGID_28_)}.st30{clip-path:url(#SVGID_30_)}.st31{fill:none;stroke:#d9413d;stroke-width:.925;stroke-miterlimit:10}.st32{clip-path:url(#SVGID_32_)}.st33{clip-path:url(#SVGID_34_)}.st34{clip-path:url(#SVGID_36_)}.st35{clip-path:url(#SVGID_38_)}.st36{clip-path:url(#SVGID_40_)}.st37{fill:#ee8e39}.st39{fill:#ee8423}.st40{fill:#f18a50}.st41{fill:#019788}.st42{fill:#32867a}.st43{fill:#f67258}.st44{fill:#de5956}.st45{opacity:.5}.st46{fill:#4b5d9a}.st47{opacity:.6}.st48{fill:#21a497}.st49{fill:#f7846d}.st50{fill:#26a59a}.st51{opacity:.65;fill:none;stroke:#fff;stroke-width:.2;stroke-miterlimit:10}.st52{fill:#f8dd91}.st53{fill:none;stroke:#31458b;stroke-miterlimit:10}.st54{fill:#ef7937}.st55{fill:none;stroke:#f5a800;stroke-miterlimit:10}.st55,.st56,.st57{stroke-width:.2}.st56{fill:none;stroke:#4db6ac;stroke-miterlimit:10}.st57{stroke:#ff8a65}.st57,.st58,.st59,.st60,.st61{fill:none;stroke-miterlimit:10}.st58{opacity:.65;stroke:#fff;stroke-width:.5}.st59{stroke:#ef7937}.st60{stroke:#147467}.st61{stroke:#d9413d}.st62{fill:#ee8e39}.st63,.st64,.st65{fill:#f8dd91}</style><g id="Calque_1"><path d="M78 112.8s-34.8-.4-42.4 1.9 19.6 9.4 34 8.1c14.4-1.4 25-6.1 20.8-7.6-4.3-1.6-8.7-2-12.4-2.4z" style="opacity:5.000000e-02"/><path d="M66.6 100.8c-.1.6 0 .6.1 1.2s.2.6.3 1.2c.1.6 0 .6.1 1.2s.1.6.1 1.2l.2 1.2c.1.6 0 .6.1 1.2l.2 1.2.2 1.2c.1.6.2.6.2 1.2.1.6 0 .6.1 1.2s0 .6.1 1.2c.1.5.6.8 1 .7.6-.1.6-.1 1.3-.1.6-.1.6-.2 1.2-.3.6-.1.6-.8.1-1-.5 0-.5.1-1 .1s-.5.2-1 .2c-.3-.1-.5-.4-.6-.8-.1-.6-.1-.6-.1-1.2-.1-.6-.2-.6-.2-1.2-.1-.6 0-.6-.1-1.2s-.1-.6-.1-1.2c-.1-.6 0-.6-.1-1.2l-.2-1.2-.2-1.2-.2-1.2c-.1-.6 0-.6-.1-1.2s0-.6 0-1.2c-.1-.6-.2-.6-.3-1.2-.1-.6.5-1.1-.1-1.2-.5-.1-.2.6-.4 1.1-.5.7-.5.7-.6 1.3zm-5.3.2c.1.6 0 .6 0 1.2s.1.6.1 1.2-.1.6-.1 1.2v1.2c0 .6.2.6.2 1.2s-.1.6-.1 1.2.1.6.1 1.2-.1.6-.1 1.2v1.2c0 .6-.1.6-.1 1.2v1.2c0 .5-.3.9-.8.9h-1.3c-.6 0-.6.1-1.3.1-.6 0-.7-.8-.2-1 .5-.1.5-.2 1-.3.5 0 .5.1 1 .1.3-.1.6-.5.6-.9 0-.6-.2-.6-.2-1.2s.1-.6.1-1.2.1-.6.1-1.2-.1-.6-.1-1.2v-1.2c0-.6.1-.6.1-1.2s-.1-.6-.1-1.2v-1.2c0-.6.1-.6.1-1.2v-2.4c0-.6-.5-.9.1-1.1.5-.2.1.5.4 1 .2.8.3.7.5 1.2z" style="fill:#ef7937"/><path d="M65.3 25.9c1 0 2-.3 2.9-.3 1 0 1.9.4 2.9.5 1 .1 1.9.4 2.8.6 1 .2 1.9.2 2.8.4.9.3 1.8.6 2.7 1 .9.3 1.7.8 2.6 1.2.8.4 1.8.6 2.6 1.2.9.6 1.4 1.5 2.2 2.2.8.7 1.7 1.2 2.4 1.9s1.5 1.4 2.2 2.2c.7.8 1 1.8 1.6 2.7.6.8 1.5 1.5 2.1 2.3.6.8.8 1.9 1.4 2.8.6.9 1 1.8 1.5 2.7.5.9.9 1.8 1.3 2.8.4 1 .6 1.9.9 2.9.3 1 1 1.9 1.2 2.9.2 1-.2 2.1-.1 3.1s.5 2 .5 3.1c0 1-.2 2-.3 3.1-.1 1.1-.4 2-.5 3-.1 1.1-.3 2-.4 3-.1 1.1 0 2.1-.1 3-.2 1-.2 2-.4 3-.2.9-.9 1.8-1.3 2.7-.2.7.2 1.6.6 2.4.3.7.6 1.4 1.2 2.1.5.6 3.2.2 3.6.9.4.7.1 1.3-.3 2-.5.8-1.3 1.7-1.1 2.2.5 1.5.7 1.6.7 3.2 0 .7 1.8 1.7 1.7 2.4-.1.7-1.8 1.6-2 2.2-.3.7-.6 1-1 1.7-.2.4.1 1.7-.1 2.1-.3.5-1.5.3-1.9.7-.1.1 0 .2-.1.3-.6.7-1.5 1-2.3 1.3-.8.3-1.7.8-2.6.8-.9 0-1.7-.6-2.5-1s-1.5-.8-2.1-1.5c-1.1-1.2-1.4-.8-2.5-2s-.7-1.5-2-2.4c-.8.5-1.7 1-2.6 1.5-.9.5-1.8 1-2.8 1.5-.9.5-1.9.9-2.9 1.4-.9.4-1.7 1-2.5 1.4-.9.4-1.8.8-2.7 1.1-.9.3-2 .3-2.9.5-1 .3-1.8.8-2.7.9-1 .2-2 .3-2.9.3-.9 0-1.9-.2-2.8-.3-.9-.1-1.9.1-2.8 0-.9-.1-1.8-.7-2.7-1-.9-.2-1.9-.2-2.8-.5-.9-.3-1.9-.4-2.7-.7-.9-.4-1.6-1-2.4-1.5-.8-.4-1.7-.9-2.5-1.3-.8-.5-1.5-1.2-2.2-1.7-.8-.5-1.6-1-2.3-1.6-.7-.6-1.5-1.1-2.2-1.8-.7-.7-1.4-1.3-2-2-.6-.7-.9-1.7-1.4-2.5-.6-.7-1.2-1.4-1.6-2.3-.5-.8-1.1-1.5-1.5-2.4-.4-.8-.9-1.7-1.3-2.5-.4-.9-.8-1.7-1.2-2.6-.3-.9-.3-1.8-.6-2.7-.3-.9-.7-1.7-1-2.6-.2-.9-.3-1.8-.5-2.7-.2-.9-.4-1.8-.5-2.7-.1-.9-.3-1.8-.3-2.7-.1-.9-.2-1.8-.2-2.7 0-.9.2-1.8.2-2.7 0-.9.6-1.8.7-2.7l.3-2.7c.2-.9.3-1.8.5-2.7.2-.9 0-1.9.3-2.7.3-1 .7-2 1.1-2.9.4-.9 1.1-1.8 1.6-2.7.5-.9.8-2 1.3-2.8.6-.9 1.7-1.4 2.3-2.2.6-.8.8-2 1.4-2.8.6-.8 1.3-1.5 1.9-2.2.6-.8 1.3-1.4 2-2.1.7-.7 1.4-1.4 2.1-2 .7-.6 1.6-1 2.4-1.6.8-.5 1.3-1.5 2.2-1.9.9-.5 2.1-.5 3.1-.8 1-.3 2-.5 3-.7 1-.2 2-.9 3-1 1-.1 2.1.3 3.2.3 1-.1 2.1-.5 3.1-.6.9.1 1.9.3 3 .3z" style="fill:#f5a800"/><path d="M57.4 52.7s-4.8-4.9-11.1-1.4-5.5 13.1.8 15 10.5-.6 11.5-3.4c.9-2.7 1.5-7.6-1.2-10.2z" style="fill:#fff"/><circle cx="50.7" cy="59.1" r="5.5"/><path d="M83 53.7s-4.8-4.9-11.1-1.4c-6.3 3.6-5.5 13.1.8 15 6.3 2 10.5-.6 11.5-3.4.9-2.7 1.5-7.6-1.2-10.2z" style="fill:#fff"/><circle cx="76.3" cy="59.1" r="5.5"/><path d="M92.2 66.6c-.5.1-.5.1-1 .3 0 0 .1.4.3.9.1.3.2.6.2 1 0 .3.1.6.1 1v1c0 .3-.1.6-.1 1v1c0 .3-.1.6-.2 1-.1.3 0 .7-.1 1-.1.3-.3.6-.4.9-.1.3-.3.6-.4.9-.2.3-.5.5-.7.7-.3.3-.6.5-.8.8l-.8.8c-.3.3-.5.5-.8.7-.2-.2-.5-.4-.7-.5-.3-.1-.6-.1-.9-.1H85c-.3 0-.6 0-.9.1l-.9.3c-.5.2-.8.4-.8.4.2.4.2.5.5.9 0 0 .4-.4 1-.6.3-.1.7-.1 1-.2.3-.1.7-.1 1-.1.3 0 .6.1.9.3-.2.2-.4.4-.7.6-.2.2-.4.5-.6.7-.3.2-.5.4-.8.5-.3.2-.5.4-.7.6-.3.2-.5.5-.7.6-.5.3-.8.5-.8.5.3.4.2.4.5.9 0 0 .3-.2.8-.6.2-.2.4-.4.7-.6.2-.2.5-.3.8-.5.2-.2.5-.3.8-.5.2-.2.4-.5.6-.7.2-.2.5-.3.7-.5.2.3.3.6.3 1s.1.7 0 1.1c0 .4-.2.7-.3 1-.2.6-.4 1.1-.4 1.1.4.2.5.2.9.4 0 0 .2-.4.3-.9.1-.3.2-.5.3-.9.1-.3 0-.6 0-.9 0-.3.2-.6.1-.9 0-.3-.1-.6-.1-.9-.1-.3-.3-.6-.5-.8.2-.2.5-.4.7-.6.2-.2.5-.3.7-.5l.6-.6.6-.6c.2-.2.4-.6.6-.8.2-.3.4-.5.6-.8.2-.3.3-.6.4-.9.1-.3.3-.6.3-.9.1-.3.1-.7.1-1 .1-.3.2-.6.2-1 0-.3-.1-.7-.1-1 0-.3.1-.7.1-1 0-.3-.1-.7-.1-1 0-.4-.1-.7-.1-1-.1-.4-.2-.7-.3-1-.1-.7-.1-1-.1-1.1zm-52.1 13c.2-.2.5-.4.7-.4.3-.1.6.1.9.2.3.1.6.2.8.3.3.2.6.3.8.4.4-.3.3-.4.6-.8 0 0-.4-.4-1-.6-.3-.1-.7-.3-1.1-.4-.4-.1-.8-.1-1.2-.1-.4.1-.8.3-1.1.7-.2-.2-.4-.5-.6-.8-.2-.2-.5-.4-.7-.7-.2-.3-.3-.6-.5-.8-.2-.3-.5-.5-.6-.7-.2-.3-.2-.6-.3-.9-.1-.3-.3-.6-.4-.9-.1-.3-.1-.7-.1-1-.1-.3-.1-.6-.1-1v-1c0-.3-.2-.7-.2-1 0-.3.2-.7.2-1 0-.3.1-.7.2-1 0-.4 0-.7.1-1 .1-.6.2-1 .2-1l-1-.2c0 .1-.1.4-.2 1-.1.3-.2.6-.2.9 0 .3 0 .6-.1 1 0 .3-.1.6-.1 1v1c0 .3.1.6.1 1 0 .3.1.6.1 1v1l.3.9c.1.3.1.7.3 1 .1.3.3.6.5.9.2.3.5.5.7.7l.6.9.6.9c.2.3.6.5.8.8-.2.3-.3.7-.4 1-.1.4-.2.7-.2 1.1 0 .4.1.7.2 1.1.1.4.1.8.1 1.1l.3.9c.5-.2.5-.2.9-.4 0 0-.1-.4-.3-.9-.1-.3-.1-.7-.1-1 0-.3-.1-.7-.1-1 0-.3 0-.8.1-1.1.2.2.4.6.6.9.2.2.6.3.8.6.3.2.4.6.6.8.3.3.6.3.9.5l.7.7c.3-.4.2-.5.5-.9 0 0-.2-.2-.7-.6-.2-.2-.5-.4-.8-.7-.2-.2-.6-.3-.8-.6-.2-.2-.4-.5-.7-.8 0-.5-.4-.7-.6-1zm23.8-1.1c-3.5 0-5-4.3-5.1-4.5l.9-.3s1.4 4 4.3 3.8c3.5-.1 3.4-3.5 3.4-3.7h1s0 1.1-.5 2.3c-.5 1.1-1.5 2.4-3.9 2.5 0-.1-.1-.1-.1-.1z" style="fill:#ef7937"/><g style="opacity:.65"><path d="M96.1 91.8c0 .1.1.1 0 0zm.2.1-.1-.1.1.1c-.1 0-.1-.1 0 0-.1-.1-.1-.1 0 0-.1 0 0 0 0 0-.1-.1-.1 0 0 0zm.6-.3zm.5-.1zm.1.1zm-.6 0zm-.7.1zm.5 0zm-.1 0zm-.2.1zm.4-.1s.1 0 0 0zm.1-2.9zm.1-.3zm.6 3.1zm1-1.1h-.1.1zm-2.4 1.2zm2.3-1.2zm-.5 1c-.1-.1-.1-.1 0 0zm-.3 0zm.4-.2zm.1-.1zm-1-2.1zm-1 2.6zm1.7-.8zm-.1-1.1zm.1 1.1zm-.6-1.8zm-.2 0s0-.1 0 0c.1-.1 0-.1 0 0h.2l.1-.1c0 .1 0 0-.1 0h.1-.1l-.1.1h.1l.1-.1c.1 0-.1.1 0 .1 0 0 .1-.1.1 0h-.1s.1-.1.1 0 0 0 .1 0h.1c.1 0 .1.1 0 .1h.2c.1 0 .1 0 .1.1 0 0 .1-.1.1 0s.1.1 0 .1c.1 0 0 .1.1 0 0 .1-.1.1-.1.1h.2l-.1.1v.1h.1c.1 0-.1 0 0 0v.1s.1 0 .1.1l-.4.1h.1s-.1 0-.1.1c0 0 0 .1 0 0l.1.1h.1v.1h.1-.1.1c.1 0-.1.1 0 .1h.1-.1c.1 0 0 .1.1.1-.2 0 0 .1-.1.1h.1c0 .1-.1.1-.1.1s.2.1.1.1h-.1v.1s0 .1 0 0v.2c0-.1-.1 0-.1 0V91v.1c-.1-.1 0 .1-.1 0 0 .1 0 .1-.1.1v-.1s0 .1-.1.1v-.1s-.1 0-.1.1v.2c0-.1 0 0-.1-.2v.1-.1.1-.1.1s0 .1-.1.1v-.1s0 .1 0 0v.1s0 .1 0 0v-.1.1-.1.1-.1.1h-.1v-.1l-.1.1c0 .1 0 0 0 0s0-.1 0 0l-.1.1h-.1v.1c-.1-.1-.1.1-.1 0v.2-.1c0-.1 0 .1 0 0v-.1.1c0-.1 0 0-.1 0v.1-.1.1c0 .1-.1 0-.1.1v.1-.1s0 .1 0 0l-.1-.1v.1l-.1-.1v.1c.1.1 0 0 0-.1l.1.1v-.1s.1 0 .1.1c0 0 0-.1 0 0l-.1-.1.1.1v-.2h.1v-.1c.1.1 0 0 0 0v.1c0-.1 0 0 0 0v-.1h.1v-.1.2s0-.1 0 0c0 0-.1-.1-.1-.2v.2-.1.1-.2c0-.1.1 0 .1 0v-.1.1c0 .1 0 .1 0 0v.1c.1.1 0-.1.1 0v-.1l.1.1v-.2.2h.1v-.1.2h.1v-.1.1-.1.1-.1c0-.1 0 .1.1 0v.1h.1v-.3c0 .1 0 0 0 0v.1s0-.1.1-.1v.1-.2.1s0-.1 0 0v-.2c.1.1.1-.1.1 0v-.1s-.1-.1 0-.1c.1.1 0 0 .1 0v-.2h.1s-.1 0-.1-.1h.1c.1 0 0 0 0 0s-.1-.1 0-.1c-.1 0 0 0 0 0h.1l-.1-.1c.1 0 .1.1.1.1v-.1c-.1 0-.1-.1-.1-.1.1 0 0-.1.2-.1v-.2h-.1.3-.2c-.1 0 .1-.1 0-.1 0 0 0-.1-.1-.1h.1c0-.1-.1-.1-.1-.1s-.1 0 0 0c0 0-.1 0 0 0 0-.1-.1 0-.1-.1.1 0 .1-.1.1-.1 0-.1-.1 0-.2-.1.1-.1 0-.1 0-.2h-.1s-.1 0 0 0c.1-.1 0-.1 0-.1l-.1.1c.1-.1-.1-.1 0-.2h-.1V89s-.1.1-.2.1l.1-.1s0-.1-.1-.1c0 0 0-.1-.1 0h-.3v-.1h-.2s0-.1.1-.1c0 0-.1.1-.1 0l-.1.1s-.1 0-.1.1c0-.1.1-.1.1-.1h-.3s.1 0 0-.1c0-.1-.2.1-.1-.1 0-.1-.1-.1-.1-.2h-.2c-.1 0 .1-.1 0-.1H96l.1-.1s-.1 0-.1.1l-.2.2h.2s-.1 0-.1.1l.1-.1s-.1.1 0 0h.1v.1h.1l-.1.1c.1-.1.1 0 .1 0v.1c.1-.1.1 0 .1-.1.8.2.8.2.8.4 0-.1 0-.1.1-.1-.1 0-.1 0-.1.1.1-.2 0-.1 0 0 0-.1 0-.1 0 0zm.4.2zm0 0s.1 0 0 0zm.3-.3zm-.1 0s0 .1 0 0zm-.8 2.6zm.9-1.8zm-1.2 1.7c0-.1 0-.1 0 0 0-.1 0-.1 0 0zm-.1 0zm-.1 0h.1zm1.2-.4zm-.3.2zm.6-.4zm-.6.4zm-1.2.4zm0 0s.1 0 0 0zm.1.1c-.1-.1-.1 0 0 0zm0-.1c0-.1 0-.1 0 0zm.1-.1s-.1 0 0 0c-.1 0 0 .1 0 0zm.2.1c0 .1 0 .1 0 0 .1.1 0 0 0 0zm.1 0s0 .1 0 0zm.5-.1zm0-.3zm.2.3zm.9-.3zm.3-.4zm-.2-1.3z" style="fill:#fff"/></g><g style="opacity:.65"><path d="M94 97.6s0 .1 0 0zm.1.1v-.1.1zm.6.4zm.4.3zm0 .1zm-.4-.4zm-.5-.5zm.3.4zm-.1 0s.1-.1 0 0c.1-.1 0-.1 0 0 0-.1 0 0 0 0zm-.2-.2zm.4.3zm2.3-1.7zm.3-.1h.1zm-2.1 2.4zm1.6.1c-.1 0-.1-.1 0 0-.1-.1-.1 0 0 0zm-2.5-1.2zm2.4 1.1zm-1.1.2c0-.1 0-.1 0 0zm-.2-.3zm.3.3zm.2 0zm1.1-2s0-.1 0 0zm-2.7.7zm1.6.9zm.9-.7zm-.8.7zm1-1.6zm-.1-.2h.1c.1.1 0 0-.1 0 .1.1.1.1 0 0 .1.1.1.1 0 0 .1.1.1.1.1.2h.1-.1l.1.1h-.2v.1h.1c.1.1-.2 0-.1 0h.1-.1s.1 0 0 .1c-.1 0 0 0 0 0h-.1s0 .1.1.1h-.1s0 .1-.1.1h.2-.1s.1.1 0 .1l.1.1s0 .1-.1.1c.1 0 0 0 .1.1h-.1.1-.1.1-.2v.1c.1 0-.1 0 0 0v.1h.1-.1.1-.1s-.1 0 0 0v.1c.1 0 0 0 .1.1h-.1.1-.1v.1c0 .1-.2 0-.1.1v.1h-.1v.1c-.1-.1 0 .1-.1 0 0 .1-.1 0-.2 0v.1-.1c0 .1-.1 0-.1.1v-.1s0 .1 0 0c0 .1 0 0-.1 0 0-.1 0-.1 0 0v-.1c0-.1-.1.1 0-.1h-.2l.1-.1s-.1.1-.1 0h-.1c0 .1-.1.1-.1.1l.1-.1h-.3l.1-.1h-.1s-.1.1-.1 0v-.1l.1-.1h-.1s-.1.1-.1 0H95c0-.1 0 0 .1-.1H95c-.1.1 0-.1 0 0h-.1v-.1c0-.2-.1 0-.1-.1v.1-.1c0-.1-.1.1 0 0v-.1s-.1.1-.1 0v-.1l-.1.1c.1-.1 0 0 0-.1v-.1h-.1v-.1.1c0 .1 0-.1-.1 0l-.1.1v-.2s0 .1 0 0v-.1.1-.1l-.1.1v-.1c0 .1 0 0 .1 0v.1-.1.1s0 .1 0 0c0 .1 0-.1 0 0 0 0 0-.1.1-.1v.1-.2c0 .1.1 0 0 .1v-.1c0 .1 0 0 0 0v.1c0-.1 0 0 0 0 0-.1 0 0 .1 0v.1c0-.1.1 0 .1 0s0 .1-.1.1h.1l.1-.1s0 .1-.1.1v.3h.1c.1 0 0 .1.1.1h.1v.1s0 .1 0 0v.1c0 .1.1-.1.1.1V98v.1s.1-.1.1 0l.1-.1s0 .1-.1.1v.2h.1s-.1.1 0 .1c0 0 0 .1-.1.1v.1s0-.1.1-.1c0 0 0 .1-.1 0 0 .1.1 0 .1 0v.1l.1-.1v.2s0 .1 0 0l.1-.1h-.1.1v-.1c0 .1.1 0 0 0l-.1.1c0 .1.1 0 .1 0v.1h.1v.1l.1-.1s0 .1-.1.1v-.1c0 .1.1 0 .1.1h.1s0-.1.1-.1v.1c0 .1 0 0 .1.1h.1c0-.1.1-.1.1-.1v.1-.1.1c0 .1 0 0 0 0s0-.1.1-.1c0-.1 0 0 0 0v.1-.1.1-.2c.1.1.1 0 .2.1 0-.1.1 0 .1-.1l-.1-.1h.2v-.1h-.1c0-.1.1 0 .1 0s.1-.1 0-.1v-.1c.1 0 0-.1 0-.1h.1V98c.1 0 .1-.1.1-.1h-.1.1-.1c.2 0 0-.1.1-.1h.1v-.1l-.2-.1h.1s.1-.1 0-.1c0 0 .1-.1 0-.1.1 0 0 0 0-.1h.1c-.1 0-.1 0-.1-.1h-.1.1-.1s-.1-.1 0-.1h.1l-.1-.1h-.2.2s0-.1-.1-.1c0 0 0-.1-.1-.1h.1c.1 0-.2-.1 0-.2.1-.1 0-.2.1-.2h-.1.1-.1s.2 0 .1-.1h.1l-.1-.1h-.4.1-.1.1-.1.1s-.1 0 0 0h.1-.1.1-.1c.1 0 0 .1.1.1.4.3.4.3.3.4.1-.1.1-.1.2 0-.1 0-.1-.1-.2 0 .1-.1.1 0 .1 0h-.1.1-.1c.1 0 0 0 0 0zm.1.5zm0 0zm.4 0zm-.1 0zm-2.5.9zm2-.4zm-2 .1zm-.1-.1zm-.1 0zm1 .6zm-.3-.1zm.6.3zm-.6-.3zm-1.1-.6zm0 0zm0 0zm.2 0zm0 0zm.1.3c-.1 0-.1 0 0 0-.1.1-.1 0 0 0zm0 0s0 .1 0 0c0 .1 0 .1 0 0zm.4.3c0 .1 0 0 0 0zm.3-.1zm-.2.3zm.8.6c0-.1 0 0 0 0zm.5-.1c0 .1.1.1 0 0zm.9-.9h.1-.1z" style="fill:#fff"/></g><g style="opacity:.65"><path d="M88.1 93.6c0 .1-.1.1 0 0zm-.1.2s.1 0 .1-.1l-.1.1c0-.1.1-.1 0 0 .1-.1.1-.1 0 0 0-.1 0 0 0 0zm0 .7zm-.1.4zm-.1.1zm.2-.5zm.2-.7zm-.2.5h-.1zm0-.2s0 .1 0 0zm0-.2zm-.1.5zm2.6 1.3zm.2.2zm-3-.8zm.6 1.4v-.1.1zm-.1-2.7zm.1 2.6zm-.6-.9zm.1-.3zm-.1.4zm0 .2h.1zm2.4 0zm-1.9-2zm0 1.8zm1 .5zm-1-.4s-.1 0 0 0c-.1 0 0 0 0 0zm1.9.2zm.1-.2v.1-.1.1-.1c0 .2-.1.1-.1.2v.1-.1.1-.2H90v.1c0 .1-.1-.2-.1-.1v.1-.1.1c0-.1 0 0 0 0v-.1s0 .1-.1.1v-.1h-.1v.2c0 .1 0 .1-.1.1v.1c-.1 0-.1.1-.1 0 0 .1-.1 0 0 .1 0-.1 0-.1-.1-.1v.1-.1.1-.1s-.1 0-.1-.1v.1-.1c0 .1 0-.1 0 0h-.2v.1-.1.1-.2s0-.1 0 0H89v.1s0-.1-.1-.1v.1-.1h-.1c-.1.1-.1-.2-.1-.1v-.1c-.1.1 0 0-.1 0 0-.1-.1 0 0-.1-.1 0-.1-.1-.1-.1s-.2.1-.1 0h.1c-.1 0 0 0-.1-.1h.1s-.1 0 0 0h-.2c.1 0 .1 0 0 0h.1-.1c.1 0-.1-.1.1-.1l-.1-.1c.1 0 0 0 .1.1l-.1-.1h.1v-.1c-.1 0-.1 0-.1-.1h.2-.1.1-.1s-.1 0-.1-.1c0 0-.1-.1 0-.1h.1v-.1h-.1.1c-.1 0 0 0-.1-.1h.2s-.1 0 0 0v-.1h.1s-.1-.1 0-.1c-.1 0 .1 0 0 0 0 0 .1 0 0 0v-.2h-.1c.2 0-.1-.1.1-.1h-.1.1c.1 0-.1 0 0 0h.1s-.1 0 0 0h.1c-.1 0 0 0-.1-.1h.2c-.1 0 0 0 0 0h-.1c-.1 0 .1-.1 0-.1h-.2.1s-.1 0 0 0h.1-.1.1-.1c-.1.1 0 0 0 .1h-.1.1-.1s-.1 0 0 0c0 0 .1 0 0 0h.1L88 94h.2c-.1 0 0 0-.1.1h.1c-.1 0 0 0 0 0h-.1c.1 0 0 0 0 0h.1l-.1.1h.1-.2s.1 0 0 .1h.2-.3.1-.1.2c.1 0 0 .1 0 .1v.1H88s-.1 0 0 0h-.2c-.1 0 .1.1 0 .1h.1-.1s.1 0 .1.1h.1-.2.1v.2h-.2.1-.1c-.1 0 .1 0 .1.1h-.1.1c.1 0-.1 0 0 0h-.1s-.1 0 0 0h.3c-.1 0 0 0 0 0h-.1c-.1 0 .1.1 0 .1h-.1.1-.1s.1 0 .1.1h-.1s.1 0 0 0h.2c-.1 0 0 .1-.1.1v.1h.1-.1c-.1 0 0 0 0 .1 0 0 .1 0 .1.1h.1-.1.1l-.1.1c-.1.1 0 0 0 0h.1c.1 0 0 0 0 0l-.1.5h.1s-.1 0-.1.1h.2c-.1.1 0 .1 0 .2.1 0 .1.1.1.1 0-.1 0 0 .1-.1v.2s0-.1 0 0v-.1c.1-.1 0 .1.1.1 0 0 .1 0 .1-.1v.1s.1-.1.1 0c0 0 0-.1 0 0 0 0 0-.1 0 0l.1-.1c0 .1 0 .1.1.1s.1-.1.1-.1c0 .1.1 0 .2.1v-.1s0-.1 0 0 0 .1.1.1v-.1c.1.1.1-.1.2.1v-.1.1h.1v-.2.1s.1.1.1 0c0 0 .1 0 0-.1 0 .1 0 0 0 0v.1-.1s0-.1 0 0v-.1l.1.1v-.1s0-.1.1 0v.1-.2s0-.1 0 0v-.1c0 .1.1.1.1.1s.1 0 0-.1v-.1s0 .1 0 0c.1.1 0-.2.1-.1.1 0 .1-.1.2 0v-.1.1-.1c0-.1.1.1.1 0v-.1s0 .1.1.1v-.1c0-.1 0-.2-.1-.2v.2-.1.1s0-.1 0 0v.1l-.1-.1v.1c0-.1 0 0-.1-.1v.2c.1-.2.1-.2 0-.3l.1.1-.1-.1c.1.1 0 .1.1.1-.1 0-.1-.1-.1-.1zm-.4.3zm0 0zm.2.4c-.1-.1 0-.1 0 0 0-.1 0-.1 0 0zm0-.1s-.1 0 0 0zm-2-1.8zm1.2 1.5v.1-.1zm-1-1.7zm0-.1zm.1-.1s-.1 0 0 0zm-.2 1.2c.1 0 .1 0 0 0zm0-.4zm.1.7zm-.1-.6c0-.1 0 0 0 0zm.1-1.3zm0 0zm-.1 0c.1 0 .1 0 0 0zm.1.1zm0 .1s.1-.1 0 0c.1-.1 0 0 0 0z" style="fill:#fff"/><path d="M88 94.1c0-.1 0 0 0 0-.1 0 0-.1 0 0zm0 0zm-.1.5zm.3.2zm-.4 0zm-.1 1c0-.1 0-.1 0 0zm.2.4s.1 0 0 0zm1.3.4z" style="fill:#fff"/></g><g style="opacity:.65"><path d="M53.9 71.9v-.2.2zm0-.6v.7-.6.2-.1c0-.3 0-.3-.1-.1.1 0 .1-.1.1-.1zm-1.4-.6c0 .1 0 0 0 0zm-.8-.1s0-.1 0 0c0-.1 0-.1 0 0zm-.1-.4zm.9.5v-.1.1zm1.2 1.4c0-.1 0-.1 0 0 0-.1 0-.1 0 0 0-.1 0-.1 0 0zm-.8-1.6v-.1.1zm.3-.1v.4-.4zm.4.5zm-.9-.5v-.1.1zM45 72.5zm-.3-1.4v-.2.2zm6.6-1.3zM49 70v.6-.6zm4.7 2zM49 70.6c0 .1 0 .1 0 0zm1.7-.6v.1c.1 0 .1 0 0-.1zm.5.4zm-.7 0s0-.1 0 0zm-.2 0c0 .1 0 0 0 0zm-4.6 2v-.3.3zm8-.5v.1-.1zm-3.2.7zm-3.1-.3c0 .1 0 .1 0 0zm3 .3v-.2.2zm-4.7-.5z" style="fill:#fff"/><path d="M45.4 72.8v-.6.5c0-.1 0-.4.1-.4v.2c0-.3.1 0 .1-.4v.1-.5s0-.2 0 0v.2-.1.4c0-.1.1-.4.1-.3 0 .3-.1.1 0 .4v-.1.5c.1.1.1-.2.1-.1v-.5c.1-.3.1.9.1.4 0-.2 0-.7.1-.4v.4s0-.6.1-.3v.2-.2.3c.1-.1.1-.3.2-.4v.3c.1-.2.2 0 .2.2v-.3.2-.3.3c0-.2.1-.5.2-.2v.1c0 .1 0-.6.1-.3v.1c.1.1.2-.1.2.3 0-.4.1.2.1-.4 0 .3 0 .4.1.6 0 0 0-.4.1-.4v.3-.3.4-.3c0-.1.1.2.1.4l.1-.3v.2c0-.3 0 .3 0 0v-.2c0 .2.1.2.1.1v.2c.1.1.1-.1.2-.1v-.5.3-.4.5-.1.3c0-.2.1.3.1 0v.1c.1 0 .1-.1.2-.1v-.4c0 .1.1.3.1.3v-.4c0 .3.1.2 0 .4.1 0 .1-.1.1-.3v-.2.2c.1-.4.2.7.3.2l.1-.3v.4c.1-.4.1.1.2-.2 0 .8.2-.1.2.4v-.2.1-.3c.1-.2.3.3.4.4.1 0 0-.9.1-.5v.3c.1-.4.2 0 .3-.3v.2c0 .2.1 0 .1-.2v.3c0 .1.1-.3.1-.1v.1c0-.1.1 0 .1-.2 0 .1.1-.1.1 0 0-.3.1.1.1-.3 0 .5.1.4.1.2v.3s.1-.1 0-.3c.1.5.1-.4.1.3.1-.2.2-.4.2-.5 0 .5-.1 0-.1.5.1-.2.1-.6.2-.5v.3c.1-.2.1 0 .2-.2v.1-.1.1c0-.3 0-.6.1-.8 0 .6.1.1 0 .9v-.3.3c0-.1 0-.3.1-.3v.3c0-.2 0-.4.1-.3v.1c.1 0 .1-.5.2-.3v.5-.3s.1-.3.1-.1v.2l.1-.1v-.5.2c0-.1 0-.2.1-.2v.5c0-.3.1-.1.1-.4v.3-.3.3-.3.1c0 .1.1-.2.1 0v.4c.1-.1.1-.5.2-.4 0-.5 0 .3.1 0v.2c0 .1.1-.1.2-.3v.1c0 .1.1.1.1.1v-.3c.1.8.2-.4.2.2v.1l.1-.1v-.5.5-.2c0 .4 0-.5.1-.2v.1c0-.1 0-.2.1-.2v.3s.1-.5.1-.2v.5-.1c0-.7.1-.1.1-.6v.9c0-.2 0 .2.1-.2v.3-.3c0-.3.1.4.2-.1.1-.2.1-.5.1-.7v.4c0 .1 0 .1.1 0v.3-.2.4c0-.1 0-.3.1-.4v.4c0-.1.1-.2.1-.4v-.1.3-.3c0-.6-.1.1-.1.1v-.4.3-.6.1-.2c0-.2-.1.3-.1 0-.1.1 0 .3-.1.7v-.8.3-.2.3c0-.3-.1.1-.1-.4v.3c0-.5 0 .1-.1-.2v-.4c0 .5-.1-.1-.1 0 0 .4-.1.2-.1.3 0-.1-.1-.2-.1-.3v-.1c0 .4 0 .3-.1.4v-.4.2-.3s-.1.3-.1.1v.9-.4.1-.2.2-.3s0 .1 0 0v-.3.3-.3.3-.2c0 .1-.1 0-.1.4-.1.3-.1-.2-.2 0v-.1c0 .1-.1.1-.1.3v-.3c0 .1 0 .2-.1 0v-.1c0-.1 0-.2-.1 0v-.2.2-.3c-.1-.4-.1.7-.2 0v.4l-.1-.5c0-.2 0 .5-.1.4v.5-.6.1-.2.1c0-.1-.1-.1 0-.3v.3c0-.2-.1 0-.1-.1v.2c-.1-.1 0 .2-.1.3v-.7c0 .2-.1-.2-.1-.2V70v.3-.1.6c0-.1 0 .1-.1-.2v-.5c0-.3 0 .4-.1.3v-.3.4c0-.1 0 .1-.1.1v.3-.2c0 .3-.1-.3-.1-.1v-.4c0 .2 0-.2-.1-.1v.4l.1-.2v.3s0-.2.1-.1v.3c0-.4-.1.2-.1 0v-.6c0-.3-.1.3-.1.2v.1c0 .2 0 0-.1.1v-.4c0 .1 0 0-.1.4v-.3c0-.1-.1.6-.1.5v-.5.1c0-.1 0 .3-.1.1v.3-.1.4c0-.6-.1 0-.2-.5 0 .1-.1.1-.1.1v-.1c0-.2 0 .6-.1.4v-.3c0-.6-.1.1-.1-.3 0-.2-.1.2-.1.2v-.1c0 .3-.1.4-.1.5v-.4.5-.5c0-.4 0 0-.1 0v-.2c-.1.1-.1.4-.1.4v.1c0 .4 0-.2-.1.1v-.4c0 .1-.1.4-.1.5 0-.3.1-.4.1-.6 0 0-.1 0-.1.2v-.1c0 .3-.1.5-.1.5 0-.8-.1-.2-.1-.8-.4.1-.5-.3-.6-.3v.6l-.1-.4v-.7.5c-.1.3-.1-.5-.1-.2v-.2c0 .1-.1 0-.1.5v-.3c-.1-.1-.2.5-.2.2v-.1.1-.2c0 .1 0 .3-.1.2v-.2c-.1-.2-.1.4-.2.5 0-.4-.1-.6-.1-.7v-.1c-.1-.1-.1.4-.2.5 0-.5-.2-.2-.2-.5v.4-.1c0-.4 0-.3-.1-.3v.5c-.1-.8-.2.3-.2-.4 0 .1 0 .1-.1.3v-.3c0-.1-.1-.1-.1 0v-.2s0 .8-.1.8v-.4c-.1 0-.1-.4-.2 0v-.2s-.1-.3-.1.3c0-.4-.1 0-.1.1v-.3c0 .4 0 .5-.1.6v-.2c0-.1 0 .3-.1.1V70v.3c0 .1-.1-.1-.1-.3v.3-.2c-.1-.2-.1.3-.1.1V70h.1v-.7c0 .2-.1.6-.1.5v-.2c0-.2 0-.1-.1-.1v1.1c0-.4-.1-.6-.1-.8-.1.2-.1.1-.2.6v-.3c0 .1-.1.1-.1.4v-.4c-.1-.6-.2.9-.3.2v.1c-.1-.3-.3.3-.4-.2 0-.1 0 .1-.1.3v-.3.3c-.1.3-.1-.7-.2-.3v.2s-.1.1-.1-.1v.1-.2l-.1.3c0-.1 0-.6-.1-.7 0 .1-.1.5-.1.6v1.7-.3.2-.1.2-.4.5-.5.4c0-.1.1-.1.1-.3 0 .3.1-.1.1.4 0-.1 0-.3.1-.4 0 .5.1 0 .1.6 0-.5.1-.2.1-.5v.4c0-.4 0-.5.1-.7v.8c0-.3.1-.3 0-.6v.4-.4.3c.5.5.4.7.4.7zm.9-.8zm.1-.1c-.1 0-.1 0 0 0v-.2c-.1.1-.1.2 0 .2zm-.2-1.9v.1-.1zm0 .4zm6.4.4zm-5.3 1.7v-.1.1zm5.6-.7zm.2 0v.1-.1zm.1.2v-.1.1zm-2 .3c0 .1 0 0 0 0zm.6-.7v.1-.1zm-1.3 1zm1.3-.8c0-.1 0-.1 0 0zm2 .3zm0-.1zm0-.1c0 .1 0 .1 0 0zm-.2.1v.1-.1zm0 0v.2-.2c0 .2 0-.2 0 0z" style="fill:#fff"/><path d="M53.4 70.7v-.2c-.1-.3 0 .3 0 .2zm-.2-.1v-.2.2zm-1 0v-.3s.1.1 0 .3zm-.1 1.3v.1-.2zm-.1-1.8V70l-.1.1zm-1.7.1v.3-.3zm-.7.3v-.1.1zm-2.1-.5v-.1z" style="fill:#fff"/></g><g style="opacity:.65"><path d="M84.5 72.4v-.2.2zm-.1-.6v.7-.6.2-.1c0-.3 0-.3-.1-.1.1 0 .1-.1.1-.1zm-1.3-.5zm-.9-.2s0-.1 0 0c0-.1 0 0 0 0zm-.1-.4zm1 .6v-.1c-.1.1-.1 0 0 .1zm1.1 1.3s0-.1 0 0c0-.1 0-.1 0 0zm-.8-1.6v-.1.1zm.3 0v.4-.4zm.4.4zm-.9-.5v-.1.1zm-7.7 2.2c0-.1 0-.1 0 0 0-.1 0 0 0 0zm-.3-1.4v-.2.2zm6.6-1.3c.1-.1 0-.1 0 0zm-2.3.2v.6-.6zm4.7 1.9c0 .1 0 .1 0 0 0 .1 0 .1 0 0zm-4.7-1.3zm1.8-.7v.1-.1zm.4.4zm-.7 0zm-.2 0c0 .1 0 .1 0 0 0 .1 0 .1 0 0zm-4.6 2v-.3.3zm8-.5v.1-.1zm-3.2.7zm-3.1-.2zm3 .2v-.2.2zm-4.7-.4z" style="fill:#fff"/><path d="M76 73.3v-.6.5c0-.1 0-.4.1-.4v.2c0-.3.1 0 .1-.4v.1-.5s0-.2 0 0v.2-.1.4c0-.1.1-.4.1-.3 0 .3-.1.1 0 .4v-.1.5c.1.1.1-.2.1-.1v-.5c.1-.3.1.9.1.4 0-.2 0-.7.1-.4v.4s0-.6.1-.3v.2-.2.3c.1-.1.1-.3.2-.4v.3c.1-.2.2 0 .2.2v-.3.2-.3.3c0-.2.1-.5.2-.2v.1c0 .1 0-.6.1-.3v.1c.1.1.2-.1.2.3 0-.4.1.2.1-.4 0 .3 0 .4.1.6 0 0 0-.4.1-.4v.3-.3.4-.3c0-.1.1.2.1.4l.1-.3v.2c0-.3 0 .3 0 0V73c0 .2.1.2.1.1v.2c.1.1.1-.1.2-.1v-.5.3-.4.5-.1.3c0-.2.1.3.1 0v.1c.1 0 .1-.1.2-.1v-.4c0 .1.1.3.1.3v-.4c0 .3.1.2 0 .4.1 0 .1-.1.1-.3v-.2.2c.1-.4.2.7.3.2l.1-.3v.4c.1-.4.1.1.2-.2 0 .8.2-.1.2.4v-.2.1-.3c.1-.2.3.3.4.4.1 0 0-.9.1-.5v.3c.1-.4.2 0 .3-.3v.2c0 .2.1 0 .1-.2v.3c0 .1.1-.3.1-.1v.1c0-.1.1 0 .1-.2 0 .1.1-.1.1 0 0-.3.1.1.1-.3 0 .5.1.4.1.2v.3s.1-.1 0-.3c.1.5.1-.4.1.3.1-.2.2-.4.2-.5 0 .5-.1 0-.1.5.1-.2.1-.6.2-.5v.3c.1-.2.1 0 .2-.2v.1-.1.1c0-.3 0-.6.1-.8 0 .6.1.1 0 .9v-.3.3c0-.1 0-.3.1-.3v.3c0-.2 0-.4.1-.3v.1c.1 0 .1-.5.2-.3v.5-.3s.1-.3.1-.1v.2l.1-.1v-.5.2c0-.1 0-.2.1-.2v.5c0-.3.1-.1.1-.4v.3-.3.3-.3.1c0 .1.1-.2.1 0v.4c.1-.1.1-.5.2-.4 0-.5 0 .3.1 0v.2c0 .1.1-.1.2-.3v.1c0 .1.1.1.1.1v-.3c.1.8.2-.4.2.2v.1l.1-.1v-.5.5-.2c0 .4 0-.5.1-.2v.1c0-.1 0-.2.1-.2v.3s.1-.5.1-.2v.5-.1c0-.7.1-.1.1-.6v.9c0-.2 0 .2.1-.2v.3-.3c0-.3.1.4.2-.1.1-.2.1-.5.1-.7v.4c0 .1 0 .1.1 0v.3-.2.4c0-.1 0-.3.1-.4v.4c0-.1.1-.2.1-.4v-.1.3-.3c0-.6-.1.1-.1.1v-.4.3-.6.1-.2c0-.2-.1.3-.1 0-.5 0-.5.2-.5.6v-.8.3-.2.3c0-.3-.1.1-.1-.4v.3c0-.5 0 .1-.1-.2v-.4c0 .5-.1-.1-.1 0 0 .4-.1.2-.1.3 0-.1-.1-.2-.1-.3v-.1c0 .4 0 .3-.1.4v-.4.2-.3s-.1.3-.1.1v.9-.4.1-.2.2-.3s0 .1 0 0v-.3.3-.3.3-.2c0 .1-.1 0-.1.4-.1.3-.1-.2-.2 0v-.1c0 .1-.1.1-.1.3v-.3c0 .1 0 .2-.1 0v-.1c0-.1 0-.2-.1 0v-.2.2-.3c-.1-.4-.1.7-.2 0v.4l-.1-.5c0-.2 0 .5-.1.4v.5-.6.1-.2.1c0-.1-.1-.1 0-.3v.3c0-.2-.1 0-.1-.1v.2c-.1-.1 0 .2-.1.3v-.7c0 .2-.1-.2-.1-.2v-.1.3-.1.6c0-.1 0 .1-.1-.2v-.5c0-.3 0 .4-.1.3v-.3.4c0-.1 0 .1-.1.1v.3-.2c0 .3-.1-.3-.1-.1v-.4c0 .2 0-.2-.1-.1v.4l.1-.2v.3s0-.2.1-.1v.3c0-.4-.1.2-.1 0v-.6c0-.3-.1.3-.1.2v.1c0 .2 0 0-.1.1v-.4c0 .1 0 0-.1.4v-.3c0-.1-.1.6-.1.5v-.5.1c0-.1 0 .3-.1.1v.3-.1.4c0-.6-.1 0-.2-.5 0 .1-.1.1-.1.1V71c0-.2 0 .6-.1.4v-.3c0-.6-.1.1-.1-.3 0-.2-.1.2-.1.2v-.1c0 .3-.1.4-.1.5V71v.5-.5c0-.4 0 0-.1 0v-.2c-.1.1-.1.4-.1.4v.1c0 .4 0-.2-.1.1V71c0 .1-.1.4-.1.5 0-.3.1-.4.1-.6 0 0-.1 0-.1.2V71c0 .3-.1.5-.1.5 0-.8-.1-.2-.1-.8-.1.3-.1-.1-.2-.1v.6l-.1-.4v-.7.5c-.1.3-.1-.5-.1-.2v-.2c0 .1-.1 0-.1.5v-.3c-.2 0-.3.6-.3.3v-.1.1-.2c0 .1 0 .3-.1.2v-.2c-.1-.2-.1.4-.2.5 0-.4-.1-.6-.1-.7v-.1c-.1-.1-.1.4-.2.5 0-.5-.2-.2-.2-.5v.4-.1c0-.4 0-.3-.1-.3v.5c-.1-.8-.2.3-.2-.4 0 .1 0 .1-.1.3v-.3c0-.1-.1-.1-.1 0v-.2s0 .8-.1.8v-.4c-.1 0-.1-.4-.2 0v-.2s-.1-.3-.1.3c0-.4-.1 0-.1.1v-.3c0 .4 0 .5-.1.6v-.2c0-.1 0 .3-.1.1v-.2.3c0 .1-.1-.1-.1-.3v.3-.2c-.1-.2-.1.3-.1.1v-.2h.1V70c0 .2-.1.6-.1.5v-.2c0-.2 0-.1-.1-.1v1.1c0-.4-.1-.6-.1-.8-.1.2-.1.1-.2.6v-.3c0 .1-.1.1-.1.4v-.4c-.1-.6-.2.9-.3.2v.1c-.1-.3-.3.3-.4-.2 0-.1 0 .1-.1.3v-.3.3c-.1.3-.1-.7-.2-.3v.2s-.1.1-.1-.1v.1-.2l-.1.3c0-.1 0-.6-.1-.7 0 .1-.1.5-.1.6v1.7-.3.2-.1.2-.4.5-.5.4c0-.1.1-.1.1-.3 0 .3.1-.1.1.4 0-.1 0-.3.1-.4 0 .5.1 0 .1.6 0-.5.1-.2.1-.5v.4c0-.4 0-.5.1-.7v.8c0-.3.1-.3 0-.6v.4-.4.3c.5.4.5.5.5.5zm.8-.8zm.1 0s-.1 0 0 0v-.2c-.1 0 0 .1 0 .2zm-.2-2v.1-.1zm0 .4s0 .1 0 0c0 .1 0 0 0 0zm6.4.4zM77.8 73v-.1.1zm5.7-.7zm.1 0v.1-.1zm.1.2v-.1.1zm-2 .3c0 .1 0 .1 0 0zm.6-.6v.1-.1zm-1.3 1v-.1zm1.3-.9s0-.1 0 0zm2 .3zm0 0c0-.1 0-.1 0 0zm0-.1s0 .1 0 0zm-.2 0v.1-.1zm0 0v.2-.2c0 .2 0-.2 0 0zm-.2-1.2v-.2.2zm-.2-.2v-.2.2z" style="fill:#fff"/><path d="M82.8 71.1v-.3c-.1.1 0 .1 0 .3zm-.2 1.3v.2-.3zm-.1-1.8h-.1zm-1.7.1v.3c.1-.1.1-.4 0-.3zm-.7.3v-.1.1zm-2.1-.5v-.1.1z" style="fill:#fff"/></g><path d="M46.2 39.9s0 .1 0 0zm-.1.1s.1 0 .1-.1c0 .1 0 .1-.1.1.1 0 .1 0 0 0 .1 0 .1 0 0 0 .1 0 0 0 0 0zm.3.7zm.1.5zm0 .1zm-.1-.6c0 .1 0 .1 0 0zm-.1-.6zm-.1.5zm-.1-.2c0 .1.1 0 0 0 .1 0 .1 0 0 0 .1 0 .1 0 0 0zm0-.2zm.2.5c-.1 0-.1 0 0 0-.1 0 0 0 0 0zm2.2 3.7zm-.2.3zm-1.8-3.3zm.6 1.2h.1-.1zm-.8-2.5zm.9 2.5zm-.6-.9c.1 0 .1 0 0 0 .1 0 .1 0 0 0zm0-.2zm.2.3zm0 .1zm1.5 2.2s-.1 0 0 0zm-2-4zm.9 1.5zm.7 1.6zm-.7-1.5zm1 2.4zm.2.1h-.1.1-.1.1c-.2 0-.1-.1-.2-.1h-.1.1-.1.1c.1-.1 0 0 .1 0h-.1c-.1 0 .1-.1 0-.1h-.1.1-.2.1s-.1 0-.1-.1h.1v-.1h-.2c-.1 0-.1 0-.1-.1h-.1c0-.1-.1-.1 0-.2-.1 0 0-.1-.1 0l.1-.1h-.1.1-.1.1v-.1h-.1.1c-.1 0 .1 0 0 0v-.1s0-.1-.1-.1h-.1.1-.1.2s0-.1 0 0l-.1-.1h-.1v-.1h-.1.1l-.1-.1c-.1 0 .1-.2 0-.1h-.1.1c-.1 0 0-.1-.1-.1.1-.1 0-.1 0-.2-.1-.1 0-.2 0-.3 0 0-.2.1-.1 0h.1c-.1 0 0-.1-.1-.1h-.1s-.1 0 0 0H47v-.1h-.1c.1 0 .1-.1 0-.1h.1-.1c.1-.1-.1 0 0-.1-.1 0-.1 0-.1-.1h.1c-.1 0-.1 0-.1-.1h.1c-.1 0 0-.1-.1-.1h-.2c.1 0 0 0 .2-.1h-.3s-.1 0-.1-.1c.1 0 0 0 .1-.1 0 0-.1 0 0 0h-.1s-.1 0 0 0h.1-.1.1-.1s-.1 0 0-.1h.1s-.1 0-.1-.1c-.1 0 0 0 0 0s.1 0 0 0l-.1-.1v-.1h-.1c.1-.1-.1 0 0-.1H46h.1c.1-.1-.1 0 0 0h.1-.1c.1 0 0 0 0 0H46h.1-.1c-.1 0 .1-.1 0-.1h-.1.1s-.1 0 0 0h.1-.1.1-.1.1c-.1.1 0 0 0 0H46h.1-.1s-.1 0 0 0c0 0 .1 0 0 0h.1l-.1.1h.2v.1h.1c-.1 0 0 0 0 0h-.1c.1 0 0 0 0 0h.1v.1h.1-.2.1s.1-.1.2-.1h-.2.1-.1.2c.1 0 0 .1 0 .1h.1s-.1 0 0 0h-.1c-.1.1.2 0 0 .1h.1l-.1.1h.2l-.1.1v.2h.1s-.1 0 0 0h-.1c.1 0 0 0 0 .1h.1-.1.1s-.1 0 0 0h.1c.1 0 0 .1 0 .1h-.1c.1 0 0 0 0 0h.3c-.1 0 .1 0 0 0h-.1s.1 0 .1.1h-.1.2-.1s.1 0 0 0h.2c-.1.1 0 .1 0 .1h.2-.1c-.1.1 0 0 0 .1h.2-.1.1l-.1.1c-.1 0 0 0 0 0h.1c.1 0 0 0 0 0h-.1.1-.1.2c-.1.1 0 .1-.1.1.1 0 0 .1 0 .1.1-.1 0 0 .1 0l-.1.1h-.1l-.1.1h.1c.1 0-.1.1 0 .1 0 0 0 .1.1 0h-.1s.1 0 .1.1c0 0 .1 0 0 0 0 0 .1 0 0 0 0 .1.1 0 .1 0-.1 0-.1.1-.1.1s.1 0 .1.1c-.1.1 0 .1 0 .2h.1s.1 0 0 0 0 0 0 .1h.1c-.1.1.1.1 0 .2h.1-.1v.1h.2-.1v.1s0 .1.1 0c-.1 0 0 0 0 0h-.1.1s.1 0 0 0h.1v.1h.1s.1 0 0 .1l-.1.1h.2s.1 0 0 0h.1c-.1 0-.1.1-.1.1s0 .1.2 0h.1s-.1 0 0 0c-.1.1.2 0 .1.1 0 .1.1.1.1.2h.1-.1.1c.1 0-.1.1 0 .1h.1s-.1 0-.1.1h.1c.1 0 .2-.1.2-.1H49h.1-.1s.1 0 0 0h-.1l.1-.1h-.1c.1 0 0 0 .1-.1h-.2c-.5.3-.4.3-.4.2 0 .1-.1.1-.1.1l.1-.1c-.1.1 0 .1-.1.1 0-.1.1-.1.1-.1zm-.3-.4zm-.1 0zm-.3.2zm.1 0zm-1.4-3.3zm1.5 2.6zm-1.5-2.8s.1 0 0 0c.1 0 0 0 0 0zm0-.1zm0-.1zm.6 1zm-.3-.3zm.5.6zm-.5-.5s0-.1 0 0zm-.4-1.1zm0 0zm0 0zm0 .1zm0 0s.1 0 0 0c.1 0 0 0 0 0zm-.1.2c-.1 0-.1 0 0 0-.1.1 0 0 0 0zm0 .1c-.1 0-.1 0 0 0-.1 0-.1 0 0 0zm.2.5zm.3 0zm-.3.2zm.4.8s-.1 0 0 0zm.2.4zm.4 1.1zm1.9-9.4c0 .1-.1.1 0 0z" style="fill:#6594d9"/><path d="M49.2 34.1s.1 0 .1-.1c0 .1 0 .1-.1.1 0 0 .1 0 0 0zm.2.8zm.2.4zm-.1.1zm-.1-.5zm0-.7zm-.1.5s-.1 0 0 0zm-.1-.1s0-.1 0 0c0-.1 0-.1 0 0 0-.1 0 0 0 0zm0-.3zm.1.5zm2.2 3.8zm-.2.2zm-1.8-3.2c0-.1 0 0 0 0zm.6 1.1h.1-.1zm-.7-2.5zm.8 2.5zm-.5-.9zm0-.2zm.1.3zm.1.1zm1.4 2.2zm-2-4c.1 0 .1 0 0 0 .1 0 .1 0 0 0 .1 0 0 0 0 0zm.9 1.5c0 .1 0 0 0 0zm.7 1.6zm-.6-1.5c-.1 0-.1 0 0 0-.1 0-.1 0 0 0zm1 2.4zm.1.1h-.1.1-.1.1c-.2 0-.1-.1-.2-.1h-.1.1-.1.1c.1-.1 0 0 .1 0h-.1c-.1 0 .1-.1 0-.1h-.1.1-.2.1s-.1 0-.1-.1h.1v-.1h-.2c-.1 0-.1 0-.1-.1h-.1c0-.1-.1-.1 0-.2-.1 0 0-.1-.1 0l.1-.1h-.1.1-.1.1v-.1h-.1.1c-.1 0 .1 0 0 0v-.1s0-.1-.1-.1h-.1.1-.1.2s0-.1 0 0l-.1-.1h-.1V37h-.1.1l-.1-.1c-.1 0 .1-.2 0-.1h-.1.1c-.1 0 0-.1-.1-.1.1-.1 0-.1 0-.2-.1-.1 0-.2 0-.3 0 0-.2.1-.1 0h.1c-.1 0 0-.1-.1-.1h-.1s-.1 0 0 0H50V36h-.1c.1 0 .1-.1 0-.1h.1-.1c.1-.1-.1 0 0-.1-.1 0-.1 0-.1-.1h.1c-.1 0-.1 0-.1-.1h.1c-.1 0 0-.1-.1-.1h-.2c.1 0 0 0 .2-.1h-.3s-.1 0-.1-.1c.1 0 0 0 .1-.1 0 0-.1 0 0 0h-.1s-.1 0 0 0h.1-.1.1-.1s-.1 0 0-.1h.1s-.1 0-.1-.1c-.1 0 0 0 0 0s.1 0 0 0l-.1-.1v-.1h-.1c.1-.1-.1 0 0-.1H49h.1c.1-.1-.1 0 0 0h.1-.1c.1 0 0 0 0 0H49h.1-.1c-.1 0 .1-.1 0-.1h-.1.1s-.1 0 0 0h.1-.1.1-.1.1c-.1.1 0 0 0 0H49h.1-.1s-.1 0 0 0c0 0 .1 0 0 0h.1l-.1.1h.2v.1h.1c-.1 0 0 0 0 0h-.1c.1 0 0 0 0 0h.1v.1h.1-.2.1s.1-.1.2-.1h-.2.1-.1.2c.1 0 0 .1 0 .1h.1s-.1 0 0 0h-.1c-.1.1.2 0 0 .1h.1l-.1.1h.2l-.1.1v.2h.1s-.1 0 0 0h-.1c.1 0 0 0 0 .1h.1-.1.1s-.1 0 0 0h.1c.1 0 0 .1 0 .1h-.1c.1 0 0 0 0 0h.3c-.1 0 .1 0 0 0h-.1s.1 0 .1.1h-.1.2-.1s.1 0 0 0h.2c-.1.1 0 .1 0 .1h.2-.1c-.1.1 0 0 0 .1h.2-.1.1l-.1.1c-.1 0 0 0 0 0h.1c.1 0 0 0 0 0h-.1.1-.1.2c-.1.1 0 .1-.1.1.1 0 0 .1 0 .1.1-.1 0 0 .1 0l-.1.1h-.1l-.1.1h.1c.1 0-.1.1 0 .1 0 0 0 .1.1 0h-.1s.1 0 .1.1c0 0 .1 0 0 0 0 0 .1 0 0 0 0 .1.1 0 .1 0-.1 0-.1.1-.1.1s.1 0 .1.1c-.1.1 0 .1 0 .2h.1s.1 0 0 0 0 0 0 .1h.1c-.1.1.1.1 0 .2h.1-.1v.1h.2-.1v.1s0 .1.1 0c-.1 0 0 0 0 0h-.1.1s.1 0 0 0h.1v.1h.1s.1 0 0 .1l-.1.1h.2s.1 0 0 0h.1c-.1 0-.1.1-.1.1s0 .1.2 0h.1s-.1 0 0 0c-.1.1.2 0 .1.1 0 .1.1.1.1.2h.1-.1.1c.1 0-.1.1 0 .1h.1s-.1 0-.1.1h.1c.1 0 .2-.1.2-.1H52h.1-.1s.1 0 0 0h-.1l.1-.1h-.1c.1 0 0 0 .1-.1h-.2c-.4.3-.4.3-.4.2 0 .1-.1.1-.1.1.1 0 .1 0 .1-.1-.1.1 0 .1-.1.1l.1-.1zm-.3-.4s0 .1 0 0c0 .1 0 0 0 0zm0 0s-.1 0 0 0zm-.3.2zm0 0zm-1.4-3.3v.1-.1zm1.5 2.6zm-1.4-2.8zm0-.1zm0-.1c-.1 0-.1 0 0 0-.1 0-.1 0 0 0zm.5 1z" style="fill:#6594d9"/><path d="M49.7 35.2s.1 0 0 0c.1 0 .1-.1 0 0zm.5.5zm-.4-.5zm-.5-1.1zm0 0zm0 0zm.1.1zm0 0s-.1 0 0 0zm-.2.2c-.1.1 0 0 0 0zm0 .1zm.2.5zm.3 0zm-.3.2zm.4.8c.1 0 0 0 0 0zm.2.4s.1 0 0 0zm.4 1.1zm6-1.8zm-.1.1s.1 0 .1-.1c0 .1 0 .1-.1.1 0 0 .1 0 0 0 .1 0 .1-.1 0 0zm.2.7zm.2.5zm0 .1zm-.2-.6zm0-.7zm-.1.6zm-.1-.2s.1 0 0 0c.1 0 .1 0 0 0zm0-.2zm.1.5zm2.2 3.7zm-.1.3c-.1 0-.1 0 0 0zm-1.8-3.3c-.1 0-.1 0 0 0zm.5 1.2h.1-.1zm-.7-2.6zm.9 2.5zm-.6-.8zm0-.3zm.1.4zm.1.1zm1.4 2.2s.1 0 0 0zm-1.9-4.1zm.9 1.6zM58 39zm-.6-1.5zm1 2.4zm.2.1h-.1.1-.1c0-.1 0-.1.1 0-.2 0-.1-.1-.2-.1h-.1.1-.1.1c.1-.1 0 0 .1 0h-.1c-.1 0 .1-.1 0-.1h-.1.1-.2.1s-.1 0-.1-.1h.1v-.1h-.2c-.1 0-.1 0-.1-.1h-.1c0-.1-.1-.1 0-.2-.1 0 0-.1-.1 0l.1-.1h-.1.1-.1.1v-.1h-.1.1c-.1 0 .1 0 0 0V39s0-.1-.1-.1h-.1.1-.1.2s0-.1 0 0l-.1-.1h-.1v-.1h-.1.1l-.1-.1c-.1 0 .1-.2 0-.1h-.1.1c-.1 0 0-.1-.1-.1.1-.1 0-.1 0-.2-.1-.1 0-.2 0-.3 0 0-.2.1-.1 0h.1c-.1 0 0-.1-.1-.1h-.1s-.1 0 0 0h-.1v-.1h-.1c.1 0 .1-.1 0-.1h.1-.1c.1-.1-.1 0 0-.1-.1 0-.1 0-.1-.1h.1c-.1 0-.1 0-.1-.1h.1c-.1 0 0-.1-.1-.1h-.2c.1 0 0 0 .2-.1h-.3s-.1 0-.1-.1c.1 0 0 0 .1-.1 0 0-.1 0 0 0h-.1s-.1 0 0 0h.1-.1.1-.1s-.1 0 0-.1h.1s-.1 0-.1-.1c-.1 0 0 0 0 0s.1 0 0 0l-.1-.1v-.1h-.1c.1-.1-.1 0 0-.1h-.2.1c.1-.1-.1 0 0 0h.1-.1c.1 0 0 0 0 0h-.1.1-.1c-.1 0 .1-.1 0-.1h-.1.1s-.1 0 0 0h.1-.1.1-.1.1c-.1.1 0 0 0 0h-.1.1-.1s-.1 0 0 0c0 0 .1 0 0 0h.1l-.1.1h.2v.1h.1c-.1 0 0 0 0 0h-.1c.1 0 0 0 0 0h.1v.1h.1-.2.1s.1-.1.2-.1h-.2.1-.1.2c.1 0 0 .1 0 .1h.1s-.1 0 0 0h-.1c-.1.1.2 0 0 .1h.1l-.1.1h.2l-.1.1v.2h.1s-.1 0 0 0h-.1c.1 0 0 0 0 .1h.1-.1.1s-.1 0 0 0h.1c.1 0 0 .1 0 .1h-.1c.1 0 0 0 0 0h.3c-.1 0 .1 0 0 0h-.1s.1 0 .1.1h-.1.2-.1s.1 0 0 0h.2c-.1.1 0 .1 0 .1h.2-.1c-.1.1 0 0 0 .1h.2-.1.1l-.1.1c-.1 0 0 0 0 0h.1c.1 0 0 0 0 0h-.1.1-.1.2c-.1.1 0 .1-.1.1.1 0 0 .1 0 .1.1-.1 0 0 .1 0l-.1.1h-.1l-.1.1h.1c.1 0-.1.1 0 .1 0 0 0 .1.1 0h-.1s.1 0 .1.1c0 0 .1 0 0 0 0 0 .1 0 0 0 0 .1.1 0 .1 0-.1 0-.1.1-.1.1s.1 0 .1.1c-.1.1 0 .1 0 .2h.1s.1 0 0 0 0 0 0 .1h.1c-.1.1.1.1 0 .2h.1-.1v.1h.2-.1v.1s0 .1.1 0c-.1 0 0 0 0 0h-.1.1s.1 0 0 0h.1v.1h.1s.1 0 0 .1l-.1.1h.2s.1 0 0 0h.1c-.1 0-.1.1-.1.1s0 .1.2 0h.1s-.1 0 0 0c-.1.1.2 0 .1.1 0 .1.1.1.1.2h.1-.1.1c.1 0-.1.1 0 .1h.1s-.1 0-.1.1h.1c.1 0 .2-.1.2-.1h-.2.1-.1s.1 0 0 0h-.1l.1-.1h-.1c.1 0 0 0 .1-.1H59c-.5.3-.5.3-.4.2 0 .1-.1.1-.1.1 0-.1 0 0 .1-.1-.1.1 0 .1-.1.1 0-.1.1-.1.1-.1-.1 0 0 0 0 0zm-.4-.4zm0 0zm-.3.2zm.1 0zm-1.5-3.3zm1.6 2.5zm-1.5-2.8zm0-.1zm0 0zm.5 1zm-.2-.3zm.5.6h-.1.1zm-.5-.6zm-.4-1zm0 0zm-.1 0c.1 0 .1 0 0 0zm.1.1zm0 0zm-.2.2c-.1.1 0 0 0 0zm0 .1zm.3.5c-.1 0-.1 0 0 0z" style="fill:#6594d9"/><path style="fill:#6594d9" d="M56.9 36.7v-.1l-.1.1zm-.4.2h.1zm.4.8c.1 0 0 0 0 0zm.3.3c-.1.1-.1.1 0 0 0 .1 0 0 0 0zm.4 1.2z"/></g></svg>