<svg xmlns="http://www.w3.org/2000/svg" viewBox="0 0 131.2 142.8" style="enable-background:new 0 0 131.2 142.8" xml:space="preserve"><style>.st5{fill:#ef7937}.st6{fill:#f5a800}.st7{fill:none;stroke:#ef7937;stroke-width:.925;stroke-miterlimit:10}.st8{fill:#ee8e39}.st9{fill:#f5a800}.st10{fill:none;stroke:#ef7937;stroke-width:.8491;stroke-miterlimit:10}.st11{fill:#ee8e39}.st12{fill:#f5a800}.st13{fill:none;stroke:#d9413d;stroke-width:.8491;stroke-miterlimit:10}.st14{opacity:.37}.st15{clip-path:url(#SVGID_2_)}.st16{clip-path:url(#SVGID_4_)}.st17{clip-path:url(#SVGID_6_)}.st18{clip-path:url(#SVGID_8_)}.st19{clip-path:url(#SVGID_10_)}.st20{clip-path:url(#SVGID_12_)}.st21{clip-path:url(#SVGID_14_)}.st22{clip-path:url(#SVGID_16_)}.st23{clip-path:url(#SVGID_18_)}.st24{clip-path:url(#SVGID_20_)}.st25{fill:none;stroke:#ee8e39;stroke-width:.925;stroke-miterlimit:10}.st26{clip-path:url(#SVGID_22_)}.st27{clip-path:url(#SVGID_24_)}.st28{clip-path:url(#SVGID_26_)}.st29{clip-path:url(#SVGID_28_)}.st30{clip-path:url(#SVGID_30_)}.st31{fill:none;stroke:#d9413d;stroke-width:.925;stroke-miterlimit:10}.st32{clip-path:url(#SVGID_32_)}.st33{clip-path:url(#SVGID_34_)}.st34{clip-path:url(#SVGID_36_)}.st35{clip-path:url(#SVGID_38_)}.st36{clip-path:url(#SVGID_40_)}.st37{fill:#ee8e39}.st38{fill:#6594d9}.st39{fill:#ee8423}.st40{fill:#f18a50}.st41{fill:#019788}.st42{fill:#32867a}.st43{fill:#f67258}.st44{fill:#de5956}.st45{opacity:.5}.st48{fill:#21a497}.st49{fill:#f7846d}.st50{fill:#26a59a}.st51{opacity:.65;fill:none;stroke:#fff;stroke-width:.2;stroke-miterlimit:10}.st52{fill:#f8dd91}.st53{fill:none;stroke:#31458b;stroke-miterlimit:10}.st54{fill:#ef7937}.st55{fill:none;stroke:#f5a800;stroke-miterlimit:10}.st55,.st56,.st57{stroke-width:.2}.st56{fill:none;stroke:#4db6ac;stroke-miterlimit:10}.st57{stroke:#ff8a65}.st57,.st58,.st59,.st60,.st61{fill:none;stroke-miterlimit:10}.st58{opacity:.65;stroke:#fff;stroke-width:.5}.st59{stroke:#ef7937}.st60{stroke:#147467}.st61{stroke:#d9413d}.st62{fill:#ee8e39}.st63,.st64,.st65{fill:#f8dd91}</style><g id="Calque_1"><path d="M78 112.8s-34.8-.3-42.4 1.5 19.6 7.3 34 6.3 25-4.7 20.8-5.9c-4.3-1.3-8.7-1.6-12.4-1.9z" style="opacity:5.000000e-02"/><path d="M64.7 87.8c-.1.6-.2.6-.2 1.1V90c0 .6.3.6.3 1.1 0 .6-.2.6-.2 1.1 0 .6.1.6.1 1.1 0 .6-.2.6-.2 1.1 0 .6.1.6.1 1.1 0 .6-.1.6-.1 1.1v2.2c0 .6-.1.6-.1 1.1 0 .6.2.6.2 1.1 0 .6-.2.6-.2 1.1 0 .6.2.6.2 1.1 0 .6-.3.6-.3 1.1 0 .6.2.6.2 1.1v2.2c0 .6.1.6.1 1.1v1.1c0 .6-.1.6-.1 1.1v1.1c0 .5-.2.6-.2 1.1 0 .5.5 1 1 1 .6 0 .6-.2 1.3-.2h1.3c.6 0 .7-.6.2-.9-.6-.1-.6-.1-1.2-.1s-.6.1-1.2 0c-.3-.1-.2-1.3-.2-1.6 0-.6-.1-.6-.1-1.1 0-.6.2-.6.2-1.1 0-.6-.1-.6-.1-1.1v-2.2c0-.6.1-.6.1-1.1v-1.1c0-.6-.2-.6-.2-1.1 0-.6.3-.6.3-1.1 0-.6-.3-.6-.3-1.1 0-.6.2-.6.2-1.1 0-.6-.1-.6-.1-1.1 0-.6-.1-.6-.1-1.1 0-.6.1-.6.1-1.1 0-.6-.1-.6-.1-1.1 0-.6.2-.6.2-1.2v-1.1c0-.6-.2-.6-.2-1.2v-1.2c0-.6.1-.6.1-1.2v-2.4c0-.6.6-1.1 0-1.3-.5-.2-.4.6-.7 1 0 1 0 1.1-.1 1.6zm-3.7 0c.1.6-.2.6-.2 1.2s.1.6.1 1.1c0 .6-.2.6-.2 1.1 0 .6.1.6.1 1.1 0 .6.1.6.1 1.1 0 .6-.1.6-.1 1.1 0 .6.1.6.1 1.1 0 .6-.2.6-.2 1.1 0 .6.1.6.1 1.1 0 .6-.1.6-.1 1.1 0 .6.2.6.2 1.1 0 .6-.2.6-.2 1.1v3.3c0 .6.2.6.2 1.1 0 .6-.1.6-.1 1.1 0 .6.1.6.1 1.1 0 .6-.2.6-.2 1.1 0 .6.1.6.1 1.1v1.1c0 .6.1.6.1 1.1s-.2.6-.2 1.1c0 .5-.4.8-.9.8h-2.6c-.6 0-.7-.9-.2-1.1.6-.1.6 0 1.2 0s.6.1 1.2.1c.3-.1.1-1.2.1-1.5 0-.6.2-.6.2-1.1 0-.6-.1-.6-.1-1.1V106c0-.6.2-.6.2-1.1v-1.1c0-.6.1-.6.1-1.1 0-.6-.2-.6-.2-1.1 0-.6.2-.6.2-1.1 0-.6-.1-.6-.1-1.1 0-.6.2-.6.2-1.1v-2.2c0-.6-.1-.6-.1-1.1v-2.3c0-.6-.1-.6-.1-1.2v-1.2c0-.6.1-.6.1-1.2s.1-.6.1-1.2-.3-.6-.3-1.2-.4-1.1.1-1.2c.5-.2.2.6.5 1.1.4.7.6.6.7 1.2z" style="fill:#ef7937"/><path d="M66.5 94.7c-.5-.5-1.2-.8-2.4-.9-.9 0-1.8-.1-2.8.1-.9.2-1.8.7-2.6 1-1 .4-1.9.8-2.3 1.4-.5.7-.9 1.7-.8 2.7.1.8.2 1.8.4 2.7.2.9.4 1.8.5 2.6.2 1.2.4 2.2-.3 2.5-.5.1-1.6-.1-3 0-.9.1-1.9.1-3 .2h-3c-1 0-2 .3-3 .3s-2.1-.2-3-.2c-1.1 0-2.1.2-3 .2-1.4-.1-2.5-.2-3-.3-.3-.1-.7-1.2-.9-3-.1-.8 0-1.9-.1-3.1-.1-.9-.1-1.9-.1-3.1-.1-.9-.5-1.9-.6-3 0-1-.2-2-.2-3.1 0-.7.1-1.6.2-2.7 0-.8.4-1.8.4-2.7 0-.9-.1-1.8-.1-2.7 0-1-.1-1.9-.1-2.7 0-1-.1-2-.1-3s-.2-2-.2-3v-3c0-.8-.1-1.8-.2-2.8 0-.9.3-1.8.2-2.8 0-.9-.3-1.8-.4-2.8 0-.9-.1-1.9-.2-2.8 0-1 .1-1.9.1-2.8 0-1-.3-1.9-.3-2.8 0-.9.4-1.8.4-2.8 0-.9-.1-1.9-.1-2.8v-2.8c0-.9.3-1.9.4-2.8.1-1-.4-2-.2-2.9.2-1 .4-1.9.7-2.7.3-.9 1-1.6 1.5-2.4.5-.8 1-1.7 1.7-2.4s1.6-1.1 2.4-1.7c.8-.5 1.5-1.3 2.4-1.7.9-.4 1.8-.7 2.8-1 .9-.3 2-.1 3-.3.9-.2 1.8-.8 2.8-1 .9-.1 2 .2 3 .1s1.9-.3 2.9-.3 1.9-.1 2.9-.1 1.9-.2 3-.2c1 0 2 0 3 .1 1 .2 1.9.5 2.8.8 1 .2 1.9.6 2.7.8 1 .3 2 .2 2.9.5.9.3 1.9.6 2.7 1 .9.4 1.6 1.2 2.4 1.7.8.5 1.8.7 2.6 1.3.7.5 1.3 1.1 2 1.7.7.6 1.5 1 2.1 1.6.6.6.8 1.6 1.3 2.3.5.7 1 1.4 1.4 2.2.4.7.7 1.5.9 2.4.2.8.6 1.6.7 2.5.1.9.4 1.7.4 2.6 0 .9-.6 1.8-.5 2.7 0 .9.5 1.8.5 2.6-.1 1.1-.3 2.1-.5 3-.2 1-.6 2-.9 2.9-.4 1-1.2 1.7-1.7 2.5-.5.9-.6 2.1-1.2 2.8-.7.8-1.8 1.1-2.5 1.7-.8.7-1.6 1.3-2.4 1.8-.9.6-1.6 1.3-2.4 1.8-1 .6-2 .8-2.7 1.3-1 .7-1.3 1.6-1.3 2.5 0 .5.4 1.9.8 3.4.3 1.2.7 2.3 1.2 3.3.5.8.7 1.8 1.3 2.7l1.8 2.4c.6.7 1.5 1.3 2.1 2.1.6.8.9 1.8 1.5 2.6s1.1 1.6 1.6 2.5c.5.9 1.3 1.6 1.8 2.4.5.9 1.2 1.7 1.6 2.5.5.9.7 1.9 1.1 2.8.5 1 .5 2.1.7 2.9.4 1.5.6 2.2.2 2.5-.5.4-1.3 1.1-2.4 1.3-.8.1-1.8.2-2.8.3h-2.8c-.9 0-1.9-.5-2.8-.6-1-.1-1.9-.2-2.8-.3-1.1-.1-2.1-.1-2.8-.2-.8-.1-1.5-.9-2.2-1.9-.5-.7-1-1.6-1.4-2.6L69 99.8c-.4-1-.7-2-1-2.8-.2-1.3-1.1-2-1.5-2.3z" style="fill:#f5a800"/><path d="M79.5 47.1s-4.8-5-11.1-1.4c-6.4 3.6-5.6 13.1.8 15.1 6.4 2 10.5-.6 11.5-3.4 1-2.7 1.6-7.7-1.2-10.3z" style="fill:#fff"/><circle cx="71.8" cy="57.4" r="2.8"/><path d="M71.9 70.1c-.3 0-.6 0-.9-.2-1.9-.8-1.8-3-1.8-3.1l1 .1c0 .1-.1 1.6 1.2 2.1 1.1.5 3.3-1 4-1.5l.6.8c-.3.2-2.3 1.8-4.1 1.8zm26.6 5.1c-.2-.5-.2-.5-.5-.9-.3.2-.7.3-1.1.4-.4.1-.7.2-1.1.3-.4.1-.9.2-1.2.1.2-.2.4-.5.6-.7l.6-.6.6-.6c.3-.4.4-.5.5-.6-.3-.4-.3-.4-.7-.7 0 0-.3.2-.7.7-.2.2-.4.5-.7.8-.2.2-.5.5-.8.7-.1-.3 0-.6 0-.9v-1c.1-.4.2-.8.2-1-.4-.3-.5-.2-1-.3 0 0-.1.5-.2 1.1-.1.3-.1.6-.1 1 0 .3-.1.7 0 1 0 .3.1.7.2 1-.2.2-.5.4-.7.6-.2.2-.4.5-.6.8-.2.2-.5.4-.7.6-.2.2-.5.4-.7.6-.2.2-.4.5-.7.7-.2.2-.5.4-.8.6-.3.2-.5.5-.7.6-.3.2-.6.4-.8.5-.3.2-.5.4-.8.6-.3.2-.6.2-.9.4-.3.1-.6.3-.9.3l-.9.3c-.3.1-.6.2-.9.2-.3.1-.6 0-1 0-.3 0-.6.2-.9.2-.3 0-.6.1-.9.1h-2.8c-.6 0-.9-.2-.9-.2-.1.5-.1.5-.1 1h1c.3 0 .6.1 1 .1h1c.3 0 .6-.1 1-.1.3 0 .7.1 1 .1.3 0 .7-.1 1-.1.3 0 .7-.1 1-.1.3-.1.7-.2 1-.2.3-.1.7-.1 1-.2.3-.1.6-.3.9-.5.3-.1.7-.1 1-.3.3-.2.4-.5.7-.7.3-.2.6-.2.9-.4.3-.2.5-.4.7-.7.2-.2.5-.4.8-.6.2-.2.5-.4.7-.6.2-.2.5-.4.7-.7.2-.2.4-.6.6-.8.2-.2.5-.4.7-.6.2-.2.5-.4.7-.6.3.2.7.3 1.2.3.3 0 .6-.1.9-.2.3-.1.6-.2.8-.3.3-.1.6-.3.8-.4.5.1.9 0 1-.1zm-56.3 3.1c-.1.3 0 .6-.1 1 0 .3-.1.6-.1 1 0 .3 0 .6-.1 1 0 .3-.2.6-.2 1 0 .3.1.7.1 1 0 .3-.2.7-.2 1 0 .3.1.7.1 1v1c0 .3-.1.7 0 1-.3.1-.5.3-.8.5-.2.2-.4.5-.6.7-.2.3-.3.5-.5.8-.2.3-.4.5-.5.8-.2.4-.2.8-.2.9.5.2.5.3 1 .3.1-.3.2-.6.3-.8.1-.3.1-.6.2-.8.1-.3.4-.5.6-.7.2-.3.4-.5.6-.6v.9c0 .3.1.6.1.9v.9c0 .5.1.7.1.8.5 0 .5 0 1-.1v-1c0-.3-.1-.7-.1-1.1 0-.3-.1-.8-.1-1.1.3.2.5.5.7.8l.7.7c.2.3.5.6.6.8.5-.1.5-.2.9-.4 0 0-.2-.5-.6-.9-.2-.2-.4-.6-.6-.8-.2-.2-.6-.4-.8-.6-.3-.2-.5-.5-.8-.6 0-.3-.1-.6-.1-.9v-3c0-.3-.1-.7 0-1 0-.3.2-.6.2-1 0-.3-.1-.7-.1-1 0-.3.1-.7.1-1 0-.3.2-.6.3-.9.1-.3.1-.6.2-.9.1-.3.3-.6.4-.9.1-.3.3-.6.4-.8.2-.3.3-.6.5-.8.2-.3.4-.5.6-.8.2-.3.4-.5.6-.7.2-.2.4-.5.6-.7.2-.2.4-.5.7-.7.2-.2.5-.4.8-.6.3-.2.5-.5.7-.7l.6-.6c-.3-.4-.3-.4-.7-.7 0 0-.3.2-.7.6-.2.2-.4.5-.7.7-.2.2-.4.5-.6.8-.2.2-.6.3-.8.6-.2.2-.3.6-.5.9-.2.3-.5.5-.7.7-.2.3-.3.6-.5.9-.2.3-.4.5-.6.8-.2.3-.2.6-.4.9-.1.3-.4.6-.5.9-.3-.1-.4.3-.5.6z" style="fill:#ef7937"/><g style="opacity:.65"><path d="M88.2 100.9s0-.1 0 0zm-.3.1c0 .1 0 .2.1.2 0-.1 0-.1-.1-.2h.2s.1 0 0-.1c-.1 0-.2 0-.2.1zm-.9 5.4c0-.1 0-.1 0 0zm-.4-1.5zm-.2-.6zm.6 2.1c0 .1-.1 0 0 0zm.7-4.6c0-.1 0-.1 0 0zm-.9 3zm.1-1.1s.1 0 .1.1l-.1-.1zm.4-1.8zm-.5 3.8zm-15.6-4.1zm-1-.7zm15.6 2.4c.1 0 0 0 0 0zm-5.7 3.2c-.1.1-.1-.2-.2 0 0 0 .2.1.2 0zm7.6-4.7zm-7.8 4.7zm3.5-4.3zm1.8.8c0-.1 0-.1 0 0zm-2.8-.5s-.1 0 0 0c-.1 0-.1 0 0 0-.1 0 0 0 0 0zm-1 .5h.1v-.1zm-9.4 1.1s0-.2 0 0zm15.7-2.4s0 .1 0 0zm-5.1 1.4h-.1.1zm-6.5-1.1zm6 1.3c-.1 0-.1 0 0 0-.1 0-.1 0 0 0zm-10 .8z" style="fill:#fff"/><path d="M71.8 103.1c0 .1.1 0 .2.1.1.2-.1.1-.1.2s.2.2.2.2c.1.1 0 .3.1.5h.2c0 .1.1.1 0 .1l-.1-.1v.1c-.1.1 0-.1-.1-.1 0 .1.1.3.1.4-.1 0 0-.2-.1-.1v-.2c-.2.1 0-.1-.2 0 0 .2.1.2 0 .4h.1c.1.3-.3.2-.1.4.1.1.2.1.1.2l-.1-.1v.1l.7.1c0-.1-.1-.1 0-.2v.1c.1-.1 0-.1 0-.2h.1c0-.2 0-.4.1-.7 0 0 0 .1.1 0 .1-.3.3-.6.5-.8v-.1h.1c.1-.1 0 0 0-.1s.1 0 .1 0c0-.2.2-.5.4-.6.1-.1 0-.3.2-.3.3-.2.6-.5.8-.5 0-.1.3-.1.3-.2.2 0 .2 0 .4.1.1 0 .1-.1.2-.2v.1l.1-.1.1.1h.1s-.1 0-.1-.1c.1 0 .3.1.3.1.1 0 .2-.1.3-.1 0 0-.1 0-.1.1.2-.1 0 .1.2 0v-.1c.1.1.2.1.3.1.1.1.2.1.3.1.1.1.2.1.3.2 0-.1 0-.2.1-.1v.1c.1 0 0-.1.1-.1.1.1 0 .1-.1.1h.1-.1c.1 0 .1.2.2.2l.4.4c.1 0 .1 0 .2.1.1.2.1.3.2.5.1.1.1 0 .2 0-.1 0 0 .2-.1.1.1.2.1.3.3.5v-.1.1c.2.3 0 .8.3 1l.2.2c0 .1-.1-.1-.1 0 .2.3.1.5.2.7-.1.2 0 .5 0 .8h.8s0-.1.1-.1h-.1c0-.1 0-.1.1-.1 0 0-.1.1-.1 0 0-.6.2-1.1.4-1.6.1-.2-.2-.2 0-.4l.1.1c0-.4.3-.7.5-1.1v.1c.1 0 .2-.2.1-.3h.1c.1 0 .1-.2.1-.2 0-.1.2-.1.1-.2.1-.1.2-.2.3-.2 0-.1.2-.1.2-.2.1.1.3 0 .3-.1 0 0 .1 0 .1.1.1 0 .2-.1.1-.1.2.1.4-.2.5 0 .2 0 .3-.1.4-.1h.4c0 .1-.3 0-.3.1.2 0 .4-.1.7.1.1 0-.1 0-.1.1.3 0 .4.3.6.3h-.1s.1.1.1 0 .3 0 .3 0c-.2.1.1.2-.1.3h.1s0 .1-.1.1c.1.1.1 0 .2.1h-.1c.1 0 .2 0 .3.2h-.1c.1.2.4.2.4.5-.1 0 0 .1-.1.2l.1.1v-.1c.1.1.2.2.2.3l-.1-.1.1.2v-.1c.1.1.1-.1.2.1 0 0 .1.1 0 .2.1 0 .1.1.1.2 0 0-.1 0-.1.1.1 0 .1.3.2.3h-.1.1c0 .1 0 .1-.1.1 0 .2.1-.1.1.1s.2.4.2.6c-.1.1-.1-.1-.1-.1.1.2.3.5.3.8.1 0 .1 0 .1.1h.2c0-.1.1-.2 0-.2h.1c0-.2-.1-.4-.1-.6v-.4s0-.1-.1-.1c.2-.4-.1-.7 0-1v.1-.3c-.1 0 0 0-.1.1 0 0-.1-.1-.1-.2 0 .1.1 0 .2-.1h-.1c.1-.1-.1 0-.1-.2 0-.1-.1-.1 0-.2.1 0 0 .1.1.1 0-.1-.1-.2-.1-.3v.2c.1-.1.1-.1.1-.2l.1-.2c-.2-.1 0-.3-.1-.5.1.2.1 0 .2.1l.1-.1c-.1-.1.1-.1 0-.3 0 0 0-.1.1-.1 0-.1-.1 0-.1 0-.1-.2.2-.4.1-.6 0-.2-.1-.3-.1-.5.1-.1.1.1.1.1.1-.1.1-.2.1-.3h.1c0-.1-.1-.1 0-.2l.1.1v-.3c.1 0 0 .1.1.1 0-.1.1-.2 0-.3H88s.1 0 .1.1-.1.1-.1.1v-.1c-.2 0-.1.3-.2.4l-.1-.1v.2s-.1 0-.1-.1c-.1.1 0 .1-.1.2v.1s-.1 0-.1-.1c-.1.2 0 .3-.1.4 0 .3.1 0 .2.3l-.2.1h.1s0 .1-.1.1c0 .1 0 0 .1.1-.1.1 0 .3-.2.4.1.1.1-.1.1 0-.2 0 0 .2-.1.3-.1 0 0-.1-.1 0 .1.1 0 .2 0 .3.1 0 0 .2.1.4 0 0-.1.3-.1.5.1 0 .1.2.1.3-.1 0-.1 0-.1-.1v.1l.1.1h-.1c0 .1.1.3 0 .5.1 0 .2-.1.3 0h-.1v.1l-.1-.1c0 .1.1 0 .1.1-.1 0 0 .1-.1 0v-.1c0 .1 0 .2-.1.2 0 0 .1 0 .1.1s-.1.1-.1.1 0 .1.1.1c0 0 0 .1-.1.1 0 .1 0 .3.1.3.1.2 0 .5 0 .7 0 .1 0 .2.1.3h.2c0-.1 0-.1-.1-.1 0 0 0-.1.1-.1 0-.1-.1-.1-.1-.3l.1.1c0-.1 0-.2-.1-.3.1 0 .1-.1 0-.2v.1c0-.1 0-.1-.1-.2h.1c0-.3-.4-.4-.2-.7-.1 0 0 .2-.1.1v-.4c0-.2-.2-.1-.2-.3 0 0-.1.1-.2 0 0-.1.1-.2.1-.1v.1s.1.1.1 0-.1-.2 0-.2c-.1-.1-.1 0-.1.1 0-.2-.1-.2-.2-.4v.1c-.1-.3-.1-.1-.2-.2 0-.1.1 0 0-.2 0-.1.1-.1.1-.1-.2-.1-.1-.3-.2-.4l.1.1-.1-.1v.1s-.1-.1 0-.1c-.1 0-.1.1-.2.1 0-.1-.2-.1-.1-.2.1.2.1-.1.2.1l-.1-.1c-.1-.2-.1 0-.3-.2.1 0 0-.1 0-.1.1.1 0 .1-.1.1-.1-.1-.1-.1-.2-.1v.1c-.1 0-.1 0-.2-.1h.1c-.1 0-.1-.2-.3-.3v-.1c-.2 0-.1-.1-.3-.2 0 .1 0 .1-.1.1l.3.1h-.2c.1 0 .2 0 .2.1-.1 0-.1 0-.1.1-.1-.1-.2 0-.3-.2l.1-.2c-.2-.1-.4 0-.7-.1h.1c0 .1-.2 0-.3 0 0-.1 0-.1-.1-.1 0 0-.2 0-.2.1l-.1-.1c-.2 0-.2.2-.4.2 0-.1-.1-.1.1-.2-.1 0-.1 0-.1.1-.1 0-.2.1-.2.1s0 .1-.1.1c0 0-.1.1 0 .1-.3-.1-.5.3-.8.3-.1.1-.2.3-.3.3-.2.1 0 .2-.1.3-.1 0 0-.1 0-.1-.2-.1-.2.2-.3.3-.1.1-.1.3-.2.4 0 .2-.1.4-.1.5 0-.1 0-.1-.1-.1 0 .1.1 0 .1.2-.1 0-.1.1-.2.1l.1-.1c-.1 0-.1.2-.1.2-.1.2.1.3 0 .5.1.2-.1.1 0 .2h-.1v.5c-.1-.1-.1-.3-.1-.4 0 .1-.1.3 0 .3v-.1c.1.1.1.3.1.4-.2-.1-.1.4-.3.5v.4h.6v-.6c-.2.2 0-.1-.2 0v-.1l.1-.3c0-.1.1.1.1.1 0-.2.1-.1.1-.2-.1 0-.1 0-.1-.1l-.1.2c-.2-.2.1-.2-.1-.5l.1.1c-.1-.1-.1-.5-.3-.5 0 0 .1-.1.1 0-.1-.3-.4-.6-.4-.9l-.1-.1s.1 0 0 0c0 0-.1-.1-.1-.2h.1c-.1-.3-.3-.4-.5-.6.1-.1 0-.3 0-.4-.2-.3-.4-.5-.7-.7 0-.3-.5-.5-.8-.8l-.1.1c-.1-.1-.2 0-.2-.1s-.2-.1-.3-.2l-.1.2c-.1-.2-.4-.1-.6-.1-.2 0-.4.1-.5 0-.1.1-.2.1-.2.1v-.1c-.2 0-.3.1-.6.2v-.1c-.2 0-.1.3-.2.4l-.1-.1c-.2.1-.5.2-.7.5v-.1c-.1.1-.4.3-.3.4-.1-.1-.2.2-.3.3v-.1c0 .2 0 .2-.1.3 0 0-.1 0 0 0-.1.1 0 .1-.1.2v-.1c-.1.1 0 .1 0 .2s-.2.2-.2.2v.2-.1c-.2.2-.1.3-.2.4h-.1c.1-.2.1-.3.1-.3-.1 0-.1.1-.2-.1 0 .1 0 .4-.1.5v.1s0 .1-.1.1-.1.1-.1.2c.1 0 0 .1.1 0v-.1s0-.1.1-.2v.2c0 .1.1.1.1.1-.1.1-.3.2-.3.2v.3l.6.1c0-.2 0-.3-.1-.4 0-.1 0-.1.1-.1v.1c0-.1 0-.4-.1-.4 0-.2.1.1.1-.1.2-.4-.3-.7-.1-1.1v.1c0-.6-.3-1.1-.3-1.6 0-.2-.1-.1-.2-.2l.1-.1-.2-.1c-.1-.1-.1-.2-.2-.3 0-.1-.1-.2-.3-.3v.1c-.1-.1-.3-.1-.3-.2 0 0-.1.1-.1 0h-.3c-.2-.1.1-.2-.3-.2-.1 0-.3.2-.3.2s.1 0 .1.1h-.1c0 .1 0 .3.2.4l.1-.1v.1h-.1c.1.1.1 0 .1 0v.1l.1-.1c0 .1-.1.1 0 .1s0-.1.1-.1c0 .1 0 .1.1.1l-.1.1c.1 0 .1.1.2 0 0 .1.2.1.1.2h.2c-.2 0 .1.2 0 .3.2 0 .2.2.3.3v.2c.1 0 .2.1.3.2-.1.1-.2 0-.2 0 .1 0 .1.2.2.1-.1.1 0 .1-.1.1.1 0 0 .1.1.1 0 .1-.1.1-.1.2-.6.1-.6 0-.6 0zm1 1.4c0 .1 0 .1 0 0 0 .1 0 .1 0 0zm.1-.2s0 .1-.1.1c.1 0 0 0 .1-.1 0 .1 0 0 0 0zm-.7.3c0 .1 0 .1 0 0zm0 .2zm14.8 1.5zm-11.2-4.2zm11.4 2.6zm.1-.7c0-.1 0 0 0 0zm0-.5zm-2.4-.1c-.1 0 0 0 0 0zm1.5 1.9s0-.1 0 0zm-3.8-2.2zm3.7 2v.1-.1zm1.6-3.7c0-.1 0-.1 0 0zm0-.1zm.1 0z" style="fill:#fff"/><path d="M87.6 101.9c.1.1 0 .1 0 0z" style="fill:#fff"/><path d="M87.6 102.1s.1-.1.1-.2c0 .1-.2.2-.1.2zm-.6.8v-.2s-.1.1-.1 0c0 .3.2 0 .1.2zm-.1.6c0-.1 0 0 0 0 0 .1 0 .1 0 0zm.4 3.5c0-.1 0 0 0 0zm-.6-.7v.1h.1zm.4-.6-.1-.1zm-5.5-2.9c.1 0 0-.1 0 0zm-1.6 2.6c-.1 0-.1.1-.1.2 0-.1.1-.2.1-.2zm-3.5-4.1c.1 0 0 0 0 0z" style="fill:#fff"/></g><g style="opacity:.65"><path d="M55.6 105.6zm0-.4c-.1 0-.2-.1-.2 0h.2c0 .1 0 .2-.1.2 0 0 0 .1.1.1.1-.1 0-.2 0-.3zm-3-4zm-3.1.8c0-.1 0-.1 0 0 0-.1 0 0 0 0zm-.4.3zm3.5-1.1c-.1 0 0 0 0 0zm2.5 3.4c.1.1.1.1 0 0zm-1.2-2.7zm.7.8h-.1.1c0 .1 0 0 0 0zm.8 1.6zm-2.2-2.9c.1 0 .1 0 0 0zm-17.8 2.1zm-.7 1zm13.7-1.3c.1 0 0 0 0 0zm-2.8-2.2c.1.1-.2 0-.1.2 0 0 .2-.1.1-.2zm9.5 3.6zm-9.6-3.4zm2.4 4.3c.1 0 .1 0 0 0 .1 0 .1 0 0 0zm.5-1.7c0 .1 0 .1 0 0zm.1 2.5c0-.1 0 0 0 0zm-.2-.9zm-11-3.3c0-.1 0-.1 0 0 0 0-.1 0 0 0zm17.9 2.5zm-7.4 1.8v-.1.1zm-6.6-1.3c0 .1 0 .1 0 0zm6.5.8c0-.1 0-.1 0 0v-.1.1zM37.2 102z" style="fill:#fff"/><path d="M36.5 102.5c.1-.1 0-.1 0-.2.1-.1.1 0 .2.1.1-.1.1-.2.2-.2.1-.1.3-.1.4-.2l-.1-.1c.1 0 .1-.1.1 0v.1h.1c.1.1-.1 0-.1.1.1 0 .2-.2.3-.1 0 .1-.2.1-.1.1h-.1c.1.1-.1 0 0 .2.2 0 .2-.1.3-.1v-.1c.3-.1.2.2.3.2.1-.1.1-.2.2-.1l-.1.1c.1.1.2-.1.3 0h-.1c.1.1.1 0 .2 0v.1c.2.1.4.1.5.3 0 0-.1 0-.1.1.2.1.4.4.4.7h.1s0 .1 0 0c0 .1.1 0 .1 0v.1c.2.1.4.4.4.6.1.2.3.1.3.4.1.3.2.5.3.8.1.3.2.6.2 1.2 0-.2.1 0 .1.2s.1.4.1-.1c0 .3.1.5.1.6 0 .1.1.1.1-.3v-1.1l.1.3v-.6c0 .1.1.1.1.1v-.3c0 .1-.1.1-.1 0 0-.3.1-.5.2-.5l.1-.6v.2c0-.4.1 0 .1-.3h-.1c.1 0 .1-.2.2-.3l.3-.6c-.1.1-.2 0-.1-.1h.1c0-.1-.1 0-.1-.1.1-.1.1 0 .1.1v-.1l.1.1c0-.1.2-.1.1-.2.2-.2.2-.3.3-.4-.1-.1 0-.1 0-.2.1-.1.3-.1.4-.2.1-.1 0-.1 0-.2 0 .1.2 0 .1.1.2-.1.2-.1.4-.3 0 0-.1 0-.1-.1h.1c.1-.1.3-.1.5-.1s.3.1.4 0c.1 0 .1 0 .2-.1.1 0-.1 0 0 .1.3-.1.3.1.6.1 0 .3.5.3.5.5.1 0 0 .1 0 .1v-.1c.4.3.6.8.8 1.3.1.2.3 0 .3.2h-.1c.3.3.3.7.5 1H47c0 .1.1.3.2.3 0 .1 0 0-.1.1 0 .1.2.2.1.2l.1.2c0 .1.1.3.1.4.1 0 0 .2.2.2-.1 0 0 .3 0 .3s0 .1-.1.1v.1l.8-.1c0-.1 0-.1-.1-.1.2-.2-.1-.4.1-.5-.1-.3-.1-.6-.1-.9.1 0 0 .3.1.3 0-.3-.1-.4 0-.7 0-.1 0 0 .1.1 0-.3.1-.5.1-.7v.1s.1-.1 0-.1-.1-.2-.2-.3c.1.1.1-.2.3 0 0 0 0-.1-.1-.1h.1c0-.2-.1-.1 0-.3l.1.1v-.3c.1-.2 0-.4.2-.6.1.1.1 0 .2 0v-.1H49c.1-.1.1-.2.2-.2v.1l.1-.2-.1.1c0-.1-.1-.1 0-.2 0 0 .1-.1.2-.1 0-.1 0-.1.1-.2l.1.1c0-.1.2-.2.2-.3v.1-.1h.1c.1-.1-.1-.1.1-.1.2-.1.3-.2.5-.2.1.1-.1.1 0 .1.2-.1.4-.2.7-.2 0-.2.2.1.3 0v.1c.1.1.3 0 .6 0 .1.1.2.1.3.1 0 0 .1 0 .1-.1.1.2.2.2.4.3.1.1.3.1.3.3h-.1c.1 0 .1.1.2.1v-.1s.1 0 .2.1c-.1 0-.1.1-.1.1 0 .2.1-.1.2.1.1 0 .1.1.2.1 0 .1-.1 0-.1 0 .1.1.2.1.2.2l-.1-.1c0 .1 0 .1.1.2 0 .1 0 .1.1.2.2 0 .2.2.4.2-.2-.1-.1 0-.2.1v.1c.1 0 0 .1.2.2v.1c.1.1 0 0 .1-.1.2.1.1.4.3.5.1.1.2.1.4.3 0 .1-.1 0-.1 0 0 .1 0 .2.1.2l-.1.1c0 .1.1 0 .1.1h-.1l.2.2h-.1c.1.1.1.2.2.2v-.1h-.1c-.1-.1 0-.1 0-.1v.1c.1-.1-.1-.2-.2-.4h.1l-.1-.1s.1-.1.1 0c0-.1-.1-.1 0-.2l-.1-.1s.1-.1.1 0c0-.2-.2-.2-.1-.3-.1-.2-.1 0-.3-.1l.1-.2h-.1v-.1h-.1c0-.1-.2-.3-.1-.4-.1 0 0 .1-.1 0 .1-.1-.1-.1-.1-.2.1 0 .1.1.1 0-.2 0-.1-.2-.2-.2-.1.1-.1-.1-.3-.2 0 0-.1-.3-.2-.4-.1.1-.2-.1-.3-.1 0 0 .1-.1.1 0l-.1-.1h-.1.1c-.1-.1-.3-.1-.4-.3-.1.1 0 .3-.2.2l.1-.1h-.1.1c0-.1-.1 0-.1 0v-.1s0 .1.1 0c0-.1-.1-.1-.1-.2 0 0 0 .1-.1.1-.1-.1 0-.1-.1-.2 0 0-.1-.1-.1 0v-.1c-.1 0-.3-.1-.3 0-.1 0-.2 0-.3-.1-.1 0-.2-.1-.4-.1-.1 0-.3 0-.4.1 0 0-.1 0-.1-.1-.1 0-.1.1-.3 0l.1-.1c-.1 0-.2 0-.3.1 0-.1-.1-.1-.2 0h.1c-.1 0-.1 0-.2.1v-.1c-.3 0-.4.4-.7.3 0 .1.2 0 .1.1h-.3c-.2.1 0 .2-.2.3 0 0 .1.1 0 .2s-.2 0-.2-.1v-.1c-.1 0-.2.2-.2.1 0 .1 0 .1.1 0-.2.1-.2.2-.3.3h.1c-.2.2 0 .1-.1.3-.1.1-.1-.1-.1.1-.1.1-.1 0-.1-.1 0 .2-.2.2-.2.3v-.1.1h.1l-.1.1c0 .1.1 0 .1.1-.1 0 0 .2-.1.2.1-.2-.1 0 0-.2v.1c-.2.2.1.1 0 .3h-.1c0-.1.1 0 .1.1-.1.1 0 .1 0 .2v-.1.2-.1c.1.1-.2.2-.1.3-.1.1-.1 0-.1 0 0 .2-.1.1-.1.3.1 0 .1 0 .1.1v-.3l.1.2v-.2c0 .1 0 .1.1.1-.1.1 0 .2-.1.3h-.2c-.1.2 0 .3 0 .6v-.1c.1 0 0 .2 0 .2-.1 0-.1 0-.1.1 0 0 0 .2.1.2l-.1.1c0 .2.2.2.1.4-.1-.1-.1 0-.2-.1v.2l.5-.1v-.1s-.1 0-.1-.1c0 0-.1-.1-.1 0 .1-.2-.1-.5 0-.7-.1-.1-.1-.3-.2-.4 0-.2-.2 0-.2-.2.1-.1.1.1.1 0 .2-.1-.1-.2 0-.4 0-.1-.2-.2-.2-.4-.1-.1-.2-.2-.3-.4h.1c0-.1-.1.1-.2 0 0-.1 0-.2.1-.2l.1.1c.1-.1-.1-.2-.1-.2-.1-.2-.2-.1-.3-.3-.2 0 0-.1-.1-.2l.1-.1-.3-.3c.1 0 .2.1.3.2 0-.1-.2-.2-.2-.2s.1 0 .1.1c-.1 0-.2-.1-.3-.2.2-.1-.2-.4-.2-.6l-.3-.3c-.1-.1-.2-.2-.4-.3 0 .2-.1-.1-.2.1h-.1l-.2-.2c0-.1.1 0 .1 0-.2-.1 0-.1-.2-.2 0 .1-.1.1-.2 0l.1.1c-.3 0-.2-.2-.5-.1h.1-.3c-.1 0-.2.1-.3.2 0 0-.1-.1 0-.1-.3 0-.6.3-.9.3l-.1.1s0-.1 0 0c0 0-.1.1-.2.1v-.1c-.3.1-.3.3-.5.5-.1-.1-.3 0-.4.1-.3.2-.4.5-.5.8-.2.1-.4.5-.6.8l.1.1c-.1.1 0 .2-.1.2s-.2.2-.2.2l.1.1c-.1 0-.1 0-.1.1s0 .2-.1 0v.3-.4.6-.3c0-.1 0-.3-.1-.2v-.1s0-.1-.1 0c.1 0-.1-.2-.2-.3h.1c-.1 0-.2 0-.3-.2 0 0 0-.1 0 0 0-.1-.1 0-.1-.2h.1c.3.2.2.2.2.2-.1 0-.1-.2-.1-.3 0 0-.1 0-.2-.1h.1c-.1-.2-.3-.2-.3-.3v-.1l.2.2c.1 0 0-.2.1-.1-.1-.1-.3-.1-.4-.2l-.1-.1s0-.1-.1-.1c0-.1-.1-.1-.2-.2 0 .1-.1 0-.1.1h.1l.1.1c-.1 0-.1 0-.2-.1h-.2c0-.2-.1-.3-.1-.4-.2-.1-.5-.2-.7-.1-.1 0-.1-.1-.1-.1h.1c-.1 0-.4 0-.4.1-.2-.1.1-.1-.1-.1-.2-.1-.4 0-.5.1-.1.1-.3.2-.5.2h.1c-.5.1-.9.6-1.3.8-.1.1-.1.1-.1.2H35v.2c0 .2-.4.2-.4.5h.1c-.1.1-.1.3-.1.3v.3c-.1.2-.2-.1-.2.2 0 .1.1.3.2.3 0 0 0-.1.1-.1v.1c.1 0 .3.1.4-.1 0 0 0-.1-.1-.1h.1v.1c.1-.1 0-.1 0-.1h.1s-.1-.1-.1-.2c.1 0 .1.1.1 0s-.1 0-.1-.1c.1 0 .1 0 .1-.1 0 0 .1 0 .1.1v-.2c.1 0 .1-.2.2-.1v-.2c.1.2.1-.2.3-.1-.1-.1.1-.3.2-.4h.2c-.1-.1 0-.2 0-.3.2 0 0 .1.1.2-.1-.1.1-.2 0-.2h.2c-.1-.1 0-.1.1-.2.1 0 .1.1.2 0-.2.1-.3.2-.3.2zm2.6 0s-.1 0 0 0c-.1 0-.1 0 0 0zm.1.2s0-.1 0 0c-.1-.1 0-.1 0-.1v.1zm0-.8c.1 0 .1 0 0 0 .1 0 0 0 0 0zm-.1 0zm13.5-.7zm-11.5 4.9v-.1.1zm12.6-3.8zm.4.4c0 .1 0 .1 0 0zm.3.5zm-5.5.8z" style="fill:#fff"/><path d="M49.9 102s0 .1 0 0c0 .1.1 0 0 0zm-2.1 4.4zm2-4.3c.1 0 .1 0 0 0 .1 0 0 0 0 0zm5.5 2.9c0 .1 0 .1 0 0zm0 .1zm.1 0c-.1 0-.1 0 0 0zm-.3-.7zm-.1-.1v.2c0-.1.1-.2 0-.2zm-.1-.9.1.2s0-.1.1 0c0-.4-.1-.1-.2-.2zm-.2-.5c.1 0 0-.1 0 0 0-.1 0-.1 0 0zm-3.3-1.9c-.1 0 0 0 0 0zm-.6.6h.1v-.1zm-.6-.3v-.1l-.1.1zm-1.8 4.2c-.1.1 0 .1 0 0zm-1.1-2.5v-.2c-.1.1-.1.2 0 .2zm-6.5.7h-.1l.1.1z" style="fill:#fff"/></g><g style="opacity:.65"><path d="M65.1 63.8c0-.1.2-.2.1-.2l-.1.2zm.2-.5c-.1.1-.3.4-.4.6.2-.3.1-.2.3-.5 0 0 0 .1-.1.2 0-.1 0 .1.1-.1s.1-.2 0-.1c.1 0 .1-.1.1-.1zm-.4-.9zm-.3-.4s0-.1 0 0c0-.1 0-.1 0 0zm.1-.4s.1 0 0 0zm.2.8zm-.1 1.5s0-.1 0 0c.1-.1.1-.1 0 0 0-.1 0 0 0 0zm.5-1.6s0-.1.1-.1l-.1.1zm.1 0s-.1.2-.2.3c.1-.1.1-.1.1-.2.1.1.1 0 .1-.1zm0 .6zm-.2-.7c0-.1 0-.1 0 0 0-.1 0-.1 0 0zm-5.1-.7c0-.1 0-.1 0 0 0-.1 0 0 0 0zm.6-1.3c0-.1.1-.1.1-.1l-.1.1zm4.1 1zm-1.3-.5c-.1.2-.2.3-.3.5 0-.1.2-.4.3-.5zm1.3 3.1zm-1.6-2.6zm1.2 0s0 .1-.1.1c.1 0 .1-.1.1-.1zm0 .5zm-.3-.3zm-.1 0c-.1 0-.1 0 0 0-.1 0-.1 0 0 0zm-3.4.2c0-.1.1-.1.1-.2-.1.1-.2.2-.1.2z" style="fill:#fff"/><path d="M64.9 63.7c0 .1-.1.1-.1.1l.1-.1c0 .1 0 .1 0 0zm-2-.4zm-1.5-1.2zm1.4 1.2c0-.1.1-.1.1-.2v.1l-.1.1zm-2.1-1.9z" style="fill:#fff"/><path d="M60.2 61.8s.2-.3.3-.5c.1 0-.1.3-.3.5.2-.2.3-.4.3-.4 0 .1 0 .1-.1.1.2-.2.1 0 .3-.3v.1c.1-.2.2-.3.3-.4 0 0 .1-.2 0 0l-.1.1.1-.1c-.2.3-.1.1-.2.3.1-.1.2-.3.2-.2-.2.3-.1.1-.2.3v-.1l-.3.5c0 .1.1-.1.1 0 .1-.2.1-.2.3-.4.2-.3-.4.7-.2.4.1-.2.4-.5.3-.3l-.2.3s.3-.5.2-.2l-.1.1c-.1.3.1-.2.1-.2l-.2.3c.1 0 .2-.2.3-.3-.1.1-.1.2-.2.3.1-.1.1.1 0 .3l.2-.2s-.1.1-.1.2.1-.2.2-.3c0 0-.1.1-.1.2.2-.2.4-.4.2-.1l-.1.1c0 .1.3-.5.2-.3 0 .1.2-.1 0 .3.2-.4-.1.2.3-.3-.1.3-.2.3-.3.5 0 0 .2-.3.3-.3l-.2.3.2-.3-.2.3.1-.1s.1-.1.1-.2c.1-.1-.1.2-.2.3l.2-.2c-.1.1-.1.1-.1.2.2-.3-.2.3 0 0 0-.1.1-.2.1-.2-.1.2-.1.2 0 .1l-.1.2c0 .1.1 0 .2 0 0-.1.2-.4.3-.4l-.2.3c.1-.2.1-.1.2-.3 0 0-.2.3-.3.4l.1-.1c-.1.1-.1.1-.1.2.1-.2-.1.3 0 0l-.1.1.1-.1c.2-.2.1-.2.3-.4 0 .1-.1.3-.1.3.1-.1.1-.2.2-.3l-.2.4c.1 0 .1 0 .2-.2.1-.1.1-.1.1-.2 0 0 0 .1-.1.2.2-.3-.3.7 0 .3l.2-.2s-.1.2-.2.3c.3-.3 0 .1.2-.1-.4.7.1 0-.1.4l.1-.2c.1-.1 0 .1-.1.1.1-.1.1-.1.1-.2.2-.1 0 .3 0 .5 0 .1.5-.8.3-.4l-.2.3c.3-.3.1.1.3-.2 0 .1-.1.1-.1.1-.1.2 0 0 .1-.1l-.1.2c-.1.1.2-.2.1 0 0 0 0 .1-.1.1l.2-.2c-.1.1.1-.1 0 .1.2-.3 0 .1.2-.2-.2.4-.2.3 0 .2-.1.1-.1.1-.2.3 0 0 .1-.1.2-.3-.3.5.3-.3-.1.3l.4-.4c-.2.4-.1 0-.3.4l.3-.3c0 .1-.1.2-.2.2.1-.1 0 .1.2-.1l-.1.1s0 .1.1-.1c.1-.3.4-.5.4-.6-.3.5 0 .1-.5.8l.2-.2s-.1.1-.1.2c.1-.1.2-.3.2-.3-.1.1-.1.1-.1.2.1-.2.2-.3.2-.2l-.1.1s.3-.4.3-.2c-.2.4-.1.1-.3.4l.1-.1.1-.2.1-.1-.1.1h.1l.1.1c.1-.2.2-.4.2-.3l-.1.2c.1-.1.1-.2.1-.1-.1.1-.2.3-.3.4.2-.3.1-.1.3-.3 0 .1-.1.2-.2.3l.1-.2c0 .1-.1.1-.1.2s.2-.4.2-.2l-.1.1c0 .1.1-.1.1 0-.2.3-.1.1-.2.3.1 0 .3-.3.3-.2.3-.4-.1.2 0 0 0 0-.2.2-.1.2 0 .1.1-.1.2-.2l-.1.1c-.1.1 0 .1 0 .1.1-.1.1-.1.2-.3-.4.7.3-.3 0 .3l-.1.1.1-.1c.1-.2.1-.1.2-.3.1-.1.1-.2.2-.2-.1.1-.2.3-.3.4 0-.1.1-.1.1-.2-.2.4.3-.4.1-.1l-.1.1s.1-.2.1-.1c-.1.2-.1.1-.2.3 0 0 .3-.4.2-.2 0 .1-.1.1-.1.1-.2.3-.1.2-.1.3l-.1.1v-.1c.4-.6.1-.1.4-.5-.3.4-.1.2-.3.5 0 .1-.1.2-.1.2.1-.2-.1.2.1-.1-.1.1 0 0-.1.2l.2-.2c.2-.3-.2.4.1 0 .1-.1.3-.4.4-.5-.1.1-.2.3-.2.3-.1.1 0 .1 0 0 0 .1-.1.1-.1.2 0 0 .2-.3.1-.2-.1.1-.2.2-.2.3.1-.1.2-.2.2-.3-.1.1-.1.2-.2.3l.3-.3v-.1s-.1.2-.2.2c-.1.2 0-.1.1-.2.3-.5-.1.1-.1 0l.2-.3-.2.3c.1-.1.2-.3.2-.3.1-.2-.1.1 0-.1v-.1l.2.2c0-.1.2-.2.1-.2.1-.2-.2.2 0 0-.1.1-.2.3-.4.5l.4-.6-.2.3.1-.1c-.1.2-.1.1-.2.3.1-.2-.1.1.1-.3-.1.2-.1.2-.2.3.3-.4-.1.1 0-.1s.1-.1.2-.3c-.3.4 0-.1 0 0-.2.3-.1.1-.2.2.1-.1.1-.2.1-.3v-.1c-.2.3-.2.2-.2.3.1-.2.2-.3.2-.3-.1.1-.1.1-.1.2l.1-.2s-.2.3-.1.1c-.1.2-.4.6-.5.7.1-.1.2-.3.2-.4 0 0-.1.1 0 0l.1-.2c0-.1-.1.2-.1.1.1-.2.1-.1.2-.3 0 0 0 .1 0 0 0 0 .1-.1.1-.3-.1.1-.1.2-.2.2 0 0 .1-.2.2-.3l-.2.2s.1-.1.1-.2c-.1.1-.1 0-.2.3-.2.2 0-.2-.1-.1l.1-.1c-.1.1-.1 0-.2.2 0 0 .1-.2.1-.3-.1.1-.1.1 0 0l.1-.1c0-.1.1-.2-.1 0 .1-.2.2-.3.1-.2l-.1.2.2-.3c.2-.4-.4.5-.1 0l-.2.4.2-.5c.1-.2-.3.4-.2.3-.1.1-.2.4-.3.5 0 0 .2-.4.3-.5v.1s.1-.1.1-.2l-.1.1c.1-.1 0-.1.1-.3-.1.1-.1.2-.1.2.1-.2 0 0 0-.1 0 .1-.1.2-.1.2 0-.1-.1.2-.2.2l.1-.2c.1-.1.2-.3.2-.3-.1.2 0-.2.1-.2l.1-.1-.1.2.1-.1c-.1.1-.2.3-.3.5.1-.1-.1.1.1-.2 0 .1.2-.3.2-.3v-.1c.1-.3-.2.3-.2.3.1-.1.2-.3.1-.3 0 0-.2.3-.2.4l-.1.1v.1c-.1.1-.1.1-.1.2l.1-.1c-.2.3.1-.3 0-.1.1-.1.2-.3.2-.4-.1.2.1-.2 0-.1-.1.2-.1.2-.2.3l.1-.1-.2.3.1-.1c-.1.2-.1.1-.2.3.2-.3-.1.2 0-.1l.3-.5c.1-.2-.2.2-.2.1v.1c-.1.2 0 0-.1.1.1-.2.1-.2.2-.3-.1.1 0 0-.2.3l.1-.2c0-.1-.3.5-.3.4.1-.2.2-.3.3-.4l-.1.1c.1-.1-.2.2-.1 0 0 .1-.2.2-.2.2l.1-.1c-.1.1-.1.1-.2.3.3-.5-.1 0 .2-.5-.1 0-.1.1-.1.1s.1-.1 0-.1c.1-.2-.3.5-.2.3.2-.3.1-.1.2-.2.3-.6-.1.1.1-.3.1-.2-.2.2-.2.1l.1-.1c-.2.3-.3.3-.3.4.1-.2.1-.1.2-.3 0 0-.2.4-.3.4.1-.1.1-.2.3-.5.2-.3 0 0 0-.1l.1-.1c-.1 0-.3.4-.3.3l-.1.1c-.2.3.1-.2-.1 0l.2-.3c-.1.1-.2.3-.3.4.2-.2.3-.4.4-.5 0 0-.1 0-.2.2l.1-.1c-.2.3-.3.4-.3.4.4-.6 0-.2.4-.7-.2.2 0-.1-.1-.1l-.3.5.2-.3c.1-.2.1-.1.2-.2 0-.1.1-.2.2-.4-.1.2-.2.3-.1.2l-.1.2c-.2.3.2-.5 0-.2l.1-.2c-.1.1-.1 0-.3.4 0-.1.1-.2.2-.2 0-.1-.4.4-.2.1l.1-.1-.1.1c0-.1.1-.1.1-.1l-.1.1.1-.1c.1-.2-.3.3-.4.4.2-.4.3-.5.3-.6v-.1c0-.1-.3.3-.4.4.2-.4 0-.2.1-.5 0 .1-.2.3-.2.3 0-.1-.2.2 0-.1.2-.3.1-.3.1-.3l-.3.4c.4-.7-.3.2.1-.4l-.2.2.2-.2v-.1l.1-.2-.5.7.2-.4s.1-.3-.1 0c0-.1.1-.2.1-.2s.1-.3-.2.2c.2-.3 0-.1-.1.1l.2-.2c-.2.3-.3.4-.3.4s.1-.2.1-.1l-.1.1.1-.1-.2.2c-.1.1 0-.1.1-.3-.1.1-.2.3-.2.2 0-.1.1-.1.1-.2.1-.2-.2.2-.1 0 0-.1.1-.1.1-.1v.1c.1-.2.1-.3.3-.6-.1.2-.4.5-.3.4V60c.1-.2 0-.1 0-.1l-.2.4-.1.1c-.1.2-.2.3-.3.4.2-.3.3-.5.4-.7-.1.1-.1 0-.4.5 0 .1.1-.1.1-.2l.1-.1c-.1.1-.1 0-.3.3.1-.2.2-.3.1-.2l.1-.1c.3-.5-.6.7-.2.1 0 0 0 .1-.1.1.1-.3-.3.2-.1-.3 0-.1-.1.1-.2.2l.2-.3-.1-.1c-.2.2.3-.7.1-.3l-.2.3s-.1.1 0-.1c0 0-.1.2-.1.1l.1-.1-.1.1c0-.1.3-.5.3-.6 0 0-.3.4-.3.5 0 0 0 .1-.1.2l-.1.1c-.2.4-.5.8-.7 1.1l.2-.2-.1.2c-.1.2 0 0 .1-.1-.1.1-.1.2-.1.2l.3-.4c-.1.2-.2.3-.2.4.1-.2.2-.4.3-.5-.1.2-.2.3-.1.2-.1.1-.1.2-.1.2.1-.1.1 0 .2-.2-.1.2.1 0-.2.3.1-.1.2-.3.2-.3-.3.4 0 0-.3.5.3-.4.2-.2.3-.4l-.1.1-.1.2c.2-.3.3-.4.4-.6-.2.3-.3.4-.4.7.2-.3.2-.3.3-.5-.1.2-.1.1-.2.4.3-.4.1-.1.2-.3-.1.2-.2.4-.1.3l-.3.3zm.9-.4zm0 0c0-.1.1-.2.1-.2 0 .1 0 .1-.1.2zm1-1.7c-.1.1-.1.1 0 0l-.1.1.1-.1z" style="fill:#fff"/><path d="M61.9 60c-.1.1-.1.1 0 0-.1.1 0 0 0 0zm3 2.4zm-3.6-.2.1-.1-.1.1zm3.3 1.2zm.1.1c-.1 0-.1 0 0 0zm-.1.1s0-.1.1-.1l-.1.1zm-1.2-.3zm.7-.4-.1.1.1-.1zm-1.2.4zM64 63zm.9.9zm0 0zm.1-.1c-.1.1-.1.1 0 0zm-.2 0zm0 0s-.1.2-.1.1l.1-.1c-.1.2.1-.2 0 0zm.6-1.2s.1-.1.1-.2c.1-.2-.1.3-.1.2zm0-.1s.1-.1.1-.2c-.1.1-.1.1-.1.2zm-.5-.4.1-.2c0 .1 0 .1-.1.2zm-.8 1.1-.1.1.1-.2zm.9-1.6v.1zm-.9-.4-.2.3c.1-.1.3-.4.2-.3zm-.5 0c.1-.1.1-.2 0-.1v.1zm-.8-1.1V60v.1z" style="fill:#fff"/></g><g style="opacity:.65"><path d="M42.8 64.3s.1-.1 0 0h-.1.1zm-.3-.4c-.1 0-.2 0-.2.1.1 0 .1.1.2-.1.1.1.1.2.1.2s.1.1.1 0l-.2-.2c-.1.1 0 .1 0 0zm-3.1-5.2zm1.7-2.5c-.1 0-.1 0 0 0zm.7-.2s-.1 0 0 0c-.1 0 0 0 0 0zm-2.4 2.7v-.1.1zm2.2 5zm-1.8-3.3zm.5 1.2h-.1.1c-.1 0 0 0 0 0zm1.2 1.6c.1 0 0 0 0 0zm-1.9-3.7s0-.1 0 0c0-.1 0 0 0 0zM61 33.6c0-.1 0-.1 0 0zm.1-1.6h.1zM43 55.4c-.1 0-.1 0 0 0zm7.1-7.5c-.2 0 .2-.2 0-.2 0 0-.2.2 0 .2zm-8.5 15.8c-.1-.1-.1-.1 0 0zm8.5-16H50zm-5.2 5.4c-.1 0 0 0 0 0zm-1.5 1.6zm2-2.7zm.5-1h-.1zm14.9-14.1s0-.2 0 0zM41.6 63.6c0 .1 0 .1 0 0 0 .1 0 .1 0 0zm3.2-11.9.1-.2s-.1.1-.1.2zm9.8-10.2c.1 0 0 0 0 0zM45.1 51c.1 0 .1 0 0 0 .1-.1.1-.1 0 0zm15.7-14.1z" style="fill:#fff"/><path d="M60.9 35.7c0 .2.1.1.2.1 0 .2-.1.1-.2.1 0 .1.1.2.1.3 0 .1-.1.4 0 .6h.2v.2-.1.1c-.1 0 0-.1-.1-.1 0 .2 0 .4-.1.5-.1 0 .1-.3-.1-.2l.1-.2c-.2.1.1-.1-.2 0-.1.2-.1.3-.2.5 0 .1.1 0 .1.1 0 .4-.3.1-.3.4 0 .1.1.2 0 .3l-.1-.1c-.1.2.1.2-.1.4 0-.1.1-.2 0-.2-.2.1 0 .1-.1.2H60c-.1.2-.3.4-.4.7 0 0 0-.1-.1-.1-.2.3-.6.5-.8.6v.2h-.1c-.1.1 0 0 0 .1h-.1c-.2.2-.5.5-.7.5-.2.1-.1.3-.3.3-.4.1-.8.4-1.1.4 0 .2-.4.1-.4.2-.3 0-.2-.1-.5 0-.1 0-.1.1-.2.2v-.1l-.1.1-.1-.1s-.1 0-.1.1h.1c-.1.1-.4.1-.6.1 0 0 0 .1-.1.1v.6-.1c.1.2-.1 0-.1.2h.1c-.4-.1-.4.1-.4.2h-.1c-.1.3-.2.6-.3.8.1-.1.2 0 .1.1h-.1c0 .1.1-.1.1.1-.1.1-.1 0-.1 0v.1l-.1-.1c0 .1-.2.2-.1.3-.1.3-.2.4-.3.6.1.1 0 .1 0 .2l-.4.4c-.1.1 0 .1 0 .2-.1 0-.2.1-.2 0-.2.2-.2.3-.4.5h.1s-.1.1-.1 0c-.2.4-.8.3-1 .6l-.2.2c-.1 0 .1-.1-.1-.1-.3.3-.5.2-.7.4-.3-.2-.7.3-1.1.2-.1.1-.1 0-.2 0 0 0 .1 0 .1.1-.3.1-.6.1-1 .1h-1.5c0 .3.2.4-.1.7 0 0 0-.1-.1-.2-.1.6-.3 1-.4 1.5v-.1c-.1.1-.1.4-.1.4 0 .1-.1 0-.1 0-.1.1 0 .3-.1.3V50c0 .1-.1.3 0 .3-.1.2-.1.3-.2.4 0 .1-.2.3-.1.4-.1-.1-.2.2-.2.4 0-.1-.1.1-.1 0-.1.1-.1.2 0 .3-.3.1-.1.5-.4.5-.1.4-.3.7-.5 1-.1-.1.2-.3.1-.4-.1.3-.2.5-.4.8-.1.1 0-.1 0-.1-.2.3-.4.5-.6.7v-.1l-.1.1v-.1c.1 0 0 .3 0 .3 0-.2-.2.2-.3-.1v.1s-.1 0-.1-.1c-.1.2 0 .2-.2.3v-.1c0 .1-.1.2-.2.3v-.1c-.2.2-.3.4-.6.5 0-.2-.1 0-.2-.1l-.1.1h.1c-.1.1-.2.2-.3.2l.1-.1-.2.1h.2c-.1.1.1.1-.1.2h-.2c-.1 0-.1.1-.2.1v-.1c-.1.1-.3 0-.4.1v-.1l-.4.3c-.1 0-.1 0-.1-.1-.3 0 .1.1-.2.1h-.2c0 .1 0 .2-.1.2 0 .2 0 .3-.1.4-.1 0 0-.2-.1-.1-.1.3 0 .7-.1 1v-.1c.1.1-.1.2 0 .4 0 0-.1-.1-.1 0 0 .2 0 .5.1.8v.5s0 .1.1.1c-.2.5.2.8.1 1.2l-.1-.1.1.3c.1 0 0-.1.1-.1s.1.1.1.2c-.1-.1-.1 0-.1.1h.1c-.1.2.1 0 .1.2 0 .1.1.1.1.2-.1.1-.1-.1-.1-.1.1.1.2.2.2.3-.1 0-.1-.1-.1-.2v.3l.1.2v-.1c.3 0 .2.3.4.4-.2-.1-.1 0-.2 0v.1c.1 0 .1.2.2.2 0 0 .1.1 0 .1.1.1 0-.1.1-.1.2.1.2.5.6.6.2.1.3.1.5.2 0 .1-.1 0-.1 0 .1.1.2.2.3.2v.1c.1.1.1 0 .2.1h-.1c.1 0 .2.1.4.1 0 .1-.1 0-.2 0 .1.1.3.1.4.1l-.1-.1s0 .1-.1.1-.1-.1-.1-.1h.1c0-.2-.3-.2-.4-.3l.1-.1h-.2s0-.1.1-.1c-.1-.1-.1 0-.2-.1h-.1s0-.1.1 0c-.1-.2-.3-.1-.3-.3-.2-.2-.1 0-.3 0l.1-.3h-.1s-.1-.1 0-.1h-.1c0-.2-.3-.3-.2-.4-.1 0 0 .1-.1 0 .1-.1-.1-.1-.2-.3.1 0 .1.1.1 0-.2 0-.1-.2-.2-.3-.1 0-.2-.2-.3-.3 0 0-.1-.4-.1-.5-.1 0-.2-.2-.2-.3.1 0 .1 0 .1.1v-.1s-.1 0-.1-.1h.1c0-.2-.2-.3-.2-.5-.1 0-.2.2-.3 0h.1v-.1l.1.1c0-.1-.1 0-.1-.1.1 0 0-.1.1-.1v.1c0-.1 0-.2.1-.2 0 0-.1 0-.1-.1 0-.2.1-.1.1-.2 0 0 0-.1-.1-.1 0 0 0-.1.1-.1 0-.1 0-.4-.1-.3-.1-.3 0-.6 0-.9v-.5l.1-.1v-.3c0 .1.1 0 0 .1.1-.2.1-.2.1-.4.1.1.1-.1.1-.2l-.1.1v-.2s.1 0 .1.1c.1-.1 0-.3.4-.1.1-.1-.2 0-.1-.1.2 0 .4.1.4.1.2 0 .2-.2.4-.2 0 0-.1-.1.1-.2.2 0 .2.1.1.1h-.1s-.1.1 0 .1.3-.1.3 0c.1-.1 0-.1-.1-.1.2 0 .3-.1.5-.2h-.1c.3-.1.1-.1.3-.2.1 0 0 .1.2 0 .1 0 .1.1 0 .1.1-.2.3-.2.4-.2l-.1.1c0-.1.1-.1.1-.1h-.1c.1 0 .1-.1.1 0 0-.1-.1-.1 0-.2.1 0 .2-.2.3-.1-.2.1.1.1-.1.2l.1-.1c.3-.1 0-.2.2-.3 0 .1.1 0 .1 0-.1.1-.1 0-.1-.1l.2-.2-.1.1c0-.1 0-.1.1-.2 0 0-.1.1 0 .1 0-.1.3-.1.3-.3.1 0 .1.1.1 0 .1-.2.2-.1.3-.3-.1 0-.1 0 0-.1l.3.4V54c-.1.1-.1.2-.2.2v-.1c.2 0 .1-.2.3-.3l.1.1c.2-.1.2-.4.4-.6l-.1.1c0-.1.1-.2.1-.3h.1s.1-.2 0-.3l.1-.1c.2-.2 0-.3.1-.5 0 .1.1 0 .1.2 0-.1.1-.1 0-.1.1 0 0-.2.1-.3 0 0-.1-.1 0-.2 0 0 0-.1-.1-.1.3-.1.3-.6.5-.7.1-.2.1-.4.2-.5.1-.2-.1-.2 0-.4.1-.1 0 .1.1.1.2 0 .1-.3.2-.4.1-.1 0-.3.1-.5v-.6c.1.1 0 .1.1.1 0-.1-.1 0-.1-.2.1 0 .1-.2.2-.1v.2c.1 0 .1-.1.1-.1v-.2s0-.1.1-.1c.1-.1.1.1.3 0l.1.1c.1 0 .3-.1.5-.2-.1.1-.3.1-.4.2.1 0 .3 0 .4-.1h-.1c.1-.1.3-.1.5-.2 0 .2.5 0 .7.1.3-.1.7-.1 1.1-.3-.2-.1.1 0 0-.2h.4c.1 0-.1.1 0 .1.2-.1.1 0 .3 0-.1 0 0-.1.2-.1h-.2c.2-.2.3 0 .5-.2l.2.1c.1-.1.5-.3.6-.5 0 0 .1 0 0 .1.3-.2.6-.6.9-.7v.1c0-.1 0-.1.1-.2 0 0 0 .1 0 0 0 0 .1-.2.2-.2v.1c.3-.2.3-.5.5-.7.1.1.3-.1.4-.2.2-.4.3-.7.4-1 .2-.1.4-.7.6-1.1 0 0-.1 0-.1-.1.1-.1 0-.3.1-.2.1 0 .2-.2.2-.4l-.1-.1c.1 0 .1-.2.1-.2v-.1h.4c.1-.1.2-.1.3-.1v.1c.2 0 .4-.1.7-.2v.1c.2 0 .1-.3.3-.4l.1.1c.3-.1.6-.1.9-.3v.1c.1 0 .5-.2.4-.3.1.1.3-.2.4-.3v.1c.1-.2.1-.2.2-.3 0 0 .1 0 0 0 .2 0 .1-.1.2-.2v.1c.1-.1.1-.1.1-.2.1-.1.2-.2.3-.1 0 0 0-.2.1-.2v.1c.2-.1.2-.3.4-.4h.1c-.2.1-.3.2-.3.2.1.1.2 0 .2.1.1-.1.2-.4.3-.5 0 0 0-.1.1-.1l.1-.1c.1 0 .2-.1.2-.2-.1 0 0-.1-.1-.1v.1s-.1.1-.1.2c0-.1 0-.2.1-.2v-.2c.2 0 .4-.1.4-.1.1-.3.3-.5.3-.8 0-.1.1-.1.1-.1v.1c.1-.1.2-.4.1-.5.1-.1.1.1.1-.1.4-.4 0-.9.4-1.3 0 0 0 .1-.1.1.1-.3.1-.6.2-.9 0-.3 0-.6.1-1 0-.2 0-.2-.1-.3h.1l-.3-.2c-.1-.2.2-.5 0-.8l-.1.1c0-.1-.1-.4 0-.4 0 0-.1 0 0-.1 0-.1-.1-.2-.1-.3 0-.2.2 0 .1-.3 0-.1-.2-.3-.2-.3v.1h-.2c-.1 0-.3 0-.3.3l.1.2-.1.1v-.1c0 .1 0 .1.1.2l-.1.1.2.1s-.1-.1-.1.1c.1.1.1-.1.2 0 0 .1-.1.1 0 .2H61c.1.1.1.2.1.3-.1.1.1.3-.1.3 0 0 .1.1.1.2-.2-.1 0 .3-.2.3.1.1.1.4.2.6v-.1c0 .1-.1.1-.1.2.1 0 .1.2.2.3-.1.1-.1-.1-.2-.1.1 0 .1.2.2.2-.1.1 0 .1-.1.1.1 0 0 .1.1.2-.2 0-.2-.1-.3 0 0 .1 0 0 0 0zm-1.4 3.6c0-.1 0-.1 0 0 0-.1 0-.1 0 0zm-.3.2.1-.1v.1c.1-.1 0 0-.1 0zm1-.1c-.1 0-.1 0 0 0-.1 0-.1 0 0 0-.1-.1 0-.1 0 0zm-.1-.2zM39.4 58.7zm15.7-17.3zM39.4 60.7z" style="fill:#fff"/><path d="M39.7 61.5v.1c.1-.1 0-.1 0-.1zm.3.6zm3-7.7c0-.1 0-.1 0 0zm-2.4 1.5c.1 0 .1 0 0 0 .1 0 0 0 0 0zm4.2-4.2zm-4 4.1h-.1c.1.1.1.1.1 0zm1.3 8.2zm0 0zm.1 0s0 .1 0 0zm-.8-.5c-.1 0 0 0 0 0zm-.3-.2.2.2s-.1-.2-.2-.2zm-.4-1 .1.2c0-.1 0-.1.1 0-.1-.3-.1 0-.2-.2zm-.4-.5c.1.1.1-.1 0 0 0-.1 0-.1 0 0zm-.8-4.5c.1-.1.1 0 0 0zm-.2-1.1v.2zm.6.3h.1-.1zm6-5.3c-.1 0-.1.1 0 0zm1.1-2.9s.1.1.2 0H47zm7.9-6s0-.1 0 0z" style="fill:#fff"/></g><g style="opacity:.65"><path d="M46.5 40.4c0-.1-.1-.1 0 0zm-.3 0c0 .1 0 .1.1.2 0-.1 0-.1-.1-.2h.1v-.1s-.1 0-.1.1zm-2.3 1.5zm-1.6.7zm-.3 0zm1.9-.7c-.1 0 0 0 0 0zm2.2-1.1zm-1.6.6zm.4-.3s0 .1.1.1l-.1-.1c.1 0 .1 0 0 0zm.8-.5zm-1.6 1.1c0-.1 0-.1 0 0zm-8.8 11.6zm-.7-.2V53zm6.9-10.4c0-.1 0 0 0 0zm-.6 4.8c.1 0 .1.1.2 0 0 .1-.1 0-.2 0zm5.2-6.7c-.1 0 0 0 0 0zm-5 6.8zm-.2-3.6c.1 0 .1 0 0 0 .1 0 .1 0 0 0zm.2-1.1c-.1 0 0 0 0 0zm0 1.5s0 .1 0 0c0 .1 0 0 0 0zm.1.5zm-4.4 7.9s-.1.1 0 0zm9.2-12c.1 0 .1 0 0 0 .1 0 .1 0 0 0zm-4.2 3.6zM40 50.8zm1.8-6.1zm-5 8.1z" style="fill:#fff"/><path d="M36.3 53.2c.1 0 0-.1 0-.2.1-.1.1.1.1.1l.1-.2c0-.1.2-.1.2-.2l-.1-.1s0-.1.1 0v.1c.1.1 0 .1 0 .1.1-.1.1-.2.2-.2 0 .1-.1.1 0 .1h-.1c.1.1-.1 0 .1.1.1 0 .1-.1.2-.1v-.1c.1-.2.2.2.3 0 0-.1 0-.2.1-.2v.1c.1 0 0-.2.1-.1 0 0-.1.1 0 .1.1.1 0-.1.1-.1l.1.1.3-.3v.1c.1-.1.3-.2.5-.2V52c.1 0 0 0 0-.1 0 0 .1 0 .1.1.1-.1.2-.3.3-.3.1 0 0-.2.1-.2.2-.1.3-.3.5-.3-.1-.1.2-.1.1-.2h.3v-.2l.1.1v-.1h.1v-.1h-.1c0-.1.2-.1.2-.1l.1-.2v.1c0-.1.1.1.1-.1l-.1-.1c.1 0 .1-.1.2-.1v.1c.1-.1.2-.2.2-.4-.1 0-.1 0-.1-.1h.1c0-.1-.1 0-.1-.1 0 0 .1 0 .1.1v-.1l.1.1c0-.1.1 0 .1-.1.1-.1.1-.2.1-.3-.1 0 0-.1-.1-.1.1-.1.2-.1.2-.2s-.1-.1-.1-.1c.1 0 .1-.1.1 0 0-.1.1-.2.1-.3h-.1.1c0-.2.4-.3.3-.5V48c0-.1 0 .1.1 0-.1-.2.1-.2 0-.4.3 0 .1-.4.2-.5h-.1l.1-.1h-.1c0-.3.2-.6.2-.9 0-.1-.3-.1-.1-.2h.1c-.1-.2 0-.5-.1-.7h.1c.1-.1 0-.2-.1-.2h.1c0-.1-.1-.1 0-.1 0 0 0-.1-.1-.1 0-.1-.1-.2 0-.2-.1 0 0-.1-.1-.1.1 0 .1-.2 0-.2 0 0 0-.1.1 0 0-.1 0-.1-.1-.1.1-.1-.2-.2 0-.3-.1-.1-.2-.4-.2-.4h.1s0 .1.1.1c0-.1-.1-.1-.1-.1l-.1-.1h.1v-.1c-.1-.1-.1-.2-.1-.2.1.2.1 0 .2.2v-.1.1s0-.1.1-.1v.1c0-.1 0-.1.1-.1s.2-.2.3-.2c0 .1.1 0 .1.1l.1-.1c.1 0 .1-.1.2-.1v.1l.1-.1h-.1c0-.1-.1-.1 0-.1h.1s0-.1.1-.1c0 0 0 .1.1.1 0-.1.1-.1.1-.2v.1-.1l.1.1c.1 0-.1-.1 0-.1s.2-.1.3-.1c.1.1-.1.1 0 .1.1-.1.2-.3.3-.3-.1-.1.1 0 .2-.1v.1c.1 0 .2-.1.2-.2.1 0 .1-.1.2-.1v-.1c.3.1.2-.3.5-.2 0 0 0 .1 0 0l.1-.1c0-.1 0 0-.1-.1v-.1c0 .1.1.1.1.1v-.1c.1.1-.1-.1.1-.1 0 0 0-.1.1-.1.1.1 0 .1 0 .1s0-.2.1-.1v.1h.2c-.1-.2.1-.1.1-.3 0 .2 0 .1.1.1h.1c0-.1.1 0 .1-.1h.1c0-.1 0 0-.1-.1 0-.1.2 0 .3-.2v-.3c.1 0 0 .1 0 .1.1 0 .1 0 .1-.1h.1s-.1-.1 0-.1v.1-.2.1c0-.1.1-.1 0-.2 0 0 .1 0 .1.1s-.1 0-.1 0c-.4.2-.4.5-.4.5l-.1-.1v.1l-.1-.1c-.1 0 0 .1-.1 0v.1s-.1-.1 0-.1c-.1 0-.1.2-.1.1-.1.1 0 .1 0 .2l-.2-.1v.1h-.1v.1c-.1 0-.1.1-.2 0 0 .1.1 0 .1.1-.1-.1 0 .1-.1 0 0-.1 0-.1-.1-.1.1.1-.1 0-.1.1.1.1-.1.1-.1.2h-.2c.1.1 0 .1-.1.2v-.1.1-.1c-.1 0-.1.2-.2.2 0 .1.2.1.1.2l-.1-.1v-.1c-.1 0 0 .1 0 .1 0-.1 0 0-.1-.1h-.1v.1c-.1 0-.1 0-.1-.1 0 0-.1 0 0 .1h-.1c0 .1-.1.1-.1.2-.1.1-.2.1-.3.2 0 .1-.1.1-.1.2 0 0-.1 0-.1-.1 0 0 0 .1-.1.1v-.1c-.1 0-.1 0-.1.1 0-.1-.1-.1-.1 0h.1-.1v-.1c-.2-.1-.1.3-.3.2 0 .1.1 0 .1.1-.1 0-.2-.1-.2-.1-.1 0 0 .2-.1.2 0 0 .1.1 0 .2-.1 0-.1-.1-.1-.2v-.1h-.1v.1h-.2v.1c-.1 0 0 .1-.1.1s0-.1-.1-.1 0-.1 0-.1c-.1.1-.2 0-.2 0h-.1v.1h-.1c0 .1.1.1 0 .2 0 0-.1.1-.1 0 .1 0 0-.1.1-.1h-.1c-.2 0 0 .1-.2.2 0-.1-.1-.1-.1-.1.1 0 .1.1.1.1-.1 0-.1.1-.1.1h.1s0 .1-.1.1c0 .1-.1 0-.3 0v.1s-.1-.1-.1 0c.1.2 0 .1.1.3.1 0 0 0 .2.1l-.1-.2.2.2c0-.1-.1-.1-.1-.2l.1.1c-.1 0 .1.2.1.2H41c0 .1 0 .2.1.2 0 0 .1.1.1.2.1 0 0 .1.1.1-.1 0-.1 0-.1.1 0 0 0 .1.1.1l-.3-.4c0 .1.2.1.2.2H41v.1s.1.1 0 .1h.1s0 .1.1 0c-.2.1 0 .3-.1.4 0 .1.1.2.1.2 0 .1.2 0 .1.2-.1.1-.1-.1-.1 0-.2 0 0 .1-.1.2s.1.1.1.2c.1.1.1.2.2.3h-.1s.1 0 .1.1c0 0-.1.1-.2.1v-.1c-.1 0 0 .1 0 .1 0 .1.1.1.1.2.1.1-.1 0 0 .1h-.1l.1.2-.2-.2s0 .1.1.2v-.1c.1.1.1.1.1.2-.2 0-.1.2-.3.2.1.2-.1.3-.1.4.2 0 0 0 .2.1v.1l-.1.1c-.1 0 0 0-.1-.1 0 .1-.1 0-.1.1.1 0 .1.1 0 .1h.1c.1.1-.2.1-.1.2v-.1c0 .1-.1.2.1.3h-.1c-.1.1 0 .4-.1.4 0 0 .1.1 0 .1v.1c-.1.1 0 .3 0 .4-.1-.1-.2 0-.3 0-.1.1-.1.3-.1.4-.2 0-.2.2-.4.3l.1.1s0 .1-.1.1c-.1-.1-.1 0-.2.1l.1.1c-.3 0-.2.4-.4.3v.1l-.1-.1c-.1 0-.1.1-.2.2v-.1c-.1 0 .1.2 0 .3l-.1-.1c-.1.1-.3.1-.3.2V51s-.2.1-.1.2c-.1-.1-.1.1-.1.1v-.1.2s-.1 0 0 0c-.1 0 0 .1-.1.1v-.1c-.1 0 0 0 0 .1h-.2v.1-.1c-.1 0-.1.2-.2.1.1 0 .1-.1.1-.1 0-.1-.1 0-.1-.2 0 .1 0 .2-.1.2h-.1c0-.1-.1 0-.1 0 0 .1 0 .1.1.1h.1c0 .1 0 .1-.1.1v.1c-.1-.1-.2-.1-.2-.2-.1.1-.2.1-.2.3h-.1v-.1c0 .1-.2.1-.1.2-.1 0 0-.1-.1-.1-.3-.1-.2.4-.5.3-.3 0-.5.3-.8.2-.1 0-.1.1-.1.1v-.1.1c-.1.1-.2-.2-.3 0v.1c-.1 0-.1.1-.2 0 0 0 0 .1 0 0l-.4.4c-.1 0 0-.2-.2-.2l-.1.2s.1 0 .1.1 0 .3.1.4l.1-.1v.1h-.1c.1.1.1 0 .1-.1v.1l.1-.2v.1c0-.1-.1-.1 0-.2.1.1.1.1.1 0v.1c0-.1.1 0 .1-.1.1.1.1-.1.2.1 0 0 0-.1.1-.1 0 .2.1 0 .2.1 0-.2.2-.1.2-.2.1 0 .1 0 .1.1 0-.1 0-.2.1-.2.1.1 0 .1.1.2 0-.1.1-.1 0-.2.1.1.1 0 .1.1V53c.1 0 .1.1.1.1.1 0 0 .1 0 .1zm1.6-1zm.1-.1zm-.5-.3c0-.1 0-.1 0 0zm0 .1zm6.4-10zm-4 9.1h-.1.1zm4.9-9.3zm.3-.2zm.2-.1zm-3.7 2zm1-.6c0 .1 0 .1 0 0 0 .1 0 .1 0 0zm-.8 1.5v.1zm.7-1.4zm3.8-2.2c0-.1 0-.1 0 0zm0-.1zm0 0zm-.3.3z" style="fill:#fff"/><path d="M45.9 41h.1-.1c.1-.1 0-.1 0 0zm-.6 0c.1-.1 0-.1 0-.1-.1-.1.1 0 0 .1zm-.3.1c.1-.1 0 0 0 0zm-1.7 1.1c0-.1 0-.1 0 0zm-.2.5h.1v-.1zm-.4-.4zm-1.6 2.5c.1 0 0 0 0 0zm.1 1.5s.1 0 0 0zm-1.6 3.9v-.1.1z" style="fill:#fff"/></g><path d="M72.8 80.1s0 .1 0 0zm0 .1zm.1.5zm.1.3zm0 .1zm-.1-.4zm0-.5zm-.1.4zm0-.1zm0-.2zm0 .3c0 .1 0 .1 0 0 0 .1 0 .1 0 0zm1.3 2.8zm-.1.1zm-1-2.3zm.3.8c.1 0 0 0 0 0zm-.4-1.8zm.5 1.8zm-.3-.6zm-.1-.2zm.1.2zm.1.1zm.8 1.6zm-1.2-2.9c.1 0 .1 0 0 0 .1 0 .1 0 0 0 .1 0 0 0 0 0zm.5 1.2zm.4 1.1zm-.3-1.1zm.6 1.7zm.1.1c-.1 0-.1 0 0 0-.1 0-.1 0 0 0-.1 0-.1 0 0 0-.1 0-.1 0 0 0-.1 0-.1-.1-.1-.1-.1 0 0 0 .1.1-.1-.1-.1-.1-.1 0 0-.1-.1-.1.1 0l-.1-.1s.1-.1 0-.1c0 0-.1 0 0 0 0 0-.1 0 0 0h-.1v-.1s-.1 0 0-.1c0 0-.1 0 0 0v-.7c.1 0 0-.1 0-.1v-.2h-.1c-.1 0 0-.1-.1-.1 0 0-.1 0 0-.1 0 0-.1 0-.1-.1h.1-.1v-.1h-.1.1-.2s-.1 0-.1-.1c-.1 0 0 0 0 0 .1-.1-.1 0 0-.1 0 0-.1 0 0 0h-.1.1v-.1h-.2c-.1 0 0 0 0 0h.1-.1v.1h.1v.1s.1 0 0 .1c0 0 .1 0 0 0h.1-.1.1-.1.1-.1c-.1 0 0 0 0 .1 0 0 .1 0 0 0h.3-.1.1c-.1 0 0 0-.1.1v.1h.2s.1 0 0 .1h.1l-.1.1s.1 0 .1.1v.1h.1c-.1.1.1.1 0 .1v.1h.1v.1h.1-.1.1l-.1.1h.2c0 .1.1 0 .1.1s.1.1 0 .1c0 0-.1.1 0 .1h-.1.1s.1 0 .1-.1h-.1c.1 0 0 0 0 0h-.1c-.1.6 0 .6 0 .5-.1.1-.1.1 0 0-.1 0-.1.1 0 0-.1.1-.1 0 0 0-.1 0-.1 0 0 0-.1 0-.1 0 0 0-.1 0-.1 0 0 0-.1 0 0 0 0 0zm-.2-.3zm-.1 0zm-.1.1zm0 0zm-.8-2.3zm.9 1.8zm-.9-2zm0 0c0-.1 0 0 0 0zm0-.1zm.3.7zm-.1-.2zm.2.5zm-.2-.5zm-.3-.7zm0 0zm0 0zm.1.1zm0 0zm-.1.1c-.1 0 0 0 0 0zm0 .1zm.1.3zm.2 0zm-.2.1zm.2.6c.1 0 0 0 0 0zm.2.3s-.1 0 0 0zm.2.7zM70 85.6s0 .1 0 0zm0 .1s.1 0 0 0zm.1.5zm.1.3zm0 .1zm-.1-.4zm0-.5zm0 .4s-.1 0 0 0zM70 86zm0-.2zm.1.3zm1.2 2.8zm-.1.1zm-1-2.3zm.3.8c.1 0 .1 0 0 0 .1 0 .1 0 0 0zm-.4-1.8zm.5 1.8zm-.3-.6zm0-.2zm.1.2zm0 .1zm.8 1.6zm-1.1-2.9zm.5 1.2zM71 88zm-.4-1.1zm.6 1.7zm.1.1c-.1 0 0 0 0 0s-.1 0 0 0c-.1 0-.1 0 0 0-.1 0-.1-.1-.1-.1l.1.1c-.1-.1-.1-.1-.1 0 0-.1 0-.1.1 0l-.1-.1s.1-.1 0-.1c0 0-.1 0 0 0 0 0-.1 0 0 0h-.1v-.1s-.1 0 0-.1c0 0-.1 0 0 0v-.7c.1 0 0-.1 0-.1v-.2H71c-.1 0 0-.1-.1-.1 0 0-.1 0 0-.1 0 0-.1 0-.1-.1h.1-.1v-.1h-.1.1-.2s-.1 0-.1-.1c-.1 0 0 0 0 0 .1-.1-.1 0 0-.1 0 0-.1 0 0 0h-.1.1v-.1h-.2c-.1 0 0 0 0 0h.1-.1v.1h.1v.1s.1 0 0 .1c0 0 .1 0 0 0h.1-.1.1-.1.1-.1c-.1 0 0 0 0 .1 0 0 .1 0 0 0h.3-.1.1c-.1 0 0 0-.1.1v.1h.2s.1 0 0 .1h.1l-.1.1s.1 0 .1.1v.1h.1c-.1.1.1.1 0 .1v.1h.1v.1h.1-.1.1l-.1.1h.2c0 .1.1 0 .1.1s.1.1 0 .1c0 0-.1.1 0 .1h-.1.1s.1 0 .1-.1h-.1c.1 0 0 0 0 0h-.1v.5c0 .1-.1.1 0 0-.1 0 0 .1 0 0 0 0-.1 0 0 0-.1 0 0 0 0 0-.1 0 0 0 0 0zm-.2-.3zm0 0zm-.2.1zm.1 0zm-.9-2.3zM71 88zm-.8-2zm0-.1zm-.1 0zm.4.7zm-.2-.2zm.3.5zm-.3-.5zm-.2-.7zm0 0zm0 0zm0 .1zm0 0zm-.1.1zm0 .1c0-.1 0 0 0 0zm.2.3c-.1 0-.1 0 0 0zm.1 0zm-.2.1h.1zm.3.6zm.1.3zm.2.7zm5.8.9zm-.1 0c.1 0 .1 0 0 0 .1 0 .1 0 0 0 0 0 .1 0 0 0 .1 0 .1 0 0 0 .1 0 0 0 0 0zm.2.5zm.1.3zm-.1.1zm0-.4zm-.1-.4zm0 .3zm0-.1zm-.1-.2zm.1.4zm1.3 2.7zm-.1.2zm-1.1-2.4zm.4.8s0 .1 0 0zm-.5-1.7zm.5 1.7zm-.3-.6s.1 0 0 0c.1 0 0 0 0 0zm0-.2zm.1.3zm0 .1zm.9 1.6c-.1 0-.1 0 0 0-.1 0 0 0 0 0zM76.5 89zm.5 1.1zm.4 1.1zm-.4-1zm.6 1.7zm.1 0c-.1 0-.1-.1-.1-.1 0 .1 0 .1.1.1-.1-.1-.1-.1-.1 0 .1-.1 0 0 .1 0l-.1-.1s.1-.1 0-.1c0 0-.1 0 0 0 0 0-.1 0 0 0h-.1v-.1s-.1 0 0-.1c0 0-.1 0 0 0v-.1h-.1v-.6c.1 0 0-.1 0-.1v-.2h-.1c-.1 0 0-.1-.1-.1 0 0-.1 0 0-.1 0 0-.1 0-.1-.1h.1-.1v-.1H77h.1-.2s-.1 0-.1-.1c-.1 0 0 0 0 0 .1-.1-.1 0 0-.1 0 0-.1 0 0 0h-.1.1v-.1h-.2c-.1 0 0 0 0 0h.1-.1v.1h.1v.1s.1 0 0 .1c0 0 .1 0 0 0h.1-.1.1-.1.1-.1c-.1 0 0 0 0 .1 0 0 .1 0 0 0h.3-.1.1c-.1 0 0 0-.1.1v.1h.2s.1 0 0 .1h.1l-.1.1s.1 0 .1.1v.1h.1c-.1.1.1.1 0 .1v.1h.1v.1h.1-.1.1l-.1.1h.2c0 .1.1 0 .1.1s.1.1 0 .1c0 0-.1.1 0 .1h-.1.1s.1 0 .1-.1h-.1c.1 0 0 0 0 0h-.1c.1.6.1.6.1.5 0 .1 0 .1 0 0 0 .1 0 .1 0 0 0 .1 0 .1 0 0 0 .1 0 .1 0 0 0 .1 0 .1 0 0zm-.2-.2zm0-.1c0 .1 0 .1 0 0zm-.1.2zm0 0v-.1zm-.8-2.4zm.8 1.9zm-.8-2zm0-.1zm0-.1zm.3.8zm-.1-.2zm.2.4zm-.2-.4zm-.3-.8zm0 0zm0 0zm0 .1zm0 0s.1 0 0 0c.1 0 0 0 0 0zm0 .1c-.1 0-.1 0 0 0-.1.1 0 0 0 0zm0 .1s-.1 0 0 0zm.1.4zm.1 0h.1-.1zm-.1.1zm.2.6c0-.1 0 0 0 0zm.1.2zm.3.8z" style="fill:#4b5d9a"/><g style="opacity:.6"><path d="M66.4 77s-.1 0 0 0zm-.1.1s.1-.1 0 0c.1-.1.1-.1 0 0 0-.1 0-.1 0 0 0-.1.1-.1 0 0 0-.1 0-.1 0 0 0-.1 0 0 0 0zm.2.5zm.1.3zm0 0zm-.1-.3zm-.1-.5zm0 .3zm-.1-.1s.1 0 0 0c.1 0 .1 0 0 0 .1 0 .1 0 0 0zm0-.1zm.1.3zm1.4 2.8zm-.1.2zM66.6 78zm.4.9zm-.6-1.8zm.6 1.8zm-.3-.6zm0-.2zm.1.2zm0 .1zm.9 1.6s0 .1 0 0c0 0 0 .1 0 0zm-1.3-2.9zm.6 1.1c0 .1 0 .1 0 0zm.4 1.2zm-.4-1.1zm.7 1.8zm.1 0s-.1 0 0 0c-.1 0-.1 0 0 0-.1 0-.1 0 0 0-.1 0-.1 0 0 0-.1 0-.1-.1-.1-.1 0 .1 0 .1.1.1-.1-.1-.1 0-.1 0s.1-.1 0-.1c0 0-.1 0 0 0 0 0-.1 0 0 0h-.1v-.1s-.1 0 0-.1c0 0-.1 0 0 0v-.1h-.1v-.5c-.1 0 0 0 0-.1.1 0 0-.1 0-.1v-.2h-.1c-.1 0 0-.1-.1-.1 0 0-.1 0 0-.1 0 0-.1 0-.1-.1h.1-.1v-.1h-.1.1-.2v-.1s-.1 0-.1-.1c-.1 0 0 0 0 0h-.1c.1-.1-.1 0 0-.1 0 0-.1 0 0 0h-.1.1V78h-.2c-.1 0 0 0 0 0h.1-.1v.1h.1v.1s.1 0 0 .1c0 0 .1 0 0 0h.1-.1.1-.1.1-.1v.1s.1 0 0 0h.3-.1.1c-.1 0 0 0-.1.1v.1h.2s.1 0 .1.1h.1v.1s.1 0 .1.1v.1c-.1.1.1.1 0 .1v.1h.1v.1s0 .1 0 0h.1-.1.1l-.1.1h.2c0 .1.1 0 .1.1s.1.1 0 .2c0 0-.1.1 0 .1h-.1.1s.1 0 .1-.1h-.1c.1 0 0 0 0 0h-.1c.1.5.1.5.1.4-.1.1-.1.1 0 0-.1.1-.1.1 0 0-.1.1-.1.1 0 0-.1.1-.1.1 0 0-.1.1-.1.1 0 0-.1 0 0 0 0 0-.1 0 0 0 0 0zm-.2-.3zm-.1 0zm-.1.1zm0 0zm-.9-2.3zm.9 1.8zm-.9-2zm0-.1zm0 0zm.3.7zm-.1-.2zm.3.4zm-.3-.4zm-.3-.8zm0 0zm0 0zm0 .1zm0 0zm-.1.2c0-.1 0 0 0 0s0-.1 0 0zm.1 0c-.1 0-.1 0 0 0-.1 0-.1 0 0 0zm.1.4zm.2 0h-.1zm-.2.1zm.3.6zm.1.3zm.3.8z" style="fill:#fff"/></g><g style="opacity:.6"><path d="M82.9 93.4zm0 .1c0-.1 0-.1 0 0 0-.1 0-.1 0 0 0-.1 0-.1 0 0 0-.1 0-.1 0 0zm.2.5zm.1.3zm-.1 0zm0-.3zm-.1-.5zm0 .3zm-.1-.1s.1 0 0 0c.1 0 0 0 0 0zm0-.1zm.1.3zm1.4 2.8zm-.1.2zm-1.1-2.5zm.3.9c.1 0 .1 0 0 0 .1 0 0 0 0 0zm-.5-1.8zm.6 1.8zm-.3-.6zm-.1-.2zm.1.2zm.1.1zm.9 1.6s-.1.1 0 0c0 0 0 .1 0 0zM83 93.5zm.5 1.1c0 .1 0 .1 0 0zm.5 1.2zm-.4-1.1zm.6 1.8z" style="fill:#fff"/><path d="M84.3 96.5c-.1 0-.1-.1-.1-.1s.1-.1 0-.1c0 0-.1 0 0 0 0 0-.1 0 0 0h-.1v-.1s-.1 0-.1-.1c0 0-.1 0 0 0V96h-.1v-.5c-.1 0 0 0 0-.1.1 0 0-.1 0-.1v-.2h-.1c-.1 0 0-.1-.1-.1 0 0-.1 0 0-.1 0 0-.1 0-.1-.1h.1-.1v-.1h-.1.1-.2v-.1s-.1 0-.1-.1c-.1 0 0 0 0 0h-.1c.1-.1-.1 0 0-.1 0 0-.1 0 0 0h-.1.1v-.1H83c-.1 0 0 0 0 0h.1-.1v.1h.1v.1s.1 0 0 .1c0 0 .1 0 0 0h.1-.1.1-.1.1-.1v.1s.1 0 0 0h.3-.1.1c-.1 0 0 0-.1.1v.1h.2s.1 0 .1.1h.1v.1s.1 0 .1.1v.1c-.1.1.1.1 0 .1v.1h.1v.1s0 .1 0 0h.1-.1.1l-.1.1h.2c0 .1.1 0 .1.1s.1.1 0 .2c0 0-.1.1 0 .1h-.1.1s.1 0 .1-.1h-.1c.1 0 0 0 0 0h-.1c.2.6.2.6.2.5 0 .1 0 .1 0 0 0 .1 0 .1 0 0 0 .1 0 .1 0 0 0 .1 0 .1 0 0 0 .1 0 .1 0 0zm-.2-.3s0 .1 0 0c0 .1 0 0 0 0zm0 0zm-.1.2c0-.1 0-.1 0 0 0-.1 0-.1 0 0 0-.1 0-.1 0 0 0-.1 0 0 0 0zm0-.1zm-.9-2.3zm.9 1.8zm-.9-2zm0-.1zm0 0s-.1 0 0 0c-.1 0-.1 0 0 0zm.3.7zm-.2-.2c.1 0 .1 0 0 0 .1 0 .1 0 0 0zm.3.4zm-.2-.4zm-.3-.8zm0 0zm0 0zm0 .1zm0 0zm-.1.2s0-.1 0 0zm0 0zm.2.4zm.1 0zm-.1.1zm.2.6c.1 0 0 0 0 0zm.2.3zm.3.8h-.1.1z" style="fill:#fff"/></g></g></svg>