<svg xmlns="http://www.w3.org/2000/svg" viewBox="0 0 131.2 142.8" style="enable-background:new 0 0 131.2 142.8" xml:space="preserve"><style>.st5{fill:#d83429}.st6{fill:#ff8a65}.st7{fill:none;stroke:#ef7937;stroke-width:.925;stroke-miterlimit:10}.st8{fill:#d9413d}.st9{fill:#ff8a65}.st10{fill:none;stroke:#d83429;stroke-width:.8491;stroke-miterlimit:10}.st11{fill:#d9413d}.st12{fill:#ff8a65}.st13{fill:none;stroke:#d9413d;stroke-width:.8491;stroke-miterlimit:10}.st14{opacity:.37}.st15{clip-path:url(#SVGID_2_)}.st16{clip-path:url(#SVGID_4_)}.st17{clip-path:url(#SVGID_6_)}.st18{clip-path:url(#SVGID_8_)}.st19{clip-path:url(#SVGID_10_)}.st20{clip-path:url(#SVGID_12_)}.st21{clip-path:url(#SVGID_14_)}.st22{clip-path:url(#SVGID_16_)}.st23{clip-path:url(#SVGID_18_)}.st24{clip-path:url(#SVGID_20_)}.st25{fill:none;stroke:#d9413d;stroke-width:.925;stroke-miterlimit:10}.st26{clip-path:url(#SVGID_22_)}.st27{clip-path:url(#SVGID_24_)}.st28{clip-path:url(#SVGID_26_)}.st29{clip-path:url(#SVGID_28_)}.st30{clip-path:url(#SVGID_30_)}.st31{fill:none;stroke:#d9413d;stroke-width:.925;stroke-miterlimit:10}.st32{clip-path:url(#SVGID_32_)}.st33{clip-path:url(#SVGID_34_)}.st34{clip-path:url(#SVGID_36_)}.st35{clip-path:url(#SVGID_38_)}.st36{clip-path:url(#SVGID_40_)}.st37{fill:#d9413d}.st39{fill:#ee8423}.st40{fill:#f18a50}.st41{fill:#019788}.st42{fill:#32867a}.st43{fill:#f67258}.st44{fill:#de5956}.st45{opacity:.5}.st46{fill:#4b5d9a}.st47{opacity:.6}.st48{fill:#21a497}.st49{fill:#f7846d}.st50{fill:#26a59a}.st51{opacity:.65;fill:none;stroke:#fff;stroke-width:.2;stroke-miterlimit:10}.st52{fill:#ffccbc}.st53{fill:none;stroke:#31458b;stroke-miterlimit:10}.st54{fill:#d83429}.st55{fill:none;stroke:#f5a800;stroke-miterlimit:10}.st55,.st56,.st57{stroke-width:.2}.st56{fill:none;stroke:#4db6ac;stroke-miterlimit:10}.st57{stroke:#ff8a65}.st57,.st58,.st59,.st60,.st61{fill:none;stroke-miterlimit:10}.st58{opacity:.65;stroke:#fff;stroke-width:.5}.st59{stroke:#ef7937}.st60{stroke:#147467}.st61{stroke:#d9413d}.st62{fill:#d9413d}.st63,.st64,.st65{fill:#ffccbc}</style><g id="Calque_1"><path d="M78.4 114.4s-34.8-.3-42.4 1.2 19.6 5.9 34 5c14.4-.9 25-3.8 20.8-4.7-4.3-1-8.7-1.3-12.4-1.5z" style="opacity:5.000000e-02"/><path d="M65.4 101.2c-.1.6-.1.6-.1 1.2s.1.6.1 1.2-.1.6-.1 1.2v2.4c0 .6-.1.6-.1 1.2v2.4c0 .6.1.6.1 1.2s-.1.6-.1 1.2-.1.6-.1 1.2c0 .5.5.9.9.9h1.3c.6 0 .6-.1 1.3-.1.6 0 .7-.8.2-1-.5-.1-.5 0-1 0s-.5.1-1 .1c-.3-.1-.5-.5-.5-.8v-1.2c0-.6-.1-.6-.1-1.2s.1-.6.1-1.2v-2.4c0-.6-.1-.6-.1-1.2s-.1-.6-.1-1.2v-1.2c0-.6.1-.6.1-1.2s.1-.6.1-1.2-.1-.6-.1-1.2.6-1 .1-1.2c-.5-.2-.3.6-.6 1-.1.6-.1.6-.3 1.1zm-2.8 0c.1.6 0 .6 0 1.2s.1.6.1 1.2-.1.6-.1 1.2v1.2c0 .6.2.6.2 1.2s-.1.6-.1 1.2.1.6.1 1.2-.1.6-.1 1.2v1.2c0 .6-.1.6-.1 1.2v1.2c0 .5-.3.9-.8.9h-1.3c-.6 0-.6.1-1.3.1-.6 0-.7-.8-.2-1 .5-.1.5-.2 1-.3.5 0 .5.1 1 .1.3-.1.6-.5.6-.9 0-.6-.2-.6-.2-1.2s.1-.6.1-1.2.1-.6.1-1.2-.1-.6-.1-1.2v-1.2c0-.6.1-.6.1-1.2s-.1-.6-.1-1.2v-1.2c0-.6.1-.6.1-1.2v-2.4c0-.6-.5-.9.1-1.1.5-.2.1.5.4 1 .2.8.3.7.5 1.2zm-29-4.4c0 .3.3.6.4.9.2.3.3.6.5.9.2.3.3.6.5.9.2.3.4.6.6.8.2.3.5.4.7.7.2.3.4.5.6.8.2.2.4.6.6.8.2.2.6.4.9.6-.1.4-.1.8-.1 1.1 0 .4.1.7.2 1.1.1.4.2.7.4 1.1.2.3 1.1.7 1.1.6.1-.1-.1-.9-.3-1.2-.2-.3-.3-.6-.4-.9-.1-.3-.2-.7-.2-1l.9.6c.3.2.5.4.8.6.3.2 1.1 0 1.2-.1 0-.1-.5-.7-.8-.8-.3-.2-.5-.5-.8-.6-.3-.2-.7-.2-1-.4l.1-.2c.3-.3.6-.4 1-.5.4-.1.8 0 1.1 0 .6.1 1.2-.3 1.3-.5 0-.1-.2-.6-.7-.7h-1c-.3 0-.6.1-.9.1-.3.1-.6.1-.9.2-.3.1-.5.4-.7.6 0 0-.1 0-.1.1-.3-.2-.5-.5-.7-.7-.2-.2-.6-.4-.8-.6-.2-.3-.3-.6-.5-.9-.2-.3-.4-.5-.6-.8-.2-.3-.5-.5-.6-.8-.2-.3-.2-.7-.4-1-.2-.3-.4-.6-.6-.8 0 0 0-.5.2-1.2.1-.2.1-.6.2-.9.1-.4.3-.6.5-.9.2-.3.3-.5.6-.8.3-.3.3-.3.6-.5.2-.2.7-.7.9-.8v-1s-.9.4-1.8 1.2c-.3.2-.5.5-.7.8-.2.2-.4.6-.6.9-.2.3-.2.7-.4 1.1-.1.3-.3.7-.4 1s.1.6.1 1.1zm61.7.1c0 .3-.3.6-.4.9-.2.3-.3.6-.5.9-.2.3-.3.6-.5.9-.2.3-.4.6-.6.8-.2.3-.5.4-.7.7-.2.3-.4.5-.6.8-.2.2-.4.6-.6.8-.2.2-.6.4-.9.6.1.4.1.8.1 1.1 0 .4-.1.7-.2 1.1-.1.4-.2.7-.4 1.1-.2.3-1.1.7-1.1.6-.1-.1.1-.9.3-1.2.2-.3.3-.6.4-.9.1-.3.2-.7.2-1l-.9.6c-.3.2-.5.4-.8.6-.3.2-1.1 0-1.2-.1 0-.1.5-.7.8-.8.3-.2.5-.5.8-.6.3-.2.7-.2 1-.4l-.1-.2c-.3-.3-.6-.4-1-.5-.4-.1-.8 0-1.1 0-.6.1-1.2-.3-1.3-.5 0-.1.2-.6.7-.7h1c.3 0 .6.1.9.1.3.1.6.1.9.2.3.1.5.4.7.6 0 0 .1 0 .1.1.3-.2.5-.5.7-.7.2-.2.6-.4.8-.6.2-.3.3-.6.5-.9.2-.3.4-.5.6-.8.2-.3.5-.5.6-.8.2-.3.2-.7.4-1 .2-.3.4-.6.6-.8 0 0 0-.5-.2-1.2-.1-.2-.1-.6-.2-.9-.1-.4-.3-.6-.5-.9-.2-.3-.3-.5-.6-.8-.3-.3-.3-.3-.6-.5-.2-.2-.7-.7-.9-.8v-1s.9.4 1.8 1.2c.3.2.5.5.7.8.2.2.4.6.6.9.2.3.2.7.4 1.1.1.3.3.7.4 1-.1.3-.1.7-.1 1.1z" style="fill:#d83429"/><path d="M63.6 53.9c-.7.5-1.4 1.4-1.3 2.5.1.7.8 1.4 1.8 2.1.6.5 1.2 1.3 2.3 1.7.8.3 1.7.4 2.8.6.8.2 1.8.1 2.8.2.9.1 1.8.6 2.8.8.9.2 1.9.3 2.8.6.9.3 1.8.7 2.6 1.2.8.4 1.7.9 2.5 1.4.8.5 1.3 1.5 2 2.1.7.6 1.5 1.2 2.1 1.9.7.7 1.3 1.3 1.9 2.1.6.8 1.3 1.4 1.9 2.2.5.8.9 1.7 1.3 2.5.4.9.4 1.9.7 2.8.3.9.6 1.8.7 2.7.2.9.5 1.9.5 2.8 0 .9-.3 1.9-.5 2.9-.1.9-.4 1.8-.6 2.8-.2.9-.5 1.8-.8 2.7-.3.9-.5 1.8-1 2.7-.4.9-.8 1.8-1.3 2.6s-.8 1.8-1.4 2.6c-.6.8-1.5 1.3-2.1 2-.7.7-1.3 1.5-2 2.1-.7.6-1.7.9-2.5 1.5-.8.5-1.4 1.5-2.2 1.9-.8.4-1.8.7-2.7 1-.9.3-1.8.5-2.8.8-.7.2-1.6-.1-2.5-.5-.7-.3-1.4-1-2.1-1.4-.7-.4-1.6-.8-2.3-1.1-.8-.4-1.7-.4-2.5-.4-.9 0-1.8 0-2.6.3s-1.6.8-2.3 1.2c-.8.4-1.5.9-2.3 1.2-.8.3-1.7.7-2.6.5-1-.3-1.9-.8-2.7-1.1-.9-.4-1.9-.7-2.7-1.1-.9-.5-1.4-1.5-2.2-2-.8-.6-1.6-1.1-2.3-1.8-.7-.7-1.8-1-2.4-1.8-.7-.7-1-1.8-1.5-2.5-.6-.8-1.3-1.5-1.8-2.4-.5-.9-.6-1.9-1-2.8-.4-.9-1.1-1.7-1.4-2.6-.4-1-.6-1.8-.7-2.6-.1-1-.1-2 .1-2.7.3-1 .9-1.8 1.5-2.3 1.1-.9 1.3-.5 2.5-.8 1.4-.4.8-.5 2.8-1.1.8-.2 1.7-.7 2.8-1 1-.3 2-.2 3 0 .9.2 1.7.9 2.7 1.3.9.4 1.8.8 2.7 1.3.9.5 1.9.6 2.8 1 .9.4 1.7 1.2 2.6 1.5.8.2 1.8-.1 2.7 0 .9.1 1.8.1 2.7 0 1-.1 1.9-.2 2.6-.4 1.1-.4 2.1-.8 2.2-1.5.1-.6-.4-1.4-1.1-2.5-.4-.6-.6-1.6-1.4-2.3-.6-.5-1.7-.6-2.5-1.1-.7-.4-1.3-1.2-2.2-1.5-.8-.3-1.7-.2-2.7-.6-.8-.3-1.6-.8-2.5-1.1-.8-.2-1.7-.3-2.7-.5-1-.2-2-.2-2.9-.5-1-.3-1.7-1.2-2.5-1.5-.9-.4-2-.3-2.8-.8-.9-.5-1.3-1.5-2-2.1-.7-.6-1.8-.9-2.4-1.7-.6-.7-1.1-1.6-1.5-2.5-.5-.8-.9-1.7-1.3-2.6-.3-.9-.6-1.8-.8-2.8-.3-1-.2-2-.3-3-.1-.9-.6-1.8-.7-2.8-.1-.9.3-1.9.3-2.9s-.3-2-.2-3c.1-1 .3-2 .4-3 .2-1 .5-1.9.7-2.9.2-1 .2-2 .5-3s1.2-1.7 1.6-2.6c.4-.9.9-1.7 1.5-2.6.6-.8 1-1.7 1.6-2.5.7-.7 1.4-1.4 2.2-2 .8-.6 1.5-1.3 2.4-1.7.8-.4 1.6-.8 2.6-.9.8-.1 1.8 0 2.7.1.9.1 1.8.3 2.7.5.9.2 1.7.6 2.6.8.9.2 1.8.3 2.7.4.9.1 1.8.5 2.7.5 1 0 2-.2 3-.4s1.9-.5 2.9-.8l3-.6c1-.2 2-.4 3-.5 1.1-.1 2.1-.3 2.9 0 1 .4 1.8 1 2.6 1.5.9.6 1.7 1.2 2.3 1.9.7.8 1.5 1.5 2.1 2.3.6.9.8 1.9 1.3 2.8.5.9 1.2 1.7 1.7 2.5s.8 1.8 1 2.9c.2.9.3 2 .2 3-.1 1-.5 2-.8 2.9-.4 1-.8 1.8-1.5 2.6s-1.5 1.2-2.2 1.7c-.9.5-1.7.7-2.6.8-1 .1-1.9.2-2.8.1-1-.2-1.9-.5-2.7-.8-1-.4-2-.2-3-.3-1-.1-2-.1-2.9-.1-1 .1-2.1-.2-3 0-1 .3-1.9 1-2.7 1.3-1 1-2 1.3-2.6 1.7z" style="fill:#ff8a65"/><path d="M80.6 87.1s-3.9-4-9-1.1-4.6 10.6.6 12.2 8.6-.5 9.4-2.7c.8-2.3 1.3-6.3-1-8.4z" style="fill:#fff"/><circle cx="76" cy="92.4" r="4.4"/><path d="M57.1 88.2s-3.9-4-9-1.1c-5.2 2.9-4.5 10.7.6 12.3 5.2 1.6 8.6-.5 9.4-2.7.8-2.4 1.3-6.4-1-8.5z" style="fill:#fff"/><circle cx="52.4" cy="93.7" r="4.3"/><path d="M43.3 99.3s3.7-4.5 9.1-4.1 8.1 4.1 8.1 4.1-4.4 4.1-8.1 2.8c-3.7-1.2-9.1-2.8-9.1-2.8zm23.2 0s3.7-4.5 9.1-4.1c5.4.4 8.1 4.1 8.1 4.1s-4.4 4.1-8.1 2.8c-3.6-1.2-9.1-2.8-9.1-2.8z" style="fill:#ff8a65"/><g style="opacity:.65"><path d="M55.4 99.6h.1-.1zm.3-.2h-.4.4c-.1.1-.1.1-.2.1h.1c.1 0 .1-.1 0-.1h.1zm-1.4-2.2c.1 0 0 0 0 0zm-1.6-.6zm-.3-.2zm1.9.8c0-.1 0-.1 0 0zm.9 1.9c.1 0 .1 0 0 0zm-.1-1.6zm.4.4s-.1.1-.2.1c.1 0 .1 0 .2-.1 0 .1 0 0 0 0zm.3 1zm-1.1-1.7s.1 0 0 0zm.3 2.8zm.8-.4zm-4-3.3zm-3 4.1c.1-.1.2.1.3-.1-.1 0-.3 0-.3.1zm6.5-1.3zm-6.2 1.2zm1.4-3.5zm1-.1zm-1.3.5c-.1 0-.1 0 0 0-.1 0-.1 0 0 0zm-.4.4zm4.7 3.3c0 .1 0 .1 0 0zm.8-1.8zm-4.5-.9c-.1 0 0 0 0 0zm1 3.4c0-.1 0-.1 0 0zm-1.2-3.3s-.1 0 0 0c-.1 0-.1 0 0 0zm4 2.7z" style="fill:#fff"/><path d="m54.6 100.5.2.2c0 .1-.1 0-.2-.2 0 .2.1.3.1.3l-.1-.1c.1.1-.1.1 0 .3l.2.2s0 .1-.1 0v-.1.1c-.1-.1 0-.1-.1-.2v.2c-.1-.1 0-.1-.1-.2h.1l-.2-.2c-.1 0 0 .1-.1.1 0 .1.1.1.1.2 0 .2-.3-.3-.3-.1 0 .1.1.3 0 .2l-.1-.2c-.1 0 .1.3 0 .2v-.1c-.1-.1 0 .1 0 .1l-.1-.1c-.1.1-.1.2-.2.3 0 0 0-.1-.1-.1-.1.1-.3.1-.4 0v.2-.1c-.1 0 0 .1 0 .2 0 0-.1-.1 0-.1 0 .1-.2.3-.3.2-.1-.1 0 .3-.1.2-.2-.1-.3.1-.4-.1 0 .2-.1-.1-.2.2-.1-.2 0-.2-.1-.3l-.1.2v-.2l-.1.1v-.2.1c-.1.1-.1-.1-.1-.2-.1 0-.1.1-.2.1 0-.1 0-.1.1-.1-.1.1 0-.2-.1 0v.1c0-.1-.1-.1-.1-.1v-.1c-.1-.1-.2 0-.3-.1 0 .1-.1.2-.1.2l.1-.2c-.1.1 0 .1-.1.2l.1-.2h-.1s0-.1.1-.1c-.1.1 0-.2-.1 0-.1-.1-.2 0-.2-.1-.1.1-.1.1-.2.1 0-.1 0-.2-.1-.2s-.1.1-.2.1c.1-.1 0-.1.1-.2-.1 0-.1-.1-.3-.1 0 0 0 .1-.1.1 0 0 0-.1.1-.1-.2 0 .1-.4-.1-.4h-.2c0-.1.1 0 .2-.1-.2 0 0-.2-.2-.2.3-.2-.1-.2.1-.4h-.1.1-.1c-.1-.2.1-.4.3-.5 0-.1-.4-.2-.2-.2l.1.1c-.1-.2.1-.3.1-.5l.1.1c.1 0 .1-.1 0-.2l.1.1c.1 0-.1-.2 0-.1 0-.1.1-.1 0-.1.1 0 0-.1.1-.1-.1-.1.1 0 0-.2.1.2.2.1.2 0 0 .1.1 0 .1.1V98c.2.2 0-.3.2 0 .1-.2.1-.3.2-.4.1.2-.1.1 0 .3.1-.1.1-.3.2-.3v.1c.1-.1.2 0 .3-.2v.1s.1 0 0-.1 0-.3 0-.4c0 .3.1 0 .1.4v-.1.1c.1-.1 0-.2.1-.2v.1c0-.1 0-.2.1-.2v.1c.1 0 .2-.3.3-.2v.3l.1-.1v-.1c.1 0 .1-.1.2-.1v.1h.1l-.1-.1c.1-.1 0-.2.1-.2 0 0 .1 0 .1.1 0-.1.1-.1.1-.1v.2c0-.2.1 0 .2-.2v.2-.1.1c.1 0 0-.2.1-.1s.2 0 .3 0c0 .2-.1 0-.1.2.1 0 .3-.2.4-.1.1-.2 0 .2.1.1l-.1.1c.1.1.2 0 .3 0v.1c0 .1.1.1.1.1 0-.1.1 0 .1-.1-.1.4.4 0 .3.3h-.1.1c.1-.1 0-.1.1-.1s.1-.1.1 0c-.1 0-.1.1-.1.2l.1-.1c-.1.2.2-.2.1 0h.1c-.1.1-.1 0-.1.1 0 0 .2-.1.2 0H55c-.1.1-.1.1 0 .2v.1c.3-.2.1.1.4 0-.2.1-.1.1-.2.1 0 0 0 .1-.1.1.1 0 0 .1.1 0l-.1.1c.1 0 .1-.1.1-.1.2 0-.1.2.1.2.1 0 .3 0 .4.1-.1.1-.2 0-.2 0-.1.1 0 .1 0 .1h-.1.1-.2c.1 0 .1 0 .2.1h-.2s.1.1.2.1h-.1c-.1 0 0-.1.1-.1.3-.1-.1-.1-.1-.2h.2-.2s.2-.1.2 0c.1-.1-.1 0 0-.1h-.1s.1-.1.1 0c.1-.1-.2-.1-.1-.2-.1-.1-.1 0-.3 0l.3-.2-.1.1.1-.1c-.1 0-.1 0-.2.1.1-.1-.1-.1.1-.2-.1 0 0 .1-.1.1.2-.2-.1 0 0-.2.1-.1.1 0 .2-.1-.2.1 0-.1-.1-.1-.1.1-.1 0-.2-.1v-.3c-.1.1-.2 0-.2 0 .1-.1.1-.1.2-.1h-.1l.1-.1c-.1 0-.2 0-.2-.1-.1.1-.2.3-.3.3 0-.1.1-.2.1-.2h-.1l.1-.1c0-.1-.1.1-.1 0 .1-.1 0-.1.1-.1 0 0 0 .1 0 0v-.2l-.1.1c-.1 0 0-.1 0-.2-.1 0-.1 0-.1.1v-.1c-.1 0-.2-.1-.2.1-.2.6-.2.3-.4.3-.1 0-.2 0-.2.1v-.2c-.1 0-.1.1-.1 0 .1-.1 0-.1.1 0-.1-.1-.1-.1-.2 0 .1-.1 0-.2-.1-.1v.1h-.1l.1-.2c-.1-.2-.3.3-.4-.1-.1.1.1.1 0 .2-.1 0-.1-.3-.1-.3-.1-.1-.1.2-.2.2 0 .1 0 .2-.1.3-.1 0-.1-.3 0-.3 0 0 .1 0 0-.1v.1c0-.1-.1-.1-.1-.2-.1.1 0 .1 0 .1-.1-.1-.1 0-.2-.1v.1c-.1-.1-.1.1-.1.1-.1-.1 0-.2-.1-.1-.1-.1 0-.2 0-.2-.1.1-.2-.1-.2-.1v-.1h-.1v.1s-.1 0-.1-.1v.3c0-.1-.1.1-.1-.1.1 0 0-.2.1-.2h-.1c-.1-.1 0 .2-.1.2 0-.1-.1-.2-.1-.1v.2c-.1-.1-.1.1-.1.1 0 .1 0 .1-.1.1v-.1c0 .2-.2-.1-.2 0-.1 0 0-.2-.1-.2-.1.1-.1-.1-.2 0 .1.1.1.1 0 .2l.1-.1v.2l.1-.1v.2c-.1-.2-.1.1-.2 0l.2-.1c-.1-.1-.1.2-.3.2h.1c0 .1-.1.1-.1.1 0-.1-.1-.1-.1-.2 0 .1-.1 0 0 .2h-.2c-.1 0 0 .3-.1.3 0-.1-.1-.1-.1-.2 0 0-.1 0 0 .1-.1 0 0 .2-.1.1 0 0 .1.1 0 .1 0 0 0 .1.1.2-.3-.2-.2.2-.5.1 0 .1-.1.2-.1.2-.1 0 .2.2 0 .2-.2-.1 0-.1-.1-.1-.3-.2 0 .1-.2.1-.1 0 0 .2-.1.3.1.1.1.3.1.4-.1-.1 0-.1-.2-.1 0 0 .2.1.2.2H49v-.1c-.2 0 0 .1-.1.1h-.1c0 .1.2.2.1.3h.1c.2.1-.1 0 0 .1h-.2c0 .1.2.2.2.3-.1-.1-.2-.2-.3-.2 0 0 0 .2.1.2 0 0-.1-.1 0-.1l.2.2c-.4 0-.1.2-.4.3.1.2 0 .3 0 .6.3-.1 0 .1.3 0v.1l-.1.2c-.1.1-.1 0-.1 0 0 .1-.1.1-.2.2.1-.1.2 0 .1 0l.1-.1c.2.1-.2.2 0 .3h-.1c.1 0 .1.3.4.2l-.1.1c.1.2.4.2.4.4h-.1s.1-.1.1 0c0 0-.1 0-.1.1h.2-.1c.1.2.3 0 .5.1-.1.2-.1.3 0 .4.1.1.4 0 .6 0 0 .3.3.3.4.4l.1-.2c0 .1.2-.1.1.1 0 .2.1.2.1.2l.1-.3c.1.4.5 0 .5.3l.1-.1v.1c.1 0 .2.1.3.1v.1c.1 0 .1-.4.2-.4v.2c.1 0 .3.2.4 0v.1c.1 0 .3.1.2-.2 0 .2.1 0 .2-.1v.1c0-.2 0-.2.1-.3v.1c.1.1 0-.1.1-.1v.1c.1 0 .1 0 .1-.2 0-.1.1 0 .2.1v-.2.1c.1.1.1-.2.2-.1v.1h-.2c0 .1.1.1.1.3 0-.1.1-.3.1-.3h.1c0 .1.1 0 .1 0-.1-.1 0-.1-.1-.2h-.1c0-.1 0-.1.1-.1v-.2c.1.2.3.2.3.3.1-.1.2-.2.1-.4 0 0 .1 0 .1.1v.1c0-.1.1-.1.1-.3.1 0 .1.2.1.1v.1c.4.1 0-.6.4-.5h-.1c.3-.1.2-.5.6-.6.1-.1 0-.1-.1-.2h.1l-.1-.1c-.1-.1.4-.1.2-.3h-.1s0-.2.1-.1c0 0-.1 0 0 0h.1c0-.1-.1-.1-.1-.1.1-.1.3.1.3-.1 0-.1-.2-.2-.3-.1l-.1.1h-.6l.1.1h-.1c-.1 0 0 0 0 .1h-.1l.2.1h-.2c.1 0 .2 0 .3.1h-.2c.1 0 0 .1.1.1-.1 0 0 .1-.2 0 0 0 .1.1.2.1-.2-.1 0 .1-.3 0 .2.1.1.2.1.3h-.2c.2.1.2.2.3.3-.2-.1-.2-.1-.3-.2.1.1.1.2.2.2-.1 0-.1 0-.2-.1.2.1 0 0 .1.2-.1 0-.2-.1-.2 0 .1-.8.1-.9.1-.9zm-.9 1.1zm-.1 0c0 .1 0 0 0 0 .1.1.1.1 0 0 .1.1 0 .1 0 0zm.6.8c0 .1 0 .1 0 0zm0-.1v-.1.1zm.2-5.1zm-2.5 4.3zm2.8-3.5zm.2.2c0 .1 0 .1 0 0zm.1.3s0-.1 0 0zm-3.3-.9zm1.1-.4zm-2 1zm1.9-1c0 .1 0 .1 0 0zm2.6 2.1zm0 0zm0 .1c0-.1 0 0 0 0z" style="fill:#fff"/><path d="M55.3 99c-.1.1-.1 0 0 0z" style="fill:#fff"/><path d="M55.2 99s-.1 0 0 0c-.1.1.1 0 0 0zm.4-.7v.1l.1-.1c.1-.1 0 .1-.1 0zm-.1-.3c.1.1.1 0 0 0zm-1.7-1.2v-.1.1zm-.5.6v.1-.2zm-.1-1v.1zm-3.5 1 .1.1c.1 0-.1-.2-.1-.1zm-.7 1.5c-.1 0-.2 0 0 0-.1 0 0 0 0 0zm2.3 3.8h-.1.1z" style="fill:#fff"/></g><g style="opacity:.65"><path d="M78.3 99.6h.1-.1zm.3-.2h-.4.4c-.1.1-.1.1-.2.1h.1c.1 0 .1-.1 0-.1h.1zm-1.2-2.2zm-1.7-.6c.1 0 .1 0 0 0 .1 0 0 0 0 0zm-.3-.2c.1 0 .1 0 0 0 .1 0 .1 0 0 0zm2 .8c-.1 0-.1 0 0 0zm.8 1.9c0 .1 0 .1 0 0zm-.2-1.6c.1 0 .1 0 0 0zm.5.4s-.1.1-.2.1c.1 0 .1 0 .2-.1-.1.1-.1.1 0 0zm.2 1zm-1-1.7s.1 0 0 0zm.2 2.8zm.8-.4h.1zm-3.8-3.3zm-2.9 4c.1-.1.2.1.3-.1-.1.1-.3 0-.3.1zm6.2-1.2zm-5.9 1.2v-.1zm1.3-3.5s0 .1 0 0c0 .1 0 0 0 0zm1-.1zm-1.3.6s-.1-.1 0 0c0 0 0-.1 0 0zm-.4.3zm4.5 3.3s.1.1 0 0c0 0 .1 0 0 0zm.8-1.8zm-4.3-.9zm1 3.4c0-.1 0-.1 0 0zm-1.1-3.3c-.1 0-.1 0 0 0-.1 0-.1 0 0 0zm3.7 2.7z" style="fill:#fff"/><path d="m77.5 100.5.2.2c0 .1-.1-.1-.2-.2 0 .2.1.3.1.3l-.1-.1c.1.1-.1.1 0 .3l.2.2s0 .1 0 0v-.1.1c-.1-.1 0-.1-.1-.2v.2c-.1-.1 0-.1-.1-.2h.1l-.2-.2c-.1 0 0 .1-.1.1 0 .1.1.1.1.2 0 .2-.3-.3-.3-.1 0 .1.1.3 0 .2l-.1-.2c-.1 0 .1.3 0 .2v-.1c-.1-.1 0 .1 0 .1l-.1-.1c-.1.1-.1.2-.2.3 0 0 0-.1-.1-.1-.1.1-.3.1-.4 0v.2-.1c-.1 0 0 .1 0 .2 0 0-.1-.1 0-.1 0 .1-.2.3-.3.2-.1-.1 0 .3-.1.2-.1-.1-.3.1-.4-.1 0 .2-.1-.1-.2.2-.1-.2 0-.2-.1-.3l-.1.2v-.2l-.1.1v-.2.1c-.1.1-.1-.1-.1-.2l-.2.1c0-.1 0-.1.1-.1-.1.1 0-.2-.1 0v.1c0-.1-.1-.1-.1-.1v-.1c-.1-.1-.2 0-.3-.1 0 .1-.1.2-.1.2l.1-.2c-.1.1 0 .1-.1.2l.1-.2h-.1s0-.1.1-.1c-.1.1 0-.2-.1 0-.1-.1-.2 0-.2-.1-.1.1-.1.1-.2.1 0-.1 0-.2-.1-.2s-.1.1-.2.1c.1-.1 0-.1.1-.2-.1 0-.1-.1-.2-.1 0 0 0 .1-.1.1 0 0 0-.1.1-.1-.2 0 .1-.4-.1-.4H73c0-.1.1 0 .2-.1-.2 0 0-.2-.2-.2.3-.2-.1-.2.2-.3h-.1.1-.1c-.1-.2.1-.4.3-.5 0-.1-.4-.2-.2-.2l.1.1c-.1-.2.1-.3.1-.5l.1.1c.1 0 .1-.1 0-.2l.1.1c.1 0-.1-.2 0-.1 0-.1.1-.1 0-.1.1 0 0-.1.1-.1-.1-.1.1 0 0-.2.1.2.2.1.2 0 0 .1.1 0 .1.1v-.2c.2.2 0-.3.2 0 .1-.2.1-.3.2-.4.1.2-.1.1 0 .3.1-.1.1-.3.2-.3v.1c.1-.1.2-.1.3-.2v.1s.1 0 0-.1 0-.3 0-.4c0 .3.1 0 .1.4v-.1.1c.1-.1 0-.2.1-.2v.1c0-.1 0-.2.1-.2v.1c.1 0 .2-.3.3-.2v.3l.1-.1v-.1c.1 0 .1-.1.1-.1v.1h.1l-.1-.1c.1-.1 0-.2.1-.2 0 0 .1 0 .1.1 0-.1.1-.1.1-.1v.2c0-.2.1 0 .2-.2v.2-.1.1c.1 0 0-.2.1-.1s.2 0 .3 0c0 .2-.1 0-.1.2.1 0 .3-.2.4-.1.1-.2 0 .2.1.1l-.1.1c.1.1.2 0 .3 0v.1c0 .1.1.1.1.1 0-.1.1 0 .1-.1-.1.4.4 0 .3.3h-.1.1c.1-.1 0-.1.1-.1s.1-.1.1 0c-.1 0-.1.1-.2.2l.1-.1c-.1.2.2-.2.1 0h.1c-.1.1-.1 0-.2.1 0 0 .3-.1.2 0h-.1c-.1.1-.1.1-.1.2v.1c.3-.2.1.1.4 0-.2.1-.1.1-.2.1 0 0 0 .1-.1.1.1 0-.1.1.1 0l-.1.1c.1 0 .1 0 .1-.1.2 0-.1.2.1.2.1 0 .3 0 .4.1-.1.1-.2 0-.2 0-.1.1 0 .1 0 .1h-.1.1-.2s.1 0 .2.1h-.2s.1.1.2.1h-.1c-.1 0 0-.1.1-.1.3-.1-.1-.1-.1-.2h.2-.2s.2-.1.2 0c.1-.1-.1 0 0-.1h-.1s.1-.1.1 0c.1-.1-.2-.1-.1-.2-.1-.1-.1 0-.3 0l.3-.2-.1.1.1-.1c-.1 0-.1 0-.2.1.1-.1-.1-.1.1-.2-.1 0 0 .1-.2.1.2-.1-.1 0 0-.1s.1 0 .2-.1c-.2.1 0-.1-.1-.1-.1.1-.1 0-.2-.1.1 0 0-.2 0-.3-.1.1-.2 0-.2 0 .1-.1.1-.1.2-.1h-.1l.1-.1c-.1 0-.2 0-.2-.1-.1.1-.2.3-.3.3 0-.1.1-.2.1-.2h-.1l.1-.1c0-.1-.1.1-.1 0 .1-.1 0-.1.1-.1 0 0 0 .1 0 0v-.2l-.1.1c-.1 0 0-.1 0-.2-.1 0-.1 0-.1.1v-.1c-.1 0-.2-.1-.2.1.1.4.1.1-.1.1-.1 0-.2 0-.2.1v-.2c-.1 0-.1.1-.1 0 .1-.1 0-.1.1 0-.1-.1 0-.1-.2 0 .1-.1 0-.2-.1-.1v.1h-.1l.1-.2c-.1-.2-.3.3-.4-.1-.1.1.1.1 0 .2-.1 0-.1-.3-.1-.3-.1-.1-.1.2-.2.2 0 .1 0 .2-.1.3-.1 0-.1-.3 0-.3 0 0 .1 0 0-.1v.1c0-.1-.1-.1-.1-.2-.1.1 0 .1 0 .1-.1-.1-.1 0-.2-.1v.1c-.1-.1-.1.1-.1.1-.1-.1 0-.2-.1-.1-.1-.1 0-.2 0-.2-.1.1-.2-.1-.2-.1v-.1h-.1v.1s-.1 0-.1-.1v.3c0-.1-.1.1-.1-.1.1 0 0-.2.1-.2h-.1c-.1-.1 0 .2-.1.2 0-.1-.1-.2-.1-.1 0 0 .1.1 0 .2-.1-.1-.1.1-.1.1 0 .1 0 .1-.1.1v-.1c0 .2-.2-.1-.2 0-.1 0-.1-.2-.1-.2 0 .1-.1-.1-.2 0 .1.1.1.1 0 .2l.1-.1v.2l.1-.1v.2c-.1-.2-.1.1-.2 0l-.1-.3c-.1-.1-.1.2-.3.2h.1c0 .1-.1.1-.1.1 0-.1-.1-.1-.1-.2 0 .1-.1 0 0 .2l.2.2c-.1 0 0 .3-.1.3 0-.1-.1-.1-.1-.2 0 0-.1 0 0 .1-.1 0 0 .2-.1.1 0 0 .1.1 0 .1 0 0 0 .1.1.2-.3-.2-.2.2-.4.1 0 .1-.1.2-.1.2-.1 0 .2.2 0 .2-.2-.1 0-.1-.1-.1-.3-.2 0 .1-.2.1-.1 0 0 .2 0 .3.1.1.1.3.1.4-.1-.1 0-.1-.2-.1 0 0 .2.1.2.2h-.3v-.1c-.2 0 0 .1-.1.1h-.1c0 .1.2.2.1.3h.1c.2.1-.1 0 0 .1h-.2c0 .1.2.2.2.3-.1-.1-.2-.2-.3-.2 0 0 0 .2.1.2 0 0-.1 0 0-.1l.2.2c-.4 0-.1.2-.4.3.1.2 0 .3 0 .5.3-.1 0 .1.3 0v.1l-.1.2c-.1.1-.1 0-.1 0 0 .1-.1.1-.2.2.1 0 .2 0 .1.1l.1-.1c.2.1-.2.2 0 .3h-.1c.1 0 .1.3.4.2l-.1.1c.1.2.4.2.4.4h-.1.1s-.1 0-.1.1h.1-.1c0 .2.3 0 .4.1-.1.2-.1.3-.1.4.1.1.4 0 .6.1 0 .3.3.3.4.4l.1-.2c0 .1.2-.1.1.1 0 .2.1.2.1.2l.1-.2c.1.4.4 0 .5.3l.1-.1v.1c.1 0 .2.1.3.1v.1c.1 0 .1-.4.2-.4v.2c.1 0 .3.2.4 0v.1c.1 0 .3.1.2-.2 0 .2.1 0 .2-.1v.1c0-.2 0-.2.1-.3v.1c.1.1 0-.1.1-.1v.1c.1 0 .1 0 .1-.2 0-.1.1 0 .2.1v-.2.1c.1.1.1-.2.2-.1v.1h-.2c0 .1.1.1.1.3 0-.1.1-.3.1-.3h.1c.1.1.1 0 .1 0-.1-.1 0-.1-.1-.2h-.1c0-.1 0-.1.1-.1 0-.1 0-.2-.1-.2.1.2.3.2.3.3.1-.1.2-.2.1-.4 0 0 .1 0 .1.1v.1c0-.1.1-.1 0-.3.1 0 .1.2.1.1v.1c.4.1-.1-.6.4-.5h-.1c.3-.1.2-.5.5-.6.1-.1 0-.1-.1-.2h.1l-.1-.1c-.1-.1.4-.1.2-.3h-.1s0-.2.1-.1c0 0-.1 0 0 0h.1l-.1-.1c.1-.1.3 0 .3-.1s-.2-.2-.3-.1l-.1.1h-.6l.1.1h-.1c-.1 0 0 0 0 .1h-.1l.2.1h-.2c.1 0 .2 0 .3.1h-.2c.1 0 0 .1.1.1-.1 0 0 .1-.2 0l.2.1c-.2-.1 0 .1-.3 0 .2.1.1.1.1.3h-.2c.2.1.2.2.3.3-.2-.1-.2-.1-.3-.2l.2.2c-.1 0-.1 0-.2-.1.2.1 0 0 .1.2-.1 0-.2-.1-.2 0 .4-1 .3-1.1.3-1.1zm-.8 1.1zm-.1 0s.1 0 0 0c.1.1.1.1 0 0 .1.1 0 .1 0 0zm.7.8c-.1.1-.1 0 0 0-.1 0-.1 0 0 0zm-.1-.2v.1zm.2-5zm-2.4 4.3zm2.7-3.5s0 .1 0 0c0 .1 0 0 0 0zm.1.3zm.1.2s.1 0 0 0zm-3.1-.9zm1-.4zm-1.9 1zm1.9-1c0 .1 0 .1 0 0zm2.4 2.1zm0 0zm.1.1c-.1 0-.1 0 0 0z" style="fill:#fff"/><path d="M78.2 99c-.1.1 0 .1 0 0zm-.1 0s0 .1 0 0c0 .1.1 0 0 0zm.5-.6c0 .1.1 0 .1 0 .1-.2-.1.1-.1 0zm-.1-.3s0-.1 0 0c0-.1 0-.1 0 0zm-1.7-1.3v-.1s.1.1 0 .1zm-.5.6v.1-.2zm0-1-.1.1zm-3.4 1 .1.1-.1-.1zm-.7 1.5c-.1 0-.2 0 0 0-.1 0 0 0 0 0zm2.2 3.8h-.1.1z" style="fill:#fff"/></g><g style="opacity:.65"><path d="M57.5 43.2c.1 0 .1 0 0 0zm.1-.1c-.1 0-.1 0 0 0-.1 0-.1 0 0 0 0 0-.1 0 0 0zm-.4-.6zm-.2-.4zm0-.1zm.2.5c0-.1 0-.1 0 0zm.2.6s.1 0 0 0c.1 0 .1 0 0 0zm-.1-.5zm.1.1zm.1.3zm-.2-.5zM54.7 39zm0-.2zm2.2 3zm-.7-1.1c-.1.1-.1 0 0 0-.1.1 0 .1 0 0zm1.2 2.3zm-1.3-2.2zm.6.8zm.1.2zm-.2-.3zm-.1-.1zm-1.6-2.1c.1 0 .1 0 0 0 .1 0 0 0 0 0zm2.6 3.7s-.1 0 0 0c-.1.1-.1.1 0 0zm-1.1-1.4zm-.9-1.5zm.9 1.4zM55 39.3z" style="fill:#fff"/><path d="M54.8 39.2c0 .1.1 0 0 0 .1 0 .1 0 0 0 .1.1.1.1 0 0 .1.1.1.1 0 0 .1 0 .1.1.1.1h.1c.1 0-.1.1 0 .1h.1s.1 0 0 0c0 0 .1 0 .1.1 0 0 0 .1.1.1 0 0 .1 0 .1.1h.1l.1.1s0 .1.1 0v.1h.1v.2s0 .1.1.1l.1.1v.1l.1.1c.1 0 0 .1.1.1s0 .1.1.1c0 .1.1.1 0 .1.1.1.1.1.1.2h.1c.1 0 .1.1.1.1v.2c0 .1.1 0 0 .1l.1.1h-.1s.1 0 .1.1c0 0 0 .1.1.1h.1c-.1 0 0 0-.1.1 0 0 .1 0 .1.1h.1v.1s.1 0 .1.1l.1.1v.1c0 .1.1.1.1.1s.1 0 0 0h.1s0 .1.1.1h.3-.1l.1-.1v-.1h-.1v-.1h-.1s0 .1-.1 0c0 0 0-.1-.1-.1h-.1c0-.1-.1 0-.1-.1v-.1H57v-.2h-.2s-.1 0-.1-.1h-.1.1v-.1h-.1c.1 0 0 0 0-.1h-.4.1-.1c.1 0 0-.1 0-.1s0-.1-.1-.1H56v-.1s0-.1-.1 0c0 0-.1 0-.1-.1h-.1v-.1s-.1 0-.1-.1v-.2c0-.1-.1-.1 0-.1v-.1h-.1s0-.1-.1-.1c0 0 0-.1-.1 0h-.1s-.1 0 0-.1h.1-.1v-.1s0-.1-.1 0H55c0-.1-.1 0-.1-.1s-.1-.1-.1-.2v-.1s.1 0 0-.1h-.1s-.1 0-.1.1c-.1 0 0 0 0 .1h.2v-.6s.1 0 0 0c.1 0 0 0 0 0 .1 0 0 0 0 0 .1 0 0 0 0 0zm.4.4zm0 0zm.1-.2c0 .1 0 0 0 0zm0 .1zm1.9 3zm-1.8-2.4zm1.8 2.6zm.1.1zm0 0zm-.6-.9c-.1 0-.1 0 0 0zm.2.3zm-.5-.6zm.5.5zm.6 1zm0 0zm0 0zm-.1-.1zm0 0zm.1-.2s0 .1 0 0zm-.1 0s0-.1 0 0c0-.1 0-.1 0 0zm-.3-.5zm-.1 0zm.1-.2zm-.5-.7c-.1 0 0 0 0 0zm-.3-.3s0-.1 0 0zm-.6-1V40z" style="fill:#fff"/></g><g style="opacity:.65"><path d="M75.7 39.8zm0-.1s0 .1 0 0c0 0 0 .1 0 0 0 .1 0 .1 0 0zm-.3-.6zm-.3-.4zm0-.1zm.3.5c-.1 0 0 0 0 0zm.2.6zm-.1-.5zm.1.2s-.1 0 0 0c-.1 0 0 0 0 0zm.1.2zm-.3-.5zm-2.5-3.5zm0-.2zm2.2 3.1zm-.8-1.1zm1.3 2.3zm-1.3-2.3zm.6.8zm.1.2zm-.2-.3c-.1 0-.1 0 0 0zm-.1-.1zm-1.6-2zm2.5 3.7zm-1-1.5zm-1-1.4zm.9 1.4s0-.1 0 0c0-.1 0-.1 0 0zM73.1 36zm-.1-.1c.1 0 0 0 0 0s.1 0 0 0c.1 0 .1 0 0 0 .1 0 .1.1.1.1h.1c.1 0-.1.1 0 .1h.1s.1 0 0 0c0 0 .1 0 .1.1 0 0 0 .1.1.1 0 0 .1 0 .1.1h.1l.1.1s0 .1.1 0v.1h.1v.2s0 .1.1.1l.1.1v.1l.1.1c.1 0 0 .1.1.1s0 .1.1.1c0 .1.1.1 0 .1.1.1.1.1.1.2h.1c.1 0 .1.1.1.1v.2c0 .1.1 0 0 .1l.1.1h-.1s.1 0 .1.1c0 0 0 .1.1.1h.1c-.1 0 0 0-.1.1 0 0 .1 0 .1.1h.1v.1s.1 0 .1.1l.1.1v.1c0 .1.1.1.1.1s.1 0 0 0h.1s0 .1.1.1h.3-.1l.1-.1V39h-.1v-.1h-.1s0 .1-.1 0c0 0 0-.1-.1-.1h-.1c0-.1-.1 0-.1-.1v-.1h-.2v-.2H75s-.1 0-.1-.1h-.1.1v-.1h-.1c.1 0 0 0 0-.1h-.4.1-.1c.1 0 0-.1 0-.1s0-.1-.1-.1h-.1v-.1s0-.1-.1 0c0 0-.1 0-.1-.1h-.1v-.1s-.1 0-.1-.1v-.2c0-.1-.1-.1 0-.1v-.1h-.1s0-.1-.1-.1c0 0 0-.1-.1 0h-.1s-.1 0 0-.1h.1-.1v-.1s0-.1-.1 0h-.1c0-.1-.1 0-.1-.1s-.1-.1-.1-.2v-.1s.1 0 0-.1h-.1s-.1 0-.1.1c-.1 0 0 0 0 .1h.2v-.6c0-.1 0-.1 0 0 0-.1 0-.1 0 0 0-.1 0-.1 0 0zm.3.3zm0 0zm.2-.1c-.1 0-.1 0 0 0-.1 0-.1 0 0 0-.1 0-.1 0 0 0zm-.1 0zm2 3h-.1zm-1.8-2.4zm1.8 2.6zm0 .1zm.1.1zm-.7-1zm.2.3zm-.4-.6zm.4.6zm.6.9zm0 0zm0 0s0 .1 0 0zm0 0zm0-.1s0 .1 0 0c0 .1 0 0 0 0zm0-.1c0-.1 0 0 0 0zm0-.1zm-.3-.5zm-.2 0zm.1-.1zm-.5-.8zm-.2-.3zm-.6-1z" style="fill:#fff"/></g><path d="M64.9 46.9zm.1-.1s-.1 0-.1.1c0-.1 0 0 .1-.1-.1 0-.1 0 0 0-.1.1-.1.1 0 0-.1 0 0 0 0 0zm-.4-.7zm-.2-.4zm0-.1zm.2.5zm.2.7zm0-.5zm.1.1s-.1 0 0 0c-.1 0 0 0 0 0zm0 .2c.1 0 0 0 0 0zm-.2-.4c.1 0 .1 0 0 0 .1 0 .1 0 0 0zM62 42.8zm.1-.3c.1 0 .1 0 0 0zm2.3 3zm-.7-1.1s-.1 0-.1.1c0-.1 0-.1.1-.1zm1.1 2.4zm-1.2-2.3zm.6.7zm.1.3c0-.1 0 0 0 0zm-.2-.4zM64 45zm-1.7-1.9s-.1 0 0 0zm2.5 3.7zm-1.1-1.4zm-.9-1.5zm.9 1.4zm-1.4-2.2z" style="fill:#6594d9"/><path d="M62.1 43s.1 0 .1-.1c0 .1 0 .1-.1.1h.2s.1 0 .1-.1h-.1.1-.1l-.1.1h.1c.1 0-.1.1 0 .1 0 0 .1-.1.1 0h-.1.2-.1.1-.1c.1 0 0 .1 0 .1h.2c.1 0 .1 0 .1.1h.1c0 .1.1.1 0 .2.1 0 0 .1.1 0 0 .1-.1.1-.1.1h.1-.1.1-.1v.1h.1c.1 0-.1 0 0 0v.1s.1 0 .1.1l.1-.1H63h.1s-.1 0-.1.1c0 0 0 .1 0 0l.1.1h.1v.1h.1l-.1.1h.1c.1 0-.1.2 0 .1h.1-.1c.1 0 0 .1.1.1-.1.1.1.1 0 .2.1 0 0 .2.1.2 0 0 .2-.1.1 0h-.1c.1 0 .1.1.2.1h.1s.1 0 0 0h.1v.1h.1c-.1 0 0 .1 0 .1h-.1.1c-.1.1.1 0 0 .1.1 0 .1 0 .2.1h-.1.1-.1c.1 0 0 .1.1.1 0 0 .1 0 .1-.1l-.1.1h.4c-.1 0 0 0-.1.1 0 0 .1 0 0 0 0 0 .1-.1.1 0 0 0 .1 0 0 0 0 0-.1 0-.1.1h.1-.1s.1-.1.1 0c0 0 .1 0 0 .1h-.1s.1 0 .1.1c.1-.1 0 .1 0 0 0 0-.1 0 0 0h.1v.1h.1c-.1.1.1 0 0 .1h.1s-.1 0-.1.1c-.1.1.1 0 0 0h-.1.1v.1c.1-.1 0 0 .1 0-.1 0 0 0-.1.1.1 0 0 .1.1.1h.1-.1s.1 0 0 0h-.1.1-.1.1c.1-.1 0 0 0 0h.1-.1.1s-.1 0 0 0h-.1l.1-.1h-.2v-.1h-.1c.1-.1 0 0 0 0h.1c-.1 0 0 0 0 0h-.1v-.1h-.1.1-.1s-.1.1-.2.1h.1v-.1h-.1V46h-.2c-.1 0 0-.1 0-.1h-.1.1c0-.1-.2 0-.1-.1l-.1.1.1-.1H64s-.1.1-.1 0l.1-.1v-.2h-.1s.1 0 0 0h.1c-.1 0 0 0 0-.1 0 0-.1 0-.1.1h.1c0-.1-.1 0-.1 0s.1 0 0 0h-.1c-.1 0 0-.1 0-.1s.1 0 .1-.1c-.1 0 0 0 0 0h-.3c.1-.1-.1 0 0 0l.1-.1c0-.1-.1 0-.1-.1l.1-.1h-.2.1s-.1 0 0 0h-.2c.1-.1 0-.1 0-.1h-.2.1c.1-.1 0 0 0-.1h-.2.1-.1l.1-.1c.1 0 0 0 0 0h-.1c-.1 0 0 0 0 0h.1-.1.1-.2c.1-.1 0-.1.1-.1-.1 0 0-.1-.1-.1l-.1.1v-.1h.1l.1-.1H63c-.1 0 .1-.1 0-.1 0 0 0-.1-.1 0 0 0-.1 0-.1-.1 0 0-.1 0 0 0 0 0-.1 0 0 0 0-.1-.1 0-.1 0 .1 0 .1-.1.1-.1h-.2c.1-.1 0-.1 0-.2h-.1s-.1 0 0 0 0-.1 0-.1l-.1.1c.1-.1-.1-.1 0-.2h-.1v-.1s-.1.1-.2.1l.1-.1s0-.1-.1-.1c0 0 0-.1-.1 0h-.2s-.1 0 0 0h-.1v-.1h-.1s-.1 0 0 0l.1-.1h-.1l-.1.1s-.1 0 0 0h-.1l.1-.1h-.3s.1 0 0 0c.1-.1-.2 0-.1-.1 0-.1-.1-.1-.1-.2h-.2c-.1 0 .1-.1 0-.1h-.1l.1-.1h-.1c-.1 0-.2.1-.2.2h.2s-.1 0-.1.1l.1-.1s-.1 0 0 0h.1v.1h.1c-.1 0 0 0-.1.1h.1v.1c.1 0 .1 0 .1-.1 1.2-.3 1.1-.3 1.1-.2 0-.1 0-.1.1-.1l-.1.1c.1-.1 0 0 0 0 .1 0 0 0 0 0zm.4.3zm0 .1s0-.1 0 0c0-.1.1-.1 0 0 0-.1 0-.1 0 0zm.3-.3zm-.1 0zm1.9 3zm-1.9-2.2zm1.9 2.5zm0 .1zm.1.1zm-.7-.9zm.3.2s-.1 0 0 0c-.1 0-.1 0 0 0zm-.6-.5zm.5.5zm.6 1zm0 0zm0 0zm0-.1zm0-.1c0 .1-.1.1 0 0-.1.1 0 0 0 0zm.1-.2c.1-.1 0 0 0 0zm0-.1zm-.3-.4c0-.1 0 0 0 0zm-.3 0v.1-.1zm.3-.2zm-.5-.8c-.1.1 0 0 0 0zm-.3-.3zm-.6-1zm-.9-5.7s0-.1 0 0zm0-.1s-.1 0-.1.1l.1-.1c.1 0 .1 0 0 0zm-.3-.7zm-.2-.4zm0-.1zm.2.5zm.2.7zm0-.6zm.1.1s-.1.1 0 0c-.1.1-.1.1 0 0 0 .1 0 .1 0 0zm0 .3zm-.2-.5zm-2.7-3.4zm.1-.3zm2.3 3zm-.8-1.1s-.1 0-.1.1c.1 0 .1 0 .1-.1zm1.2 2.5s0-.1 0 0zm-1.3-2.4zm.7.8zm.1.2zm-.2-.3zm-.1-.1zm-1.8-1.9s.1-.1 0 0c0 0 0-.1 0 0zm2.6 3.6s0 .1 0 0c0 .1 0 .1 0 0zm-1.1-1.4zm-.9-1.4zm.8 1.4c.1 0 .1-.1 0 0 .1-.1.1-.1 0 0zm-1.3-2.3z" style="fill:#6594d9"/><path d="M59.5 34.1s.1 0 .1-.1c0 0 0 .1-.1.1h.2s.1 0 .1-.1h-.1.1-.1l-.1.1h.1c.1 0-.1.1 0 .1 0 0 .1-.1.1 0h-.1.2-.1.1-.1c.1 0 0 .1 0 .1h.2c.1 0 .1 0 .1.1h.1c0 .1.1.1 0 .2.1 0 0 .1.1 0 0 .1-.1.1-.1.1h.1-.1.1-.1v.1h.1c.1 0-.1 0 0 0v.1s.1 0 .1.1l.1-.1h-.1.1s-.1 0-.1.1c0 0 0 .1 0 0l.1.1h.1v.1h.1l-.1.1h.1c.1 0-.1.2 0 .1h.1-.1c.1 0 0 .1.1.1-.1.1.1.1 0 .2.1 0 0 .2.1.2 0 0 .2-.1.1 0h-.1c.1 0 .1.1.2.1h.1s.1 0 0 0h.1v.1h.1c-.1 0 0 .1 0 .1h-.1.1c-.1.1.1 0 0 .1.1 0 .1 0 .2.1h-.1.1-.1c.1 0 0 .1.1.1 0 0 .1 0 .1-.1l-.1.1h.4c-.1 0 0 0-.1.1 0 0 .1 0 0 0 0 0 .1-.1.1 0 0 0 .1 0 0 0 0 0-.1 0-.1.1h.1-.1s.1-.1.1 0c0 0 .1 0 0 .1h-.1s.1 0 .1.1c.1-.1 0 .1 0 0 0 0-.1 0 0 0h.1v.1h.1c-.1.1.1 0 0 .1h.1s-.1 0-.1.1c-.1.1.1 0 0 0h-.1.1v.1c.1-.1 0 0 .1 0-.1 0 0 0-.1.1.1 0 0 .1.1.1h.1-.1s.1 0 0 0h-.1.1-.1.1c.1-.1 0 0 0 0h.1-.1.1s-.1 0 0 0h-.1l.1-.1h-.2v-.1h-.1c.1-.1 0 0 0 0h.1c-.1 0 0 0 0 0h-.1v-.1H62h.1-.1s-.1.1-.2.1h.1v-.1h-.1v-.1h-.2c-.1 0 0-.1 0-.1h-.1.1c0-.1-.2 0-.1-.1l-.1.1.1-.1h-.1s-.1.1-.1 0l.1-.1v-.2h-.1s.1 0 0 0h.1c-.1 0 0-.1 0-.1s-.1 0-.1.1h.1c0-.1-.1 0-.1 0s.1 0 0 0h-.1c-.1 0 0-.1 0-.1s.1 0 .1-.1c-.1 0 0 0 0 0H61c.1-.1-.1 0 0 0l.1-.1c0-.1-.1 0-.1-.1l.1-.1h-.2.1s-.1 0 0 0h-.2c.1-.1 0-.1 0-.1h-.2.1c.1-.1 0 0 0-.1h-.2.1-.1l.1-.1c.1 0 0 0 0 0h-.1c-.1 0 0 0 0 0h.1-.1.1-.2c.1-.1 0-.1.1-.1-.1 0 0-.1-.1-.1l-.1.1v-.1h.1l.1-.1h-.1c-.1 0 .1-.1 0-.1 0 0 0-.1-.1 0 0 0-.1 0-.1-.1 0 0-.1 0 0 0 0 0-.1 0 0 0 0-.1-.1 0-.1 0 .1 0 .1-.1.1-.1H60c.1-.1 0-.1 0-.2h-.1s-.1 0 0 0 0-.1 0-.1l-.1.1c.1-.1-.1-.1 0-.2h-.1v-.1s-.1.1-.2.1l.1-.1s0-.1-.1-.1c0 0 0-.1-.1 0h-.2s-.1 0 0 0h-.1v-.1H59s-.1 0 0 0l.1-.1H59l-.1.1s-.1 0 0 0h-.1l.1-.1h-.3s.1 0 0 0c.1-.1-.2 0-.1-.1 0-.1-.1-.1-.1-.2h-.2c-.1 0 .1-.1 0-.1h-.1l.1-.1h-.1c-.1 0-.2.1-.2.2h.2s-.1 0-.1.1l.1-.1s-.1 0 0 0h.1v.1h.1c-.1 0 0 0-.1.1h.1v.1c.1 0 .1 0 .1-.1 1.1-.3 1.1-.3 1.1-.2 0-.1 0-.1.1-.1-.1 0 0 0-.1.1.1-.1 0-.1 0 0 .1-.1 0 0 0 0zm.4.3zm0 0zm.3-.3zm-.1.1zm1.9 3zm-1.9-2.3zm1.9 2.6zm0 .1zm0 0s.1 0 0 0c.1 0 .1 0 0 0zm-.6-.9c-.1 0-.1 0 0 0-.1 0-.1 0 0 0zm.2.2s0 .1 0 0zm-.5-.5zm.5.5zm.6 1zm0 0zm0 0zm0-.1c-.1 0 0 0 0 0zm-.1 0s.1 0 0 0zm.2-.2c.1-.1 0 0 0 0zm0-.1zM62 37zm-.3.1zm.3-.3h-.1zm-.6-.7s.1 0 0 0zm-.2-.3s0-.1 0 0zm-.6-1.1zm13.5 12.6zm0-.1s-.1 0-.1.1c.1 0 0 0 .1-.1 0 .1 0 .1 0 0 0 .1 0 .1 0 0 0 .1 0 0 0 0zm-.3-.6zm-.2-.4zm0-.1zm.2.5zm.1.6c.1 0 0 0 0 0zm.1-.5zm.1.1s-.1.1 0 0c-.1.1-.1 0 0 0-.1 0-.1 0 0 0zm0 .3zm-.2-.5zm-2.7-3.4zm.1-.3zm2.3 3zm-.8-1.1s-.1 0-.1.1c0 0 .1 0 .1-.1zm1.1 2.4zm-1.2-2.3zm.7.7s0 .1 0 0c0 .1 0 0 0 0zm0 .3zm-.2-.3zm0-.1zm-1.8-2zm2.6 3.7s-.1 0 0 0c-.1 0-.1 0 0 0zm-1.1-1.4zm-1-1.5zm.9 1.4zm-1.3-2.2z" style="fill:#6594d9"/><path d="M71.3 43.5s.1 0 .1-.1l-.1.1h.2s.1 0 .1-.1h-.1.1-.1l-.1.1h.1c.1 0-.1.1 0 .1 0 0 .1-.1.1 0h-.1.2-.1.1-.1c.1 0 0 .1 0 .1h.2c.1 0 .1 0 .1.1h.1c0 .1.1.1 0 .2.1 0 0 .1.1 0 0 .1-.1.1-.1.1h.1-.1.1-.1v.1h.1c.1 0-.1 0 0 0v.1s.1 0 .1.1l.1-.1h-.1.1s-.1 0-.1.1c0 0 0 .1 0 0l.1.1h.1v.1h.1l-.1.1h.1c.1 0-.1.2 0 .1h.1-.1c.1 0 0 .1.1.1-.1.1.1.1 0 .2.1 0 0 .2.1.2 0 0 .2-.1.1 0h-.1c.1 0 .1.1.2.1h.1s.1 0 0 0h.1v.1h.1c-.1 0 0 .1 0 .1h-.1.1c-.1.1.1 0 0 .1.1 0 .1 0 .2.1h-.1.1-.1c.1 0 0 .1.1.1 0 0 .1 0 .1-.1l-.1.1h.4c-.1 0 0 0-.1.1 0 0 .1 0 0 0 0 0 .1-.1.1 0 0 0 .1 0 0 0 0 0-.1 0-.1.1h.1-.1s.1-.1.1 0c0 0 .1 0 0 .1h-.1s.1 0 .1.1c.1-.1 0 .1 0 0 0 0-.1 0 0 0h.1v.1h.1c-.1.1.1 0 0 .1h.1s-.1 0-.1.1c-.1.1.1 0 0 0h-.1.1v.1c.1-.1 0 0 .1 0-.1 0 0 0-.1.1.1 0 0 .1.1.1h.1-.1s.1 0 0 0H74h.1-.1.1c.1-.1 0 0 0 0h.1-.1.1s-.1 0 0 0h-.1l.1-.1-.2.2h-.1v-.1h-.1c.1-.1 0 0 0 0h.1c-.1 0 0 0 0 0h-.1v-.1h-.1.1-.1s-.1.1-.2.1h.1v-.1h-.1v-.1h-.2c-.1 0 0-.1 0-.1h-.1.1c0-.1-.2 0-.1-.1l-.1.1.1-.1h-.1s-.1.1-.1 0l.1-.1v-.2H73s.1 0 0 0h.1c-.1 0 0-.1 0-.1s-.1 0-.1.1h.1c0-.1-.1 0-.1 0s.1 0 0 0h-.1c-.1 0 0-.1 0-.1s.1 0 .1-.1c-.1 0 0 0 0 0h-.3c.1-.1-.1 0 0 0l.1-.1c0-.1-.1 0-.1-.1l.1-.1h-.2.1s-.1 0 0 0h-.2c.1-.1 0-.1 0-.1h-.2.1c.1-.1 0 0 0-.1h-.2.1-.1l.1-.1c.1 0 0 0 0 0h-.1c-.1 0 0 0 0 0h.1-.1.1-.2c.1-.1 0-.1.1-.1-.1 0 0-.1-.1-.1l-.1.1v-.1h.1l.1-.1h-.1c-.1 0 .1-.1 0-.1 0 0 0-.1-.1 0 0 0-.1 0-.1-.1 0 0-.1 0 0 0 0 0-.1 0 0 0 0-.1-.1 0-.1 0 .1 0 .1-.1.1-.1h-.2c.1-.1 0-.1 0-.2h-.1s-.1 0 0 0 0-.1 0-.1l-.1.1c.1-.1-.1-.1 0-.2h-.1v-.1s-.1.1-.2.1l.1-.1s0-.1-.1-.1c0 0 0-.1-.1 0h-.2s-.1 0 0 0h-.1v-.1h-.1s-.1 0 0 0l.1-.1h-.1l-.1.1s-.1 0 0 0h-.1l.1-.1h-.3s.1 0 0 0c.1-.1-.2 0-.1-.1 0-.1-.1-.1-.1-.2h-.2c-.1 0 .1-.1 0-.1h-.1l.1-.1h-.1c-.1 0-.2.1-.2.2h.2s-.1 0-.1.1l.1-.1s-.1 0 0 0h.1v.1h.1c-.1 0 0 0-.1.1h.1v.1c.1 0 .1 0 .1-.1 1.2-.5 1.2-.6 1.2-.4 0-.1 0-.1.1-.1-.1 0-.1 0-.1.1.1-.1 0-.1 0 0 0-.1 0-.1 0 0zm.4.3zm0 0zm.3-.3c-.1 0-.1 0 0 0zm-.1 0s0 .1 0 0c0 .1 0 0 0 0zm1.9 3.1zm-1.9-2.3zm1.9 2.6zm0 0c0 .1 0 0 0 0zm0 .1zm-.7-.9zm.3.2zm-.5-.5zm.5.5zm.6 1zm0 0zm0 0zm-.1-.1zm0 0zm.2-.3c0 .1 0 0 0 0s0 .1 0 0z" style="fill:#6594d9"/><path d="M74 46.9c.1 0 .1-.1 0 0 .1-.1.1-.1 0 0zm-.3-.5c.1 0 .1 0 0 0zm-.2.1h-.1.1zm.2-.3zm-.5-.7zm-.3-.3c.1-.1.1-.1 0 0 .1-.1 0 0 0 0zm-.5-1.1z" style="fill:#6594d9"/><path d="M60.9 101.8c-.2.6-.7.9-.9.8s-.5-.6-.3-1.2.4-.4.8-.3c.3.2.5.2.4.7zm5 .1c.2.6.7.9.9.8.2 0 .5-.6.3-1.2s-.4-.4-.8-.3-.6.1-.4.7z" style="fill:#fff"/><path d="M63.5 102c-4.4 0-4.9-1.8-4.9-2l1-.2s.4 1.2 3.9 1.2c3.6 0 4-1.2 4-1.2l1 .2c-.1.2-.6 2-5 2z" style="fill:#d83429"/></g></svg>