<svg xmlns="http://www.w3.org/2000/svg" viewBox="0 0 131.2 142.8" style="enable-background:new 0 0 131.2 142.8" xml:space="preserve"><style>.st5{fill:#d83429}.st6{fill:#ff8a65}.st7{fill:none;stroke:#ef7937;stroke-width:.925;stroke-miterlimit:10}.st8{fill:#d9413d}.st9{fill:#ff8a65}.st10{fill:none;stroke:#d83429;stroke-width:.8491;stroke-miterlimit:10}.st11{fill:#d9413d}.st12{fill:#ff8a65}.st13{fill:none;stroke:#d9413d;stroke-width:.8491;stroke-miterlimit:10}.st14{opacity:.37}.st15{clip-path:url(#SVGID_2_)}.st16{clip-path:url(#SVGID_4_)}.st17{clip-path:url(#SVGID_6_)}.st18{clip-path:url(#SVGID_8_)}.st19{clip-path:url(#SVGID_10_)}.st20{clip-path:url(#SVGID_12_)}.st21{clip-path:url(#SVGID_14_)}.st22{clip-path:url(#SVGID_16_)}.st23{clip-path:url(#SVGID_18_)}.st24{clip-path:url(#SVGID_20_)}.st25{fill:none;stroke:#d9413d;stroke-width:.925;stroke-miterlimit:10}.st26{clip-path:url(#SVGID_22_)}.st27{clip-path:url(#SVGID_24_)}.st28{clip-path:url(#SVGID_26_)}.st29{clip-path:url(#SVGID_28_)}.st30{clip-path:url(#SVGID_30_)}.st31{fill:none;stroke:#d9413d;stroke-width:.925;stroke-miterlimit:10}.st32{clip-path:url(#SVGID_32_)}.st33{clip-path:url(#SVGID_34_)}.st34{clip-path:url(#SVGID_36_)}.st35{clip-path:url(#SVGID_38_)}.st36{clip-path:url(#SVGID_40_)}.st37{fill:#d9413d}.st39{fill:#ee8423}.st40{fill:#f18a50}.st41{fill:#019788}.st42{fill:#32867a}.st43{fill:#f67258}.st44{fill:#de5956}.st45{opacity:.5}.st46{fill:#4b5d9a}.st47{opacity:.6}.st48{fill:#21a497}.st49{fill:#f7846d}.st50{fill:#26a59a}.st51{opacity:.65;fill:none;stroke:#fff;stroke-width:.2;stroke-miterlimit:10}.st52{fill:#ffccbc}.st53{fill:none;stroke:#31458b;stroke-miterlimit:10}.st54{fill:#d83429}.st55{fill:none;stroke:#f5a800;stroke-miterlimit:10}.st55,.st56,.st57{stroke-width:.2}.st56{fill:none;stroke:#4db6ac;stroke-miterlimit:10}.st57{stroke:#ff8a65}.st57,.st58,.st59,.st60,.st61{fill:none;stroke-miterlimit:10}.st58{opacity:.65;stroke:#fff;stroke-width:.5}.st59{stroke:#ef7937}.st60{stroke:#147467}.st61{stroke:#d9413d}.st62{fill:#d9413d}.st63,.st64,.st65{fill:#ffccbc}</style><g id="Calque_1"><path d="M77.9 116.4s-34.8-.3-42.4 1.2 19.6 5.9 34 5c14.4-.9 25-3.8 20.8-4.7-4.3-1-8.7-1.3-12.4-1.5z" style="opacity:5.000000e-02"/><path d="M68.6 104.4c-.1.6-.1.6-.1 1.2s.1.6.1 1.2-.1.6-.1 1.2v2.4c0 .6-.1.6-.1 1.2v2.4c0 .6.1.6.1 1.2s-.1.6-.1 1.2-.1.6-.1 1.2c0 .5.5.9.9.9h1.3c.7 0 .6-.1 1.3-.1.6 0 .7-.8.2-1-.5-.1-.5 0-1 0s-.5.1-1 .1c-.3-.1-.5-.5-.5-.8v-1.2c0-.6-.1-.6-.1-1.2s.1-.6.1-1.2v-2.4c0-.6-.1-.6-.1-1.2s-.1-.6-.1-1.2v-1.2c0-.6.1-.6.1-1.2s.1-.6.1-1.2-.1-.6-.1-1.2.6-1 .1-1.2c-.5-.2-.3.6-.6 1-.1.6-.2.6-.3 1.1zm-6.9 0c.1.6 0 .6 0 1.2s.1.6.1 1.2-.1.6-.1 1.2v1.2c0 .6.2.6.2 1.2s-.1.6-.1 1.2.1.6.1 1.2-.1.6-.1 1.2v1.2c0 .6-.1.6-.1 1.2v1.2c0 .5-.3.9-.8.9h-1.3c-.6 0-.6.1-1.3.1-.6 0-.7-.8-.2-1 .5-.1.5-.2 1-.3s.5.1 1 .1c.3-.1.6-.5.6-.9 0-.6-.2-.6-.2-1.2s.1-.6.1-1.2.1-.6.1-1.2-.1-.6-.1-1.2v-1.2c0-.6.1-.6.1-1.2s-.1-.6-.1-1.2v-1.2c0-.6.1-.6.1-1.2v-2.4c0-.6-.5-.9.1-1.1.5-.2.1.5.4 1 .3.8.4.7.5 1.2z" style="fill:#d83429"/><path d="M82.9 72.4c0 1.5-.1 1.5-.1 3s-.1 1.5-.1 3 .5 1.5.5 3c0 1.4-.1 1.1-.2 2.8 0 .8-.4 1.7-.4 2.7 0 .9.2 1.8.2 2.8 0 .9-.2 1.9-.2 2.8 0 1-.1 1.9-.2 2.8 0 .9-.2 1.8-.2 2.7 0 .9.4 1.8.4 2.7.1 1-.4 1.9-.3 2.7.2 1.6.5 1.3.6 2.6.1 1.4-.1 1.3-.4 2.8-.2.9-.5 1.9-.9 2.6-.5.9-1.2 1.7-2.2 1.5-.7-.1-1.7-.3-2.9-.4-.9 0-1.9.2-3 .2-1 0-2-.5-3-.5-1.1 0-2.1.2-3 .2-1.7.1-1.5.5-3 .5-1.4 0-1.1-.5-2.7-.5-.8 0-1.7.2-2.7.2-.9 0-1.8.1-2.7.1-.9 0-1.9-.5-2.7-.5-1.1 0-2 .5-2.7.6-1.4.2-2.3-.9-2.8-2-.7-1.5-.9-1.7-.9-3.5 0-1.5.3-1.5.3-2.9 0-1.5-.4-1.5-.4-2.9 0-1.5.4-1.5.4-2.9s-.2-1.5-.2-2.9c0-1.1.4-1.1.4-2.2s-.6-1.1-.6-2.3c0-1.4.5-1.2.6-2.8 0-.9-.4-1.9-.4-2.8 0-1.2.4-2.2.4-2.8 0-.9 0-2.1.1-3.4.1-1.1.1-2.2.1-3.3 0-2.3.2-2.2-.5-4.2-.4-1.1-.4-1.1-1-2-.4-.6-1-1-1.9-.9-.8.1-1.8-.1-2.9 0-.9.1-1.9.4-2.9.3-1 0-2-.2-2.8-.5-.6-.2-1.2-.8-2-1.6-.5-.6-1-1.3-1.5-2.1-.5-.7-1.4-1.2-1.8-2-.4-.8-.2-1.8-.4-2.7-.2-.9-.5-1.7-.6-2.5.3-.6.3-1.6.3-2.6v-2.9c0-.9-.1-1.9 0-2.9s.4-1.9.6-2.8c.2-1 .6-1.8 1-2.7.4-.9.8-1.8 1.4-2.5.6-.8 1.3-1.4 1.9-2.1.6-.8 1.2-1.5 1.9-2.1.7-.6 1.3-1.4 2.2-1.9.8-.4 1.8-.3 2.8-.5.8-.1 1.8-.4 2.9-.4 1 0 2 .3 2.9.3h2.9c1.7.1 1.5-.3 2.9-.3 1.5 0 1.2 0 3.1-.1.9 0 2 .1 3.1.1 1 0 2-.2 3.1-.3 1.1-.1 2.1-.2 3.1-.3 1.1-.1 2.2 0 3.1-.1.9-.1 1.8-.3 2.9-.3.9 0 1.9.5 2.9.5.9 0 1.9-.3 2.9-.2 1 .1 1.9 0 2.9 0 1 .1 2 .3 2.8.4 1.1.1 2.1 0 2.8 0 1.1 0 2 .2 2.9.3 1.1.1 2 .4 2.8.6 1.1.3 1.9.6 2.6 1.1.9.6 1.6 1.1 2 1.9.5.8.7 1.7 1.1 2.6.4.9 1.2 1.6 1.5 2.5.3.9.3 1.9.5 2.9.2.9.6 1.8.8 2.8.1.9 0 1.9 0 2.9 0 1.2-.1 2.2-.2 3.2-.1 1.1-.3 2.1-.6 3.1s-.7 1.9-1 3c-.3.9-.4 2-.7 3.1-.3 1.1-1 1.9-1.4 2.6-.6 1.1-1 1.7-1.8 2-.8.3-1.8.5-2.9.4-.9-.1-1.7-.3-2.4-.3-1.5 0-1.2 0-2.5.1-1.4.1-1.5 0-2.6.9-.7.6-1.1 1.3-1.3 2.5z" style="fill:#ff8a65"/><path d="M84.7 44.6s-4.2-4.4-9.9-1.2c-5.6 3.2-4.9 11.6.7 13.4 5.6 1.8 9.3-.5 10.2-3 .9-2.5 1.5-6.9-1-9.2z" style="fill:#fff"/><circle cx="79.7" cy="50.4" r="4.8"/><path d="M57.5 45.8s-4.2-4.4-9.9-1.2-4.9 11.6.7 13.4 9.3-.5 10.2-3 1.4-6.9-1-9.2z" style="fill:#fff"/><circle cx="52.3" cy="51.8" r="4.7"/><path d="M65.4 63.5c-2.7 0-3.9-3.3-4-3.5l.9-.3s1 2.8 3 2.8 2.9-2.8 2.9-2.8l.9.3c.1.2-1 3.5-3.7 3.5zM47.9 89c.2-.5.3-.4.4-.9-.2-.1-.6-.1-1-.2-.3 0-.7-.1-1 0-.2-.2-.5-.4-.7-.7-.2-.2-.4-.5-.6-.8-.2-.3-.3-.6-.5-.8-.2-.3-.3-.6-.4-.9-.2-.3-.4-.5-.6-.8-.2-.3-.2-.6-.3-.9-.1-.3-.4-.5-.5-.8-.1-.3-.1-.7-.2-1-.1-.4-.3-.7-.2-1 0-.3.3-.5.5-.9.2-.2.4-.5.6-.8.2-.2.4-.5.7-.7.2-.2.6-.3.9-.5.3-.2.4-.5.7-.7.3-.2.6-.2.9-.4.3-.2.5-.5.8-.7.3-.2.6-.3.9-.5.3-.2.6-.3.9-.5-.1-.5-.1-.5-.5-.9-.2.1-.5.2-.9.4-.3.1-.5.4-.8.6-.3.2-.6.2-.9.4-.3.2-.5.4-.8.6-.3.2-.6.4-.8.6-.3.2-.6.4-.8.6-.3.2-.5.5-.7.7-.3.2-.6.4-.8.6-.2.3-.4.6-.6.8-.2.3-.2.7-.3 1 0 .3 0 .6.1 1l.3.9c.1.3.3.6.4.9.1.3.3.6.4.9.1.3.3.6.4.8.2.3.3.6.4.9.2.3.4.5.5.8.2.3.3.6.5.8.2.3.4.5.6.8.2.3.4.5.6.7-.2.3-.2.6-.2.9 0 .3.2.6.3.9.1.3.3.6.4.8.3.4.6.6.7.7.4-.3.4-.3.6-.8-.2-.2-.3-.4-.6-.7-.2-.3-.4-.6-.4-.9.3.2.5.5.8.7.3.2.5.4.8.6.5.4.7.6.8.6l.6-.8s-.2-.3-.7-.6c-.2-.2-.4-.3-.7-.5-.2-.2-.4-.3-.7-.5.4.1.7.2.7.2zm45.8-20.2c-.4-.3-.4-.4-.9-.4-.1.3-.2.6-.3.8-.2.3-.3.4-.4.6-.2-.9-.2-1.2-.2-1.2-.5 0-.5 0-1 .1 0 .1 0 .3.2 1.3-.2-.1-.4-.3-.6-.5L90 69c-.4.2-.4.3-.7.7.1.1.3.4.6.6.2.2.5.4.7.6.3.2.5.3.8.4 0 .3.2.6.2 1 0 .3.1.6.1 1 0 .3-.1.7-.1 1v2c-.1.3-.2.7-.3 1-.1.3-.2.6-.4.9-.1.3-.3.6-.4.9-.2.3-.3.6-.6.8-.2.2-.4.5-.7.7-.2.2-.5.5-.8.7-.3.2-.6.3-.9.5-.3.2-.6.4-.9.5-.3.2-.6.2-.9.4-.3.1-.6.4-.9.5-.3.1-.7.2-.9.3-.4.1-.7.2-.9.3-.6.2-.9.3-1 .3.1.5 0 .5.2 1 .1 0 .5-.1 1-.3.3-.1.5-.2.9-.3l.9-.3c.3-.1.6-.2.9-.4.3-.1.6-.3.9-.4.3-.1.5-.4.8-.5.3-.2.6-.3.8-.4.3-.2.5-.4.8-.6.3-.2.6-.3.8-.5l.7-.7c.2-.2.3-.6.5-.9.2-.3.4-.5.6-.8.1-.3.2-.6.3-1 .1-.3.3-.6.4-.9.1-.3.1-.7.1-1 0-.3.1-.7.1-1v-1c0-.4 0-.7-.1-1 0-.4.1-.7 0-1 0-.4-.1-.7-.2-1l.6-.6c.2-.2.4-.5.5-.7 0-.5.2-.8.2-1z" style="fill:#d83429"/><g style="opacity:.65"><path d="M52.1 62v-.2.2zm0-.6v.7-.6.2-.3zm-.8-.5zm-.5-.2s0-.1 0 0c0-.1 0-.1 0 0zm-.1-.4zm.6.6v-.1.1zm.6 1.3s.1-.1 0 0c.1-.1 0-.1 0 0zm-.4-1.6v-.1.1zm.2-.1v.4-.4zm.2.6c0-.1 0-.1 0 0zm-.5-.6v-.1.1zm-4.7 2zm-.2-1.4v-.2.2zm4.1-1.2zm-1.4.2v.6c-.1-.1 0-.4 0-.6zm2.7 2.1zm-2.8-1.5zm1.1-.6v.1-.1zm.3.4zm-.4 0s0-.1 0 0c0 0 0-.1 0 0zm-.2 0zm-2.8 1.9v-.3.3zm4.8-.4v.1-.1zm-1.9.7zm-1.9-.3zm1.8.3v-.2.2zm-2.8-.6z" style="fill:#fff"/><path d="M46.9 62.8v-.6.5c0-.1 0-.4.1-.4v.2c0-.3.1 0 .1-.4v.1-.5s0-.2 0 0v.2-.1.4c0-.1.1-.4.1-.3v.4-.1.5c0 .1 0-.2.1-.1v-.5c.1-.3 0 .9.1.4v-.4.4s0-.6.1-.3v.2-.2.3c0-.1.1-.3.1-.4v.3c0-.2.1 0 .1.2v-.3.2-.3.3c0-.2.1-.5.1-.2v.1c0 .1 0-.6.1-.3v.1c0 .1.1-.1.1.3 0-.4 0 .2.1-.4v.6-.4.3-.3.4-.3.4l.1-.3v.2c0-.3 0 .3 0 0v-.2c0 .2 0 .2.1.1v.2c0 .1.1-.1.1-.1v-.5.3-.4.5-.1.3c0-.2 0 .3 0 0v.1l.1-.1v-.4c0 .1 0 .3.1.3v-.4.4l.1-.3v-.2.2c.1-.4.1.7.1.2v-.3.4c.1-.4.1.1.1-.2 0 .8.1-.1.1.4v-.2.1-.3c.1-.2.2.3.2.4 0 0 0-.9.1-.5v.3c.1-.4.1 0 .2-.3v.2c0 .2 0 0 .1-.2v.3-.1.1-.2c0 .1 0-.1.1 0 0-.3 0 .2.1-.3 0 .5 0 .4.1.2v.3-.3c0 .5.1-.4.1.3.1-.2.1-.4.2-.5 0 .5-.1 0-.1.5 0-.2.1-.6.1-.5v.3c0-.2.1 0 .1-.2v.1-.1.1c0-.3 0-.6.1-.8v.9-.3.3c0-.1 0-.3.1-.3v.3c0-.2 0-.4.1-.3v.1s.1-.5.1-.3v.5-.3s0-.3.1-.1v.2-.6.2-.2.5c0-.3 0-.1.1-.4v.3-.3.3-.3.1c0 .1.1-.2.1 0v.4c0-.1.1-.4.1-.4 0-.5 0 .3 0 0v.2c0 .1.1-.1.1-.3v.1c0 .1 0 .1.1.1v-.3c0 .8.1-.4.1.2v.1-.6.5-.4.1-.2.3s0-.5.1-.2v.5-.1c0-.7 0-.1.1-.6v.9-.2.3-.3c0-.3 0 .4.1-.1 0-.2.1-.5.1-.7v.4c0 .1 0 .1 0 0v.3-.2.4c0-.1 0-.3.1-.4v.4c0-.1 0-.2.1-.4v-.1.3-.3c0-.6 0 .1-.1.1v-.4.3-.6.1-.2c0-.2-.1.3-.1 0 0 .1 0 .3-.1.7v-.8.3-.2.3c0-.3-.1.1 0-.4v.3-.6c0 .5 0-.1 0 0 0 .4 0 .2-.1.3 0-.1 0-.2-.1-.3v-.1c0 .4 0 .3-.1.4v-.4.2-.3s-.1.3-.1.1v.9-.4.1-.2.2-.3s0 .1 0 0v-.3.3-.3.3-.2c0 .1-.1 0 0 .4 0 .3-.1-.2-.1 0v-.1c0 .1 0 .1-.1.3v-.3c0 .1 0 .2 0 0v-.1c0-.1 0-.2 0 0v-.2.2-.3c0-.4-.1.7-.1 0v.4-.5c0-.2 0 .5-.1.4v.5-.6.1-.2.1-.3.3c0-.2 0 0-.1-.1v.5-.7c0 .2 0-.2-.1-.2V60v.3-.1.6-.7c0-.3 0 .4-.1.3v-.3.8-.2c0 .3 0-.3-.1-.1v-.5.4-.2.3-.1.3c0-.4 0 .2-.1 0v-.6c0-.3-.1.3-.1.2v.2-.4.4-.3c0-.1-.1.6-.1.5v-.5.5-.1.4c0-.6-.1 0-.1-.5 0 .1-.1.1-.1.1v-.1c0-.2 0 .6-.1.4v-.6c0-.2 0 .2-.1.2v-.1c0 .3-.1.4-.1.5v-.4.5-.8s0 .4-.1.4v.2-.4c0 .1-.1.4-.1.5 0-.3.1-.4.1-.6l-.1.2v-.1c0 .3 0 .5-.1.5 0-.8-.1-.2-.1-.8-.1.3-.1-.1-.1-.1v.6-1.1.5c0 .3 0-.5-.1-.2v-.2c0 .1-.1 0-.1.5v-.3c0-.1-.1.5-.1.2V60v.1-.2.2-.2c0-.2-.1.4-.1.5v-.8c0-.1-.1.4-.1.5 0-.5-.1-.2-.1-.5v.4-.4.5c0-.8-.1.3-.1-.4v.3-.3c0-.1 0-.1-.1 0v-.2l-.1.8v-.4s-.1-.4-.1 0v-.2s-.1-.3-.1.3c0-.4 0 0-.1.1v-.3c0 .4 0 .5-.1.6v-.2.1-.2.3-.3.3-.2c0-.2-.1.3-.1 0v-.9c0 .2-.1.6-.1.5v-.3 1.1-.8c0 .2-.1.1-.1.6v-.3c0 .1-.1.1-.1.4v-.4c0-.6-.1.9-.2.2v.1c-.1-.3-.2.3-.2-.2v.3-.3.3c0 .3 0-.7-.1-.3v.2-.1.1-.2.3-.7c0 .1-.1.5-.1.6v1.7-.3.2-.1.2-.4.5-.5.4-.3.4-.4.6c0-.5.1-.2.1-.5v.4c0-.4 0-.5.1-.7v.8-.6.4-.4.3c-.1.5-.2.7-.2.7zm.6-.8zm0 0c0-.1 0-.1 0 0v-.2.2zm0-2v.1-.1zm0 .4zm3.8.5zm-3.2 1.6v-.1.1zm3.4-.6zm.1 0v.1-.1zm.1.2V62v.1zm-1.3.3zm.4-.7v.1-.1zm-.8 1zm.8-.8c0-.1 0-.1 0 0zm1.2.3zm0 0zm0-.1c0 .1 0 .1 0 0zm-.1 0v.1-.1zm0 0v.2-.2c0 .2 0-.2 0 0zm-.1-1.2v-.2.2zm-.1-.2v-.2.2zm-.6 0v-.3.3zM51 62v.1-.2z" style="fill:#fff"/><path style="fill:#fff" d="M51 60.2v-.1l-.1.1zm-1 0v.3-.3zm-.5.3v-.1.1zm-1.2-.5v-.1.1z"/></g><g style="opacity:.65"><path d="M83.1 62.4v-.2.2zm0-.6v.7-.6.2-.3zm-.8-.5zm-.5-.2s0-.1 0 0c0-.1 0 0 0 0zm-.1-.4zm.6.6v-.1.1zm.7 1.3s0-.1 0 0c0-.1 0-.1 0 0 0-.1 0 0 0 0zm-.5-1.6v-.1.1zm.2-.1v.4-.4zm.2.5zm-.5-.5v-.1.1zM77.7 63zm-.2-1.3v-.2.2zm4-1.3c0-.1 0-.1 0 0zm-1.4.2v.6-.6zm2.9 1.9c0 .1 0 .1 0 0zm-2.9-1.3zm1.1-.7v.1-.1zm.2.4zm-.4 0zm-.1 0s0 .1 0 0c0 .1 0 .1 0 0zm-2.8 2v-.3.3zm4.9-.5v.1-.1zm-2 .7zm-1.8-.2zm1.8.2v-.2.2zm-2.9-.4zm-.1.6v-.6.5-.4.2c0-.3.1 0 .1-.4v.1-.5s0-.2 0 0v.2-.1.4c0-.1 0-.4.1-.3v.4-.1.5c0 .1 0-.2.1-.1v-.5c0-.3 0 .9.1.4v-.4.4-.3.2-.2.3c0-.1.1-.3.1-.4v.3c0-.2.1 0 .1.2v-.3.2-.3.3c0-.2.1-.5.1-.2v.1-.3.1c.1.1.1-.1.2.3 0-.4.1.2.1-.4 0 .3 0 .4.1.6v-.4.3-.3.4-.3c0-.1.1.2.1.4V63v.2c0-.3 0 .3 0 0V63c0 .2 0 .2.1.1v.2c0 .1.1-.1.1-.1v-.5.3-.4.5-.1.3c0-.2 0 .3 0 0v.1l.1-.1v-.4c0 .1.1.3.1.3v-.4.4s0-.1.1-.3v-.2.2c0-.4.1.7.2.2v-.3.4c0-.4.1.1.1-.2 0 .8.1-.1.1.4v-.2.1-.3c.1-.2.2.3.3.4 0 0 0-.9.1-.5v.3c.1-.4.1 0 .2-.3v.2-.2.3-.1.1-.2c0 .1 0-.1.1 0v-.3c0 .5 0 .4.1.2v.3-.3c0 .5.1-.4.1.3 0-.2.1-.4.1-.5v.5c0-.2.1-.6.1-.5v.3c0-.2.1 0 .1-.2v.1-.1.1-.8.9-.3.3-.3.3-.3.1s.1-.5.1-.3v.5-.4.2-.6.2-.2.5c0-.3 0-.1.1-.4v.3-.3.3-.3.1c0 .1.1-.2.1 0v.4c0-.1.1-.5.1-.4 0-.5 0 .3 0 0v.2c0 .1.1-.1.1-.3v.1c0 .1 0 .1.1.1v-.3c.1.8.1-.4.1.2v.1-.6.5-.4.1-.2.3-.2.5-.1c0-.7 0-.1.1-.6v.9-.2.3-.3c0-.3.1.4.1-.1 0-.2 0-.5.1-.7v.4c0 .1 0 .1 0 0v.3-.2.4-.4.4-.5.3-.3c0-.6 0 .1-.1.1v-.4.3-.6.1-.2c0-.2 0 .3-.1 0v.7-.8.3-.2.3c0-.3 0 .1-.1-.4v.3-.6c0 .5 0-.1 0 0 0 .4 0 .2-.1.3 0-.1 0-.2-.1-.3v-.1.4-.4.2-.3s0 .3-.1.1v.9-.4.1-.2.2-.3s0 .1 0 0v-.3.3-.3.3-.2.4c0 .3-.1-.2-.1 0v-.1c0 .1 0 .1-.1.3v-.3c0 .1 0 .2 0 0v-.1c0-.1 0-.2 0 0V61v.2-.3c0-.4-.1.7-.1 0v.4-.5c0-.2 0 .5-.1.4v.5-.6.1-.2.1-.3.3c0-.2 0 0-.1-.1v.5-.7c0 .2 0-.2-.1-.2v-.1.3-.1.6-.7.3-.3.8-.2c0 .3 0-.3-.1-.1v-.5.4-.2.3-.1.3c0-.4 0 .2-.1 0v-.6c0-.3-.1.3-.1.2v.2-.4.4-.3c0-.1 0 .6-.1.5v-.5.5-.1.4c0-.6-.1 0-.1-.5 0 .1 0 .1-.1.1v-.1.4-.3c0-.6 0 .1-.1-.3 0-.2 0 .2-.1.2V61c0 .3 0 .4-.1.5v-.4.5-.5c0-.4 0 0 0 0v-.2c0 .1 0 .4-.1.4v.2-.4c0 .1 0 .4-.1.5 0-.3 0-.4.1-.6v.2-.1c0 .3 0 .5-.1.5 0-.8-.1-.2-.1-.8 0 .3-.1-.1-.1-.1v.6-1.1.5c0 .3 0-.5-.1-.2v-.2c0 .1-.1 0-.1.5v-.3c0-.1-.1.5-.1.2v-.1.1-.2.2-.2c0-.2-.1.4-.1.5 0-.4 0-.6-.1-.7v-.1c0-.1-.1.4-.1.5 0-.5-.1-.2-.1-.5v.4-.4.5c0-.8-.1.3-.1-.4v.3-.3c0-.1 0-.1-.1 0v-.2.8-.4s-.1-.4-.1 0v-.2s-.1-.3-.1.3c0-.4 0 0-.1.1v-.3.6-.2.1-.2.3-.3.3-.2c0-.2 0 .3-.1.1V60c0 .2 0 .6-.1.5v-.3 1.1-.8c0 .2-.1.1-.1.6v-.3c0 .1-.1.1-.1.4v-.4c-.1-.6-.1.9-.2.2v.1c-.1-.3-.2.3-.2-.2v.3-.3.3c0 .3-.1-.7-.1-.3v.2-.1.1-.2.3-.7 2.3-.3.2-.1.2-.4.5-.5.4-.3.4-.4.6c0-.5.1-.2.1-.5v.4-.7.8-.6.4-.4.3c.2.4.2.5.2.5zm.5-.8zm0 0v-.2.2zm-.1-2v.1-.1zm0 .4s0 .1 0 0zm3.9.4zM79.1 63v-.1.1zm3.4-.7zm.1 0v.1-.1zm.1.2v-.1.1z" style="fill:#fff"/><path d="M81.5 62.8c-.1.1-.1.1 0 0zm.3-.6v.1-.1zm-.8.9zm.8-.8s0-.1 0 0zm1.2.3zm0 0c0-.1 0-.1 0 0zm0-.1zm-.1 0v.1-.1zm0 0v.2-.2c0 .2 0-.2 0 0zm-.1-1.3V61v.2zm-.1-.1v-.2.2zm-.6 0v-.3.3zm-.1 1.3v.2-.3zm-.1-1.8v-.1.1zm-1 .1v.3-.3zm-.4.3v-.1.1zm-1.3-.5v-.1.1z" style="fill:#fff"/></g><g style="opacity:.65"><path d="M70.3 88.4v-.1.1zm-.1-.3c0 .1-.1.2-.1.4.1-.2.1-.1.1-.4v.2-.1c0-.1 0-.1-.1 0 .1 0 .1-.1.1-.1zm-1.3-.5zm-.8-.2zm-.2-.2zm1 .4zm1.1.8zm-.7-.9zm.3 0v.2-.2c0 .1 0 .1 0 0zm.4.4zm-.9-.5zm-7.9 1.2c-.1 0 0 0 0 0zm-.5-.6h-.1zm7-1zm-2.5 0v.3-.3zm4.8 1.4c-.1 0-.1 0 0 0zm-4.8-1.1zM67 87s0 .1 0 0c0 .1 0 0 0 0zm.5.2zm-.7 0zm-.3 0zm-4.7 1.2v-.1.1zm8.2 0zm-3.3-.1zm-3.2-.1zm3.1.1c-.1-.1-.1-.1 0 0-.1-.1-.1-.1 0 0zm-4.8 0z" style="fill:#fff"/><path d="M61.6 88.7v-.3.3c.1-.1.1-.3.1-.3v.1c0-.1.1 0 .1-.2 0-.1 0-.2-.1-.2 0 0 0-.1 0 0v.1-.1.2c0-.1 0-.2.1-.2v.2l-.1-.1.1.3c.1 0 0-.1.1-.1v-.2c0-.2.1.4.1.2v-.2.2c.1 0 0-.3.1-.2v.1c.1.1 0-.1 0-.1v.2l.1-.2v.2c.1-.1.2 0 .2.1v-.1.1-.2.1c0-.1.1-.3.2-.1 0 .1 0-.3.1-.2.1.1.2-.1.3.1 0-.2.1.1.1-.2.1.1.1.2.1.3v-.2.2-.2.2-.1c0-.1.1.1.1.2l.1-.1v.1c0-.2 0 .2 0 0v-.1c0 .1.1.1.1 0v.1c.1 0 .1-.1.2-.1V88v.2-.2.2-.1.1c0-.1.1.2.1 0 .1 0 .1-.1.2-.1v-.2s.1.2.1.1v-.2c0 .1.1.1 0 .2.1 0 .1 0 .1-.1v-.1.1c.1-.2.2.4.3.1h.5v.2c.1-.2.1 0 .2-.1 0 .4.2 0 .2.2v-.1.1-.1c.1-.1.3.1.4.2.1 0 0-.5.1-.2v.2c.1-.2.2 0 .3-.2v.1c0 .1.1 0 .1-.1v.1c0 .1.1-.1.1 0 0-.1.1 0 .1-.1 0 .1.1-.1.1 0 0-.2.1.1.1-.1 0 .2.1.2.1.1v.2s.1 0 .1-.2c0 .3.1-.2.1.1.1-.1.2-.2.3-.2 0 .2-.1 0-.1.3.1-.1.1-.3.2-.2v.1c.1-.1.1 0 .2-.1v.1-.1c0-.2.1-.3.1-.4 0 .3.1.1 0 .4v-.1.1c.1-.1 0-.2.1-.2v.1c0-.1.1-.2.1-.1v.1c.1 0 .1-.2.2-.1v.3-.2l.1-.1v.1h.1V88c0-.1 0-.2.1-.2v.1c0-.1 0-.1.1-.1v.2c0-.2.1 0 .1-.2v.2-.1.1s0-.2.1-.1c0 .1.1-.1.1 0 0 .2 0 0-.1.2.1 0 .2-.2.2-.1 0-.3 0 .1.1 0v.1s.1-.1.2-.1v.1c0 .1.1 0 .1.1V88c0 .4.2-.2.2.1v.1l.1-.1v-.2c0-.1 0-.1.1-.1v.2-.1c0 .2 0-.2.1-.1v.1l.1-.1v.2s.1-.2.1-.1l-.1.1v.2c.1-.3.1-.1.2-.3-.1.2 0 .1-.1.3v.1c0-.1 0 .1.1-.1v.1-.1c.1-.2.1.2.2 0 .1-.1.1-.2.2-.3v.2c0 .1 0 .1.1 0v.1s0-.2.1-.1c0 .1 0 .1-.1.2 0 0 .1-.1.1-.2 0 .1 0 .1-.1.2 0 0 .1-.1.1-.2V88v.1-.1c0-.3-.1 0-.1 0l.1-.2-.7.3v-.2c0-.1 0 .1 0 0v.1-.1c0-.1-.1.1-.1 0-.1.1 0 .1-.1.3v-.4.1-.1.2c0-.1-.1 0-.1-.2v.2c0-.3 0 0-.1-.1v-.2c-.1.2 0-.1-.1 0 0 .2-.1.1-.1.1 0-.1-.1-.1-.1-.2 0 .2-.1.1-.1.2 0-.1 0-.2.1-.2v.1-.1l-.1.1c0 .1 0 .4-.1.4v-.2s0 .1 0 0v-.1.1-.3.1-.2c0 .1 0 0-.1.1v-.1c0 .1-.1 0-.1.2-.1.1-.1-.1-.2 0 0 .1-.1 0-.1.1v-.2s0 .1-.1 0v-.1s0-.1-.1 0v-.1.1h-.1v-.2c0-.2-.2.3-.2 0v.2-.3c0-.1-.1.2-.1.2 0 .1 0 .2-.1.3v-.4.1c0-.1-.1-.1 0-.2v.1c0-.1-.1 0-.1-.1v.1c-.1-.1 0 .1-.1.1v-.3c-.1.1-.1-.1-.1-.1v.1-.1.3c0-.1-.1.1 0-.1 0 .1 0-.2.1-.2 0-.1 0 .2-.1.2V87v.2c0-.1 0 0-.1 0 0 .1 0 .1-.1.1v-.1c0 .2 0-.2-.1-.1v-.2c-.1.1 0-.1-.1 0v.2l.1-.1-.1.2s.1-.1.1 0v.2c0-.2-.1.1-.1 0v-.3c0-.1-.1.1-.2.1v.1c0 .1 0 0-.1.1v-.2c0 .1 0 0-.1.2v-.1c0-.1-.1.3-.1.2v-.3c0-.1-.1.1-.1 0v.3c0-.3-.1 0-.2-.3l-.1.1c0-.1 0 .3-.1.2v-.1c0-.3-.1 0-.1-.1s-.1.1-.1.1c0 .2-.1.2-.1.3v-.2.2-.3c0-.2 0 0-.1 0v-.1c-.1 0-.1.2-.1.2v.1c0 .2 0-.1-.1 0v-.2l-.1.2c0-.1.1-.2.1-.3 0 0-.1 0-.1.1 0 0 0-.1 0 0 0 .2-.1.2-.1.2 0-.4-.1-.1-.1-.4-.1.1-.1-.1-.2 0v.3l-.1-.2V87v.2c-.1.2-.1-.3-.1-.1V87c0 .1-.1 0-.1.2v-.1c-.1 0-.2.3-.2.1v-.1.1-.1s0 .1-.1.1v-.1c-.1-.1-.1.2-.2.3 0-.2-.1-.3-.1-.3-.1 0-.1.2-.2.3-.1-.2-.2-.1-.3-.2v.2s0 .2-.1 0c0-.2-.1-.1-.1-.1v.3c-.1-.4-.2.2-.3-.2 0 .1 0 .1-.1.1v-.1H63v-.1.4-.2c-.1 0-.1-.2-.2 0v-.1s-.1-.1-.1.2c0-.2-.1 0-.1.1v-.1.3-.1c0-.1 0 .1-.1.1v-.1.1c0 .1-.1 0-.1-.2v.1-.1c-.1-.1-.1.2-.1 0v-.1h.1c0-.1-.1-.1-.1-.3 0 .1 0 .3-.1.3 0-.1 0-.1-.1-.1v.5c-.1-.2-.1-.3-.1-.4 0 .1-.1.1-.1.3v-.2c0 .1-.1 0-.1.2-.1-.1 0-.2-.1-.1v-.1c-.2-.3-.1.5-.3.1v.1c-.2-.1-.2.2-.4 0v.2-.1.2c0 .1-.2-.3-.2-.1v.1s-.1.1-.1 0v.1-.1.1c-.1 0-.1-.3-.2-.3v.3l.1.1c.1.2.1.5.2.6v-.1.1-.1.1-.2c0 .1 0 .2.1.2 0-.1-.1-.2-.1-.3 0 .1.1.2.1.1v.1-.2c.1.1.1 0 .1.2v-.2c0 .3.1 0 .1.3 0-.2.1-.1.1-.3 0 0 0 .1 0 0 0 0 0 .1.1.1v-.4c.1.2 0 .2.1.4v-.3c0 .1 0 .1.1.2v-.2c.1.1.1.2.1.1v.1zm.8-.6zm.1 0c-.1 0-.1 0 0 0-.1-.1-.1-.1 0 0-.1-.1-.1 0 0 0zm-.3-1s0 .1 0 0c0 .1 0 .1 0 0 0 .1 0 .1 0 0zm0 .2c0 .1 0 .1 0 0zm6.7.3zm-5.4.6zm5.7-.1c0 .1 0 .1 0 0zm.2.1zm.1.1zm-2.1-.1z" style="fill:#fff"/><path d="M68.1 87.9s-.1.1 0 0c0 .1 0 .1 0 0zm-1.4.4zM68 88zm2.1.5zm0 0c0-.1 0-.1 0 0zm0-.1zm-.2 0zm0 0s0 .1 0 0c0 .1 0-.1 0 0zm-.2-.7c.1 0 .1-.1 0 0 .1-.2.1.1 0 0zm-.1-.1v-.1.1zm-1-.1v-.1.1zm-.3.6v.1l.1-.2zm0-.9v-.1.1zm-1.7-.1v.2-.2zm-.8.1c0-.1 0-.1 0 0 0-.1 0 0 0 0zm-2.2-.2v-.1l-.1.1z" style="fill:#fff"/></g><g style="opacity:.65"><path d="M67.6 77v-.1.1zm0-.3c0 .1-.1.2-.1.4.1-.2.1-.2.1-.4v.2-.1c0-.1 0-.1 0 0v-.1zm-.6-.4zm-.4-.2zm0-.1s0-.1 0 0zm.4.3zm.5.7zm-.3-.8s0-.1 0 0zm.2 0v.2c-.1-.1 0-.1 0-.2 0 .1 0 0 0 0zm.2.3zm-.5-.4zm-3.7 1.2zm-.4-.6v-.1zm3.4-.9c.1-.1 0 0 0 0zm-1.2 0v.3-.3zm2.3 1.2zm-2.3-.9zm.9-.3s0 .1 0 0c0 .1 0 0 0 0zm.2.2zm-.3 0zm-.1 0zm-2.2 1.1V77v.1zm3.8-.1zm-1.6.1zm-1.5-.1zm1.4.1s0-.1 0 0c0-.1 0-.1 0 0zm-2.2-.1zm0 .4s0-.2-.1-.3c.1-.1.1.1.1.3v-.3.1-.2c0-.1 0-.2-.1-.2 0 0 0-.1 0 0v.1-.1.2-.2.2-.1l.1.3s0-.1 0 0V77c0-.2.1.4.1.2 0-.1-.1-.3 0-.2v.2-.2.1-.1.2-.2.2c0-.1.1 0 .1.1v-.1.1-.1.1c0-.1 0-.3.1-.1V77c0 .1.1-.1.1.1 0-.2.1.1 0-.2 0 .1 0 .2.1.3V77v.2-.2.2-.1c0-.1 0 .1.1.2v-.1.1c0-.2 0 .2 0 0v-.1.2l.1-.1V77v.2-.2.2-.1.1c0-.1 0 .2 0 0 0 0 0-.1.1-.1v-.2s0 .2.1.1v-.2.2l.1-.1v-.1.1c0-.2.1.4.1.1v-.1.2c0-.2.1 0 .1-.1 0 .4.1 0 .1.2v-.1.1-.1c.1-.1.1.1.2.2 0 0 0-.5.1-.2v.2c.1-.2.1 0 .2-.2v.1-.1.1c0 .1 0-.2 0 0v-.1c0 .1 0-.1 0 0V77v.3-.2c0 .3.1-.2.1.1 0-.1.1-.2.1-.2 0 .2 0 0-.1.3 0-.1.1-.3.1-.2v.1c0-.1.1 0 .1-.1v.1-.1c0-.1.1-.3.1-.4v.4-.1.1-.2.1c0-.1 0-.2.1-.1v.1s.1-.3.1-.2v.3-.3.1-.3.1-.1.2c0-.2 0 0 .1-.2v.2-.1.1-.1c0 .1.1-.1.1 0v.2l.1-.2c0-.3 0 .1 0 0v.1l.1-.1v.2-.2c0 .4.1-.2.1.1v.1-.4.2-.2.1-.1.2s.1-.2.1-.1v.3c.1-.3 0-.1.1-.3-.1.2 0 .1 0 .3v.1-.1.1-.1c0-.2 0 .2.1 0 0-.1.1-.2.1-.3v.2c0 .1 0 .1 0 0v.1-.1.2s.1-.1.1-.2v.2s0-.1.1-.2v.1-.1c0-.3 0 0-.1 0v-.2.2-.2c0-.1 0 .1 0 0v.1-.1c0-.1-.1.1 0 0 0 .1 0 .1-.1.3v-.4.2-.1.2c0-.1-.1.1 0-.2v.2-.3c0 .2 0-.1 0 0 0 .2 0 .1-.1.1v-.2c0 .2 0 .1-.1.2v-.2.1-.1s-.1.2-.1.1c0 .1 0 .4-.1.4v-.2s0 .1 0 0v-.1.1-.3.1-.2.1-.1c0 .1 0 0-.1.2 0 .1 0-.1-.1 0 0 .1 0 0-.1.1v-.1s0 .1 0 0v-.1s0-.1 0 0v-.1.1-.2c0-.2-.1.3-.1 0v.2-.3c0-.1 0 .2-.1.2v.3-.4.1-.2.1-.1.1c0-.1 0 .1-.1.1v-.4.1-.1.3-.3c0-.1 0 .2-.1.2V76v.2c0-.1 0 0 0 0v.1-.4c0 .1 0-.1 0 0v.2-.1.2-.1.2c0-.2 0 .1 0 0V76c0-.1-.1.1-.1.1v.2-.2.2-.1c0-.1-.1.3-.1.2v-.3c0-.1 0 .1 0 0v.3c0-.3-.1 0-.1-.2 0 0 0 .1-.1.1v.2-.2c0-.1 0 .1-.1.1 0 .2-.1.2-.1.3v-.2.2-.3c0-.2 0 0 0 0v-.1s0 .2-.1.2v.1c0 .2 0-.1 0 0v-.2s0 .2-.1.2c0-.1 0-.2.1-.3v.1s0-.1 0 0c0 .2 0 .2-.1.2 0-.4-.1-.1-.1-.4 0 .1-.1-.1-.1 0v.3-.5.2c0 .2 0-.3-.1-.1V76c0 .1-.1 0-.1.2v-.1s-.1.3-.1.1v-.1.1-.1.1-.1c0-.1-.1.2-.1.3 0-.2 0-.3-.1-.3 0 0-.1.2-.1.3 0-.2-.1-.1-.1-.2v.2s0 .2 0 0 0-.1-.1-.1v.3c-.1-.4-.1.1-.1-.2v.1-.1h-.1v-.1.4-.2s-.1-.2-.1 0v-.1s-.1-.1 0 .2v.1-.1.3-.1.1-.1.1c0 .1 0 0-.1-.2v.1-.1c0-.1 0 .2-.1 0v-.1c0-.1 0-.1-.1-.3v.3-.1.5c-.1-.2-.1-.3-.1-.4 0 .1-.1.1 0 .3v-.2.2-.2c-.1-.3 0 .5-.1.1v.1c-.1-.1-.1.2-.2 0v.2l-.1-.1v.2c0 .1-.2-.3-.1-.1v.1s0 .1-.1 0v.1-.1.1s-.1-.3-.2-.3c0 0 0 .2.1.3l.1.1.3.6-.1-.1.1.1v-.1c0 .1 0 .1.1.1l-.1-.2c0 .1.1.2.1.2 0-.1-.1-.2-.1-.3 0 .1.1.2.1.1v.1-.2c.1.1 0 0 .1.2v-.2l.1.3c-.1-.2 0-.1 0-.2 0 0 0 .1 0 0 0 0 0 .1.1.1-.1-.2-.1-.2-.1-.4.2-.4.2-.4.3-.1-.1-.2-.1-.2-.1-.3 0 .1 0 .1.1.2-.1-.2 0 0 0-.2 0 .1.1.2.1.1-.1.1-.1.2-.1.2zm.3-.5zm0 0c0-.1 0-.1 0 0 0-.1 0-.1 0 0 0-.1 0-.1 0 0zm-.2-1c0 .1 0 0 0 0zm0 .2zm3.3.2zm-2.6.8V77v.1zm2.7-.3zm.1.1zm.1 0zm-1 .1c-.1 0-.1 0 0 0zm.3-.3c0 .1 0 .1 0 0zm-.7.4zm.7-.4c0 .1 0 .1 0 0zm.9.4c0-.1 0-.1 0 0zm0-.1c.1 0 0 0 0 0zm.1 0zm-.1 0zm-.1 0s0 .1 0 0c0 .1.1-.1 0 0zm0-.7c.1 0 .1 0 0 0 .1-.2.1.1 0 0zm0 0v-.1.1zm-.5-.1v-.1.1zm-.2.6v.1-.1zm.1-.9h-.1zm-.9 0v.2-.2zm-.4.1c0-.1 0-.1 0 0zm-1.1-.2v-.1.1z" style="fill:#fff"/></g><g style="opacity:.65"><path d="M70.3 92.7v-.1.1zm-.1-.3c0 .1-.1.2-.1.4.1-.2.1-.1.1-.4v.2-.1c0-.1 0-.1-.1 0 .1 0 .1-.1.1-.1zm-1.3-.5zm-.8-.2zm-.2-.2zm1 .4zm1.1.8zm-.7-.9zm.3 0v.2-.2c0 .1 0 .1 0 0zm.4.4zm-.9-.4c0-.1 0-.1 0 0zm-7.9 1.1c-.1 0 0 0 0 0zm-.5-.6h-.1zm7-1zm-2.5 0v.3-.3zm4.8 1.4c-.1 0-.1 0 0 0zm-4.8-1.1zm1.8-.3s0 .1 0 0c0 .1 0 0 0 0zm.5.3c0-.1 0 0 0 0zm-.7-.1zm-.3 0zm-4.7 1.2v-.1.1zm8.2 0zm-3.3-.1zm-3.2-.1zm3.1.1c-.1-.1-.1-.1 0 0-.1-.1-.1-.1 0 0zm-4.8 0z" style="fill:#fff"/><path d="M61.6 93v-.3.3c.1-.1.1-.3.1-.3v.1c0-.1.1 0 .1-.2 0-.1 0-.2-.1-.2 0 0 0-.1 0 0v.1-.1.2c0-.1 0-.2.1-.2v.2l-.1-.1.1.3c.1 0 0-.1.1-.1v-.2c0-.2.1.4.1.2v-.2.2c.1 0 0-.3.1-.2v.1c.1.1 0-.1 0-.1v.2l.1-.2v.2c.1-.1.2 0 .2.1v-.1.1-.2.1c0-.1.1-.3.2-.1 0 .1 0-.3.1-.2.1.1.2-.1.3.1 0-.2.1.1.1-.2.1.1.1.2.1.3v-.2.2-.2.2-.1c0-.1.1.1.1.2l.1-.1v.1c0-.2 0 .2 0 0v-.1c0 .1.1.1.1 0v.1c.1 0 .1-.1.2-.1v-.3.2-.2.2-.1.1c0-.1.1.2.1 0 .1 0 .1-.1.2-.1v-.2s.1.2.1.1v-.2c0 .1.1.1 0 .2.1 0 .1 0 .1-.1v-.1.1c.1-.2.2.4.3.1l.1-.1v.2c.1-.2.1 0 .2-.1 0 .4.2 0 .2.2v-.1.1-.1c.1-.1.3.1.4.2.1 0 0-.5.1-.2v.2c.1-.2.2 0 .3-.2v.1c0 .1.1 0 .1-.1v.1c0 .1.1-.1.1 0 0-.1.1 0 .1-.1 0 .1.1-.1.1 0 0-.2.1.1.1-.1 0 .2.1.2.1.1v.2s.1 0 .1-.2c0 .3.1-.2.1.1.1-.1.2-.2.3-.2 0 .2-.1 0-.1.3.1-.1.1-.3.2-.2v.1c.1-.1.1 0 .2-.1v.1-.1c0-.2.1-.3.1-.4 0 .3.1.1 0 .4v-.1.1c.1-.1 0-.2.1-.2v.1c0-.1.1-.2.1-.1v.1c.1 0 .1-.2.2-.1v.3-.2l.1-.1v.1h.1v-.1c0-.1 0-.2.1-.2v.1c0-.1 0-.1.1-.1v.2c0-.2.1 0 .1-.2v.2-.1.1s0-.2.1-.1c0 .1.1-.1.1 0 0 .2 0 0-.1.2.1 0 .2-.2.2-.1 0-.3 0 .1.1 0v.1s.1-.1.2-.1v.1c0 .1.1 0 .1.1v-.2c0 .4.2-.2.2.1v.1l.1-.1v-.2c0-.1 0-.1.1-.1v.2-.1c0 .2 0-.2.1-.1v.1l.1-.1v.2s.1-.2.1-.1l-.1.1v.2c.1-.3.1-.1.2-.3-.1.2 0 .1-.1.3v.1c0-.1 0 .1.1-.1v.1-.1c.1-.2.1.2.2 0 .1-.1.1-.2.2-.3v.2c0 .1 0 .1.1 0v.1s0-.2.1-.1c0 .1 0 .1-.1.2 0 0 .1-.1.1-.2 0 .1 0 .1-.1.2 0 0 .1-.1.1-.2v-.1.1-.1c0-.3-.1 0-.1 0l.1-.2-.3.5v-.2c0-.1 0 .1 0 0v.1-.1c0-.1-.1.1-.1 0-.1.1 0 .1-.1.3v-.4.1-.1.2c0-.1-.1 0-.1-.2v.2c0-.3 0 0-.1-.1v-.2c-.1.2 0-.1-.1 0 0 .2-.1.1-.1.1 0-.1-.1-.1-.1-.2 0 .2-.1.1-.1.2 0-.1 0-.2.1-.2v.1-.1l-.1.1c0 .1 0 .4-.1.4v-.2s0 .1 0 0v-.1.1-.3.1-.2c0 .1 0 0-.1.1v-.1c0 .1-.1 0-.1.2-.1.1-.1-.1-.2 0 0 .1-.1 0-.1.1V92s0 .1-.1 0v-.1s0-.1-.1 0v-.1.1h-.1v-.2c0-.2-.2.3-.2 0v.2-.3c0-.1-.1.2-.1.2 0 .1 0 .2-.1.3v-.4.1c0-.1-.1-.1 0-.2v.1c0-.1-.1 0-.1-.1v.1c-.1-.1 0 .1-.1.1v-.3c-.1.1-.1-.1-.1-.1v.1-.1.3c0-.1-.1.1 0-.1 0 .1 0-.2.1-.2 0-.1 0 .2-.1.2v-.2.2c0-.1 0 0-.1 0 0 .1 0 .1-.1.1v-.1c0 .2 0-.2-.1-.1v-.2c-.1.1 0-.1-.1 0v.2l.1-.1-.1.2s.1-.1.1 0v.2c0-.2-.1.1-.1 0v-.3c0-.1-.1.1-.2.1v.1c0 .1 0 0-.1.1v-.2c0 .1 0 0-.1.2v-.1c0-.1-.1.3-.1.2v-.3c0-.1-.1.1-.1 0v.3c0-.3-.1 0-.2-.3l-.1.1c0-.1 0 .3-.1.2v-.1c0-.3-.1 0-.1-.1s-.1.1-.1.1c0 .2-.1.2-.1.3v-.2.2-.3c0-.2 0 0-.1 0v-.1c-.1 0-.1.2-.1.2v.1c0 .2 0-.1-.1 0v-.2l-.1.2c0-.1.1-.2.1-.3 0 0-.1 0-.1.1 0 0 0-.1 0 0 0 .2-.1.2-.1.2 0-.4-.1-.1-.1-.4-.1.1-.1-.1-.2 0v.3l-.1-.2v-.3.2c0-.1 0-.6-.1-.4v-.1c0 .1-.1 0-.1.2v-.1c-.1 0-.2.3-.2.1v-.1.1-.1s0 .1-.1.1v-.1c-.1-.1-.1.2-.2.3 0-.2-.1-.3-.1-.3-.1 0-.1.2-.2.3-.1-.2-.2-.1-.3-.2v.2s0 .2-.1 0c0-.2-.1-.1-.1-.1v.3c-.1-.4-.2.2-.3-.2 0 .1 0 .1-.1.1v-.1H63v-.1.4-.2c-.1 0-.1-.2-.2 0v-.1s-.1-.1-.1.2c0-.2-.1 0-.1.1v-.1.3-.1c0-.1 0 .1-.1.1v-.1.1c0 .1-.1 0-.1-.2v.1-.1c-.1-.1-.1.2-.1 0v-.1h.1c0-.1-.1-.1-.1-.3 0 .1 0 .3-.1.3 0-.1 0-.1-.1-.1v.5c-.1-.2-.1-.3-.1-.4 0 .1-.1.1-.1.3v-.2c0 .1-.1 0-.1.2-.1-.1 0-.2-.1-.1v-.1c-.2-.3-.1.5-.3.1v.1c-.2-.1-.2.2-.4 0v.2-.1.2c0 .1-.2-.3-.2-.1v.1s-.1.1-.1 0v.1-.1.1c-.1 0-.1-.3-.2-.3v.3l.1.1c.1.2.1.5.2.6V93v.1-.1.1-.2c0 .1 0 .2.1.2 0-.1-.1-.2-.1-.3 0 .1.1.2.1.1v.1-.2c.1.1.1 0 .1.2v-.2c0 .3.1 0 .1.3 0-.2.1-.1.1-.3 0 0 0 .1 0 0 0 0 0 .1.1.1v-.4c.1.2 0 .2.1.4v-.3c0 .1 0 .1.1.2v-.2c.1.1.1.2.1.1v.3zm.8-.6zm.1 0c-.1 0-.1 0 0 0-.1 0-.1-.1 0 0-.1-.1-.1 0 0 0zm-.3-.9c0-.1 0 0 0 0zm0 .1c0 .1 0 .1 0 0zm6.7.3zm-5.4.7v-.1.1zm5.7-.1zm.2 0zm.1.1zm-2.1-.1z" style="fill:#fff"/><path d="M68.1 92.2c0 .1-.1.1 0 0 0 .1 0 .1 0 0zm-1.4.4zm1.3-.3zm2.1.5zm0 0zm0-.1c0 .1 0 .1 0 0zm-.2 0zm0 0s0 .1 0 0c0 .1 0-.1 0 0zm-.2-.7c.1 0 .1 0 0 0 .1-.2.1.1 0 0zm-.1-.1v-.1.1zm-1-.1v-.1.1zm-.3.6v.1l.1-.1zm0-.9zm-1.7-.1v.2-.2zm-.8.1c0-.1 0-.1 0 0zm-2.2-.2v-.1l-.1.1z" style="fill:#fff"/></g><g style="opacity:.65"><path d="M68.6 106c.1 0 .2-.1 0 0z" style="fill:#fff"/><path d="M68.8 105.8c-.1 0-.2.1-.3.2.2-.1.1-.1.3-.2 0 .1-.1.1-.1.2h.1v-.2c-.1 0 0 0 0 0zm-.7-1.2c0 .1 0 0 0 0zm-.5-.6zm0-.2zm.5.8zm.3 1.3zm0-1.1s.1 0 0 0zm.2.2-.1.1s.1 0 .1-.1zm.2.5zm-.5-.9zm-6.5-4.2zm.2-.7v-.1zm5.5 3.8zm-1.8-1.5-.2.2c0-.1.2-.2.2-.2zm2.7 3.9zm-2.9-3.7zm1.5.9s0 .1 0 0c0 .1 0 0 0 0zm.2.5zm-.5-.5zm-.1-.1h-.1.1zm-4.2-2.2s0-.1.1-.1l-.1.1zm6.1 5.1c-.1 0-.1 0 0 0-.1 0-.1 0 0 0zm-2.5-2zm-2.2-2.1c-.1 0-.1 0 0 0zm2.1 2c0-.1 0-.1 0 0zm-3.4-3.1z" style="fill:#fff"/><path d="m62.1 100.8.2-.2c.1 0-.1.1-.2.2.1 0 .2-.2.3-.1v.1c.1-.1.1 0 .2-.1s.1-.2.1-.2.1-.1 0 0l-.1.1c-.1.1-.1 0-.1.1.1 0 .2-.1.2-.1-.1.1-.1 0-.1.2v-.1c-.1.2 0 0-.2.2 0 .1.1 0 .1 0 .1-.1.1-.1.1-.2.2-.1-.2.4 0 .2.1-.1.2-.3.2-.1l-.1.1s.2-.2.2-.1c-.1.1-.1 0-.1.1l.1-.1-.1.1c.1 0 .2-.1.2 0l-.1.1c.1 0 .1.1.1.2l.1-.1s0 .1-.1.1c0 .1.1-.1.1-.1s0 .1-.1.1c.1-.1.3-.1.2 0 0 .1.2-.2.2-.1s.2.1.1.3c.1-.2 0 .1.2-.1-.1.1-.1.2-.1.3 0 0 .1-.1.2-.1l-.1.1.1-.1-.1.2s0-.1.1-.1 0 .1-.1.2l.1-.1-.1.1c.1-.1-.1.1 0 0l.1-.1v.1l-.1.1c0 .1.1 0 .2.1 0-.1.1-.2.2-.2l-.1.1c.1-.1 0-.1.1-.1 0 0-.1.2-.2.2h.1l-.1.1c.1-.1-.1.2.1 0h.2c.1-.1.1-.1.2-.1v.2c.1 0 .1-.1.2-.1-.1.1 0 .1-.1.2h.2s0-.1.1-.1c0 0 0 .1-.1.1.2-.1-.1.4.1.2l.1-.1-.1.1c.2-.1.1.1.2 0-.2.3.1.1 0 .3l.1-.1c.1-.1 0 .1 0 .1 0-.1 0-.1.1-.1.2 0 .1.3.2.4 0 .1.3-.3.2-.1l-.1.1c.2-.1.2.1.3.1l-.1.1c-.1.1.1.1.1 0l-.1.1c0 .1.1-.1.1 0 0 0 0 .1.1-.1 0 .1.1 0 .1.1.1-.1 0 .1.1-.1-.2.2-.1.2 0 .1-.1 0 0 .1-.1.1 0 0 .1 0 .1-.1-.1.2.2-.1 0 .2h.3c-.2.2-.1 0-.2.1.1 0 .3-.1.3 0l-.1.1c.1 0 .1.1.2.1h-.1.1c.1-.1.2-.2.3-.2-.2.2 0 .1-.3.3 0 0 .1 0 .1-.1 0 0 0 .1-.1.1.1 0 .1-.1.2-.1 0 0-.1 0-.1.1.1-.1.2-.1.2-.1s0 .1-.1 0c.1 0 .2-.1.2 0-.2.1 0 .1-.2.2h.1l.1-.1s.1-.1.1 0H67h.1v-.1c.1 0 .2-.2.2-.1v.1c.1 0 .1-.1.1 0l-.2.2c.1-.1.1 0 .2-.1l-.1.1.1-.1s0 .1-.1.1l.1-.1c0 .1.1 0 .1.1-.1.1-.1 0-.2.1.1 0 .3-.1.3 0 .2-.2-.1.1.1.1l-.1.1c0 .1.1 0 .2 0h-.1v.1c.1 0 .1 0 .1-.1-.2.3.3 0 .1.2h-.1.1c.1-.1 0-.1.1-.1s.1-.1.1-.1c-.1 0-.1.1-.2.2l.1-.1c-.1.2.2-.2.1 0 0 0 .1-.1.1 0-.1.1-.1 0-.1.1 0 0 .2-.1.1 0h-.1l-.1.1v.1c.3-.2.1 0 .3-.1-.2.1-.1.1-.2.2 0 0 0 .1-.1.1.1-.1 0 .1.1 0l-.1.1.1-.1c.1-.1-.1.2.1.1.1 0 .2-.1.3-.2 0 .1-.1.1-.1.1v.1l-.1.1s.1-.1.1 0c0 0-.1.1-.2.1 0 0 .1-.1.2-.1l-.1.1s.1 0 .2-.1l-.1.1c-.1.1 0-.1 0-.1.2-.2-.1 0-.1-.1l.2-.1-.1.1.1-.1c.1-.1-.1 0 0-.1h-.1l.1-.1c.1-.1-.2.1-.1-.1-.1 0-.1.1-.3.2l.2-.3-.1.1v-.1l-.1.1c.1-.1-.1 0 .1-.2-.1.1 0 .1-.1.1.2-.2-.1 0 0-.1s.1 0 .1-.1c-.2.1 0-.1 0-.1-.1.1-.1 0-.2 0v-.2c-.1.1-.1.1-.2.1.1-.1.1-.1.2-.1l-.1.1.1-.1s-.2.1-.1 0c-.1.1-.2.3-.3.3 0 0 .1-.1.2-.1 0 0-.1 0 0 0l.1-.1s-.1.1-.1 0c.1-.1 0-.1.1-.1 0 0 0-.1.1-.1l-.1.1.1-.1c-.1 0 0 0-.1.1 0 0 0-.1.1-.1-.1 0-.1 0-.2.1s0-.1-.1-.1h-.2s0-.1.1-.1h-.1c.1 0 0-.1.1 0 0-.1.1-.1-.1 0l.1-.1v.1l.1-.1c.1-.2-.3.2-.1-.1-.1.1 0 .1-.1.2l.1-.2c0-.1-.2.1-.2.1s-.1.2-.2.2c0 0 .1-.2.2-.2l.1-.1c0-.1 0-.1.1-.1-.1 0-.1.1-.1.1v-.1l-.1.1c0-.1-.1.1-.1.1 0-.1.2-.1.1-.1 0-.1.1-.1.1-.1-.1.1 0-.1 0-.1l-.1.1v-.1c-.1 0-.1.1-.2.2 0-.1-.1 0 0-.1 0 .1.1-.1.2-.1.1-.1-.1.1-.2.1l.1-.1-.2.2c0-.1-.1 0-.1 0-.1.1-.1 0-.1 0 0-.1 0 0 .1 0-.1.1.1-.2 0-.1 0-.1.1-.1.1-.2-.1.1.1-.1 0-.1-.1.1-.1.1-.2.1h.1l-.1.1h.1c-.1.1-.1 0-.1.1.1-.1-.1 0-.1-.1l.2-.2c.1-.1-.2.1-.2 0v.1c-.1.1 0 0-.1 0 .1-.1.1-.1.1-.2 0 .1 0 0-.2.1l.1-.1c0-.1-.2.2-.2.1l.2-.2h-.1c0-.1-.1.1-.1 0l-.1.1s-.1 0-.1.1c.2-.3-.1-.1 0-.3h-.1c0-.1-.2.2-.2.1.1-.1.1 0 .1-.1.2-.2-.1 0 0-.2.1-.1-.1 0-.1 0-.1.1-.2.1-.3.1.1-.1.1 0 .1-.1 0 0-.1.2-.2.2 0-.1.1-.1.1-.2.1-.1 0 0 0-.1l.1-.1c-.1 0-.2.1-.2.1-.2.1.1-.1-.1 0l.1-.2-.2.1c.1-.1.2-.1.3-.2h-.1s.1 0 0 0c-.1.1-.2.1-.2.1.3-.3 0-.1.2-.4-.1.1-.1-.1-.1-.2l-.2.2.1-.2c0-.1.1 0 .1-.1 0 0 .1-.1.1-.2l-.1.1-.1.1c-.2.1.1-.2 0-.1l.1-.1c-.1 0-.1-.1-.3.1l.1-.1c0-.1-.3.1-.2-.1l.1-.1s-.1.1-.1 0l.1-.1s-.1.1-.1 0l.1-.1c0-.1-.2.1-.3.1.1-.2.1-.3.1-.3 0-.1-.2 0-.3.1.1-.2-.1-.2 0-.3l-.1.1s-.1.1 0-.1.1-.1 0-.2l-.2.2c.2-.3-.2 0-.1-.3-.1 0-.1 0-.1.1l.1-.1c0-.1 0-.1-.1-.1l.1-.1-.3.3.1-.2s0-.2-.1-.1l.1-.1s0-.2-.2.1c.1-.1 0-.1-.1 0l.1-.1-.2.2.1-.1c0-.1-.1.1-.1 0l.1-.1-.1.1v-.2l-.1.1.1-.1c0-.1-.2.1-.1-.1v-.1s.1.1 0 .1c.1-.1.1-.1.2-.3-.1.1-.2.2-.2.1.1-.1 0-.1 0-.1-.1.1-.1.1-.1.2-.1 0-.1.1-.1 0l-.2.2c.1-.2.1-.3.2-.4-.1 0-.1 0-.3.2 0 0 0-.1.1-.1h.1c-.1 0-.1 0-.2.1 0-.1.1-.1.1-.1.1-.3-.4.3-.3-.1v.1c0-.2-.3 0-.2-.3 0-.1-.1 0-.1.1l.1-.1-.1.1c-.1.1.1-.4-.1-.2l-.1.1s-.1 0 0-.1c0 0-.1.1 0 0v-.1l-.1.1c0-.1.2-.3.1-.3 0 0-.2.1-.2.2v.1c-.1.2-.3.4-.3.5l.1-.1-.1.1c0 .1 0 0 .1 0 0 .1-.1.1-.1.1l.2-.2c0 .1-.1.1-.1.2.1-.1.1-.2.2-.2 0 .1-.1.2 0 .1 0 .1-.1.1-.1.1.1 0 .1 0 .1-.1-.1.1.1 0-.1.2l.1-.1c-.2.2 0 0-.1.3.2-.2.1 0 .2-.1v.1c.1-.2.2-.2.3-.3-.1.2-.1.2-.2.3l.2-.2c-.1.1 0 .1-.1.2.1-.2 0 0 .1-.1 0 .1-.1.2-.1.2-.3.4-.4.4-.4.4zm.9.2zm.1 0c0-.1 0-.1 0 0 0-.1 0 0 0 0zm.5-.9s0 .1 0 0c-.1.1-.1.1 0 0-.1.1-.1.1 0 0zm-.2.2zm4.7 4.4zm-4.4-2.9zm4.3 3.5zm.1.1zm0 .2c0-.1.1-.1 0 0zm-1.5-1.3c-.1 0 0 0 0 0zm.6.1c0 .1 0 .1 0 0 0 .1 0 .1 0 0zm-1.2-.5z" style="fill:#fff"/><path d="M67.2 104.5c-.1 0 0 0 0 0s0-.1 0 0zm1.3 1.5zm0 0zm0 0zm-.1-.2c0 .1 0 0 0 0zm-.1 0s0 .1 0 0c0 .1.1 0 0 0zm.4-.6h.1c0-.2-.1.1-.1 0zm-.1-.1s.1-.1 0 0c0-.1 0-.1 0 0zm-.7-.7c.1-.1.1-.1 0 0zm-.6.3v.1l.1-.1zm.6-.7zm-1.2-1.1-.1.1.1-.1zm-.7-.4c.1 0 .1-.1 0 0 .1 0 0 0 0 0zm-1.4-1.5v-.1z" style="fill:#fff"/></g><g style="opacity:.65"><path d="M61.7 105.6s.1.1 0 0zm.3.1c0-.1-.1-.2-.3-.3.1.2.1.1.3.3-.1 0-.1-.1-.2-.1v.1h.2c-.1 0 0 0 0 0zm1.1-.7zm.6-.5zm.3 0s-.1 0 0 0zm-.9.5zm-1.3.3zm1.1 0s.1.1 0 0zm-.1.2-.1-.1s0 .1.1.1c-.1 0-.1 0 0 0zm-.5.2zm.8-.5zm5.1-5.8c.1 0 0 0 0 0zm.7.4h.1zm-4.6 4.7zm1.6-1.7-.2-.2s.1.2.2.2zm-4 2.5s-.1 0 0 0zm3.8-2.7zm-1.1 1.4zm-.4.2c0-.1 0 0 0 0zm.5-.5zm.1-.2zm2.9-3.7c0 .1 0 .1 0 0 0 .1 0 0 0 0zm-5.8 5.6c0-.1 0-.1 0 0zm2-2.5zm2.5-2s-.1 0 0 0zm-2.4 1.9c.1 0 .1 0 0 0 .1 0 .1 0 0 0zm3.8-2.9z" style="fill:#fff"/><path d="m67.8 99.5.1.2c0 .1-.1 0-.1-.2 0 .1.1.3.1.3v-.1c.1.1-.1.1 0 .2l.2.2s0 .1 0 0v-.1.1c-.1-.1 0-.1-.1-.2 0 .1.1.2 0 .2-.1-.1 0-.1-.1-.2h.1l-.2-.2c-.1 0 0 .1-.1.1 0 .1.1.1.1.2 0 .2-.3-.3-.2-.1.1.1.2.3.1.2l-.1-.2c-.1 0 .1.2 0 .2v-.1c-.1-.1 0 .1 0 .1l-.1-.1v.2l-.1-.1c0 .1-.1.1-.3 0l.1.1s-.1 0-.1-.1c-.1 0 .1.1.1.1l-.1-.1c0 .1.1.3-.1.2-.1 0 .2.3 0 .2-.1 0-.1.2-.3 0 .1.2-.1 0 .1.2-.1-.1-.2-.1-.3-.2l.1.2-.1-.1.1.1-.1-.1s.1 0 .1.1-.1 0-.2-.1v.2s0-.1-.1-.1c.1.1-.1-.1 0 0l.1.1c-.1-.1-.1 0-.1 0l-.1-.1c-.1 0-.1.1-.1.2.1 0 .2.2.2.2l-.1-.1c.1.1.1 0 .1.1l-.2-.2v.1s0-.1-.1-.1c.1.1-.1-.1 0 .1-.1 0 0 .1-.1.1.1.1.1.1.1.2-.1 0-.2-.1-.2 0s.1.1.1.2c-.1-.1-.1-.1-.2-.1v.2s.1 0 .1.1c0 0-.1 0-.1-.1.1.2-.4-.2-.3.1v.1s0-.1-.1-.1c.1.2-.1.1-.1.2-.3-.3-.1.1-.3 0l.1.1c0 .1 0 0-.1 0 0 .1.1 0 .1.1 0 .2-.3.1-.5.1-.1 0 .3.4.1.2l-.1-.1c.1.2-.2.1-.1.3 0 0-.1-.1 0-.1-.1-.1-.1 0 0 .1l-.1-.1c-.1 0 .1.2 0 .1 0 .1-.1 0 0 .1-.1 0 0 .1-.1.1.1.1-.1 0 0 .2-.2-.2-.2-.1-.1 0 0-.1-.1 0-.1-.1 0 0 0 .1.1.2-.2-.2.1.2-.2 0v.3c-.2-.2 0-.1-.1-.2 0 .1.1.3 0 .3l-.1-.1c0 .1-.1.1-.1.2v-.1.1c.1.1.2.3.2.3-.2-.2-.1 0-.3-.3 0 0 0 .1.1.1 0 0-.1 0-.1-.1 0 .1.1.1.1.2 0 0 0-.1-.1-.1.1.1.1.2.1.2v-.1c0 .1.1.3 0 .2-.1-.2-.1 0-.2-.2v.1l.1.1s.1.1 0 .1v-.1.1h.1c0 .1.2.2.1.2h-.1c0 .1.1.1 0 .1l-.2-.2c.1.1 0 .1.1.2l-.1-.1.1.1s-.1 0-.1-.1l.1.1c-.1 0 0 .1-.1.1-.1-.1 0-.1-.1-.2 0 .1.1.3 0 .3.2.2-.1-.1-.1.1l-.1-.1c-.1 0 0 .1 0 .2v-.1H63c0 .1 0 .1.1.1-.3-.2 0 .3-.3.1v-.1.1c.1.1.1 0 .1.1s.1.1.1.1c0-.1-.1-.1-.2-.2l.1.1c-.2-.1.2.2 0 .1 0 0 .1.1 0 .1-.1-.1 0-.1-.1-.1 0 0 .1.2 0 .1v-.1l-.1-.1h-.1c.2.3 0 .1.1.3-.1-.2-.1-.1-.2-.2 0 0-.1 0-.1-.1.1.1-.1 0 0 .1l-.1-.1.1.1c.1.1-.2-.1-.1.1 0 .1.1.2.2.3-.1 0-.1-.1-.1-.1h-.1l-.1-.1s.1.1 0 .1l-.1-.1s.1.1.1.2l-.1-.1s0 .1.1.2l-.1-.1c-.1-.1.1 0 .1 0 .2.2 0-.1.1-.1l.1.2-.1-.1.1.1c.1.1 0-.1.1 0v-.1l.1.1c.1.1-.1-.2.1-.1 0-.1-.1-.1-.2-.3l.3.2-.1-.1h.1c-.1-.1-.1 0-.1-.1.1.1 0-.1.2.1-.1-.1-.1 0-.1-.1.2.2 0-.1.1 0s0 .1.1.1c-.2-.2.1 0 .1 0-.1-.1 0-.1 0-.2h.2c-.1-.1-.1-.1-.1-.2.1.1.1.1.1.2l-.1-.1.1.1s-.1-.2 0-.1c-.1-.1-.3-.2-.3-.3.1 0 .1.1.1.2 0 0 0-.1 0 0l.1.1c.1 0-.1-.1 0-.1.1.1.1 0 .1.1 0 0 .1 0 .1.1l-.1-.1.1.1c0-.1 0 0-.1-.1 0 0 .1 0 .1.1 0-.1 0-.1-.1-.2s.1 0 .1-.1v-.2s.1 0 .1.1v-.1c0 .1.1 0 0 .1.1 0 .1.1 0-.1l.1.1h-.1l.1.1c.2.1-.2-.3.1-.1-.1-.1-.1 0-.2-.1l.2.1c.1 0-.1-.2-.1-.2s-.2-.1-.2-.2l.2.2.1.1c.1 0 .1 0 .1.1 0-.1-.1-.1-.1-.1h.1l-.1-.1c.1 0-.1-.1 0-.1s.1.2.1.1c.1 0 .1.1.1.2-.1-.1.1 0 .1 0l-.1-.1h.1c0-.1-.1-.1-.2-.2.1 0 0-.1.1 0-.1 0 .1.1.1.2.1.1-.1-.1-.1-.2l.1.1s-.1-.1-.1-.2c.1 0 0-.1 0-.1-.1-.1 0-.1 0-.1v.1c-.1-.1.2.1.1 0 .1 0 .1.1.2.1-.1-.1.1.1.1 0-.1-.1-.1-.1-.1-.2v.1l-.1-.2v.1c-.1-.1 0-.1-.1-.1.1.1 0-.1.1 0l.2.2c.1.1 0-.2.1-.2-.1-.1 0 0 0-.1l.1.1c-.1-.1 0 0-.1-.2l.1.1c.1 0-.2-.2-.1-.3l.2.2v-.1s-.1-.1 0-.1l-.1-.1s0-.1-.1-.1c.2.2.1-.1.3.1v-.1c.1 0-.2-.2-.1-.2.1.1 0 .1.1.1.2.2 0-.1.2 0 .1.1 0-.1 0-.1-.1-.1-.1-.2-.1-.3.1.1 0 .1.1.2l-.1-.2c.1 0 .1.1.2.2s0 0 .1 0l.1.1c0-.1-.1-.2-.1-.2-.1-.2.1.1 0-.1l.1.1-.1-.2c.1.1.1.2.1.3v-.1s0 .1 0 0c-.1-.1-.1-.2-.1-.2.2.3.1 0 .4.2 0-.2.1 0 .2-.1l-.2-.2.2.1c.1.1 0 .1.1.1 0 0 .1.1.2.1-.1-.1-.1-.1 0-.1l-.1-.1c-.1-.2.2.2.1 0v.1c0-.1.1-.1-.1-.3l.1.1c.1 0-.1-.3.1-.2v.1s-.1-.1 0-.1c0 0 0 .1.1.1 0 0-.1-.1 0-.1v.1c.1 0-.1-.2 0-.3.1.2.2.2.3.2.1 0 0-.2 0-.3.2.2.2 0 .3 0 0 0-.1-.1-.1-.2 0 0-.1-.1.1 0s.2 0 .2 0l-.2-.2c.3.3.1-.2.3 0v-.1l.1.1c.1 0 .1 0 .1-.1l.1.1s-.2-.3-.2-.4l.1.2s.2.1.1-.1l.1.1s.2 0 0-.2c.1.1.1 0 0-.1l.1.1c-.1-.2-.1-.2-.1-.3 0 0 .1.1 0 .1.1 0-.1-.1 0-.1v.1l-.1-.1c0-.1.1 0 .1.1 0-.1-.1-.2-.1-.1 0 0 0 .1.1.1s0-.2.1-.1c0 0 0 .1.1.1h-.1c.1.1.1.1.2.3 0-.1-.1-.3-.1-.3.1.1.1 0 .1 0-.1-.1-.1-.1-.1-.2s-.1-.1 0-.1c0-.1-.1-.2-.1-.2l.3.3c0-.1.1-.1-.1-.3l.1.1v.1c0-.1.1-.1-.1-.2.1 0 .1.1.1.1.3.2-.2-.5.2-.2.2.1.1-.3.4-.1.1 0 0-.1 0-.2l.1.1-.1-.2c0-.1.3.3.2 0l-.1-.1s0-.1.1 0c0 0-.1-.1 0-.1v.1-.1c.1 0 .2.3.2.2 0 0-.1-.2-.1-.3l-.1-.1c-.1-.2-.2-.4-.4-.5v.1l-.1-.1c-.1-.1 0 0 0 .1l-.1-.1.1.2c-.1-.1-.1-.2-.1-.2 0 .1.1.2.1.2-.1-.1-.1-.2-.1-.1l-.1-.1v.2c-.1-.1 0 .1-.2-.1l.1.2c-.1-.2-.1 0-.2-.2.1.2 0 .1 0 .3 0 0 0-.1 0 0l-.1-.1c.1.2.1.2.2.3-.1-.1-.1-.2-.2-.3.1.1.1.2.1.3l-.2-.2.1.2c-.1-.1-.1-.2-.1-.1.3-.2.3-.3.3-.3zm-.4.9zm-.1 0c.1 0 .1.1 0 0 .1.1 0 0 0 0zm.7.7zm-.1-.2zm-4.8 4.1zm3.3-4.2zm-3.9 4.1c-.1 0-.1 0 0 0zm-.2.1zm-.1 0c0 .1 0 .1 0 0zm1.3-1.5c0-.1 0 0 0 0zm-.2.6zm.6-1.2zm-.6 1.2c0-.1 0 0 0 0zm-1.6 1.3h.1zm.1 0zm0 .1c0-.1-.1-.1 0 0zm.1-.2zm0 0s-.1-.1 0 0c-.1-.1.1 0 0 0z" style="fill:#fff"/><path d="M62.5 105.6v.1c.2 0 0-.1 0-.1zm.2-.1s0 .1 0 0zm.7-.7c.1.1 0 .1 0 0zm-.4-.6v.1zm.7.6h.1-.1zm1.2-1.1-.1-.1.1.1zm.4-.6s.1.1 0 0zm1.7-1.2.1.1-.1-.1z" style="fill:#fff"/></g><path d="M67.2 39zm0-.1v.1-.1c0 .1 0 .1 0 0zm-.8-.1zm-.4-.1zm-.1 0zm.5.1zm.7.2zm-.5-.3zm.2 0s0 .1 0 0c0 .1 0 .1 0 0zm.2.1zm-.5-.1zm-4.3.4zm-.2-.3zm3.8-.2zm-1.4 0v.1s.1 0 0-.1zm2.7.4zm-2.7-.3v.1zm1-.1zm.3.1zm-.4 0zm-.1 0zm-2.6.4zm4.5-.1zm-1.8.1zm-1.8 0zm1.7 0zm-2.6-.1zm-.1.2v-.1.1l.1-.1c-.1 0-.1 0-.1.1.1-.1.1-.1.1-.2v-.1.1s0-.1.1-.1v.2h.1V39c0-.1 0 .2.1.1V39v.1-.1c0 .1 0 0 0 0v.1l.1-.1v.1h.1v-.2.1s.1-.1.1 0v-.1s.1 0 .1.1c0-.1 0 0 .1-.1 0 .1 0 .1.1.1v-.1.1-.1.2-.1c0-.1 0 .1 0 0h.2v-.1.1-.1.2s0 .1 0 0h.1V39s0 .1.1.1V39v.1l.1-.1c0-.1.1.2.1 0v-.1.1c0-.1.1 0 .1 0 0 .2.1 0 .1.1V39c.1 0 .2.1.2.1s0-.2.1-.1v.1c.1-.1.1 0 .2-.1v.1s0-.1 0 0h.1V39c0 .1 0 .1.1 0v.1-.1c0 .1.1-.1.1.1l.1-.1v.1l.1-.1v.1h.1v-.2.2-.1.1-.1.1-.1l.1-.1v.1s0-.1 0 0v-.1.1c0-.1 0 0 .1-.1v.1-.1.1-.1h.1v.1l.1-.1c0-.1 0 .1 0 0 0 0 0 .1 0 0 0 0 .1 0 .1-.1h.1v-.1c0 .2.1-.1.1 0v-.1.1c0 .1 0-.1 0 0v.1s0-.1 0 0v.1c0-.1 0 0 .1-.1v.3-.1c0-.1.1.1.1 0 0 0 0-.1.1-.1v.2s0-.1 0 0v.1-.1.1-.1.1c0-.1 0 0-.1 0v-.1.1-.1s0-.1 0 0c0 0 0 .1 0 0v.1-.2.2-.1.1c0-.1 0 0 0 0v-.1c0 .1 0 0 0 0 0 .1 0 0-.1.1l-.1-.1v.1-.2s0 .1-.1 0v.2-.3.1-.1.2c0 .1-.1 0-.1 0l-.1.1v-.1c0-.1 0-.1 0 0V39c0-.1-.1.1-.1 0v.1-.1.2-.2.1h-.1v.1-.2h-.1v.1-.1.1-.1.1c0 .1 0-.1 0 0V39v.3c0-.1 0 0 0 0v-.1c0-.1 0 .1-.1 0v-.1.1-.1s0 .1-.1.1v-.1s0 .1 0 0v.2c0-.1-.1 0-.1-.1h-.1v.1-.1c0-.1 0 0-.1-.1h-.1c0 .1 0 .1-.1.1v-.1.1-.1c0-.1 0 0 0 0s0 .1-.1.1c0 .1 0 0 0 0v-.1s0 .1-.1.1c0-.1 0-.1.1-.1 0 .1 0 .1-.1.1 0-.2-.1 0-.1-.2 0 .1-.1 0-.1 0v.1-.3s0 .1 0 0v.1c0 .1 0-.1-.1 0 0 0-.1 0-.1.1v-.1s-.1.1-.1 0c0 0 0 .1 0 0 0 0 0 .1 0 0l-.1.1v-.1l-.1.1c0-.1-.1 0-.1-.1v.1s0 .1 0 0v-.1.1c0-.2-.1.1-.1-.1v.1-.1h-.1v.2-.1s-.1-.1-.1 0c0 0-.1-.1-.1.1 0-.1 0 0-.1 0V39v.1s0 .1 0 0v.1-.1.1s0 .1-.1 0v-.1s0 .1-.1.1v.1s0 .1 0 0v.1-.2s-.1 0-.1.1l-.1.1v-.1c-.1-.1-.1.2-.2 0-.1-.1-.1.1-.2 0v.1-.1.1c0 .1 0-.1-.1-.1v.1-.1.5-.2.1-.1s0 .1 0 0v-.1.1-.1.1c0-.1 0 0 .1-.1v.1-.1c-.1-.4-.1-.4 0-.3-.1-.1 0-.1-.1-.1l.1.1v-.1s-.1 0 0 .1c0-.1 0 0 0 0zm.4-.2zm.1 0c-.1 0-.1 0 0 0-.1 0 0 0 0 0zm-.1-.4zm0 .1zm3.5.1zm-2.9.3zm3.2-.1zm.1 0zm0 0zm-1.1.1zm.3-.1zm-.7.1zm.7-.1zm1.1.1V39zm0-.1zm.1 0c-.1 0 0 0 0 0zm-.2 0zm0 0s0 .1 0 0c0 .1 0 0 0 0zm-.1-.2s0-.1 0 0c0-.1 0 0 0 0zm-.1-.1zm-.5 0zm-.1.3zm-.1-.4v.1zm-.9.1s0-.1 0 0zm-.4 0zm-1.2-.1zm-3.2 3.3zm0-.1v.1c-.1 0 0 0 0-.1 0 0 0 .1 0 0zm-.8-.1zm-.4-.1zm-.1 0zm.5.1zm.7.2zm-.5-.3zm.2 0s0 .1 0 0c0 .1 0 .1 0 0zm.2.1zm-.5-.1zm-4.3.4zm-.2-.3zm3.7-.2zm-1.3 0v.1-.1zm2.6.4zm-2.6-.3zm1-.1zm.3.1zm-.4 0zm-.2 0c.1 0 .1 0 0 0zm-2.5.4s0-.1 0 0zm4.5-.1c-.1 0 0 0 0 0zm-1.8.1zm-1.8 0zm1.7 0zm-2.6-.1zm-.2.2V42c.1-.1.1 0 0 .1l.1-.1-.1.1c.1-.1.1-.1.1-.2v-.1.1s0-.1.1-.1v.2h.1v-.1c0-.1 0 .2.1.1v-.1.1-.1c0 .1 0 0 0 0v.1l.1-.1v.1h.1v-.2.1s.1-.1.1 0v-.1s.1 0 .1.1c0-.1 0 0 .1-.1 0 .1 0 .1.1.1v-.1.1-.1.2-.1c0-.1 0 .1 0 0h.2v-.1.1-.1.2s0 .1 0 0h.1v-.1s0 .1.1.1v-.1.1l.1-.1c0-.1.1.2.1 0v-.1.1c0-.1.1 0 .1 0 0 .2.1 0 .1.1v-.1c.1 0 .2.1.2.1s0-.2.1-.1v.1c.1-.1.1 0 .2-.1v.1s0-.1 0 0h.1v-.1c0 .1 0 .1.1 0v.1-.1c0 .1.1-.1.1.1l.1-.1v.1l.1-.1v.1h.1v-.2.2-.1.1-.1.1-.1l.1-.1v.1s0-.1 0 0v-.1.1c0-.1 0 0 .1-.1v.1-.1.1-.1h.1v.1l.1-.1c0-.1 0 .1 0 0 0 0 0 .1 0 0 0 0 .1 0 .1-.1h.1v-.1c0 .2.1-.1.1 0v-.1.1c0 .1 0-.1 0 0v.1s0-.1 0 0v.1c0-.1 0 0 .1-.1v.3-.1c0-.1.1.1.1 0 0 0 0-.1.1-.1v.2s0-.1 0 0v.1-.1.1-.1.1c0-.1 0 0-.1 0V42v.1-.1s0-.1 0 0c0 0 0 .1 0 0v.1-.2.2-.1.1c0-.1 0 0 0 0V42c0 .1 0 0 0 0 0 .1 0 0-.1.1l-.1-.1v.1-.2s0 .1-.1 0v.2-.3.1-.1.2c0 .1-.1 0-.1 0l-.1.1V42c0-.1 0-.1 0 0v-.1c0-.1-.1.1-.1 0v.1-.1.2-.2.1h-.1v.1-.2h-.1v.1-.1.1-.1.1c0 .1 0-.1 0 0v-.1.3c0-.1 0 0 0 0v-.1c0-.1 0 .1-.1 0V42v.1-.1s0 .1-.1.1V42s0 .1 0 0v.2c0-.1-.1 0-.1-.1h-.1v.1-.1c0-.1 0 0-.1-.1H58c0 .1 0 .1-.1.1V42v.1-.1c0-.1 0 0 0 0s0 .1-.1.1c0 .1 0 0 0 0V42s0 .1-.1.1c0-.1 0-.1.1-.1 0 .1 0 .1-.1.1 0-.2-.1 0-.1-.2 0 .1-.1 0-.1 0v.1-.3s0 .1 0 0v.1c0 .1 0-.1-.1 0 0 0-.1 0-.1.1v-.1s-.1.1-.1 0c0 0 0 .1 0 0 0 0 0 .1 0 0l-.1.1v-.1l-.1.1c0-.1-.1 0-.1-.1v.1s0 .1 0 0v-.1.1c0-.2-.1.1-.1-.1v.1-.1h-.1v.2-.1s-.1-.1-.1 0c0 0-.1-.1-.1.1 0-.1 0 0-.1 0v-.1.1s0 .1 0 0v.1-.1.1s0 .1-.1 0V42s0 .1-.1.1v.1s0 .1 0 0v.1-.2s-.1 0-.1.1l-.1.1v-.1c-.1-.1-.1.2-.2 0-.1-.1-.1.1-.2 0v.1-.1.1c0 .1 0-.1-.1-.1v.1-.1.5-.2.1-.1s0 .1 0 0v-.1.1-.1.1c0-.1 0 0 .1-.1v.1-.1c0-.4-.1-.4 0-.3-.1-.1 0-.1-.1-.1.1 0 .1-.1.1.1V42v.1c0-.1 0 0 0 0zm.5-.2zm0 0zm0-.4zm-.1.1s.1 0 0 0c.1 0 0 0 0 0zm3.6.1zm-2.9.3zm3.1-.1zm.1 0zm.1 0zm-1.1.1c-.1 0 0 0 0 0zm.3-.1zm-.7.1zm.7-.1zm1.1 0v.1-.1zm0 0zm0 0zm-.1 0zm0 0s0 .1 0 0c0 .1 0 0 0 0zm-.1-.2s0-.1 0 0c0-.1 0 0 0 0zm-.1-.1zm-.5 0c-.1 0 0 0 0 0zm-.2.3h.1zm0-.4zm-.9.1s0-.1 0 0zm-.4 0zm-1.2-.1z" style="fill:#6594d9"/><g style="opacity:.65"><path d="M70.4 43.9zm0-.1s-.1.1 0 0c0 .1 0 .1 0 0 0 0 0 .1 0 0 0 .1 0 .1 0 0zm-.8-.1zm-.4 0zm-.1-.1zm.5.1zm.7.2zm-.5-.2zm.2 0s0 .1 0 0c0 .1 0 0 0 0zm.2.1zm-.5-.1zm-4.3-.1zm-.2-.1zm3.8.1zm-1.3-.1c0 .1-.1.1 0 0-.1.1 0 .1 0 0zm2.6.4zm-2.7-.3zm1 0zm.3.1zm-.4-.1zm-.1 0zm-2.6.1c0-.1 0-.1 0 0zm4.5.2zm-1.8-.1zm-1.8-.1zm1.7.1zm-2.6-.2z" style="fill:#fff"/><path d="M65.6 43.7c.1 0 .1 0 0 0 .1-.1.1 0 0 0 .1 0 .1-.1 0 0 .1-.1.1-.1 0 0 .1-.1.1 0 .1-.1v-.1h.1v.1h.1s0 .1.1 0c0 0 0-.1 0 0 0 0 0-.1 0 0h.3s0-.1 0 0h.2l.1.1h.2v-.1h.3s.1.1.1 0h.1c0 .1.1 0 .1.1.1 0 .2 0 .2.1 0 0 0-.1.1 0h.4c0 .1.1 0 .1 0h.1s.1-.1.1 0h.1v-.1.1h.1v.1h.3c0-.1 0 0 0 0h.2c0 .1.1 0 .1 0v.1c0-.1 0 0 .1-.1v.1h.1l.1-.1c0-.1 0 0-.1 0v.1-.1c0-.1 0 0 0 0h-.3v.1h-.2s-.1.1-.1 0v-.1h-.1v.1-.1h-.2v.1-.1h-.1s0 .1-.1 0c0-.1-.1 0-.1-.1h-.1s0 .1 0 0 0 0-.1 0h-.2v-.1h-.2l.1-.1h-.1c0-.1-.1 0-.1-.1h-.1v.1s0-.1-.1 0H67v-.1h-.1s-.1 0-.1-.1v.1c0-.1-.1 0-.1 0h-.1v.1h-.3v.1h-.1v-.1s0 .1-.1 0v-.1s-.1 0-.1.1h-.1c-.1-.1-.1.1-.2 0h-.2s0-.1-.1 0v-.1.2-.1.1h.1c0-.1.1-.1.1 0 0-.1 0-.1 0 0 0-.1 0-.1 0 0 0-.1 0-.1 0 0 0-.1 0 0 0 0 0-.1 0 0 0 0 .1 0 0 0 0 0zm.5-.1zm.1 0s-.1 0 0 0c-.1 0-.1 0 0 0-.1 0 0 0 0 0zm-.1-.2zm0 .1zm3.5.2zm-2.9 0zm3.2.1c0 .1 0 .1 0 0 0 .1 0 .1 0 0zm0 .1c.1 0 0 0 0 0zm.1 0zm-1.1-.1zm.3 0zm-.7.1v-.1zm.7-.1zm1.1.1zm0 0zm0 0zm-.1 0zm0 0zm-.1-.1s0-.1 0 0c0-.1 0 0 0 0zm-.1-.1zm-.5 0zm-.1.1zm-.1-.2v.1zm-.9 0zm-.4 0zm-1.2-.1z" style="fill:#fff"/></g><g style="opacity:.65"><circle cx="65" cy="72.9" r=".7" style="fill:#fff"/><path d="M65.6 72.9c.1 0 .1 0 0 0zm.2 0h-.1.1c-.1 0-.1 0 0 0-.1 0-.1 0 0 0-.1 0 0 0 0 0zm-.3-.7zm-.4-.2zm-.1 0zm.5.2zm.1.6zm.1-.5zm.1.2zm0 .2zm-.2-.5zm-.1.8zm.3-.1zm-1-1zm-.7 1.2h.1-.1zm1.5-.3zm-1.4.3zm.3-1zm.3-.1zm-.4.2zm-.1.2zm1.1.8zm.2-.4zm-.9-.2zm.2.8zm-.2-.8zm.8.7zm-.1-.2s.1.1 0 0c.1.1 0 .1 0 0 0 .1.1.1 0 0 .1.1.1.1 0 0 .1.1 0 .1.1.2 0 0 .1 0 .1.1-.1 0 0 0-.1-.1v.1c-.1 0 0 0-.1-.1 0-.1.1 0 0-.2v.1l.1.1c0 .1-.1-.1-.1 0 0 0 .1.1 0 .1v-.1s.1.1 0 .1v-.1.1-.1h-.1v.2c0 .1 0 .1-.1.1v.1s-.1 0-.1-.1v.1-.1.1-.1.1-.2c0 .1 0-.1 0 0H65s0 .1-.1.1v-.1.1s0-.1.1-.1c0 0 0-.1 0 0h-.1l-.1.1v-.1h-.1l.1-.1h-.1c-.1 0 .1-.1 0-.1h-.1.1-.1c.1 0 0-.1.1-.1h-.1l.1-.1s-.2-.1-.1-.1h.1c-.1-.1 0-.1 0-.1v-.1c.1.1.1 0 0 0v-.1c.1.1 0-.1.1 0v-.1.1-.1.1l.1-.1v-.2c0 .1 0 0 .1.2v-.1.1-.1.1-.1s0-.1.1-.1v.1s0-.1 0 0v-.1.1c0-.1 0 0 .1-.1v.2s0-.1 0 0h.1v.1s.1-.1.1 0c.1-.1 0 .1 0 0h.1c-.1.1.1 0 0 .1h.1s-.1 0-.1.1c-.1.1.1-.1 0 0h-.1.1c.1-.1 0 0 .1 0h-.1.1c.1 0-.1.1 0 .1h.1-.2s.1 0 0 0h-.1.1-.1.1-.1c.1 0 0 0 0 0h.1-.1.1s.1 0 0 0c0 0-.1 0 0 0h-.1l.1-.1h-.2v-.1h-.1c.1 0 0 0 0 0h.1c-.1 0 0 0 0 0h-.1v-.1h-.1.1-.1l-.1.1.1-.1v-.2h-.2c-.1 0 0-.1-.1-.1h-.1v-.1s0-.1 0 0v-.2c0-.1-.1.1-.1 0v.1-.1s0 .1-.1.1v.1-.2.1h-.1v.1-.2h-.1v.1-.1.1-.1.1c0 .1-.1 0-.1 0v-.1c0 .1 0 0-.1 0v.3c0-.1 0 .1 0 0l.5-.4c-.1 0 0 .1-.1.1l-.1-.1v.2l-.1-.1s0 .1 0 0v.2c-.1-.1 0 .1-.1 0v.1s.1.1 0 .1c-.1-.1 0 0-.1 0v.1c.1 0 .1.1.1.1h-.1.1-.1c-.1 0 0 0 0 0l.1.1c.1 0 0 0 0 0h-.1l.1.1c-.1 0-.1 0-.1-.1v.1c.1 0 .1 0 .1.1-.2 0 0 .1-.2.1.1 0 0 .1 0 .1h.1l-.1.1h-.1l-.1.1h.1c.1 0-.1.1 0 .1 0 0 0 .1.1.1h-.1c0 .1.1 0 .1.1 0 0 .1 0 0 0 0 0 .1 0 0 0 0 .1.1 0 .1 0l-.1.1h.2c0 .1.1.1.1.2v-.1s.1 0 0 0v.1-.1c0 .2.1 0 .1.1v.1h.1s0-.2.1-.2v.1s.1.1.1 0c0 0 .1 0 .1-.1 0 .1 0 0 .1 0v.1-.1s0-.1 0 0v-.1h.1v-.1s0-.1.1 0l.1.1v-.2s0-.1 0 0v-.1l.1.1s.1-.1 0-.2v-.1s0 .1.1 0c.1 0-.1-.2.1-.1.1 0 0-.2.1-.2v-.1h.1-.1s.2 0 .1-.1h-.1.1-.5.2-.1.1s-.1 0 0 0h.1-.1.1c0 .2.1.3-.1.3.1-.1.1 0 .1 0h-.1.2-.2.1-.1c.1.1.1 0 .1.1l-.1-.1zm-.1.3zm0 0c0 .1 0 .1 0 0 0 .1 0 .1 0 0zm.2.3c0 .1 0 .1 0 0zm0 0zm0-1.5zm-.6 1.2zm.6-.9zm.1.1zm0 0zm-.7-.2zm.2-.1zm-.4.3zm.4-.3zm.5.5zm0 0zm0 .1c0-.1 0 0 0 0zm0-.1zm0 0zm.2-.2c.1-.1 0 0 0 0zm0-.1zm-.4-.4zm-.2.2v.1-.1zm0-.3h.1-.1zm-.9.3zm-.1.4c-.1 0-.1 0 0 0-.1 0 0 0 0 0zm.5 1.1z" style="fill:#fff"/></g><g style="opacity:.65"><circle cx="65" cy="79.8" r=".8" style="fill:#fff"/><path d="M65.7 79.8c.1 0 .1 0 0 0zm.2 0h-.1.1c-.1 0-.1 0 0 0-.1 0-.1 0 0 0-.1 0-.1 0 0 0zm-.3-.7zm-.5-.2zm-.1-.1zm.6.3zm.1.6zm.1-.5zm.1.1s-.1.1 0 0c-.1.1 0 .1 0 0zm0 .3zm-.2-.5zm-.1.8zm.3-.1zm-1.1-1.1zm-.8 1.4h.1c0-.1-.1-.1-.1 0zm1.7-.4zm-1.6.3zm.3-1.1c0 .1 0 0 0 0zm.3 0zm-.3.2s-.1 0 0 0c-.1 0-.1 0 0 0zm-.1.1zm1.2 1zm.2-.5zm-1-.3c-.1 0 0 0 0 0zm.2 1zm-.3-.9s0-.1 0 0c0-.1 0 0 0 0zm.9.7z" style="fill:#fff"/><path d="M65.5 80.1c.1.1 0 0 0 0s.1.1 0 0c0 .1 0 .1 0 0 .1.1 0 .1.1.2 0 0 .1 0 .1.1-.1 0 0 0 0-.1v.1c-.1 0 0 0-.1-.1l-.1-.1.1.1c0 .1-.1-.1-.1 0 0 0 .1.1 0 .1v-.1s.1.1 0 .1v-.1.1-.1h-.1v.2c0 .1 0 .1-.1.1v.1s-.1 0-.1-.1v.1-.1.1-.1.1-.2c0 .1 0-.1 0 0h-.1s0 .1-.1.1v-.1.1s0-.1.1-.1c0 0 0-.1 0 0H65l-.1.1v-.1h-.1l.1-.1h-.1c-.1 0 .1-.1 0-.1h-.1.1c-.1 0 0 0-.1-.1.1 0 0-.1.1-.1h-.1c0-.1.1-.1.1-.1s-.2-.1-.1-.1h.1c-.1-.1 0-.1 0-.1s0-.1 0 0v-.1c.1.1.1 0 0 0v-.1c.1.1 0-.1.1 0v-.1.1-.1.1s.1 0 .1-.1v-.2c0 .1 0 0 .1.2v-.1.1-.1.1-.1s0-.1.1-.1v.1s0-.1 0 0v-.1.1c0-.1 0 0 .1-.1v.2s0-.1 0 0h.1v.1s.1-.1.1 0c.1-.1 0 .1 0 0h.1c-.1.1.1 0 .1.1v-.1h.1s-.1 0-.1.1c-.1.1.1-.1 0 0h-.1.1v.1c.1-.1 0 0 .1 0h-.1.1c.1 0-.1.1 0 .1h.1-.2s.1 0 0 0h-.1.1-.1.1-.1c.1 0 0 0 0-.1h.1-.1.1s.1 0 0 0c0 0-.1 0 0-.1h-.1l.1-.1h-.2v-.1h-.1c.1 0 0 0 0 0h.1c-.1 0 0 0 0 0h-.1v-.1h-.1.1-.1l-.1.1.1-.1v-.2h-.2c-.1 0 0-.1-.1-.1h-.1V79s0-.1 0 0v-.2c0-.1-.1.1-.1 0v.1-.1s0 .1-.1.1v.1-.2.1h-.1v.1-.2h-.1v.1-.1.1-.1.1c0 .1-.1 0-.1 0v-.1c0 .1 0 0-.1 0v.1-.1.2c0-.1 0 .1-.1 0l-.1-.1c-.1 0 0 .1-.1.1l-.1-.1v.2s-.1 0-.1-.1c0 0 0 .1 0 0v.2c-.1-.1-.1.1-.1 0v.1s.1.1 0 .1c-.1-.1 0 0-.1 0v.1c.1 0 .1.1.1.1h-.1.1-.1c-.1 0 0 0 0 0l.1.1c.1 0 0 0 0 0h-.1l.1.1c-.1 0-.1 0-.1-.1v.1c.1 0 .1 0 .1.1-.2 0 0 .1-.2.1.1 0 0 .1 0 .2h.1l-.1.1h-.1l-.1.1h.1c.1 0-.1.1 0 .1 0 0 0 .1.1.1h-.1c0 .1.1.1.1.1s.1 0 0 0h.1c0 .1.1 0 .2 0l-.1.1c0 .1.1 0 .2 0 0 .1.1.1.1.2v-.1s.1 0 0 0v.1-.1c0 .2.1 0 .1.1h.1v.1h.1s0-.2.1-.2v.1s.1.1.1 0c0 0 .1 0 .1-.1 0 .1 0 0 .1 0v.1-.1s0-.1 0 0v-.1h.1v-.1s0-.1.1 0l.1.1v-.2s0-.1 0 0v-.1l.1.1s.1-.1 0-.2v-.1s0 .1.1 0c.1 0-.1-.2.1-.2.1 0 0-.2.2-.2v-.1h.1-.1s.2 0 .1-.1h-.1.1-.5.2-.1.1s-.1 0 0 0h.1-.1.1-.1c.1 0 0 0 .1.1.2.3.2.2.1.3h.2-.2.1-.1c.1 0 .1 0 .1.1l-.1-.1zm-.2.3zm0 0c0 .1 0 .1 0 0 0 .1 0 .1 0 0zm.3.4c0-.1 0-.1 0 0 0-.1 0-.1 0 0zm0-.1c-.1 0-.1 0 0 0zm0-1.6zm-.7 1.3zm.7-1zm0 0c0 .1 0 0 0 0zm0 .1h.1zm-.7-.3zm.2-.1zm-.4.3zm.4-.3zm.6.7zm0 0zm0 0zm0-.1zm0 0zm.2-.2c.1-.1 0 0 0 0zm0-.1c0-.1 0 0 0 0zm-.5-.5zm-.2.3.1-.1zm.1-.4h-.1z" style="fill:#fff"/><path d="M64.2 79.2c.1 0 0-.1 0 0zm-.1.4c-.1 0-.1 0 0 0zm.6 1.2-.1.1.1-.1z" style="fill:#fff"/></g></g></svg>