<svg xmlns="http://www.w3.org/2000/svg" viewBox="0 0 131.2 142.8" style="enable-background:new 0 0 131.2 142.8" xml:space="preserve"><style>.st5{fill:#d83429}.st6{fill:#ff8a65}.st7{fill:none;stroke:#ef7937;stroke-width:.925;stroke-miterlimit:10}.st8{fill:#d9413d}.st9{fill:#ff8a65}.st10{fill:none;stroke:#d83429;stroke-width:.8491;stroke-miterlimit:10}.st11{fill:#d9413d}.st12{fill:#ff8a65}.st13{fill:none;stroke:#d9413d;stroke-width:.8491;stroke-miterlimit:10}.st14{opacity:.37}.st15{clip-path:url(#SVGID_2_)}.st16{clip-path:url(#SVGID_4_)}.st17{clip-path:url(#SVGID_6_)}.st18{clip-path:url(#SVGID_8_)}.st19{clip-path:url(#SVGID_10_)}.st20{clip-path:url(#SVGID_12_)}.st21{clip-path:url(#SVGID_14_)}.st22{clip-path:url(#SVGID_16_)}.st23{clip-path:url(#SVGID_18_)}.st24{clip-path:url(#SVGID_20_)}.st25{fill:none;stroke:#d9413d;stroke-width:.925;stroke-miterlimit:10}.st26{clip-path:url(#SVGID_22_)}.st27{clip-path:url(#SVGID_24_)}.st28{clip-path:url(#SVGID_26_)}.st29{clip-path:url(#SVGID_28_)}.st30{clip-path:url(#SVGID_30_)}.st31{fill:none;stroke:#d9413d;stroke-width:.925;stroke-miterlimit:10}.st32{clip-path:url(#SVGID_32_)}.st33{clip-path:url(#SVGID_34_)}.st34{clip-path:url(#SVGID_36_)}.st35{clip-path:url(#SVGID_38_)}.st36{clip-path:url(#SVGID_40_)}.st37{fill:#d9413d}.st39{fill:#ee8423}.st40{fill:#f18a50}.st41{fill:#019788}.st42{fill:#32867a}.st43{fill:#f67258}.st44{fill:#de5956}.st45{opacity:.5}.st46{fill:#4b5d9a}.st47{opacity:.6}.st48{fill:#21a497}.st49{fill:#f7846d}.st50{fill:#26a59a}.st51{opacity:.65;fill:none;stroke:#fff;stroke-width:.2;stroke-miterlimit:10}.st52{fill:#ffccbc}.st53{fill:none;stroke:#31458b;stroke-miterlimit:10}.st54{fill:#d83429}.st55{fill:none;stroke:#f5a800;stroke-miterlimit:10}.st55,.st56,.st57{stroke-width:.2}.st56{fill:none;stroke:#4db6ac;stroke-miterlimit:10}.st57{stroke:#ff8a65}.st57,.st58,.st59,.st60,.st61{fill:none;stroke-miterlimit:10}.st58{opacity:.65;stroke:#fff;stroke-width:.5}.st59{stroke:#ef7937}.st60{stroke:#147467}.st61{stroke:#d9413d}.st62{fill:#d9413d}.st63,.st64,.st65{fill:#ffccbc}</style><g id="Calque_1"><path d="M78 112s-34.8-.4-42.4 1.9 19.6 9.4 34 8.1c14.4-1.4 25-6.1 20.8-7.6-4.3-1.6-8.7-2-12.4-2.4z" style="opacity:5.000000e-02"/><path d="M69 100.8c-.1.6-.1.6-.1 1.2s.1.6.1 1.2-.1.6-.1 1.2v2.4c0 .6-.1.6-.1 1.2v2.4c0 .6.1.6.1 1.2s-.1.6-.1 1.2-.1.6-.1 1.2c0 .5.5.9.9.9h1.3c.6 0 .6-.1 1.3-.1.6 0 .7-.8.2-1-.5-.1-.5 0-1 0s-.5.1-1 .1c-.3-.1-.5-.5-.5-.8v-1.2c0-.6-.1-.6-.1-1.2s.1-.6.1-1.2v-2.4c0-.6-.1-.6-.1-1.2s-.1-.6-.1-1.2v-1.2c0-.6.1-.6.1-1.2s.1-.6.1-1.2-.1-.6-.1-1.2.6-1 .1-1.2c-.5-.2-.3.6-.6 1-.1.5-.2.5-.3 1.1zm-3.7 0c.1.6 0 .6 0 1.2s.1.6.1 1.2-.1.6-.1 1.2v1.2c0 .6.2.6.2 1.2s-.1.6-.1 1.2.1.6.1 1.2-.1.6-.1 1.2v1.2c0 .6-.1.6-.1 1.2v1.2c0 .5-.3.9-.8.9h-1.3c-.6 0-.6.1-1.3.1-.6 0-.7-.8-.2-1 .5-.1.5-.2 1-.3s.5.1 1 .1c.3-.1.6-.5.6-.9 0-.6-.2-.6-.2-1.2s.1-.6.1-1.2.1-.6.1-1.2-.1-.6-.1-1.2v-1.2c0-.6.1-.6.1-1.2s-.1-.6-.1-1.2v-1.2c0-.6.1-.6.1-1.2v-2.4c0-.6-.5-.9.1-1.1.5-.2.1.5.4 1 .2.7.4.6.5 1.2z" style="fill:#d83429"/><path d="M36.9 77.9c.1-1.5.5-1.2.7-3 .1-.9.1-2 .2-3.1.1-1 .3-2 .3-3.1.1-1 .2-2.1.2-3.1.1-1.1 0-2.2 0-3.1 0-.9.2-1.8.2-2.7 0-.9 0-1.8.1-2.7.1-.9 0-1.8.1-2.7l.3-2.7c.1-.9.3-1.8.4-2.7.1-.9-.1-1.9-.1-2.8.1-.9.7-1.7.8-2.6.1-.9-.2-1.8-.1-2.7.1-.9.1-1.8.2-2.7l.3-2.7c.1-1.1.8-2 .9-2.9.2-1.1.2-2.1.4-2.9.4-1.6.8-2.3 1.1-2.4.4-.1 1.1.3 2.1 1.5.5.7 1.4 1.3 2 2.2.5.8.9 1.7 1.4 2.6.5.9.9 1.9 1.5 2.8.5.9 1.2 1.7 1.7 2.7.5.9 1.2 1.8 1.7 2.7.5.9 1 1.9 1.5 2.8.5.9.6 2 1 2.9.4 1 .9 1.9 1.3 2.8.4 1 .5 2.1.7 3 .3 1.1.6 2.1.8 2.9.3 1.5.7 2.5.7 3-.1 1.3-.9.8-2.1-.2-.7-.6-1.5-1.3-2.2-2-1.2-1.1-2.5-1.9-2.5-1.1-.1 1.2-.1 2.3.2 3.6.2 1 .6 2.1 1.2 3.4.3.8.7 1.7 1.1 2.7.3.9 1.1 1.7 1.5 2.6l1.2 2.7c.5 1 .8 2 1.4 2.6l2.1 2.1c.8.7 1.6 1.4 2.4 1.8.9.5 2 1 2.9 1 1.1 0 2.2-.1 3-.5.9-.4 1.5-1.3 2.1-2.1.5-.7 1.2-1.5 1.5-2.5.2-.9-.1-1.9 0-3 .1-.9.6-1.9.7-2.9v-2.9c0-1-.5-1.9-.6-2.9 0-1 .2-2 .2-2.9 0-1-.1-2-.1-2.9 0-1.3-.3-1.1-.2-2.7.1-.8.4-1.7.5-2.6.1-.8-.1-1.8 0-2.7.1-.9.5-1.8.5-2.6.1-.9 0-1.9 0-2.7.1-1.1-.2-2-.2-2.7.1-.9.3-1.9.3-3 0-1 .3-2 .3-3.1s.2-2.1.2-3c.1-1.2 0-2.3.2-3 .2-.6 1.2-.8 2.7-.9.9-.1 1.9-.1 2.9 0 1 0 2-.4 3-.3 1.1.1 2.1.3 3 .4 1.9.3 2.7 1 1 .9-2 0-1.2-.3.6-.4.8 0 1.8-.3 2.9-.4 1 0 2 .3 2.9.4 1.3 0 2.5 0 2.9.2.6.3 1 1.5 1 3 0 .9 0 2-.2 3.1-.1 1-.6 2-.7 3.1-.1 1.1-.2 2.2-.2 3.1 0 .7-.1 1.7-.1 2.8 0 .9.3 1.8.3 2.8 0 .9-.3 1.8-.3 2.8 0 .9-.4 1.9-.4 2.8v2.8c0 1 .2 1.9.2 2.8 0 1 .3 1.9.3 2.8 0 1-.3 2-.2 2.8.1 1 .4 2 .5 3.1 0 1 .2 2.1.2 3.1v3.1c0 1.2-.3 2.2-.3 3.1-.1 1.9-.3 1.6-.4 3.1 0 .9.3 1.8.2 2.7-.1.9-.1 1.8-.2 2.7-.1.9-.6 1.7-.8 2.6-.2.9-.3 1.8-.6 2.6-.3.9-.4 1.8-.8 2.6-.4.9-.7 1.7-1.1 2.5-.5.8-1 1.6-1.5 2.3-.6.7-1.2 1.2-1.8 1.9-.6.6-1.1 1.3-1.8 1.9-.6.6-1.3 1.1-2 1.7-.7.5-1.6.8-2.3 1.2-.7.5-1.2 1.3-2 1.7-.9.4-2 .6-3 1s-1.9.9-2.9 1.2c-1 .3-2.1.2-3.1.4s-2 .6-3 .6c-1 .1-2.1 0-3.1-.1-.9-.1-1.8-.4-2.6-.4-.9-.1-1.8-.2-2.6-.3-.9-.1-1.8-.2-2.6-.4-.9-.2-1.7-.4-2.5-.6-.8-.2-1.7-.4-2.5-.7-.8-.3-1.8-.4-2.5-.9-.8-.4-1.2-1.4-1.9-1.9s-1.8-.7-2.4-1.2c-.7-.6-1.3-1.2-2-1.8-.6-.6-1.3-1.2-1.9-1.9-.6-.6-.9-1.6-1.5-2.2-.7-.7-1.6-1.3-2.1-2.2-.5-.9-.8-1.8-1.2-2.8-.3-.9-.7-1.9-.9-2.9-.2-1-.1-2-.2-3s-.5-2-.5-3c0-1.1.1-2.2.1-3.2z" style="fill:#ff8a65"/><path d="M63.3 81.4s-5.8-6.1-13.6-1.7c-7.8 4.4-6.8 16.1 1 18.5 7.8 2.4 12.9-.7 14.1-4.1 1.2-3.5 1.9-9.6-1.5-12.7z" style="fill:#fff"/><circle cx="55.1" cy="89.3" r="6.8"/><path d="M86.2 81.4s-5.8-6.1-13.6-1.7c-7.8 4.4-6.8 16.1 1 18.5 7.8 2.4 12.9-.7 14.1-4.1s1.9-9.6-1.5-12.7z" style="fill:#fff"/><path d="M67.2 102.7c-.3 0-.5 0-.8-.1-2.8-.4-3.2-2.6-3.2-2.7l1-.2c0 .1.4 1.5 2.4 1.9 2 .3 2.4-.8 2.5-.8l.9.4c-.2.1-.7 1.5-2.8 1.5zm53.5-29c-.3-.4-.2-.5-.6-.8l-.7.7c-.2.2-.5.3-.8.5-.2.2-.5.3-.8.5l-.9.3c-.3.1-.6.2-.9.2-.3 0-.5 0-.8-.1.2-.3.3-.5.4-.7.2-.3.3-.6.4-.8.2-.3.3-.5.5-.8.2-.3.2-.6.3-.9.2-.3.3-.6.5-.8.3-.5.5-.5.6-.6.1 0 .1 0 .2-.1.2-.6 0-.9-.2-.9-.2-.1-.4-.2-.8.3-.1.2-.4.4-.6.7-.1.2-.1.6-.3.9-.1.2-.3.5-.5.8-.1.2-.4.5-.6.7l-.3.9c-.1.3-.3.5-.5.8-.2-.2-.4-.5-.6-.8-.2-.3-.2-.6-.3-.9-.1-.3-.3-.6-.3-.9 0-.4.2-.7.2-1 0-.6-.1-1-.1-1l-1-.2c0 .1-.1.5-.1 1 0 .3.1.6.2 1 0 .3 0 .7.1 1 .1.3.2.6.4.9.1.3.1.7.3 1 .2.3.5.5.7.7-.1.3-.1.6-.3.9-.1.3-.5.5-.6.7l-.3.9c-.1.3-.2.6-.4.9-.1.3-.5.5-.6.7-.1.3-.1.6-.3.9-.2.3-.4.6-.5.8-.2.3-.3.6-.4.9-.2.3-.4.5-.6.8-.2.3-.2.7-.4.9-.2.3-.5.4-.7.7-.2.3-.4.6-.6.8-.2.3-.5.4-.8.7-.2.3-.3.7-.5.9-.2.2-.6.3-.8.6-.2.2-.4.6-.6.8-.3.2-.6.3-.9.5-.3.2-.5.5-.7.7-.3.2-.5.4-.8.6-.3.2-.7.2-.9.4-.3.2-.5.4-.8.6-.3.2-.6.3-.9.4-.3.1-.7.1-1 .3-.3.1-.6.3-.9.4-.3.1-.7.2-1 .2-.3.1-.7.1-1 .2-.4.1-.7.1-1 .1-.4.1-.7.4-1 .4-.6 0-1.1-.1-1.1-.1v1s.1.1.3.1h1c.3 0 .6-.1 1-.2.3 0 .6-.1 1-.1.3-.1.6-.1 1-.2l.9-.3c.3-.1.6-.2 1-.3.3-.1.6-.3.9-.4.3-.1.5-.4.8-.5.3-.1.7-.2.9-.3.3-.2.5-.4.8-.6.3-.2.6-.2.9-.4.3-.2.5-.4.8-.6.3-.2.4-.6.7-.8.2-.2.5-.4.7-.6.2-.2.5-.4.8-.6.2-.2.4-.5.6-.8.2-.2.4-.5.6-.8l.7-.7c.2-.3.4-.6.6-.8.2-.3.6-.4.8-.7.2-.3.2-.6.4-.9.2-.3.3-.6.5-.9.2-.3.4-.5.6-.8.2-.3.3-.6.4-.9.1-.3.4-.5.5-.8.1-.3.4-.5.5-.8.1-.3.3-.6.4-.8.2-.3.3-.6.4-.8.2-.3.4-.5.5-.8.2-.3.2-.7.3-1 .3.1.7.3 1.1.3.3 0 .6-.2.9-.2.3-.1.6-.1.9-.2.3-.1.6-.2.8-.4.3-.2.5-.3.8-.5.3-.2.6-.3.8-.5.4-.4.6-.6.7-.6zm-2.7-3.5c-.1.1-.3.2-.5.1l-.2-.2c.3-.2.4 0 .7.1zM23.8 81c-.1-.3-.2-.6-.4-.9-.1-.3-.4-.5-.6-.8-.1-.3-.1-.7-.3-.9-.2-.3-.4-.5-.5-.8-.2-.3-.4-.5-.5-.8-.2-.3-.2-.6-.3-.9.3-.2.4-.5.6-.8.2-.3.3-.6.5-.9.1-.3.2-.6.3-1 .1-.3.3-.7.3-1v-1c0-.6-.1-1-.1-1-.5 0-.5.2-1 .2 0 0 .1.3.1.9 0 .3-.2.6-.2 1 0 .3-.1.6-.1.9-.1.3-.1.7-.2.9-.2.3-.4.5-.6.7-.2-.3-.2-.5-.3-.8-.2-.3-.3-.6-.5-.8-.2-.3-.4-.5-.5-.8-.2-.3-.4-.5-.5-.8-.2-.3-.4-.5-.6-.7-.2-.3-.3-.7-.4-.8-.4-.5-.6-.4-.8-.3-.2.1-.5.4-.3 1 .1.1.2-.2.3-.2.1.1.3.3.6.8.1.2.3.5.4.8.1.2.3.5.4.8.1.2.2.6.4.8.1.2.3.5.5.8.1.3.4.5.5.8-.3.1-.6 0-.9 0-.3 0-.6-.1-.9-.2-.3-.1-.6-.2-.8-.4l-.9-.3c-.3-.2-.5-.4-.7-.6-.3-.2-.4-.4-.6-.5-.4.3-.5.2-.8.6 0 0 .3.4.8.7.2.2.6.2.9.4.2.2.4.5.7.6l.9.3c.3.1.5.4.8.4.3.1.6 0 1 0s.7-.1 1.1-.2c.1.3.3.5.5.8.1.3.3.5.5.8.1.3.1.6.3.9.1.3.3.5.5.8.1.3.3.5.5.8.1.3.3.6.4.8.2.3.2.7.3.9.2.3.4.6.5.8.2.3.5.5.7.8.2.3.2.7.4.9.2.3.5.4.7.7.2.3.4.5.6.8.2.3.4.5.6.8.2.3.3.6.6.8.2.2.6.4.8.6.2.2.3.6.6.8.2.2.7.3.9.5.3.2.4.5.7.7.3.2.6.3.9.4.3.2.5.5.7.7.3.2.6.3.9.5.3.2.6.2.9.4.3.2.5.5.8.6.3.1.7 0 1 .2.3.1.6.5.9.6.3.1.7 0 1 .1l.9.3c.3.1.7.1 1 .2.4.1.7.1 1 .1.4 0 .8.2 1 .2.2 0 .2-.1.2-.1 0-.5.1-.5.1-1 0 0-.5.1-1.1 0-.3 0-.6-.1-1-.1-.3 0-.6-.1-1-.2-.3-.1-.7 0-1-.1-.3-.1-.6-.4-.9-.5l-.9-.3-.9-.3c-.3-.1-.6-.3-.9-.5-.3-.1-.6-.3-.9-.4-.3-.2-.6-.3-.9-.5-.3-.2-.5-.4-.8-.6-.3-.2-.5-.4-.8-.6-.3-.2-.4-.5-.7-.7-.2-.2-.5-.4-.8-.6-.2-.2-.4-.5-.6-.8l-.7-.7-.7-.7c-.2-.3-.4-.5-.6-.8-.2-.3-.4-.5-.6-.8-.2-.3-.4-.5-.6-.8-.2-.3-.3-.6-.5-.9-.2-.3-.4-.5-.5-.8-.5-.1-.7-.4-.8-.7zm-6.4-10.1c-.2.1-.3.2-.4.1.3-.1.3-.3.6-.4 0 .1-.1.3-.2.3z" style="fill:#d83429"/><g style="opacity:.65"><path d="M96.6 29.9c.1 0 .1-.1-.2-.1l-.2.1h.4zm-1.4-.5c-.3 0-.6.1-.4.3.3-.1.3 0 .6-.2.2 0 .4.1.3.2.1 0 .3.1.5 0-.3-.2-.6-.2-1-.2-.1-.1 0-.1 0-.1zM76.3 31zm13.4 1h-.1.1zm2.1.6h-.1.1zM76.3 31l.2.1c.2-.1 0-.1-.2-.1zm16-1.7h.2-.2zm-12.4-.8h.1l.1-.1-.2.1zm4.5-.5c-.1 0-.1.1-.2.2 0 0 .1 0 .2-.2 0 .1 0 .1 0 0zm7 .7h.1-.1zm-15.1 1.2h-.1.1zm3.6 13zm-5.1-.1c.1 0 .1-.1.1-.1l-.1.1zm20.9-9c-.1-.1-.1 0 0 0zm-4.4 3.8c-.4-.2.7 0 .1-.3 0 .1-.6.1-.1.3zm.9-8.3H92h.2zm-.8 8c-.1 0 0 0 0 0zm-3.3-5c0 .1 0 .1 0 0 .1.1 0 .1 0 0zm7 .5h-.2c.1-.1.2-.1.2 0zm-10.7 0h-.3.3zm-3.8.4h.2-.2zm10.7 9.5c-.1 0-.1-.1-.2-.1.1.1-.5.1.2.1zm1-13.4h-.1.1zm-7.9 4.6h-.6.6zm-6.9 4.8h-.1c.1.1.1.1.1 0zm4.5-4.5c-.1 0-.2 0-.3-.1h-.1l.4.1zm9.1 8.4z" style="fill:#fff"/><path d="M87.2 42.8c.6 0 .3-.2.4-.3.7 0 .3.1.5.2.4 0 .8-.2 1.1-.2 0 0 .1 0 0 .1.5-.1 1.3 0 1.9-.1h.1c-.1-.1-.1-.2-.1-.3.3 0 .5-.1.6 0-.2 0-.2 0-.2.1h.3c.2.2-.4 0-.4.2.5 0 1.1-.1 1.5-.1.1.2-.9 0-.4.2l-.6-.1c.5.3-.4 0 0 .3.8.1.9 0 1.7.1.2-.1 0-.1.1-.2 1.1-.1.9.5 1.7.4l3-.4-2.6-.8h-.1c-.3 0-.4.1-1-.2l.3-.1c-.8-.3-.5.1-1.3-.3.2 0 .6.2.5.1-.5-.3-.4 0-.8-.2V41c-.8-.3-1.8-.4-2.7-.6.1 0 .2 0 0-.2-1.2-.2-2.5-.6-3.6-.9l-.5.1c-.1 0-.2-.1-.1-.1-.4-.1 0 .1-.3.1s-.3-.1-.1-.2c-.8 0-2.3-.1-3.1-.4h.2c-.6-.2-.8.2-1.3 0h.1c-1.4-.2-2.9-.3-4-.6-.2.2-1.4-.2-1.5.1-.5-.3-.4-.3-1.3-.5l.1 1.3h.2c.3 0 .4-.2.8-.3v.2l.5-.2.3.2.3-.1c-.1 0-.3 0-.3-.1.5-.1 1.3 0 1.3.1l1.3-.2c0 .1-.2.1-.4.2.7-.2.1.2.7 0-.1 0 0-.1.1-.1.3.1 1 0 1.5 0l-.1.1c.9 0 2-.1 3-.1-.4 0-.3-.2 0-.3l.1.2c.2-.1-.3-.1.1-.2.4 0 .3.2 0 .2l.5-.1-.1.1c.2-.1.8.2 1.1 0h2.4c0-.1.4-.1.6-.2.6.1 1.3.2 2.1.3.5 0 .2-.1.4-.2 0 .1.8.2.4.2.9.1 1.2.1 2.3.1-.1-.1-.3-.1-.2-.1.2 0 .5.1.4.2h-.1c.7 0 1.4.2 2.1.4l.3-1.1c-.7-.3-1.3-.6-1.8-.6h.1l-1.1-.2c-.5-.2.3 0 0-.2-1.2-.1-1.8-.6-2.7-.7-.6-.6-2.6-.7-3.5-1.1v.1c-.3 0-.3-.1-.5-.2 0 .1.3.1.1.2-2.2-.4-4.5-1.1-6.7-1.4-.8-.1-.5.4-1.5.1l.3-.1c-1.3 0-2.6-.1-3.9-.1l.2 1.2c.4-.1.7-.2 1.1-.3-.1.1-.1.1-.2.1.4 0 1.2-.3 1.2-.3.2 0 .1.1.2.1.3 0 .8-.3 1-.2l-.1.1c.2-.1 1-.2.8-.3.6 0 1.1-.2 1.6-.2.3-.2 1-.1 1.1-.3 0 .2 1.1.1 1.4-.1-.1.1.3 0 .2.1.4 0 .8-.1.7-.2.8.2 1.6-.3 2.1 0 1.3-.2 2.5-.3 3.7-.3 0 .2-1.3 0-1.2.3 1.1-.1 1.7-.3 2.8-.2.3 0-.2.1-.3.1 1.1 0 2.1.1 3.1.1h-.2c.2 0 .4.1.4 0h-.2c-.3-.2.8-.2.8-.3-.2.1.1.2.4.3l.1-.6c-.2-.1-.3-.2 0-.2-.1 0-.3 0-.3.1-.2-.1-.2-.1 0-.1-.7-.1-.5 0-1.1-.1 0 0 .1 0 .2-.1-.3 0-.7 0-1.2-.2 0 0 0-.1.1 0-.9-.2-1.6-.1-2.6-.4.3-.1-.3-.1-.3-.3l-.5-.1.2.1c-.5-.1-.9 0-1.3-.2h.4l-.9-.1.5.2c-.5 0 0 .2-.6.1.1 0-.5-.1-.7-.2-.2 0-.5 0-.8-.1-.1-.1.1-.2.1-.2-.3.1-1.1-.1-1.4 0 .1 0 .1-.1.1-.1l-.2.1c-.2-.1-.2-.1-.2-.2-.7-.1.2.3-.6.1h.2c-.8-.2-1.5-.1-2.3-.2-.2-.2.6 0 .4-.2-1.1 0-2.2.1-3.2 0h.2c-.1.3-.8-.1-1.3 0 .1 0 .2-.1.1-.1h-.8c-.3 0-.7.1-1.2.2l.3-.1H77c-.3 0-.1-.1-.6.1 1.1-.5 1.1-.6 1.4-.8.1-.1.3-.2.5-.3.2-.1.4-.1.8-.1-.1 0-.3.2-.2.1.3-.1.6-.2 1-.3-.1-.1-.1 0-.4-.1.1-.1.4-.2.6-.3-.4.2 0 .2.2.2v-.1c.6.1.1-.2.8-.2v.1c.3-.1.5-.2.8-.2.1.1-.3.1-.3.2.4 0 .8-.3 1.2-.2-.2.1-.4.1-.6.1.4.1.5.1.8.1h.7-.2c.5-.4 1.1-.1 1.8-.3-.7.2-.1.1-.2.3.2 0 .4.1.4.1.3-.1.5.1 1 0 0 0 .4 0 .3.1.4 0-.1-.1-.1-.1.7-.2 1.5.3 2.5.1.8 0 1-.2 1.8-.2.2.1-.2.2-.2.2.4.1.7.1 1.1.1-.1 0 0 .1.1.1.3 0 .2-.2.6 0-.1 0-.2.1-.3.2.4 0 .7-.1 1.1 0 .1.1-.2.1-.4.1.4 0 1.1.1 1.3 0l-.3-.1c.2 0 .1.1-.1.1-.4 0-.5-.1-.5-.2h.3c-.2-.3-1.1-.1-1.6-.2l.3-.2-.5-.3c-.1-.1-.2-.2.1-.2-.4-.1-.4 0-.7-.1h-.4c.1 0 0-.2.2-.1-.7-.2-1.1 0-1.4-.1h.1c-1 0-.1.1-.8.3l-.5-.4-.1.1c-.1 0-.3 0-.3-.1-.4.1.1.1-.2.2-.5-.2-1.3 0-1.4-.2-.2.1.5.1-.1.2-.1-.3-.6 0-1-.1.1-.1.6 0 .1-.2-.3.2-.9 0-1.2 0 0 .2-.8.1-1.4.2 0-.1-1.2 0-1.8 0-.1.2-.7.2-1.1.4 0-.1.1-.2.3-.3l-.3-.1c-.1.1-.2.1-.5.2l.1-.2c-.3.1-.5.2-.8.3-.4.1-.7.3-1.2.4.1 0 .3 0 .5.1.1 0 .2.1 0 .2-.1 0-.4-.1-.2-.2-.1 0-.1.1-.3.2l.1-.2c-.4.1 0 .1-.3.2-.2 0-.3.1-.4 0 0 0 .3-.1.3-.2-.4.1-.7.3-1 .4.1 0 .2 0 .1.1-.4.3-.3.1-.7.4 0 .1-.3.3-.1.3-.1.1-.2.2-.3.2-.2.2.2.1.5.2.2 0 .5 0 .4-.1h.1c.3 0 .5 0 .7-.1h2.4v.1c.7-.1 1.2 0 1.6-.1.2 0 .4.1.3.2.4 0 .5-.1 1.1 0-.4.1.1.1-.4 0 .5.1.6.2 1.2.1-.2.1.4.2.6.2l-.4-.1c.3 0 .5 0 .8.1l-.2.2c1.1.3 2-.1 2.8.3.3-.1-.6-.2-.3-.3.5.1 1 .4 1.1.4.7.2.7-.1 1.4 0-.1-.1-.1-.2.4-.2.5.1.6.4.2.3-.1 0-.2 0-.2-.1-.2 0-.4 0-.2.1h.1c.2.1.9.2.7.3.4 0 .2-.1-.1-.1.6.2 1 .2 1.6.4-.1-.1-.2-.1-.1-.1.9.3.4 0 1.1.1.3.2-.2.2.5.3.4.2 0 .2-.1.2.6 0 1.1.3 1.4.5H94c.2 0 .3.1.5.1l-.1-.2c.2.1.3.1.3.2.2 0-.1-.2.3-.2.2.1.8.1.8.3-.7-.3 0 .2-.6 0 .1 0 .3.1.5.1h-.1c.5.3.5.1.8.1l.2-1h-.3c.1-.1-.2-.2-.3-.2.3 0 .1.2-.2.2-.5-.1-.6 0-.8-.1l.3.1c-.1.1-.4 0-.7 0 0-.1.3 0 .2-.1-.4.1-.9-.2-1.4-.2-.2-.1 0-.2-.2-.2-.6.1-.7-.2-1.3-.1.2.1.2.1-.2.2h1.1l-.7.1c.3 0 .7-.1.9 0-.3.1-.3.1-.1.2-.4-.2-.9.1-1.4-.1v-.3c-.8-.2-1.4.1-2.3.1l.3.1c-.1.1-.6 0-.9.1 0-.1-.2-.1-.3-.2 0 .1-.7 0-.8.2l-.4-.1c-.8 0-.9.3-1.7.4.2-.1-.1-.2.4-.3-.3 0-.5 0-.5.1-.2 0-.7.2-.9.1-.1.1-.1.2-.4.2 0 0-.4.1-.2.2-.8-.2-2.2.3-2.9.1-.5.1-1.2.3-1.7.4l.1-.1c-.7 0-.4.4-1.2.4-.4-.1.4-.2.1-.2-.2-.3-.9.2-1.5.2h.1c-.3 0-.5.1-.9.3l-3 1.2 3.1-.4c.2 0 .5-.1.7 0 .5-.2 1.3-.2 2-.2-.2.1-.3 0-.2.2.3 0-.1-.2.5-.2.2.1.6.2.6.3h-.5c.3.2.7.1 1 .1v.1c.8.1.9-.1 1.7 0l-.1-.1c.5-.1.4.2.9.1l.1.2c.3 0 1.1 0 1.7.1-.3.1-1 0-1.4.1.3 0 1.1.2 1.2.1h-.4c.4-.1.9-.1 1.5.1-.2.4 1.6.4 2 .8 1.1.1 2.1.6 3.4.9-.5-.8.3-.3.3-.6.3.1.4.1.4.1l.8.4c.2.1-.3 0-.3.1.6.2.2.2.6.4-.1-.1.3-.1.6.1l-.4-.3c.9.1.7.5 1.6.6H94c.5.1 1.7.5 2.2.4.1.1.1.2-.1.1.2.1.4.1.6.2l.3-1.2c-1-.1-2.1-.1-2.8-.3l.1-.1c-.2 0-.4.1-.7 0 0 0 .1-.1 0-.1s-.6.1-.9 0l.3-.1c-1.1-.2-1.8 0-2.7 0 0-.2-.9-.3-1.3-.4-1.3-.1-2.2.1-3.5.2-.8-.3-2.6-.1-3.8-.2.2 0 0 .2-.2.2-.3 0-.8.2-.7 0h.1c-.2-.2-.8-.1-1.3-.1l-.1.3c-1.2-.3-3.1.4-3.8.2-.3.1-.6.1-.8.2l-4.4 1.6L75 39h.1v.1c.8.1 1.2.1 2.2.2l-.2.1c.5 0 .7-.4 1.2-.3l.1.2c1 .1 1.9.4 2.9.3 0 0-.1.1-.2.1.4.1 1.7.4 1.6.1 0 .2 1 .2 1.5.2.5-.1.5-.2 1.1-.1.1 0 .1.1-.1.1.5.2.4-.1 1 .1l-.2.1c.5.1.5 0 .7 0 .3 0 .9.2 1 .4.1-.1.4-.1.6 0 0 .1-.1.1-.1.1.8.3 1.2.1 1.8.4 0 0 0 .1.1.1-.6-.2-1.2-.3-1.1-.3 0 .1.5.3 0 .3.4 0 1.2 0 1.7.2l.1.1h-.1c.1 0 .2.1.3.1l.4.2c0 .1.6.2.8.3 0-.1.3 0 .1-.2H92c-.2 0-.4-.1-.6-.2.2 0 .4 0 .7.2.2 0 .3-.1.4-.1.3.3.9.6 1 .8.6.2 1.4.5 1.9.6l.2-.7c-.2 0-.3.1-.4.1-.2 0-.3-.1-.3-.1h.4c-.5 0-1.4-.1-1.5.1-.6-.1.3-.1-.5-.2h.1c-1.6-.4-2.6.3-4.3-.1.1 0 .2 0 .2.1-2-.2-4.1.1-6.1-.1-.6 0-.6.1-1 .2l-.1-.1-.6.2c-.8.2-1.5-.3-2.5.1l.1.1c-.4 0-1.2.2-1.1.1 0 0-.1.1-.3.1v-.1l-.9.3c-.7 0 .1-.3-1-.2-.4.1-1.1.4-.9.5h.4l-.3.1c0 .2-.2.5.6.5l.6-.2.2.1-.5.1c.3.1.5-.1.7-.2.1.1.1.1.3.1l.6-.3c.1.1-.2.2.2.2.3-.1-.3-.2.2-.3.3.1.2.2.6 0 .1.1 0 .1-.1.1.3-.1.8-.1.9-.3.3.1 1-.1 1 .1.1-.1.5-.2.8-.2-.5.3 1-.1.9.2.4-.2 1.3-.2 2-.3 0 0-.1.1-.2 0 .4 0 .5.1.7.1 0-.2.6-.3.9-.4.5.2-.3.2-.1.4 0-.2.8-.2.6-.3.4.1.3.1.5.2.1-.2.3 0 .6-.2.5.1.1.2.7.2 0-.5-.5-.4-.5-.4zm3.5-2.4c.1 0 .2 0 .3.1-.1-.1-.2-.1-.3-.1zm-1.1-.3c.1 0 .3.1.5.1 0 .1 0 .1-.1.1 0 0-.3-.1-.4-.2zm2 1.6c-.2 0-.2-.1-.2-.1.1 0 .2 0 .2.1.1-.1.1-.1 0 0z" style="fill:#fff"/><path d="M92 41.6s0-.1 0 0c-.1 0-.1 0 0 0zM76.2 31zm.1 8v-.1l-.1.1zm4.3-10s.1.1 0 0c.1 0 .1 0 0 0zm2.6-.2h.4-.4zm2.1 0s0-.1 0 0zm9.9 4.9c-.3 0-.2 0 0 0zm-6.6-2.4h.3c-.1-.1-.3-.1-.3 0zm-4.2 2.6zm5-2.6c-.2-.1-.3-.1-.4-.1.1.1.2.1.4.1zm4.7-1.7h.1-.1zm.1 0h.1-.1zm.3 0h-.2.2zm-3.1-.4zm-.8-.1c.2 0 .5.2.8.2-.2 0-.6-.3-.8-.2zm-3.4-.9.7.1c-.1-.1-.3-.1 0-.1-.8-.2.2.1-.7 0zm-2.2-.1c.4 0 0-.1 0-.1-.2 0-.2.1 0 .1zm-3.6 3v.1c.3 0 0-.1 0-.1zm3-.5-.2-.1-.2.1zm1.7 1.1h-.2.5zM81.3 33l.1.1c.2 0 .2-.2-.1-.1zm.2 2.3c.1.1.4.2.6.1-.2 0-.4-.1-.6-.1zm-2.3 2.1.2-.1-.4.1z" style="fill:#fff"/></g><path d="M80.1 50.1s0 .1 0 0zm0 .1s.1 0 .1-.1c-.1.1 0 .1-.1.1zm.3.7zm.3.4zm0 .1zm-.3-.5zm-.1-.7c-.1 0-.1 0 0 0-.1 0-.1 0 0 0-.1 0-.1 0 0 0zm0 .6zm-.1-.2zm-.1-.2zm.2.5zm3 3.1zm-.1.3zm-2.5-2.8zm.8 1c.1 0 .1 0 0 0 .1 0 .1 0 0 0zm-1.3-2.3c.1 0 .1 0 0 0 .1 0 .1 0 0 0zm1.4 2.3zm-.7-.7zm-.1-.3zm.3.3zm.1.1zm1.8 1.8s.1 0 0 0zm-2.8-3.5zm1.2 1.4zm1.1 1.4zm-1-1.4s0 .1 0 0c0 .1 0 .1 0 0zm1.5 2.2zm.2 0s-.1 0 0 0c-.1 0-.1 0 0 0H83s-.1 0-.1.1h.1-.1.1l.1-.1-.1.1c-.1 0 .1-.1 0-.1 0 0-.1.1-.1 0h.1s-.1.1-.1 0 0 0-.1 0h.1-.1c-.1 0 0-.1 0-.1h-.2c-.1 0-.1 0-.1-.1 0 0-.1.1-.1 0s-.1-.1 0-.1c-.1 0 0-.1-.1 0 0-.1.1-.1.1-.1h-.2l.1-.1v-.1h-.1c-.1 0 0 0 0 0v-.1s-.1 0-.1-.1l-.1.1h-.1l.1-.1s0-.1 0 0c0 0-.1 0-.1-.1h-.1v-.1h-.1s0-.1.1-.1h-.1c-.1 0 .1-.2-.1-.1h-.1.1c-.1 0 0-.1-.1-.1.1-.1-.1-.1 0-.2-.1 0-.1-.2-.1-.2s-.2.1-.1 0h.1c-.1 0-.1-.1-.2-.1h-.1s-.1 0 0 0H81v-.1h-.1c.1-.1 0-.1 0-.1h-.1c.1-.1-.1 0 0-.1h-.2c.1-.1 0 0 .1 0h-.1c-.1 0 0-.1-.1-.1l-.1.1.1-.1h-.3c.1 0 0 0 .1-.1h-.1s-.1.1-.1 0c0 0 .1 0 .1-.1h-.1.1s-.1.1-.1 0c0 0-.1 0-.1-.1.1-.1 0 0 .1 0H80c-.1.1 0-.1 0 0 0 0 .1 0 0 0h-.1v-.1h-.1c.1-.1-.1 0 0-.1h-.1s.1 0 .1-.1c.1-.1-.1.1 0 0h.1-.1v-.1c-.1.1 0 0-.1 0 .1 0 0 0 .1-.1-.1 0 0-.1-.1-.1h-.1.1s-.1 0 0 0h.1-.1.1-.1c-.1.1 0 0 0 0h-.1.1-.1s.1 0 0 0c0 0 .1 0 .1-.1l-.1.1h.2v.1h.1c-.1.1 0 0 0 0h-.1c.1 0 0 0 0 0h.1v.1h.1-.1.1l.1-.1H80v.1h.1v.1h.2c.1 0 0 .1.1.1h.1s0 .1 0 0h-.1c0 .1.2 0 .1.1l.1-.1-.1.1h.1l.1-.1-.1.1v.2h.1s-.1 0 0 0h-.1v.1l.1-.1h-.1c0 .1.1 0 .1 0h.1c.1 0 0 .1 0 .1s-.1 0-.1.1h.3c0 .1.1 0 0 0l-.1.1c0 .1.1 0 .1 0l-.1.1h.2s-.1 0-.1.1c0 0 .1 0 0 0h.2c-.1.1.1.1 0 .1h.1s.1-.1.1 0 0 0-.1 0c-.1.1 0 0 0 .1h.2-.1s.1-.1.1 0l-.1.1c-.1.1 0 0 0 0h.1c.1 0 0 0 0 0l-.1.1h.1-.1.2c-.1.1 0 .1-.1.2.1 0 0 .1.1.1l.1-.1v.1l-.1.1s.1 0 0 0c.1 0-.1.1 0 .1h.1s.1 0 .1.1c0 0 .1 0 0 0 0 0 .1 0 0 0 0 .1.1 0 .1 0l-.1.1h.2c-.1.1 0 .1 0 .2h.1s.1 0 0 0c-.1.1 0 .1 0 .1l.1-.1c-.1.1.1.1 0 .2h.1v.1s.1-.1.2-.1l-.1.1s0 .1.1.1c0 0 0 .1.1 0h.3v.1h.1s.1 0 0 0c0 0 0 .1-.1.1h.1l.1-.1s.1 0 0 0h.1l-.1.1h.3s-.1 0 0 0c-.1.1.2 0 .1.1 0 .1.1.1.1.2h.2c.1 0-.1.1 0 .1h.1l-.1.1h.1c.1-.1.2-.1.2-.2h-.2s.1 0 .1-.1l-.1.1s.1-.1 0 0h-.1V54h-.1l.1-.1h-.1v-.1c-.1 0-.1 0-.1.1-.5 0-.4 0-.4-.1 0 .1 0 .1-.1.1.1 0 0 0 .1-.1-.1.1 0 0 0 0-.1 0 0 0 0 0zm-.4-.3zm0 0c-.1 0-.1 0 0 0-.1 0-.1 0 0 0zm-.3.3zm.1 0c0-.1 0-.1 0 0 0-.1 0-.1 0 0zm-2.2-2.9zm2.1 2.1zm-2-2.4zm-.1-.1zm0-.1zm.7.9c.1 0 .1 0 0 0zm-.3-.2s.1 0 0 0c.1 0 .1 0 0 0zm.6.5zm-.5-.5zm-.7-.9zm0 0zm0 0zm.1.1c0-.1 0 0 0 0zm0 0s0-.1 0 0c0-.1-.1 0 0 0zm-.1.2c-.1 0-.1 0 0 0-.1.1-.1 0 0 0zm0 .1s-.1 0 0 0zm.3.4c0 .1 0 .1 0 0zm.3 0v-.1.1zm-.3.2zm.6.7zm.3.3s0 .1 0 0zm.6 1zm9.1 19.7c-.1 0-.1 0 0 0zm-.1.1.1-.1c-.1 0 0 0-.1.1 0 0 0-.1 0 0 0-.1 0-.1 0 0zm.2.3zm.1.3zm0 0zm-.1-.3s0 .1 0 0zm-.1-.4zm0 .4s-.1 0 0 0zm-.1-.1zm0-.1zm.1.3zm1.9 1.4zm-.1.3zm-1.6-1.4zm.5.5s.1 0 0 0c.1 0 0 0 0 0zm-.7-1.3zm.8 1.3zm-.5-.4s.1 0 0 0c.1 0 .1 0 0 0zm0-.1zm.1.1s0 .1 0 0c.1 0 .1 0 0 0 0 .1 0 .1 0 0zm.1.1zm1.2.8s.1 0 0 0zm-1.7-1.8zm.8.6c0 .1 0 0 0 0zm.6.8zm-.6-.7zm.9 1.1z" style="fill:#6594d9"/><path d="M93 74.7c-.1-.1-.1 0 0 0-.2 0-.1 0 0 0 0 0-.1.1-.1 0h.1c-.1.1-.1 0-.2 0l-.1.1c0-.1 0 0 .1 0h-.1l.1-.1c.1-.1 0 0 .2 0-.1-.1-.1 0-.1-.1l-.1.1c-.1 0 .1-.1 0-.1 0 0-.1.1-.1 0h.1s-.1.1-.1 0h-.1v-.1h-.1s-.1.1-.1 0c0 0-.1 0 0-.1-.1.1 0 0-.1 0 0-.1.1-.1.1-.1h-.2l.1-.1v-.1h-.1c-.1 0 0 0 0 0h-.1l-.1.1h-.1l.1-.1s0-.1 0 0l-.1.1v-.1h-.1l.1-.1h-.1c-.1 0 .1-.1 0-.1h-.1.1-.1c.1-.1 0 0 0-.1-.1 0 0-.1 0-.2 0 0-.1.1-.1 0h.1-.1s-.1 0 0 0h-.1c.1-.1 0-.1 0 0h-.1c.1-.1-.1 0 0-.1h-.1l.1-.1s-.1.1-.1 0h-.1l-.1.1.1-.1h-.3l.1-.1s-.1 0 0 0c0 0-.1.1-.1 0l.1-.1h-.1s-.1.1 0 0l.1-.1h-.1c-.1.1 0 0 0 0h-.1c.1-.1-.1 0 0-.1l.1-.1c.1-.1-.1.1 0 0h.1s-.1.1-.1 0l-.1.1c.1 0 0 0 .1-.1-.1 0 0-.1 0 0l-.1.1h.1s-.1 0 0 0h.1-.1.1-.1c-.1.1 0 0 0 0h.2l-.1.1s.1 0 0 0l.1-.1-.1.2h.1v.1h.1c-.1.1 0 0 0 0h-.1c.1-.1 0 0 0 0h.1v.1h.1l-.1.1s.1 0 0 0l.1-.1-.1.1v.2h.1c.1 0 0 0 0 0h.1-.1c0 .1.1-.1 0 0l.1-.1-.1.1s.1-.1.1 0l.1-.1-.1.1v.1h.1s-.1.1 0 0l-.1.1.1-.1h-.1.1l.1-.1c.1 0 0 .1 0 0l-.1.1.1-.1h.2c0 .1 0 0 0 0l-.1.1h.1l-.1.1h.1s.1-.1.1 0c0 0-.1 0-.1.1h.1c-.1.1 0 0 0 .1 0 0 .1-.1.1 0-.1.1 0 0 0 .1h.2l-.1.1.1-.1-.1.1c0 .1 0 0 0 0h.1c.1 0 0 0 0 0l-.1.1h.1s-.1 0-.1.1c.1 0 .1-.1.1 0l-.1.1c.1 0 0 0 0 .1l.1-.1v.1l-.1.1c.1 0-.1.1 0 .1h.3c-.4-.5-.4-.5-.4-.4h.1c-.1.1 0 .1 0 .1h.1s.1 0 0 0c-.1.1 0 .1 0 .1l.1-.1c-.1.1.1 0 0 .1h.1l.1-.1-.1.1s0 .1 0 0c0 0 0 .1.1 0-.1.1 0 0 0 0 .1 0 .1-.1.1-.1h.1v.1h.1s.1 0 0 0l-.1.1s.1-.1.1 0l.1-.1s.1 0 .1-.1l-.1.1.1-.1h.1s-.1 0 0 0c-.1.1.2-.1.1 0 0 .1.1 0 0 .1h.2s-.1.1 0 .1h.1l-.1.1s.1 0 .1-.1l.2-.2-.7.3s.1 0 .1-.1l-.1.1s.1-.1 0 0h-.1v-.1h-.1c.2 0 .1 0 .2-.1v.1c-.1 0 0-.1 0-.1 0 .1-.1.1-.1.2 0-.1 0-.1.1-.2 0 .1 0 .1-.1.1 0-.1 0 0 .1-.1-.1.1-.1 0 0 0-.1 0-.1 0 0 0-.1 0 0 0 0 0zm-.3-.1zm-.1 0zm-.2.3zm0-.1c.1 0 .1 0 0 0 .1 0 0 0 0 0zm-1.2-1.5zm1.3 1zm-1.3-1.2zm0 0zm0-.1zm.5.4zm-.2 0zm.4.1zm-.4-.1zm-.4-.5zm0 0zm0 0zm0 0z" style="fill:#6594d9"/><path d="M91.1 72.9s.1 0 0 0c.1 0 0 .1 0 0zm-.1.3c-.1 0 0-.1 0 0zm0 0zm.2.2c0 .1 0 .1 0 0zm.2-.1h.1-.1zm-.2.3zm.4.3s-.1 0 0 0zm.1.1c0 .1 0 .1 0 0 0 .1.1 0 0 0zm.4.6zm-7-11.4s-.1 0 0 0zm-.1.1s.1 0 .1-.1c0 .1 0 .1-.1.1 0 0 .1-.1 0 0zm.4.7zm.2.4zm0 .1zm-.2-.5zm-.2-.7zm0 .5c0 .1 0 .1 0 0zm-.1-.1zm-.1-.2zm.3.4s0 .1 0 0c0 .1 0 0 0 0zm2.9 3.2zm-.1.3zm-2.5-2.8zm.9 1c.1 0 0 0 0 0zm-1.3-2.3zm1.4 2.3zm-.7-.7zm-.1-.3zm.2.3zm.1.1zm1.9 1.8zm-2.8-3.5zm1.2 1.3c0 .1 0 .1 0 0zm1 1.5zm-1-1.4zm1.5 2.1zm.2.1c-.1 0 0 0 0 0h-.2s-.1 0-.1.1h.1-.1.1l.1-.1-.1.1c-.1 0 .1-.1 0-.1 0 0-.1.1-.1 0h.1s-.1.1-.1 0 0 0-.1 0h.1-.1c-.1 0 0-.1 0-.1h-.2c-.1 0-.1 0-.1-.1 0 0-.1.1-.1 0s-.1-.1 0-.1c-.1 0 0-.1-.1 0 0-.1.1-.1.1-.1h-.2l.1-.1v-.1h-.1c-.1 0 0 0 0 0v-.1s-.1 0-.1-.1l-.1.1h-.1l.1-.1s0-.1 0 0c0 0-.1 0-.1-.1h-.1v-.1h-.1s0-.1.1-.1h-.1c-.1 0 .1-.2-.1-.1h-.1.1c-.1 0 0-.1-.1-.1.1-.1-.1-.1 0-.2-.1 0-.1-.2-.1-.2s-.2.1-.1 0h.1c-.1 0-.1-.1-.2-.1H86s-.1 0 0 0h-.1V65h-.1c.1-.1 0-.1 0-.1h-.1c.1-.1-.1 0 0-.1h-.2c.1-.1 0 0 .1 0h-.1c-.1 0 0-.1-.1-.1l-.1.1.1-.1h-.3c.1 0 0 0 .1-.1h-.1s-.1.1-.1 0c0 0 .1 0 .1-.1H85h.1s-.1.1-.1 0c0 0-.1 0-.1-.1.1-.1 0 0 .1 0h-.1c-.1.1 0-.1 0 0 0 0 .1 0 0 0h-.1v-.1h-.1c.1-.1-.1 0 0-.1h-.1s.1 0 .1-.1c.1-.1-.1.1 0 0h.1-.1V64c-.1.1 0 0-.1 0 .1 0 0 0 .1-.1-.1 0 0-.1-.1-.1h-.1.1s-.1 0 0 0h.1-.1.1-.1c-.1.1 0 0 0 0h-.1.1-.1s.1 0 0 0c0 0 .1 0 .1-.1l-.1.1h.2v.1h.1c-.1.1 0 0 0 0h-.1c.1 0 0 0 0 0h.1v.1h.1-.1.1l.1-.1h-.1v.1h.1v.1h.2c.1 0 0 .1.1.1h.1s0 .1 0 0h-.1c0 .1.2 0 .1.1l.1-.1-.1.1h.1l.1-.1-.1.1v.2h.1s-.1 0 0 0h-.1v.1l.1-.1h-.1c0 .1.1 0 .1 0h.1c.1 0 0 .1 0 .1s-.1 0-.1.1h.3c0 .1.1 0 0 0l-.1.1c0 .1.1 0 .1 0l-.1.1h.2s-.1 0-.1.1c0 0 .1 0 0 0h.2c-.1.1.1.1 0 .1h.1s.1-.1.1 0 0 0-.1 0c-.1.1 0 0 0 .1h.2-.1s.1-.1.1 0l-.1.1c-.1.1 0 0 0 0h.1c.1 0 0 0 0 0l-.1.1h.1-.1.2c-.1.1 0 .1-.1.2.1 0 0 .1.1.1l.1-.1v.1l-.1.1s.1 0 0 0c.1 0-.1.1 0 .1h.1s.1 0 .1.1c0 0 .1 0 0 0 0 0 .1 0 0 0 0 .1.1 0 .1 0h-.1.2c-.1.1 0 .1 0 .2h.1s.1 0 0 0c-.1.1 0 .1 0 .1l.1-.1c-.1.1.1.1 0 .2h.1v.1s.1-.1.2-.1l-.1.1s0 .1.1.1c0 0 0 .1.1 0h.3v.1h.1s.1 0 0 0c0 0 0 .1-.1.1h.1l.1-.1s.1 0 0 0h.1l-.1.1h.3s-.1 0 0 0c-.1.1.2 0 .1.1 0 .1.1.1.1.2h.2c.1 0-.1.1 0 .1h.1l-.1.1h.1c.1-.1.2-.1.2-.2h-.2s.1 0 .1-.1l-.1.1s.1-.1 0 0h-.1V67h-.1l.1-.1h-.1v-.1c-.1 0-.1 0-.1.1-.4.1-.4.1-.4 0 0 .1 0 .1-.1.1.1 0 .1 0 .1-.1-.1.1 0 0 0 0zm-.4-.3zm0 0zm-.3.3c.1 0 .1 0 0 0zm.1-.1zM85.4 64zm2 2.1zm-2-2.4zm-.1-.1zm0-.1zm.8.9zm-.3-.2zm.6.4zm-.6-.4zm-.6-.9h-.1zm-.1 0zm0 0zm.1 0zm0 .1s0-.1 0 0c0-.1 0 0 0 0zm-.1.2c-.1.1 0 0 0 0zm0 .1zm.3.4c0 .1 0 0 0 0zm.3-.1zm-.2.3zm.5.7c.1 0 0 0 0 0zm.3.3s0 .1 0 0zm.7 1zm1.7-14.7s0 .1 0 0zm-.1.1s.1 0 .1-.1c0 .1 0 .1-.1.1.1 0 .1 0 0 0 .1 0 .1 0 0 0 .1 0 .1 0 0 0zm.4.7zm.3.4zm0 .1zm-.3-.5zm-.2-.7zm.1.6c-.1 0-.1 0 0 0zm-.2-.2c.1 0 .1 0 0 0 .1 0 .1 0 0 0 .1 0 .1 0 0 0zm0-.2zm.2.5zm3 3.1zm-.1.3zM89.3 53zm.8 1c.1 0 .1 0 0 0 .1 0 0 0 0 0zm-1.3-2.3zm1.4 2.3zm-.7-.7zm-.1-.3zm.3.3zm0 .1zm1.9 1.8zm-2.8-3.5zm1.2 1.4zm1 1.4zm-.9-1.4s-.1.1 0 0c-.1.1-.1.1 0 0zm1.5 2.2z" style="fill:#6594d9"/><path d="M91.8 55.3s-.1 0 0 0c-.1 0-.1 0 0 0h-.2s-.1 0-.1.1h.1-.1.1l.1-.1-.1.1c-.1 0 .1-.1 0-.1 0 0-.1.1-.1 0h.1s-.1.1-.1 0 0 0-.1 0h.1-.1c-.1 0 0-.1 0-.1h-.2c-.1 0-.1 0-.1-.1 0 0-.1.1-.1 0s-.1-.1 0-.1c-.1 0 0-.1-.1 0 0-.1.1-.1.1-.1h-.2l.1-.1v-.1h-.1c-.1 0 0 0 0 0v-.1s-.1 0-.1-.1l-.1.1h-.1l.1-.1s0-.1 0 0c0 0-.1 0-.1-.1h-.1v-.1h-.1s0-.1.1-.1h-.1c-.1 0 .1-.2-.1-.1h-.1.1c-.1 0 0-.1-.1-.1.1-.1-.1-.1 0-.2-.1 0-.1-.2-.1-.2s-.2.1-.1 0h.1c-.1 0-.1-.1-.2-.1h-.1s-.1 0 0 0h-.1v-.1h-.1c.1-.1 0-.1 0-.1h-.1c.1-.1-.1 0 0-.1h-.2c.1-.1 0 0 .1 0h-.1c-.1 0 0-.1-.1-.1l-.1.1.1-.1h-.3c.1 0 0 0 .1-.1h-.1s-.1.1-.1 0c0 0 .1 0 .1-.1h-.1.1s-.1.1-.1 0c0 0-.1 0-.1-.1.1-.1 0 0 .1 0h-.1c-.1.1 0-.1 0 0 0 0 .1 0 0 0h-.1v-.1h-.1c.1-.1-.1 0 0-.1h-.1s.1 0 .1-.1c.1-.1-.1.1 0 0h.1-.1v-.1c-.1.1 0 0-.1 0 .1 0 0 0 .1-.1-.1 0 0-.1-.1-.1h-.1.1s-.1 0 0 0h.1-.1.1-.1c-.1.1 0 0 0 0h-.1.1-.1s.1 0 0 0c0 0 .1 0 .1-.1l.4-.1h.2v.1h.1c-.1.1 0 0 0 0h-.1c.1 0 0 0 0 0h.1v.1h.1-.1.1l.1-.1h-.1v.1h.1v.1h.2c.1 0 0 .1.1.1h.1s0 .1 0 0h-.1c0 .1.2 0 .1.1l.1-.1-.1.1h.1l.1-.1-.1.1v.2h.1s-.1 0 0 0h-.1v.1l.1-.1h-.1c0 .1.1 0 .1 0h.1c.1 0 0 .1 0 .1s-.1 0-.1.1h.3c0 .1.1 0 0 0l-.1.1c0 .1.1 0 .1 0l-.1.1h.2s-.1 0-.1.1c0 0 .1 0 0 0h.2c-.1.1.1.1 0 .1h.1s.1-.1.1 0 0 0-.1 0c-.1.1 0 0 0 .1h.2-.1s.1-.1.1 0l-.1.1c-.1.1 0 0 0 0h.1c.1 0 0 0 0 0l-.6.3h.1-.1.2c-.1.1 0 .1-.1.2.1 0 0 .1.1.1l.1-.1v.1l-.1.1s.1 0 0 0c.1 0-.1.1 0 .1h.1s.1 0 .1.1c0 0 .1 0 0 0 0 0 .1 0 0 0 0 .1.1 0 .1 0l-.1.1h.2c-.1.1 0 .1 0 .2h.1s.1 0 0 0c-.1.1 0 .1 0 .1l.1-.1c-.1.1.1.1 0 .2h.1v.1s.1-.1.2-.1l-.1.1s0 .1.1.1c0 0 0 .1.1 0h.3v.1h.1s.1 0 0 0c0 0 0 .1-.1.1h.1l.1-.1s.1 0 0 0h.1l-.1.1h.3s-.1 0 0 0c-.1.1.2 0 .1.1 0 .1.1.1.1.2h.2c.1 0-.1.1 0 .1h.1l-.1.1h.1c.1-.1.2-.1.2-.2h-.2s.1 0 .1-.1l-.1.1s.1-.1 0 0h-.1v-.1h-.1l.1-.1h-.1v-.1c-.1 0-.1 0-.1.1-.5 0-.4 0-.4-.1 0 .1 0 .1-.1.1l.1-.1c-.1.1-.1 0 0 0-.1 0 0 0 0 0-.1 0 0 0 0 0zm-.4-.3zm-.1 0zm-.2.3zm0 0c.1 0 .1-.1 0 0 .1-.1 0 0 0 0zM89 52.4zm2.1 2.1zM89 52.1zm0-.1zm0-.1zm.7.9zm-.3-.2zm.6.5zm-.5-.5c-.1 0-.1 0 0 0zm-.7-.9zm0 0zm0 0zm0 .1c.1 0 0 0 0 0zm.1 0s0-.1 0 0c0-.1-.1 0 0 0zm-.2.2c0 .1 0 0 0 0zm.1.1c-.1 0-.1 0 0 0-.1 0-.1 0 0 0zm.3.4c0 .1 0 .1 0 0z" style="fill:#6594d9"/><path style="fill:#6594d9" d="M89.4 52.5v-.1l-.1.1zm-.3.2zm.6.7zm.3.3s-.1.1 0 0zm.6 1z"/><circle cx="78" cy="89.3" r="6.8"/></g></svg>