<svg xmlns="http://www.w3.org/2000/svg" viewBox="0 0 131.2 142.8" style="enable-background:new 0 0 131.2 142.8" xml:space="preserve"><style>.st5{fill:#ef7937}.st6{fill:#f5a800}.st7{fill:none;stroke:#ef7937;stroke-width:.925;stroke-miterlimit:10}.st8{fill:#ee8e39}.st9{fill:#f5a800}.st10{fill:none;stroke:#ef7937;stroke-width:.8491;stroke-miterlimit:10}.st11{fill:#ee8e39}.st12{fill:#f5a800}.st13{fill:none;stroke:#d9413d;stroke-width:.8491;stroke-miterlimit:10}.st14{opacity:.37}.st15{clip-path:url(#SVGID_2_)}.st16{clip-path:url(#SVGID_4_)}.st17{clip-path:url(#SVGID_6_)}.st18{clip-path:url(#SVGID_8_)}.st19{clip-path:url(#SVGID_10_)}.st20{clip-path:url(#SVGID_12_)}.st21{clip-path:url(#SVGID_14_)}.st22{clip-path:url(#SVGID_16_)}.st23{clip-path:url(#SVGID_18_)}.st24{clip-path:url(#SVGID_20_)}.st25{fill:none;stroke:#ee8e39;stroke-width:.925;stroke-miterlimit:10}.st26{clip-path:url(#SVGID_22_)}.st27{clip-path:url(#SVGID_24_)}.st28{clip-path:url(#SVGID_26_)}.st29{clip-path:url(#SVGID_28_)}.st30{clip-path:url(#SVGID_30_)}.st31{fill:none;stroke:#d9413d;stroke-width:.925;stroke-miterlimit:10}.st32{clip-path:url(#SVGID_32_)}.st33{clip-path:url(#SVGID_34_)}.st34{clip-path:url(#SVGID_36_)}.st35{clip-path:url(#SVGID_38_)}.st36{clip-path:url(#SVGID_40_)}.st37{fill:#ee8e39}.st38{fill:#6594d9}.st39{fill:#ee8423}.st40{fill:#f18a50}.st41{fill:#019788}.st42{fill:#32867a}.st43{fill:#f67258}.st44{fill:#de5956}.st45{opacity:.5}.st48{fill:#21a497}.st49{fill:#f7846d}.st50{fill:#26a59a}.st51{opacity:.65;fill:none;stroke:#fff;stroke-width:.2;stroke-miterlimit:10}.st52{fill:#f8dd91}.st53{fill:none;stroke:#31458b;stroke-miterlimit:10}.st54{fill:#ef7937}.st55{fill:none;stroke:#f5a800;stroke-miterlimit:10}.st55,.st56,.st57{stroke-width:.2}.st56{fill:none;stroke:#4db6ac;stroke-miterlimit:10}.st57{stroke:#ff8a65}.st57,.st58,.st59,.st60,.st61{fill:none;stroke-miterlimit:10}.st58{opacity:.65;stroke:#fff;stroke-width:.5}.st59{stroke:#ef7937}.st60{stroke:#147467}.st61{stroke:#d9413d}.st62{fill:#ee8e39}.st63,.st64,.st65{fill:#f8dd91}</style><g id="Calque_1"><path d="M78 112s-34.8-.3-42.4 1.5 19.6 7.3 34 6.3c14.4-1.1 25-4.7 20.8-5.9-4.3-1.3-8.7-1.6-12.4-1.9z" style="opacity:5.000000e-02"/><path d="M65.9 103.1c-.1.6-.1.6-.1 1.2s.1.6.1 1.2-.1.6-.1 1.2v2.4c0 .6-.1.6-.1 1.2v2.4c0 .6.1.6.1 1.2s-.1.6-.1 1.2-.1.6-.1 1.2c0 .5.5.9.9.9h1.3c.6 0 .6-.1 1.3-.1.6 0 .7-.8.2-1-.5-.1-.5 0-1 0s-.5.1-1 .1c-.3-.1-.5-.5-.5-.8v-1.2c0-.6-.1-.6-.1-1.2s.1-.6.1-1.2v-2.4c0-.6-.1-.6-.1-1.2s-.1-.6-.1-1.2v-1.2c0-.6.1-.6.1-1.2s.1-.6.1-1.2-.1-.6-.1-1.2.6-1 .1-1.2c-.5-.2-.3.6-.6 1-.1.6-.2.6-.3 1.1zm-3.7 0c.1.6 0 .6 0 1.2s.1.6.1 1.2-.1.6-.1 1.2v1.2c0 .6.2.6.2 1.2s-.1.6-.1 1.2.1.6.1 1.2-.1.6-.1 1.2v1.2c0 .6-.1.6-.1 1.2v1.2c0 .5-.3.9-.8.9h-1.3c-.6 0-.6.1-1.3.1-.6 0-.7-.8-.2-1 .5-.1.5-.2 1-.3.5 0 .5.1 1 .1.3-.1.6-.5.6-.9 0-.6-.2-.6-.2-1.2s.1-.6.1-1.2.1-.6.1-1.2-.1-.6-.1-1.2v-1.2c0-.6.1-.6.1-1.2s-.1-.6-.1-1.2v-1.2c0-.6.1-.6.1-1.2V102c0-.6-.5-.9.1-1.1.5-.2.1.5.4 1 .2.7.4.7.5 1.2z" style="fill:#ef7937"/><path d="M88.6 31.6c.8.2 1.7.6 2.6 1.1.8.4 1.7.8 2.4 1.4.7.6 1.4 1.2 2 2 .5.7 1.1 1.6 1.4 2.5.3.8.2 1.9.2 2.8 0 .9-.6 1.7-.9 2.7-.3.9-.5 1.9-.8 3-.3 1-.5 2-.8 2.9-.3 1-.2 2.1-.5 3.1s-.7 2-1 2.9c-.4 1.1-.9 2-1.2 2.8-.6 1.8-.1 1.6-.6 3-.4 1.3-.9.8-1.4 2.4-.2.8 0 1.8-.3 2.8-.2.8-.6 1.7-.8 2.6-.2.8-.6 1.7-.8 2.6-.2.9-.5 1.7-.7 2.6-.2.9-.7 1.7-.9 2.6-.2.9.1 1.9-.1 2.8-.2.9-.8 1.7-1 2.6-.2 1-.4 2-.7 3-.3 1 0 2.1-.3 3.1s-1.2 1.8-1.5 2.7c-.4 1-.3 2.1-.7 3-.4 1-1 1.9-1.4 2.8-.5 1-1.3 1.8-1.7 2.6-.8 1.7-.4 1.5-1 2.9s-.7 1.2-1.5 2.7c-.5.8-1.1 1.7-1.8 2.5s-1.3 1.6-2.1 2.2c-.9.6-1.8.9-2.8.7-.9-.2-1.9 0-2.8 0-.9-.1-1.8-.3-2.8-.3-.9 0-1.9 0-2.8.1-.9.1-1.9.3-2.8.4-1 .1-1.9-.2-2.8-.2-.9 0-2-.2-2.8-1.1-.6-.7-.9-1.8-1.5-2.8-.5-.9-1.3-1.7-1.8-2.6-.5-1-.5-2.2-.8-3.1-.7-1.7-.4-1.5-1-3-.5-1.4-.7-.9-1.4-2.6-.3-.8-.4-1.8-.8-2.9-.3-.9-1.3-1.6-1.6-2.5-.3-.9-.6-1.8-1-2.8-.4-.9-.3-2-.6-2.9-.4-.9-.8-1.8-1.1-2.7-.4-.9-1.1-1.7-1.4-2.6-.4-1-.6-1.9-.9-2.8-.4-1-.4-2-.7-2.9-.4-1.1-.9-2-1.1-2.8-.2-.9-.4-1.9-.6-2.9-.2-.9-.4-1.9-.6-2.9-.2-1-.5-1.9-.8-2.8-.2-1-.6-1.9-.8-2.8-.2-1.1-.4-2-.6-2.9-.4-1.7-.3-1.4-.7-2.9-.4-1.2-.5-1.2-.9-2.4s.1-1.4-.3-2.6c-.4-1.2-.8-1.1-1.2-2.3-.4-1.2-.4-1.2-.8-2.5-.4-1.2-.4-1.2-.8-2.5-.4-1.4-.2-1.4-.1-3 .1-.9.1-2 .6-3 .4-.8 1.3-1.3 2.2-2 .8-.6 1.3-1.6 2-1.9.9-.5 1.9-.4 2.7-.5.9-.2 1.7-.5 2.6-.2.7.2 1.6.4 2.6.9.7.4 1.2 1.2 2.1 1.8.5.3 1.4.6 2.3 1.3.6.5 1.2 1.2 2 1.8.7.6 1.4 1 2.1 1.6.7.6 1.3 1.3 1.9 1.9.7.7 1.3 1.4 1.7 2 .6.9 1 1.7 1 2.4 0 .8-1.2.3-2.6-.1-1.5-.5-3-1-2.5-.1.3.5 1 1.4 1.7 2.4.5.8 1.1 1.7 1.6 2.5.6 1.1 1.2 2.1 1.5 2.6.4 1 .6 2.1 1.1 3 .5 1 1 1.9 1.5 2.7.6.9 1.1 1.9 1.6 2.7.6 1 1.4 1.7 1.9 2.5.6 1.1 1 2 1.2 2.8.2 1.1.5 2 .7 2.5.6 1.1 1.6.7 2.2-.1.7-.9 1-1 1.4-2.2.4-1.4-.2-1.1.2-2.9.2-.8.5-1.7.7-2.7.2-.8.5-1.8.7-2.7.2-.9.4-1.8.7-2.8.3-.9.9-1.7 1.2-2.6.3-.9.3-1.9.6-2.8.3-.9.9-1.7 1.2-2.6.3-.9.8-1.7 1.1-2.6.4-.9.6-1.8 1-2.6.4-.9.8-1.7 1.2-2.6.4-.9 1-1.6 1.5-2.4.5-.8.6-1.9 1.1-2.6.5-.8 1.5-1.3 2.1-2 .6-.7 1.5-1.1 2.8-1.1 1 0 2.2 0 3.2.2 1.1.5 2.3.6 3 .7z" style="fill:#f5a800"/><path d="M58.5 71.4s-4.4-4.6-10.3-1.3-5.2 12.1.7 13.9 9.8-.6 10.7-3.1c.9-2.6 1.4-7.1-1.1-9.5z" style="fill:#fff"/><circle cx="52.2" cy="77.3" r="5.1"/><path d="M82.2 72.3s-4.4-4.6-10.3-1.3-5.2 12.1.7 14c5.9 1.8 9.8-.6 10.7-3.1 1-2.6 1.5-7.2-1.1-9.6z" style="fill:#fff"/><circle cx="76" cy="77.3" r="5.1"/><path d="M64.7 92.4h-.4c-3.3-.2-4.3-3.7-4.4-5.5l1-.1c0 .2.3 4.3 3.5 4.6 1 .1 1.7-.2 2.3-.7 1.1-1 1.1-2.7 1.1-2.7h1c0 .1 0 2.2-1.4 3.5-.8.6-1.7.9-2.7.9z" style="fill:#ef7937"/><g style="opacity:.65"><path d="M57.5 90.1v-.2.2zm-.1-.6v.7-.6.2-.1c0-.3 0-.3-.1-.1.1 0 .1-.1.1-.1zm-1.3-.6zm-.9-.2zm-.2-.3c.1 0 .1 0 0 0 .1 0 0-.1 0 0zm1.1.5v-.1c-.1.1-.1.1 0 .1zm1.1 1.3s.1 0 0 0c.1 0 0 0 0 0zm-.8-1.5v-.1.1zm.3-.1v.4-.4zm.5.5zm-1-.5v-.1.1zm-8.2 2zm-.3-1.4V89v.2zm7.1-1.2zm-2.5.2v.6-.6zm4.9 2zm-4.9-1.4zm1.9-.6v.1-.1zm.4.4zm-.7 0c0-.1 0-.1 0 0 0-.1 0-.1 0 0zm-.2 0zm-4.9 1.9v-.3c0 .2-.1.3 0 .3zm8.4-.4v.1-.1zm-3.3.7zm-3.3-.3zm3.1.3v-.2.2zm-4.9-.6z" style="fill:#fff"/><path d="M48.5 90.9v-.6.5c0-.1.1-.4.1-.4v.2c0-.3.1 0 .1-.4v.1-.5s0-.2 0 0v.2-.1.4c0-.1.1-.4.1-.3 0 .3-.1.1 0 .4v-.1.5c.1.1.1-.2.1-.1v-.5c.1-.3.1.9.1.4 0-.2 0-.7.1-.4v.4c.1 0 0-.6.1-.3v.2c0 .3 0-.2.1-.2v.3c.1-.1.1-.3.2-.4v.3c.1-.2.2 0 .2.2v-.3.2-.3.3c.1-.2.2-.5.2-.2v.1c0 .1.1-.6.1-.3v.1c.1.1.2-.1.3.3 0-.4.1.2.1-.4 0 .3 0 .4.1.6 0 0 0-.4.1-.4v.3-.3.4-.3c0-.1.1.2.1.4l.1-.3v.2c0-.3 0 .3 0 0v-.2c0 .2.1.2.1.1v.2c.1.1.1-.1.2-.1v-.5.3-.4.5-.1.3c0-.2.1.3.1 0v.1c.1 0 .1-.1.2-.1v-.4c0 .1.1.3.1.3v-.4c0 .3.1.2 0 .4.1 0 .1-.1.2-.3v-.2.2c.1-.4.2.7.3.2l.1-.3v.4c.1-.4.1.1.2-.2 0 .8.2-.1.2.4v-.2.1-.3c.1-.2.3.3.4.4.1 0 0-.9.1-.5v.3c.1-.4.2 0 .3-.3v.2c0 .2.1 0 .1-.2v.3c0 .1.1-.3.1-.1v.1c0-.1.1 0 .1-.2 0 .1.1-.1.1 0 0-.3.1.1.1-.3 0 .5.1.4.1.2v.3s.1-.1.1-.3c0 .5.1-.4.1.3.1-.2.2-.4.3-.5 0 .5-.1 0-.1.5.1-.2.1-.6.2-.5v.3c.1-.2.1 0 .2-.2v.1-.1.1c0-.3.1-.6.1-.8 0 .6.1.1 0 .9v-.3.3c0-.1 0-.3.1-.3v.3c0-.2 0-.4.1-.3v.1c.1 0 .1-.5.2-.3v.5-.3s.1-.3.1-.1v.2l.1-.1v-.5.2c0-.1 0-.2.1-.2v.5c0-.3.1-.1.1-.4v.3-.3.3-.3.1c.1.1.1-.2.1 0v.4c.1-.1.1-.4.2-.4 0-.5 0 .3.1 0v.2c0 .1.1-.1.2-.3v.1c0 .1.1.1.1.1v-.3c.1.8.2-.4.3.2v.1l.1-.1v-.5.5-.2c0 .4 0-.5.1-.2v.1c0-.1 0-.2.1-.2v.3s.1-.5.1-.2v.5-.1c0-.7.1-.1.1-.6v.9c0-.2 0 .2.1-.2v.3-.3c0-.3.1.4.2-.1.1-.2.1-.5.1-.7v.4c0 .1 0 .1.1 0v.3-.2.4c0-.1.1-.3.1-.4v.4c0-.1.1-.2.1-.4v-.1.3-.3c0-.6-.1.1-.1.1v-.4.3-.6.1-.2c0-.2-.1.3-.1 0-.1.1 0 .3-.1.7v-.8.3-.2.3c0-.3-.1.1-.1-.4v.3c0-.5 0 .1-.1-.2v-.4c0 .5-.1-.1-.1 0 0 .4-.1.2-.1.3 0-.1-.1-.2-.1-.3v-.1c0 .4 0 .3-.1.4v-.4.2-.3s-.1.3-.1.1v.9-.4.1-.2.2-.3s0 .1 0 0v-.3.3-.3.3-.2c0 .1-.1 0-.1.4-.1.3-.1-.2-.2 0v-.1c0 .1-.1.1-.1.3v-.3c0 .1 0 .2-.1 0v-.1c0-.1 0-.2-.1 0v-.2.2h-.1v-.3c-.1-.4-.1.7-.2 0v.4l-.1-.5c0-.2 0 .5-.1.4v.5-.6.1-.2.1c0-.1-.1-.1 0-.3v.3c0-.2-.1 0-.1-.1v.2c-.1-.1 0 .2-.1.3v-.7c0 .2-.1-.2-.1-.2v-.1.3-.1.6c0-.1-.1.1-.1-.2.1.1 0-.3 0-.4v-.1c0-.3 0 .4-.1.3v-.3.4c0-.1 0 .1-.1.1v.3-.2c0 .3-.1-.3-.1-.1v-.4c0 .2 0-.2-.1-.1v.4l.1-.2v.3s0-.1.1-.1v.3c0-.4-.1.2-.1 0v-.6c0-.3-.1.3-.2.2v.1c0 .2 0 0-.1.1v-.4c0 .1 0 0-.1.4v-.3c-.6-.1-.6.6-.6.5v-.5.1c0-.1 0 .3-.1.1v.3-.1.4c0-.6-.1 0-.2-.5 0 .1-.1.1-.1.1v-.1c0-.2 0 .6-.1.4v-.3c0-.6-.1.1-.1-.3 0-.2-.1.2-.1.2v-.1c0 .3-.1.4-.1.5v-.4.5-.5c0-.4 0 0-.1-.1v-.2c-.1 0-.1.4-.1.4v.1c0 .4 0-.2-.1.1v-.4c0 .1-.1.4-.1.5 0-.3.1-.4.1-.6 0 0-.1 0-.1.2v-.1c0 .3-.1.5-.1.5 0-.8-.1-.2-.1-.8-.1.3-.1-.1-.2-.1v.6l-.1-.4v-.7.5c-.1.3 0-.5-.1-.2v-.2c0 .1-.1 0-.2.5V88c-.1-.1-.2.5-.2.2v-.1.1-.2c0 .1 0 .3-.1.2V88c-.1-.2-.1.4-.2.5 0-.4-.1-.6-.1-.7v-.1c-.1-.1-.2.4-.2.5 0-.5-.2-.2-.2-.5v.4c0-.1-.1.3 0-.1 0-.4 0-.3-.1-.3v.5c-.1-.8-.2.3-.2-.4 0 .1 0 .1-.1.3v-.3c-.1-.1-.1-.1-.1 0v-.2l-.1.8V88c-.1 0-.1-.4-.2 0v-.2s-.1-.3-.1.3c0-.4-.1 0-.1.1v-.3c0 .4 0 .5-.1.6v-.2c0-.1 0 .3-.1.1v-.2s0 .1-.1.3c0 .1-.1-.1-.1-.3v.3-.2c-.1-.2-.1.3-.1 0v-.2h.1v-.7c0 .2-.1.6-.1.5v-.2c0-.2 0-.1-.1-.1v1.1c0-.4-.1-.6-.1-.8-.1.2-.1.1-.2.6v-.3c0 .1-.1.1-.1.4v-.4c-.1-.6-.2.9-.3.2v.1c-.1-.3-.3.3-.4-.2 0-.1 0 .1-.1.3v-.3.3c-.1.3-.1-.7-.2-.3v.2s-.1.1-.1-.1v.1-.2l-.1.7c0-.1 0-.6-.1-.7 0 .1-.1.5-.1.6v1.7-.3.2-.1.2-.4.5-.5.4c0-.1.1-.1.1-.3 0 .3.1-.1.1.4 0-.1 0-.3.1-.4 0 .5.1 0 .1.6 0-.5.1-.2.1-.5v.4c0-.4 0-.5.1-.7v.8c0-.3.1-.3 0-.6v.4-.4.3c.3.1.3.3.3.3zm.9-.8zm.1 0v-.2.2zm-.2-2c.1 0 .1 0 0 0v.1-.1zm0 .4s0 .1 0 0zm6.8.5zm-5.6 1.6v-.1.1zm6-.7c0 .1 0 .1 0 0 0 .1 0 .1 0 0z" style="fill:#fff"/><path d="M56.6 90v.1c.1-.1 0-.1 0-.1zm.2.1V90v.1zm-2.2.4zm.7-.7v.1c-.1.1 0 .1 0-.1zm-1.4 1zm1.3-.9c0 .1 0 .1 0 0zm2.2.4zm0-.1zm0-.1c0 .1 0 .1 0 0zm-.2 0v.1-.1zm-.1.1v.2-.2c.1.2 0-.2 0 0zm-.2-1.3s0-.2.1-.2c-.1-.3 0 .3-.1.2zm-.1-.1v-.2.2zm-1.1-.1v-.3.3zm-.2 1.4.1.1V90zm-.1-1.9v.1zm-1.7.1v.3-.3zm-.7.3v-.1c-.1 0 0 .2 0 .1zm-2.3-.5V88v.1z" style="fill:#fff"/></g><g style="opacity:.65"><path d="M80.1 90.1v-.2.2zm-.1-.6v.7-.6.2-.1c0-.3 0-.3-.1-.1.1 0 .1-.1.1-.1zm-1.4-.6zm-.8-.2zm-.2-.3s0-.1 0 0zm1 .5v-.1.1zm1.2 1.3zm-.8-1.5v-.1.1zm.3-.1v.4-.4zm.5.5zm-1-.5v-.1.1zm-8.2 2zm-.3-1.4V89v.2zm7-1.2c.1 0 .1 0 0 0zm-2.4.2v.6-.6zm4.9 2zm-4.9-1.4zm1.8-.6v.1-.1zm.5.4zm-.7 0c0-.1 0-.1 0 0 0-.1 0-.1 0 0zm-.3 0zm-4.8 1.9v-.3c0 .2-.1.3 0 .3zm8.4-.4v.1-.1zm-3.4.7zm-3.2-.3zm3.1.3v-.2.2zm-4.9-.6z" style="fill:#fff"/><path d="M71.1 90.9v-.6.5c0-.1.1-.4.1-.4v.2c0-.3.1 0 .1-.4v.1-.5s0-.2 0 0v.2-.1.4c0-.1.1-.4.1-.3 0 .3-.1.1 0 .4v-.1.5c.1.1.1-.2.1-.1v-.5c.1-.3.1.9.1.4 0-.2 0-.7.1-.4v.4c.1 0 0-.6.1-.3v.2c0 .3 0-.2.1-.2v.3c.1-.1.1-.3.2-.4v.3c.1-.2.2 0 .2.2v-.3.2-.3.3c.1-.2.2-.5.2-.2v.1c0 .1.1-.6.1-.3v.1c.1.1.2-.1.3.3 0-.4.1.2.1-.4 0 .3 0 .4.1.6 0 0 0-.4.1-.4v.3-.3.4-.3c0-.1.1.2.1.4l.1-.3v.2c0-.3 0 .3 0 0v-.2c0 .2.1.2.1.1v.2c.1.1.1-.1.2-.1v-.5.3-.4.5-.1.3c0-.2.1.3.1 0v.1c.1 0 .1-.1.2-.1v-.4c0 .1.1.3.1.3v-.4c0 .3.1.2 0 .4.1 0 .1-.1.2-.3v-.2.2c.1-.4.2.7.3.2l.1-.3v.4c.1-.4.1.1.2-.2 0 .8.2-.1.2.4v-.2.1-.3c.1-.2.3.3.4.4.1 0 0-.9.1-.5v.3c.1-.4.2 0 .3-.3v.2c0 .2.1 0 .1-.2v.3c0 .1.1-.3.1-.1v.1c0-.1.1 0 .1-.2 0 .1.1-.1.1 0 0-.3.1.1.1-.3 0 .5.1.4.1.2v.3s.1-.1.1-.3c0 .5.1-.4.1.3.1-.2.2-.4.3-.5 0 .5-.1 0-.1.5.1-.2.1-.6.2-.5v.3c.1-.2.1 0 .2-.2v.1-.1.1c0-.3.1-.6.1-.8 0 .6.1.1 0 .9v-.3.3c0-.1 0-.3.1-.3v.3c0-.2 0-.4.1-.3v.1c.1 0 .1-.5.2-.3v.5-.3s.1-.3.1-.1v.2l.1-.1v-.5.2c0-.1 0-.2.1-.2v.5c0-.3.1-.1.1-.4v.3-.3.3-.3.1c.1.1.1-.2.1 0v.4c.1-.1.1-.4.2-.4 0-.5 0 .3.1 0v.2c0 .1.1-.1.2-.3v.1c0 .1.1.1.1.1v-.3c.1.8.2-.4.3.2v.1L79 90v-.5.5-.2c0 .4 0-.5.1-.2v.1c0-.1 0-.2.1-.2v.3s.1-.5.1-.2v.5-.1c0-.7.1-.1.1-.6v.9c0-.2 0 .2.1-.2v.3-.3c0-.3.1.4.2-.1.1-.2.1-.5.1-.7v.4c0 .1 0 .1.1 0v.3-.2.4c0-.1.1-.3.1-.4v.4c0-.1.1-.2.1-.4v-.1.3-.3c0-.6-.1.1-.1.1v-.4.3-.6.1-.2c0-.2-.1.3-.1 0-.1.1 0 .3-.1.7v-.8.3-.2.3c0-.3-.1.1-.1-.4v.3c0-.5 0 .1-.1-.2v-.4c0 .5-.1-.1-.1 0 0 .4-.1.2-.1.3 0-.1-.1-.2-.1-.3v-.1c0 .4 0 .3-.1.4v-.4.2-.3s-.1.3-.1.1v.9-.4.1-.2.2-.3s0 .1 0 0v-.3.3-.3.3-.2c0 .1-.1 0-.1.4-.1.3-.1-.2-.2 0v-.1c0 .1-.1.1-.1.3v-.3c0 .1 0 .2-.1 0v-.1c0-.1 0-.2-.1 0v-.2.2h-.1v-.3c-.3-.5-.4.5-.4-.1v.4l-.1-.5c0-.2 0 .5-.1.4v.5-.6.1-.2.1c0-.1-.1-.1 0-.3v.3c0-.2-.1 0-.1-.1v.2c-.1-.1 0 .2-.1.3v-.7c0 .2-.1-.2-.1-.2V88v.3-.1.6c0-.1-.1.1-.1-.2.1.1 0-.3 0-.4v-.1c0-.3 0 .4-.1.3v-.3.4c0-.1 0 .1-.1.1v.3-.2c0 .3-.1-.3-.1-.1v-.4c0 .2 0-.2-.1-.1v.4l.1-.2v.3s0-.1.1-.1v.3c0-.4-.1.2-.1 0v-.6c0-.3-.1.3-.2.2v.1c0 .2 0 0-.1.1v-.4c0 .1 0 0-.1.4v-.3c-.1-.1-.1.6-.1.5v-.5.1c0-.1 0 .3-.1.1v.3-.1.4c0-.6-.1 0-.2-.5 0 .1-.1.1-.1.1v-.1c0-.2 0 .6-.1.4v-.3c0-.6-.1.1-.1-.3 0-.2-.1.2-.1.2v-.1c0 .3-.1.4-.1.5v-.4.5-.5c0-.4 0 0-.1-.1v-.2c-.1.1-.1.4-.1.4v.1c0 .4 0-.2-.1.1v-.4c0 .1-.1.4-.1.5 0-.3.1-.4.1-.6 0 0-.1 0-.1.2v-.1c0 .3-.1.5-.1.5 0-.8-.1-.2-.1-.8-.1.3-.1-.1-.2-.1v.6l-.1-.4v-.7.5c-.1.3 0-.5-.1-.2v-.2c0 .1-.1 0-.2.5v-.3c-.1-.1-.2.5-.2.2V88v.1-.2c0 .1 0 .3-.1.2v-.2c-.1-.2-.1.4-.2.5-.1-.2-.1-.4-.1-.4v-.1c-.1-.1-.2.4-.2.5 0-.5-.2-.2-.2-.5v.4c0-.1-.1.3 0-.1 0-.4 0-.3-.1-.3v.5c-.1-.8-.2.3-.2-.4 0 .1 0 .1-.1.3V88c-.1-.1-.1-.1-.1 0v-.2l-.1.8v-.4c-.1 0-.1-.4-.2 0V88s-.1-.3-.1.3c0-.4-.1 0-.1.1v-.3c0 .4 0 .5-.1.6v-.2c0-.1 0 .3-.1.1v-.2s0 .1-.1.3c0 .1-.1-.1-.1-.3v.3-.2c-.1-.2-.1.3-.1 0v-.2h.1v-.7c0 .2-.1.6-.1.5v-.2c0-.2 0-.1-.1-.1v1.1c0-.4-.1-.6-.1-.8-.1.2-.1.1-.2.6v-.3c0 .1-.1.1-.1.4v-.4c-.1-.6-.2.9-.3.2v.1c-.1-.3-.3.3-.4-.2 0-.1 0 .1-.1.3v-.3.3c-.1.3-.1-.7-.2-.3v.2s-.1.1-.1-.1v.1-.2l-.1.5c0-.1 0-.6-.1-.7 0 .1-.1.5-.1.6v1.7-.3.2-.1.2-.4.5-.5.4c0-.1.1-.1.1-.3 0 .3.1-.1.1.4 0-.1 0-.3.1-.4 0 .5.1 0 .1.6 0-.5.1-.2.1-.5v.4c0-.4 0-.5.1-.7v.8c0-.3.1-.3 0-.6v.4-.4.3c.3.1.3.3.3.3zm.9-.8zm.1 0c-.1 0-.1 0 0 0v-.2c-.1 0-.1.1 0 .2zm-.2-2v.1-.1zm0 .4s0 .1 0 0zm6.7.5zm-5.5 1.6v-.1.1zm5.9-.7c0 .1 0 .1 0 0 0 .1 0 .1 0 0zm.2.1v.1-.1zm.1.1V90v.1zm-2.1.4zm.6-.7v.1-.1zm-1.3 1h-.1zm1.3-.9c0 .1 0 .1 0 0zm2.1.4zm0-.1zm.1-.1c0 .1 0 .1 0 0zm-.2 0v.1-.1zm-.1.1v.2-.2c0 .2 0-.2 0 0z" style="fill:#fff"/><path d="M79.5 88.9s0-.2.1-.2c-.1-.3-.1.3-.1.2zm-.2-.1v-.2.2zm-1-.1v-.3.3zm-.2 1.4v.1-.2zm-.1-1.9v.1zm-1.7.1v.3-.3zm-.8.3v-.1.1zm-2.2-.5V88v.1z" style="fill:#fff"/></g><g style="opacity:.65"><path d="M91.8 57.3s0-.1-.1-.1l.1.1zm-.3-.3v.4-.4c.1.1.1.1.1.2 0 0 .1 0 .1-.1-.1-.1-.1-.1-.2 0V57zm-3.4.4c.1 0 0 0 0 0zm-2 0zm-.3-.2zm2.3.2zm3 .1zm-2.1-.4zm.7-.1v.2-.2c0 .1 0 .1 0 0zm1.1 0zm-2.3.2zm-16.3-8.4zm.3-1 .1-.1zM85.1 57c.1 0 .1 0 0 0zm-5.4-1.5c0 .1-.2.1-.1.3 0-.1.1-.2.1-.3zm11.4 2zm-11.6-1.8v.1zm4.2 1.2zm1.1.3c-.1 0-.1 0 0 0zm-1.7-.3zm-.5-.1zM73 50.5c.1-.1.1-.1 0 0 .1-.1 0-.1 0 0zm18.1 7zm-8.2.5c-.1 0-.1 0 0 0zm-7.1-4c-.1 0-.1 0 0 0zm6.7 3.9v-.1c-.1 0-.1 0 0 .1zm-9.4-7.5z" style="fill:#fff"/><path d="M72.5 50c0 .1.2 0 .3-.1.1.1-.1.1-.2.2.1 0 .3 0 .3.1h-.1c.2 0 .1.2.3.2.1-.1.2-.1.2-.1s.1 0 0 .1h-.1.1c-.1.1-.1 0-.2 0 .1 0 .3.1.2.1-.1.1-.1-.1-.2 0v-.1c-.2.2 0-.1-.2.1 0 .1.1.1.2.2.1 0 .1-.1.2-.1.2.1-.3.3 0 .3.1 0 .3-.1.3 0l-.2.1c.1.1.3-.1.2.1-.1 0-.1-.1-.1 0-.1.2.1 0 .2.1l-.1.1c.1.1.3.2.4.3 0 0-.1 0-.1.1.2.1.2.4.3.6h.2s0 .1-.1.1c0 .1.1-.1.1-.1s0 .1-.1.1c.2 0 .4.1.4.3h-.1c0 .1.3-.1.3.1.1.2.4.3.3.6.2-.1.1.2.3 0 0 .2-.1.2 0 .4l.2-.1-.1.1.2-.1-.1.3h.1v-.1c.1 0 .1.2 0 .3.1 0 .2 0 .2.1h-.1c.2 0-.1.1.1.1l.1-.1c0 .1.1.2.2.2l-.1.1c.1.1.3.2.4.3 0-.1.1-.2.2-.2l-.1.1c.1-.1 0-.1.1-.1 0 .1-.1.2-.1.2h.1s-.1 0-.1.1c.1-.1 0 .2.1.1.1.1.2.1.4.2.1-.1.1-.1.2-.1.1.1.1.3.2.3s.1-.1.2-.1c-.1.1 0 .2-.1.2.1.1.2.1.4.1v-.1.1c.3 0 .2.6.5.4h.2c.1.1-.1.1-.1.2.3-.1.3.2.5.1-.1.4.4.2.4.5v-.1c.1-.1 0 .1 0 .1v-.1c.4 0 .6.4 1 .7.1.1.2-.4.3-.1l-.1.1c.3-.1.5.2.8.1 0 0 0 .1-.1.1 0 .1.2.1.2 0v.1c0 .1.2-.1.2 0 .1 0 .2.1.2-.1.1.1.2 0 .3.1.1-.1.2.1.2-.1-.1.2.1.2.2.1v.2c.1 0 .1 0 .2-.1.1.3.3-.2.3.2.2-.1.4-.1.6-.1 0 .2-.2 0-.2.2.2-.1.3-.2.5-.2 0 0 0 .1-.1.1.2-.1.4.1.5 0v.1s.1 0 .1-.1c0-.2.2-.3.2-.4-.1.3.2.1 0 .5l.1-.1v.1c.1 0 .1-.2.2-.1v.1c.1-.1.1-.2.2-.1v.1c.2 0 .3-.2.4-.2-.1.2.1.1.1.3l.1-.1v-.1c.1 0 .2-.1.2-.1l-.2.1h.1V58c.1-.1 0-.2.1-.2 0 0 .1 0 .1.1 0-.1.1-.1.1-.1v.2c0-.2.2 0 .2-.2v.2-.1.1c.1 0 0-.2.1-.1s.2-.1.4 0c0 .2-.1.1-.1.2.2 0 .3-.2.5-.2 0-.3.1.1.2 0v.1c.1 0 .2-.1.4-.2v.1c.1.1.2 0 .3 0 0-.1.1-.1 0-.2.3.4.4-.3.6 0v.1l.2-.1c0-.1 0-.1-.1-.1 0-.1 0-.1.1-.1-.1.1 0 .2.1.2v-.1c.1.2 0-.2.1-.1v.1l.1-.1v.2c.1 0 .1-.3.2-.1 0 0-.1 0-.1.1l.1.1.1.1c0-.4.2-.1.2-.3-.1.2 0 .1 0 .3l.1.1c0-.1.1.1.1-.1 0 0 .1 0 .1.1.1-.1 0-.1 0-.1.1-.2.3.1.4-.1.1-.1.1-.3.2-.4.1.1 0 .2 0 .2.1.1.1 0 .2 0 0 0 0 .1.1.1 0 0 0-.2.1-.1v.2c0-.1.1-.2.1-.2v.2c.1-.1.2-.1.1-.3h-.1v.1c0 .1-.1 0-.1-.1-.1-.3-.2.1-.3.1v-.2.2s-.1-.2 0-.2c-.1-.1 0 .1-.1 0v.1-.1c-.1-.1-.1.2-.2 0-.1.1 0 .2-.1.4l-.2-.8v.2l-.1-.1v.2c-.1-.1-.2.1-.3-.1 0 .1.1.1 0 .2-.1-.3-.1.1-.2 0 0-.1.1-.1 0-.2 0 .2-.1 0-.2 0 0 .2-.1.1-.2.2 0-.1-.2-.1-.3-.1 0 .2-.1.2-.1.2v-.2h-.1c0 .1 0 .1-.1.1v-.1c-.1 0-.1.2-.3.1 0 .1.1.3 0 .4v-.2s0 .1-.1 0v-.1c-.1 0 0 .1-.1.1v-.1l-.1-.1v.1c-.1 0 0-.1-.1-.2 0 .1-.1 0-.1.2 0 0 0-.1-.1-.1 0 .1-.2 0-.1.2-.1.2-.3-.1-.4 0-.1.1-.2 0-.2.2l-.1-.1c-.1 0-.1.1-.2 0 .1-.1 0-.1.1-.1-.1 0-.1-.1-.2 0 0-.1-.1-.2-.1-.1l.1.1h-.1v-.2c-.2-.2-.3.4-.4 0 0 .1.1.1.1.2-.1 0-.2-.3-.2-.3-.1-.1-.1.2-.2.2 0 .1 0 .2-.1.3-.1 0-.1-.3 0-.3 0 0 .1 0 0-.1v.1c0-.1-.1-.1-.1-.2-.1.1 0 .1 0 .1-.1-.1-.2 0-.3-.1v.1c-.1-.1-.1.1-.2.1-.1-.1 0-.2-.1-.1-.1-.1 0-.2 0-.2-.1.1-.2-.1-.2-.1h.1-.1v.1s-.1 0 0-.1c0 .1 0 .2-.1.3 0-.1-.1 0-.1-.1.1.1 0-.2.1-.2h-.1c-.1-.2-.1.2-.2.2v-.2.2c-.1-.1-.1 0-.1 0 0 .1-.1.1-.1.1 0-.1.1 0 0-.1-.1.1-.1-.2-.2-.1V57c-.1.1-.1-.1-.2-.1 0 .1 0 .1-.1.2l.2-.1-.1.2s.1-.1.1 0c-.1.1-.1.1 0 .2 0-.2-.1.1-.2 0v-.3c-.1-.1-.2.1-.4 0v.1c0 .1-.1 0-.2 0V57c0 .1-.1 0-.2.2v-.1c-.1-.1-.2.2-.3.2.1-.1 0-.2.1-.2h-.1c0-.1-.1.1-.2 0l-.1.1s-.1 0-.1.2c0-.3-.3-.1-.4-.3h-.3c-.1-.1-.1.3-.2.1 0-.2.1-.1.1-.1.1-.3-.2 0-.2-.2 0-.1-.2.1-.3 0-.1.1-.3.1-.4.2.1-.1.1 0 .1-.2 0 0-.1.2-.2.2v-.3h.1c0-.2-.1 0-.1-.1v-.1c-.1 0-.2.2-.3.1v.1c-.1.1 0-.1-.1 0l.1-.2c-.1 0-.2.1-.3.1.1-.1.2-.1.3-.2 0 0-.2-.1-.2 0h.1c-.1.1-.2.2-.3.1.2-.3-.2-.2-.1-.5-.2.1-.3-.2-.5-.3-.1.3-.1 0-.2.3H79v-.2c0-.1.1 0 .1-.1-.1-.1 0-.1 0-.2 0 .1-.1.1-.1.1v.2c-.2.1 0-.3-.2-.2l.1-.1c-.1 0-.2-.1-.4 0 0 0 0-.1.1-.1-.1-.1-.5 0-.5-.2l.1-.1s-.1.1-.1 0c0 0 .1-.1 0-.1 0 0-.1.1-.2 0h.1c-.1-.2-.3 0-.5 0 .1-.2.1-.3 0-.4-.1-.1-.4-.1-.6-.1.1-.3-.2-.3-.3-.6 0 0-.1.1-.2.1 0-.1-.2 0-.1-.1.1-.2 0-.2 0-.2l-.2.2c.1-.4-.4-.2-.3-.6h-.2l.1-.1c-.1-.1-.1-.2-.2-.3h.1c-.1-.1-.4.2-.4.1l.1-.2c-.1-.1-.1-.3-.3-.3 0 0 .1-.1.1 0 0-.1-.1-.3-.3-.1.1-.1-.1-.1-.2-.1l.1-.1c-.2.1-.2.1-.3 0 0 0 .1-.1.1 0 0-.1-.1 0-.1-.1h.1c0-.1-.1 0-.2 0s-.1-.1 0-.2c-.1 0-.2.1-.2 0h.1c0-.2-.2-.1-.2-.2 0 0 .1 0 .1-.1.1.1.1.2.1.2.1-.1.1-.2.3-.2-.1 0-.3 0-.3-.1v-.1c.1-.1 0-.1 0-.1-.1.1-.1 0-.2.1l.1.1c-.1 0-.1 0-.1-.1-.1 0-.2.1-.2.1.1-.2.2-.3.3-.4-.1-.1-.2-.2-.5-.1 0 0 0-.1.1-.1h.1c-.1 0-.1-.2-.3-.1 0-.1.2 0 .1-.1h.1c.1-.4-.6-.1-.4-.5v.1c0-.4-.5-.5-.3-.9 0-.1-.1-.1-.2-.1l.1-.1h-.2c-.2-.1.3-.4 0-.4l-.1.1c0-.1-.1-.2 0-.2h-.1.1l.1-.8c0-.1.3-.1.2-.3-.1 0-.3-.1-.3 0 0 0 0 .1-.1.1h-.1c-.2.1-.5.1-.6.3h.2v.1-.1c-.1.1 0 .1.1.1-.1 0-.1.1-.1.1h.2c-.1 0-.2 0-.2.1.1 0 .2-.1.3-.1-.1.1-.2.1-.1.1h-.1c.1 0 .1.1.2.1-.1.1.1.1-.1.2.1 0 .2 0 .2.1-.3 0 .1.2-.2.3.2 0 .2.2.3.2h-.1c0 .1-.1.1-.1.2.2-.1.3 0 .4 0-.1.1-.2.1-.4.2.1-.1.2 0 .3 0-.1.1 0 .1-.2.2.2-.1.1 0 .2 0-.1.1-.2.1-.1.2.2-.1 0-.1 0-.1zm1.5 1.6zm.1.2s0-.1 0 0c0-.1 0-.1.1-.1l-.1.1zm.6-.9c.1 0 0 0 0 0 0 .1 0 0 0 0zm-.1.1s-.1 0 0 0c-.1 0-.1 0 0 0zm13.6 6.4zm-12.6-3.5zm13.6 3.9zm.4-.1c.1 0 .1 0 0 0zm.4 0z" style="fill:#fff"/><path d="M84.7 58.1c-.1.1-.1.1 0 0zm1.6-.2s-.1.1 0 0c-.1.1 0 .1 0 0zm-3.4.1zm3.2 0c.1 0 .1 0 0 0 .1 0 .1 0 0 0zm5.3-.5zm0 0c0-.1 0-.1 0 0zm.1-.1c-.1 0 0 0 0 0zm-.5.1c0 .1 0 0 0 0zm-.2.1s.1.1.1 0c.1.1-.1-.1-.1 0zm-.6-.5h.1s-.1-.1 0-.1c-.2-.2 0 .1-.1.1zm-.4 0c.1 0 0-.1 0-.1v.1zm-2.4.3v-.1.1zm-.4.6v.1-.1zm-.3-.9-.1.1zm-4-.4v.2c0-.1.1-.2 0-.2zm-1.7-.4c0-.1 0-.1 0 0zm-4.2-3z" style="fill:#fff"/></g><g style="opacity:.65"><path d="m94.1 52-.1-.1.1.1zm-.4-.2c0 .1 0 .2.1.4 0-.2 0-.1-.1-.4.1 0 .1.1.2.2 0 0 .1 0 0-.1s-.1-.1-.2 0c.1 0 0-.1 0-.1zm-3.3.6c.1 0 .1 0 0 0zm-2 0zm-.3-.1zm2.3.1zm3-.1s.1 0 0 0zm-2.1-.2zm.7-.2v.2-.2c0 .1 0 .1 0 0zm1.1-.1zm-2.3.4zm-16.4-8.7zm.4-1zM87.4 52c.1 0 .1 0 0 0zM82 50.3c0 .1-.2.1-.2.3.1-.1.2-.1.2-.3zm11.4 2zm-11.5-1.7zm4.1 1.3zm1 .4zm-1.6-.3c0-.1 0-.1 0 0 0-.1 0-.1 0 0zm-.5-.2zm-9.6-6.6c.1 0 .1-.1 0 0 .1 0 0-.1 0 0zm18.1 7.1zm-8.3.7zm-7-4.2zm6.6 4.1v-.1.1zm-9.3-7.8z" style="fill:#fff"/><path d="M74.8 44.7c0 .1.2 0 .3-.1.1.1-.1.1-.2.2.1 0 .3 0 .3.1h-.1c.2 0 .1.2.3.2.1-.1.2-.1.2-.1s.1 0 0 .1h-.1.1c-.1.1-.1 0-.2 0 .1 0 .3.1.3.1-.1.1-.1-.1-.2 0v-.1c-.2.2 0-.1-.2.1 0 .1.1.1.2.2.1 0 .1-.1.2-.1.2.1-.3.3 0 .3.1 0 .3-.1.3 0l-.2.1c0 .3.2.1.2.3-.1 0-.1-.1-.1 0-.1.2.1 0 .2 0l-.1.1c.1.1.3.2.4.3 0 0-.1 0-.1.1.2.1.2.4.3.6h.2s0 .1-.1.1c0 .1.1-.1.1-.1s0 .1-.1.1c.2 0 .4.1.4.3H77c0 .1.3-.1.3.1.1.2.3.3.3.6.2-.1.1.2.3 0 0 .2-.1.2 0 .4l.2-.1-.1.1.2-.1-.2.2h.1v-.1c.1 0 .1.2 0 .3l.2.1h-.1c.2 0-.1.1.1.1l.1-.1c0 .1.1.2.2.2l-.1.1c.1.1.3.2.4.3 0-.1.1-.2.2-.2l-.1.2c.1-.1 0-.1.1-.1 0 .1-.1.2-.2.2h.1s-.1 0-.1.1c.1-.1 0 .2.2.1.1.1.2.1.3.2.1-.1.1 0 .2-.1.1.1.1.3.2.3s.1-.1.2-.1c-.1.1 0 .2-.1.2.1.1.2.1.4.1v-.1.1c.3 0 .2.6.5.5h.2c.1.1-.1.1-.1.2.3-.1.3.2.5.1-.1.4.4.2.4.5v-.1c.1-.1 0 .1 0 .1v-.1c.4.1.6.4.9.7.1.1.3-.4.3-.1l-.1.1c.3-.1.5.2.8.1 0 0 0 .1-.1.1 0 .1.2.1.2 0v.1c0 .1.2-.1.2 0 .1 0 .2.1.2-.1.1.1.2 0 .3.1.1-.1.1.1.2-.1-.1.2.1.2.2.1v.2c.1 0 .2 0 .2-.1.1.3.3-.2.3.2.2-.1.5-.1.7-.1 0 .2-.2 0-.3.2.2-.1.3-.2.5-.1 0 0 0 .1-.1.1.2-.1.4.1.5 0v.1s.1 0 .1-.1c0-.2.2-.3.2-.4-.1.3.2.1 0 .5l.1-.1v.1c.1 0 .1-.2.2-.1v.1c.1-.1.1-.2.2-.1v.1c.2 0 .3-.2.4-.1-.1.2.1.1.1.3l.1-.1v-.1c.1 0 .2-.1.2-.1l-.1.1h.1l-.1-.1c.1-.1 0-.2.1-.2 0 0 .1 0 .1.1 0-.1.1-.1.1-.1v.2c0-.2.2 0 .2-.2v.2-.1.1c.1 0 0-.2.1-.1s.2-.1.4 0c0 .2-.1 0-.1.2.2 0 .3-.3.5-.2 0-.3.1.1.2 0v.1c.1 0 .2-.1.4-.2v.1c.1.1.2 0 .3 0 0-.1.1-.1 0-.2.3.4.4-.3.6 0v.1l.2-.1c0-.1 0-.1-.1-.1 0-.1 0-.1.1-.1-.1.1 0 .2.1.2v-.1c.1.2 0-.2.1-.1v.1l.1-.1c.1.1 0 .1 0 .2.1 0 .1-.3.2-.2l-.1.1c.1.1.1.1.2.1h.1c0-.4.2-.1.2-.3v.3l.1.1c0-.1.1.1.1-.1 0 0 .1 0 .1.1.1-.1 0-.1-.1-.1.1-.2.3.1.4-.2.1-.1.1-.3.2-.4.1.1 0 .2 0 .2.1 0 .1 0 .2-.1 0 0 0 .1.1.1 0 0 0-.2.1-.1v.2c0-.1.1-.2.1-.2v.2c.1-.1.1-.1.1-.3h-.1s.1.1 0 .1c0 .1-.1 0-.1-.1-.1-.3-.2.1-.2.1v-.2.2s-.1-.1-.1-.2c-.1-.1 0 .1-.1 0v.1s-.1-.1 0-.1c-.1-.1-.1.2-.2.1-.1.1 0 .1 0 .4l-.2-.3v.2l-.1-.1v.2c-.1-.1-.2.1-.3-.1 0 .1.1.1 0 .2-.1-.2-.1.1-.2 0 0-.1.1-.1 0-.2 0 .2-.1 0-.2 0 0 .2-.1.1-.2.2 0-.1-.2-.1-.3-.1 0 .2-.1.2-.1.2v-.2h-.1c0 .1 0 .1-.1.1v-.1c-.1 0-.1.2-.3.1 0 .1.2.3.1.4v-.2s0 .1 0 0v-.1c-.1 0 0 .1 0 .1v-.1l-.1-.1v.1c-.1 0 0-.1-.1-.2 0 .1-.1 0-.1.2 0 0 0-.1-.1-.1 0 .1-.2 0-.1.2-.1.2-.3 0-.4 0-.1.1-.2.1-.2.2l-.1-.1c-.1 0-.1.1-.2 0 .1-.1 0-.1.1-.1-.1 0-.1-.1-.2 0 0-.1-.1-.2-.1-.1l.1.1h-.1v-.2c-.2-.2-.3.3-.4 0 0 .1.1.1.1.2-.1 0-.2-.3-.2-.3-.1-.1-.1.2-.2.2 0 .1 0 .2-.1.3-.1 0-.1-.2 0-.3 0 0 .1 0 0-.1v.1c0-.1-.1-.1-.1-.2-.1.1 0 .1 0 .1-.1-.1-.2 0-.3-.1v.1c-.1-.1-.1.1-.2.1-.1-.1 0-.2-.1-.1-.1-.1 0-.2 0-.2-.1.1-.2-.1-.2-.1h.1-.1v.1s-.1 0 0-.1c0 .1 0 .2-.1.3 0-.1-.1.1-.1-.1.1.1 0-.2.1-.2h-.1c-.1-.2-.1.2-.2.2v-.2.2c-.1-.1-.1 0-.1 0 0 .1-.1.1-.1.1 0-.1.1 0 0-.1-.1.1-.1-.2-.2-.1v-.2c-.1.1-.1-.1-.2 0 0 .1 0 .1-.1.2.1 0 .1 0 .2-.1l-.1.2s.1-.1.1 0c-.1.1-.1.1 0 .2 0-.2-.2.1-.2 0l.1-.3c-.1-.2-.2.1-.4 0v.1c0 .1-.1 0-.2 0v-.2c0 .1-.1 0-.2.2v-.1c-.1-.1-.2.2-.3.2.1-.1 0-.2.1-.2h-.1c0-.1-.1.1-.2 0l-.1.1s-.1 0-.1.2c0-.3-.3-.1-.4-.4h-.3c-.1-.1-.2.2-.2.1 0-.2.1-.1.1-.1.1-.3-.2 0-.2-.2 0-.1-.2.1-.3 0-.1.1-.3.1-.4.1.1-.1.1 0 .1-.2 0 0-.1.2-.2.2V52h.1c0-.2-.1 0-.1-.1v-.1c-.1 0-.2.1-.3.1v.1c-.1.1 0-.1-.1 0l.1-.2c-.1 0-.2.1-.3.1.1-.1.2-.1.3-.2 0 0-.2-.1-.2 0h.1c-.1.1-.2.1-.3.1.2-.3-.2-.2-.1-.5-.2 0-.3-.2-.5-.3-.1.3-.1 0-.2.2h-.1V51c0-.1.1 0 .1-.1-.1-.1 0-.1 0-.2 0 .1-.1.1-.1.1v.2c-.2.1 0-.3-.2-.2l.1-.1c-.1 0-.2-.1-.4 0 0 0 0-.1.1-.1-.1-.1-.5 0-.5-.2l.1-.1s-.1.1-.1 0c0 0 .1-.1 0-.1 0 0-.1.1-.2 0h.1c-.1-.2-.3 0-.5 0 .1-.2.1-.3 0-.4-.1-.2-.4-.1-.6-.1.1-.3-.2-.3-.3-.6 0 0-.1.1-.2.1 0-.1-.2 0-.1-.1.1-.2 0-.2 0-.2l.1-.6c.1-.4-.4-.3-.3-.6h-.2l.1-.1c-.1-.1-.1-.2-.2-.3h.1c-.1-.1-.4.2-.4.1l.1-.2s0-.2-.2-.2c0 0 .1-.1.1 0 0-.1-.1-.3-.3-.1.1-.1-.1-.1-.2-.1l.1-.1c-.2.1-.2.1-.3 0 0 0 .1-.1.1 0 0-.1-.1 0-.1-.1h.1c0-.1-.1 0-.2 0s-.1-.1 0-.2c-.1 0-.2.1-.2 0h.1c0-.2-.2-.1-.2-.2 0 0 .1 0 .1-.1.1.1.1.2.1.2.1-.1.1-.2.3-.2-.1 0-.3 0-.3-.1v-.1c.1-.1 0-.1 0-.1-.1.1-.1 0-.2.1l.1.1c-.1 0-.1 0-.1-.1-.1 0-.2.1-.2.1.1-.2.2-.3.3-.4-.1-.1-.2-.2-.5-.1 0 0 0-.1.1-.1h.1c-.1 0-.1-.2-.3-.1 0-.1.2 0 .1-.1h.1c.1-.4-.6-.1-.4-.6v.1c0-.4-.5-.5-.3-.9 0-.1-.1-.1-.2-.1l.1-.1h-.2c-.2-.1.3-.4 0-.4l-.5-.2c0-.1-.1-.2 0-.2h-.1.1l-.2-.1c0-.1.3-.1.2-.3-.1 0-.3-.1-.3 0 0 0 0 .1-.1.1h-.1c-.2.1-.5.1-.6.3h.2l-.1.1v-.1c-.1.1 0 .1.1.1-.1 0-.1.1-.1.1h.2c-.1 0-.2 0-.2.1.1 0 .2-.1.3-.1-.1.1-.2.1-.1.1h-.1c.1 0 .1.1.2.1-.1.1.1.1-.1.2.1 0 .2 0 .2.1-.3 0 .1.2-.2.3.2 0 .2.2.3.2h-.1c0 .1-.1.1-.1.2.2-.1.3 0 .4 0-.1.2-.2.1-.4.2.1-.1.2 0 .3 0-.1.1 0 .1-.2.2.2-.1.1 0 .2 0-.1.1-.2.1-.1.2.3-.1.1-.1.1-.1zm1.5 1.7c0-.1 0 0 0 0zm.2.1c-.1 0-.1 0 0 0v-.1.1zm.5-.8c.1 0 .1 0 0 0zm-.1 0c-.1 0-.1 0 0 0zm13.6 6.7zm-12.6-3.7v-.1z" style="fill:#fff"/><path d="M91.5 52.7s0 .1 0 0c.1.1 0 0 0 0zm.5 0zm.3-.1zm-5.3.6s-.1 0 0 0c-.1 0-.1 0 0 0zm1.6-.2s-.1 0 0 0c0 .1 0 .1 0 0zm-3.5 0zm3.3 0c.1.1.1.1 0 0 .1 0 .1 0 0 0zm5.3-.8zm0 0zm.1-.1c0 .1 0 .1 0 0zm-.5.2c0 .1 0 .1 0 0zm-.1.1s.1.1.1 0c0 .1-.1-.1-.1 0zm-.8-.4h.1s-.1-.1 0-.1c-.2-.2.1.1-.1.1zm-.3 0v-.1c-.1 0-.1.1 0 .1zm-2.4.4v-.1.1zm-.4.7v.1-.1zm-.3-.9h-.1zm-4-.5v.2c0-.1.1-.2 0-.2zm-1.7-.5s0-.1 0 0c0 0 0 .1 0 0zm-4.2-3.1h.1-.1z" style="fill:#fff"/></g><g style="opacity:.65"><path d="m95.2 47.6-.1-.1.1.1zm-.3-.2c0 .1 0 .2.1.4 0-.2 0-.1-.1-.4.1 0 .1.1.2.2 0 0 .1 0 0-.1s-.1-.1-.2 0v-.1zm-3.2.2c0 .1 0 0 0 0zm-2-.2zm-.3-.3zm2.3.5c-.1 0-.1 0 0 0zm2.9.3zm-2.1-.4c.1 0 .1-.1 0 0zm.7-.1v.2-.2c0 .1 0 0 0 0zm1.1 0zm-2.2.1c0-.1 0-.1 0 0 0-.1 0 0 0 0zm-16.6-8.4zm.4-1h.1zm12.9 8.8zm-5.4-1.8c0 .1-.2.1-.1.3 0-.1.2-.2.1-.3zm11.2 2.8s-.1 0 0 0zm-11.3-2.5zm4.1 1.2s0 .1 0 0c0 .1 0 0 0 0zm1 .5zm-1.6-.5zm-.5-.1zm-9.9-5.7s-.1-.1 0 0zm18.2 7c0 .1 0 .1 0 0 0 .1 0 .1 0 0zm-8.1-.1c-.1 0-.1 0 0 0zM79.4 44zm6.7 3.6v-.1.1zm-9.6-6.9z" style="fill:#fff"/><path d="M75.9 40.3c0 .1.2 0 .3-.1.1.1-.1.1-.2.2.1 0 .2 0 .3.1h-.1c.2 0 .1.2.3.2.1-.1.1-.1.2-.1 0 0 .1 0 .1.1h-.1.1c-.1.1-.1 0-.2.1.1 0 .3 0 .3.1-.1.1-.1-.1-.2.1v-.1c-.2.2 0-.1-.2.2 0 .1.2.1.2.2.1 0 .1-.1.2-.1.2.1-.3.4 0 .4.1 0 .3-.2.3 0l-.2.1c.1.1.3-.1.2.1h-.1c-.1.2.1 0 .2 0l-.3-.1c.1.1.3.1.4.2 0 0-.1 0-.1.1.2.1.3.3.3.5l.2-.1s0 .1-.1.1c0 .1.1-.1.1-.1s0 .1-.1.1c.2 0 .4.1.4.3 0 .1.3-.1.3 0 .1.2.4.2.4.5.2-.1.1.2.3 0 0 .2-.1.2 0 .4l.2-.1-.1.1.2-.1v.4h.1v-.1c.1 0 .1.2.1.3h.2s-.1 0-.1.1c.2-.1-.1.1.1.1l.1-.1c0 .1.1.2.2.2l-.1.1c.1.1.3.1.4.2 0-.1.1-.2.1-.2l-.1.1c.1-.1 0-.1.1-.1 0 .1-.1.2-.1.2h.1l-.1.1c.1-.1 0 .2.2.1.1.1.2.1.4.2 0-.2 0-.1.1-.2.1.1.1.2.2.3.1 0 .1-.1.2-.1-.1.1.1.2-.1.2.1.1.2.1.4.1v-.1.1c.3-.1.2.6.5.4h.2c.1.1-.1.1-.1.2.3-.1.3.2.5.1-.1.4.4.2.4.5v-.1c.1-.1 0 .1 0 .1v-.1c.4.1.6.4.9.6.1.1.2-.4.3-.1l.1-.1c.3-.1.5.2.8.1 0 0 0 .1-.1.1 0 .1.2.1.2 0v.1c0 .1.2-.1.2 0 .1 0 .2.1.2-.1.1.1.2 0 .2.1.1-.1.1.1.2-.1-.1.2.1.2.2.1v.2c.1 0 .1 0 .2-.1 0 .3.3-.1.3.2.2-.1.4-.1.6-.1-.1.2-.2 0-.3.2.2 0 .3-.2.5-.1 0 0 0 .1-.1.1.2 0 .3.1.5 0v.1s.1.1.1-.1.2-.3.2-.3c-.1.3.1.1 0 .4l.1-.1v.1c.1 0 .1-.1.2-.1 0 0 0 .1-.1.1.1-.1.1-.2.2-.1v.1c.1 0 .3-.2.4-.1-.1.2 0 .1 0 .3h.1v-.1c.1 0 .2-.1.2 0l-.1.1h.1c.1-.1 0-.2.1-.2 0 0 .1 0 .1.1 0-.1.1-.1.1-.1v.2c.1-.1.2 0 .2-.2v.2-.1.1c.1 0 0-.2.1-.1s.2-.1.4 0c0 .2-.1 0-.1.2.2 0 .4-.2.5-.1 0-.3.1.1.2 0v.1c.1.1.2 0 .4-.1v.1c.1.1.2 0 .2.1 0-.1.1-.1 0-.2.2.4.4-.2.6.1 0 0-.1.1 0 .1l.2-.1c0-.1 0-.1-.1-.2 0-.1.1-.1.1-.1-.1.1 0 .2.1.2v-.1c.1.2 0-.2.1-.1v.1l.1-.1v.2c.1 0 .1-.3.2-.1 0 0-.1 0-.1.1l.1.1.1.1c0-.4.2-.1.2-.3-.1.2 0 .1 0 .3l.1.1c0-.1.1.1.2-.1 0 0 .1 0 .1.1.1 0 0-.1 0-.1.1-.2.3.2.4-.1.1-.1.1-.3.2-.4.1.1 0 .2 0 .2.1 0 .1 0 .2-.1 0 0 0 .1.1.1 0 0 0-.2.1-.1v.2c0-.1.1-.2.1-.2v.2c.1-.1.2-.1.1-.3h-.1s.1.1 0 .1c0 .1-.1 0-.1-.1-.1-.3-.2.1-.2.1v-.2.2s-.1-.2 0-.2c-.1-.1 0 .1-.1 0v.1-.1c-.1-.1-.1.2-.2.1-.1.1 0 .2 0 .4l-.2-.4v.2l-.1-.1v.2c-.1-.1-.2.1-.3-.1 0 .1.1.1 0 .2-.1-.3-.1.1-.2-.1 0-.1.1-.1 0-.2 0 .2-.1 0-.2 0 0 .2-.1.1-.2.2 0-.1-.2-.1-.3-.1 0 .2-.1.2-.2.2v-.2h-.1c0 .1 0 .1-.1.1v-.1c-.1 0-.2.2-.3.1 0 .1.1.4 0 .4v-.2s0 .1-.1 0v-.1c-.1-.1 0 .1-.1.1v-.1l-.1-.1v.1c-.1 0 0-.1-.1-.2 0 .1-.1 0-.1.1v-.1c0 .1-.2 0-.2.2-.1.1-.3-.1-.4 0-.1 0-.2 0-.3.1 0 0-.1-.1 0-.2-.1 0-.1.1-.2 0 .1-.1 0-.1.1-.1-.1 0-.1-.1-.2 0 0-.1 0-.2-.1-.1v.1h-.1v-.2c-.1-.2-.3.3-.4 0-.1.1.1.1 0 .2-.1 0-.1-.3-.1-.3-.1-.1-.1.2-.2.1 0 .1 0 .2-.1.3-.1 0-.1-.3 0-.3 0 0 .1 0 0-.1v.1c0-.1-.1-.1-.1-.2-.1 0 0 .1 0 .1-.1-.1-.2 0-.2-.1v.1c-.1-.1-.1.1-.2.1 0-.1.1-.2-.1-.2-.1-.1 0-.2 0-.2-.1.1-.2-.1-.2-.1h.1-.1v.1-.1c0 .1 0 .2-.1.3 0-.1-.1 0-.1-.1.1.1 0-.2.1-.2h-.1c-.1-.2-.1.2-.2.1v-.2s0 .2-.1.2c-.1-.1-.1 0-.1 0 0 .1-.1.1-.1.1 0-.1.1 0 0-.1-.1.1-.1-.2-.2-.1V47c-.1.1-.1-.1-.2-.1 0 .1 0 .1-.1.2h.2l.3-.1h.1v.1c0-.2-.2.1-.2-.1l.1-.3c-.1-.2-.2.1-.4 0v.1c-.1.1-.1 0-.2 0v-.2c0 .1-.1 0-.2.2v-.1c-.1-.1-.2.2-.3.2.1-.1 0-.2.1-.2h-.1c0-.1-.1.1-.1 0l-.1.1s-.1 0-.1.2c0-.3-.3-.1-.3-.4h-.3c-.1-.1-.2.2-.2.1 0-.2.1-.1.1-.1.1-.3-.2 0-.2-.2 0-.1-.2.1-.3 0-.1.1-.3.1-.4.1.1-.1.1 0 .1-.2 0 0-.1.2-.2.2v-.3h.1c0-.2-.1 0-.1-.1V46c-.1 0-.2.2-.3.1v.1c-.1.2 0-.1-.1 0l.1-.2c-.1 0-.2.1-.3.1.1-.1.2-.1.3-.2h-.2.1c-.1.1-.2.2-.3.1.2-.3-.2-.2-.1-.5-.2.1-.3-.2-.5-.3-.1.3-.1 0-.2.3h-.1v-.2c0-.1.1 0 .1-.1-.1-.1 0-.1 0-.2 0 .1-.1.1-.1.1v.2c-.2.1 0-.3-.2-.2l.1-.1c-.1 0-.2-.1-.4.1 0 0 0-.1.1-.1-.1-.1-.5 0-.5-.2v-.1s-.1.1-.1 0v-.1s-.1.1-.2 0l.1-.1c-.1-.2-.3 0-.5 0 .1-.2 0-.3 0-.4-.2-.1-.4 0-.6-.1 0-.3-.3-.3-.3-.5l-.1.1c0-.1-.2.1-.1-.1s0-.2-.1-.2l-.2.2c.1-.4-.5-.2-.3-.5h-.2l.1-.1c-.1-.1-.1-.2-.2-.2l.1-.1c-.1-.1-.3.2-.4.2l.1-.2c-.1-.1-.1-.3-.3-.3l.1-.1s-.1-.3-.3 0c.1-.1-.1-.1-.2-.1l.1-.1c-.2.1-.2.1-.3.1 0 0 .1-.1.1 0 0-.1-.1.1-.1-.1h.1c0-.1-.1 0-.2 0s-.1-.1 0-.2c-.1 0-.2.1-.2 0h.1c0-.2-.3 0-.2-.2 0 0 0-.1.1-.1l.1.1c.1-.1.1-.2.2-.2-.1 0-.3.1-.4 0v-.1c.1-.1 0-.1 0-.1-.1.1-.1 0-.2.1l.1.1c-.1 0-.1 0-.1-.1-.1 0-.2.1-.2.1.1-.2.1-.3.2-.4-.1 0-.2-.2-.5-.1 0 0 0-.1.1-.1h.1c-.1 0-.1-.1-.3-.1 0-.1.2-.1.1-.1h.1c.1-.3-.6-.1-.4-.5v.1c0-.3-.4-.5-.3-.9 0-.1-.1-.1-.2-.1l.1-.1h-.2c-.2-.1.3-.3 0-.4h-.1c0-.1-.1-.2 0-.2h-.1.1l-.2-.1c0-.1.3-.1.3-.2l-.3-.1s0 .1-.1.1H76c-.2 0-.5 0-.6.2l.2.1-.1.1v-.1c-.1.1 0 .1.1.1-.1 0-.1 0-.1.1h.2c-.1 0-.2 0-.2.1.1 0 .2-.1.3 0-.1.1-.2.1-.1.1h-.1c.1 0 .1.1.2.1-.1.1.1.2-.1.2.1 0 .2 0 .2.1-.3 0 0 .2-.2.3.2 0 .2.2.4.2H76c0 .1 0 .1-.1.2.2-.1.3 0 .4 0-.1.1-.2.1-.4.2.1-.1.2.1.3 0-.2-.2-.2-.2-.3-.1.2-.1.1 0 .2 0-.1.1-.2.1-.1.2h-.1zm1.6 1.6s-.1 0 0 0c-.1 0 0 0 0 0zm.1.1v-.1.1zm.5-.9c0 .1 0 0 0 0-.1 0 0 0 0 0zm-.2.1zm13.8 6.5zm-12.4-3.8h-.1zm13.4 4.2s0 .1 0 0c0 .1 0 0 0 0zm.4 0zm.3 0zm-5.2-.1zm1.6-.1c0 .1 0 .1 0 0 0 .1 0 .1 0 0zm-3.3-.2zm3.2.3zm5.2-.2zm0 0zm0 0zm-.5.1c0 .1 0 0 0 0z" style="fill:#fff"/><path d="M94.3 48s.1.1.1 0c0 0-.1-.1-.1 0zm-.7-.5h.1c0-.1-.1-.1 0-.1-.1-.2.1.1-.1.1zm-.3-.1c.1 0 0-.1 0-.1v.1zm-2.3.1v-.1c-.1 0 0 0 0 .1zm-.6.6.1.1v-.1zm-.1-.9h-.1zm-3.9-.8v.2c0-.1.1-.3 0-.2zm-1.7-.5c.1-.1 0-.1 0 0zm-4.3-2.7z" style="fill:#fff"/></g><g style="opacity:.65"><path d="M96.8 42.8v-.1.1zm-.2-.3c0 .1-.1.2 0 .4v-.4c.1.1.1.1.1.2l.1-.1c0-.1-.1-.1-.1 0-.1 0-.1-.1-.1-.1zm-2.9-.1zm-1.8-.1zm-.3-.2zm2.1.3c-.1 0 0 0 0 0zm2.5.5c.1 0 .1 0 0 0zm-1.7-.7zm.6 0v.2-.2zm1 .2zm-2.1-.2zm-15.3-5.8zm.2-.9.1-.1zM91 41.9zm-5-.7c0 .1-.1.1-.1.3 0 0 .2-.2.1-.3zm10.2 1.7zm-10.3-1.4zm3.8.4zm1 .3zm-1.5-.2zm-.5 0zm-9.1-4.2s-.1-.1 0 0zm16.6 5.1zm-7.1.2c-.1 0-.1 0 0 0zm-6.8-2.4zm6.4 2.4V43v.1zm-9-5.4z" style="fill:#fff"/><path d="M79.1 37.4c0 .1.2-.1.3-.1.1.1-.1.1-.2.2h.3-.1c.2 0 .1.2.3.1l.2-.2s.1 0 0 .1h-.1.1c-.1.1-.1 0-.2.1.1 0 .3 0 .2.1-.1.1-.1-.1-.2.1v-.1c-.2.2 0-.1-.2.2 0 .1.1.1.2.2.1 0 .1-.1.2-.1.2 0-.3.4 0 .3.1 0 .3-.2.3 0l-.2.1c.1.1.3-.1.2.1h-.1c-.1.2.1 0 .2 0l-.1.1c.1.1.3.1.4.2 0 0-.1 0-.1.1.2.1.2.3.3.5l.2-.1s0 .1-.1.1c0 .1.1-.1.1-.1s0 .1-.1.1c.2 0 .4 0 .4.2 0 .1.3-.1.2 0 .1.2.3.2.3.5.2-.1.1.2.3 0 0 .2-.1.2 0 .4l.2-.1-.1.1.2-.1-.1.2h.1v-.1c.1 0 .1.2 0 .3h.2s-.1 0-.1.1c.2-.1-.1.1.1.1l.1-.1c0 .1.1.2.2.2l-.1.1c.1.1.3.1.4.2 0-.1.1-.2.1-.2l-.1.1c.1-.1 0-.1.1-.2l-.1.2h.1s0 .1-.1.1c.1-.1 0 .2.1.1.1.1.2.1.4.1l.2-.2c.1.1.1.2.2.3.1 0 .1-.1.1-.2 0 .1.1.2 0 .2.1 0 .2.1.4 0v-.1.1c.2-.1.3.5.5.3l.2-.1c.1 0-.1.1 0 .2.2-.1.2.1.4 0 0 .4.4.1.5.3v-.1c.1-.1 0 .1.1.1v-.1c.3 0 .6.3.9.4.1 0 .2-.4.3-.2l-.1.2c.3-.2.5.1.7 0 0 0 0 .1-.1.1 0 .1.2 0 .2-.1v.1c0 .1.1-.1.2 0 0-.1.1 0 .1-.1.1.1.2 0 .2 0 .1-.1.1.1.2-.1 0 .2.1.2.2.1v.2c.1 0 .1 0 .1-.1.1.3.3-.2.3.2.2-.1.4-.2.5-.2 0 .2-.2 0-.2.2.2-.1.3-.3.4-.2v.1c.2-.1.3 0 .5-.1v.1s.1 0 .1-.1c0-.2.1-.3.1-.4-.1.3.1.1 0 .4v-.1.1c.1.3.1.2.2.2v.1c0-.1.1-.2.2-.1v.1c.1 0 .2-.3.4-.2v.3l.1-.1V43c.1 0 .1-.1.2-.1l-.2.1h.1l-.1-.1c.1-.1 0-.2.1-.2 0 0 .1 0 .1.1 0-.1.1-.1.1-.1v.2c0-.2.2 0 .2-.2v.2-.1.1c.1 0 0-.2.1-.1s.2-.1.3 0c0 .2-.1 0-.1.2.1 0 .3-.2.4-.2 0-.3.1.1.2 0v.1c.1 0 .2-.1.3-.2v.1c.1.1.2 0 .2.1 0-.1.1-.1 0-.2.2.4.4-.2.5.1v.1l.1-.1c0-.1 0-.1-.1-.2 0-.1.1-.1.1-.1-.1.1 0 .2 0 .2v-.1c.1.2 0-.2.1-.1v.1l.1-.1v.2c.1 0 .1-.3.2-.1 0 0-.1 0-.1.1.1.2.1.1.1.1l.1.1c.1-.4.1-.1.2-.3-.1.2 0 .1 0 .3l.1.1c0-.1.1.1.1-.1v.1c.1 0 0-.1 0-.1.1-.2.2.2.4 0 .1-.1.1-.3.2-.4v.2c.1.1.1.1.2 0v.1s0-.2.1-.1v.2s.1-.1.1-.2v.2c.1 0 .2-.1.2-.2v.1c0 .1-.1 0-.1-.1-.1-.3-.2.1-.2 0v-.2l-.1.2v-.2c-.1-.1 0 .1-.1 0l.1-.1v-.1c-.1-.1-.1.2-.2 0-.1.1 0 .2-.1.3l-.1-.4v.2-.1.2c-.1-.1-.2.1-.2-.2 0 .1.1.1 0 .2 0-.3-.1 0-.1-.1s.1-.1 0-.2c0 .2-.1 0-.2 0 0 .2-.1.1-.2.1 0-.1-.2-.1-.2-.2 0 .2-.1.2-.2.2v-.2h-.1c0 .1 0 .1-.1.1v-.1c-.1 0-.1.2-.2.1 0 .1.1.4 0 .4v-.2s0 .1 0 0v-.1s0 .1-.1.1v-.1l-.1-.1v.1c-.1 0 0-.1-.1-.2 0 .1-.1 0-.1.1v-.1c0 .1-.2 0-.1.2-.1.1-.3-.1-.4 0-.1.1-.2 0-.2.1 0 0-.1-.1 0-.1-.1 0-.1.1-.1 0 .1-.1 0-.1.1-.1-.1 0-.1-.1-.2 0 0-.1-.1-.2-.1-.1l.1.1h-.1V42c-.2-.2-.3.3-.4 0 0 .1.1.1 0 .2-.1 0-.1-.3-.2-.3-.1-.1-.1.2-.2.2 0 .1 0 .2-.1.3-.1 0-.1-.3 0-.3 0 0 .1 0 0-.1v.1c0-.1-.1-.1-.1-.2-.1.1 0 .1 0 .1-.1-.1-.1 0-.2-.1v.1c-.1-.1-.1.1-.2.1 0-.1 0-.2-.1-.1-.1-.1 0-.2 0-.2-.1.1-.2-.1-.2-.1h-.1v.1-.1.3c0-.1-.1.1-.1-.1.1.1 0-.2.1-.2h-.1c-.1-.1-.1.2-.2.2v-.2.2c-.1-.1-.1 0-.1 0 0 .1-.1.1-.1.1v-.1c-.1.2-.1-.2-.2-.1v-.2c-.1.1-.1-.1-.2 0v.2l.1-.1-.1.2s.1-.1.1 0c-.1.1 0 .1 0 .2 0-.2-.1.1-.2 0v-.3c-.1-.1-.2.1-.3.1v.1c0 .1-.1 0-.1.1v-.2c0 .1-.1 0-.1.2V42c-.1-.1-.1.3-.3.2 0-.1 0-.2.1-.2h-.1c0-.1-.1.1-.1 0 0 0 0 .1-.1.1 0 0-.1.1 0 .2-.1-.3-.3 0-.4-.3h-.2c-.1-.1-.1.3-.2.2 0-.2.1-.1 0-.1 0-.3-.1 0-.2-.2 0-.1-.2.1-.2.1-.1.2-.2.2-.3.2.1-.1.1-.1.1-.2 0 0 0 .2-.1.2 0-.1-.1-.1 0-.3h.1c0-.2-.1 0-.1 0v-.1c-.1 0-.2.2-.3.2v.1c-.1.2 0-.1-.1 0v-.2c-.1 0-.2.2-.3.2l.3-.3s-.1 0-.2.1c0 0 .1-.1.1 0-.1.1-.2.2-.3.2.1-.4-.2-.2-.2-.5-.2.1-.3-.1-.4-.2 0 .3-.1 0-.1.3h-.1l-.1-.2c0-.1.1-.1.1-.1-.1-.1 0-.1 0-.2 0 .1-.1.1-.1.1v.2c-.2.1 0-.3-.2-.2l.1-.1c-.1 0-.2-.1-.4.1 0 0 0-.1.1-.1-.1-.1-.4.1-.5-.1V41s-.1.1-.1 0v-.1s-.1.1-.1 0l.1-.1c-.1-.2-.3.1-.4.1.1-.2 0-.3 0-.4-.1-.1-.4 0-.5 0 0-.3-.2-.3-.3-.5l-.1.1c0-.1-.2.1-.1-.1s0-.2-.1-.2v.2c.1-.4-.4-.1-.3-.5h-.2l.1-.1-.2-.2.1-.1c0-.1-.3.3-.4.2l.1-.2c-.1-.1-.1-.3-.3-.2l.1-.1s-.1-.3-.3 0c.1-.1-.1-.1-.2-.1l.1-.1c-.2.1-.2.1-.3.1 0 0 .1-.1.1 0 0-.1-.1.1-.1-.1h.1c0-.1-.1 0-.2 0s-.1-.1 0-.2c-.1 0-.2.1-.2 0h.1c0-.2-.2 0-.2-.2 0 0 0-.1.1-.1l.1.1c.1-.1.1-.2.2-.2-.1 0-.3.1-.3 0v-.1c.1-.1 0-.1 0-.1-.1.1-.1 0-.2.1l.1.1H81c-.1 0-.2.1-.2.1.1-.2.1-.3.2-.4-.1 0-.2-.2-.5-.1 0 0 0-.1.1-.1h.1c-.1 0-.1-.1-.3 0 0-.1.2-.1.1-.1h.1c.1-.3-.6 0-.4-.4v.1c0-.3-.5-.4-.3-.8 0-.1-.1 0-.2 0l.1-.1h-.2c-.2 0 .2-.4 0-.4l-.1.1c0-.1-.1-.1 0-.2h-.1.1l-.2-.1c0-.1.3-.1.2-.3h-.3s0 .1-.1.1H79c-.2.1-.4.2-.5.3h.2l-.1.1v-.1c-.1.1 0 .1.1.1-.1 0-.1.1-.1.1h.2c-.1.1-.2 0-.2.1.1 0 .2-.1.3-.1-.1.1-.2.1-.1.1h-.1c.1 0 .1.1.2.1-.1.1.1.1-.1.2h.2c-.3.1.1.1-.2.3.2-.1.2.1.3.1H79c0 .1 0 .1-.1.2.2-.1.2 0 .4-.1-.1.2-.2.1-.4.2.1-.1.2 0 .3-.1-.1.1 0 .1-.1.2.2-.1.1 0 .2 0-.1.1-.2.1-.1.2 0 .1-.1.1-.1.1zm1.5 1.4c0-.1-.1-.1 0 0-.1-.1-.1-.1 0 0zm.1.1s-.1-.1 0 0v-.1.1zm.5-.9zm-.2.1zm12.7 4.3zm-11.6-1.8h.1-.1zm12.5 2.2c0 .1 0 .1 0 0 0 .1 0 .1 0 0zm.4.1zm.2 0s.1 0 0 0zm-4.6.2zm1.4-.3s0 .1 0 0c0 .1 0 .1 0 0zm-2.9.3zm2.8-.2s.1 0 0 0c.1 0 0 0 0 0zm4.6 0zm0 0zm.1 0c-.1 0 0 0 0 0zm-.5 0z" style="fill:#fff"/><path d="m96 42.9.1.1s-.1-.2-.1-.1zm-.5-.6c.1 0 .1-.1.1-.1-.1-.2 0 .1-.1.1zm-.3-.1c.1 0 0-.1 0-.1 0 .1-.1.1 0 .1zm-2.2.1v-.1.1zm-.4.6.1.1v-.1zm-.2-.9-.1.1zm-3.6-.1v.2c0-.1.1-.3 0-.2zm-1.5-.1c0-.1-.1-.2 0 0-.1-.1-.1 0 0 0zm-4.1-2h.1-.1z" style="fill:#fff"/></g><path d="M89.6 89.6c-.1-.2-.3-.4-.7-.5 0-.1.1-.2.1-.3.1-.3.2-.6.2-1 0-.3.1-.7.1-1 0-.3 0-.7-.1-1-.1-.3-.1-.6-.2-1-.1-.3-.3-.6-.4-.9l-.3-.9c-.2-.3-.4-.5-.6-.8-.2-.3-.3-.6-.4-.9-.2-.3-.4-.6-.6-.8-.4-.2-.7-.4-.7-.5l-.8.6s.3.3.6.8c.2.2.4.4.6.7.2.2.3.6.5.9.2.3.4.5.5.8l.3.9c.1.3.3.6.3.9l.3.9v1c0 .3-.2.6-.3.9-.1.2-.1.4-.2.6-.3.1-.6.2-.9.4-.3.1-.6.3-.9.4-.3.2-.6.4-.8.5-.3.2-.5.5-.7.7-.4.4-.7.5-.7.6.3.4.3.5.7.7.2-.2.4-.4.7-.6.2-.2.4-.4.7-.6.2-.2.5-.3.8-.5.3-.2.6-.3.8-.5l-.3.9c-.1.3-.3.6-.4.9-.1.3-.4.6-.5.8-.2.3-.3.6-.4.9-.3.5-.5.8-.5.8.4.3.5.2.9.5 0 0 .2-.3.4-.8.1-.2.4-.5.5-.8.1-.3.3-.6.4-.9.1-.3.2-.6.4-.9l.3-.9c.1-.3.3-.5.4-.9h.2c.1.2.2.6.1 1-.1.3-.1.7-.2 1-.1.3-.3.7-.4.9.4.3.4.3.9.5.1-.2.2-.6.4-1 .1-.3.2-.6.2-1 .1-.3.2-.7.2-1-.2 0-.4-.3-.5-.5zm-48.7-1.3c-.1-.2-.3-.3-.4-.5-.2-.3-.3-.6-.4-.9-.1-.3-.3-.6-.4-.9-.1-.3 0-.6 0-1 0-.3-.1-.6 0-1 0-.3.1-.6.1-1 .1-.3.1-.6.2-.9.1-.3.2-.6.2-.9.1-.3.3-.6.3-.9.2-.5.3-.8.3-.8-.4-.2-.4-.3-.9-.5 0 .1-.2.4-.4.9l-.3.9-.3.9c-.1.3-.2.6-.2.9-.1.3-.1.6-.1 1v1c0 .3-.1.7 0 1 0 .3.1.6.2 1l.3.9c.1.3.3.6.5.9l.2.2c-.3.2-.5.5-.6.7-.1.3-.1.7 0 1 .1.3.2.6.4.9.2.3.3.6.5.9.3.4.5.7.6.8.4-.3.4-.3.7-.7-.2-.3-.3-.5-.5-.8-.2-.3-.4-.6-.6-.8-.2-.4-.3-.8-.2-1l.2-.2c.2.3.3.6.5.8.2.3.4.5.6.7.2.3.4.5.6.8.2.3.5.4.7.7.2.3.5.4.7.6.4.4.6.6.6.7.3-.4.4-.3.7-.7 0 0-.3-.2-.7-.6-.2-.2-.4-.4-.7-.6-.2-.2-.4-.4-.6-.7-.2-.2-.3-.5-.5-.8-.2-.2-.4-.5-.6-.7.3 0 .6.2.9.2.3.1.6.2.8.3.3.1.6.2.8.3.3.1.6.3.8.4.3-.4.2-.4.5-.9 0 0-.4-.3-.9-.5l-.9-.3-.9-.3c-.3-.1-.6-.2-.9-.2-.3-.4-.6-.4-.9-.3z" style="fill:#ef7937"/><path d="M43.9 51s0 .1 0 0zm0 .1s0-.1 0 0c0 0 0-.1 0 0zm.5 0zm.3 0zm.1 0zm-.4 0zM44 51zm.3.1c0 .1 0 .1 0 0zm-.1.1s0-.1 0 0c0-.1 0-.1 0 0 0-.1 0 0 0 0zm-.2-.1zm.4 0c0 .1 0 .1 0 0 0 .1 0 .1 0 0zm2.9-.4zm.1.2zm-2.5.3zm.9-.1c0-.1 0 0 0 0zM44 51zm1.8 0zm-.7.1zm-.2 0zm.3 0zm.1 0zm1.7-.3s.1 0 0 0zm-3 .2zm1.2-.1zm1.2-.1zm-1.2.1s.1 0 0 0c.1 0 .1 0 0 0zm1.8-.1zm.1-.1s0 .1 0 0c0 .1 0 0 0 0s0 .1 0 0c0 .1 0 .1 0 0 0 .1 0 .1 0 0-.1.1-.1.1 0 0l-.1.1.1-.1-.1.1v-.1s0-.1 0 0c0 0 0 .1 0 0 0 0 0 .1 0 0h-.2s0 .1-.1 0c0 0 0 .1 0 0h-.1v-.1h-.1v.1h-.3s-.1-.1-.1 0H46c0-.1-.1 0-.1 0h-.2v.1h-.1c0-.1 0 0-.1 0 0 0-.1 0-.1.1v-.1s0 .1-.1.1h-.1v.1-.1s0 .1-.1 0v-.1h-.2c0 .1 0 0 0 0h-.1c0-.1-.1 0-.1 0s0 .1 0 0v.1-.1h-.1v.1c0 .1 0 0 0 0v-.1.1c0 .1 0 0 0 0v-.1h.1s0-.1.1 0v.1-.1.1-.1.1h.1v-.1.1c0 .1.1 0 .1 0s0-.1 0 0v-.1.2c0 .1 0 0 .1.1h.1V51l.1-.1s.1-.1.1 0l.1-.1v.1s.1 0 .1-.1h.1v-.1c0 .1.1 0 .1 0h.1v-.1h.1v-.1.1-.1.1l.1-.1c0 .1.1-.1.1 0h.1s0 .1.1 0v.1-.2.1-.1c.9.4.8.3.7.3.1.1.1.1 0 0 .1.1.1 0 0 0 .1.1.1.1 0 0 .1.1.1.1 0 0 .1.1.1.1 0 0 .1.1.1.1 0 0 .1.1.1.1 0 0 0 .1 0 0 0 0zm-.3.1zm0 0zm.1.2zm0 0zm-2.5.1zm2-.3zm-2.1.2zm-.1 0zm-.1 0zm.8-.1zm-.2.1zm.5-.1zm-.5.1zm-.8 0zm0 0zm0 0zm.1 0zm0 0zm.1.1s0 .1 0 0c0 .1 0 0 0 0zm.1 0c-.1.1 0 .1 0 0 0 .1 0 .1 0 0zm.3 0zm.1-.1zm0 .2h.1zm.7-.1zm.2 0s.1 0 0 0c.1 0 0 0 0 0zm.9 0zm-5.6 11.1s0 .1 0 0zm0 .1s0-.1 0 0zm.5 0zm.3 0zm.1 0zm-.4 0zm-.4-.1zm.3.2zm-.1 0s0-.1 0 0c0-.1 0-.1 0 0zm-.2-.1zm.4.1zm2.9-.5zm.2.2zm-2.6.3zm.9-.1c0-.1 0 0 0 0zm-1.8-.1zm1.8 0zm-.7.1zm-.1 0zm.2 0zm.1 0zM44 62zm-3.1.2zm1.2-.1zm1.2-.1zm-1.1.1zM44 62zm.1-.1c-.1 0-.1.1 0 0-.1.1-.1.1 0 0-.1 0-.1.1 0 0-.1.1-.1.1 0 0-.1.1-.1.1 0 0-.1.1-.1.1 0 0l-.1.1c-.1 0 0 0 .1-.1l-.2.1v-.1s0-.1 0 0c0 0 0 .1 0 0 0 0 0 .1 0 0h-.2s0 .1-.1 0c0 0 0 .1 0 0h-.1v-.1h-.1v.1h-.3s-.1-.1-.1 0h-.1c0-.1-.1 0-.1 0h-.2v.1h-.1c0-.1 0 0-.1 0 0 0-.1 0-.1.1V62s0 .1-.1.1h-.1v.1-.1s0 .1-.1 0V62h-.2c0 .1 0 0 0 0h-.1c0-.1-.1 0-.1 0s0 .1 0 0v.1-.1h-.1v.1c0 .1 0 0 0 0V62v.1c0 .1 0 0 0 0V62h.1s0-.1.1 0v.1-.1.1-.1.1h.1V62v.1c0 .1.1 0 .1 0s0-.1 0 0V62v.2c0 .1 0 0 .1.1h.1v-.1l.1-.1s.1-.1.1 0l.1-.1v.1s.1 0 .1-.1h.1v-.1c0 .1.1 0 .1 0h.1v-.1h.1v-.1.1-.1.1l.1-.1c0 .1.1-.1.1 0h.1s0 .1.1 0v.1-.2.1-.1c.9.4.9.3.8.3 0 .1 0 .1 0 0 0 .1 0 0 0 0 0 .1 0 .1 0 0 0 .1 0 .1 0 0 0 .1 0 .1 0 0 0 .1 0 .1 0 0 0 .1 0 .1 0 0 0 .1 0 0 0 0-.1 0 0 0 0 0zm-.4.1zm0 0s0 .1 0 0zm.1.2zm0 0zm-2.5.1zm2-.3zm-2.1.2zm-.1 0zm0 0zm.7-.1zm-.2.1zm.5-.1zm-.5.1zm-.8 0zm0 0zm0 0zm.1 0zm0 0zm.1.1s0 .1 0 0c0 .1 0 0 0 0zm.1.1zm.3-.1c.1 0 0 0 0 0zm.1-.1zm.1.2zm.6-.1zm.3 0zm.8 0zm5.1 3s0 .1 0 0zm.1.1s0-.1 0 0c0-.1 0-.1 0 0-.1 0-.1 0 0 0-.1 0-.1-.1 0 0-.1 0-.1 0 0 0zm.5 0zm.3 0zm0 0zm-.3 0zm-.5-.1zm.3.1zm-.1 0c0 .1 0 0 0 0zm-.2 0zm.4 0zm3-.4zm.1.2zm-2.6.3zm.9-.1s.1-.1 0 0c0-.1 0 0 0 0zm-1.8-.1zm1.8 0zm-.6.1zm-.2 0zm.2 0c.1 0 .1 0 0 0 .1 0 0 0 0 0zm.1 0zm1.8-.3zm-3.1.2zm1.2-.1zm1.2-.1zm-1.1.1zm1.8-.1zm.1-.1c0 .1 0 0 0 0s-.1.1 0 0c-.1.1-.1.1 0 0-.1.1-.1.1 0 0-.1.1-.1.1 0 0l-.1.1.1-.1-.1.1V65s0-.1 0 0c0 0 0 .1 0 0 0 0 0 .1 0 0h-.2s0 .1-.1 0c0 0 0 .1 0 0h-.1v-.1h-.1v.1h-.3s-.1-.1-.1 0h-.1c0-.1-.1 0-.1 0h-.2v.1h-.1c0-.1 0 0-.1 0 0 0-.1 0-.1.1v-.1s0 .1-.1.1h-.1v.1-.1s0 .1-.1 0v-.1h-.2c0 .1 0 0 0 0h-.1c0-.1-.1 0-.1 0s0 .1 0 0v.1-.1h-.1v.1c0 .1 0 0 0 0v-.1.1c0 .1 0 0 0 0v-.1h.1s0-.1.1 0v.1-.1.1-.1.1h.1v-.1.1c0 .1.1 0 .1 0s0-.1 0 0v-.1.2c0 .1 0 0 .1.1h.1v-.1l.1-.1s.1-.1.1 0l.1-.1v.1s.1 0 .1-.1h.1V65c0 .1.1 0 .1 0h.1v-.1h.1v-.1.1-.1.1l.1-.1c0 .1.1-.1.1 0h.1s0 .1.1 0v.1-.2.1-.1c.8.4.8.3.7.3.1.1.1 0 0 0 .1 0 .1 0 0 0 .1.1 0 .1 0 0 0 .1 0 0 0 0 0 .1 0 .1 0 0 0 .1 0 0 0 0zm-.3.1zm-.1 0c.1 0 .1 0 0 0 .1 0 0 0 0 0zm.1.2zm0 0zm-2.4.1zm2-.3zm-2.2.2zm-.1 0zm0 0zm.8-.1zm-.3.1zm.5-.1zm-.4.1zm-.8 0zm0 0zm0 0zm0 0zm.1 0s-.1 0 0 0c-.1 0 0 0 0 0zm.1.1c-.1 0-.1 0 0 0 0 .1-.1 0 0 0zm0 0s0 .1 0 0zm.4 0zm0-.1zm.1.2v-.1zm.6-.1zm.3-.1c0 .1 0 .1 0 0 0 .1 0 0 0 0zm.8 0v.1-.1z" style="fill:#4b5d9a"/><g style="opacity:.6"><path d="M39 56.3zm0 .1s.1-.1 0 0c0-.1 0-.1 0 0 0 0 0-.1 0 0 0-.1 0-.1 0 0zm.6 0zm.3-.1s0 .1 0 0c0 .1 0 .1 0 0zm.1.1zm-.4 0zm-.5-.1zm.3.1zm-.1 0zm-.2 0zm.4 0zm3.1-.5zm.1.1zm-2.6.4zm.9-.1c0-.1 0 0 0 0zm-1.9 0zm1.9-.1zm-.7.2zm-.2-.1zm.3 0zm.1 0zm1.8-.4zm-3.2.4zm1.3-.2zm1.2-.1zm-1.2.1zm1.9-.2zm.1 0c-.1 0-.1 0 0 0-.1 0-.1 0 0 0l-.1.1.1-.1-.1.1v-.1s0-.1 0 0c0 0 0 .1 0 0 0 0 0 .1 0 0h-.2s-.1.1-.1 0c0 0 0 .1 0 0h-.1v-.1h-.1v.1h-.3s-.1-.1-.1 0h-.1c0-.1-.1 0-.1 0H41v.1h-.1c0-.1 0 0-.1 0 0 0-.1 0-.1.1V56s0 .1-.1.1h-.1v.1-.1s0 .1-.1 0V56h-.1s0 .1-.1 0c0 .1 0 0 0 0h-.1c0-.1-.1 0-.1 0s0 .1 0 0v.1-.1h-.1v.1c0 .1 0 0 0 0V56v.1c0 .1 0 0 0 0V56h.1s0-.1.1 0v-.1.1-.1.1h.1v-.1.1c0 .1.1 0 .1 0s0-.1 0 0v-.1.2c0 .1 0 0 .1.1h.1v-.1l.1-.1s.1-.1.1 0l.1-.1v.1s.1 0 .1-.1h.1v-.1c0 .1.1 0 .1 0h.1v-.1h.1v-.1.1-.1.1l.1-.1c0 .1.1-.1.1 0h.2s0 .1.1 0v.1-.2.1-.1c.7.4.7.4.6.4.1 0 .1 0 0 0 .1 0 .1 0 0 0 .1 0 .1 0 0 0 0 0 .1 0 0 0 .1 0 0 0 0 0zm-.3.1zm-.1 0s.1 0 0 0c.1 0 .1 0 0 0 .1 0 0 0 0 0zm.1.2zm0-.1zm-2.5.3zm2-.4h.1zm-2.2.3zm-.1 0zm0 0zm.8-.1c0-.1 0-.1 0 0zm-.2 0zm.5-.1zm-.5.1zm-.8.1zm0 0zm0 0zm0 0zm.1 0c-.1 0-.1 0 0 0-.1 0-.1 0 0 0zm.1.1c-.1 0-.1 0 0 0 0 .1-.1 0 0 0zm0 0zm.4 0zm.1-.2h-.1zm0 .2zm.7-.1zm.2 0c.1 0 .1 0 0 0 .1 0 .1 0 0 0zm.9-.1z" style="fill:#fff"/></g><g style="opacity:.6"><path d="M54.4 98.9zm.1 0s-.1 0 0 0c-.1 0-.1 0 0 0-.1 0 0 0 0 0zm.5 0zm.3 0zm.1 0zm-.4 0zm-.5-.1zm.4.1c0 .1 0 .1 0 0zm-.2.1c.1 0 0-.1 0 0 0-.1 0-.1 0 0 0-.1 0 0 0 0zm-.1-.1zm.3 0s0 .1 0 0c0 .1 0 0 0 0zm3.1-.5zm.2.1zm-2.7.4zm.9-.1zm-1.9 0zm1.9 0zm-.7.1zm-.2 0c.1 0 0 0 0 0zm.3 0zm.1-.1zm1.8-.3zm-3.2.3zm1.3-.2zm1.2-.1zm-1.1.1zm1.8-.1zm.1-.1c0 .1 0 0 0 0s0 .1 0 0c0 .1 0 .1 0 0 0 .1-.1.1 0 0-.1.1-.1.1 0 0l-.1.1.1-.1-.1.1v-.1s0-.1 0 0c0 0 0 .1 0 0 0 0 0 .1 0 0h-.2s-.1.1-.1 0c0 0 0 .1 0 0h-.1v-.1h-.1v.1h-.3s-.1-.1-.1 0h-.1c0-.1-.1 0-.1 0h-.2v.1h-.1c0-.1 0 0-.1 0 0 0-.1 0-.1.1v-.1s0 .1-.1.1h-.1v.1-.1s0 .1-.1 0v-.1h-.1s0 .1-.1 0c0 .1 0 0 0 0h-.1c0-.1-.1 0-.1 0s0 .1 0 0v.1-.1h-.1v.1c0 .1 0 0 0 0v-.1.1c0 .1 0 0 0 0v-.1h.1s0-.1.1 0c0 0 0-.1 0 0v-.1.1-.1.1h.1v-.1.1c0 .1.1 0 .1 0s0-.1 0 0v-.1.2c0 .1 0 0 .1.1h.1v-.1l.1-.1s.1-.1.1 0l.1-.1v.1s.1 0 .1-.1h.1v-.1c0 .1.1 0 .1 0h.1v-.1h.1v-.1.1-.1.1l.1-.1c0 .1.1-.1.1 0h.2s0 .1.1 0v.1-.2.1-.1c.8.4.7.4.6.4.1 0 .1 0 0 0 .1 0 .1 0 0 0 .1.1.1.1 0 0 .1.1.1 0 0 0 .1 0 .1 0 0 0 .1 0 .1.1 0 0 .1.1 0 0 0 0zm-.3.1zm0 0zm0 .2zm.1 0zm-2.6.2zm2.1-.4zm-2.3.3zm0 0zm-.1 0zm.8-.1zm-.2.1zm.5-.2zm-.5.2zm-.8 0zm0 0zm0 0zm.1 0zm0 0zm.1.1s0 .1 0 0c0 .1 0 0 0 0zm0 .1zm.4-.1zm.1-.1zm0 .1v.1l.1-.1zm.7 0c0-.1 0 0 0 0zm.3-.1zm.8 0z" style="fill:#fff"/></g></g></svg>