<svg xmlns="http://www.w3.org/2000/svg" viewBox="0 0 131.2 142.8" style="enable-background:new 0 0 131.2 142.8" xml:space="preserve"><style>.st5{fill:#d83429}.st6{fill:#ff8a65}.st7{fill:none;stroke:#ef7937;stroke-width:.925;stroke-miterlimit:10}.st8{fill:#d9413d}.st9{fill:#ff8a65}.st10{fill:none;stroke:#d83429;stroke-width:.8491;stroke-miterlimit:10}.st11{fill:#d9413d}.st12{fill:#ff8a65}.st13{fill:none;stroke:#d9413d;stroke-width:.8491;stroke-miterlimit:10}.st14{opacity:.37}.st15{clip-path:url(#SVGID_2_)}.st16{clip-path:url(#SVGID_4_)}.st17{clip-path:url(#SVGID_6_)}.st18{clip-path:url(#SVGID_8_)}.st19{clip-path:url(#SVGID_10_)}.st20{clip-path:url(#SVGID_12_)}.st21{clip-path:url(#SVGID_14_)}.st22{clip-path:url(#SVGID_16_)}.st23{clip-path:url(#SVGID_18_)}.st24{clip-path:url(#SVGID_20_)}.st25{fill:none;stroke:#d9413d;stroke-width:.925;stroke-miterlimit:10}.st26{clip-path:url(#SVGID_22_)}.st27{clip-path:url(#SVGID_24_)}.st28{clip-path:url(#SVGID_26_)}.st29{clip-path:url(#SVGID_28_)}.st30{clip-path:url(#SVGID_30_)}.st31{fill:none;stroke:#d9413d;stroke-width:.925;stroke-miterlimit:10}.st32{clip-path:url(#SVGID_32_)}.st33{clip-path:url(#SVGID_34_)}.st34{clip-path:url(#SVGID_36_)}.st35{clip-path:url(#SVGID_38_)}.st36{clip-path:url(#SVGID_40_)}.st37{fill:#d9413d}.st38{fill:#6594d9}.st39{fill:#ee8423}.st40{fill:#f18a50}.st41{fill:#019788}.st42{fill:#32867a}.st43{fill:#f67258}.st44{fill:#de5956}.st45{opacity:.5}.st46{fill:#4b5d9a}.st47{opacity:.6}.st48{fill:#21a497}.st49{fill:#f7846d}.st50{fill:#26a59a}.st51{opacity:.65;fill:none;stroke:#fff;stroke-width:.2;stroke-miterlimit:10}.st52{fill:#ffccbc}.st53{fill:none;stroke:#31458b;stroke-miterlimit:10}.st54{fill:#d83429}.st55{fill:none;stroke:#f5a800;stroke-miterlimit:10}.st55,.st56,.st57{stroke-width:.2}.st56{fill:none;stroke:#4db6ac;stroke-miterlimit:10}.st57{stroke:#ff8a65}.st57,.st58,.st59,.st60,.st61{fill:none;stroke-miterlimit:10}.st58{opacity:.65;stroke:#fff;stroke-width:.5}.st59{stroke:#ef7937}.st60{stroke:#147467}.st61{stroke:#d9413d}.st62{fill:#d9413d}.st63,.st64,.st65{fill:#ffccbc}</style><g id="Calque_1"><path d="M78.4 113.5s-34.8-.3-42.4 1.2 19.6 5.9 34 5c14.4-.9 25-3.8 20.8-4.7-4.3-1-8.7-1.2-12.4-1.5z" style="opacity:5.000000e-02"/><path d="M61.9 117.2c-.8.4-.9.1-1.7.1s-.9.3-1.7-.1c-.4-.2-.4-.6 0-.7.8-.4 1 .3 1.8 0-.3-.5-.5-1.3-.6-2.2-.1-.7 0-1.4 0-2.1 0-.7.1-1.4.2-2.1 0-.8-.1-1.6-.1-2.1 0-.4.2-1.1.4-2 .1-.6.2-1.3.4-2 .2-.6.5-1.3.7-1.9.2-.6.3-1.3.5-2s.4-1.3.6-1.9c.2-.7.5-1.3.7-1.9.2-.7.5-1.4.7-1.9.4-1.1.6-1.9.6-2.1.7 0 .7 0 1.4.1 0 0-.4.9-.8 2-.2.6-.3 1.2-.6 1.9-.2.6-.4 1.3-.6 1.9-.2.6-.6 1.2-.8 1.9-.2.6-.4 1.3-.6 2-.2.7-.5 1.3-.7 1.9-.2.7-.4 1.4-.5 2-.2.9-.4 1.6-.4 2 0 .6.1 1.3.1 2.2 0 .7.1 1.5.2 2.2.1.8 0 1.5.1 2.2.1 1.3.2 2.2.3 2.2.4 0 .8.3.4.4z" style="fill:#d83429"/><path d="M69 117.5c-1.1.4-1.2.4-2.4.1-.3-.1.2-.3.3-.6 0 0 .1-.7.2-2.1.1-.6.2-1.3.2-2.1v-2.1c0-.5-.1-1.1-.2-1.9-.1-.6-.2-1.2-.3-1.9-.1-.6-.4-1.2-.5-1.8-.2-.6-.2-1.3-.4-1.9-.2-.6-.5-1.2-.7-1.8-.2-.6-.3-1.3-.5-1.9-.2-.6-.5-1.2-.7-1.8-.2-.6-.4-1.3-.6-1.8-.2-.7-.5-1.3-.7-1.8-.4-1.1-.5-1.8-.5-1.8.4-.1.4 0 .9-.1 0 .1.1.7.5 1.7.2.5.5 1.1.8 1.8.2.6.3 1.2.5 1.9.2.6.3 1.2.5 1.9.2.6.5 1.2.7 1.8.2.6.3 1.3.5 1.9.2.6.5 1.2.6 1.8.2.7.2 1.3.4 1.9.2.7.4 1.3.5 1.9.1.7.2 1.4.2 1.9v4c0 .6 0 1.1-.3 1.9.4.4.6-.3 1.1 0 .4.2.3.8-.1.9z" style="fill:#d83429"/><path d="M108.8 42.4c1.4.4 1.4 1 2 2.5.3.8.2 1.8-.2 3-.2.6-.6 1.4-.9 2.3-.2.7-.2 1.6-.4 2.4-.2.8-.3 1.6-.5 2.4-.2.8-.6 1.5-.8 2.3-.2.8-.1 1.7-.3 2.5-.2.8-.9 1.5-1.2 2.2-.2.8-.4 1.6-.7 2.4-.3.9 0 1.8-.3 2.5s-.8 1.4-1.1 2.1c-.4.7-.9 1.3-1.3 2l-1.2 2.1c-.4.7-.9 1.3-1.2 2.1-.4.7-.5 1.5-.9 2.2-.3.7-.6 1.4-1 2.2-.3.7-1 1.3-1.3 2.1-.3.7-.2 1.6-.4 2.4l-.6 2.4c-.2.8-.6 1.6-.7 2.4-.2.8 0 1.7 0 2.5-.1.9-.7 1.6-.7 2.4-.1.9.2 1.7.2 2.5 0 .9.3 1.7.3 2.5 0 .9-.4 1.7-.4 2.4-.1.9-.2 1.7-.4 2.4-.2.8-.8 1.4-1.2 2.1-.4.7-.8 1.4-1.4 2-.6.6-1.2 1.1-1.9 1.5-.7.4-1.5.9-2.2 1.1-.8.3-1.7 0-2.5.1-.9.2-1.7.4-2.4.5-2 .1-2.3.3-3.1.2-.6-.1-1.4 0-3.1 0-.9 0-1.8 0-2.6-.2-.9-.2-1.6-1-2.2-1.4-1.3-.7-1.4-.3-2.2-1.4-.7-1.1-.4-1-1.2-2.3-.4-.7-1-1.4-1.5-2.1-.5-.8-1.1-1.5-1.6-2.1-.6-.8-1.1-1.1-1.5-1.5-.6-.6-.6-.5-1.3.3-.3.4-1.2.8-1.7 1.7-.4.6-.7 1.4-1.1 2.1-.4.7-.7 1.5-1.1 2.1-.6 1.2-.1 1.2-.7 2.3-.4.9-.5.8-1.4 1.4-.5.3-1.2.4-1.9.4-.5 0-1.4.5-2.4.4-.7 0-1.5-.7-2.4-.8-.8 0-1.6.6-2.4.6-.8 0-1.7-.1-2.4-.1-1 0-1.8-.1-2.4-.1-.9.1-1.7 0-2.4-.1-.9-.1-1.5-.6-2.2-.9-.8-.3-1.8-.3-2.3-.8-.6-.6-.7-1.5-1.1-2.2-.4-.7-.7-1.4-.9-2.2-.3-.8-1.1-1.4-1.2-2.2-.2-.8.4-1.7.3-2.5-.1-1-.7-1.8-.7-2.3-.1-.8 0-1.6-.1-2.5-.1-.7.2-1.6 0-2.6-.1-.7-.7-1.5-.9-2.4-.1-.8 0-1.6-.2-2.5-.1-.8-.1-1.6-.2-2.5-.1-.8-.3-1.6-.4-2.5-.1-.8-.3-1.6-.4-2.5-.1-.8-.6-1.5-.8-2.4-.2-.8-.2-1.6-.4-2.5-.2-.8-.5-1.6-.8-2.4-.3-.8-.8-1.5-1.1-2.2-.3-.8-.3-1.7-.6-2.5-.4-.8-1.2-1.3-1.6-2-.4-.8-.4-1.7-.7-2.4-.4-.8-1.2-1.3-1.6-2-.4-.8-.4-1.7-.8-2.4-.5-.8-.8-1.6-1.2-2.2-.8-1.3-1-.8-1.6-1.9-.8-1.3.1-.6-.5-3-.2-.8-1.1-1.5-1.4-2.7-.3-1.1-.3-2.2-.3-2.9 0-1.3.7-1.9 1.3-2.5.6-.6 1.3-.9 2.4-1.1.8-.2 1.6-.8 2.5-.8.8 0 1.7.1 2.5.2s1.6.5 2.5.6c.8.1 1.7.1 2.5.3.8.2 1.6.6 2.4.9.8.3 1.5.7 2.3 1.1.8.4 1.6.7 2.3 1.1.8.5 1.6.8 2.2 1.3.7.6 1.3 1.2 1.8 1.8.8 1 .3 1.9-.6 2.4-1 .6-1.7-.2-2.4.9-.7 1.2.2 1.1 1 2.4.5.7 1.5 1.2 2.1 1.9.4.5.9 1 1.5 1.5s1.1 1 1.7 1.4c.9.6 1.6 1.3 1.8 1.3.9 0 1.6-.3 2.4-.6.8-.3 1.7-.2 2.4-.7.7-.5.9-1.5 1.5-2.1.6-.5 1.6-.7 2.2-1.3.6-.6.9-1.4 1.5-2 .6-.5 1.1-1.2 1.8-1.7s1.7-.4 2.4-.7c.7-.3 1.4-.8 2.2-1 .8-.2 1.6 0 2.4-.1 1-.1 1.8-.2 2.6 0 .9.1 1.7.5 2.4.8.8.4 1.5.8 2.2 1.3.7.5 1.4 1.1 2 1.7.6.6 1.3 1.2 1.8 1.9.6.6 1.3 1.3 1.9 1.8.7.6 1.5.8 2.4 1.1.8.3 1.5.3 2.5.3.8 0 1.6-.2 2.5-.6.8-.4 1.8-.5 2.5-1.1.7-.5 1.4-1.2 2-1.9.6-.7 1.1-1.2 1.4-1.7.4-.7.5-1.5.6-2.1.1-.7.1-1.3 0-2.2-.1-1.2-2.1-.8-2-2 .1-.8.3-1.5.9-2.1.6-.6 1.4-.8 2.1-1.2.8-.4 1.5-1.1 2.2-1.3.8-.1 1.7-.2 2.6-.3.9-.1 1.8-.2 2.6-.3.9-.1 1.8-.3 2.6-.3 1-.1 1.9.2 2.7.2 1.7 0 1.6-.7 2.8-.3z" style="fill:#ff8a65"/><path d="M56.1 71.3s-5.3-4.9-12.3-1.4-6.1 13 .9 15 11.6-.6 12.7-3.3c1.1-2.8 1.7-7.7-1.3-10.3z" style="fill:#fff"/><ellipse cx="49.8" cy="77.6" rx="6.1" ry="5.5"/><path d="M84.4 72.3s-5.3-4.9-12.3-1.4c-7 3.5-6.1 13 .9 15s11.6-.6 12.7-3.3 1.7-7.8-1.3-10.3z" style="fill:#fff"/><ellipse cx="78.1" cy="78.6" rx="6.1" ry="5.5"/><path d="M62.7 87c-.9 0-1.6-.2-2-.7-.4-.5-.4-1-.4-1.1l.9.1-.4-.1h.4s0 .2.2.4.6.4 1.4.4c1.6 0 2.9-1.2 2.9-1.2l.6.6c-.1.2-1.5 1.6-3.6 1.6.1 0 0 0 0 0zm-35.6-2.6c-.2-.2-.4-.5-.5-.7l-.6-.6c-.2-.2-.3-.5-.5-.7l-.6-.6c-.2-.2-.2-.5-.4-.8-.2-.2-.4-.4-.6-.7-.2-.2-.4-.5-.5-.7-.2-.2-.3-.5-.4-.8-.1-.3-.3-.5-.4-.8-.1-.3-.2-.6-.4-.8-.1-.3-.3-.5-.5-.7-.1-.3-.3-.5-.4-.8.2-.2.3-.4.4-.7.1-.2.2-.5.3-.8.1-.3.2-.5.2-.8 0-.3.2-.5.2-.8 0-.3-.1-.6 0-.9v-.8c0-.3.1-.6.1-.8v-.9c-.4-.1-.5-.1-.9.1 0 .3.1.6.1.9v.8c0 .3-.2.5-.2.8v.8c0 .3-.1.6-.1.8 0 .3-.1.6-.2.8-.1.3-.2.6-.3.8-.1-.3-.3-.6-.4-.8-.1-.3-.2-.5-.4-.8-.1-.3-.3-.5-.4-.8-.1-.3-.2-.6-.3-.8-.1-.3-.1-.6-.2-.8-.2-.5-.4-.7-.4-.7-.4.1-.4.1-.8.3 0 .1.1.3.2.8.1.2.2.5.3.8.1.2.3.5.4.7.1.2.3.5.4.7.1.2.1.5.3.8.1.2.2.5.3.7-.2-.1-.5-.1-.8-.2-.2-.1-.5-.2-.8-.4-.2-.1-.4-.4-.7-.6-.2-.1-.6-.2-.8-.3-.2-.2-.5-.3-.7-.5-.2-.2-.4-.5-.6-.6-.2-.2-.5-.3-.7-.5-.4.2-.4.3-.6.7.1.1.5.4.8.6.2.2.4.4.7.5.2.2.5.3.7.5.2.2.5.3.8.4.2.2.4.4.7.6.3.1.5.3.8.4.3.1.6.1.9.2.3.1.6.3.8.3v-.1c.1.3.3.5.5.8.1.3.3.5.4.8.1.3.4.5.5.7.1.3.3.5.4.8.2.3.2.6.4.8.2.3.4.5.6.7.2.3.2.6.4.8.2.2.4.4.6.7.2.2.3.5.5.8.2.2.3.5.5.8.2.2.5.4.7.6.2.2.3.6.5.8.2.2.5.3.7.5l.6.6.6.6c.2.2.4.3.7.5.2.2.4.3.7.5.2.2.4.3.7.5.2.1.5.2.8.4.2.1.5.2.8.3.2.1.5.3.7.4.2.1.4.3.6.4.3-.3.4-.3.4-.7-.3-.1-.4-.3-.7-.5-.3-.1-.6-.1-.9-.3-.3-.2-.5-.3-.8-.5-.3-.2-.5-.4-.7-.5-.3-.2-.4-.4-.7-.6-.2-.2-.5-.4-.7-.5-.2-.2-.6-.2-.8-.4-.2-.2-.5-.4-.7-.6-.2-.4-.4-.7-.6-.9zm73.6 18.2c0-.3-.1-.6-.1-1 0-.3 0-.6-.1-1v-.9c0-.3-.2-.6-.2-.8-.1-.3-.2-.5-.3-.8-.1-.3 0-.6 0-.9-.1-.3-.2-.5-.3-.8-.1-.3-.1-.6-.2-.8-.1-.3-.2-.5-.3-.8-.1-.3-.3-.5-.3-.8-.1-.3 0-.6-.1-.9-.1-.3-.2-.5-.3-.8-.1-.3-.2-.5-.2-.8-.2-.2-.3-.5-.3-.8-.1-.3-.1-.6-.2-.9-.1-.3-.3-.5-.4-.8l-.3-.9c-.1-.3 0-.6-.1-.9-.1-.3-.3-.5-.3-.8-.4 0-.5-.1-.9.2.1.3.3.6.3.9.1.3.2.6.2.9l.3.9.3.9.3.9c.1.3.1.6.2.8.1.3.2.5.3.8.1.3.2.5.3.8.1.3.2.5.3.8.1.3.2.5.2.8.1.3.1.6.2.8.1.3.1.6.2.8.1.3.1.6.1.8.1.3.2.5.3.8.1.3.2.5.2.8.1.3 0 .6.1.9v.9c0 .3.2.6.3.9v1c-.3.1-.5.2-.7.4-.2.2-.5.3-.7.5-.2.2-.3.5-.4.7-.2.2-.3.5-.4.7-.1.3-.3.5-.4.7-.2.4-.2.6-.2.7.4.1.4.2.8.3 0 0 .2-.3.4-.8l.3-.9c.2-.3.3-.5.6-.7.2-.2.4-.5.7-.6v.8c0 .3.1.6.1.8 0 .3-.1.6-.1.8 0 .3-.1.6-.1.8-.1.5-.2.8-.2.9.4.1.4.1.9.2 0 0 .1-.4.1-.9 0-.2.1-.5.2-.9 0-.3.1-.6.1-.9v-.9c0-.3-.1-.5-.1-.9.3.1.5.1.8.3l.6.6c.2.2.3.5.4.7.2.3.2.5.4.8.1.3.3.5.4.7.4 0 .4-.1.8-.3 0 0-.1-.3-.3-.8-.1-.2-.2-.5-.4-.8-.1-.2-.3-.5-.5-.8-.2-.2-.4-.4-.7-.6-.2-.2-.5-.4-.7-.5-.3-.2-.6-.2-.9-.3z" style="fill:#d83429"/><g style="opacity:.65"><path d="M55 57.8s-.1 0 0 0zm-.1.1h.1-.1s.1 0 0 0zm.2 1.4zm.5.7zm.1.1zm-.6-.8c.1 0 0 0 0 0zm-.1-1.2zm-.1.8zm-.1-.3c0 .1.1 0 0 0 .1 0 .1 0 0 0 .1 0 .1 0 0 0zm0-.4zm.2.9zm5.8-1zm.2-.3zm-5.2 2.6zm2.5.7V61s-.1.1 0 .1zm-3.3-3zm3.3 2.9zm-1.9-.3zm-.4-.3zm.7.4zm.2.1v-.1zm3.7-2.1zm-5.6-.7zm1.8 2.3zm2.9-.3zm-2.7.4zm3.7-1.7z" style="fill:#fff"/><path d="M60.6 58.6s.1 0 0 0c.1 0 .1 0 0 0 0 .1.1.1.1.1v.1h.1-.1v.1c-.1 0 0-.1-.1-.1h-.1v.1h.1c0 .1-.2 0-.1.1 0 0 .1.1 0 .1h-.1s.1.1 0 .1 0 0 0 .1h-.1v.2c0 .1-.1.1-.2.2v.1c0 .1 0 .2-.1.2v.1c-.1 0-.1.2-.2.1 0 .1-.1 0 0 .1h-.1v.2h-.2v.1-.1c0 .1 0 0 0 0h-.1c-.1 0-.1.1-.1.1s.1.1 0 .1v.1-.1h-.1c-.1 0-.1.1-.1.1v.1H59v.1s-.1 0 0-.1c-.1 0-.1 0-.1.1-.1.1-.2-.1-.2 0l-.1.1V61c-.1.1-.1 0-.2.1-.1-.1-.2 0-.2-.1-.1 0-.3-.1-.4-.1 0 0 0 .2-.1.1v-.1c-.1.1-.2 0-.3 0h-.5c0-.1 0-.1-.1-.1v-.1h-.1c0-.1-.1 0-.1-.1h-.2c0-.1.1 0 .1 0h-.2c-.1 0-.1-.1-.2-.1 0 .1-.1.1-.1.1.1-.1 0-.1.1-.1h-.2s-.1 0-.2-.1c.1 0 0 0 0-.1h-.1s-.1.1-.1 0v-.1h-.1s.1 0 .1-.1h-.1s-.1.1-.1 0-.1-.1-.1-.1h.1c-.1 0-.1-.1-.2-.1s0-.1 0-.1l-.1-.1v-.1h-.1c.1-.1-.1-.1-.1-.2v-.1h-.1.1c.1-.1-.1 0 0 0h.1s-.1 0-.1-.1v-.1c-.1 0 0-.1-.1-.1h.1v-.1c-.1 0 .1-.1 0-.2 0 0-.1 0-.1-.1h.1v-.1s-.1 0 0 0h.1l-.1-.1h.1s0-.1-.1-.1 0 .1 0 .1h-.1.1-.1s-.1 0 0 0c0 .1.1.1 0 .1 0 .1.1 0 .1 0l-.1.1h.2v.1h.1c-.1 0 0 0 0 .1h-.1c.1 0 0 .1 0 .1.1 0 0 0 .1.1v.1h.1-.1s.1 0 .1.1c0 0 .1-.1.1 0h-.1v.1h.1v.1h.1s0 .1.1 0c.1 0 0 .1.1.2l.1.1v.1s0 .1.1.1v.1h-.1c0 .1.2 0 .1.2v-.1.1c0 .1.1 0 .1 0s0-.1.1 0c0 0 0 .1-.1.1v.1c0 .1 0 .1.1.1 0 .1 0 0 .1 0 0 0-.1 0 0 .1h-.1c.1 0 0 .1.1.1 0 0 0-.1.1-.1 0 0 .1 0 0 .1H56c0 .1.1 0 .1 0v.1l.1-.1h.2c.1 0 0 .1.1.1v.1c.1 0 0 .1.1.1l.1-.1h-.1.1-.1c0 .1.1 0 .1.1l-.1.1c0 .1.1 0 .1.1h.1v.1h.1v.1s.1-.1.1 0c0 0 0 .1-.1.1h.1v-.1c0 .1.1 0 .1.1h.1s.1-.1.1 0 .1 0 .1.1h.1l.1-.1v.1-.1.1c0 .1 0 0 .1 0s.1-.1.1-.1c0-.1 0 0 .1 0v.1l.1-.1c0 .1-.1.1-.1.1h.1c0-.1.1-.1.1-.1 0 .1.1 0 .1.1.1-.1.2 0 .2 0v-.1l.1.1.1.1s0-.1 0 0c.1-.1.1.1.1 0 0 0 .1 0 .1-.1.1 0 .1-.1.2-.1 0 0 0-.1 0 0 0 0 0-.1 0 0 .1 0 .1-.1.1-.1 0 .1.1.1.1.1.1 0 .1-.1.2-.2.1.1.2-.1.3-.1v-.1s0-.1.1 0c0 .1.1 0 .1 0V61c.1.1.1-.2.2-.1v-.1s.1 0 .1-.1c0 0-.1-.1 0-.2h.1l.1-.1s.1-.1 0-.1c0 0 .1 0 .1-.1v-.3h.1v-.1c.1 0 0-.1.1-.1v.1s.1 0 .1.1v-.1h.1-.1v-.1l-.1-.1h.2v-.3h.1c.1-.1-.1-.2.1-.3.1-.1 0-.3.1-.4v-.1h.1-.1c0-.1.1-.1.1-.2v-.2s.1 0 .1-.1l-.1-.1h-.2.1-.1.1s-.1 0 0 0l.1.1s0 .1-.1.1c0 0 .1 0 .1.1-.1 0 0 .1-.1 0 .1 0 0 .1.1.1h-.1c.1 0 .1.1.1.1h-.1c.1 0 0 .1.1.1-.6 0-.6 0-.7.1h.1s0-.1-.1 0zm-.2.7zm0 .1s.1 0 0 0zm.4.1zm-.1-.1zm-5.6-.1v-.1zm4.6.7v.1-.1zm-4.6-1.2c.1 0 0 0 0 0zm0-.1c0-.1 0-.1 0 0zm0-.2zm1.1 1.6zm-.5-.3zm1.1.6zm-1-.6s-.1 0 0 0c-.1 0-.1 0 0 0zM55 58zm0 0zm0 0zm0 .1zm0 .1s.1 0 0 0c.1 0 0 0 0 0z" style="fill:#fff"/><path d="M54.9 58.5c-.1-.1-.1-.1 0 0-.1 0-.1-.1 0 0zm0 .1c-.1 0-.1 0 0 0-.1 0-.1 0 0 0zm.4 1c-.1 0-.1 0 0 0zm.3 0v-.1l-.1.1zm-.2.3zm1.4 1c0-.1 0 0 0 0zm.8.1zm2.2-.5z" style="fill:#fff"/></g><g style="opacity:.65"><path d="M59.4 54.3s-.1 0 0 0zm-.1.1h.1-.1zm.2 1.4zm.5.7zm.1.1zm-.6-.8zm-.1-1.2zm-.1.8zm-.1-.3c0 .1.1 0 0 0 .1 0 .1 0 0 0zm0-.4zm.2.9zm5.7-1zm.3-.3zm-5.2 2.6zm2.5.7v-.1s-.1 0 0 .1zm-3.3-3zm3.3 2.9zm-1.9-.3zm-.4-.3zm.6.4zm.3.1v-.1zm3.7-2.1zm-5.6-.7zm1.8 2.3zm2.8-.3zm-2.7.4zm3.7-1.7z" style="fill:#fff"/><path d="M65 55c0 .1.1.1 0 0 .1.1 0 .1 0 0 0 .1.1.1.1.1v.1h.1-.1v.1c-.1 0 0-.1-.1-.1h-.1v.1h.1c0 .1-.2 0-.1.1 0 0 .1.1 0 .1h-.1s.1.1 0 .1 0 0 0 .1h-.1v.2c0 .1-.1.1-.2.2v.1c0 .1 0 .2-.1.2v.1c-.1 0-.1.2-.2.1 0 .1-.1 0 0 .1h-.1v.2h-.2v.1-.1c0 .1 0 0 0 0h-.1c-.1 0-.1.1-.1.1s.1.1 0 .1v.1-.1h-.1c-.1 0-.1.1-.1.1v.1h-.1v.1s-.1 0 0-.1c-.1 0-.1 0-.1.1-.1.1-.2-.1-.2 0l-.1.1v-.1c-.1.1-.1 0-.2.1-.1-.1-.2 0-.2-.1-.1 0-.3-.1-.4-.1 0 0 0 .2-.1.1v-.1c-.1.1-.2 0-.3 0h-.5c0-.1 0-.1-.1-.1v-.1h-.1c0-.1-.1 0-.1-.1h-.2c0-.1.1 0 .1 0h-.2c-.1 0-.1-.1-.2-.1 0 .1-.1.1-.1.1.1-.1 0-.1.1-.1h-.2s-.1 0-.2-.1c.1 0 0 0 0-.1H60s-.1.1-.1 0v-.1h-.1s.1 0 .1-.1h-.1s-.1.1-.1 0-.1-.1-.1-.1h.1c-.1 0-.1-.1-.2-.1s0-.1 0-.1l-.1-.1V56h-.1c.1-.1-.1-.1-.1-.2v-.1h-.1.1c.1-.1-.1 0 0 0h.1s-.1 0-.1-.1v-.1c-.1 0 0-.1-.1-.1h.1v-.1c-.1 0 .1-.1 0-.2 0 0-.1 0-.1-.1h.1v-.1s-.1 0 0 0h.1l-.1-.1h.1s0-.1-.1-.1 0 .1 0 .1h-.1.1-.1s-.1 0 0 0c0 .1.1.1 0 .1 0 .1.1 0 .1 0l-.1.1h.2v.1h.1c-.1 0 0 0 0 .1h-.1c.1 0 0 .1 0 .1.1 0 0 0 .1.1v.1h.1-.1s.1 0 .1.1c0 0 .1-.1.1 0h-.1v.1h.1v.1h.1s0 .1.1 0c.1 0 0 .1.1.2l.1.1v.1s0 .1.1.1v.1H60c0 .1.2 0 .1.2v-.1.1c0 .1.1 0 .1 0s0-.1.1 0c0 0 0 .1-.1.1v.1c0 .1 0 .1.1.1 0 .1 0 0 .1 0 0 0-.1 0 0 .1h-.1c.1 0 0 .1.1.1 0 0 0-.1.1-.1 0 0 .1 0 0 .1h-.1c0 .1.1 0 .1 0v.1l.1-.1h.2c.1 0 0 .1.1.1v.1c.1 0 0 .1.1.1l.1-.1H61h.1-.1c0 .1.1 0 .1.1l-.1.1c0 .1.1 0 .1.1h.1v.1h.1v.1s.1-.1.1 0c0 0 0 .1-.1.1h.1v-.1c0 .1.1 0 .1.1h.1s.1-.1.1 0 .1 0 .1.1h.1l.1-.1v.1-.1.1c0 .1 0 0 .1 0s.1-.1.1-.1c0-.1 0 0 .1 0v.1l.1-.1c0 .1-.1.1-.1.1h.1c0-.1.1-.1.1-.1 0 .1.1 0 .1.1.1-.1.2 0 .2 0v-.1l.1.1.1.1s0-.1 0 0c.1-.1.1.1.1 0 0 0 .1 0 .1-.1.1 0 .1-.1.2-.1 0 0 0-.1 0 0 0 0 0-.1 0 0 .1 0 .1-.1.1-.1 0 .1.1.1.1.1.1 0 .1-.1.2-.2.1.1.2-.1.3-.1v-.1s0-.1.1 0c0 .1.1 0 .1 0v-.1c.1.1.1-.2.2-.1v-.1s.1 0 .1-.1c0 0-.1-.1 0-.2h.1l.1-.1s.1-.1 0-.1c0 0 .1 0 .1-.1v-.3h.1v-.1c.1 0 0-.1.1-.1v.1s.1 0 .1.1v-.1h.1-.1v-.1l-.1-.1h.2v-.3h.1c.1-.1-.1-.2.1-.3.1-.1 0-.3.1-.4v-.1h.1-.1c0-.1.1-.1.1-.2v-.2s.1 0 .1-.1l-.1-.1h-.2.1-.1.1s-.1 0 0 0l.1.1s0 .1-.1.1c0 0 .1 0 .1.1-.1 0 0 .1-.1 0 .1 0 0 .1.1.1h-.1c.1 0 .1.1.1.1h-.1c.1 0 0 .1.1.1-.6.1-.6.1-.7.1h.1c0 .1-.1 0-.1 0 0 .1 0 0 0 0zm-.2.8zm0 .1zm.4 0c0 .1-.1.1 0 0-.1.1-.1 0 0 0zm-.1 0zm-5.6-.2v.1-.1zm4.6.8v.1-.1zm-4.6-1.2zm0-.1c0-.1 0-.1 0 0zm0-.2h-.1zm1.1 1.6zm-.5-.3zm1.1.6zm-1.1-.6zm-.7-1.8zm0 0zm0-.1c0 .1 0 .1 0 0zm0 .2zm0 .1z" style="fill:#fff"/><path d="M59.2 55c0-.1 0-.1 0 0-.1 0 0-.1 0 0zm0 .1zm.5.9c-.1.1-.1.1 0 0zm.3.1V56l-.1.1zm-.2.3zm1.4 1c0-.1 0 0 0 0zm.8.1zm2.2-.5z" style="fill:#fff"/></g><g style="opacity:.65"><path d="M66.4 54.3s-.1 0 0 0zm-.1.1h.1-.1s.1 0 0 0zm.2 1.4zm.5.7zm.1.1zm-.6-.8zm-.1-1.2zm-.1.8zm-.1-.3c0 .1.1 0 0 0 .1 0 .1 0 0 0 .1 0 0 0 0 0zm0-.4zm.2.9zm5.7-1zm.3-.3zm-5.2 2.6zm2.5.7v-.1s-.1 0 0 .1zm-3.3-3zm3.3 2.9zm-1.9-.3zm-.4-.3zm.6.4c.1 0 0 0 0 0zm.3.1v-.1zm3.7-2.1zm-5.6-.7zm1.8 2.3zm2.8-.3zm-2.7.4s.1 0 0 0zm3.7-1.7z" style="fill:#fff"/><path d="M72 55c0 .1.1.1 0 0 .1.1 0 .1 0 0 0 .1.1.1.1.1v.1h.1-.1v.1c-.1 0 0-.1-.1-.1h-.1v.1h.1c0 .1-.2 0-.1.1 0 0 .1.1 0 .1h-.1s.1.1 0 .1 0 0 0 .1h-.1v.2c0 .1-.1.1-.2.2v.1c0 .1 0 .2-.1.2v.1c-.1 0-.1.2-.2.1 0 .1-.1 0 0 .1h-.1v.2h-.2v.1-.1c0 .1 0 0 0 0h-.1c-.1 0-.1.1-.1.1s.1.1 0 .1v.1-.1h-.1c-.1 0-.1.1-.1.1v.1h-.1v.1s-.1 0 0-.1c-.1 0-.1 0-.1.1-.1.1-.2-.1-.2 0l-.1.1v-.1c-.1.1-.1 0-.2.1-.1-.1-.2 0-.2-.1-.1 0-.3-.1-.4-.1 0 0 0 .2-.1.1v-.1c-.1.1-.2 0-.3 0h-.5c0-.1 0-.1-.1-.1v-.1h-.1c0-.1-.1 0-.1-.1h-.2c0-.1.1 0 .1 0h-.2c-.1 0-.1-.1-.2-.1 0 .1-.1.1-.1.1.1-.1 0-.1.1-.1h-.2s-.1 0-.2-.1c.1 0 0 0 0-.1H67s-.1.1-.1 0v-.1h-.1s.1 0 .1-.1h-.1s-.1.1-.1 0-.1-.1-.1-.1h.1c-.1 0-.1-.1-.2-.1s0-.1 0-.1l-.1-.1V56h-.1c.1-.1-.1-.1-.1-.2v-.1h-.1.1c.1-.1-.1 0 0 0h.1s-.1 0-.1-.1v-.1c-.1 0 0-.1-.1-.1h.1v-.1c-.1 0 .1-.1 0-.2 0 0-.1 0-.1-.1h.1v-.1s-.1 0 0 0h.1l-.1-.1h.1s0-.1-.1-.1 0 .1 0 .1h-.1.1-.1s-.1 0 0 0c0 .1.1.1 0 .1 0 .1.1 0 .1 0l-.1.1h.2v.1h.1c-.1 0 0 0 0 .1h-.1c.1 0 0 .1 0 .1.1 0 0 0 .1.1v.1h.1-.1s.1 0 .1.1c0 0 .1-.1.1 0h-.1v.1h.1v.1h.1s0 .1.1 0c.1 0 0 .1.1.2l.1.1v.1s0 .1.1.1v.1H67c0 .1.2 0 .1.2v-.1.1c0 .1.1 0 .1 0s0-.1.1 0c0 0 0 .1-.1.1v.1c0 .1 0 .1.1.1 0 .1 0 0 .1 0 0 0-.1 0 0 .1h-.1c.1 0 0 .1.1.1 0 0 0-.1.1-.1 0 0 .1 0 0 .1h-.1c0 .1.1 0 .1 0v.1l.1-.1h.2c.1 0 0 .1.1.1v.1c.1 0 0 .1.1.1l.1-.1H68h.1-.1c0 .1.1 0 .1.1l-.1.1c0 .1.1 0 .1.1h.1v.1h.1v.1s.1-.1.1 0c0 0 0 .1-.1.1h.1v-.1c0 .1.1 0 .1.1h.1s.1-.1.1 0 .1 0 .1.1h.1l.1-.1v.1-.1.1c0 .1 0 0 .1 0s.1-.1.1-.1c0-.1 0 0 .1 0v.1l.1-.1c0 .1-.1.1-.1.1h.1c0-.1.1-.1.1-.1 0 .1.1 0 .1.1.1-.1.2 0 .2 0v-.1l.1.1.1.1s0-.1 0 0c.1-.1.1.1.1 0 0 0 .1 0 .1-.1.1 0 .1-.1.2-.1 0 0 0-.1 0 0 0 0 0-.1 0 0 .1 0 .1-.1.1-.1 0 .1.1.1.1.1.1 0 .1-.1.2-.2.1.1.2-.1.3-.1v-.1s0-.1.1 0c0 .1.1 0 .1 0v-.1c.1.1.1-.2.2-.1v-.1s.1 0 .1-.1c0 0-.1-.1 0-.2h.1l.1-.1s.1-.1 0-.1c0 0 .1 0 .1-.1v-.3h.1v-.1c.1 0 0-.1.1-.1v.1s.1 0 .1.1v-.1h.1-.1v-.1l-.1-.1h.2v-.3h.1c.1-.1-.1-.2.1-.3.1-.1 0-.3.1-.4v-.1h.1-.1c0-.1.1-.1.1-.2v-.2s.1 0 .1-.1l-.1-.1h-.2.1-.1.1s-.1 0 0 0l.1.1s0 .1-.1.1c0 0 .1 0 .1.1-.1 0 0 .1-.1 0 .1 0 0 .1.1.1h-.1c.1 0 .1.1.1.1h-.1c.1 0 0 .1.1.1-.6.1-.6.1-.7.1h.1c0 .1-.1 0-.1 0 0 .1 0 0 0 0zm-.2.8zm0 .1zm.4 0c0 .1-.1.1 0 0-.1.1-.1 0 0 0zm-.1 0zm-5.6-.2v.1-.1zm4.6.8v.1-.1zm-4.6-1.2zm0-.1c0-.1 0-.1 0 0zm0-.2zm1.1 1.6zm-.5-.3zm1.1.6zm-1.1-.6zm-.7-1.8zm0 0zm0-.1c0 .1 0 .1 0 0zm0 .2zm0 .1s.1 0 0 0c.1 0 0 0 0 0z" style="fill:#fff"/><path d="M66.2 55c0-.1 0-.1 0 0-.1 0 0-.1 0 0zm0 .1zm.5.9c-.1.1-.1.1 0 0zm.3.1V56l-.1.1zm-.2.3zm1.4 1c0-.1 0 0 0 0zm.8.1zm2.2-.5z" style="fill:#fff"/></g><g style="opacity:.65"><path d="M66.4 62.2s-.1 0 0 0zm-.1.1h.1-.1s.1-.1 0 0c0-.1 0 0 0 0zm.2 1.3zm.5.8zm.1.1zm-.6-.9c0 .1 0 .1 0 0zm-.1-1.1zm-.1.8zm-.1-.3s.1 0 0 0c.1 0 .1 0 0 0 .1 0 0 0 0 0zm0-.4zm.2.9zm5.7-1zm.3-.3zm-5.2 2.6zm2.5.7v-.1s-.1 0 0 .1zm-3.3-3zm3.3 2.8zm-1.9-.2zm-.4-.3zm.6.3s0 .1 0 0c.1.1 0 .1 0 0zm.3.1zm3.7-2s0-.1 0 0zm-5.6-.7zm1.8 2.3zm2.8-.3zm-2.7.3c0 .1 0 .1 0 0 0 .1.1.1 0 0zm3.7-1.6z" style="fill:#fff"/><path d="M72 62.9c0 .1.1.1 0 0 .1.1 0 .1 0 0 0 .1.1.1.1.1v.1h.1-.1v.1c-.1 0 0-.1-.1-.1h-.1v.1h.1c0 .1-.2 0-.1.1 0 0 .1.1 0 .1h-.1s.1.1 0 .1 0 0 0 .1h-.1v.2c0 .1-.1.1-.2.2v.1c0 .1 0 .2-.1.2v.1c-.1 0-.1.2-.2.1 0 .1-.1 0 0 .1h-.1v.2h-.2v.1-.1c0 .1 0 0 0 0h-.1c-.1 0-.1.1-.1.1s.1.1 0 .1v.1-.1h-.1c-.1 0-.1.1-.1.1v.1h-.1v.1s-.1 0 0-.1c-.1 0-.1 0-.1.1-.1.1-.2-.1-.2 0l-.1.1v-.1c-.1.1-.1 0-.2.1-.1-.1-.2 0-.2-.1-.1 0-.3-.1-.4-.1 0 0 0 .2-.1.1v-.1c-.1.1-.2 0-.3 0h-.5c0-.1 0-.1-.1-.1V65h-.1c0-.1-.1 0-.1-.1h-.2c0-.1.1 0 .1 0h-.2c-.1 0-.1-.1-.2-.1 0 .1-.1.1-.1.1.1-.1 0-.1.1-.1h-.2s-.1 0-.2-.1c.1 0 0 0 0-.1H67s-.1.1-.1 0v-.1h-.1s.1 0 .1-.1h-.1s-.1.1-.1 0-.1-.1-.1-.1h.1c-.1 0-.1-.1-.2-.1s0-.1 0-.1l-.1-.1v-.1h-.1c.1-.1-.1-.1-.1-.2v-.1h-.1.1c.1-.1-.1 0 0 0h.1s-.1 0-.1-.1v-.1c-.1 0 0-.1-.1-.1h.1v-.1c-.1 0 .1-.1 0-.2 0 0-.1 0-.1-.1h.1v-.1s-.1 0 0 0h.1l-.1-.1h.1s0-.1-.1-.1 0 .1 0 .1h-.1.1-.1s-.1 0 0 0c0 .1.1.1 0 .1 0 .1.1 0 .1 0l-.1.1h.2v.1h.1c-.1 0 0 0 0 .1h-.1c.1 0 0 .1 0 .1.1 0 0 0 .1.1v.1h.1-.1s.1 0 .1.1c0 0 .1-.1.1 0h-.1v.1h.1v.1h.1s0 .1.1 0c.1 0 0 .1.1.2l.1.1v.1s0 .1.1.1v.1H67c0 .1.2 0 .1.2v-.1.1c0 .1.1 0 .1 0s0-.1.1 0c0 0 0 .1-.1.1v.1c0 .1 0 .1.1.1 0 .1 0 0 .1 0 0 0-.1 0 0 .1h-.1c.1 0 0 .1.1.1 0 0 0-.1.1-.1 0 0 .1 0 0 .1h-.1c0 .1.1 0 .1 0v.1l.1-.1h.2c.1 0 0 .1.1.1v.1c.1 0 0 .1.1.1l.1-.1H68h.1-.1c0 .1.1 0 .1.1l-.5-.3c0 .1.1 0 .1.1h.1v.1h.1v.1s.1-.1.1 0c0 0 0 .1-.1.1h.1v-.1c0 .1.1 0 .1.1h.1s.1-.1.1 0 .1 0 .1.1h.1l.1-.1v.1-.1.1c0 .1 0 0 .1 0s.1-.1.1-.1c0-.1 0 0 .1 0v.1l.1-.1c0 .1-.1.1-.1.1h.1c0-.1.1-.1.1-.1 0 .1.1 0 .1.1.1-.1.2 0 .2 0v-.1l.1.1.1.1s0-.1 0 0c.1-.1.1.1.1 0 0 0 .1 0 .1-.1.1 0 .1-.1.2-.1 0 0 0-.1 0 0 0 0 0-.1 0 0 .1 0 .1-.1.1-.1 0 .1.1.1.1.1.1 0 .1-.1.2-.2.5-.1.6-.2.6-.2v-.1s0-.1.1 0c0 .1.1 0 .1 0v-.1c.1.1.1-.2.2-.1v-.1s.1 0 .1-.1c0 0-.1-.1 0-.2h.1l.1-.1s.1-.1 0-.1c0 0 .1 0 .1-.1v-.3h.1v-.1c.1 0 0-.1.1-.1v.1s.1 0 .1.1v-.1h.1-.1v-.1l-.1-.1h.2v-.3h.1c.1-.1-.1-.2.1-.3.1-.1 0-.3.1-.4v-.1h.1-.1c0-.1.1-.1.1-.2v-.2s.1 0 .1-.1l-.1-.1h-.2.1-.1.1s-.1 0 0 0l.1.1s0 .1-.1.1c0 0 .1 0 .1.1-.1 0 0 .1-.1 0 .1 0 0 .1.1.1h-.1c.1 0 .1.1.1.1h-.1c.1 0 0 .1.1.1-.5.6-.5.6-.6.6h.1-.1c0 .1 0 0 0 0zm-.2.8zm0 .1zm.4 0s-.1 0 0 0c-.1 0-.1 0 0 0zm-.1 0zm-5.6-.2zm4.6.8zm-4.6-1.2zm0-.2zm0-.1zm1.1 1.6zm-.5-.3zm1.1.6zm-1.1-.6zm-.7-1.8zm0 0c0-.1 0 0 0 0zm0-.1zm0 .2zm0 .1s.1-.1 0 0c.1-.1 0 0 0 0zm-.2.2c-.1.1 0 0 0 0zm0 .2z" style="fill:#fff"/><path d="M66.7 63.9c-.1.1-.1 0 0 0zm.3.1v-.1h-.1zm-.2.2v.1zm1.4 1.1c0-.1 0 0 0 0zm.8.1zm2.2-.5z" style="fill:#fff"/></g><g style="opacity:.65"><path d="M58.5 62.2s-.1 0 0 0zm-.1.1h.1-.1s.1-.1 0 0c0-.1 0 0 0 0zm.2 1.3zm.5.8zm.1.1zm-.6-.9c.1.1 0 .1 0 0zm-.1-1.1zm-.1.8zm-.1-.3s.1 0 0 0c.1 0 .1 0 0 0 .1 0 .1 0 0 0zm0-.4zm.2.9zm5.8-1zm.2-.3zm-5.2 2.6zm2.5.7v-.1s-.1 0 0 .1zm-3.3-3zm3.3 2.8zm-1.9-.2zm-.4-.3zm.7.3s0 .1 0 0c0 .1 0 .1 0 0zm.2.1zm3.7-2s0-.1 0 0zm-5.6-.7zm1.8 2.3zm2.9-.3zm-2.7.3c0 .1 0 .1 0 0 0 .1 0 .1 0 0zm3.7-1.6z" style="fill:#fff"/><path d="M64.1 62.9c0 .1.1.1 0 0 .1.1.1.1 0 0 0 .1.1.1.1.1v.1h.1-.1v.1c-.1 0 0-.1-.1-.1H64v.1h.1c0 .1-.2 0-.1.1 0 0 .1.1 0 .1h-.1s.1.1 0 .1 0 0 0 .1h-.1v.2c0 .1-.1.1-.2.2v.1c0 .1 0 .2-.1.2v.1c-.1 0-.1.2-.2.1 0 .1-.1 0 0 .1h-.1v.2H63v.1-.1c0 .1 0 0 0 0h-.1c-.1 0-.1.1-.1.1s.1.1 0 .1v.1-.1h-.1c-.1 0-.1.1-.1.1v.1h-.1v.1s-.1 0 0-.1c-.1 0-.1 0-.1.1-.1.1-.2-.1-.2 0l-.1.1v-.1c-.1.1-.1 0-.2.1-.1-.1-.2 0-.2-.1-.1 0-.3-.1-.4-.1 0 0 0 .2-.1.1v-.1c-.1.1-.2 0-.3 0h-.5c0-.1 0-.1-.1-.1V65h-.1c0-.1-.1 0-.1-.1h-.2c0-.1.1 0 .1 0h-.2c-.1 0-.1-.1-.2-.1 0 .1-.1.1-.1.1.1-.1 0-.1.1-.1h-.2s-.1 0-.2-.1c.1 0 0 0 0-.1h-.1s-.1.1-.1 0v-.1h-.1s.1 0 .1-.1h-.1s-.1.1-.1 0-.1-.1-.1-.1h.1c-.1 0-.1-.1-.2-.1s0-.1 0-.1l-.1-.1v-.1h-.1c.1-.1-.1-.1-.1-.2v-.1h-.1.1c.1-.1-.1 0 0 0h.1s-.1 0-.1-.1v-.1c-.1 0 0-.1-.1-.1h.1v-.1c-.1 0 .1-.1 0-.2 0 0-.1 0-.1-.1h.1v-.1s-.1 0 0 0h.1l-.1-.1h.1s0-.1-.1-.1 0 .1 0 .1h-.1.1-.1s-.1 0 0 0c0 .1.1.1 0 .1 0 .1.1 0 .1 0l-.1.1h.2v.1h.1c-.1 0 0 0 0 .1h-.1c.1 0 0 .1 0 .1.1 0 0 0 .1.1v.1h.1-.1s.1 0 .1.1c0 0 .1-.1.1 0h-.1v.1h.1v.1h.1s0 .1.1 0c.1 0 0 .1.1.2l.1.1v.1s0 .1.1.1v.1h-.1c0 .1.2 0 .1.2v-.1.1c0 .1.1 0 .1 0s0-.1.1 0c0 0 0 .1-.1.1v.1c0 .1 0 .1.1.1 0 .1 0 0 .1 0 0 0-.1 0 0 .1h-.1c.1 0 0 .1.1.1 0 0 0-.1.1-.1 0 0 .1 0 0 .1h-.1c0 .1.1 0 .1 0v.1l.1-.1h.2c.1 0 0 .1.1.1v.1c.1 0 0 .1.1.1l.1-.1h-.1.1-.1c0 .1.1 0 .1.1l-.5-.3c0 .1.1 0 .1.1h.1v.1h.1v.1s.1-.1.1 0c0 0 0 .1-.1.1h.1v-.1c0 .1.1 0 .1.1h.1s.1-.1.1 0 .1 0 .1.1h.1l.1-.1v.1-.1.1c0 .1 0 0 .1 0s.1-.1.1-.1c0-.1 0 0 .1 0v.1l.1-.1c0 .1-.1.1-.1.1h.1c0-.1.1-.1.1-.1 0 .1.1 0 .1.1.1-.1.2 0 .2 0v-.1l.1.1.1.1s0-.1 0 0c.1-.1.1.1.1 0 0 0 .1 0 .1-.1.1 0 .1-.1.2-.1 0 0 0-.1 0 0 0 0 0-.1 0 0 .1 0 .1-.1.1-.1 0 .1.1.1.1.1.1 0 .1-.1.2-.2.1.1.2-.1.3-.1V65s0-.1.1 0c0 .1.1 0 .1 0v-.1c.1.1.1-.2.2-.1v-.1s.1 0 .1-.1c0 0-.1-.1 0-.2h.1l.1-.1s.1-.1 0-.1c0 0 .1 0 .1-.1v-.3h.1v-.1c.1 0 0-.1.1-.1v.1s.1 0 .1.1v-.1h.1-.1v-.1l-.1-.1h.2v-.3h.1c.1-.1-.1-.2.1-.3.1-.1 0-.3.1-.4v-.1h.1-.1c0-.1.1-.1.1-.2V62s.1 0 .1-.1l-.1-.1h-.2.1-.1.1s-.1 0 0 0l.1.1s0 .1-.1.1c0 0 .1 0 .1.1-.1 0 0 .1-.1 0 .1 0 0 .1.1.1h-.1c.1 0 .1.1.1.1h-.1c.1 0 0 .1.1.1-.2.5-.2.5-.3.5h.1-.1c0 .1 0 0 0 0zm-.2.8zm0 .1s.1 0 0 0zm.4 0zm-.1 0zm-5.6-.2h.1zm4.6.8zm-4.6-1.2c.1 0 0 0 0 0zm0-.2zm0-.1zm1.1 1.6c.1 0 0 0 0 0zm-.5-.3zm1.1.6zm-1-.6s-.1 0 0 0c-.1 0-.1 0 0 0zm-.8-1.8zm0 0c0-.1 0 0 0 0zm0-.1zm0 .2zm0 .1s.1-.1 0 0c.1-.1 0 0 0 0z" style="fill:#fff"/><path d="M58.4 62.8c-.1 0-.1 0 0 0-.1.1 0 0 0 0zm0 .2c-.1 0-.1 0 0 0-.1 0 0 0 0 0zm.4.9c0 .1 0 0 0 0zm.3.1v-.1zm-.2.2v.1zm1.4 1.1c0-.1 0 0 0 0zm.8.1zm2.2-.5z" style="fill:#fff"/></g><g style="opacity:.65"><path d="M73.9 62.2s0 .1 0 0zm0 .2h.1c-.1 0 0-.1-.1 0 0-.1 0-.1 0 0 0-.1 0-.1 0 0 0-.1 0-.1 0 0zm.6 1.2zm.7.5zm.1.2zm-.8-.7zm-.4-1.1s-.1 0 0 0zm.1.8zm-.2-.2s.1 0 0 0c.1 0 .1 0 0 0 .1 0 .1 0 0 0zm-.1-.5zm.4.9zm5.2-2.6zm.2-.4zm-4.2 3.9zm2.5 0s.1-.1 0 0c0-.1 0 0 0 0zm-3.9-1.9zm3.9 1.8zm-1.9.3zm-.4-.2zm.7.2zm.2 0zm3-3c0-.1 0-.1 0 0zm-5.6.9s.1 0 0 0zm2.4 1.7c.1 0 .1 0 0 0zm2.7-1.1zm-2.5 1.1zm3.1-2.7z" style="fill:#fff"/><path d="M79.5 61.3h.1c.1.1 0 0-.1 0 0 .1.1.1.1.1s0 .1.1.1h.1-.1s.1.1 0 .1 0-.1-.1 0h-.1v.1h.1c0 .1-.2 0-.1.1 0 0 .1 0 .1.1h-.1s.1 0 0 .1c-.1 0 0 0 0 .1h-.1v.2h-.1c0 .1 0 .1-.1.2v.2s.1.1 0 .1c-.1.1-.1.2-.2.2.1 0-.1.1 0 .1h-.1v.2h-.2v.1c0 .1 0 0 0 0s-.1 0-.1.1l-.1.1s.1 0 .1.1c0 0-.1 0-.1-.1 0 0-.1 0 0 0l-.1.1v.1h-.1v.1h-.1s0 .1-.1.1c0 .1-.2 0-.2.1v.1-.1c0 .1-.1 0-.1.1-.1-.1-.1.1-.2 0-.1.1-.3 0-.4 0 0 0 0 .2-.1.1v-.1c-.1.1-.2 0-.3.1h-.1s-.1.1-.1 0h-.2c0 .1-.1 0-.1 0 0-.1-.1-.1-.1 0v-.1h-.1c0-.1-.1.1-.1-.1h-.2c0-.1.1 0 .1-.1-.1 0-.1.1-.2 0h-.2c0 .1-.1.1-.1.1.1-.1 0 0 0-.2H75c.1-.1 0 0 0-.1h-.2s0 .1-.1 0v-.1h-.1v-.1h-.1s0 .1-.1 0c0 0-.1 0-.1-.1s0 0 .1 0c-.1 0-.2 0-.2-.1-.1.1 0-.1-.1-.1 0 0-.1 0-.1-.1v-.1c0-.2-.2-.1-.1-.2h-.1v.1h-.1s.1 0 .1-.1-.1 0-.1 0h-.1.1-.1v-.2h-.1.1-.1c-.1 0 0-.1-.1-.1s-.1 0-.2-.1h.1v-.1s-.1 0 0 0h.1-.1.1s0-.1-.1 0 0 .1 0 .1h-.1.1-.1c0 .1.1 0 0 .1h.1l-.1.1h.2c0 .1.1.1 0 .1h.1c-.1.1 0 0 0 .1h-.1c.1 0 0 .1 0 .1.1 0 .1 0 .1.1v.1h.1-.1.1s.1 0 .1.1l.1-.1h-.1v.2h.1s.1.1.1 0c.1 0 .1.1.1.1h.1v.1h.1s0 .1.1 0v.1c0 .1.2 0 .2.1v-.1.1c0 .1.1 0 .1 0s0-.1.1-.1v.2s.1 0 .1.1 0 0 .1 0v.2c.1 0 .1.1.1.1s0-.1.1-.1c0 0 .1 0 0 .1 0 0 0 .1-.1 0 0 .1 0 0 .1 0v.1-.1h.2s0 .1.1.1v.1c.1 0 0 .1.1 0v-.1h-.1.1-.1v-.1c0 .1.1 0 .1 0v.1c0 .1.1 0 .2 0h.1v.1l.1-.1c.1 0 .1-.1.1-.1v.1h.1v-.1c0 .1.1 0 .2.1h.1s0-.1.1-.1v.1c0 .1.1 0 .1 0h.1c0-.1.1-.1.1-.1v.1-.1l.1.1c0 .1 0 0 .1 0s0-.1.1-.1c0-.1 0 0 .1 0v.1l.1-.1c0 .1 0 .1-.1.1 0 0 .1 0 .1-.1s0-.1.1-.1c0 .1.1 0 .2.1.1-.1.2 0 .2-.1-.1-.1 0 0 0-.1h.1v.1h.1v-.1h-.1c0-.1.1.1.1 0l.1-.1c.1 0 .1-.2.2-.2 0 0 0-.1 0 0v-.1c.1 0 .1-.1.1-.2 0 .1.1 0 .1 0 .1-.1.1-.2.1-.2.1 0 .1-.1.2-.1v-.1s0-.1 0 0h.1l-.1-.1c.2 0 .1-.2.2-.2v-.1l.1-.1-.1-.1h.1c0-.1.1-.1.1-.2 0 0 .1-.1 0-.1.1 0 0-.1 0-.1 0-.1-.1-.1-.1-.1v-.2s0-.1.1 0c0 0-.1 0 0-.1v-.1.1h.1l-.1-.1v-.1h-.1v-.1H79h.2c0-.1 0-.1-.1-.2 0 0 0-.1-.1-.1h.1c.1-.1-.2-.2 0-.3.1-.1-.1-.3 0-.4l-.1-.1h.1-.1c-.1 0 .1-.1 0-.2V60h-.1c0-.1.1 0 .1-.1 0 0-.1-.1-.1 0-.1 0-.2 0-.2.1h.2-.1.1s-.1 0 0 0h.1s0 .1-.1.1h.1c-.1 0 0 .1-.1.1.1 0 0 .1.1.1h.1-.1.1c.5.9.5.9.4 1 .1-.1.1 0 .1 0h-.1c.1 0 0 0 0 0zm.1.8zm0 .1zm.3-.1c.1 0 0 0 0 0zm0 0zm-5.4 1.5zm4.6-.6zm-4.7.2c0-.1 0 0 0 0zm-.1-.2zm-.1-.1zm1.6 1.2zm-.6-.2zm1.2.3zm-1.1-.3c-.1 0-.1 0 0 0-.1 0-.1 0 0 0zM74 62.4zm0 0zm0 0zm.1.1zm0 .1c0-.1 0 0 0 0z" style="fill:#fff"/><path d="M74 62.9s-.1 0 0 0c-.1 0 0-.1 0 0zm0 .1c0 .1 0 .1 0 0zm.7.8c0 .1 0 0 0 0zm.3 0v-.1.1zm-.1.3zm1.7.5s0 .1 0 0zm.8-.1c0 .1 0 .1 0 0zm1.9-1.1z" style="fill:#fff"/></g><g style="opacity:.65"><path d="M62 57.8s-.1 0 0 0zm-.1.1h.1-.1s.1 0 0 0zm.2 1.4zm.5.7zm.1.1zm-.6-.8c.1 0 0 0 0 0zm-.1-1.2zm0 .8h-.1zm-.1-.3c0 .1 0 0 0 0zm-.1-.4zm.2.9zm5.8-1zm.2-.3zm-5.1 2.6c-.1 0-.1 0 0 0zm2.4.7V61v.1zm-3.3-3zm3.3 2.9zm-1.9-.3zm-.4-.3zm.7.4zm.2.1v-.1zm3.7-2.1zm-5.6-.7zm1.8 2.3c.1 0 0 0 0 0zm2.9-.3zm-2.7.4zm3.7-1.7zm-.1-.2s.1 0 0 0c.1 0 .1 0 0 0 0 .1.1.1.1.1v.1h.1-.1v.1c-.1 0 0-.1-.1-.1h-.1v.1h.1c0 .1-.2 0-.1.1 0 0 .1.1 0 .1h-.1s.1.1 0 .1 0 0 0 .1h-.1v.2c0 .1-.1.1-.2.2v.1c0 .1 0 .2-.1.2v.1c-.1 0-.1.2-.2.1 0 .1-.1 0 0 .1h-.1v.2h-.2v.1-.1c0 .1 0 0 0 0h-.1c-.1 0-.1.1-.1.1s.1.1 0 .1v.1-.1h-.1c-.1 0-.1.1-.1.1v.1H66v.1s-.1 0 0-.1c-.1 0-.1 0-.1.1-.1.1-.2-.1-.2 0l-.1.1V61c-.1.1-.1 0-.2.1-.1-.1-.2 0-.2-.1-.1 0-.3-.1-.4-.1 0 0 0 .2-.1.1v-.1c-.1.1-.2 0-.3 0h-.5c0-.1 0-.1-.1-.1v-.1h-.1c0-.1-.1 0-.1-.1h-.2c0-.1.1 0 .1 0h-.2c-.1 0-.1-.1-.2-.1 0 .1-.1.1-.1.1.1-.1 0-.1.1-.1h-.2s-.1 0-.2-.1c.1 0 0 0 0-.1h-.1s-.1.1-.1 0v-.1h-.1s.1 0 .1-.1h-.1s-.1.1-.1 0-.1-.1-.1-.1h.1c-.1 0-.1-.1-.2-.1s0-.1 0-.1l-.1-.1v-.1h-.1c.1-.1-.1-.1-.1-.2v-.1h-.1.1c.1-.1-.1 0 0 0h.1s-.1 0-.1-.1v-.1c-.1 0 0-.1-.1-.1h.1v-.1c-.1 0 .1-.1 0-.2 0 0-.1 0-.1-.1h.1v-.1s-.1 0 0 0h.1l-.1-.1h.1s0-.1-.1-.1 0 .1 0 .1h-.1.1-.1s-.1 0 0 0c0 .1.1.1 0 .1 0 .1.1 0 .1 0l-.1.1h.2v.1h.1c-.1 0 0 0 0 .1h-.1c.1 0 0 .1 0 .1.1 0 0 0 .1.1v.1h.1-.1s.1 0 .1.1c0 0 .1-.1.1 0h-.1v.1h.1v.1h.1s0 .1.1 0c.1 0 0 .1.1.2l.1.1v.1s0 .1.1.1v.1h-.1c0 .1.2 0 .1.2v-.1.1c0 .1.1 0 .1 0s0-.1.1 0c0 0 0 .1-.1.1v.1c0 .1 0 .1.1.1 0 .1 0 0 .1 0 0 0-.1 0 0 .1h-.1c.1 0 0 .1.1.1 0 0 0-.1.1-.1 0 0 .1 0 0 .1H63c0 .1.1 0 .1 0v.1l.1-.1h.2c.1 0 0 .1.1.1v.1c.1 0 0 .1.1.1l.1-.1h-.1.1-.1c0 .1.1 0 .1.1l-.1.1c0 .1.1 0 .1.1h.1v.1h.1v.1s.1-.1.1 0c0 0 0 .1-.1.1h.1v-.1c0 .1.1 0 .1.1h.1s.1-.1.1 0 .1 0 .1.1h.1l.1-.1v.1-.1.1c0 .1 0 0 .1 0s.1-.1.1-.1c0-.1 0 0 .1 0v.1l.1-.1c0 .1-.1.1-.1.1h.1c0-.1.1-.1.1-.1 0 .1.1 0 .1.1.1-.1.2 0 .2 0v-.1l.1.1.1.1s0-.1 0 0c.1-.1.1.1.1 0 0 0 .1 0 .1-.1.1 0 .1-.1.2-.1 0 0 0-.1 0 0 0 0 0-.1 0 0 .1 0 .1-.1.1-.1 0 .1.1.1.1.1.1 0 .1-.1.2-.2.1.1.2-.1.3-.1v-.1s0-.1.1 0c0 .1.1 0 .1 0V61c.1.1.1-.2.2-.1v-.1s.1 0 .1-.1c0 0-.1-.1 0-.2h.1l.1-.1s.1-.1 0-.1c0 0 .1 0 .1-.1v-.3h.1v-.1c.1 0 0-.1.1-.1v.1s.1 0 .1.1v-.1h.1-.1v-.1l-.1-.1h.2v-.3h.1c.1-.1-.1-.2.1-.3.1-.1 0-.3.1-.4v-.1h.1-.1c0-.1.1-.1.1-.2v-.2s.1 0 .1-.1l-.1-.1h-.2.1-.1.1s-.1 0 0 0l.1.1s0 .1-.1.1c0 0 .1 0 .1.1-.1 0 0 .1-.1 0 .1 0 0 .1.1.1h-.1c.1 0 .1.1.1.1h-.1c.1 0 0 .1.1.1-.6 0-.6 0-.7.1h.1s0-.1-.1 0c.1 0 0 0 0 0zm-.2.7s.1 0 0 0c.1 0 0 0 0 0zm0 .1s.1 0 0 0zm.4.1zm-.1-.1zm-5.5-.1v-.1zm4.5.7v.1-.1zm-4.6-1.2c.1 0 .1 0 0 0zm0-.1c0-.1 0-.1 0 0zm0-.2zm1.1 1.6c.1 0 0 0 0 0zm-.5-.3zm1.1.6zm-1-.6c-.1 0-.1 0 0 0zM62 58zm0 0zm0 0zm0 .1zm0 .1s.1 0 0 0c.1 0 0 0 0 0z" style="fill:#fff"/><path d="M61.9 58.5c-.1-.1-.1-.1 0 0-.1 0 0-.1 0 0zm0 .1c-.1 0-.1 0 0 0-.1 0 0 0 0 0zm.4 1zm.3 0v-.1.1zm-.2.3zm1.4 1c0-.1 0 0 0 0zm.8.1zm2.2-.5z" style="fill:#fff"/></g><g style="opacity:.65"><path d="M69 57.8s-.1 0 0 0zm-.1.1h.1-.1c.1 0 .1 0 0 0zm.3 1.4zm.4.7zm.1.1zm-.5-.8zm-.2-1.2zm0 .8h-.1zm-.1-.3c0 .1 0 0 0 0zm0-.4zm.1.9zm5.8-1zm.2-.3h.1zm-5.1 2.6c-.1 0 0 0 0 0zm2.4.7V61v.1zm-3.3-3zm3.3 2.9zm-1.9-.3zm-.4-.3c.1 0 0 0 0 0zm.7.4zm.2.1v-.1zm3.7-2.1zm-5.6-.7zm1.8 2.3c.1 0 0 0 0 0zm2.9-.3zm-2.7.4zm3.7-1.7zm-.1-.2s.1 0 0 0c.1 0 .1 0 0 0 0 .1.1.1.1.1v.1h.1-.1v.1c-.1 0 0-.1-.1-.1h-.1v.1h.1c0 .1-.2 0-.1.1 0 0 .1.1 0 .1h-.1s.1.1 0 .1 0 0 0 .1h-.1v.2c0 .1-.1.1-.2.2v.1c0 .1 0 .2-.1.2v.1c-.1 0-.1.2-.2.1 0 .1-.1 0 0 .1h-.1v.2h-.2v.1-.1c0 .1 0 0 0 0h-.1c-.1 0-.1.1-.1.1s.1.1 0 .1v.1-.1h-.1c-.1 0-.1.1-.1.1v.1H73v.1s-.1 0 0-.1c-.1 0-.1 0-.1.1-.1.1-.2-.1-.2 0l-.1.1V61c-.1.1-.1 0-.2.1-.1-.1-.2 0-.2-.1-.1 0-.3-.1-.4-.1 0 0 0 .2-.1.1v-.1c-.1.1-.2 0-.3 0h-.5c0-.1 0-.1-.1-.1v-.1h-.1c0-.1-.1 0-.1-.1h-.2c0-.1.1 0 .1 0h-.2c-.1 0-.1-.1-.2-.1 0 .1-.1.1-.1.1.1-.1 0-.1.1-.1h-.2s-.1 0-.2-.1c.1 0 0 0 0-.1h-.1s-.1.1-.1 0v-.1h-.1s.1 0 .1-.1h-.1s-.1.1-.1 0-.1-.1-.1-.1h.1c-.1 0-.1-.1-.2-.1s0-.1 0-.1l-.1-.1v-.1h-.1c.1-.1-.1-.1-.1-.2v-.1h-.1.1c.1-.1-.1 0 0 0h.1s-.1 0-.1-.1v-.1c-.1 0 0-.1-.1-.1h.1v-.1c-.1 0 .1-.1 0-.2 0 0-.1 0-.1-.1h.1v-.1s-.1 0 0 0h.1l-.1-.1h.1s0-.1-.1-.1 0 .1 0 .1h-.1.1-.1s-.1 0 0 0c0 .1.1.1 0 .1 0 .1.1 0 .1 0l-.1.1h.2v.1h.1c-.1 0 0 0 0 .1h-.1c.1 0 0 .1 0 .1.1 0 0 0 .1.1v.1h.1-.1s.1 0 .1.1c0 0 .1-.1.1 0h-.1v.1h.1v.1h.1s0 .1.1 0c.1 0 0 .1.1.2l.1.1v.1s0 .1.1.1v.1h-.1c0 .1.2 0 .1.2v-.1.1c0 .1.1 0 .1 0s0-.1.1 0c0 0 0 .1-.1.1v.1c0 .1 0 .1.1.1 0 .1 0 0 .1 0 0 0-.1 0 0 .1h-.1c.1 0 0 .1.1.1 0 0 0-.1.1-.1 0 0 .1 0 0 .1H70c0 .1.1 0 .1 0v.1l.1-.1h.2c.1 0 0 .1.1.1v.1c.1 0 0 .1.1.1l.1-.1h-.1.1-.1c0 .1.1 0 .1.1l-.1.1c0 .1.1 0 .1.1h.1v.1h.1v.1s.1-.1.1 0c0 0 0 .1-.1.1h.1v-.1c0 .1.1 0 .1.1h.1s.1-.1.1 0 .1 0 .1.1h.1l.1-.1v.1-.1.1c0 .1 0 0 .1 0s.1-.1.1-.1c0-.1 0 0 .1 0v.1l.1-.1c0 .1-.1.1-.1.1h.1c0-.1.1-.1.1-.1 0 .1.1 0 .1.1.1-.1.2 0 .2 0v-.1l.1.1.1.1s0-.1 0 0c.1-.1.1.1.1 0 0 0 .1 0 .1-.1.1 0 .1-.1.2-.1 0 0 0-.1 0 0 0 0 0-.1 0 0 .1 0 .1-.1.1-.1 0 .1.1.1.1.1.1 0 .1-.1.2-.2.1.1.2-.1.3-.1v-.1s0-.1.1 0c0 .1.1 0 .1 0V61c.1.1.1-.2.2-.1v-.1s.1 0 .1-.1c0 0-.1-.1 0-.2h.1l.1-.1s.1-.1 0-.1c0 0 .1 0 .1-.1v-.3h.1v-.1c.1 0 0-.1.1-.1v.1s.1 0 .1.1v-.1h.1-.1v-.1l-.1-.1h.2v-.3h.1c.1-.1-.1-.2.1-.3.1-.1 0-.3.1-.4v-.1h.1-.1c0-.1.1-.1.1-.2v-.2s.1 0 .1-.1l-.1-.1h-.2.1-.1.1s-.1 0 0 0l.1.1s0 .1-.1.1c0 0 .1 0 .1.1-.1 0 0 .1-.1 0 .1 0 0 .1.1.1h-.1c.1 0 .1.1.1.1h-.1c.1 0 0 .1.1.1-.6 0-.6 0-.7.1h.1s0-.1-.1 0c.1 0 0 0 0 0zm-.1.7zm-.1.1s.1 0 0 0zm.4.1zm-.1-.1zm-5.5-.1v-.1zm4.5.7v.1-.1zm-4.5-1.2zm-.1-.1c0-.1 0-.1 0 0zm0-.2zm1.1 1.6c.1 0 0 0 0 0zm-.5-.3zm1.1.6zm-1-.6zM69 58zm0 0zm0 0zm0 .1c.1 0 0 0 0 0zm0 .1s.1 0 0 0c.1 0 0 0 0 0z" style="fill:#fff"/><path d="M68.9 58.5c0-.1-.1-.1 0 0-.1 0 0-.1 0 0zm0 .1s-.1 0 0 0zm.4 1zm.3 0v-.1.1zm-.2.3zm1.5 1c0-.1-.1 0 0 0zm.7.1zm2.2-.5z" style="fill:#fff"/></g><g style="opacity:.65"><path d="M52.3 89.7v-.2.2zm-.1-.5v.7-.5.2-.1c0-.2 0-.2 0 0v-.3zm-.9-.5zm-.6-.2zm-.1-.3zm.7.5zm.8 1.2c0-.1 0-.1 0 0 0-.1 0-.1 0 0 0-.1 0-.1 0 0zm-.5-1.4v-.1.1zm.2-.1v.3-.2c-.1 0 0 0 0-.1zm.2.5c0-.1 0-.1 0 0zm-.6-.5s0-.1 0 0c0-.1 0 0 0 0zM46 90.1zm-.2-1.2v-.2.2zm4.7-1c0-.1 0-.1 0 0zm-1.7.1v.5-.5zm3.3 1.8s-.1 0 0 0c-.1 0 0 0 0 0zm-3.3-1.3zm1.3-.5v.1-.1zm.3.4c-.1-.1 0 0 0 0zm-.5-.1zm-.2 0c0 .1 0 .1 0 0 0 .1 0 .1 0 0zM46.5 90v-.2c0 .1-.1.2 0 .2zm5.6-.3v.1-.1c0 .1 0 0 0 0zm-2.3.6zm-2.1-.3c-.1 0 0 0 0 0zm2 .3v-.2.2zm-3.2-.5z" style="fill:#fff"/><path d="M46.3 90.3v-.5.5c.1-.2.1-.5.1-.5v.1c0-.3.1 0 .1-.3v.1-.4s0-.2 0 0v.1-.1.3c0-.1.1-.3.1-.3v.4-.1.5c0 .1 0-.2.1-.1v-.4c.1-.3 0 .7.1.4 0-.2 0-.6.1-.4v.3s0-.5.1-.3v.2-.2.3l.1-.3v.3c.1-.1.1 0 .2.2v-.3.2-.3.2c0-.2.1-.5.1-.2v.1c0 .1 0-.5.1-.3.1.1.1-.1.2.3 0-.4.1.2.1-.3 0 .3 0 .3.1.5v-.4.3-.3.3-.3c0-.1.1.2 0 .3l.1-.2v.2c0-.3 0 .3 0 0v-.2c0 .2 0 .2.1.1v.2l.1-.1v-.4.3-.3.4-.1.2c0-.2 0 .3 0 0v.1l.1-.1v-.4c0 .1.1.3.1.3v-.4.4s.1 0 .1-.2v-.2.2c.1-.3.1.7.2.2l.1-.2v.3c.1-.4.1.1.1-.2 0 .7.1 0 .1.4V90v.1-.2c.1-.2.2.2.3.4 0 0 0-.8.1-.4v.3c.1-.3.1 0 .2-.3v.2c0 .2.1 0 .1-.2v.2-.1.1-.2c0 .1.1-.1.1 0 0-.3 0 .1.1-.3 0 .4 0 .3.1.1v.3-.3c0 .5.1-.4.1.2.1-.2.1-.4.2-.4 0 .4-.1 0-.1.5.1-.2.1-.5.1-.4v.2c.1-.2.1 0 .1-.2v.1-.1c0-.3.1-.5.1-.7v.8-.2.2c0-.1 0-.3.1-.3v.2c0-.2 0-.3.1-.3v.1s.1-.4.1-.3v.5-.3s0-.2.1-.1v.1-.5.2-.1.4c0-.3.1-.1.1-.4v.3-.2.2-.2.1c0 .1.1-.1.1 0v.4c0-.1.1-.4.1-.3 0-.5 0 .2.1 0v.2c0 .1.1-.1.1-.3v.1c0 .1 0 .1.1.1V89c0 .7.1-.4.2.2v.1-.6.4-.4.1-.2.3s0-.4.1-.2v.4-.1c0-.6 0-.1.1-.5v.7-.1.2-.3c0-.3.1.4.1 0 0-.2.1-.5.1-.6v.3c0 .1 0 .1 0 0v.2-.2.3c0-.1 0-.2.1-.3v.3c0-.1.1-.1.1-.4v-.1.2-.3c0-.5-.1.1-.1 0V88v.3-.6.1-.2c0-.2-.1.3-.1 0 0 .1 0 .3-.1.6v-.7.3-.1.3c0-.2-.1.1-.1-.3v.3-.4c0 .4 0-.1-.1 0 0 .3 0 .1-.1.2 0-.1 0-.2-.1-.3v-.1c0 .3 0 .3-.1.3v-.4.2-.2s-.1.3-.1.1v.8-.4s0 .1 0 0v-.2.2-.3s0 .1 0 0v-.3.3-.3.3-.2c0 .1-.1 0-.1.3s-.1-.1-.1 0v-.1c0 .1-.1.1-.1.2v-.3c0 .1 0 .2 0 0v-.1c0-.1 0-.2-.1 0v-.2.2-.3c0-.4-.1.6-.1 0v.4-.5c0-.2 0 .4-.1.3v.5-.5.1-.2.1-.3.2c0-.2 0 0-.1-.1v.2c0-.1 0 .2-.1.2v-.6c0 .2 0-.1-.1-.2v-.1.2-.1.5-.6c0-.2 0 .3-.1.3v-.3.8-.1c0 .3 0-.3-.1-.1v-.4c0 .2 0-.2-.1 0v.4l.1-.1v.3-.1.3c0-.3 0 .2-.1 0V87c0-.2-.1.3-.1.1v.2-.3.3-.2c0-.1-.1.5-.1.4v-.4.4-.1.3c0-.5-.1 0-.1-.4 0 .1-.1.1-.1.1v-.1c0-.2 0 .5-.1.3v-.3c0-.6 0 .1-.1-.3 0-.2 0 .2-.1.2v-.1c0 .3-.1.4-.1.5v-.3.4-.5c0-.3 0 0 0 0v-.1s0 .4-.1.4v.2-.3c0 .1-.1.3-.1.4 0-.3.1-.4.1-.5l-.1.2v-.1c0 .3-.1.4-.1.4 0-.7-.1-.2-.1-.7-.1.2-.1-.1-.2-.1v.5-.9.4c0 .3 0-.5-.1-.2v-.2c0 .1-.1 0-.1.4v-.2c0-.1-.1.5-.2.2v-.1.1-.1.2-.1c0-.2-.1.4-.1.4v-.7c-.1 0-.1.3-.2.5 0-.4-.1-.2-.2-.4v.3-.4.5c0-.7-.1.2-.2-.4v.2-.2c0-.1 0-.1-.1 0v-.2l-.1.7v-.4s-.1-.3-.1 0v-.2s-.1-.3-.1.3c0-.3 0 0-.1.1v-.2c0 .3 0 .4-.1.5v-.1.1-.2.2-.3.2-.2c0-.2-.1.3-.1 0V87s.1 0 0 0v-.6c0 .2-.1.5-.1.4v-.3.9-.7c0 .1-.1.1-.1.6V87c0 .1-.1 0-.1.4v-.3c-.1-.5-.1.8-.2.2v.1c-.1-.3-.2.3-.3-.2 0-.1 0 .1-.1.3v-.3.3c0 .2 0-.7-.1-.2v.2s-.1.1 0-.1v.1-.1.2-.6c0 .1-.1.4-.1.5v1.4-.2.2-.1.2-.4.4-.5.4c0-.1 0-.1.1-.3v.3-.3.5c0-.4.1-.2.1-.4v.3c0-.3 0-.4.1-.6 0 1.4 0 1.5.1 1.9-.1-.4-.1-.4-.1-.6v.4-.3.3c.1.1.1.2.1.2zm.6-.7zm0 0v-.2.2zm0-1.7c0 .1 0 .1 0 0v.1-.1z" style="fill:#fff"/><path d="M46.9 88.2c-.1.1 0 .1 0 0 0 .1 0 0 0 0zm4.4.5zm-3.7 1.4V90v.1zm3.9-.5c.1 0 .1 0 0 0zm.2 0c0 .1 0 0 0 0zm.1.2v-.1.1zm-1.5.2c0 .1 0 0 0 0zm.5-.6v.1c-.1.1-.1.1 0-.1zm-1 .9zm.9-.7c0-.1 0-.1 0 0zm1.4.3zm0-.1zm.1 0zm-.2 0zm0 0v.1-.1c0 .2 0-.2 0 0zm-.1-1.1v-.2.2zm-.1-.2v-.2.2zm-.7 0v-.2.2zm-.2 1.2v.1l.1-.2zm0-1.6V88v.1zm-1.1 0v.3-.3zm-.5.3c0-.2-.1-.2 0 0-.1-.1 0 0 0 0zm-1.5-.5v-.1.1z" style="fill:#fff"/></g><g style="opacity:.65"><path d="M80.9 90.1v-.2.2zm-.1-.6v.7-.5.2-.1c0-.2 0-.2 0 0v-.3zm-.8-.4zm-.5-.1s0-.1 0 0c0-.1 0-.1 0 0zm-.1-.4c0 .1 0 .1 0 0zm.6.5zm.7 1.1zm-.5-1.3v-.1.1zm.2-.1v.3-.3zm.3.4zm-.6-.4s0-.1 0 0zm-4.7 2zm-.3-1.2v-.2.2zm4.1-1.3zm-1.4.3v.5-.5zm2.9 1.6zm-2.9-1.1zm1.1-.6v.1-.1zm.2.3zm-.4 0zm-.1.1zm-2.8 1.8v-.2.2zm4.9-.6v.1-.1c0 .1 0 0 0 0zm-1.9.7zm-2-.2zm1.9.2v-.2.2zm-2.9-.3zm-.2.5v-.5c.1-.1.1.3 0 .5 0-.2.1-.5.1-.5v.1c0-.3.1 0 .1-.3v.1-.4s0-.2 0 0v.1-.1.3c0-.1 0-.4.1-.3v.4-.1.5c0 .1 0-.2.1-.1v-.4c0-.3.1.7.1.3v-.4.3-.3.2-.2.3l.1-.3v.3c0-.2.1 0 .1.2v-.3.2-.3.2c0-.2.1-.5.1-.2v.1-.3c.1.1.1-.1.2.3 0-.4.1.2 0-.4 0 .3 0 .3.1.5v-.4.3-.3.3-.3c0-.1.1.2.1.3v-.2.2c0-.3 0 .3 0 0v-.2c0 .2 0 .2.1.1v.2l.1-.1V90v.3-.3.4-.1.2c0-.2 0 .3 0 0v.1l.1-.1v-.4c0 .1.1.3.1.2v-.4.4l.1-.2v-.2.2c0-.3.1.7.2.2v-.2.3c0-.4.1.1.1-.2 0 .7.1 0 .2.4v-.2.1-.2c.1-.2.2.2.3.4v-.4.3c.1-.3.1 0 .2-.3v.2-.2.2-.1.1-.2c0 .1 0-.1.1 0V90c0 .4.1.3.1.1v.3-.3c0 .5.1-.4.1.2 0-.2.1-.4.1-.5v.5c0-.2.1-.5.1-.4v.2c0-.2.1 0 .1-.2v.1-.8.8-.2.2-.3.2-.3.1s0-.5.1-.3v.5-.4.1-.5.2-.1.4-.4.3-.2.2-.2.1c0 .1.1-.1.1 0v.4c0-.1.1-.4.1-.3 0-.5 0 .2 0 0v.2c0 .1.1-.1.1-.3v.1c0 .1 0 .1.1.1v-.3c.1.7.1-.4.2.2v.1-.6.4-.4.1-.2.3-.2.4-.1c0-.6 0-.1.1-.5v.7-.1.2-.3c0-.3.1.4.1 0v-.6.3c0 .1 0 .1 0 0v.2-.2.3-.3.3-.5.2-.3c0-.5 0 .1-.1.1v-.4.3-.6.1-.2c0-.2 0 .3-.1 0v.6-.7.3-.1.3c0-.2 0 .1-.1-.3v.3-.4c0 .4 0-.1 0 0v.2c0-.1-.1-.2-.1-.3v-.1.3-.4.2-.2s0 .3-.1.1v.8-.4s0 .1 0 0V88v.2-.3s0 .1 0 0v-.3.3-.3.3-.2.3c0 .3-.1-.1-.1 0v-.1c0 .1 0 .1-.1.2v-.3c0 .1 0 .2 0 0v-.1c0-.1 0-.2 0 0v-.2.2-.3c-.1-.4-.1.6-.1 0v.4l-.1-.5v.8-.5.1-.2.1-.3.2c0-.1 0 0-.1-.1v.4-.6c0 .2 0-.1-.1-.2v-.1c0 .1 0 0 0 0v.2-.1.5-.6.3-.3.8-.1c0 .3 0-.3-.1-.1v-.4c0 .2 0-.2-.1 0v.4-.1.3-.1.3c0-.3 0 .2-.1 0v-.5c0-.2 0 .3-.1.1v.2-.3.3-.2c0-.1 0 .5-.1.4v-.4.4-.1.3c0-.5-.1 0-.1-.4 0 .1 0 .1-.1.1v-.1.3-.3c0-.6 0 .1-.1-.3 0-.2 0 .2-.1.2v-.1c0 .3 0 .4-.1.5v-.3.4-.5c0-.3 0 0 0 0v-.1s0 .4-.1.4v.2-.3c0 .1 0 .3-.1.4v-.5.2-.1.4c0-.7-.1-.2-.1-.7 0 .2-.1-.1-.1-.1v.6-.9.4c0 .3 0-.4-.1-.2v-.2c0 .1-.1 0-.1.4v-.2c0-.1-.1.5-.1.2v-.1.1-.1.2-.1c0-.2-.1.4-.1.5 0-.4 0-.5-.1-.6v-.1c-.1 0-.1.3-.1.5 0-.4-.1-.2-.2-.4v.3-.1c0-.3 0-.3-.1-.3v.5c-.1-.7-.1.3-.2-.4v.2-.2c0-.1 0-.1-.1 0v-.2.7-.4s-.1-.3-.1 0v-.2s-.1-.2-.1.3c0-.3 0 0-.1.1v-.2.5-.1.1-.2.2-.3.3-.2c0-.2 0 .3-.1 0v-.7c0 .2 0 .5-.1.4v-.3.9c0-.3-.1-.5-.1-.7 0 .1-.1.1-.1.6v-.3c0 .1-.1 0 0 .4v-.3c-.1-.5-.1.8-.2.2v.1c-.1-.3-.2.3-.2-.2v.3-.3.3c0 .2-.1-.6-.1-.2v.2-.1.1-.1.2c0-.1 0-.5-.1-.6v.8c0 .4 0 .8.1 1.1v-.2.2-.1.2-.4.4-.5.4-.3.3-.3c0 .5 0 0 .1.5 0-.4 0-.2.1-.4v.3-.6c.5 1.5.4 1.5.5 1.9-.1-.4-.1-.4-.1-.6v.4-.3.3c.2.1.1.2.1.2zm.5-.7zm.1 0v-.2.2zm-.2-1.7c.1-.1.1 0 0 0 .1 0 .1.1 0 0v.1-.1zm0 .3s0 .1 0 0zm4 .2c0 .1 0 .1 0 0 0 .1 0 .1 0 0zm-3.2 1.6zm3.5-.7zm.1 0c0 .1 0 .1 0 0zm.1.2v-.1.1zm-1.3.3zm.4-.6v.1-.1zm-.8.9zm.7-.8c0 .1 0 0 0 0zm1.3.3s0-.1 0 0zm0-.1zm0-.1c0 .1 0 .1 0 0zm-.1 0c0 .1 0 .1 0 0zm0 .1v.1-.1c0 .2 0-.2 0 0zm-.2-1.1v-.2.2zm-.1-.2v-.2.2zm-.6.1v-.2.2zm-.1 1.1v.2-.2zm-.1-1.6v.1zm-1 .1v.3-.3zm-.4.3c0-.1 0-.2 0 0 0 0 0 .1 0 0z" style="fill:#fff"/><path style="fill:#fff" d="M76.9 88.5v-.1l-.1.1z"/></g></g></svg>