<svg xmlns="http://www.w3.org/2000/svg" viewBox="0 0 131.2 142.8" style="enable-background:new 0 0 131.2 142.8" xml:space="preserve"><style>.st5{fill:#31458b}.st6{fill:#91bdfa}.st7{fill:none;stroke:#ef7937;stroke-width:.925;stroke-miterlimit:10}.st8{fill:#4f84d3}.st9{fill:#91bdfa}.st10{fill:none;stroke:#31458b;stroke-width:.8491;stroke-miterlimit:10}.st11{fill:#4f84d3}.st12{fill:#91bdfa}.st13{fill:none;stroke:#d9413d;stroke-width:.8491;stroke-miterlimit:10}.st14{opacity:.37}.st15{clip-path:url(#SVGID_2_)}.st16{clip-path:url(#SVGID_4_)}.st17{clip-path:url(#SVGID_6_)}.st18{clip-path:url(#SVGID_8_)}.st19{clip-path:url(#SVGID_10_)}.st20{clip-path:url(#SVGID_12_)}.st21{clip-path:url(#SVGID_14_)}.st22{clip-path:url(#SVGID_16_)}.st23{clip-path:url(#SVGID_18_)}.st24{clip-path:url(#SVGID_20_)}.st25{fill:none;stroke:#4f84d3;stroke-width:.925;stroke-miterlimit:10}.st26{clip-path:url(#SVGID_22_)}.st27{clip-path:url(#SVGID_24_)}.st28{clip-path:url(#SVGID_26_)}.st29{clip-path:url(#SVGID_28_)}.st30{clip-path:url(#SVGID_30_)}.st31{fill:none;stroke:#d9413d;stroke-width:.925;stroke-miterlimit:10}.st32{clip-path:url(#SVGID_32_)}.st33{clip-path:url(#SVGID_34_)}.st34{clip-path:url(#SVGID_36_)}.st35{clip-path:url(#SVGID_38_)}.st36{clip-path:url(#SVGID_40_)}.st37{fill:#4f84d3}.st39{fill:#ee8423}.st40{fill:#f18a50}.st41{fill:#019788}.st42{fill:#32867a}.st43{fill:#f67258}.st44{fill:#de5956}.st45{opacity:.5}.st46{fill:#4b5d9a}.st47{opacity:.6}.st48{fill:#21a497}.st49{fill:#f7846d}.st50{fill:#26a59a}.st51{opacity:.65;fill:none;stroke:#fff;stroke-width:.2;stroke-miterlimit:10}.st52{fill:#c6deff}.st53{fill:none;stroke:#31458b;stroke-miterlimit:10}.st54{fill:#31458b}.st55{fill:none;stroke:#f5a800;stroke-miterlimit:10}.st55,.st56,.st57{stroke-width:.2}.st56{fill:none;stroke:#4db6ac;stroke-miterlimit:10}.st57{stroke:#ff8a65}.st57,.st58,.st59,.st60,.st61{fill:none;stroke-miterlimit:10}.st58{opacity:.65;stroke:#fff;stroke-width:.5}.st59{stroke:#ef7937}.st60{stroke:#147467}.st61{stroke:#d9413d}.st62{fill:#4f84d3}.st63,.st64,.st65{fill:#c6deff}</style><g id="Calque_1"><path d="M77.9 113.5s-34.8-.3-42.4 1.2 19.6 5.9 34 5c14.4-.9 25-3.8 20.8-4.7-4.3-1-8.7-1.2-12.4-1.5z" style="opacity:5.000000e-02"/><path d="M62.7 115.4c-.9.4-1 .1-2 .1s-1.1.3-1.9-.1c-.4-.2-.4-.6.1-.9 1-.5 1.1.3 2.1 0-.3-.5-.7-1.2-1.1-1.9-.3-.6-.6-1.2-.9-1.9-.3-.6-.6-1.3-.8-1.9-.3-.7-.7-1.3-.9-1.9-.2-.8-.3-1.5-.3-2.1 0-.5-.1-1.3-.1-2.2 0-.7.2-1.4.2-2.2v-2.2c0-.7.1-1.5.1-2.2 0-.8.1-1.5.2-2.2 0-.8.1-1.5.2-2.2 0-.8-.1-1.6 0-2.2.1-1.2.2-2.2.2-2.3.5 0 .5.2 1 .3 0 0 0 .8-.1 2.1 0 .6 0 1.4-.1 2.2 0 .7-.3 1.4-.3 2.2v2.2c0 .7-.2 1.5-.2 2.2 0 .8 0 1.5-.1 2.2 0 .8-.1 1.6-.1 2.2v2.2c0 .6.3 1.3.5 2.1.2.6.4 1.4.7 2.1.3.7.7 1.3 1 1.9.4.7.7 1.4 1 2 .6 1.1 1.2 1.7 1.2 1.8.4 0 .8.4.4.6zm4.7.3c-1.3.5-1.4.5-2.7.1-.4-.1.2-.4.4-.7 0 0 .2-.9.7-2.1.2-.6.6-1.3.8-2.1.2-.7.4-1.4.6-2.2.2-.7.4-1.4.6-2.2.2-.7.4-1.5.5-2.2.1-.8.1-1.5.1-2.2 0-.7.1-1.4 0-2.2-.1-.7-.3-1.4-.4-2.2-.1-.7-.1-1.5-.2-2.2-.1-.7-.4-1.5-.5-2.2-.1-.8-.3-1.5-.4-2.2-.2-.8-.4-1.5-.5-2.1-.3-1.3-.4-2.1-.4-2.2.5-.1.5-.1 1-.1 0 .1.1.8.4 2.1.1.6.5 1.3.6 2.2.1.7.2 1.5.4 2.2.1.7.2 1.5.3 2.2.1.7.4 1.5.5 2.2.1.8.1 1.5.2 2.3.1.8.2 1.6.2 2.2 0 .7-.2 1.4-.3 2.2-.1.7-.1 1.4-.3 2.2l-.6 2.1c-.2.7-.5 1.4-.7 2.1-.2.7-.5 1.4-.7 2.1-.3.9-.5 1.5-.7 2 .6.3.7-.3 1.3 0 .3.1.2.7-.2.9zm-39-60.2c-.1-.3-.1-.6-.2-.9-.1-.3-.3-.6-.4-.9-.1-.3-.3-.6-.4-.8-.1-.3-.2-.6-.4-.9-.1-.3-.3-.5-.4-.8.4 0 .8-.2 1-.4.2-.2.4-.5.5-.8.1-.3.1-.6.1-.9 0-.3.1-.6 0-.9 0-.3-.1-.6-.2-.9 0-.3 0-.7-.1-.9-.1-.4-.3-.6-.3-.8-.5.1-.6-.1-1 .2.1.3.3.7.3 1.1.1.4 0 .7.1 1.1v1.1c0 .5-.1.8-.3 1-.1.1-.4.3-.8.3-.1-.3-.2-.7-.3-.9-.1-.3-.2-.6-.4-.9-.2-.3-.4-.5-.5-.8-.2-.3-.3-.6-.4-.8-.2-.3-.4-.6-.5-.8-.3-.5-.5-.7-.5-.7-.4.3-.5.2-.8.5 0 0 .2.3.6.8.1.2.3.5.5.8.1.2.3.5.4.8.1.3.4.5.5.8.1.3.3.6.4.9-.3-.1-.6-.2-1-.3-.3-.1-.6-.1-.9-.2-.3-.1-.6-.3-.9-.4-.3-.1-.7-.2-.9-.2-.3-.1-.7 0-.9-.1-.4-.1-.6-.3-.8-.3-.2.5-.2.5-.2 1 .1 0 .5 0 .9.2.2.1.5.2.8.3.3.1.6.3.8.4.3.1.6.1.9.1.3.1.6.3.9.3.3.1.6 0 .9.1.3.1.6.2.9.2.1.3.2.7.4 1 .1.3.2.6.4 1 .1.3.3.6.5.9.1.3.4.6.5.9.1.3.1.7.2 1 .1.3.4.5.6.8.1.3.1.7.3 1 .2.3.5.5.7.7.2.3.2.6.4.9.2.3.5.4.7.7.2.3.3.6.5.9.2.3.4.5.7.7.2.2.6.4.8.6.2.2.4.5.6.7.2.2.5.4.8.6.3.2.5.4.7.6.3.2.5.4.8.6.3.2.6.3.8.5.3.2.6.4.8.5.3.2.6.4.8.5.3.2.6.4.8.6.5.2.9.3.9.3.2-.4.2-.5.4-.9 0 0-.4-.1-1-.3-.2-.1-.5-.3-.8-.5-.3-.1-.6-.3-.9-.5-.3-.2-.5-.4-.8-.6-.3-.2-.5-.4-.8-.6-.3-.2-.5-.4-.8-.6-.2-.2-.5-.4-.8-.6-.2-.2-.5-.4-.7-.6-.2-.2-.6-.3-.8-.6-.2-.2-.4-.5-.6-.8-.2-.2-.4-.6-.6-.8-.2-.3-.4-.5-.6-.8-.2-.3-.4-.5-.5-.8-.2-.3-.3-.6-.4-.9-.2-.3-.5-.5-.6-.8-.1-.4-.3-.7-.4-1zm75.7-5.9c0-.5-.1-.5-.3-1-.2 0-.5 0-.9.1-.2.1-.5.2-.9.3-.2.1-.5.2-.9.3-.3.1-.6.3-.9.4-.3.1-.6.1-.9.2l-.9.3c.1-.3.3-.6.4-.9.2-.3.3-.6.5-.8.2-.3.4-.5.5-.8.2-.3.4-.6.5-.8.3-.5.4-.8.4-.8l-.8-.6s-.1.2-.4.7c-.1.2-.4.4-.6.7-.1.2-.3.5-.4.8-.1.2-.3.5-.4.8-.1.3-.3.5-.4.8-.1.3-.2.6-.4.9-.4 0-.7 0-.9-.2-.2-.2-.3-.6-.4-1 0-.3.1-.7.1-1.1 0-.4 0-.7.1-1.1.1-.4.2-.7.3-1-.4-.3-.4-.3-.9-.3 0 .2 0 .5-.1.9-.1.3-.3.5-.3.9 0 .3 0 .6-.1.9v.9c0 .3 0 .7.1.9.1.3.4.5.6.7.2.2.6.4 1 .4-.1.3-.4.6-.5.9l-.3.9c-.1.3-.3.5-.4.8-.1.3-.1.6-.3.9-.1.3-.3.6-.4.9-.1.3-.4.5-.6.8-.1.3-.2.7-.3.9-.2.3-.5.5-.6.8-.2.3-.3.6-.5.8-.2.3-.4.5-.6.8-.2.3-.4.6-.6.8-.2.2-.4.5-.7.7-.2.2-.5.4-.7.7-.2.2-.5.4-.8.6-.3.2-.4.5-.7.7-.3.2-.5.4-.8.6-.3.2-.6.3-.9.4-.3.2-.5.5-.8.6-.3.2-.6.3-.9.5-.3.2-.6.4-.8.5-.5.3-1 .4-1 .4.2.5.2.5.4.9.1 0 .5-.1 1-.4.2-.1.5-.4.8-.5.3-.1.5-.4.8-.5.3-.2.6-.2.9-.3.3-.2.4-.5.7-.7.3-.2.5-.4.8-.6.2-.2.5-.4.8-.6.2-.2.6-.3.8-.5.2-.2.3-.6.6-.8.2-.2.6-.3.8-.6.2-.2.4-.5.6-.7.2-.2.3-.6.5-.8.2-.3.5-.5.7-.7.2-.3.3-.6.4-.9.2-.3.3-.6.5-.9.2-.3.3-.6.5-.9.1-.3.4-.5.5-.8.1-.3.3-.6.4-1 .1-.3.2-.7.3-1 .1-.3.4-.6.5-.9.1-.3.3-.6.4-.9.2-.3.2-.7.4-1 .3 0 .6-.2.9-.2.3-.1.6-.1.9-.1.3-.1.6 0 .9-.1l.9-.3c.3-.1.5-.3.8-.4.3-.1.5-.2.8-.3h1.2z" style="fill:#31458b"/><path d="M84.1 65.6c.4 1.3.2 1 .7 2.7.2.8.9 1.5 1.2 2.5.3.8.1 1.8.4 2.8.3.8.7 1.7 1 2.6.3.9.8 1.7 1.1 2.5.3.9.3 1.8.6 2.7.3.9.8 1.7 1.1 2.5.3.9.7 1.8 1 2.6.3.9.7 1.8 1 2.6.4 1 .3 2 .6 2.7.5 1.2.9 2.1 1.2 2.5.7 1.1.6 2-.2 2.8-.6.7-1.4 1.4-2.6 1.8-.9.3-2 .5-3.2.7-.8.1-1.9-.2-3 0-.9.1-1.9.3-2.9.5-1 .1-1.9.5-2.9.6-1.1.1-2.1-.1-3-.1-1.4 0-2.3-.1-2.6-.5-.3-.3-.7-1.1-1.3-2.3-.4-.7-.9-1.5-1.4-2.4-.4-.8-1-1.5-1.5-2.3-.5-.8-1.2-1.4-1.8-2.1-.6-.7-.9-1.6-1.6-2.2-.7-.6-1.5-1.1-2.3-1.4-.8-.4-1.7-.9-2.7-.8-.9.1-1.6 1-2.4 1.8-.7.6-1.4 1.3-2.1 2.1l-1.8 2.4c-.6.9-1.2 1.7-1.7 2.5-.6.9-1.3 1.7-1.8 2.4-.8 1.1-1.3 1.8-2 2.1-.5.2-1.5.5-2.8.6-.9.1-1.9-.1-2.9 0-.9 0-1.9.1-2.9.1h-2.9c-1 0-2 .3-3 .2-1 0-2-.3-2.9-.4-1.1-.1-2.1 0-3-.2-1.2-.2-2.1-.9-2.7-1.2-.4 0-.4-.6-.1-2 .1-.8-.1-1.8.3-2.8.3-.8 1-1.6 1.3-2.5.3-.8.5-1.7.9-2.6.3-.8 1.1-1.5 1.5-2.4.4-.8.5-1.8.9-2.7.4-.8.7-1.7 1.1-2.5.4-.8.6-1.8 1-2.6.4-.9.7-1.7 1.1-2.6.4-.9 1.1-1.6 1.5-2.4.4-.9.6-1.8.9-2.6.4-.9.5-1.8.8-2.7.3-.9.7-1.8.9-2.6.3-1 .8-1.8 1-2.6.2-1.1.2-2.1 0-2.8-.2-.8-.7-1.6-1-2.7-.2-.8-.1-1.9-.4-2.8-.3-.9-1-1.6-1.3-2.6-.3-.9-.5-1.8-.8-2.7-.3-.9-.5-1.8-.8-2.7-.3-.9-.3-1.9-.6-2.8-.3-.9-1-1.7-1.3-2.6-.3-.9-.2-2-.5-2.8-.3-.9-1.2-1.6-1.5-2.5-.3-.9-.3-2-.6-2.8-.3-1-1.1-1.7-1.3-2.5-.4-1.1-.4-2.1-.7-2.8-.4-1.1-.7-1.9-.7-2.7 0-1.2.3-2.2.8-2.7 1-1.1 1.3-.6 2.7-.8 1.4-.2 1-.7 2.7-.8.8-.1 1.8.4 2.8.3.9-.1 1.8-.7 2.7-.7.9-.1 1.8 0 2.8 0 .9 0 1.9-.1 2.8-.1 1 0 1.9 0 2.8.1 1 0 1.9.4 2.7.5 1.1.1 2.1 0 2.8.3.8.4 1.3 1.3 2 2.2.6.7 1.4 1.4 1.9 2.3.5.8.8 1.8 1.2 2.7.4.9.7 1.9 1 2.8.4 1 1.1 1.8 1.4 2.7.5 1.4.4 2.8.6 3 .2.3 1.3-.5 2.1-1.9.4-.7.6-1.6 1.1-2.4.4-.7.8-1.5 1.2-2.3.4-.8.7-1.6 1.1-2.3.5-.9.8-1.7 1.2-2.3.5-.7 1.1-1.3 1.7-1.8.7-.6 1.4-1.1 2-1.4 1.2-.7 1.1-.6 2.3-.8 1.5-.3 1.2-.1 3.1-.2.9 0 2 .2 3.1.2 1 0 2-.1 3.1-.1 1 0 2.1-.2 3.1-.2 1.1 0 2.2.2 3.1.2 1.4 0 2.4.2 3 .3 1.3.3 1.8.9 1.9 1.8.2 1.4 0 1.5-.5 2.9-.5 1.3-.3 1.1-.9 2.7-.1.2-.2 1.2-.6 2.2-.3.8-.9 1.6-1.2 2.6-.3.9-.4 1.8-.8 2.8-.3.9-.7 1.8-1 2.7l-.9 2.7c-.3.9-.8 1.7-1.2 2.6l-.9 2.7c-.3.9-.8 1.8-1.1 2.6-.3 1-.7 1.9-1 2.7-.4 1.2-.5 2.2-.7 2.8-.3 1-.4 2.1-.5 3.1 0 1.1.4 2.2.5 3.1.3 1.9 0 1.7.4 3.2z" style="fill:#91bdfa"/><path d="M46 48.2s3.3-3.5 7.7-1 3.9 9.1-.6 10.5c-4.4 1.4-7.3-.4-8-2.4-.6-1.9-1-5.3.9-7.1zm20.5.6s3.3-3.5 7.7-1 3.9 9.1-.6 10.5c-4.4 1.4-7.3-.4-8-2.4-.6-1.9-1.1-5.3.9-7.1z" style="fill:#fff"/><circle cx="51.4" cy="54.1" r="4.2"/><circle cx="71.6" cy="55" r="4.3"/><path d="M60.6 63.1c-3.1 0-4.5-1.8-4.6-1.9l.8-.6c0 .1 1.2 1.5 3.8 1.5 2.5 0 3.3-1.8 3.3-1.8l.9.4c0 .1-1 2.4-4.2 2.4z" style="fill:#31458b"/><path d="M31.7 33.2s-7 1.9-8.1-3.8 2.8-8.2 2.6-8.9c-.2-.7-.6-2.2.1-2.4.7-.2 24.6-7.1 25.1-6.6s1.3 1.2.8 1.7 3.9 2.2 4.5 3.2 5.3 4.1 1.3 8.4-6 2.5-6 2.5-.2 1.5.2 2.3S34 35.3 34 35.3s-1.6-2.5-2.3-2.1z" style="fill:#91bdfa"/><g style="opacity:.65"><path d="M30.7 31.4zm.2.1s.1-.1.1-.2c0 .1-.1.1-.1.2 0 0 0-.1 0 0l-.1-.1c0 .1.1.1.1.1.1 0 0 0 0 0zm2.5-1.8zm.4-2zm.1-.4zm-.5 2.4c0-.1 0-.1 0 0zm-2.1 1.6zm1.7-.8zm-.4.5s-.1 0 0 0c-.1 0-.1 0 0 0-.1 0-.1 0 0 0zm-1.1.5zm1.8-1.4zm-4.1-1zm-.3-.7v-.1zm5-1.8c0 .1 0 0 0 0zM29 24c.1 0-.1.1 0 .1 0 0 .1-.1 0-.1zm2.4 7.3zM29 24.1zm4.1 1.2zm.5 1zm-1-1.4zm-.5-.3h.1zm-3.8 5.1c0 .1 0 .1 0 0 0 .1.1 0 0 0zm3.1 1.6c-.1 0-.1 0 0 0zm.9-6c0-.1 0-.1 0 0zM26.8 27zm5.3-1.9c0-.1 0-.1 0 0-.1-.1-.1-.1 0 0zm-3.7 4.7z" style="fill:#fff"/><path d="M28.8 29.5c-.1 0 0 .1 0 .1-.1.1-.1 0-.1-.1l-.1.1c0 .1-.2.1-.2.1v.1s-.1.1-.1 0 .1 0 0-.1c-.1 0-.2.1-.2.1 0-.1.1 0 .1-.1h.1c-.1-.1.1 0 0-.1h-.2v.1c-.2 0-.1-.2-.2-.1 0 0-.1.1-.1 0l.1-.1c-.1-.1-.1.1-.2 0h.1c0-.1-.1 0-.1 0v-.1c-.1-.1-.2-.1-.3-.2-.1-.1-.2-.3-.2-.4h-.1c0-.1 0 0-.1 0 0 0 0-.1 0 0-.1-.1-.2-.3-.2-.4 0-.1-.1-.1-.1-.2 0-.2-.1-.4 0-.6-.1 0 .1-.2-.1-.2.1-.1.1-.1.1-.2l-.1-.1h.1V27h.1v-.1h-.1c0-.1.1-.2.1-.2v-.2.1c0-.1.1 0 0-.1 0 0 .1-.1.1-.2s.1-.3.2-.4H27h.1-.1c0-.1.1 0 .1 0v-.1l.1-.1c.1-.1.1-.2.2-.3v-.1c.1-.1.2-.1.2-.2V25h.1c.1-.1.1-.1.2-.3h-.1.1c.1-.2.4-.1.5-.2l.1-.1c.1 0 0 .1 0 .1.1-.2.3-.1.4-.2.1.1.4-.1.5 0h.1v-.1h.5c.2 0 .3.1.5.1.1 0 .1-.2.2 0l-.1.1c.3 0 .5.2.7.2 0 .1.2.1.2 0v.1s.1 0 .1.1c0 0 .1.1.1 0 .1.1.2.1.2.1.1 0 .1.1.2.1-.1.1.1.2.1.2v.1c.1 0 .1.1.1 0 0 .2.2.1.2.3.2.1.3.2.4.4-.1 0-.1-.2-.2-.1.1.1.2.1.3.3h-.1c.1.1.1.3.2.4 0 0 0 .1 0 0s.2.1.2.1c-.1 0 0 .1-.1.1h.1c0 .1.1 0 .1.1h-.1s.1.1.1.2.1.2.1.4c-.1 0 0 .1-.1.1v.3-.1.1-.1c0 .1.1 0 .1.1v.2h-.1c.1 0 0 .2.1.2h-.2c0 .1.1 0 0 .1v.3c-.1 0 0-.1-.1-.1v.5c.1 0-.1.1-.1.2 0 0-.1 0 0 0 0 .1 0 .2-.1.4 0 0-.1.1-.1.2v.1c-.2.1-.1.4-.3.5 0 0 0-.1 0 0l-.1.1h.1v.1c0-.1-.1 0-.1 0-.1 0 .1.1 0 .1 0 0 0 .1-.1.1s0 0 0-.1c0 0 0 .2-.1.2v-.1h-.1s-.1 0-.1.1c0 .2-.1.1-.1.3v-.1h-.1c0 .1-.1 0-.1.1h-.1c0 .1-.2 0-.3.2l-.2.2v-.1H31s0 .1-.1.1v-.1s-.1.1-.2.1v-.1c-.1 0-.2.1-.2.1v-.1h.1c.1.1.2 0 .2-.1v.1l.1-.1v.1h.2v.1c.1 0 .1-.1.2-.1.1-.1 0-.1.1-.2l.1.1v-.1h.1v-.1c.1 0 .2-.1.2-.1 0-.1-.1 0 0-.1.1.1.1-.1.1-.1 0 .1-.1.1 0 .1 0-.1.1-.1.2-.1 0-.1.1-.1.1-.2 0 0 .2-.1.2-.2v-.2.1-.2c0-.1.1-.2.1-.3 0 0-.2 0-.1-.1 0 0 .1 0 .1.1v-.1.1-.1h.1l.1-.1v-.1c0-.1.1 0 .1 0v-.1h.1c0-.1.1-.2 0-.2 0-.2.1-.3.2-.4v-.3h.1v-.2.1c0-.1.1-.1 0-.2 0 0 .1 0 .1-.1v.1-.1h.1c.1-.2-.1-.3.1-.4 0-.1 0 .1-.1 0 0-.1.1-.1.1-.2s-.1-.1-.1-.2c0 0-.1 0-.1-.1s.1-.1.1 0c0 0 0 .1 0 0 0 0 0-.2.1-.1 0-.1 0 0-.1 0V27c0-.2-.1-.1-.1-.2s.1 0 0-.1c0-.1.1 0 .1 0-.1-.1 0-.2 0-.3v-.2h-.1v-.1c0 .1.1 0 .1.1v-.1c0-.1-.1 0-.1-.2 0 0 .1 0 0-.1h-.1c0-.1-.1-.1-.1-.1l-.1-.1c-.1 0 0-.2-.1-.2 0 0 .1 0 .1-.1-.1-.1 0-.1-.1-.2 0 .1 0 0-.1 0l.1.1-.1-.1.1.1h-.1c0-.1-.1-.1-.1-.2l.1-.1c0-.1-.2-.2-.2-.3v.1l-.1-.1v-.1s-.1-.1-.1 0v-.1c-.1-.1-.2 0-.3-.1.1 0 0-.1.1 0 0 0-.1-.1-.1 0 0 0-.1 0-.1-.1h-.2c0-.2-.3-.2-.3-.3-.1 0-.2-.1-.3-.1-.1-.1-.1.1-.2 0 0-.1.1 0 0 0 0-.1-.1-.1-.2-.1 0-.1-.2 0-.3-.1h-.3s.1 0 0-.1c0 0 0 .1-.1.1l-.1-.1h.1c0-.1-.1 0-.2 0s-.1.1-.3 0c-.1.1-.1-.1-.1 0v-.1c-.1 0-.2.1-.3.1.1-.1.2-.1.2-.1h-.2.1c.9.6.8.6.7.6 0-.2-.3 0-.3-.2-.2.1-.4 0-.6 0 .1.1-.1 0 0 .1h-.3v-.1c-.1 0-.1 0-.1-.1 0 0 0 .1-.1.1h.1c-.1.1-.2-.1-.3.1v-.1c-.1.1-.3.1-.3.2 0 0-.1 0 0-.1-.2.1-.3.3-.5.3 0 0 0 .1-.1.1 0 0 0 .1-.1.1v-.1c-.2.1-.1.3-.2.4-.1-.1-.2 0-.2.1-.1.2-.1.4-.2.5-.1.1-.2.4-.3.5 0 0 .1 0 .1.1 0 0 0 .1-.1.1s-.1.1-.1.2h.1c-.2.1-.1.5-.2.6v.2h-.1v.4c0 .1.1.1.2.2h-.1c0 .2-.1.3 0 .5 0 .1 0 .3.1.3-.1 0 0 .2.1.2h-.1c.1 0 .1 0 .2.1 0 .1.1 0 .1.1s0 .1.1.1c0 0 .1.1 0 .2 0 0 .1 0 .1.1.1.1.2.1.2.2-.1-.1-.1-.2-.1-.2s0 .1-.1.1c.1 0 .2.1.3.2v.1l.1.1s.1 0 .1-.1c0 0-.1 0-.1-.1 0 0 .1 0 .1.1h.1c0 .1.1.2.1.2.1 0 .3.1.4 0v.1h-.1.3c.1 0-.1.1.1.1.3.1.4-.2.7-.1.3 0 .6-.3.9-.5.1-.1 0-.1 0-.2h.1s0-.1-.1-.1c-.1-.1.1-.3-.1-.4 0-.1-.1-.1-.1-.2 0 0-.1 0-.1-.1-.1-.1.1-.1 0-.2h-.2v.1h-.1c-.1.1-.1.1-.1.2h.1v.1h-.1c0 .1 0 0 .1 0v.1h.1s-.1 0-.1.1c.1 0 0-.1.1-.1v.1h-.1l.1.1c0 .1.1.1 0 .1 0 0 .1 0 .1.1-.1 0 0 .1-.1.1.1 0 0 .1 0 .2h-.1c.1.1 0 .1 0 .2-.1 0 0-.1-.1-.1v.1h-.1v.1c-.3-.1-.2-.2-.3-.2 0 .1 0 0 0 0zm-1.6-.1zm-.1-.1c0 .1 0 .1 0 0 0 .1 0 0 0 0zm0 .5c-.1 0-.1 0 0 0-.1 0-.1 0 0 0zm0 0h.1-.1zm6.3-.1zm-6.6-2.5zm6 3.2c-.1 0 0 0 0 0zm-.3.3zm-.2.2zm1-4.4c0-.1 0-.1 0 0zm.3 1.3zm-1.3-2.5zm1.3 2.4s0 .1 0 0c0 .1 0 0 0 0zm-2.5 3.6zm0 0zm-.1.1c0-.1 0-.1 0 0zm.5-.1z" style="fill:#fff"/><path d="M31.6 31.2h-.1s.1.1.1 0zm.6 0h-.1c0 .1 0 .1.1 0 0 .1-.2.1 0 0zm.3-.1c-.1 0 0 0 0 0zm1.2-2.1c0-.1 0 0 0 0zm-.2-.5zm.4-.2v-.1zm-1.6-3.7c0 .1 0 0 0 0zm-1.7-.6s-.1-.1 0 0c-.1 0-.1 0 0 0zm-4.2 2.6z" style="fill:#fff"/></g><g style="opacity:.65"><path d="M54 24.9zm-.3 0v.2c.1-.1.1-.1 0-.2h.1s.1 0 0-.1c0 .1 0 .1-.1.1 0 .1 0 .1 0 0zm-2.9-.4zm-1.4-1.4s.1 0 0 0c.1 0 0 0 0 0zm-.1-.3zm1.5 1.7c-.1 0-.1 0 0 0zm2.6.8zm-1.9-.4h.1zm.6.2zm1.1 0zm-2.1-.4zm2.3-2.7zm.4-.8zm-4.6 1zm2.3-4.3c-.1 0 .1-.1 0-.1 0 0-.1.1 0 .1zm1.9 7.4c-.1 0 0 0 0 0zm-1.9-7.5zm-2.4 3.1c-.1 0-.1 0 0 0-.1 0-.1 0 0 0zm-.1 1zm.1-1.5zm.2-.5zm5.9 2.6s-.1 0 0 0zm-1.8 2.8zm-4.7-5.1c0-.1 0 0 0 0zm6.4-1.6c.1 0 0 0 0 0zm-6.3 1.2s.1 0 0 0c.1 0 .1 0 0 0zm6.4 2.6z" style="fill:#fff"/><path d="M54.5 22.8c.1 0 0-.1 0-.1.1 0 .1 0 .1.1.1 0 .1-.1.2-.1.1-.1.2-.1.3-.2 0 0 0-.1-.1-.1 0 0 0-.1.1 0 .1 0 0 0 0 .1.1-.1.1-.2.2-.2s-.1.1 0 .1h-.1c.1.1-.1 0 .1.1.1 0 .1-.1.2-.2v-.1c.1-.2.2 0 .3-.2 0-.1-.1-.1 0-.2v.1c.1-.1 0-.1.1-.2v.1c.1 0 0-.1 0-.1h.1c0-.1.1-.3.1-.5h.1c0-.2.1-.4.1-.6l-.1-.1c0-.1 0 0-.1 0 0 0 0-.1 0 0 .1-.2-.1-.4-.1-.5 0-.1-.2-.1-.1-.2l-.3-.6c-.1 0-.1-.2-.2-.1 0-.1 0-.1-.1-.3H55v-.1h-.1v.1c-.1 0-.1-.2-.1-.2l-.2-.1h.1c-.1 0 0-.1-.1-.1 0-.1-.1-.1-.2-.2s-.3-.2-.4-.3c0 .1 0 .1-.1.1v-.1l-.1.1v-.1h-.1s-.1-.1-.2-.1l-.4-.2c0 .1-.1 0-.1 0-.1-.1-.2-.1-.3-.2-.1 0 0 0-.1.1 0-.1-.1-.1 0-.1h-.5c-.2.1-.5-.2-.7 0l-.2.1c-.1 0 0 0 0-.1-.2.1-.3.1-.4.2-.2-.1-.4.2-.6.2 0 .1-.1 0-.1 0s.1 0 0 0c-.2.1-.3.2-.5.3-.2.1-.3.2-.5.3-.1.1.1.2-.1.2v-.1c-.1.2-.4.4-.5.7v-.1c-.1 0-.1.2-.1.2h-.1c-.1 0 0 .2-.1.2 0 0-.1.1 0 .1-.1.1-.1.2-.1.2 0 .1-.1.1 0 .2-.1 0-.1.1-.1.2h-.1v.1c-.1.1 0 .3-.1.3v.6c-.1 0 0-.2-.1-.2 0 .2.1.3.1.5h-.1c0 .2 0 .4.1.5v.1c0-.1.1.1.2.1-.1 0 0 .2-.2.1h.1-.1l.1.1h-.1c.1 0 .1.1.1.2.1.1.2.2.2.4-.1 0 0 .1-.1.1l.1.1c0 .1.1.1.1.2h-.1l.1.1v-.1c.1 0 .1-.1.1 0v.1s.1 0 .1.1c0 0-.1 0-.1.1.1 0 .1.1.2.1h-.1.1v.1c.1.1 0-.1.1 0s.2.2.2.3c0 .1-.1-.1-.1 0 .1.1.3.2.4.3.1-.1.1.1.1.1s-.1 0 0 0c.1.1.2.1.3.2 0 .1.1.1.2.2h.1c.1.2.4.1.5.3 0 0-.1 0 0 0h.2v-.1h.1c-.1 0 0 .1 0 .1 0 .1 0-.1.1 0h.1c0 .1-.1 0-.1.1.1 0 .2-.1.2 0h-.1c0 .1.1.1.1.1s.1 0 .1.1c.1-.1.2 0 .3-.1-.1.1 0 0 0 .1 0 0 .1 0 .1.1h.2s.1 0 0 .1c.1 0 0 0 0-.1.1-.1.3.1.4 0l.2-.2v.1c.1 0 .1 0 .2-.1 0 0 0-.1.1-.1v.1c.1 0 .1-.1.1-.1v.1c.1 0 .2-.1.1-.2v.1c0 .1-.1 0-.1 0-.1-.1-.1.1-.2.1v-.1l-.1.1s-.1-.1 0-.1h-.1v-.1c-.1 0-.1.1-.2 0-.1.1 0 .1-.1.1l-.1-.1v.1c-.1 0 0 0 0 .1-.1 0-.2 0-.2-.1 0 0 .1 0 0 .1 0-.1-.1 0-.2 0 0-.1.1 0 0-.1 0 .1-.1 0-.2 0 0 .1-.1 0-.2 0l-.2-.1c0 .1-.1 0-.2 0 0 0 0-.1.1-.1h-.2c-.1 0-.2 0-.2-.1 0 0 0 .2-.1.1 0 0 0-.1.1-.1h-.1.1-.1V25l-.1-.1H50c-.1 0 0-.1 0-.1h-.1v-.1s-.2-.1-.2 0c-.1 0-.2-.2-.3-.3-.1 0-.1-.1-.2-.1v-.1c-.1 0-.1 0-.1-.1h.1c0-.1 0-.1-.1-.1.1 0 0-.1 0-.1v.1l-.1-.1h.1c0-.2-.3-.1-.3-.3-.1 0 0 .1 0 .1v-.2c0-.1-.1 0-.2-.1 0 0-.1.1-.1 0s0-.1.1-.1h.1s-.1-.1 0-.1c0-.1-.1-.1-.1-.2s-.1 0-.1-.1.1 0 0-.1c0-.1.1 0 .1 0-.1-.1 0-.2 0-.2v-.2h-.1s-.1-.1 0-.1c0 .1.1 0 .1.1v-.1c0-.1-.1 0-.1-.1 0 0 .1 0 .1-.1h-.1V22l-.1-.1c-.1 0 0-.1 0-.2h.1c0-.1.1-.1 0-.2h-.1v.2l-.1-.1v.1h-.1c.1-.1 0-.1 0-.2h.1c.1-.1-.1-.2 0-.3-.1 0 0-.1 0-.1h.1s0-.1-.1-.1l.1-.1c0-.1-.1-.2 0-.3 0 0 .1 0 .1.1v-.3s0-.1-.1-.1c.2-.1.1-.3.3-.4 0-.1.1-.2.1-.2.1-.1-.1-.1 0-.2.1 0 0 .1 0 .1.1.1.1-.1.2-.2.1 0 0-.1.1-.2 0-.1 0-.2.1-.3v.1s-.1 0 0-.1h.8c.1 0 .1-.1.1-.1.1-.1 0-.2.1-.2 0-.1.1 0 .1-.1h.1l.1-.2c0 .1-.1.2-.1.2l.1-.1c0-.1.1-.2.1-.2.1.1.2-.1.3 0 .1-.1.3-.2.5-.2-.1-.1.1 0 0-.1h.3v.1h.1s0-.1.1-.1h-.1c.1-.1.1.1.2 0 .1 0 .2 0 .3-.1v.1c.2 0 .4-.1.5 0 0 0 .1-.1.1 0h.1c.1.1.2 0 .4 0 0 .1.1.1.1.2.2.1.3.1.5.1 0 .1.3.3.4.4 0 0 0-.1.1 0 0 0 .1 0 .1.1s.1.1.1.2l.1-.1c0 .2.4.3.3.4 0 0 .1 0 .1.1.1.1.1.1.2.3h-.1c0 .1.2 0 .2 0l-.1.1c.1.1.1.3.2.4 0 .1 0 .2.1.2-.1 0 0 .1.1.2h-.1c.1 0 .1 0 .1.1s.1 0 0 .1c0 .1 0 .1.1.1v.2s.1 0 .1.1.1.2 0 .3v-.2c-.1 0-.1.1-.1 0 0 .1.1.2.1.2v.1l-.1.1c.1 0 0 .1.1 0v-.1.1l.1.1c-.1 0-.2.1-.2.1 0 .1-.1.2-.1.3h-.1V22c0 .1-.1.1-.1.2-.1 0 0-.1-.1 0-.2 0-.2.4-.5.3-.3 0-.6.2-.8 0 0-.1-.1 0-.1 0H54c-.1-.1.1-.2 0-.3v-.3c0-.1.1 0 .2-.1 0-.1 0-.2-.1-.2H54v-.1c-.1 0-.2-.1-.3 0v.1h-.1v-.1c-.1 0 0 .1 0 .1h-.1l.1.1s-.1-.1-.1 0 .1 0 .1.1c0 0-.1 0-.1.1v.2c-.1.1 0 .2-.1.2l.1.1c-.1-.1.1.2 0 .2.1 0 .3.2.4.2.1 0 .1.1.1.1 0-.1.1-.1.2-.1.1.1-.1.1 0 .2 0-.1.2-.1.1-.1.1 0 .1 0 .1.1 0-.1.1 0 .1-.1v-.1c.1-.1 0 0 0 0zm1.6-1.6c0 .1 0 0 0 0zm0-.2c0 .1 0 .1 0 0 0 .1 0 .1 0 0 0 .1 0 .1 0 0zm-.4.3zm0 .1v-.1zm-4.9 3.1zm4.5-5.8zm-3.8 6.5zm.4.1zm.3.1zM48.6 22z" style="fill:#fff"/><path d="M49.4 23.4c-.1-.1-.1-.1 0 0-.1 0-.1 0 0 0zm-.7-3.2zm.6 3.1zm4.4 1.9zm0 0c0-.1 0-.1 0 0zm0-.1zm-.5.2zm-.1 0h.1c0 .1-.1 0-.1 0zm-.6-.1h.1v-.1c-.1 0 .1.1-.1.1zm-.3-.1c.1 0 0 0 0 0zm-2-1.1c.1 0 .1 0 0 0zm-.5-.1v.1l.1-.1zm.1-.4h.1l-.1-.1zm-.5-3.5c-.1 0 0 0 0 0zm.9-1.4c.1 0 .1 0 0 0 .1 0 0 0 0 0zm4.4.1v.1z" style="fill:#fff"/></g><g style="opacity:.65"><path d="M48.5 15.5zm-.2 0v.2-.2c.1 0 .1 0 0 0 .1 0 .1.1.1 0s-.1-.1-.1 0zm-2.8.6zm-1.7.5zm-.3 0zm2-.5c0 .1 0 .1 0 0zm2.5-.4zm-1.7.2zm.5-.2s0 .1 0 0c0 .1 0 0 0 0zm1-.2zm-2 .5zm-15.9 5zm-.7-.1zM43 16.7zm-4.9 1.4c.1 0-.1.1 0 .1 0 0 .1 0 0-.1zm9.8-2.4zm-9.8 2.6zm3.7-1.2zm.9-.2zm-1.4.4zm-.5.1zm-9.4 3.2s0-.1 0 0c0 0-.1 0 0 0zm16.5-4.9s.1 0 0 0c.1 0 .1 0 0 0zm-6.5 2c-.1 0 0 0 0 0zm-6.5 1.8c0 .1 0 0 0 0zm6.2-1.7c-.1 0-.1 0 0 0zm-9.7 2.7z" style="fill:#fff"/><path d="M30.9 20.8c.1 0 0-.1 0-.1.1 0 .1 0 .1.1.1 0 .1-.1.1-.1 0-.1.2-.1.2-.1v-.1s0-.1.1 0 0 0 0 .1c.1 0 .1-.1.2-.1 0 .1-.1.1 0 .1h-.1c.1.1-.1 0 0 .1.1 0 .1-.1.2-.1v-.1c.1-.1.2.1.3 0 0-.1 0-.1.1-.1v.1c.1 0 0-.1.2-.1 0 0-.1 0-.1.1.1 0 0-.1.1-.1v.1c.1 0 .2-.1.3-.2v.1c.1-.1.3-.1.5-.1v-.1c.1 0 0 0 0-.1 0 0 .1 0 0 0 .1-.1.3-.2.4-.2.1 0 .1-.1.2-.1.2 0 .4-.1.5-.1 0-.1.2 0 .2-.1.1 0 .1.1.3.1 0 0 0-.1.1-.1v.1-.1l.1.1h.2l.2-.1v.1c.1-.1 0 .1.1 0h.2c.1 0 .3-.1.4-.1-.1 0-.1-.1 0-.1v.1-.1c.1 0 .1.1 0 .1h.1v.1h.1c.1 0 .2-.1.3-.1 0-.1 0-.1.1-.1h.3c.1 0 0-.1 0-.1s.1 0 .1.1c.1 0 .2-.1.3-.1h.1c.1-.1.4 0 .5-.1l.1-.1c.1 0 0 0 0 .1.1-.1.2-.1.4-.1.1.1.3-.1.5-.1h.1c.3-.1.6-.1.9-.2.1 0 0-.2.2-.2v.1c.2-.1.4-.1.6-.3.1 0 .2 0 .2-.1.1 0 .1-.1.1-.1s.1 0 .1-.1c.1 0 .1-.1.2-.1 0-.1.1 0 .1-.1 0 .1.2 0 .2 0s.1 0 0 .1c.1 0 .1 0 .1-.1.1.1.2-.1.3 0 .2-.1.3-.2.5-.2 0 .1-.2.1-.1.1.1-.1.2-.2.3-.2v.1c.1-.1.3-.1.4-.2 0 0 .1 0 0 0s.1-.1.1-.2c0 .1.1 0 .1.2v-.1.1c.1 0 0-.1.1-.1v.1l.1-.1c.1 0 .2-.2.3-.2 0 .1.1 0 .1.1h.1c.1 0 .1-.1.2-.1h.1-.1c.1-.1 0-.1.1-.1h.1s0-.1.1-.1v.1c0-.1.1-.1.2-.1v.1-.1c.1 0-.1-.1.1-.1.1 0 .2-.1.3-.1 0 .1-.1 0 0 .1.1-.1.3-.2.4-.2 0-.1.1 0 .2 0v.1c.1 0 .2-.1.3-.1h.2v-.1c.2.1.3-.2.5-.1l.1-.1h-.1s0-.1.1-.1c-.1 0 0 .1.1.1.1.1 0-.1.1-.1l.1-.1v.1c.1 0 .1-.1.1-.1s-.1 0-.1.1h.2c0-.2.1-.1.2-.2-.1.1 0 .1 0 .1h.1c0-.1.1 0 .1-.1h.1c.1 0 0 0 0-.1.1-.1.2 0 .3-.1l.2-.2v.1h.1s0-.1.1-.1v.1l.1-.1v.1c.1 0 .1-.1.1-.1v.1c0 .1-.1 0-.1 0-.1-.1-.1.1-.2.1v-.1l-.1.1v-.1h-.1v-.1c-.1 0-.1.1-.2.1-.1.1 0 .1-.1.2l-.1-.1v.2c-.1 0-.2.1-.2 0 0 .1.1 0 0 .1 0-.1-.1 0-.1 0 0-.1.1 0 0-.1 0 .1-.1 0-.2 0 0 .1-.1.1-.2.1h-.2c0 .1-.1.1-.1.1v-.1h-.1l-.1.1v-.1c-.1 0-.1.1-.2.1 0 .1.1.1 0 .2v-.3h-.1v.1h-.1s-.1 0 0 .1c0 0-.2.1-.1.1-.1.1-.3 0-.4.1-.1 0-.2.1-.2.1h-.1s0 .1-.1 0c-.1 0-.1 0-.2.1 0-.1-.1 0-.1 0h.1-.1v-.1c-.2 0-.2.2-.4.1 0 .1.1 0 .1.1-.1 0-.2-.1-.2-.1-.1 0-.1.1-.2.1v.1c-.1 0-.1-.1-.1-.1h-.3c-.1 0 0 .1-.1.1s0-.1-.1 0c-.1 0 0-.1 0-.1-.1.1-.2 0-.2 0h-.2v.1s-.1.1-.1 0c.1 0 0-.1.1-.1h-.1c-.1 0 0 .1-.1.1 0 0 0-.1-.1 0v.1h-.1l-.1.1c0 .1-.1 0-.2 0 0 0 0-.1-.1-.1-.1.1-.1 0-.2 0v.1l.1-.1-.1-.2.1-.1v.1c-.1-.1-.1.1-.2 0v-.1c-.1 0-.2.1-.3.1 0 .1-.1 0-.1.1l-.1-.1s-.1 0-.1.1h-.1c-.1 0-.1.1-.2.2v-.1h-.1l-.1.1v.1s-.1 0 0 .1c-.1-.1-.3.1-.4 0-.1 0-.2.1-.2.1-.1 0 0 .1-.1.1s0 0 0-.1c-.1-.1-.1.1-.2 0-.1 0-.1.1-.2.1 0 .1-.1.1-.2.2v-.1.1s-.1 0-.1-.1h.1c-.1-.1-.1 0-.1 0-.1 0-.1.1-.2.1 0 .1-.1 0-.1 0v-.1l-.2.2c0-.1.1-.1.1-.2 0 0-.1 0-.1.1s-.1.1-.2.1c0-.2-.2 0-.3-.1-.1.1-.3.1-.5.1.1.1 0 0 0 .1H38V18c-.1 0-.1 0-.1-.1 0 0 0 .1-.1.1h.1c-.1.1-.1-.1-.2 0-.1 0-.2.1-.3.2v-.1c-.2 0-.3.2-.4.2 0 0 0 .1-.1 0l-.1.1c-.2 0-.2.1-.3.2 0-.1-.1-.1-.2-.1-.2 0-.3.2-.4.2-.1-.1-.3.1-.5.1v.1s-.1.1-.1 0-.1 0-.2 0v.1c-.2-.1-.4.2-.5.1 0 0-.1 0-.1.1v-.1c-.1 0-.2 0-.3.1-.1 0 0 .2-.1.2v-.1c-.1 0-.3 0-.4.1-.1 0-.2 0-.2.1 0-.1-.1 0-.2.1v-.1c0 .1 0 .1-.1.1s0 .1-.1.1-.1 0-.1.1h-.2s0 .1-.1.1-.1.1-.2.1h.2s-.1 0-.1-.1c0 .1-.1.2-.2.2h-.2v.1h.1s0 .1-.1 0v.1c-.1-.1-.2-.1-.2-.1-.1.1-.2.1-.3.2h-.1c-.1 0-.2.1-.2.1-.1 0 0-.1-.1 0-.2-.1-.3.3-.6.2-.3 0-.5.2-.8.2-.1 0-.1 0-.1.1v-.1l.2-.3c-.1.1-.2-.1-.3 0-.1 0-.1.1-.2 0l-.1.1c-.1 0 0-.1-.2-.1l-.1.1h.1c0 .1 0 .2.1.2l.1-.1h-.1.1l.1-.1v.1c0-.1-.1-.1 0-.1 0 0 0 .1.1 0v.1s.1 0 .1-.1c.1 0 .1-.1.2 0l.1-.1c0 .1.1 0 .2.1 0-.1.2-.1.2-.2h.1c0-.1.1-.1.1-.2.1.1 0 .1 0 .2 0-.1.1-.1.1-.1.1 0 0 0 .1.1 0-.1 0 0 .1-.1 0 .3-.1.4 0 .4.1-.1 0 0 0 0zm1.7-.7zm.1 0zm-.4-.3zm0 .1zm13.2-3.7h.1zm-10.7 3.4zm11.6-3.5zm.4-.1zm.2 0s0-.1 0 0c0-.1 0-.1 0 0zm-4.2 1.3zm1.2-.5zm-2.6.9zm2.5-.9c.1 0 .1 0 0 0 .1 0 .1 0 0 0zm4.3-1.1v-.1zm0-.1zm0 0zm-.4.1zm-.1.1h.1s-.1-.1-.1 0zm-.5-.1c.1-.1.1-.1 0 0 0-.1.1-.1 0 0zm-.3 0c.1 0 0 0 0 0zm-2 .6zm-.3.4v-.1zm-.3-.3h-.1zm-3.4 1s0-.1 0 0zm-1.5.5c0-.1 0-.1 0 0 0-.1 0 0 0 0zM35 19z" style="fill:#fff"/></g><path d="M69.1 27.2s-6.9-2.3-4.7-7.6c2.1-5.3 6.8-5.3 7.1-6 .2-.7.7-2.2 1.4-1.9s24.5 7.6 24.6 8.3.4 1.7-.2 1.8c-.7.1 2.1 4 2 5.2-.1 1.2 2.1 6.3-3.5 7.7s-6.4-1.2-6.4-1.2-1 1.1-1.1 2S70 30.3 70 30.3s-.1-3-.9-3.1z" style="fill:#91bdfa"/><g style="opacity:.65"><path d="M69.4 25.1c-.1 0-.1.1 0 0zm0 .3c.1 0 .1 0 .1-.1l-.1.1v-.1h-.1c.1 0 .1 0 .1.1.1-.1.1-.1 0 0zm3.1-.2zm1.5-1.5c0 .1 0 .1 0 0 0 .1 0 0 0 0zm.2-.2zm-1.7 1.7c.1-.1 0 0 0 0zm-2.6.2zm1.8.2v.1zm-.6.2zm-1.1-.1zm2.2-.3zm-2.9-3zm.2-.8zm5.1 1.3zM71.9 18c0 .1-.1 0-.1.1.1 0 .2-.1.1-.1zm-2 7.4zm2-7.3zm2.8 3.3zm-.1 1.1zm-.1-1.7zm-.2-.6-.1.1h.1zm-6.1 2.3s.1 0 0 0zm1.7 2.9zm4.1-4.5zm-5.5-1.6zm5.4 1.3zm-5.7 1.9z" style="fill:#fff"/><path d="M68.8 22.5c-.1 0 0 .1-.1.1s0-.1-.1-.1-.1.1-.2 0h-.3v.1H68c0-.1.1 0 .1 0-.1 0-.2 0-.2-.1s.1.1.1 0l.1.1v-.1c-.1-.1-.1 0-.2-.1l-.1.1c-.2-.1 0-.2-.1-.2s-.1.1-.1 0h.1c0-.1-.1 0-.1-.1 0 0 .1.1.1 0s-.1 0-.1-.1h.1c0-.1-.2-.2-.2-.3h.1c-.1-.1 0-.3 0-.5l-.1-.3c0-.1 0 0-.1 0h.1c0-.1 0-.3.1-.4.1-.1-.1-.1 0-.2.1-.2.2-.4.3-.5 0-.1.2-.1.1-.2.1-.1.1 0 .2-.1v-.2h.1-.1c0-.1.2-.1.2-.1l.1-.2v.1c0-.1.1 0 .1-.1.1 0 .1-.1.2-.1.1-.1.2-.2.4-.3-.1 0-.1-.1-.1-.1h.1c0-.1-.1 0 0-.1.1 0 .1 0 .1.1v-.1.1c0-.1.1 0 .1-.1.1-.1.2-.1.3-.2v-.1h.3c.1 0 0-.1 0-.1s.1 0 .1.1c.1 0 .2-.1.3-.1h.1c.2-.1.4.1.6.1h.2c.1 0-.1 0 0 .1.2-.1.2.1.4.1 0 .2.4.1.4.3v.1-.1c.2.1.3.2.4.3.1.1.2.2.3.4.1.1.2-.1.2.1h-.1c.2.1.3.4.5.5h-.1c0 .1.1.2.1.1v.1c0 .1.1.1.1.1l.1.1c0 .1.1.1.1.2.1 0 0 .2.1.1-.1 0 0 .2 0 .2s0 .1-.1 0c0 .1.1.1.1.1-.1.1.1.2 0 .3.1.2.1.3.1.5-.1 0 0-.2-.1-.2 0 .2.1.3.1.4h-.1c.1.2-.1.3 0 .5v.1c.1 0 .1.1.1.2-.1-.1-.1.1-.2 0v.1h-.1v.4c0 .1 0 .3-.1.4 0-.1-.1 0-.1 0v.1c0 .1 0 .1-.1.2v-.1l-.1.1h.1c0 .1.1 0 0 .1 0 0 0 .1-.1.1v.1l-.1-.1c0 .1-.1.1-.1.2v.1h-.1c-.1.1.1 0 0 .1s-.1.2-.2.3c-.1 0 .1-.1 0-.1-.1.1-.2.3-.3.4.1.1-.1 0-.1.1 0 0 0-.1 0 0-.1.1-.2.1-.3.3-.1 0-.1.1-.2.1v.1c-.3 0-.3.3-.5.2l-.1.1h.1s0 .1-.1.1c.1-.1 0-.1-.1-.1s0 .1-.1.1l-.1.1v-.1c-.1 0-.1.1-.2.1 0 0 .1 0 .1-.1h-.2c-.1.1-.2 0-.2.1.1-.1 0-.1 0-.1h-.1c0 .1-.1 0-.1 0s-.1 0 0-.1c-.1 0 0 0 0 .1-.1.1-.2-.1-.4 0-.1 0-.2.1-.3.1l.1-.1c-.1 0-.1-.1-.2-.1V26s-.1.1-.1 0l.1-.1h-.2.1-.2c.1 0 .1.1.1.1 0 .1.2.1.2.1l-.1.1h.1v.1c0 .1.1 0 .1.1h.1s0 .1 0 0c.1.1.2 0 .2.1.2 0 0-.1.1-.1l.1.2v-.1c.1 0 0 0 0-.1.1.1.2 0 .2.1 0 0-.1 0 0-.1 0 .1.1 0 .2 0 0 .1-.1 0 0 .1 0-.1.1 0 .2 0 0-.1.1 0 .2-.1h.3c0-.1.1-.1.1-.1v.1h.1l.1-.1v.1c.1 0 .1-.1.2-.1 0 0-.1-.1-.1-.2v.2c.1 0 0 0 0-.1h.1v-.1h.1s.1 0 0-.1h.1s.2-.1.1-.2c.1-.1.3-.1.4-.3 0-.1.1-.1.1-.2h.1c0-.1 0-.1.1-.1v.1c.1 0 .1 0 .1-.1 0 .1.1 0 .1 0h-.1l.1-.1v.1c.2-.1.1-.3.3-.3 0-.1-.1 0-.1 0 .1-.1.2 0 .2-.1.1-.1 0-.1.1-.2 0 0-.1 0-.1-.1.1-.1.1 0 .1 0s0 .1 0 0l.1-.1c0-.1 0 0-.1 0l.2-.2s-.1 0 0 0c.1-.1 0-.1 0-.2.1 0 .1.1.1-.1 0-.1.1 0 .1 0 0-.1.1-.2.1-.2v.1-.1h-.1s-.1 0-.1-.1c0 0 0-.1.1-.1-.1.1.1 0 0 .1v-.1c.1-.1-.1-.1 0-.2h.1c0 .1-.1 0-.1 0v-.2s0 .1 0 0 .1-.1.1-.2h.1c0-.1.1-.1 0-.2h-.1v.2l.8-.9v.1c0-.1 0 0-.1 0 .1-.1 0-.1 0-.2h.1c.1-.1-.1-.2 0-.4v.1-.1l.1-.1s0-.1-.1-.1v-.1c0-.1-.1-.1-.1-.2h.1v-.1l-.1-.1h-.1s0-.1-.1 0c.1-.2-.1-.3-.1-.5-.1-.1-.1-.2-.2-.2 0-.1-.1 0-.2-.1 0-.1.1 0 .1 0 .1-.1-.1-.1-.1-.2s-.1-.1-.2-.2c-.1 0-.2-.1-.3-.2h.1s-.1.1-.1 0v-.1l.1.1c0-.1-.1-.1-.1-.1-.1-.1-.2 0-.2-.1-.1 0 0-.1-.1-.1V19c-.1 0-.2-.1-.3-.1h.3s-.1-.1-.2-.1h.1c-.1 0-.2 0-.2-.1.1-.1-.2-.2-.2-.3-.2 0-.3-.2-.5-.3 0 .1-.1 0-.1.1h-.1V18h.1c-.1 0 0-.1-.1-.1h-.1l.1.1c-.2 0-.1-.1-.3-.1h.1c-.1 0-.3-.1-.4 0v-.1c-.2-.1-.4.1-.6 0 0 0-.1.1-.1 0l-.1.1c-.2 0-.3.1-.4.2 0-.1-.2-.1-.2-.1-.2.1-.3.2-.5.3-.1 0-.4.2-.5.3v.1l-.1.1c-.1 0-.1 0-.2.1l.1.1c-.3 0-.3.4-.5.3 0 .1-.1.1-.1.1-.1.1-.1.1-.2.3v-.1c-.1.1.1.2 0 .3h-.1c-.1.1-.2.2-.2.4 0 .1-.2.2-.1.3-.1 0-.1.2-.1.2 0 .1.1.1.1.2-.1.1 0 .1 0 .2v.1c0 .1 0 .1-.1.2l.1.1c0 .1.1.2 0 .3v-.2c-.1 0-.1.1-.1 0 0 .1.1.2.1.3v.4h.1v-.1l.1.1h.1c-.1.1 0 .2-.1.2.1.1.2.3.3.3v.1h-.1c.1 0 .2.2.2.1.1.1-.1 0 0 .1.2.3.4.1.7.3.3.1.6.1 1 0 .1-.1.1-.1.1-.2h.1v-.1c0-.1.2-.2.1-.4v-.2l-.1-.1c0-.1.1 0 .1-.2 0-.1-.1-.1-.2-.1v.1c-.1 0-.2 0-.2.2l.1.1v-.1.1l.1.1h-.1s.1-.1.1 0c0 0-.1 0 0 .1h-.1s0 .1.1.1c-.1 0 0 .1-.1.1l.1.1c-.1-.1 0 .1-.1 0 .1.1 0 .1-.1.2h-.1c0 .1-.1.1-.1.2-.1-.1 0-.1 0-.2 0 .1-.1.1-.1.1l-.1-.1c0 .1 0 0-.1.1-.4-.8-.3-.8-.3-.9-.1.1 0 0 0 0zm-1.4-1c0 .1.1.1 0 0 .1.1 0 .1 0 0zm0-.1c0 .1 0 .1 0 0zm-.3.4zm.1.1v-.1zm5.3 3.3zm-4.1-5.7v-.1.1zm3.2 5.9zm-.4.1zm-.3.1zm3.3-3.2zm-.5 1.4s0-.1 0 0c0-.1 0 0 0 0zm.3-2.9zm-.3 2.8zm-4 1.6h-.1zm-.1 0zm0 0zm.4.2c0-.1 0 0 0 0z" style="fill:#fff"/><path d="M70.1 25.5s0-.1 0 0H70c0-.1.1 0 .1 0zm.5.3h-.1v.1c.1 0 0-.1.1-.1zm.4 0c-.1.1 0 .1 0 0 0 .1 0 0 0 0zm2.1-1.1c.1 0 0 .1 0 0zm.1-.5v.1zm.5.1v-.1zm.6-4c0 .1.1.1 0 0zm-1-1.4s-.1-.1 0 0c-.1-.1-.1 0 0 0zm-4.9-.1v-.1l-.1.1z" style="fill:#fff"/></g><g style="opacity:.65"><path d="M92.3 32.5zm-.2-.1-.1.1c.1 0 .1 0 .1-.1.1 0 .1.1 0 0 .1.1.1.1.2.1-.1-.1-.2-.1-.2-.1zm-2.3-2zm-.3-1.9zm.1-.3zm.2 2.2zm1.8 2.1zm-1.3-1.3zm.4.5c0-.1-.1 0 0 0-.1 0 0 0 0 0zm.8.5zm-1.4-1.4s0-.1 0 0zm3.3-1c0-.1 0-.1 0 0zm.8-.5v.1zm-4.4-1.7zm4.3-2.3c0-.1.1 0 0-.1 0 .1-.1.1 0 .1zm-2.5 7.2zm2.5-7.3zm-3.7 1.3zm-.6.8zm.9-1.3s.1 0 0 0c.1 0 0 0 0 0zm.5-.3zm3.5 5.5c0-.1 0-.1 0 0 0 0-.1 0 0 0zm-3.1 1.3zm-1.1-6.8c0-.1 0 0 0 0zm6.3 2.2zm-6-2.4c.1 0 .1-.1 0 0zm3.9 5.6z" style="fill:#fff"/><path d="M94 31c.1 0 .1 0 .1-.1.1 0 0 .1 0 .1h.2c.1 0 .2.1.3 0v-.1h.1c0 .1-.1 0-.1.1.1 0 .2-.1.3 0 0 .1-.2 0-.1.1h-.1c.1.1-.1 0 0 .1h.3v-.1c.2-.1.2.1.3 0 0-.1 0-.1.1-.1v.1c.1 0 0-.1.2-.1l-.1.1c.1 0 0-.1.1-.1v.1l.3-.3s0 .1 0 0c.1-.2.3-.3.4-.5v-.1c.1-.1 0 0 0-.1h.1c0-.1 0-.4.1-.5 0-.1-.1-.1 0-.2.1-.2 0-.5.1-.6-.1 0 0-.2-.1-.2 0-.1.1-.1.1-.3l-.1-.1h.1l.1-.2.1-.1v-.1.1-.2l-.1-.2.1.1c-.1-.1.1 0 0-.1v-.2c0-.1-.1-.3-.2-.5 0 .1-.1.1-.1 0h.1s0 .1-.1 0c0-.1.1-.1.1 0v-.1h.1s0-.2-.1-.2c-.1-.2-.2-.2-.2-.3h-.1c0-.1-.1-.2-.2-.3H96s-.1-.1 0-.1c-.1-.1-.1-.1-.3-.2v.1s-.1-.1 0-.1c-.2-.1-.3-.4-.6-.4h-.2c-.1 0 .1 0 0-.1-.2 0-.3-.1-.5-.1-.1-.2-.4-.1-.6-.2h-.1v.1h-1.1c-.1 0 0 .2-.2.1v-.1c-.3.1-.5.2-.8.3-.1 0-.2.1-.2.1h-.1c-.1 0-.1.1-.1.1s-.2.1-.1.1c-.1 0-.2.1-.2.1 0 .1-.2.1-.1.2 0-.1-.2 0-.2.1h-.1c-.1 0-.1.1-.1.1-.2 0-.1.3-.3.2-.1.2-.2.4-.3.5-.1-.1.1-.2 0-.2-.1.2-.1.3-.2.4v-.1c-.1.2-.2.3-.2.5v.1c.1 0 .1.2.1.2-.1-.1-.1.1-.2 0v.1h-.1v.2c0 .1.1.1 0 .2v.4c-.1-.1 0 .1-.1.1v.1c0 .1.1.1 0 .2v-.1.1-.1c0 .1.1 0 .1.1v.2h-.1c.1 0 0 .2.1.2h-.1.1-.1c0 .1.1 0 .1.1s.1.2.1.3c-.1 0 0-.1-.1 0 0 .2.2.3.2.5.1 0 0 .1 0 .2h-.1c0 .1.1.2.2.4 0 .1 0 .2.1.2h.1c0 .3.2.3.2.6 0 0-.1 0 0 0l.1.1v-.1s.1 0 .1.1c-.1 0-.1 0-.1.1s.1 0 .1.1c0 0 .1 0 .1.1h-.1s.2 0 .2.1c0 0-.1 0-.1-.1v.1s0 .1.1.1c.2 0 .1.1.3.1-.1 0 0 0-.1.1v.1c.1 0 .1.1.2.1v.1c.1 0 0 0 0-.1.1 0 .2.2.4.2h.3l-.1.1c.1.1.1.1.2 0v.1c.1 0 0-.1.1 0l-.1.1h.2l-.1.1c.1 0 .2 0 .2-.1v.1h-.1c0-.1-.2 0-.3 0l.1-.1h-.1V33c0-.1-.1 0-.1 0h-.1s0-.1 0 0c-.1-.1-.2 0-.2-.1-.1 0 0 .1-.2.1v-.2h-.1c0-.1-.2-.1-.1-.2v.1c0-.1-.1 0-.1-.1h.1c-.1 0-.1-.1-.1-.1 0 .1-.1-.1-.2-.1l-.1-.2c-.1 0-.1-.1-.2-.1h.1-.1.1c0-.1-.2-.1-.2-.2 0 0-.1.1-.2.1h.2c0-.1 0 0-.1 0v-.1h-.1v-.1s0-.1-.1 0v-.1s-.1-.2-.1-.1c-.1-.1-.1-.3-.1-.4 0-.1-.1-.2-.1-.2v-.1c0-.1-.1-.1 0-.2v.1-.2c.1 0 .1-.1 0-.1v.1-.1h.1c.1-.2-.2-.3-.1-.4-.1 0 0 .1-.1.1 0-.1.1-.2.1-.2 0-.1-.1-.1-.1-.2 0 0-.1 0-.1-.1s.1-.1.1 0c0 0 0 .1 0 0 0 0 0-.1.1-.1 0-.1 0 0-.1 0v-.4s.1 0 .1-.1.1 0 .1 0c0-.1.1-.2.1-.2v-.1h-.1s-.1 0-.1-.1c0 0 0-.1.1-.1 0 .1.1 0 .1.1v-.1c.1-.1-.1-.1 0-.2h.1-.1c.1-.1 0-.1 0-.1v-.1s0 .1 0 0 .1-.1.1-.2h.1c0-.1.1-.1.1-.1-.1 0 0 0-.1-.1l.3-.8v-.1s0 .1-.1.1c0-.1 0 0 0 0 .1 0 0-.1.1-.2l.1.1c.1-.1.1-.2.2-.3l.1-.1h.1s.1-.1 0-.1h.1c.1-.1 0-.2.1-.2 0 .1.1 0 0 .1 0 0 .1 0 0-.1l.1-.1v-.2c.2 0 .3-.2.4-.2.1 0 .1-.1.2-.1s0-.1.1-.1 0 .1 0 .1c.1.1.1-.1.2 0 .1 0 .1-.1.2-.1 0-.1.2-.2.2-.2v.1-.1s.1 0 .1.1h-.1c.1.1.1 0 .1 0 .1 0 .1-.1.2-.1.1-.1.1 0 .1 0v.1l.2-.1c0 .1-.1.1-.2.1 0 0 .2 0 .2-.1h-.1c.1-.1.1-.1.2-.1 0 .1.2 0 .3.2.2 0 .3 0 .5.1 0-.1.1 0 .1-.1h.1l.1.1h-.1c.1 0 0 .1.1.1 0 0 .1-.1.1 0l-.1-.1c.2 0 .1.1.2.1H94c.1 0 .2.1.3 0 0 0 0 .1 0 0 .1.1.4.1.4.2h.1s.1 0 .1.1c.1.1.2.1.3.2-.1.1 0 .2 0 .2.1.2.2.2.3.4 0 .1.1.4.1.6h.1s.1.1 0 .1c-.1.1 0 .1 0 .2h.1c-.1.2.2.4 0 .6 0 0 0 .1.1.1h-.1v.3c0 .1.2.1.2.2h-.1c0 .1-.1.3 0 .4 0 .1-.1.2 0 .2-.1 0 0 .1 0 .2s.1.1.1.2v.2c0 .1-.1.1-.1.1v.1c-.1.1 0 .2-.2.2l.1-.1s-.1 0-.1-.1c0 .1 0 .2-.1.2h-.2s0 .1.1.1l.1-.1s0 .1-.1.1v.1c-.1 0-.2 0-.2-.1-.1.1-.2.1-.3.2h-.1c-.1 0-.2 0-.2.1-.1 0 0-.1-.1-.1-.2-.1-.4.2-.6 0-.2-.1-.6-.2-.7-.5 0-.1 0-.1-.1-.1h.1l-.1-.1c0-.1.2-.1.2-.3 0 0 .1-.2.1-.1 0 0 0-.1.1-.1.1-.1.1.1.2 0 0 0 .1-.2 0-.2h-.1c0-.1-.1-.2-.2-.2v.1h-.1l.1-.1c-.1 0-.1 0-.1.1h-.1v.1s0-.1-.1 0c0 .1.1 0 .1.1h-.1v-.1c0 .1-.1.1-.1.2-.1 0-.1.2-.2.1v.2c-.1-.1-.1.2-.1.2.1.1.1.3.2.4v.2h.2c0 .1-.1 0-.1.1h.2v.1c.1-.1.1 0 .1 0 .6.2.5.2.6.2.1 0 0 0 0 0zm2.1-.4zm.1-.1zm-.5-.1zm0 .1zm-5.9 0zm7-2.4zm-6.7 3.3zm.3.3c0 .1 0 0 0 0zm.2.3zm-1.2-4.9zm-.1 1.6zm1.2-3zm-1.2 2.9zm2.6 4zm0 0zm.1-.1c0 .1 0 .1 0 0zm-.5 0z" style="fill:#fff"/><path d="m91.3 32.4.1.1s0-.1-.1-.1zM91 32h.1c-.1-.1 0 0-.1 0zm-.3-.3c.1.1.1 0 0 0zm-1-2zm-.4-.4v.1h.1zm.4-.3h-.1zm1.4-3.2s0 .1 0 0zm1.6-.6zm3.5 2.5z" style="fill:#fff"/></g><g style="opacity:.65"><path d="M92.9 21.7s0-.1 0 0zm-.1-.2-.1.1.1-.1s.1.1 0 .1h.1c0-.1-.1-.1-.1-.1-.1 0 0 0 0 0zm-2.7-.9zm-1.7-.6zm-.3-.2zm2 .8c-.1-.1 0-.1 0 0zm2.2.9s.1 0 0 0c.1 0 .1 0 0 0zm-1.5-.8c.1 0 .1 0 0 0zm.6.2s0 .1 0 0c0 .1 0 0 0 0zm.9.4zm-1.9-.7zm-16-4.6zm-.6-.4zm13.8 4zm-4.8-1.5c0 .1-.1 0 0 .1-.1 0 0 0 0-.1zm9.5 3.4zm-9.6-3.2zm3.7 1zm.9.3zm-1.4-.4zm-.5-.2s0 .1 0 0c0 .1 0 .1 0 0zm-9.5-2.5c-.1 0-.1-.1 0 0-.1 0-.1 0 0 0zm16.4 5zm-6.5-1.9c-.1 0-.1 0 0 0zm-6.4-2c-.1 0 0 0 0 0zm6.1 1.9c-.1 0-.1 0 0 0-.1 0-.1 0 0 0zm-9.7-3.1z" style="fill:#fff"/><path d="M75.3 16.4c.1 0 .1-.1 0 0 .2-.1.1 0 .1 0 .1 0 .1-.1.2 0 .1 0 .2.1.3 0v-.1h.1c0 .1-.1 0-.1.1h.2c0 .1-.1 0-.1.1h-.1v.1c.1.1.1 0 .2.1v-.1c.2 0 .1.2.2.1 0 0 .1-.1.1 0v.1c.1 0 .1-.1.2 0h-.1c.1.1.1 0 .1 0v.1h.4v.1c.2 0 .3.1.5.2h.1c.1 0 0 0 0 0v.1c.1 0 .3 0 .4.1.1 0 .1-.1.2 0 .2.1.4.1.5.2.1-.1.2.1.2 0 .1.1 0 .1.2.2 0 0 .1-.1.1 0v.1h.1v.1-.1c.1 0 .2.1.1.1h.2-.1c.1 0 0 .1.1 0 0 0 .1.1.2.1s.3.1.4.1v-.1.1-.1.1h.1s.1.1.1 0c.1 0 .2 0 .3.1 0-.1.1 0 .1-.1.1 0 .2.1.3.1.1 0 0 0 .1-.1 0 .1.1.1 0 .1h.3v-.1s.1 0 0 .1c.2 0 .3.3.5.2h.2c.1 0 0 0 0 .1.2 0 .2.1.4.1.1.2.3.1.4.2h.1v-.1c.3 0 .6.2.9.4.1 0 .1-.2.2 0l-.1.1c.2 0 .4.1.7.1 0 .1.2.1.2 0v.1h.2c.1 0 .2 0 .2.1.1 0 .1.1.2 0 0 .1.1.1.2.1v.1h.1c.1.1.2 0 .3.1.2 0 .3 0 .5.1 0 .1-.2 0-.2 0h.4c.2 0 .3.1.4.1h.1c0-.1.1-.1.2-.1-.1.1.1.1 0 .2v.1h.8c-.1.1 0 0 0 .1h.3-.1.1-.1c.1 0 0-.1.1 0 0 0 .1 0 .1.1h.1v.1c0-.1.1 0 .2 0v.2c.1 0 0-.1.1 0s.2 0 .3.1c0 .1-.1 0-.1.1.1 0 .3 0 .4.1 0-.1.1.1.2.1h.3s.1.1.2.1c0 0 .1 0 0-.1.1.2.4 0 .5.2 0 0-.1 0 0 0h.1v-.1h.1c-.1 0 0 .1 0 .1 0 .1 0-.1.1 0h.1c0 .1 0 0-.1.1.1 0 .1-.1.2 0h-.1c0 .1 0 .1.1.1l.1.1c.1-.1.1 0 .3 0l-.1.1v.1c.1 0 .1.1.1 0v.1c.1 0 0 0 0-.1.1 0 .2.1.3.1.1 0 .2-.1.3-.1v.1s.1.1.1 0v.1s0-.1.1 0l-.1.1h.2l-.1.1h.2v.1c-.1 0-.1 0-.1-.1s-.1 0-.2-.1l.1-.1h-.1V22c0-.1-.1 0-.1 0h-.1s0-.1 0 0c-.1-.1-.2 0-.2-.1-.1 0 0 .1-.1.1v-.2.1c-.1 0 0 0 0 .1 0-.1-.2 0-.2-.1v.1c0-.1-.1 0-.1-.1 0 0 .1 0 0-.1-.1.1-.1-.1-.2-.1 0 .1-.1 0-.2 0 0 0-.1-.1-.2-.1 0 .1-.1 0-.2 0 0 0 0-.1.1-.1h-.4s0 .2-.1.2v-.1h.1-.1v-.1l-.1-.1s0 .1 0 0c-.1 0 0-.1 0-.1h-.1v-.1h-.1c-.1 0-.2-.1-.4-.1h-.2V21h-.1.1c-.1 0-.1-.1-.2 0 0 0 0-.1-.1-.1h-.1v-.1c-.3-.8-.4-.6-.5-.8-.1 0 .1.1 0 .1s-.1-.1-.1-.1c-.1-.1-.1.1-.2 0 0 0 0 .1-.1.1s-.1-.1 0-.1c0 0 .1 0 0 0l-.1-.1c-.1 0 0 0 0 .1-.1-.1-.1 0-.2-.1s-.1 0-.2 0c0 0 0-.1-.1-.1v-.1c-.1 0-.1-.1-.2-.1h-.1v.1s0 .1-.1.1c0 0-.1 0-.1-.1.1.1 0-.1.1 0h-.1c-.1-.1-.1.1-.2 0v-.1.1h-.2c-.1 0-.1-.1-.2-.1v-.1c-.1 0-.1-.1-.2-.1 0 .1 0 0-.1.1h.1-.1.1c-.1 0 0 0 0 .1 0-.1-.1 0-.2-.1v-.1c-.1-.1-.2 0-.3-.1h-.1v-.1h-.1v-.1c-.1-.1-.2.1-.2 0 0 0 0-.1.1-.1h-.2s0 .1-.1 0c0 0-.1 0 0 .1-.1-.1-.3-.1-.3-.2h-.2c-.1-.1-.1.1-.2 0 0-.1.1 0 0 0 0-.1-.1 0-.2-.1 0-.1-.1 0-.2 0H84v-.1s0 .1-.1.1l-.1-.1h.1c0-.1-.1 0-.1 0-.1 0-.1.1-.2 0-.1.1 0-.1-.1 0v-.1h-.2c.1 0 .2 0 .2-.1h-.2.1c-.1 0-.1.1-.2 0 .1-.1-.2-.1-.2-.2-.2 0-.3-.1-.5-.2 0 .1-.1 0-.1.1h-.1l-.1-.1c-.1 0 0-.1-.1-.1 0 0 0 .1-.1 0l.1.1c-.1 0-.1-.1-.2-.1s-.2-.1-.3 0v-.1c-.1-.1-.4 0-.5-.1h-.2c-.1-.1-.2 0-.4 0 0-.1-.1-.1-.1-.2-.2-.1-.3 0-.5 0-.1-.1-.3-.1-.5-.2 0 0 0 .1-.1.1h-.1c0-.1-.1-.1-.1-.1v.1c-.1-.2-.4-.1-.5-.2h-.1v-.1c-.1 0-.1-.1-.3-.1-.1 0-.1.1-.2.1v-.1c-.1 0-.2-.1-.4-.1-.1 0-.2-.1-.2 0 0-.1-.1 0-.2 0-.1.1-.1.1-.2.1h-.2l-.1-.1s-.1.1-.1 0c-.1-.1-.2 0-.2-.1.1 0 .2.1.1.1 0 0-.1-.1 0-.1-.1 0-.2.1-.2 0h-.1s-.1 0-.1-.1c0 .1-.1 0 0 .1h.1-.1l-.1.1c0-.1-.1-.2-.1-.2-.1 0-.3-.1-.4 0v-.1h.1-.2c-.1-.1.1-.1 0-.1.6-.6.4-.4.2-.6-.2-.1-.6-.1-.8-.3h-.1v-.1h-.1c-.1 0-.1-.2-.3-.1 0 0-.2 0-.1-.1h-.1c-.1-.1.1-.1-.1-.2-.1 0-.2 0-.2.1v.1h-.1c0 .1-.1.2 0 .3h.1v.1h-.1c0 .1.1 0 .1 0v.1l.1-.1s-.1.1 0 .1c0 0 0-.1.1-.1 0 .1 0 .1.1.1h.1c0 .1.1 0 .1.1h.1c-.1.1.1 0 .1.2.1-.1.2 0 .3 0l.1.1c0-.1.1-.1.2-.1 0 .1-.1.1-.1.2 0-.1.1 0 .1-.1v.1c0-.1 0 0 .1 0 .1-.1.1-.1.1 0 .1 0 0 0 0 0zm1.8.4s-.1 0 0 0c-.1 0 0 0 0 0zm.1 0zm-.2-.5c.1 0 .1.1 0 0 0 .1 0 .1 0 0 0 .1 0 .1 0 0 0 .1 0 .1 0 0zm0 .1zm13.1 4.2zm-10.9-3.1zM90.8 21zm.4.1zm.2.1zM87.2 20zm1.3.2c0 .1 0 .1 0 0 0 .1 0 .1 0 0zm-2.7-.6zm2.6.6c0 .1 0 .1 0 0 0 .1 0 0 0 0zm4.2 1.4zm0 0zm0 0zm-.4-.1zm-.1 0s.1 0 0 0c.1 0 .1-.1 0 0zm-.3-.4h.1c-.1-.1 0 0-.1 0zm-.3-.1s0-.1 0 0c0-.1 0-.1 0 0zm-2-.7zm-.5.2h.1z" style="fill:#fff"/><path style="fill:#fff" d="M88.9 20.1V20h-.1zM85.5 19c0 .1.1 0 0 0zm-1.4-.4c-.1 0-.1 0 0 0-.1 0-.1 0 0 0zm-4.4-1.4h.1-.1z"/></g><g style="opacity:.65"><path d="M75.1 64.5h.2-.2zm.6-.2H75h.6-.2.1c.3 0 .3-.1 0-.1 0 .1.1.1.2.1zm-1-2.6zm-1.7-.9zm-.4-.3s0-.1 0 0zm2.1 1.2v-.1.1zm.1 2.4c.1 0 .1 0 0 0 .1 0 .1 0 0 0zm.8-2s.1 0 .1-.1l-.1.1zm.4.5-.4.2c.1-.1.2-.1.2-.1.1 0 .1-.1.2-.1zm-.1 1.1c.1 0 .1 0 0 0zm-.6-2c0-.1 0-.1 0 0zm-.9 3.1zm1.4-.3h.2zm-3.9-4.3zm-3.2 5.2c.2-.1.3 0 .6-.1-.1 0-.5-.1-.6.1zm6.2-1.3zm-5.6 1.1zm1.1-4.2s0 .1 0 0c0 .1 0 0 0 0zm1.2-.2zm-1.5.9zm-.4.5c.1 0 .1 0 0 0zm4.4 3.5c.1 0 .1.1.2.2-.1-.2-.2-.3-.2-.2zm.9-1.6h-.1.1zm-3.4-.8zm.6 3c0-.1 0-.1 0 0zm-.7-2.9c-.1-.1-.1-.1-.2-.1l.1.1h.1zm2.8 2.4z" style="fill:#fff"/><path d="M73.9 65.2s.3.2.5.3c.1.1-.2-.1-.4-.2l.3.3c-.1 0-.1 0-.1-.1.2.2 0 .1.2.4 0 0-.1 0-.1-.1.1.1.3.2.4.3 0 0 .1.2 0 0l-.1-.1.1.1c-.3-.2-.1-.1-.3-.3.1.1.2.3.1.3-.2-.2 0-.1-.3-.3h.1c-.4-.3 0 0-.4-.4-.1 0 .1.2 0 .1l.3.3c.1.3-.6-.6-.4-.2.1.2.4.5.2.4l-.2-.3c-.1 0 .3.5.1.3-.1-.1 0-.1-.1-.2-.2-.2.1.2.1.2h-.2v.4c0-.1-.1-.2-.1-.3 0 .2-.2 0-.3-.1l.1.3s-.1-.1-.1-.2c-.1-.1.1.2.1.3l-.1-.2c0 .3-.1.6-.2.3v-.1c-.1-.1 0 .6-.1.3v-.1c-.1-.1-.3.2-.3-.3 0 .4-.1-.2-.2.4v-.6s-.1.4-.2.4l.1-.3-.1.3.1-.4v.3c-.1.1 0-.2 0-.4l-.2.2c0-.1.1-.1.1-.2-.2.3.1-.3 0-.1 0 .1-.1.2-.1.2 0-.2 0-.2-.1-.2l.1-.2c0-.1-.2 0-.2 0 0 .1-.2.4-.3.4l.2-.3c-.1.2 0 .1-.2.3 0-.1.2-.3.3-.4l-.3.3.2-.2c-.1.2.2-.3-.1 0l.1-.1h-.2c-.2.2-.2.1-.3.3 0-.1.2-.3.1-.3-.1.1-.2.1-.3.2.2-.2.1-.2.3-.3h-.3c-.1.1-.1.1-.2.1l.2-.2c-.4.1.5-.5 0-.4h-.3c0-.1.2 0 .3-.1-.4 0 0-.1-.3-.1.7-.2-.1-.2.4-.3h-.2.1-.3c-.2-.2.3-.3.5-.4.1 0-.9-.3-.5-.2l.3.1c-.3-.2.1-.2-.2-.5.1 0 .1.1.1.1.2.1.1-.1-.1-.2l.2.1c.1.1-.2-.2 0-.1 0 0 .1 0 .1.1-.1-.1.1 0-.2-.2.1 0 0-.2.1-.1-.2-.2.2 0-.2-.3.3.3.3.2.2 0l.2.2s0-.1-.2-.3c.4.4-.2-.4.3.1-.1-.3-.1-.4 0-.6.2.4-.1.1.2.5 0-.2-.1-.6 0-.5 0 0 .1.2.1.3 0-.2.2 0 .2-.3v.1s.1.1 0-.1v.1c-.1-.3-.1-.6-.1-.8.1.6.1.1.3.9v-.3s0 .1.1.3v-.3.3c0-.2 0-.4.1-.3v.1c.1 0 .1-.5.2-.3v.5-.3s.1-.3.1-.1v.2l.1-.1v-.1c.1-.2 0-.5.1-.4 0 0 .1 0 .1.2 0-.1.1-.2.1-.1s-.1.4-.1.5c.1-.3.1-.1.2-.4 0 .1-.1.3-.1.3l.1-.2v.3c.1.1.1-.5.1-.2v.1c0 .1.2-.1.2 0-.1.4-.1.1-.2.4.1 0 .4-.3.4-.2.2-.5 0 .3.1.1 0 0-.2.3-.1.2 0 .1.2 0 .4-.1l-.1.1v.2l.2-.2c-.4.7.5-.1.1.4l-.1.1h.2l.2-.2c.1-.1.2-.1.2-.1-.2.1-.3.2-.4.3.1 0 .1-.1.2-.1-.3.3.4-.3.2 0l-.1.1c.1 0 .2-.1.2 0-.2.2-.1 0-.3.2 0 0 .5-.2.3 0h-.2l-.2.2-.1.1.1-.1c.6-.3.2 0 .6-.1-.4.1-.2.1-.5.2l-.2.2c.2-.1-.2.1.2 0-.1 0 0 0-.2.1.1 0 .2-.1.3-.1.3-.1-.3.3.1.2h.7c-.1.1-.4.1-.4.1-.1.1-.1.1 0 .1-.1 0-.2 0-.3.1h.2-.4c.1 0 .3 0 .4.1h-.4c.1 0 .2.1.4.1h.1-.3c-.2 0 .1-.1.2-.1h.1c.6-.1-.1-.1-.1-.2h.4-.3c.1 0 .3-.1.4-.1.2-.1-.2 0 .1-.1h.1-.1c.1 0 .3-.1.2 0 .2-.2-.3-.1 0-.2-.2-.1-.3.1-.7.1l.7-.3-.3.1.1-.1c-.2 0-.1.1-.3.1.2-.2-.2-.1.3-.3-.2.1-.1.1-.3.1.5-.2-.1 0 .1-.2.2-.1.1 0 .3-.2-.4.2 0-.2-.1-.2-.3.2-.2 0-.3 0 .1-.1.1-.2.1-.4-.3.2-.3.1-.4.1.2-.1.2-.2.3-.2-.1.1-.2.1-.2.1l.2-.2c-.1-.1-.3.1-.3-.1-.2.2-.4.6-.6.6l.3-.3s-.1.1-.1 0l.2-.1c0-.1-.2.1-.2.1l.2-.2s0 .1 0 0 0-.2.1-.3l-.2.2c-.1 0 .1-.2.2-.3-.1.1-.1-.1-.2.2 0 0 .1-.1.1-.2-.1.1-.2-.1-.3.2-.3.2-.1-.3-.3-.3v-.1c-.1.1-.2 0-.3.1 0 0 0-.2.1-.3-.1 0-.1.1-.2 0 .1-.1 0-.1.1-.1 0-.1 0-.3-.2 0 .1-.2 0-.3 0-.3v.2h-.1l.1-.3c-.1-.4-.5.6-.5-.1-.1.2.1.2 0 .4-.1-.1-.1-.5-.1-.5-.1-.2-.2.5-.3.3 0 .1 0 .4-.1.5-.1 0-.1-.5 0-.6v.1s.1-.1 0-.2v.1c0-.1-.1-.1-.1-.3-.1.1 0 .2 0 .3-.1-.2-.2 0-.3-.1v.2c-.2-.1-.1.2-.2.3-.1-.2 0-.4-.1-.3-.1-.1 0-.3 0-.4-.1.2-.2-.1-.3-.2v-.1c0 .1-.1.1-.1.1l.1.2s-.1 0-.1-.1c0 .2.1.4.1.6.3-.7.3-.4.2-.8.2.1-.1-.3 0-.4h-.1v-.1c-.2-.2 0 .4-.1.4 0-.2-.1-.3-.1-.3.1 0 .1.3.1.4-.1-.1-.1.1-.1.1h.1v.2-.2c0 .3-.2-.3-.2 0-.1-.1-.1-.3-.2-.4 0 .2-.2-.2-.2 0 .1.2.1.1.1.4l.1-.2v.4s0-.2.1-.2c0 .2 0 .1.1.3-.2-.3 0 .2-.2.1l-.3-.5c-.2-.2-.1.4-.3.3l.1.1c.1.2-.1.1-.1.2-.1-.2-.2-.2-.3-.3.1.1-.1.1.1.4l-.2-.2c-.2 0 .2.5.1.5-.1-.2-.2-.3-.3-.4 0 0-.1 0 0 .1-.1-.1.1.3-.1.2 0 .1.2.2.1.2l-.1-.1c.1.1 0 .1.2.3-.5-.3-.2.2-.6 0v.3l-.1-.1c-.2 0 .4.4.2.3-.3-.1-.1-.1-.2-.2-.6-.3 0 .2-.4.1-.2 0 .1.3.1.3h-.1c.3.2.3.4.4.5-.2-.1-.1-.1-.4-.2 0 .1.4.1.4.2-.1 0-.3 0-.5-.1v-.1c-.4-.1 0 .1-.1.1h-.1c0 .2.4.2.3.4h.1c.4.1-.2 0 0 .1h-.4c.1.1.3.2.4.3-.3-.1-.4-.2-.6-.3 0 .1 0 .2.2.2l-.1-.1c.3.1.4.2.4.3-.8-.1-.2.2-.8.3.3.2-.1.4 0 .6.6-.2 0 .1.6-.1v.1c-.1.1-.2.1-.3.2-.2.1-.1 0-.3 0 0 .1-.2.1-.4.2.2-.1.3 0 .3 0l.2-.2c.4.1-.4.3-.1.4h-.2c.1 0 .1.3.6.2-.1 0-.2.1-.3.1 0 .2.7.1.5.4l-.1.1c.1 0 .3-.1.2 0-.1 0-.1.1-.1.1.1 0 .3-.1.2 0l.2.7c0 .3.5 0 .7 0-.3.3-.3.5-.3.6.1.2.5 0 .8 0-.2.5.2.4.3.7 0-.1.2-.3.2-.3 0 .1.2-.2.1.1-.1.4 0 .3.1.4l.2-.5c-.1.8.6-.1.5.6l.2-.2-.1.3c.1.1.2.1.4.1l-.1.2c.1 0 .2-.8.3-.8v.4c.2 0 .4.4.5 0v.2c.1 0 .4.2.2-.3.1.4.2 0 .2-.2v.3-.6s.1.2 0 .1c.1.1 0-.3.1-.1v.2c.1 0 .1-.1 0-.3 0-.1.2 0 .3.3 0-.1-.1-.4 0-.3v.2c.2.1 0-.4.2-.2 0 .1.1.1.1.1-.1 0-.2.1-.2 0 .1.2.2.2.3.6 0-.2-.1-.6.1-.6l.1.1V68h.1c.1.2.2 0 .2 0-.2-.2-.1-.2-.2-.4v.1l-.1.1c0-.1-.1-.3 0-.2-.1-.2-.2-.3-.2-.4.3.3.5.4.6.6 0-.2.2-.3-.1-.7 0-.1.1.1.2.1v.1c0-.2.1-.2-.1-.5.2.1.2.3.2.1l.1.1c.3.1.2-.1.1-.4-.1-.2-.2-.4.2-.3h-.1c.5-.1 0-.7.6-.7.1 0-.1-.1-.2-.2l.3.1-.1-.1c-.2-.2.8 0 .3-.3h-.2s-.1-.2.1-.1c0 0-.2 0-.1-.1h.2c-.1-.1-.2-.1-.3-.2.1-.1.6.1.7-.1-.1-.1-.5-.2-.6-.2 0 0-.1.1-.3.1h-1.4l.3.1h-.2c-.2 0 0 0 .1.1h-.2l.4.1c-.2 0-.4-.1-.5 0 .2 0 .4 0 .5.1h-.4c.1 0 .1.1.3.1-.3 0 .1.1-.4 0 .1 0 .3.1.3.1-.5-.2-.1.1-.6-.1.5.2.2.2.4.3 0 0-.1-.1-.1 0 0 0-.2 0-.3-.1.4.2.4.2.6.4-.4-.1-.4-.2-.7-.4.3.1.3.2.5.3-.2-.1-.1 0-.4-.2.4.2.1.1.3.2-.2-.1-.4-.2-.3-.1.1-.1-.1-.2-.1-.2zm-.1 1.3zm-.1 0c.1.1.1.2.1.2 0-.1-.1-.1-.1-.2zm1.2 1.6c0 .1-.1 0 0 0-.1 0-.1-.1 0 0l-.1-.1s0 .1.1.1zm-.2-.3s0-.1 0 0c0-.1 0-.1 0 0zm0-6.1z" style="fill:#fff"/><path style="fill:#fff" d="M72.3 66.1v.1h.1zm2.3-3.2s0 .1 0 0c0 .1 0 .1 0 0zm.1.3zm0 .2s.1 0 .1-.1l-.1.1zm-2.5-.8c0 .1 0 .1 0 0zm.8-.7v.1-.1zm-1.3 1.4h-.1zm1.2-1.3c.1.1.1.1 0 0 .1 0 .1 0 0 0zm1.9 2.3c.1 0 .1 0 0 0zm.1 0zm.1 0c-.1 0-.1 0 0 0zm-.1-.3h-.1.1zm0-.1s-.2.1-.1.1l.1-.1c-.2.1.2 0 0 0zm1-.8v.1c.1-.1.2-.1.3-.1.2-.2-.3.2-.3 0zm0-.3c.1 0 .1-.1.2-.1-.1 0-.1 0-.2.1zm-1.7-1.6.1-.2c0-.1 0 0-.1.2zm-.8 1.1v.1l.1-.2zm.2-1.9h.1l-.1.1zm-4 1.5.3.2c-.1-.1-.3-.3-.3-.2zm-.5 1.8c-.2 0-.3 0-.1.1 0-.1.1-.1.1-.1zm2.2 4.8h-.1.1z"/></g><g style="opacity:.65"><path d="M52.1 64.5h.2-.2zm.6-.2H52h.6-.2.1c.3 0 .3-.1 0-.1 0 .1.1.1.2.1zm-.9-2.6zm-1.8-.9zm-.4-.3c.1 0 .1 0 0 0 .1 0 0-.1 0 0zm2.2 1.2v-.1c-.1 0 0 0 0 .1zm.1 2.4zm.7-2s.1 0 .1-.1l-.1.1zm.4.5-.4.2c.1-.1.2-.1.2-.1.1 0 .2-.1.2-.1zm0 1.1zm-.7-2c0-.1 0-.1 0 0zm-.9 3.1zm1.4-.3h.2zm-3.9-4.3zm-3.2 5.2c.2-.1.3 0 .6-.1-.1 0-.5-.1-.6.1zm6.2-1.3zm-5.6 1.1zm1.1-4.2s0 .1 0 0c.1.1 0 0 0 0zm1.2-.2zm-1.4.9c-.1 0-.1 0 0 0-.1 0-.1 0 0 0-.1 0-.1 0 0 0zm-.4.5zm4.3 3.5c.1 0 .1.1.2.2-.1-.2-.1-.3-.2-.2zm.9-1.6h-.1.1zm-3.3-.8c-.1 0 0 0 0 0zm.5 3c.1-.1.1-.1 0 0zm-.6-2.9c-.1-.1-.1-.1-.2-.1l.1.1h.1zm2.7 2.4z" style="fill:#fff"/><path d="M51 65.2s.3.2.5.3c.1.1-.2-.1-.4-.2l.3.3c-.1 0-.1 0-.1-.1.2.2 0 .1.2.4 0 0-.1 0-.1-.1.1.1.3.2.4.3 0 0 .1.2 0 0l-.1-.1.1.1c-.3-.2-.1-.1-.3-.3.1.1.2.3.1.3-.2-.2 0-.1-.3-.3h.1c-.4-.3 0 0-.4-.4-.1 0 .1.2 0 .1l.3.3c.1.3-.6-.6-.4-.2.1.2.4.5.2.4l-.2-.3c-.1 0 .3.5.1.3-.1-.1 0-.1-.1-.2-.2-.2.1.2.1.2h-.2v.4c0-.1-.1-.2-.1-.3 0 .2-.2 0-.3-.1l.1.3s-.1-.1-.1-.2c-.1-.1.1.2.1.3l-.1-.2c0 .3-.1.6-.2.3v-.1c-.1-.1 0 .6-.1.3v-.1c-.1-.1-.3.2-.3-.3 0 .4-.1-.2-.2.4v-.6s-.1.4-.2.4l.1-.3-.1.3.1-.4v.3c-.1.1 0-.2 0-.4l-.2.2c0-.1.1-.1.1-.2-.2.3.1-.3 0-.1 0 .1-.1.2-.1.2 0-.2 0-.2-.1-.2l.1-.2c0-.1-.2 0-.2 0 0 .1-.2.4-.3.4l.2-.3c-.1.2 0 .1-.2.3 0-.1.2-.3.3-.4l-.4.3.2-.2c-.1.2.2-.3-.1 0l.1-.1h-.2c-.2.2-.2.1-.3.3 0-.1.2-.3.1-.3-.1.1-.2.1-.3.2.2-.2.1-.2.3-.3h-.3c-.1.1-.1.1-.2.1l.2-.2c-.4.1.5-.5 0-.4h-.3c0-.1.2 0 .3-.1-.4 0 0-.1-.3-.1.7-.2-.1-.2.4-.3h-.2.1-.3c-.2-.2.3-.3.5-.4.1 0-.9-.3-.5-.2l.3.1c-.3-.2.1-.2-.2-.5.1 0 .1.1.1.1.2.1.1-.1-.1-.2l.2.1c.1.1-.2-.2 0-.1 0 0 .1 0 .1.1-.1-.1.1 0-.2-.2.1 0 0-.2.1-.1-.2-.2.2 0-.2-.3.3.3.3.2.2 0l.2.2s0-.1-.2-.3c.4.4-.2-.4.3.1-.1-.3-.1-.4 0-.6.2.4-.1.1.2.5 0-.2-.1-.6 0-.5 0 0 .1.2.1.3 0-.2.2 0 .2-.3v.1s.1.1 0-.1v.1c-.1-.3-.1-.6-.1-.8.1.6.1.1.3.9v-.3s0 .1.1.3v-.3.3c0-.2 0-.4.1-.3v.1c.1 0 .1-.5.2-.3v.5-.3s.1-.3.1-.1v.2l.1-.1v-.1c.1-.2 0-.5.1-.4 0 0 .1 0 .1.2 0-.1.1-.2.1-.1s-.1.4-.1.5c.1-.3.1-.1.2-.4 0 .1-.1.3-.1.3l.1-.2v.3c.1.1.1-.5.1-.2v.1c0 .1.2-.1.2 0-.1.4-.1.1-.2.4.1 0 .4-.3.4-.2.2-.5 0 .3.1.1 0 0-.2.3-.1.2 0 .1.2 0 .4-.1l-.1.1v.2l.2-.2c-.4.7.5-.1.1.4l-.1.1h.2l.2-.2c.1-.1.2-.1.2-.1-.2.1-.3.2-.4.3.1 0 .1-.1.2-.1-.3.3.4-.3.2 0l-.1.1c.1 0 .2-.1.2 0-.2.2-.1 0-.3.2 0 0 .5-.2.3 0h-.2l-.2.2-.1.1.1-.1c.6-.3.2 0 .6-.1-.4.1-.2.1-.5.2l-.2.2c.2-.1-.2.1.2 0-.1 0 0 0-.2.1.1 0 .2-.1.3-.1.3-.1-.3.3.1.2h.7c-.1.1-.4.1-.4.1-.1.1-.1.1 0 .1-.1 0-.2 0-.3.1h.2-.4c.1 0 .3 0 .4.1h-.4c.1 0 .2.1.4.1h.1-.3c-.2 0 .1-.1.2-.1h.1c.6-.1-.1-.1-.1-.2h.4-.3c.1 0 .3-.1.4-.1.2-.1-.2 0 .1-.1h.1-.1c.1 0 .3-.1.2 0 .2-.2-.3-.1 0-.2-.2-.1-.3.1-.7.1l.7-.3-.3.1.1-.1c-.2 0-.1.1-.3.1.2-.2-.2-.1.3-.3-.2.1-.1.1-.3.1.5-.2-.1 0 .1-.2.2-.1.1 0 .3-.2-.4.2 0-.2-.1-.2-.3.2-.2 0-.3 0 .1-.1.1-.2.1-.4-.3.2-.3.1-.4.1.2-.1.2-.2.3-.2-.1.1-.2.1-.2.1l.2-.2c-.1-.1-.3.1-.3-.1-.2.2-.4.6-.6.6l.3-.3s-.1.1-.1 0l.2-.1c0-.1-.2.1-.2.1l.2-.2s0 .1 0 0 0-.2.1-.3l-.2.2c-.1 0 .1-.2.2-.3-.1.1-.1-.1-.2.2 0 0 .1-.1.1-.2-.1.1-.2-.1-.3.2-.3.2-.1-.3-.3-.3v-.1c-.1.1-.2 0-.3.1 0 0 0-.2.1-.3-.1 0-.1.1-.2 0 .1-.1 0-.1.1-.1 0-.1 0-.3-.2 0 .1-.2 0-.3 0-.3v.2h-.1l.1-.3c-.1-.4-.5.6-.5-.1-.1.2.1.2 0 .4-.1-.1-.1-.5-.1-.5-.1-.2-.2.5-.3.3 0 .1 0 .4-.1.5-.1 0-.1-.5 0-.6v.1s.1-.1 0-.2v.1c0-.1-.1-.1-.1-.3-.1.1 0 .2 0 .3-.1-.2-.2 0-.3-.1v.2c-.2-.1-.1.2-.2.3-.1-.2 0-.4-.1-.3-.1-.1 0-.3 0-.4-.1.2-.2-.1-.3-.2v-.1c0 .1-.1.1-.1.1l.1.2s-.1 0-.1-.1c0 .2.1.4.1.6-.1-.1-.1.1-.2-.2.2.1-.1-.3 0-.4h-.1v-.1c-.2-.2 0 .4-.1.4 0-.2-.1-.3-.1-.3.1 0 .1.3.1.4-.1-.1-.1.1-.1.1h.1v.2-.2c0 .3-.2-.3-.2 0-.1-.1-.1-.3-.2-.4 0 .2-.2-.2-.2 0 .1.2.1.1.1.4l.1-.2v.4s0-.2.1-.2c0 .2 0 .1.1.3-.2-.3 0 .2-.2.1l.1-.9c-.2-.2-.1.4-.3.3l.1.1c.1.2-.1.1-.1.2-.1-.2-.2-.2-.3-.3.1.1-.1.1.1.4l-.2-.2c-.2 0 .2.5.1.5-.1-.2-.2-.3-.3-.4 0 0-.1 0 0 .1-.1-.1.1.3-.1.2 0 .1.2.2.1.2l-.1-.1c.1.1 0 .1.2.3-.5-.3-.2.2-.6 0v.3l-.1-.1c-.2 0 .4.4.2.3-.3-.1-.1-.1-.2-.2-.6-.3 0 .2-.4.1-.2 0 .1.3.1.3h-.1c.3.2.3.4.4.5-.2-.1-.1-.1-.4-.2 0 .1.4.1.4.2-.1 0-.3 0-.5-.1v-.1c-.4-.1 0 .1-.1.1h-.1c0 .2.4.2.3.4h.1c.4.1-.2 0 0 .1h-.4c.1.1.3.2.4.3-.3-.1-.4-.2-.6-.3 0 .1 0 .2.2.2l-.1-.1c.3.1.4.2.4.3-.8-.1-.2.2-.8.3.3.2-.1.4 0 .6.6-.2 0 .1.6-.1v.1c-.1.1-.2.1-.3.2-.2.1-.1 0-.3 0 0 .1-.2.1-.4.2.2-.1.3 0 .3 0l.2-.2c.4.1-.4.3-.1.4h-.2c.1 0 .1.3.6.2-.1 0-.2.1-.3.1 0 .2.7.1.5.4l-.1.1c.1 0 .3-.1.2 0-.1 0-.1.1-.1.1.1 0 .3-.1.2 0l.2.5c0 .3.5 0 .7 0-.3.3-.3.5-.3.6.1.2.5 0 .8 0-.2.5.2.4.3.7 0-.1.2-.3.2-.3 0 .1.2-.2.1.1-.1.4 0 .3.1.4l.2-.5c-.1.8.6-.1.5.6l.2-.2-.1.3c.1.1.2.1.4.1l-.1.2c.1 0 .2-.8.3-.8v.4c.2 0 .4.4.5 0v.2c.1 0 .4.2.2-.3.1.4.2 0 .2-.2v.3-.6s.1.2 0 .1c.1.1 0-.3.1-.1v.2c.1 0 .1-.1 0-.3 0-.1.2 0 .3.3 0-.1-.1-.4 0-.3v.2c.2.1 0-.4.2-.2 0 .1.1.1.1.1-.1 0-.2.1-.2 0 .1.2.2.2.3.6 0-.2-.1-.6.1-.6l.1.1V68h.1c.1.2.2 0 .2 0-.2-.2-.1-.2-.2-.4v.1l-.1.1c0-.1-.1-.3 0-.2-.1-.2-.2-.3-.2-.4.3.3.5.4.6.6 0-.2.2-.3-.1-.7 0-.1.1.1.2.1v.1c0-.2.1-.2-.1-.5.2.1.2.3.2.1l.1.1c.3.1.2-.1.1-.4-.1-.2-.2-.4.2-.3h-.1c.5-.1 0-.7.6-.7.1 0-.1-.1-.2-.2l.3.1-.1-.1c-.2-.2.8 0 .3-.3h-.2s-.1-.2.1-.1c0 0-.2 0-.1-.1h.2c-.1-.1-.2-.1-.3-.2.1-.1.6.1.7-.1-.1-.1-.5-.2-.6-.2 0 0-.1.1-.3.1h-1.4l.3.1h-.2c-.2 0 0 0 .1.1h-.2l.4.1c-.2 0-.4-.1-.5 0 .2 0 .4 0 .5.1h-.4c.1 0 .1.1.3.1-.3 0 .1.1-.4 0 .1 0 .3.1.3.1-.5-.2-.1.1-.6-.1.5.2.2.2.4.3 0 0-.1-.1-.1 0 0 0-.2 0-.3-.1.4.2.4.2.6.4-.4-.1-.4-.2-.7-.4.3.1.3.2.5.3-.2-.1-.1 0-.4-.2.4.2.1.1.3.2-.2-.1-.4-.2-.3-.1.1-.1 0-.2 0-.2zm-.2 1.3zm-.1 0c.1.1.1.2.1.2 0-.1-.1-.1-.1-.2zm1.2 1.6c0 .1-.1 0 0 0-.1 0-.1-.1 0 0l-.1-.1.1.1zm-.2-.3s0-.1 0 0c0-.1 0-.1 0 0zm.1-6.1s-.1 0 0 0c-.1 0-.1 0 0 0zm-2.4 4.4v.1z" style="fill:#fff"/><path d="M51.7 62.9c-.1 0-.1.1 0 0-.1.1-.1.1 0 0zm.1.3c-.1 0 0 0 0 0zm-.1.2s.1 0 .1-.1l-.1.1zm-2.5-.8c0 .1 0 .1 0 0zm.9-.7v.1c-.1.1-.1.1 0-.1zm-1.4 1.4zM50 62c0 .1 0 .1 0 0zm1.9 2.3zm0 0zm.1 0c-.1 0-.1 0 0 0zm0-.3h-.1.1zm-.1-.1s-.2.1-.1.1l.1-.1c-.2.1.2 0 0 0zm1.1-.8v.1c.1-.1.2-.1.3-.1.1-.2-.3.2-.3 0zm0-.3c.1 0 .1-.1.2-.1-.1 0-.2 0-.2.1zm-1.8-1.6.1-.2c0-.1 0 0-.1.2zm-.8 1.1v.1l.1-.2zm.3-1.9-.1.1zm-4.1 1.5.3.2c0-.1-.3-.3-.3-.2zm-.5 1.8c-.2 0-.3 0-.1.1 0-.1.1-.1.1-.1zm2.2 4.8h-.1.1z" style="fill:#fff"/></g><path d="M72 33.2s0-.1 0 0zm-.1 0 .1.1c0-.1 0-.1-.1-.1 0 0 .1 0 0 0 .1 0 .1 0 0 0 0-.1 0 0 0 0zm-.4.6zm-.2.4zm-.1.1zm.3-.5zm.5-.5zm-.4.3zm0-.1s.1 0 0 0c.1 0 .1 0 0 0zm.2-.2zm-.3.4zm-1.2 4.2zm-.3 0c-.1 0-.1 0 0 0zm1.1-3.5zm-.4 1.2h.1c0 .1-.1 0-.1 0zm1.3-2.3zm-1.2 2.4zm.2-1zm.2-.2zm-.1.3c-.1 0-.1 0 0 0 0 .1 0 .1 0 0-.1 0-.1 0 0 0zm-.1.2zm-.6 2.5zm1.6-4.2zm-.5 1.7zm-.7 1.6zm.6-1.5zm-1 2.4zm0 .2s-.1 0-.1-.1c0 0 .1 0 .1.1 0-.1-.1-.1-.1-.1.1 0 .1 0 .1.1-.1-.1 0-.1-.1-.2h-.1.1s-.1-.1 0-.1h.2v-.1h-.1c0-.1.2 0 .1 0l-.1-.1h.1s-.1-.1 0-.1h.1V37h.1c0-.1 0-.1.1-.1h-.1s-.1-.1 0-.1c0 0-.1-.1 0-.1 0 0 0-.1.1-.1-.1 0 .1 0-.1-.1h.1s-.1 0-.1-.1h.1-.1.2v-.1s.1 0 0 0v-.1h-.1.1-.1.1s.1 0 0 0v-.1c-.1 0 0 0-.1-.1h.1-.1.1v-.1c-.1-.1.2 0 .1-.1v-.1h.1c-.1-.1 0-.1 0-.1.1 0 0-.1.1-.1 0-.1.1-.1.2-.2 0 0-.2-.1-.1-.1h.1c-.1-.1 0-.1 0-.2v-.1h.1s0-.1 0 0v-.1c-.1 0 0 0 0-.1.1 0 .1 0 0 0h.1c.1 0-.1-.1.1 0v-.2c.1 0 0 0 .1.1 0-.1-.1-.1 0-.1v-.1c-.1 0-.1-.1-.1-.1.1.1 0 0 .2.1h.1s-.1 0 0-.1c0 0-.1 0 0-.1 0 0-.1-.1 0-.1h.1V34H72h.2c-.1 0 0 0-.1-.1h.2s-.1 0 0 0v-.1h.1s-.1-.1 0-.1c-.1 0 .1 0 0 0 0 0 .1 0 0 0v-.1h-.1c.2 0 0-.1.1-.1h-.1.1c.1 0-.1 0 0 0h.1s-.1-.1 0-.1h.1l-.1-.1c.1.1 0 0 .1 0h.2-.1c-.1 0 .1 0 0-.1l-.1-.1h.2s-.1 0 0 0h.1l-.1-.1h.1l-.1-.1h.1c-.1 0 0 0 0 .1h-.1.1-.1s-.1 0 0 0c-.1 0 0 .1 0 0 0 0 .1 0 .1.1h-.1.2c-.1 0 0 .1-.1 0h.1c-.1 0 0 0 0 0h-.1c.1 0 0 0 0 0 .1 0 0 0 0 .1h-.1c.1 0 0 0 .1.1h-.1v.1s.1 0 .2.1h-.3.1-.1l.1.1c0 .1-.1 0 0 .1v.1h-.1s-.1 0 0 0h-.2c-.1 0 .1.1 0 .1h.1-.1s.1.1 0 .1c0 0 .1 0 .1.1h-.2v.1h-.3s.1 0 .1.1h-.1c-.1 0 .1 0 0 .1H72h.1c.1 0-.1 0 0 0H72s-.1 0 0 0h.3c-.1 0 0 0 0 0h-.1c-.1 0 0 .1 0 .1h-.1l.1.1h-.1l.1.1s-.1 0-.1-.1c0 0 .1 0 0 0h.1c-.1 0 0 .1-.1.1v.1l.1.1H72v.1c.1 0 .1.1.1.1H72s.1 0 .1.1H72c-.1 0 0 0 0 0l.1.1c.1 0 0 0 0 0H72l.1.1c-.1 0-.1-.1-.1-.1v.1c.1 0 .1.1.1.1-.1-.1-.1 0-.2 0 0 .1-.1.1-.1.1.1 0 0 0 .1.1h-.2s.1 0 0 0h.1c0 .1-.1 0-.1 0s0 .1.1.1h-.1s.1.1 0 .1.1.1.1.1h-.1s0 .1.1.2c-.1 0-.1.1-.1.1h.1-.1.1c-.2 0 0 .1-.1.1h-.1v.1l.1.1h-.1s-.1 0 0 .1c0 0-.1 0 0 .1-.1 0 0 0 0 .1h-.1c.1 0 .1 0 .1.1h-.1s.1 0 0 0v.1h-.1l.1.1h.2-.2s0 .1.1.1l.1.1h-.1c-.1 0 .1.2 0 .2s0 .2-.1.2v.1h-.1.1s-.2 0-.1.1v.1s-.1-.1-.1 0l.1.1h.1c.1 0 .2.1.2.1l-.1-.1h.1-.1s.1 0 0 0v-.1h.1s-.1 0-.1-.1c.1.1 0 0 .1 0-.1 0 0-.1-.1-.1-1.3-.2-1.3-.2-1.2-.2-.2.1-.2 0-.2 0h.2-.1.1-.1c.1-.1.1 0 .1 0 0-.1 0 0 0 0zm.1-.5zm0-.1c-.1 0-.1 0 0 0-.1 0-.1 0 0 0zm-.4 0zm0 0s.1 0 0 0zm1.5-3.3zm-.8 2.9zm1-3zm.1-.1zm0-.1zm-.4 1.1c.1 0 .1 0 0 0zm.1-.3zm-.1.7zm.1-.7zm.5-1zm0 0c-.1 0-.1 0 0 0zm-.1-.1c0 .1 0 0 0 0zm0 .1c0 .1 0 0 0 0zm0 .1zm-.3 0c-.1 0 0 0 0 0zm0 .1c-.1-.1-.1-.1 0 0-.1-.1-.1 0 0 0zm-.3.5c0-.1 0-.1 0 0zm.3.2-.1-.1zm-.4-.1zm-.3.8zm-.1.4c-.1 0-.1 0 0 0zm-.6 1.1zm8.1-5s0-.1 0 0zm-.1 0 .1.1c0-.1 0-.1-.1-.1 0 0 .1 0 0 0 .1 0 .1 0 0 0 0-.1 0 0 0 0zm-.4.6zm-.2.4zm-.1.1zm.3-.5zm.5-.5zm-.5.3zm.1-.1zm.2-.2zm-.3.4zm-1.2 4.2zm-.4 0zm1.2-3.5zm-.5 1.2h.1-.1zm1.4-2.3zm-1.2 2.4zm.2-1zm.2-.2zm-.2.3zm0 .2zm-.6 2.5zm1.6-4.2zm-.6 1.7zm-.7 1.6zm.7-1.5zm-1.1 2.4zm.1.2s-.1 0-.1-.1c0 0 .1 0 .1.1 0-.1-.1-.1-.1-.1.1 0 .1 0 .1.1-.1-.1 0-.1-.1-.2h-.1.1s-.1-.1 0-.1h.2v-.1h-.1c0-.1.2 0 .1 0l-.1-.1h.1s-.1-.1 0-.1h.1v-.1h.1c0-.1 0-.1.1-.1h-.1s-.1-.1 0-.1c0 0-.1-.1 0-.1 0 0 0-.1.1-.1-.1 0 .1 0-.1-.1h.1s-.1 0-.1-.1h.1-.1.2v-.1s.1 0 0 0v-.1h-.1.1-.1.1s.1 0 0 0v-.1c-.1 0 0 0-.1-.1h.1-.1.1v-.1c-.1-.1.2 0 .1-.1v-.1h.1c-.1-.1 0-.1 0-.1.1 0 0-.1.1-.1 0-.1.1-.1.2-.2 0 0-.2-.1-.1-.1h.1c-.1-.1 0-.1 0-.2v-.1h.1s0-.1 0 0V33c-.1 0 0 0 0-.1.1 0 .1 0 0 0h.1c.1 0-.1-.1.1 0v-.2c.1 0 0 0 .1.1 0-.1-.1-.1 0-.1v-.1c-.1 0-.1-.1-.1-.1.1.1 0 0 .2.1h.1s-.1 0 0-.1c0 0-.1 0 0-.1 0 0-.1-.1 0-.1h.1v-.1h-.1.2c-.1 0 0 0-.1-.1h.2s-.1 0 0 0V32h.1s-.1-.1 0-.1c-.1 0 .1 0 0 0 0 0 .1 0 0 0v-.1h-.1c.2 0 0-.1.1-.1h-.1.1c.1 0-.1 0 0 0h.1s-.1-.1 0-.1h.1l-.1-.1c.1.1 0 0 .1 0h.2-.1c-.1 0 .1 0 0-.1l-.1-.1h.2s-.1 0 0 0h.1l-.1-.1h.1l-.1-.1h.1c-.1 0 0 0 0 .1h-.1.1-.1s-.1 0 0 0c-.1 0 0 .1 0 0 0 0 .1 0 .1.1h-.1.2c-.1 0 0 .1-.1 0h.1c-.1 0 0 0 0 0h-.1c.1 0 0 0 0 0 .1 0 0 0 0 .1h-.1c.1 0 0 0 .1.1h-.1v.1s.1 0 .2.1h-.3.1-.1l.1.1c0 .1-.1 0 0 .1v.1h-.1s-.1 0 0 0h-.2c-.1 0 .1.1 0 .1h.1-.1s.1.1 0 .1c0 0 .1 0 .1.1h-.2v.1h-.3s.1 0 .1.1h-.1c-.1 0 .1 0 0 .1h-.1.1c.1 0-.1 0 0 0h-.1s-.1 0 0 0h.3c-.1 0 0 0 0 0h-.1c-.1 0 0 .1 0 .1h-.1l.1.1h-.1l.1.1s-.1 0-.1-.1c0 0 .1 0 0 0h.1c-.1 0 0 .1-.1.1v.1l.1.1h-.2v.1c.1 0 .1.1.1.1h-.1s.1 0 .1.1h-.1c-.1 0 0 0 0 0l.1.1c.1 0 0 0 0 0h-.1l.1.1c-.1 0-.1-.1-.1-.1v.1c.1 0 .1.1.1.1-.1-.1-.1 0-.2 0 0 .1-.1.1-.1.1.1 0 0 0 .1.1h-.2s.1 0 0 0h.1c0 .1-.1 0-.1 0s0 .1.1.1h-.1s.1.1 0 .1.1.1.1.1h-.1s0 .1.1.2c-.1 0-.1.1-.1.1h.1-.1.1c-.2 0 0 .1-.1.1H78v.1l.1.1H78s-.1 0 0 .1c0 0-.1 0 0 .1-.1 0 0 0 0 .1h-.1c.1 0 .1 0 .1.1h-.1s.1 0 0 0v.1h-.1l.1.1h.2-.2s0 .1.1.1l.1.1H78c-.1 0 .1.2 0 .2s0 .2-.1.2v.1h-.1.1s-.2 0-.1.1v.1s-.1-.1-.1 0l.1.1h.1c.1 0 .2.1.2.1l-.1-.1h.1-.1s.1 0 0 0v-.1h.1s-.1 0-.1-.1c.1.1 0 0 .1 0-.1 0 0-.1-.1-.1-1.3-.2-1.3-.2-1.2-.2-.2.1-.2 0-.2 0h.2-.1.1-.1c0-.1.1 0 .1 0 0-.1 0 0 0 0zm0-.5zm0-.1zm-.3 0c-.1-.1 0-.1 0 0zm0 0zm1.4-3.3zm-.8 2.9zm1.1-3zm0-.1zm.1-.1zm-.4 1.1zm0-.3c.1 0 .1 0 0 0zm-.1.7zm.1-.7c.1 0 .1 0 0 0zm.5-1zm0 0zm0-.1zm0 .1zm0 .1s-.1 0 0 0zm-.3 0c-.1 0 0 0 0 0zm-.1 0zm-.2.6c0-.1 0-.1 0 0zm.2.1h.1-.1zm-.3 0zm-.4.8c.1 0 0 0 0 0zm0 .4c-.1 0-.1 0 0 0-.1 0 0 0 0 0zm-.6 1.1zm5.4 3.1s-.1 0 0 0zm-.1 0 .1.1c-.1-.1 0-.1-.1-.1 0 0 .1 0 0 0zm-.4.7c0-.1 0-.1 0 0zm-.2.4zm-.1 0zm.3-.4zm.5-.5c0-.1 0 0 0 0zm-.5.2zm.1-.1zm.1-.2zm-.2.4c-.1 0-.1 0 0 0-.1 0 0 0 0 0zm-1.3 4.2zm-.3.1zm1.2-3.6zm-.5 1.2h.1c0 .1-.1 0-.1 0zm1.4-2.2zm-1.3 2.3zm.3-1zm.1-.2zm-.1.4zm-.1.1c.1 0 .1 0 0 0 .1 0 .1 0 0 0zm-.5 2.5c-.1 0-.1 0 0 0-.1 0-.1.1 0 0zm1.5-4.2c0 .1.1.1 0 0 .1.1.1.1 0 0 0 .1 0 0 0 0zm-.5 1.8zm-.7 1.5c0 .1 0 .1 0 0zm.7-1.5s-.1 0 0 0c-.1 0-.1 0 0 0zM80.4 42z" style="fill:#6594d9"/><path d="M80.5 42.2s-.1 0-.1-.1c0 0 0 .1.1.1 0-.1-.1-.1-.1-.1l.1.1c-.1-.1 0-.1-.1-.2h-.1.1s-.1-.1 0-.1h.2v-.1h-.1c0-.1.2 0 .1 0l-.1-.1h.1s-.1-.1 0-.1h.1v-.1h.1c0-.1 0-.1.1-.1h-.1s-.1-.1 0-.1c0 0-.1-.1 0-.1 0 0 0-.1.1-.1-.1 0 .1 0-.1-.1h.1s-.1 0-.1-.1h.1-.1.2v-.1s.1 0 0 0v-.1h-.1.1-.1.1s.1 0 0 0v-.1c-.1 0 0 0-.1-.1h.1-.1.1v-.1c-.1-.1.2 0 .1-.1v-.1h.1c-.1-.1 0-.1 0-.1.1 0 0-.1.1-.1 0-.1.1-.1.2-.2 0 0-.2-.1-.1-.1h.1c-.1-.1 0-.1 0-.2v-.1h.1s0-.1 0 0v-.1c-.1 0 0 0 0-.1.1 0 .1 0 0 0h.1c.1 0-.1-.1.1 0V39c.1 0 0 0 .1.1 0-.1-.1-.1 0-.1v-.1c-.1 0-.1-.1-.1-.1.1.1 0 0 .2.1h.1s-.1 0 0-.1c0 0-.1 0 0-.1 0 0-.1-.1 0-.1h.1v-.1h-.1.2c-.1 0 0 0-.1-.1h.2s-.1 0 0 0v-.1h.1s-.1-.1 0-.1c-.1 0 .1 0 0 0 0 0 .1 0 0 0v-.1h-.1c.2 0 0-.1.1-.1h-.1.1c.1 0-.1 0 0 0h.1s-.1-.1 0-.1h.1l-.1-.1c.1.1 0 0 .1 0h.2-.1c-.1 0 .1 0 0-.1l-.1-.1h.2s-.1 0 0 0h.1l-.1-.1h.1l-.1-.1h.1c-.1 0 0 0 0 .1h-.1.1-.1s-.1 0 0 0c-.1 0 0 .1 0 0 0 0 .1 0 .1.1h-.1.2c-.1 0 0 .1-.1 0h.1c-.1 0 0 0 0 0H83c.1 0 0 0 0 0 .1 0 0 0 0 .1h-.1c.1 0 0 0 .1.1h-.1v.1s.1 0 .2.1h-.3.1-.1l.1.1c0 .1-.1 0 0 .1v.1h-.1s-.1 0 0 0h-.2c-.1 0 .1.1 0 .1h.1-.1s.1.1 0 .1c0 0 .1 0 .1.1h-.2v.1h-.3s.1 0 .1.1h-.1c-.1 0 .1 0 0 .1h-.1.1c.1 0-.1 0 0 0h-.1s-.1 0 0 0h.3c-.1 0 0 0 0 0h-.1c-.1 0 0 .1 0 .1h-.1l.1.1h-.1l.1.1s-.1 0-.1-.1c0 0 .1 0 0 0h.1c-.1 0 0 .1-.1.1v.1l.1.1h-.2v.1c.1 0 .1.1.1.1h-.1s.1 0 .1.1h-.1c-.1 0 0 0 0 0l.1.1c.1 0 0 0 0 0h-.1l.1.1c-.1 0-.1-.1-.1-.1v.1c.1 0 .1.1.1.1-.1-.1-.1 0-.2 0 0 .1-.1.1-.1.1.1 0 0 0 .1.1h-.2s.1 0 0 0h.1c0 .1-.1 0-.1 0s0 .1.1.1h-.1s.1.1 0 .1.1.1.1.1h-.1s0 .1.1.2c-.1 0-.1.1-.1.1h.1-.1.1c-.2 0 0 .1-.1.1h-.1v.1l.1.1h-.1s-.1 0 0 .1c0 0-.1 0 0 .1-.1 0 0 0 0 .1h-.1c.1 0 .1 0 .1.1h-.1s.1 0 0 0v.1h-.1l.1.1h.2-.2s0 .1.1.1l.1.1h-.1c-.1 0 .1.2 0 .2s0 .2-.1.2v.1h-.1.1s-.2 0-.1.1v.1s-.1-.1-.1 0l.1.1h.1c.1 0 .2.1.2.1l-.1-.1h.1-.1s.1 0 0 0v-.1h.1s-.1 0-.1-.1c.1.1 0 0 .1 0-.1 0 0-.1-.1-.1-1.4-.1-1.3-.1-1.2-.2-.2.1-.2 0-.2 0h.2-.1.1-.1.1c-.1 0 0 0 0 0zm0-.5zm0 0zm-.4-.1zm.1 0zm1.4-3.3v.1zm-.8 2.9zm1.1-3zm0-.1zm.1 0c-.1 0-.1 0 0 0-.1 0-.1 0 0 0zm-.4 1.1zm0-.4zm-.1.7v.1zm.1-.7zm.5-1zm0 0zm0 0zm-.1.1c.1 0 0 0 0 0zm0 0s.1 0 0 0c.1 0 0 0 0 0zm-.2 0s-.1 0 0 0c-.1 0 0 0 0 0zm-.1.1zm-.2.5c-.1 0 0 0 0 0zm.2.2zm-.4-.1zm-.3.9c.1 0 0-.1 0 0zm-.1.4c0-.1 0-.1 0 0zm-.5 1zm-39.6-3.1s-.1 0 0 0zm-.1.1h.1-.1c.1 0 .1-.1 0 0zm.1.7zm.1.5zm0 .1zm-.1-.6zm.1-.7zm-.2.6zm-.1-.2s.1 0 0 0c.1 0 .1 0 0 0 .1 0 .1 0 0 0zm.1-.3zm0 .6zm1.7 4zm-.2.2s-.1 0 0 0zm-1.4-3.5zm.5 1.3h.1-.1zm-.4-2.6zm.5 2.5zm-.4-.9zm0-.2zm.1.3zm0 .2zm1.1 2.3zM40.9 38s0-.1 0 0c0-.1 0-.1 0 0 0-.1 0 0 0 0zm.6 1.6zm.5 1.7zm-.5-1.6zm.7 2.5zm.2.1h-.1.1-.1.1c-.2 0-.1-.1-.2-.1h-.1.1-.1.2v-.1h-.1c-.1 0 .2-.1.1-.1h-.1.1-.1c.1 0 0 0 0 0h.1s-.1 0-.1-.1h.1v-.1h-.2c-.1 0-.1 0-.1-.1h-.1c0-.1-.1-.1 0-.2-.1 0 0-.1-.1 0 0 0 .1 0 .1-.1h-.1.1-.1.1s0-.1.1-.1h-.1.1c-.1 0 .1 0 0 0v-.2h-.1.1-.1.2s.1 0 0 0V41H42v-.1h-.1.1l-.1-.1c-.1 0 .1-.1 0-.1h-.1.1c-.1 0 0-.1-.1-.1.1-.1 0-.1 0-.1-.1-.1 0-.2 0-.3h-.1.1c-.1 0 0-.1-.1-.2h.1s-.1 0 0 0h-.1v-.1h-.1c.1 0 .1-.1 0-.1h.1-.1c.1-.1-.1 0 0-.1-.1 0-.1-.1-.1-.1h.1s-.1 0-.1-.1h.1s0-.1-.1-.1h-.2c.1 0 0 0 .2-.1h-.1.1-.1.1-.1s-.1 0-.1-.1h.1s-.1 0 0 0h-.1s-.1 0 0 0h.1-.1.1-.1.1-.1v-.1h.1s-.1 0-.1-.1c-.1 0 0 0 0 0s.1 0 0 0l-.1-.1v-.1h-.1c.1-.1-.1-.1 0-.1h-.2.1c.1 0-.1 0 0 0h.1-.1c.1 0 0 0 0 0h-.1.1c-.1 0 0 0 0 0h-.1c-.1 0 .1-.1 0-.1h-.1.1s-.1 0 0 0h.1-.1.1-.1.1c-.1 0 0 0 0 .1h-.1.1-.1s-.1 0 0 0c0 0 .1 0 0 0h.1l-.1.1h.2l-.1.1h.1c-.1 0 0 0 0 0H41c.1 0 0 0 0 0h.1v.1h.1-.2s.1 0 0 .1c0 0 .1-.1.2 0h-.3.1-.1.2c.1 0 0 .1 0 .1h.1-.1c-.1 0-.1 0 0 0H41c-.1.1.2 0 0 .1h.1l-.1.1h.2-.2v.1h.1s-.1 0 0 0H41c.1 0 0 0 0 .1h.1-.1.1-.1.1c.1 0-.1 0 0 .1H41c.1 0 0 0 0 0h.3c-.1 0 0 0 0 0h-.1s.1 0 .1.1h-.1.2-.1s.1 0 0 0h.2c-.1.1 0 .1-.1.1h.1-.1c-.1 0 0 0 0 .1h.2-.1.1l-.1.1c-.1 0 0 0 0 0h.1c.1 0 0 0 0 0h-.1.1-.1.2c-.1 0 0 .1-.1.1.1 0 0 .1 0 .1h.1l-.1.1h-.2.1c.1 0-.1.1 0 .1 0 0 0 .1.1 0h-.1l.1.1s.1 0 0 0c0 0 .1 0 0 0 0 0 .1 0 .1.1-.1 0-.1.1-.1.1l.1.1c-.1.1 0 .1-.1.2h.1s.1 0 0 0 0 0 0 .1h.1c-.1.1.1.1 0 .1h.1-.1v.1h.2-.1s-.1.1 0 .1c0 0 0 .1.1 0-.1 0 0 0 0 0h-.1.1s.1 0 0 0h.1l-.1.1h.1s.1 0 0 .1H42h.2s.1 0 0 0h.1c-.1 0-.1.1-.2.1 0 0 0 .1.1 0h.1s-.1 0 0 0c-.1.1.2 0 .1.1 0 .1.1.1 0 .2h.1-.1.1c.1 0-.1.1 0 .1h.1s-.1 0-.1.1h.1c.1 0 .2 0 .2-.1h-.2.1-.1s.1 0 0 0h-.1l.1-.1h-.1c.1 0 0 0 .1-.1h-.2c-.1.4-.1.4 0 .3l-.1.1.1-.1c-.1.1-.1 0-.1.1 0-.1 0-.1.1-.1-.1 0 0 0 0 0zm-.3-.4zm-.1 0zm-.3.2zm.1 0zm-1-3.5zm1.2 2.7zm-1.1-2.9s.1 0 0 0c.1 0 0 0 0 0zm0-.1zm0-.1zm.4 1.1zm-.2-.3zm.4.6zm-.4-.6zm-.2-1.1zm0 0zm-.1 0c.1 0 .1 0 0 0zm.1.1zm0 0s-.1 0 0 0zm-.2.2s-.1 0 0 0c-.1 0 0 0 0 0zm0 .1s-.1 0 0 0c-.1 0 0 0 0 0zm.1.5zm.3 0zm-.3.2z" style="fill:#6594d9"/><path d="M41.1 39.9c0-.1-.1 0 0 0zm.1.3zm.3 1.2zm3.1-9zm-.1.1h.1-.1c.1 0 .1 0 0 0 .1 0 .1-.1 0 0 .1 0 .1 0 0 0zm.2.7zm.1.5s-.1 0 0 0c-.1 0-.1 0 0 0zm-.1.1zm0-.6zm0-.7zm-.2.6zm0-.2zm0-.3zm.1.6zm1.6 4zm-.2.2zm-1.3-3.5zm.4 1.3h.1-.1zm-.4-2.6zm.5 2.5zm-.4-.9zm0-.2zm.1.3zm.1.2zm1.1 2.3s-.1 0 0 0zm-1.4-4.2s0-.1 0 0c0-.1 0-.1 0 0 0-.1 0 0 0 0zm.6 1.6zm.5 1.7zm-.4-1.6s-.1 0 0 0c-.1 0-.1 0 0 0zm.6 2.5zm.2.1h-.1.1-.1.1c-.2 0-.1-.1-.2-.1h-.1.1-.1.2v-.1H46c-.1 0 .2-.1.1-.1H46h.1-.1c.1 0 0 0 0 0h.1s-.1 0-.1-.1h.1v-.1h-.2c-.1 0-.1 0-.1-.1h-.1c0-.1-.1-.1 0-.2-.1 0 0-.1-.1 0 0 0 .1 0 .1-.1h-.1.1-.1.1s0-.1.1-.1h-.1.1c-.1 0 .1 0 0 0v-.2h-.1.1-.1.2s.1 0 0 0v-.1h-.1v-.1h-.1.1l-.1-.1c-.1 0 .1-.1 0-.1h-.1.1c-.1 0 0-.1-.1-.1.1-.1 0-.1 0-.1-.1-.1 0-.2 0-.3h-.1.1c-.1 0 0-.1-.1-.2h.1s-.1 0 0 0h-.1v-.1h-.1c.1 0 .1-.1 0-.1h.1-.1c.1-.1-.1 0 0-.1-.1 0-.1-.1-.1-.1h.1s-.1 0-.1-.1h.1s0-.1-.1-.1h-.2c.1 0 0 0 .2-.1h-.1.1-.1.1-.1s-.1 0-.1-.1h.1s-.1 0 0 0h-.1s-.1 0 0 0h.1-.1.1-.1.1-.1v-.1h.1s-.1 0-.1-.1c-.1 0 0 0 0 0s.1 0 0 0l-.1-.1v-.1h-.1c.1-.1-.1-.1 0-.1h-.2.1c.1 0-.1 0 0 0h.1-.1c.1 0 0 0 0 0h-.1.1c-.1 0 0 0 0 0h-.1c-.1 0 .1-.1 0-.1h-.1.1s-.1 0 0 0h.1-.1.1-.1.1c-.1 0 0 0 0 .1h-.1.1-.1s-.1 0 0 0c0 0 .1 0 0 0h.1l-.1.1h.2l-.1.1h.1c-.1 0 0 0 0 0h-.1c.1 0 0 0 0 0h.1v.1h.1-.2s.1 0 0 .1c0 0 .1-.1.2 0h-.3.1-.1.2c.1 0 0 .1 0 .1h.1-.1c-.1 0-.1 0 0 0h-.1c-.1.1.2 0 0 .1h.1l-.1.1h.2-.2v.1h.1s-.1 0 0 0h-.1c.1 0 0 0 0 .1h.1-.1.1-.1.1c.1 0-.1 0 0 .1h-.1c.1 0 0 0 0 0h.3c-.1 0 0 0 0 0H45s.1 0 .1.1H45h.2-.1s.1 0 0 0h.2c-.1.1 0 .1-.1.1h.1-.1c-.1 0 0 0 0 .1h.2-.1.1l-.1.1c-.1 0 0 0 0 0h.1c.1 0 0 0 0 0h-.1.1-.1.2c-.1 0 0 .1-.1.1.1 0 0 .1 0 .1h.1l-.1.1h-.2.1c.1 0-.1.1 0 .1 0 0 0 .1.1 0h-.1l.1.1s.1 0 0 0c0 0 .1 0 0 0 0 0 .1 0 .1.1-.1 0-.1.1-.1.1l.1.1c-.1.1 0 .1-.1.2h.1s.1 0 0 0 0 0 0 .1h.1c-.1.1.1.1 0 .1h.1-.1v.1h.2-.1s-.1.1 0 .1c0 0 0 .1.1 0-.1 0 0 0 0 0h-.1.1s.1 0 0 0h.1l-.1.1h.1s.1 0 0 .1h-.1.2s.1 0 0 0h.1c-.1 0-.1.1-.2.1 0 0 0 .1.1 0h.1s-.1 0 0 0c-.1.1.2 0 .1.1 0 .1.1.1 0 .2h.1-.1.1c.1 0-.1.1 0 .1h.1s-.1 0-.1.1h.1c.1 0 .2 0 .2-.1h-.2.1-.1s.1 0 0 0h-.1l.1-.1h-.1c.1 0 0 0 .1-.1h-.2c-.1.4-.1.4 0 .3l-.1.1.1-.1c-.1.1-.1 0-.1.1 0-.1.1-.1.1-.1zm-.3-.4zm0 0zm-.4.2c.1 0 .1 0 0 0 .1 0 .1 0 0 0 .1 0 0 0 0 0zm.1 0zm-.9-3.5zm1.1 2.7zm-1-2.9zm0-.1zm0-.1zm.4 1.1zm-.3-.3c.1 0 .1 0 0 0 .1 0 .1 0 0 0zm.4.6zm-.3-.6zm-.3-1.1zm0 0zm0 0zm0 .1zm0 0s.1 0 0 0c.1 0 0 0 0 0zm-.2.2c-.1 0 0 0 0 0zm0 .1zm.2.5c-.1 0-.1 0 0 0zm.3 0h-.1zm-.4.2zm.3.9c.1-.1 0 0 0 0zm.2.3c-.1 0-.1 0 0 0zm.2 1.2z" style="fill:#6594d9"/><g style="opacity:.65"><path d="M45.5 23.9zm0 .1c-.1 0 0 0 0 0zm.1.7zm.1.5zm0 .1zm-.1-.6zm0-.6zm-.1.4zm0-.1zm0-.3zm.1.6zm1.4 4zm-.1.3zm-1.2-3.6zm.4 1.3c0-.1.1 0 0 0 .1-.1 0-.1 0 0zm-.5-2.6zm.6 2.5zm-.4-.9zm0-.2zm.1.3zm.1.2v-.1zm.9 2.4zm-1.4-4.3c.1 0 .1 0 0 0 .1 0 .1 0 0 0 .1 0 0 0 0 0zm.6 1.7zm.5 1.6c0 .1 0 0 0 0zm-.4-1.5c-.1 0-.1 0 0 0-.1 0-.1 0 0 0zm.7 2.5z" style="fill:#fff"/><path d="M47 28.5s-.1 0 0 0c-.1 0-.1 0 0 0-.1-.1-.1-.1 0 0-.1-.1-.1-.1 0 0l-.1-.1h.1v-.1s.1-.1 0-.1h-.1s-.1 0 0 0c0 0 0-.1-.1-.1V28l-.1-.1s-.1 0 0 0v-.1s0-.1-.1 0v-.7c-.1 0 0-.1 0-.1-.1 0 0-.1 0-.1.1 0 0-.1 0-.1v-.2h-.1c-.1 0 0-.1-.1-.2v-.2s-.1 0 0-.1l-.1-.1h.1s-.1 0-.1-.1c0 0 0-.1-.1-.1h-.1.1s-.1 0-.1-.1H46v-.1l-.1-.1c-.1 0 0 0 0 0l-.1-.1v-.1c.1-.1-.1-.1 0-.1 0 0-.1 0 0 0h-.1.1v-.1h-.2c-.1 0 0 0 0 .1h.1-.1v.3h.1v.1s.1 0 0 .1v.1s.1 0 0 0h.1-.1v.2h.1v.1h-.1v.1h.1-.1c-.1 0 0 .1 0 .1v.1s.1 0 0 0 0 0 0 .1c0 0 .1 0 .1.1h.3-.1.1c-.1 0 0 .1-.1.1v.1h.1v.1s0 .1.1.1l.1.1s.1 0 .1.1v.1l.1.1v.2h.1c-.1.1.1.1 0 .1v.1h.1v.1s0 .1 0 0h.1v.1h-.1.1s0 .1-.1.1c0 0 0 .1.1.1h.1c0 .1.1.1.1.1 0 .1.1.1 0 .2 0 0-.1.1 0 .1 0 0-.1 0-.1.1h.1s.1 0 .1-.1H47c.1 0 0 0 0 0l-.1-.1c0 .1 0 .1.1 0-.1.1-.1.1 0 0-.1.1-.1 0 0 0-.1 0-.1 0 0 0-.1 0-.1 0 0 0-.1 0 0 0 0 0-.1 0 0 0 0 0zm-.3-.4c.1 0 .1 0 0 0 .1 0 .1 0 0 0zm0-.1zm-.1.2zm0 0zm-1-3.5zm1 2.8zm-.9-3zm-.1-.1zm0-.1zm.4 1.1zm-.2-.3zm.3.7zm-.3-.7zm-.3-1.1zm0 0zm0 0zm.1.1zm0 0zm-.1.2c-.1 0 0 0 0 0zm0 .1zm.1.5zm.2.1v-.1zm-.2.1h.1zm.3.8zm.2.4s-.1 0 0 0zm.3 1.2h-.1.1z" style="fill:#fff"/></g><g style="opacity:.65"><path d="M84.3 26.4zm-.1 0c0 .1 0 .1 0 0 0 .1.1.1 0 0 0 0 .1 0 0 0 0 .1 0 0 0 0zm-.4.7zm-.2.4zm0 0zm.2-.4zm.4-.5zm-.3.3zm.1-.1zm.1-.2c0-.1 0-.1 0 0zm-.2.4c-.1 0-.1 0 0 0-.1 0-.1 0 0 0zm-1.7 4zm-.2.1zm1.5-3.4zm-.6 1.2c.1 0 0 0 0 0 .1 0 .1 0 0 0zm1.3-2.3zM83 28.9zm.3-.9c.1 0 .1 0 0 0 .1 0 .1 0 0 0zm.2-.2zm-.2.3zm0 .1zm-.9 2.4c-.1 0-.1 0 0 0-.1 0-.1.1 0 0zm1.8-4zm-.7 1.6zm-.7 1.6zm.7-1.5zm-1.2 2.3z" style="fill:#fff"/><path d="M82.3 30.8c0-.1 0-.1 0 0 0-.1 0-.1 0 0 0-.1 0-.1 0 0v-.3c.1 0 0 0 0 0v-.1c0-.1.1 0 .1 0s-.1 0 0 0v-.2s0-.1.1-.1v-.2s0-.1.1-.1v-.1h.2v-.3l.1-.1v-.1c0-.1.1-.1.1-.1V29c.1 0 0-.1.1-.1 0-.1.1-.1.1-.2 0 0-.1-.1 0-.1 0-.1.1-.1 0-.2v-.1c.1 0 0-.1.1-.1v-.1.1-.2s0-.1-.1-.1h.1v-.2h.1v-.4c.1 0 0-.1.1-.1-.1 0 0 0 0-.1 0 0 .1 0 0-.1v-.3c-.1 0 0 0 0 .1v.1h-.2v.1h-.1v.2h.1v.2c-.1 0 0 .1 0 .1h-.1v.1h-.1.1v.1h-.1v.2c-.1 0 0 .1-.1.1v.2c-.1 0 0 0 0 0v.2h-.1v.2-.1.1h-.1s0 .1-.1.1h.1s-.1 0 0 0v.3h-.1v.1c-.1 0-.1.1-.1.1-.1 0 0 .1-.1.1v.1l.1.1s-.1 0 0 .1c0 0-.1 0 0 .1v.3h-.1v.1h-.1v.2c-.1 0 0 .1 0 .1-.1 0 0 .1-.1.2 0 0-.1 0-.1.1h-.1v.1s.1.1.1 0h.1v-.1c-.1.2-.1.2 0 .1-.1.1 0 .1 0 0-.1.1-.1 0-.1 0h.1c-.1 0 0 0 0 0zm.2-.5zm0 0s-.1 0 0 0zm-.2 0zm0 0zm1.5-3.2h.1zm-1 2.7h-.1zm1.2-2.9zm.1-.1zm0 0zm-.4 1c0 .1 0 0 0 0zm0-.3s.1 0 0 0c.1 0 .1 0 0 0zm-.2.7zm.2-.7c.1 0 .1 0 0 0zm.6-1zm0 0zm0 0zm-.1.1zm0 0zm-.2.1s.1-.1 0 0zm0 0zm-.2.5c-.1 0-.1 0 0 0zm0 .2zm-.2 0zm-.3.8zm-.2.4zm-.5 1z" style="fill:#fff"/></g><path d="M51.5 35.1s-.1 0 0 0zm-.1 0h.1-.1s.1 0 0 0zm.1.8zm.1.4zm-.1.1zm0-.5zm0-.7zm-.1.5zm-.1-.1s.1-.1 0 0c.1-.1.1-.1 0 0 0-.1 0 0 0 0zm0-.3zm.1.5zm1.6 4zm-.2.3zm-1.3-3.5zm.4 1.2h.1-.1zm-.4-2.6zm.5 2.6zm-.4-.9zm0-.3zm.1.4zm.1.1zm1.1 2.4zm-1.4-4.3zm.7 1.7zm.4 1.7zm-.4-1.7c0 .1 0 .1 0 0 0 .1 0 .1 0 0zm.7 2.6zm.1.1h-.1.1-.1c0-.1 0-.1.1 0-.2 0-.1-.1-.2-.1h-.1.1-.1.2v-.1h-.1c-.1 0 .2-.1.1-.1h-.1.1-.1c.1 0 0 0 0 0h.1s-.1 0-.1-.1h.1v-.1h-.2c-.1 0-.1 0-.1-.1h-.1c0-.1-.1-.1 0-.2-.1 0 0-.1-.1 0 0 0 .1 0 .1-.1h-.1.1-.1.1s0-.1.1-.1h-.1.1c-.1 0 .1 0 0 0v-.2h-.1.1-.1.2s.1 0 0 0v-.1h-.1v-.1h-.1.1l-.1-.1c-.1 0 .1-.1 0-.1h-.1.1c-.1 0 0-.1-.1-.1.1-.1 0-.1 0-.1-.1-.1 0-.2 0-.3h-.1.1c-.1 0 0-.1-.1-.2h.1s-.1 0 0 0h-.1v-.1h-.1c.1 0 .1-.1 0-.1h.1-.1c.1-.1-.1 0 0-.1-.1 0-.1-.1-.1-.1h.1s-.1 0-.1-.1h.1s0-.1-.1-.1h-.2c.1 0 0 0 .2-.1H52h.1-.1.1-.1s-.1 0-.1-.1h.1s-.1 0 0 0h-.1s-.1 0 0 0h.1-.1.1-.1.1-.1v-.1h.1s-.1 0-.1-.1c-.1 0 0 0 0 0s.1 0 0 0l-.1-.1v-.1h-.1c.1-.1-.1-.1 0-.1h-.2.1c.1 0-.1 0 0 0h.1-.1c.1 0 0 0 0 0h-.1.1c-.1 0 0 0 0 0h-.1c-.1 0 .1-.1 0-.1h-.1.1s-.1 0 0 0h.1-.1.1-.1.1c-.1 0 0 0 0 .1h-.1.1-.1s-.1 0 0 0c0 0 .1 0 0 0h.1l-.1.1h.2l-.1.1h.1c-.1 0 0 0 0 0h-.1c.1 0 0 0 0 0h.1v.1h.1-.2s.1 0 0 .1c0 0 .1-.1.2 0h-.3.1-.1.2c.1 0 0 .1 0 .1h.1-.1c-.1 0-.1 0 0 0h-.1c-.1.1.2 0 0 .1h.1l-.1.1h.2-.2v.1h.1s-.1 0 0 0h-.1c.1 0 0 0 0 .1h.1-.1.1-.1.1c.1 0-.1 0 0 .1h-.1c.1 0 0 0 0 0h.3c-.1 0 0 0 0 0h-.1s.1 0 .1.1h-.1.2-.1s.1 0 0 0h.2c-.1.1 0 .1-.1.1h.1-.1c-.1 0 0 0 0 .1h.2-.1.1l-.1.1c-.1 0 0 0 0 0h.1c.1 0 0 0 0 0h-.1.1-.1.2c-.1 0 0 .1-.1.1.1 0 0 .1 0 .1h.1l-.3.2h-.2.1c.1 0-.1.1 0 .1 0 0 0 .1.1 0h-.1l.1.1s.1 0 0 0c0 0 .1 0 0 0 0 0 .1 0 .1.1-.1 0-.1.1-.1.1l.1.1c-.1.1 0 .1-.1.2h.1s.1 0 0 0 0 0 0 .1h.1c-.1.1.1.1 0 .1h.1-.1v.1h.2-.1s-.1.1 0 .1c0 0 0 .1.1 0-.1 0 0 0 0 0h-.1.1s.1 0 0 0h.1l-.1.1h.1s.1 0 0 .1h-.1.2s.1 0 0 0h.1c-.1 0-.1.1-.2.1 0 0 0 .1.1 0h.1s-.1 0 0 0c-.1.1.2 0 .1.1 0 .1.1.1 0 .2h.1-.1.1c.1 0-.1.1 0 .1h.1s-.1 0-.1.1h.1c.1 0 .2 0 .2-.1l-.2.4h.1-.1s.1 0 0 0h-.1l.1-.1h-.1c.1 0 0 0 .1-.1h-.2c.1-.1.2-.1.2-.2l-.1.1.1-.1c-.1.1-.1 0-.1.1l.1-.1zm-.3-.4zm0-.1c0 .1 0 .1 0 0 0 .1 0 0 0 0zm-.3.2zm0 0s.1 0 0 0c.1 0 0 0 0 0zm-.9-3.4zm1.2 2.7h-.1.1zm-1.1-3zm0-.1zm0-.1zm.4 1.1zm-.2-.3zm.4.7zm-.4-.7zm-.3-1.1zm0 0zm0 0zm0 .1c.1 0 0 0 0 0zm.1.1c0-.1 0-.1 0 0 0-.1-.1 0 0 0zm-.3.1c-.1.1 0 0 0 0zm0 .1zm.2.5c0 .1 0 .1 0 0zm.3.1zm-.4.1h.1zm.3.9c.1 0 0 0 0 0zm.2.4zm.2 1.1z" style="fill:#6594d9"/></g></svg>