<svg xmlns="http://www.w3.org/2000/svg" viewBox="0 0 131.2 142.8" style="enable-background:new 0 0 131.2 142.8" xml:space="preserve"><style>.st5{fill:#d83429}.st6{fill:#ff8a65}.st7{fill:none;stroke:#ef7937;stroke-width:.925;stroke-miterlimit:10}.st8{fill:#d9413d}.st9{fill:#ff8a65}.st10{fill:none;stroke:#d83429;stroke-width:.8491;stroke-miterlimit:10}.st11{fill:#d9413d}.st12{fill:#ff8a65}.st13{fill:none;stroke:#d9413d;stroke-width:.8491;stroke-miterlimit:10}.st14{opacity:.37}.st15{clip-path:url(#SVGID_2_)}.st16{clip-path:url(#SVGID_4_)}.st17{clip-path:url(#SVGID_6_)}.st18{clip-path:url(#SVGID_8_)}.st19{clip-path:url(#SVGID_10_)}.st20{clip-path:url(#SVGID_12_)}.st21{clip-path:url(#SVGID_14_)}.st22{clip-path:url(#SVGID_16_)}.st23{clip-path:url(#SVGID_18_)}.st24{clip-path:url(#SVGID_20_)}.st25{fill:none;stroke:#d9413d;stroke-width:.925;stroke-miterlimit:10}.st26{clip-path:url(#SVGID_22_)}.st27{clip-path:url(#SVGID_24_)}.st28{clip-path:url(#SVGID_26_)}.st29{clip-path:url(#SVGID_28_)}.st30{clip-path:url(#SVGID_30_)}.st31{fill:none;stroke:#d9413d;stroke-width:.925;stroke-miterlimit:10}.st32{clip-path:url(#SVGID_32_)}.st33{clip-path:url(#SVGID_34_)}.st34{clip-path:url(#SVGID_36_)}.st35{clip-path:url(#SVGID_38_)}.st36{clip-path:url(#SVGID_40_)}.st37{fill:#d9413d}.st38{fill:#6594d9}.st39{fill:#ee8423}.st40{fill:#f18a50}.st41{fill:#019788}.st42{fill:#32867a}.st43{fill:#f67258}.st44{fill:#de5956}.st45{opacity:.5}.st48{fill:#21a497}.st49{fill:#f7846d}.st50{fill:#26a59a}.st51{opacity:.65;fill:none;stroke:#fff;stroke-width:.2;stroke-miterlimit:10}.st52{fill:#ffccbc}.st53{fill:none;stroke:#31458b;stroke-miterlimit:10}.st54{fill:#d83429}.st55{fill:none;stroke:#f5a800;stroke-miterlimit:10}.st55,.st56,.st57{stroke-width:.2}.st56{fill:none;stroke:#4db6ac;stroke-miterlimit:10}.st57{stroke:#ff8a65}.st57,.st58,.st59,.st60,.st61{fill:none;stroke-miterlimit:10}.st58{opacity:.65;stroke:#fff;stroke-width:.5}.st59{stroke:#ef7937}.st60{stroke:#147467}.st61{stroke:#d9413d}.st62{fill:#d9413d}.st63,.st64,.st65{fill:#ffccbc}</style><g id="Calque_1"><path d="M78 112.3s-34.8-.3-42.4 1.5 19.6 7.3 34 6.3c14.4-1.1 25-4.7 20.8-5.9-4.3-1.3-8.7-1.6-12.4-1.9z" style="opacity:5.000000e-02"/><path d="M65.8 101.6c-.1.6-.1.6-.1 1.2s.1.6.1 1.2-.1.6-.1 1.2v2.4c0 .6-.1.6-.1 1.2v2.4c0 .6.1.6.1 1.2s-.1.6-.1 1.2-.1.6-.1 1.2c0 .5.5.9.9.9h1.3c.6 0 .6-.1 1.3-.1.6 0 .7-.8.2-1-.5-.1-.5 0-1 0s-.5.1-1 .1c-.3-.1-.5-.5-.5-.8v-1.2c0-.6-.1-.6-.1-1.2s.1-.6.1-1.2v-2.4c0-.6-.1-.6-.1-1.2s-.1-.6-.1-1.2v-1.2c0-.6.1-.6.1-1.2s.1-.6.1-1.2-.1-.6-.1-1.2.6-1 .1-1.2c-.5-.2-.3.6-.6 1-.1.5-.2.5-.3 1.1zm-3.1 0c.1.6 0 .6 0 1.2s.1.6.1 1.2-.1.6-.1 1.2v1.2c0 .6.2.6.2 1.2s-.1.6-.1 1.2.1.6.1 1.2-.1.6-.1 1.2v1.2c0 .6-.1.6-.1 1.2v1.2c0 .5-.3.9-.8.9h-1.3c-.7 0-.6.1-1.3.1-.6 0-.7-.8-.2-1 .5-.1.5-.2 1-.3s.5.1 1 .1c.3-.1.6-.5.6-.9 0-.6-.2-.6-.2-1.2s.1-.6.1-1.2.1-.6.1-1.2-.1-.6-.1-1.2v-1.2c0-.6.1-.6.1-1.2s-.1-.6-.1-1.2v-1.2c0-.6.1-.6.1-1.2v-2.4c0-.6-.5-.9.1-1.1.5-.2.1.5.4 1 .3.7.4.7.5 1.2z" style="fill:#d83429"/><path d="M75.1 46.2s-.7 2.3-2.1 2.8c-1.4.5-1.5 1.9-2.2-2.7-.6-4.5-1.8-16.2-4.5-16.3-2.7-.1-2.3 5.5-2.3 5.5s-1.2-6.2-4.3-6.4-2.5 7.9-2.5 7.9-1.6-6.3-4.7-5.7c-3.1.6-.9 6.8-.9 6.8s-4.1-7-7-4.1c-2.9 2.9 3 23 4.4 28.7 1.4 5.7 4.2 16.6 5.2 19.7 1 3.1-3.9 15.5-4.1 21.8-.2 6.2 1 6.3 5.9 6.1 4.9-.2 9.2 1.5 14.5-2.2 5.3-3.7 5.4-9.1 8.2-14.8 2.7-5.7 6.6-13.1 9.4-20.1 2.8-7 6.7-15.4 8.2-18.7 1.5-3.3 9.5-13.2 7.7-15.6-1.8-2.4-5.8 3.2-5.8 3.2s4.5-5.5 1.6-7.9c-2.9-2.4-7 5.2-7 5.2s3.8-6.6.6-8.1-5.5 5.4-5.5 5.4 2.1-7.8-1.8-8.3-8.2 9.1-8.9 11.2c-.7 2-1.1 4.7-2.1 6.6z" style="fill:#ff8a65"/><g style="opacity:.65"><path d="M61.2 75.6v-.2.2zm-.1-.7v.7-.6.2-.3zm-.7-.5zm-.5-.2zm-.1-.4c0 .1 0 .1 0 0zm.6.6v-.1.1zm.6 1.3zm-.4-1.6V74v.1zm.2 0v.4-.4zm.2.5zm-.5-.5V74v.1zm-4.8 2c0-.1 0-.1 0 0 0-.1 0-.1 0 0zm-.1-1.4v-.2.2zm4.1-1.2zm-1.5.1v.6c0-.1.1-.4 0-.6zm2.8 2.1zm-2.8-1.5c0 .1 0 .1 0 0zm1.1-.6v.1-.1zm.3.4c-.1 0-.1 0 0 0zm-.5 0zm-.1 0s0 .1 0 0c0 .1 0 .1 0 0zm-2.8 1.9v-.3c0 .3-.1.3 0 .3zm4.8-.3v.1-.1zm-1.9.6zm-1.9-.3c0 .1 0 .1 0 0zm1.8.3V76v.2zm-2.8-.5z" style="fill:#fff"/><path d="M56 76.3v-.6.5c0-.1 0-.4.1-.4v.2c0-.3.1 0 .1-.4v.1-.5s0-.2 0 0v.2-.1.4c0-.1.1-.4.1-.3v.4-.1.5c0 .1 0-.2.1-.1v-.5c.1-.3 0 .9.1.4v-.4.4s0-.6.1-.3v.2-.2.3c0-.1.1-.3.1-.4v.3c0-.2.1 0 .1.2v-.3.2-.3.3c0-.2.1-.5.1-.2v.1c0 .1 0-.6.1-.3v.1c0 .1.1-.1.1.3 0-.4 0 .2.1-.4v.6-.4.3-.3.4-.3.4l.1-.3v.2c0-.3 0 .3 0 0V76c0 .2 0 .2.1.1v.2c0 .1.1-.1.1-.1v-.5.3-.4.5-.1.3c0-.2 0 .3 0 0v.1l.1-.1v-.4c0 .1 0 .3.1.3v-.4.4l.1-.3v-.2.2c.1-.4.1.8.1.2v-.3.4c.1-.4.1.1.1-.2 0 .8.1-.1.1.4v-.2.1-.3c.1-.2.2.3.2.4 0 0 0-.9.1-.5v.3c.1-.4.1 0 .2-.3v.2c0 .2 0 0 .1-.2v.3-.1.1-.2c0 .1 0-.1.1 0 0-.3 0 .2.1-.3 0 .5 0 .4.1.2v.3-.3c0 .5.1-.4.1.3.1-.2.1-.4.2-.5 0 .5-.1 0-.1.5 0-.2.1-.6.1-.5v.3c0-.2.1 0 .1-.2v.1-.1.1c0-.3 0-.6.1-.8v.9-.3.3c0-.1 0-.3.1-.3v.3c0-.2 0-.4.1-.3v.1s.1-.5.1-.3v.5-.3s0-.3.1-.1v.2-.6.2-.2.5c0-.3 0-.1.1-.4v.3-.3.3-.3.1c0 .1.1-.2.1 0v.4c0-.1.1-.4.1-.4 0-.5 0 .3 0 0v.2c0 .1.1-.1.1-.3v.1c0 .1 0 .1.1.1v-.3c0 .8.1-.4.1.2v.1-.6.5-.4.1-.2.3s0-.5.1-.2v.5-.1c0-.7 0-.1.1-.6v.9-.2.3-.3c0-.3 0 .4.1-.1 0-.2.1-.5.1-.7v.4c0 .1 0 .1 0 0v.3-.2.4c0-.1 0-.3.1-.4v.4c0-.1 0-.2.1-.4v-.1.3-.3c0-.6 0 .1-.1.1v-.4.3-.6.1-.2c0-.2-.1.3-.1 0 0 .1 0 .3-.1.7v-.8.3-.2.3c0-.3-.1.1 0-.4v.3-.6c0 .5 0-.1 0 0 0 .4 0 .2-.1.3 0-.1 0-.2-.1-.3v-.1c0 .4 0 .3-.1.4v-.4.2-.3s-.1.3-.1.1v.9-.4.1-.2.2-.3s0 .1 0 0v-.3.3-.3.3-.2c0 .1-.1 0 0 .4 0 .3-.1-.2-.1 0v-.1c0 .1 0 .1-.1.3v-.3c0 .1 0 .2 0 0v-.1c0-.1 0-.2 0 0V74v.2-.3c0-.4-.1.7-.1 0v.4-.5c0-.2 0 .5-.1.4v.5-.6.1-.2.1-.3.3c0-.2 0 0-.1-.1v.5-.7c0 .2 0-.2-.1-.2v-.1.3-.1.6-.7c0-.3 0 .4-.1.3v-.3.8-.2c0 .3 0-.3-.1-.1v-.5.4-.2.3-.1.3c0-.4 0 .2-.1 0v-.6c0-.3-.1.3-.1.2v.2-.4.4-.3c0-.1-.1.6-.1.5v-.5.5-.1.4c0-.6-.1 0-.1-.5 0 .1-.1.1-.1.1v-.1c0-.2 0 .6-.1.4v-.6c0-.2 0 .2-.1.2V74c0 .3-.1.4-.1.5v-.4.5-.8s0 .4-.1.4v.2-.4c0 .1-.1.4-.1.5 0-.3.1-.4.1-.6l-.1.2V74c0 .3 0 .5-.1.5 0-.8-.1-.2-.1-.8-.1.3-.1-.1-.1-.1v.6-1.1.5c0 .3 0-.5-.1-.2v-.2c0 .1-.1 0-.1.5v-.3c0-.1-.1.5-.1.2v-.1.1-.2.2-.2c0-.2-.1.4-.1.5v-.8c0-.1-.1.4-.1.5 0-.5-.1-.2-.1-.5v.4-.4.5c0-.8-.1.3-.1-.4v.3-.3c0-.1 0-.1-.1 0V73l-.1.8v-.4s-.1-.4-.1 0v-.2s-.1-.3-.1.3c0-.4 0 0-.1.1v-.3c0 .4 0 .5-.1.6v-.2.1-.2.3-.3.3-.2c0-.2-.1.3-.1 0v-.9c0 .2-.1.6-.1.5V73v1.1-.8c0 .2-.1.1-.1.6v-.3c0 .1-.1.1-.1.4v-.4c0-.6-.1.9-.2.2v.1c-.1-.3-.2.3-.2-.2v.3-.3.3c0 .3 0-.7-.1-.3v.2-.1.1-.2.3-.7c0 .1-.1.5-.1.6v1.7-.3.2-.1.2-.4.5-.5.4-.3.4-.4.6c0-.5.1-.2.1-.5v.4c0-.4 0-.5.1-.7v.8-.6.4-.4.3c-.2.6-.2.7-.2.7zm.5-.8zm.1 0v-.2.2zm-.1-1.9c.1-.1.1 0 0 0v.1-.1zm0 .3c0 .1 0 .1 0 0 0 .1 0 0 0 0zm3.9.6z" style="fill:#fff"/><path style="fill:#fff" d="m57.1 76.1.1-.1h-.1zm3.5-.7s0 .1 0 0c0 .1 0 0 0 0zm.1.1v.1-.1zm0 .1v-.1.1zm-1.2.3c0 .1 0 .1 0 0zm.4-.6v.1-.1zm-.8.9zm.8-.8c0 .1 0 0 0 0zm1.2.4s0-.1 0 0zm0-.1zm0-.1c0 .1 0 .1 0 0zm-.1 0v.1-.1zm0 .1v.2-.2c0 .2 0-.2 0 0zm-.1-1.3v-.2.2zm-.1-.2V74v.2zm-.6 0v-.3.3zm-.2 1.3v.2l.1-.2zm0-1.8v.1zm-1 .1v.3c0-.1.1-.4 0-.3zm-.4.3V74v.1zm-1.3-.6.1-.1-.1.1z"/></g><g style="opacity:.65"><path d="M82.1 75.9v-.2.2zm0-.6v.7-.6.2-.3zm-.8-.5zm-.5-.2zm-.1-.3s0-.1 0 0zm.6.5v-.1c-.1.1 0 .1 0 .1zm.6 1.3c.1 0 .1 0 0 0 .1 0 .1 0 0 0zm-.4-1.6v-.1.1zm.1 0v.4-.4zm.3.5zm-.5-.5v-.1.1zm-4.7 2.1zm-.2-1.4V75v.2zm4-1.3zm-1.4.2v.6-.6zm2.8 2zm-2.8-1.4zm1.1-.6v.1-.1zm.2.4zm-.4 0s0-.1 0 0c0-.1 0-.1 0 0zm-.1 0zm-2.8 2v-.3.3zm4.8-.5v.1-.1zm-1.9.7zm-1.9-.3c0 .1 0 .1 0 0zm1.8.3v-.2.2zm-2.8-.5zm-.1.7v-.6.5-.4.2c0-.3.1 0 .1-.4v.1-.5s0-.2 0 0v.2-.1.4c0-.1 0-.4.1-.3v.4-.1.5c0 .1 0-.2.1-.1v-.5c0-.3 0 .9.1.4v-.4.4-.3.2-.2.3c0-.1.1-.3.1-.4v.3c0-.2.1 0 .1.2v-.3.2-.3.3c0-.2.1-.5.1-.2v.1-.3.1c.1.1.1-.1.2.3.1-.6.1 0 .1-.6 0 .3 0 .4.1.6v-.4.3-.3.4-.3c0-.1.1.2.1.4v-.3.2c0-.3 0 .3 0 0v-.2c0 .2 0 .2.1.1v.2c0 .1.1-.1.1-.1v-.5.3-.4.5-.1.3c0-.2 0 .3 0 0v.1l.1-.1v-.4c0 .1.1.3.1.3v-.4.4s0-.1.1-.3v-.2.2c0-.4.1.7.2.2v-.3.4c0-.4.1.1.1-.2 0 .8.1-.1.1.4v-.2.1-.3c.1-.2.2.3.3.4 0 0 0-.9.1-.5v.3c.1-.4.1 0 .2-.3v.2-.2.3-.1.1-.2c0 .1 0-.1.1 0v-.3c0 .5 0 .4.1.2v.3-.3c0 .5.1-.4.1.3 0-.2.1-.4.1-.5v.5c0-.2.1-.6.1-.5v.3c0-.2.1 0 .1-.2v.1-.1.1-.8.9-.3.3-.3.3-.3.1s.1-.5.1-.3v.5-.4.2-.6.2-.2.5c0-.3 0-.1.1-.4v.3-.3.3-.3.1c0 .1.1-.2.1 0v.4c0-.1.1-.5.1-.4 0-.5 0 .3 0 0v.2c0 .1.1-.1.1-.3v.1c0 .1 0 .1.1.1v-.3c.1.8.1-.4.1.2v.1-.6.5-.4.1-.2.3-.2.5-.1c0-.7 0-.1.1-.6v.9-.2.3-.3c0-.3.1.4.1-.1 0-.2 0-.5.1-.7v.4c0 .1 0 .1 0 0v.3-.2.4-.4.4-.5.3-.3c0-.6 0 .1-.1.1v-.4.3-.6.1-.2c0-.2 0 .3-.1 0v.7-.8.3-.2.3c0-.3 0 .1-.1-.4v.3-.6c0 .5 0-.1 0 0 0 .4 0 .2-.1.3 0-.1 0-.2-.1-.3v-.1.4-.4.2-.3s0 .3-.1.1v.9-.4.1-.2.2-.3s0 .1 0 0v-.3.3-.3.3-.2.4c0 .3-.1-.2-.1 0v-.1c0 .1 0 .1-.1.3v-.3c0 .1 0 .2 0 0v-.1c0-.1 0-.2 0 0v-.2.2-.3c0-.4-.1.7-.1 0v.4-.5c0-.2 0 .5-.1.4v.5-.6.1-.2.1-.3.3c0-.2 0 0-.1-.1v.5-.7c0 .2 0-.2-.1-.2v-.1.3-.1.6-.7.3-.3.8-.2c0 .3 0-.3-.1-.1V74v.4-.2.3-.1.3c0-.4 0 .2-.1 0v-.6c0-.3-.1.3-.1.2v.2-.4.4-.3c0-.1 0 .6-.1.5v-.5.5-.1.4c0-.6-.1 0-.1-.5 0 .1 0 .1-.1.1v-.1.4-.3c0-.6 0 .1-.1-.3 0-.2 0 .2-.1.2v-.1c0 .3 0 .4-.1.5v-.4.5-.5c0-.4 0 0 0 0v-.2c0 .1 0 .4-.1.4v.2-.4c0 .1 0 .4-.1.5 0-.3 0-.4.1-.6v.2-.1c0 .3 0 .5-.1.5 0-.8-.1-.2-.1-.8 0 .3-.1-.1-.1-.1v.6-1.1.5c0 .3 0-.5-.1-.2v-.2c0 .1-.1 0-.1.5v-.3c0-.1-.1.5-.1.2V74v.1-.2.2-.2c0-.2-.1.4-.1.5 0-.4 0-.6-.1-.7v-.1c0-.1-.1.4-.1.5 0-.5-.1-.2-.1-.5v.4-.4.5c0-.8-.1.3-.1-.4v.3-.3c0-.1 0-.1-.1 0v-.2.8-.4s-.1-.4-.1 0v-.2s-.1-.3-.1.3c0-.4 0 0-.1.1v-.3.6-.2.1-.2.3-.3.3-.2c0-.2 0 .3-.1.1v-.9c0 .2 0 .6-.1.5v-.3 1.1-.8c0 .2-.1.1-.1.6v-.3c0 .1-.1.1-.1.4v-.4c-.1-.6-.1.9-.2.2v.1c-.1-.3-.2.3-.2-.2v.3-.3.3c0 .3-.1-.7-.1-.3v.2-.1.1-.2.3-.7 2.3-.3.2-.1.2-.4.5-.5.4-.3.4-.4.6c0-.5.1-.2.1-.5v.4-.7.8-.6.4-.4.3c.2.5.2.7.2.7zm.5-.9zm0 0v-.2.2zm-.1-1.9c0-.1 0 0 0 0v.1-.1zm0 .3s0 .1 0 0c0 .1 0 .1 0 0 0 .1 0 .1 0 0zm3.9.5zm-3.2 1.7v-.1.1zm3.4-.8s0 .1 0 0c0 .1 0 .1 0 0zm.1.1v.1-.1zm.1.1v-.1.1zm-1.3.4zm.4-.7v.1-.1zm-.8 1zm.8-.9c0 .1 0 .1 0 0zm1.2.4c0-.1 0-.1 0 0zm0-.1zm0-.1c0 .1 0 .1 0 0zm-.1 0v.1-.1zm0 .1v.2-.2c0 .2 0-.2 0 0zm-.1-1.3v-.2c-.1-.3 0 .2 0 .2zm-.1-.2v-.2.2zm-.6 0v-.3.3zM81 76v.1-.2zm-.1-1.9v.1zm-1 .1v.3-.3zm-.4.3v-.1.1zm-1.3-.5v-.1.1z" style="fill:#fff"/></g><path d="M54.3 58.4s4.2-4.1 9.7-1.2c5.6 3 4.9 11-.7 12.6s-9.2-.5-10.1-2.8c-.8-2.3-1.4-6.4 1.1-8.6zm20 .7s4.2-4.1 9.7-1.2c5.6 3 4.9 11-.7 12.6-5.6 1.7-9.2-.5-10.1-2.8-.8-2.3-1.3-6.4 1.1-8.6z" style="fill:#fff"/><ellipse cx="61" cy="65.5" rx="5.3" ry="5"/><ellipse cx="80.7" cy="65.6" rx="5.3" ry="5.1"/><path d="M69.3 77.4c-3.2 0-4.1-2.8-4.1-4.2h1c0 .1.1 3.3 3.1 3.3 3.1 0 3.3-2.7 3.3-2.8l1 .1c0 1.2-1.1 3.6-4.3 3.6zm23.6 5.2c-.1-.1-.5-.4-1-.6-.3-.2-.7-.3-1-.4-.4-.1-.7-.2-1-.2-.1-.3-.2-.5-.3-.8-.1-.3-.2-.7-.3-1-.1-.3-.2-.6-.4-.9-.1-.3-.3-.6-.4-.9-.1-.3-.2-.7-.4-.9-.2-.3-.4-.6-.5-.8-.2-.3-.4-.6-.6-.8-.2-.3-.4-.6-.6-.8-.3-.3-.6-.5-.8-.6-.5-.3-.8-.4-.9-.4l-.2 1s.4.1.9.5l.7.7c.2.2.4.5.6.8.2.3.3.5.5.9.1.3.2.6.4.9.1.3.3.6.4.9.1.3.3.6.4.9.1.3.2.6.3 1 .1.3.2.5.2.8-.2.1-.4.2-.5.4-.2.3-.2.7-.2 1.1 0 .5.2 1 .2 1.1.5-.1.5 0 1-.3-.1-.2-.2-.8-.1-1.2.1.3.2.7.3.9.1.4.3.6.3.9.2.5.4.6.6.6h.2c.3-.1.4-.3.4-.6v-.9c-.2-.1-.2.1-.4.1-.1-.3-.3-.7-.5-1.3l1.2.3c.4.2.8.5 1 .7.3-.4.2-.6.5-1.1zm-40-10.5c-.1 0-.4.2-.8.6-.2.2-.3.5-.5.8-.1.2-.3.5-.4.9-.1.3-.3.6-.4.9l-.3.9c-.1.3-.2.6-.3 1-.1.3-.1.6-.2 1-.1.3 0 .6-.1 1 0 .3-.1.6-.2 1 0 .3 0 .7-.1 1 0 .4-.1.7-.1 1-.3.1-.7.2-1 .4l-.9.6-.8.8c.4.4.3.4.8.6.2-.2.4-.5.8-.8.3-.2.6-.4.9-.5 0 .3-.1.5-.1.8 0 .3-.1.6-.1.8-.2.1-.3-.1-.4 0v1c.1.4.3.7.6.7h.1c.2 0 .4-.1.6-.8.1-.2.1-.6.1-1 0-.3.1-.7.1-1.1.1.4.1.9.1 1.2.5.2.5.2 1 .2 0-.1.1-.6.1-1.1 0-.3-.1-.7-.3-1-.1-.3-.4-.6-.7-.8 0-.3.1-.7.1-1.1 0-.3 0-.7.1-1 0-.3.1-.7.1-1 .1-.3.1-.7.2-1 .1-.3.2-.7.2-1 .1-.3.1-.7.2-1 .1-.3.1-.7.2-1 .1-.3.3-.6.4-.9.2-.4.4-.6.5-.8.4-.6.6-.7.6-.7-.1-.2-.1-.2-.2-.5.1.1.2.1.1-.1z" style="fill:#d83429"/><path d="M92.5 52.4zm0 0zm-.3.4zm-.2.3zm0 0zm.2-.3zm.3-.3zm-.3.2zm.1-.1zm.1-.2zm-.2.3zM91 55.5zm-.2 0zm1.1-2.3zm-.4.8zm1-1.5zm-.9 1.5zm.2-.6zm.1-.1zm-.1.2zm0 .1zm-.7 1.6zm1.4-2.7zm-.5 1.1zm-.6 1zm.6-1zm-.9 1.6zm0 .1v-.1c.1 0 0 0 0 0h.1s-.1 0 0 0v-.1s0-.1.1-.1v-.1s0-.1.1-.1h.1v-.3s.1 0 .1-.1v-.1c.1 0 0-.1.1-.1 0-.1.1-.1.1-.1s-.1-.1 0-.1v-.1c.1 0 0-.1 0 0v-.1.1-.2l-.1-.1h.1v-.1h.1v-.3c.1 0 0-.1.1-.1-.1 0 0 0 0-.1 0 0 .1 0 0-.1v-.1c-.1 0 0 0 0 0h-.1.1v.2h-.2.1-.1v.2h-.1c-.1 0 0 0 0 0v.1h-.1v.2-.1.1h-.1v.1h.1s-.1 0 0 0v.3h-.1v.1c-.1 0 0 0-.1.1-.1 0 0 .1-.1.1l.1.1s-.1 0 0 .1h-.1v.1h-.1v.2c-.1 0 .1.1 0 .1s0 .1-.1.1h-.2s.1.1.1 0h.1c-.1.5-.1.5 0 .4-.1.1-.1.1 0 0-.1.1 0 .1 0 0H91c.1 0 .1.1.1 0 0 .1 0 0 0 0-.1 0 0 0 0 0zm.1-.3zm0 0zm-.2-.1zm0 .1zm1.2-2.2zm-.8 1.9zm1-2zm0 0zm0-.1zm-.3.7zm0-.2s.1 0 0 0c.1 0 .1 0 0 0zm-.1.5zm.1-.5c.1 0 .1 0 0 0zm.4-.7zm0 0zm0 0zm0 .1zm0 0zm-.2 0s.1 0 0 0zm0 .1zm-.2.3zm.1.1zm-.2 0zm-.2.5s-.1 0 0 0zm-.1.3c-.1 0-.1 0 0 0-.1 0 0 0 0 0zm-.5.7zm-6.6-10.6s-.1 0 0 0zm-.1 0s0 .1 0 0c0 0 .1 0 0 0 0 0 .1 0 0 0zm-.3.4zm-.1.3zm-.1.1s0-.1 0 0c0-.1 0-.1 0 0zm.2-.4c0 .1 0 .1 0 0zm.3-.3zm-.2.2zm0-.1zm.1-.1zm-.2.3zM83 47zm-.1.1zm1-2.4zm-.4.8c.1 0 .1.1 0 0 .1.1.1 0 0 0zm1-1.5zm-.9 1.6zm.2-.7zm.2-.1zm-.2.2zm0 .1zm-.6 1.7c-.1 0-.1 0 0 0zm1.3-2.8zm-.5 1.1zm-.5 1.1zm.5-1zm-.9 1.6z" style="fill:#4b5d9a"/><path d="M83.1 46.9c.1 0 0 0 0 0 0-.1 0-.1 0 0 0-.1 0-.1 0 0 0-.1 0-.1 0 0v-.1c.1 0 0 0 0 0h.1s-.1 0 0 0v-.1s0-.1.1-.1v-.1s0-.1.1-.1h.1v-.3s.1 0 .1-.1v-.1c.1 0 0-.1.1-.1 0-.1.1-.1.1-.1s-.1-.1 0-.1v-.1c.1 0 0-.1 0 0v-.1.1-.2l-.1-.1h.1v-.1h.1v-.3c.1 0 0-.1.1-.1-.1 0 0 0 0-.1 0 0 .1 0 0-.1v-.1c-.1 0 0 0 0 0h-.1.1v.2h-.2.1-.1v.2h-.1c-.1 0 0 0 0 0v.1h-.1v.2-.1.1h-.1v.1h.1s-.1 0 0 0v.3h-.1v.1c-.1 0 0 0-.1.1-.1 0 0 .1-.1.1l.1.1s-.1 0 0 .1h-.1v.1h-.1v.2c-.1 0 .1.1 0 .1s0 .1-.1.1h-.2s.1.1.1 0h.1c-.1.5 0 .5 0 .4H83h.1zm.1-.3zm0-.1zm-.2 0zm.1 0zm1.1-2.2zm-.7 1.9h-.1.1zm.9-1.9zm0-.1zm.1 0s-.1 0 0 0c-.1 0-.1 0 0 0zm-.4.7zm.1-.3s0 .1 0 0c0 .1 0 .1 0 0zm-.2.5zm.2-.4zm.4-.7zm0 0zm0 0zm-.1 0zm0 .1c0-.1 0 0 0 0 0-.1 0-.1 0 0zm-.1 0c-.1-.1 0 0 0 0zm-.1 0zm-.1.3c-.1 0-.1 0 0 0zm0 .2h.1-.1zm-.1-.1zm-.3.6zm-.1.2zm-.4.7zM78 48.8zm-.1 0c0 .1 0 .1 0 0 0 .1.1.1 0 0 0 0 .1 0 0 0zm-.3.5zm-.1.2zm-.1.1zm.2-.3zm.3-.4zm-.2.2zm0-.1s0 .1 0 0c0 .1 0 0 0 0zm.1-.1zm-.2.3zm-1.2 2.7zm-.1.1zm1-2.4zm-.4.9c.1 0 .1 0 0 0 .1 0 .1 0 0 0zm1-1.6zm-.9 1.6zm.2-.6c.1 0 0 0 0 0zm.2-.2zm-.2.2c0 .1 0 .1 0 0 0 .1 0 0 0 0zm0 .1zm-.6 1.7s-.1 0 0 0zm1.3-2.8zm-.5 1.2zm-.5 1zm.5-1zm-.9 1.6zm0 .1c.1 0 0 0 0 0 0-.1 0 0 0 0s0-.1 0 0c0-.1 0-.1 0 0v-.1c.1 0 0 0 0 0h.1s-.1 0 0 0v-.1s0-.1.1-.1v-.1s0-.1.1-.1h.1V51s.1 0 .1-.1v-.1c.1 0 0-.1.1-.1 0-.1.1-.1.1-.1s-.1-.1 0-.1v-.1c.1 0 0-.1 0 0v-.1.1-.2l-.1-.1h.1V50h.1v-.3c.1 0 0-.1.1-.1-.1 0 0 0 0-.1 0 0 .1 0 0-.1v-.1c-.1 0 0 0 0 0h-.1.1v.2h-.2.1-.1v.2h-.1c-.1 0 0 0 0 0v.1H77v.2-.1.1h-.1v.1h.1s-.1 0 0 0v.3h-.1v.1c-.1 0 0 0-.1.1-.1 0 0 .1-.1.1l.1.1s-.1 0 0 .1h-.1v.1h-.1v.2c-.1 0 .1.1 0 .1s0 .1-.1.1h-.2s.1.1.1 0h.1c-.1.5 0 .5 0 .4 0 .1 0 .1 0 0 0 .1 0 .1 0 0h-.1.1zm.1-.3zm0-.1c0 .1 0 .1 0 0 0 .1 0 0 0 0 0 .1 0 0 0 0zm-.2 0zm.1 0zm1.1-2.1zm-.7 1.8h-.1.1zm.9-1.9zm0-.1zm.1 0s-.1 0 0 0c-.1 0-.1 0 0 0zm-.4.7zm.1-.2zm-.2.5zm.2-.5zm.4-.7zm0 0zm0 0zm-.1.1zm0 0zm-.1 0c-.1 0 0 0 0 0zm-.1 0zm-.1.4c-.1 0-.1 0 0 0zm0 .1h.1-.1zm-.1-.1zm-.3.6zm-.1.3zm-.4.7z" style="fill:#4b5d9a"/><g style="opacity:.6"><path d="M90.6 45.5s-.1 0 0 0zm-.1 0zm-.3.4zm-.1.3zm-.1.1zm.2-.4zm.3-.3zm-.2.2zm0-.1zm.1-.1c0-.1 0 0 0 0zm-.2.3zm-1.1 2.9zm-.2 0zm1-2.5zm-.4.9c.1 0 .1 0 0 0 .1 0 .1 0 0 0zm1-1.6zm-.9 1.6zm.2-.6c.1 0 .1 0 0 0 .1 0 .1 0 0 0zm.2-.2zm-.2.3zm0 0zm-.6 1.8zm1.3-2.9zm-.5 1.2zm-.5 1.1zm.5-1.1zm-.8 1.7zm0 .1c-.1 0 0 0 0 0s0-.1 0 0c0-.1 0-.1 0 0v-.1c.1 0 0 0 0 0h.1s-.1 0 0 0v-.1s0-.1.1-.1v-.1s0-.1.1-.1V48h.1v-.3s.1 0 .1-.1v-.1c.1 0 0-.1.1-.1 0-.1.1-.1.1-.1s-.1-.1 0-.1v-.1c.1 0 0-.1 0 0V47v.1-.2l-.1-.1h.1v-.1h.1v-.4c.1 0 0-.1.1-.1-.1 0 0 0 0-.1 0 0 .1 0 0-.1v-.1c-.1 0 0 0 0 0h.1-.1.1v.2H90h.1-.1v.2c-.1 0 0 .1-.1 0-.1 0 0 0 0 0v.1h-.1v.2-.1.1h-.1v.1h.1s-.1 0 0 0v.3h-.1v.1c-.1 0 0 0-.1.1-.1 0 0 .1-.1.1l.1.1s-.1 0 0 .1h-.1v.1h-.1v.2c-.1 0 .1.1 0 .1s0 .1-.1.1h-.2.2c-.2.7-.2.7-.1.6-.1.1-.1.1 0 0-.1.1-.1.1 0 0h-.1.1c-.1 0-.1 0 0 0-.1 0-.1 0 0 0-.1 0-.1 0 0 0zm.1-.3zm0-.1c-.1.1-.1 0 0 0-.1 0 0 0 0 0zm-.2 0zm0 0zm1.1-2.3zm-.7 2zm.9-2.1zm0 0zm.1-.1c-.1 0-.1 0 0 0-.1 0-.1 0 0 0zm-.4.8zm.1-.3s0 .1 0 0c0 .1 0 .1 0 0zm-.2.6zm.2-.5zm.4-.8zm0 0zm0 0zm-.1.1zm0 0zm-.1 0s-.1 0 0 0c-.1 0 0 0 0 0zm-.1.1zm-.1.3c-.1 0-.1 0 0 0zm0 .2h.1l-.1-.1zm-.1-.1zm-.3.6zm-.1.3zm-.4.7z" style="fill:#fff"/></g><path d="M65.2 46.4c-.1 0-.1 0 0 0zm-.1 0s.1 0 0 0zm0 .5zm.1.3zm-.1.1c.1 0 .1 0 0 0zm0-.4zm.1-.4c0-.1 0-.1 0 0 0-.1 0 0 0 0zm-.1.3zm0-.1zm0-.2zm0 .3c0 .1 0 .1 0 0 0 .1 0 .1 0 0zm.7 2.9s0 .1 0 0c0 .1 0 .1 0 0zm-.1.2zm-.6-2.5zm.2.9c.1 0 0 0 0 0zm-.1-1.8zm.2 1.8zm-.2-.7zm0-.2zm0 .3zm.1.1zm.5 1.7s-.1 0 0 0zm-.6-3zm.3 1.1c0 .1 0 .1 0 0zm.1 1.2zm-.1-1.1zm.2 1.8zm.1.1c-.1 0 0 0 0 0 0-.1 0-.1 0 0 0-.1 0-.1 0 0-.1-.1 0-.1 0 0-.1-.1-.1-.1 0 0l-.1-.1.1.1-.1-.1.1.1c0-.1-.1-.1 0-.1 0 0 .1 0 0 0 0 0-.1 0 0 0 0 0-.1 0 0 0v-.2s-.1 0 0-.1c0 0-.1 0 0 0v-.1l.1-.1v-.4s.1-.1 0-.1v-.1c.1 0 0-.1 0-.1v-.2h-.1s0-.1-.1-.1v-.1l-.1-.1h.1s-.1 0-.1-.1v-.1h-.1.1s-.1 0 0-.1v-.1s-.1 0 0-.1c-.1 0 0 0 0 0v-.1c.1 0-.1-.1 0-.1 0 0-.1 0 0 0h-.1.1V47h-.1c-.1 0 0 0 0 0h.1-.1c-.1 0 0 0 0 0h.1v.1s.1 0 0 .1c0 0 .1 0 0 0h.1-.1.1-.1v.1h.1-.1c-.1 0 0 .1 0 .1s.1 0 0 0h.2-.1.1-.1.1c-.1 0 0 0-.1.1v.1h.2s.1.1 0 .1l.1.1h-.1l.1.1v.1h.1c-.1 0 0 .1 0 .1v.1h.1v.1h.1-.1.1-.1.1c-.1 0 .1 0 0 .1v.1s-.1 0 0 .1h-.1.2-.1.1c-.6 1.1-.6 1.1-.6 1 0 .1 0 .1 0 0 0 .1 0 .1 0 0 0 .1 0 0 0 0-.1 0 0 0 0 0zm-.1-.3zm0-.1c0 .1 0 .1 0 0 0 .1 0 0 0 0zm-.2.1zm0 0zm-.4-2.4zm.6 2zm-.5-2.2zm0 0zm0-.1zm.2.8zm-.1-.2zm.2.4zm-.2-.4zm-.1-.8zm0 0zm0 0zm0 .1zm0 0zm-.1.1c-.1 0 0 0 0 0zm0 .1c0-.1 0 0 0 0zm0 .3zm.2.1zm-.2 0zm.1.7c.1-.1 0 0 0 0zm.1.2zm.1.8zm-11.7-4.3zm-.1 0c.1 0 .1 0 0 0 .1 0 .1 0 0 0 .1 0 .1 0 0 0 .1 0 .1 0 0 0 .1 0 0 0 0 0zm.1.5zm0 .3zm0 .1zm0-.4zm0-.4zm-.1.3zm0-.1zm0-.2zm0 .4zm.8 2.9zm-.2.1zm-.5-2.5zm.1.9c.1 0 .1 0 0 0 .1 0 .1 0 0 0zm-.1-1.8zm.2 1.8zm-.2-.7zm0-.2zm.1.3zm0 .1zm.5 1.7zm-.6-3zm.3 1.2zm.2 1.1zm-.2-1.1zm.3 1.8zm.1.1s-.1 0 0 0c-.1 0-.1 0 0 0-.1-.1-.1-.1 0 0-.1-.1-.1-.1 0 0-.1-.1-.1-.1 0 0-.1-.1-.1-.1 0 0l-.1-.1s-.1 0 .1.1l-.1-.1.1.1c0-.1-.1-.1 0-.1 0 0 .1 0 0 0 0 0-.1 0 0 0 0 0-.1 0 0 0v-.2s-.1 0 0-.1c0 0-.1 0 0 0v-.1l.1-.1v-.4s.1-.1 0-.1v-.1c.1 0 0-.1 0-.1v-.2h-.1s0-.1-.1-.1V46l-.1-.1h.1s-.1 0-.1-.1v-.1h-.1.1s-.1 0 0-.1v-.1s-.1 0 0-.1c-.1 0 0 0 0 0v-.1c.1 0-.1-.1 0-.1 0 0-.1 0 0 0h-.1.1v-.1h-.1c-.1 0 0 0 0 0h.1-.1c-.1 0 0 0 0 0h.1v.1s.1 0 0 .1c0 0 .1 0 0 0h.1-.1.1-.1v.1h.1-.1c-.1 0 0 .1 0 .1s.1 0 0 0h.2-.1.1-.1.1c-.1 0 0 0-.1.1v.1h.2s.1.1 0 .1l.1.1h-.1l.1.1v.1h.1c-.1 0 0 .1 0 .1v.1h.1v.1h.1-.1.1-.1.1c-.1 0 .1 0 0 .1v.1s-.1 0 0 .1h-.1.2-.1.1c-.7 1.1-.7 1.1-.6 1-.1.1-.1.1 0 0-.1.1-.1.1 0 0-.1.1-.1 0 0 0-.1 0-.1 0 0 0-.1 0-.1 0 0 0-.1 0-.1 0 0 0-.1 0-.1 0 0 0-.1 0-.1 0 0 0-.1 0 0 0 0 0zm-.2-.3zm0-.1c0 .1 0 .1 0 0 0 .1 0 .1 0 0 0 .1 0 .1 0 0zm-.2.1zm.1 0zm-.4-2.4zm.5 2zm-.5-2.2c.1 0 .1 0 0 0 .1 0 .1 0 0 0zm0 0zm0-.1zm.2.8zm-.1-.2zm.2.5zm-.2-.5zm-.1-.8zm0 0zm0 0zm0 .1zm0 0zm-.1.1zm0 .1zm.1.3zm.1.1zm-.2 0 .1.1zm.2.7zm0 .2zm.1.8zm-2.5 5.5zm0 0zm0 .5zm0 .3zm0 .1zm0-.4zm.1-.4zm-.1.3s-.1 0 0 0zm-.1-.1s.1 0 0 0c.1 0 .1 0 0 0zm.1-.2zm0 .4zm.7 2.9zm-.1.1zm-.6-2.5zm.2.9zm-.1-1.8zm.1 1.8zm-.1-.7zm0-.2c0 .1 0 .1 0 0zm0 .3zm0 .1zm.5 1.7zm-.6-3c.1 0 .1 0 0 0 .1 0 .1 0 0 0 .1 0 0 0 0 0zm.3 1.2zm.2 1.2zm-.2-1.2zm.3 1.8zm.1.1s-.1 0 0 0c-.1 0 0 0 0 0s-.1 0 0 0c-.1 0-.1-.1 0 0-.1-.1-.1-.1 0 0-.1-.1-.1-.1 0 0l-.1-.1.1.1-.1-.1.1.1c0-.1-.1-.1 0-.1 0 0 .1 0 0 0 0 0-.1 0 0 0 0 0-.1 0 0 0v-.2s-.1 0 0-.1c0 0-.1 0 0 0v-.1l.1-.1v-.4s.1-.1 0-.1v-.1c.1 0 0-.1 0-.1v-.2h-.1s0-.1-.1-.1v-.1l-.1-.1h.1s-.1 0-.1-.1v-.1h-.1.1s-.1 0 0-.1v-.1s-.1 0 0-.1c-.1 0 0 0 0 0v-.1c.1 0-.1-.1 0-.1 0 0-.1 0 0 0h-.1.1V53h-.1c-.1 0 0 0 0 0h.1-.1c-.1 0 0 0 0 0h.1v.1s.1 0 0 .1c0 0 .1 0 0 0h.1-.1.1-.1v.1h.1-.1c-.1 0 0 .1 0 .1s.1 0 0 0h.2-.1.1-.1.1c-.1 0 0 0-.1.1v.1h.2s.1.1 0 .1l.1.1h-.1l.1.1v.1h.1c-.1 0 0 .1 0 .1v.1h.1v.1h.1-.1.1-.1.1c-.1 0 .1 0 0 .1v.1s-.1 0 0 .1h-.1.2-.1.1c-.6 1.1-.6 1.1-.6 1-.1.1 0 .1 0 0 0 .1 0 .1 0 0-.1.1-.1.1 0 0-.1 0-.1.1 0 0 0 .1-.1 0 0 0-.1 0-.1 0 0 0-.1 0 0 0 0 0-.1 0 0 0 0 0zm-.2-.3zm0 0zm-.1.1c0-.1 0-.1 0 0 0-.1 0-.1 0 0 0-.1 0-.1 0 0zm0 0v-.1zm-.4-2.5zm.5 2zm-.4-2.1zm0-.1zm0-.1zm.2.8zm-.2-.2c.1 0 .1 0 0 0 .1 0 .1 0 0 0zm.2.5zm-.1-.5zm-.1-.8zm0 0c-.1 0-.1 0 0 0zm-.1 0zm.1.1zm0 0s-.1 0 0 0zm-.1.1c-.1 0-.1 0 0 0-.1 0 0 0 0 0zm-.1.1zm.1.3c0 .1 0 0 0 0zm.2.1h-.1zm-.2.1zm.1.6zm.1.2s0 .1 0 0c0 .1 0 0 0 0zm.1.9z" style="fill:#4b5d9a"/><g style="opacity:.6"><path d="M59.4 42.1zm-.1 0c.1 0 .1 0 0 0 .1 0 .1 0 0 0 .1 0 .1 0 0 0 .1 0 .1 0 0 0 .1 0 .1 0 0 0zm.1.5zm.1.4zm-.1 0zm0-.4c0 .1 0 0 0 0zm0-.4zm0 .3c-.1 0-.1 0 0 0zm-.1-.1s.1 0 0 0c.1 0 0 0 0 0zm0-.2zm.1.4zm.8 3zm-.1.1zm-.7-2.6zm.2 1c.1-.1.1 0 0 0 .1-.1.1-.1 0 0zm-.2-1.9zm.3 1.8zm-.2-.6zm0-.2zm0 .2s0 .1 0 0c0 .1 0 .1 0 0 0 .1 0 .1 0 0zm.1.1zm.5 1.8zm-.7-3.1zm.4 1.2zm.2 1.2zm-.2-1.1zm.3 1.8zm.1.1c-.1 0 0 0 0 0s-.1 0 0 0c-.1 0-.1 0 0 0-.1-.1-.1-.1 0 0-.1-.1-.1-.1 0 0l-.1-.1.1.1-.1-.1.1.1c0-.1-.1-.1 0-.1 0 0 .1 0 0-.1 0 0-.1 0 0 0 0 0-.1 0 0 0V45s-.1 0 0-.1c0 0-.1 0 0 0v-.6s.1-.1 0-.1v-.1c.1 0 0-.1 0-.1v-.2h-.1s0-.1-.1-.1c0 0-.1 0 0-.1l-.1-.1h.1s-.1 0-.1-.1v-.1h-.1.1s-.1 0 0-.1v-.1s-.1 0-.1-.1c-.1 0 0 0 0 0v-.1c.1 0-.1-.1 0-.1 0 0-.1 0 0 0h-.1.1v-.1h-.1c-.1 0 0 0 0 0h.1-.1c-.1 0 0 0 0 0h.1v.1s.1 0 0 .1c0 0 .1 0 0 0h.1-.1.1-.1v.1h.1-.1c-.1 0 0 .1 0 .1s.1 0 0 0h.3-.1.1c-.1 0 0 0-.1.1v.1h.2s.1.1 0 .1l.1.1h-.1l.1.1v.1h.1c-.1 0 0 .1 0 .1v.1h.1v.1h.1-.1.1-.1.1c0 .1.1 0 0 .1 0 .1.1.1 0 .2 0 0-.1.1 0 .1h-.1.2-.1.1-.1c-.4 1.1-.4 1.1-.4 1 0 .1-.1.1 0 0 0 0 0 .1 0 0 0 .1 0 0 0 0-.1 0 0 0 0 0zm-.1-.3zm-.1 0zm-.1.1s0-.1 0 0c0-.1 0 0 0 0zm0 0zm-.5-2.6zm.6 2.1zm-.5-2.2zm0-.1zm0-.1zm.2.8zm-.1-.2zm.2.5zm-.2-.5zm-.2-.8zm0 0zm0 0zm0 .1zm0 0s.1 0 0 0c.1 0 0 0 0 0zm-.1.1zm0 .1zm.1.4zm.2 0zm-.2.1zm.1.6c.1 0 0 0 0 0zm.1.3zm.2.8h-.1.1z" style="fill:#fff"/></g></g></svg>