<svg width="28" height="28" viewBox="0 0 28 28" fill="none" xmlns="http://www.w3.org/2000/svg">
<path d="M3 7.47828L8.65217 10.7392L14.3043 7.47828L8.65217 4.21741L3 7.47828Z" fill="#0EA449"/>
<path d="M14.3043 14L19.9565 10.7392L14.3043 7.47828L8.65217 10.7392L14.3043 14Z" fill="#ECEDF1"/>
<path d="M19.9565 10.7392L25.6087 7.47828L19.9565 4.21741L14.3043 7.47828L19.9565 10.7392Z" fill="#FFA200"/>
<path d="M19.9565 4.21741L14.3043 0.956543L8.65217 4.21741L14.3043 7.47828L19.9565 4.21741Z" fill="#D71608"/>
<path d="M19.9565 10.7392L14.3043 14V20.5218L19.9565 17.2609V10.7392Z" fill="#FFA200"/>
<path d="M25.6087 7.47828L19.9565 10.7392V17.2609L25.6087 14V7.47828Z" fill="#2B87FF"/>
<path d="M14.3043 27.0435L19.9565 23.7826V17.2609L14.3043 20.5218V27.0435Z" fill="#2B87FF"/>
<path d="M19.9565 23.7826L25.6087 20.5218V14L19.9565 17.2609V23.7826Z" fill="#2B87FF"/>
<path d="M3 7.47828V14L8.65217 17.2609V10.7392L3 7.47828Z" fill="#FFA200"/>
<path d="M14.3043 20.5218V14L8.65217 10.7392V17.2609L14.3043 20.5218Z" fill="#2B87FF"/>
<path d="M14.3043 27.0435V20.5218L8.65217 17.2609V23.7826L14.3043 27.0435Z" fill="#ECEDF1"/>
<path d="M3 14V20.5218L8.65217 23.7826V17.2609L3 14Z" fill="#ECEDF1"/>
<path d="M14.3043 0.956543L14.5216 0.579941C14.3872 0.502367 14.2215 0.502367 14.0871 0.579941L14.3043 0.956543ZM25.6087 7.47828H26.0435C26.0435 7.3229 25.9606 7.17933 25.826 7.10168L25.6087 7.47828ZM25.6087 20.5218L25.826 20.8984C25.9606 20.8207 26.0435 20.6771 26.0435 20.5218H25.6087ZM14.3043 27.0435L14.0871 27.4201C14.2215 27.4977 14.3872 27.4977 14.5216 27.4201L14.3043 27.0435ZM3 20.5218H2.56522C2.56522 20.6771 2.64814 20.8207 2.78273 20.8984L3 20.5218ZM3 7.47828L2.78273 7.10168C2.64814 7.17933 2.56522 7.3229 2.56522 7.47828H3ZM25.6087 7.47828L25.3914 7.10168L19.7393 10.3625L19.9565 10.7392L20.1738 11.1158L25.826 7.85489L25.6087 7.47828ZM19.9565 10.7392L19.7393 10.3625L14.0871 13.6234L14.3043 14L14.5216 14.3766L20.1738 11.1158L19.9565 10.7392ZM25.6087 20.5218L25.3914 20.1452L19.7393 23.406L19.9565 23.7826L20.1738 24.1592L25.826 20.8984L25.6087 20.5218ZM19.9565 23.7826L19.7393 23.406L14.0871 26.6669L14.3043 27.0435L14.5216 27.4201L20.1738 24.1592L19.9565 23.7826ZM14.3043 14H13.8696V20.5218H14.3043H14.7391V14H14.3043ZM14.3043 20.5218H13.8696V27.0435H14.3043H14.7391V20.5218H14.3043ZM25.6087 7.47828H25.1739V14H25.6087H26.0435V7.47828H25.6087ZM25.6087 14H25.1739V20.5218H25.6087H26.0435V14H25.6087ZM3 20.5218H3.43478V14H3H2.56522V20.5218H3ZM3 14H3.43478V7.47828H3H2.56522V14H3ZM3 7.47828L2.78273 7.85489L8.4349 11.1158L8.65217 10.7392L8.86944 10.3625L3.21727 7.10168L3 7.47828ZM8.65217 10.7392L8.4349 11.1158L14.0871 14.3766L14.3043 14L14.5216 13.6234L8.86944 10.3625L8.65217 10.7392ZM14.3043 27.0435L14.5216 26.6669L8.86944 23.406L8.65217 23.7826L8.4349 24.1592L14.0871 27.4201L14.3043 27.0435ZM8.65217 23.7826L8.86944 23.406L3.21727 20.1452L3 20.5218L2.78273 20.8984L8.4349 24.1592L8.65217 23.7826ZM14.3043 0.956543L14.0871 1.33315L19.7393 4.59402L19.9565 4.21741L20.1738 3.84081L14.5216 0.579941L14.3043 0.956543ZM19.9565 4.21741L19.7393 4.59402L25.3914 7.85489L25.6087 7.47828L25.826 7.10168L20.1738 3.84081L19.9565 4.21741ZM3 7.47828L3.21727 7.85489L8.86944 4.59402L8.65217 4.21741L8.4349 3.84081L2.78273 7.10168L3 7.47828ZM8.65217 4.21741L8.86944 4.59402L14.5216 1.33315L14.3043 0.956543L14.0871 0.579941L8.4349 3.84081L8.65217 4.21741ZM8.65217 4.21741L8.4349 4.59402L14.0871 7.85489L14.3043 7.47828L14.5216 7.10168L8.86944 3.84081L8.65217 4.21741ZM14.3043 7.47828L14.0871 7.10168L8.4349 10.3625L8.65217 10.7392L8.86944 11.1158L14.5216 7.85489L14.3043 7.47828ZM19.9565 10.7392L20.1738 10.3625L14.5216 7.10168L14.3043 7.47828L14.0871 7.85489L19.7393 11.1158L19.9565 10.7392ZM14.3043 7.47828L14.5216 7.85489L20.1738 4.59402L19.9565 4.21741L19.7393 3.84081L14.0871 7.10168L14.3043 7.47828ZM8.65217 10.7392H8.21739V17.2609H8.65217H9.08696V10.7392H8.65217ZM8.65217 17.2609L8.86944 16.8843L3.21727 13.6234L3 14L2.78273 14.3766L8.4349 17.6375L8.65217 17.2609ZM8.65217 17.2609H8.21739V23.7826H8.65217H9.08696V17.2609H8.65217ZM14.3043 20.5218L14.5216 20.1452L8.86944 16.8843L8.65217 17.2609L8.4349 17.6375L14.0871 20.8984L14.3043 20.5218ZM19.9565 10.7392H19.5217V17.2609H19.9565H20.3913V10.7392H19.9565ZM19.9565 17.2609L19.7393 16.8843L14.0871 20.1452L14.3043 20.5218L14.5216 20.8984L20.1738 17.6375L19.9565 17.2609ZM19.9565 17.2609L20.1738 17.6375L25.826 14.3766L25.6087 14L25.3914 13.6234L19.7393 16.8843L19.9565 17.2609ZM19.9565 17.2609H19.5217V23.7826H19.9565H20.3913V17.2609H19.9565Z" fill="#333333"/>
</svg>
