<svg width="512" height="512" viewBox="0 0 512 512" fill="none" xmlns="http://www.w3.org/2000/svg">
<path d="M105.531 169.191L180.765 212.596L255.999 169.191L180.765 125.787L105.531 169.191Z" fill="#0EA449"/>
<path d="M255.999 256L331.233 212.596L255.999 169.191L180.765 212.596L255.999 256Z" fill="#ECEDF1"/>
<path d="M331.233 212.596L406.467 169.191L331.233 125.787L255.999 169.191L331.233 212.596Z" fill="#FFA200"/>
<path d="M331.233 125.787L255.999 82.3828L180.765 125.787L255.999 169.191L331.233 125.787Z" fill="#D71608"/>
<path d="M331.233 212.596L255.999 256V342.808L331.233 299.404V212.596Z" fill="#FFA200"/>
<path d="M406.467 169.191L331.233 212.596V299.404L406.467 256V169.191Z" fill="#2B87FF"/>
<path d="M255.999 429.617L331.233 386.213V299.404L255.999 342.808V429.617Z" fill="#2B87FF"/>
<path d="M331.233 386.213L406.467 342.808V256L331.233 299.404V386.213Z" fill="#2B87FF"/>
<path d="M105.531 169.191V256L180.765 299.404V212.596L105.531 169.191Z" fill="#FFA200"/>
<path d="M255.999 342.808V256L180.765 212.596V299.404L255.999 342.808Z" fill="#2B87FF"/>
<path d="M255.999 429.617V342.808L180.765 299.404V386.213L255.999 429.617Z" fill="#ECEDF1"/>
<path d="M105.531 256V342.808L180.765 386.213V299.404L105.531 256Z" fill="#ECEDF1"/>
<path d="M255.999 82.3828L259.373 76.5345C257.285 75.3299 254.713 75.3299 252.625 76.5345L255.999 82.3828ZM406.467 169.191H413.219C413.219 166.778 411.932 164.549 409.841 163.343L406.467 169.191ZM406.467 342.808L409.841 348.657C411.932 347.451 413.219 345.221 413.219 342.808H406.467ZM255.999 429.617L252.625 435.465C254.713 436.67 257.285 436.67 259.373 435.465L255.999 429.617ZM105.531 342.808H98.7795C98.7795 345.221 100.067 347.451 102.157 348.657L105.531 342.808ZM105.531 169.191L102.157 163.343C100.067 164.549 98.7795 166.778 98.7795 169.191H105.531ZM406.467 169.191L403.093 163.343L327.859 206.747L331.233 212.596L334.607 218.444L409.841 175.04L406.467 169.191ZM331.233 212.596L327.859 206.747L252.625 250.152L255.999 256L259.373 261.848L334.607 218.444L331.233 212.596ZM406.467 342.808L403.093 336.96L327.859 380.364L331.233 386.213L334.607 392.061L409.841 348.657L406.467 342.808ZM331.233 386.213L327.859 380.364L252.625 423.769L255.999 429.617L259.373 435.465L334.607 392.061L331.233 386.213ZM255.999 256H249.248V342.808H255.999H262.751V256H255.999ZM255.999 342.808H249.248V429.617H255.999H262.751V342.808H255.999ZM406.467 169.191H399.716V256H406.467H413.219V169.191H406.467ZM406.467 256H399.716V342.808H406.467H413.219V256H406.467ZM105.531 342.808H112.283V256H105.531H98.7795V342.808H105.531ZM105.531 256H112.283V169.191H105.531H98.7795V256H105.531ZM105.531 169.191L102.157 175.04L177.391 218.444L180.765 212.596L184.139 206.747L108.905 163.343L105.531 169.191ZM180.765 212.596L177.391 218.444L252.625 261.848L255.999 256L259.373 250.152L184.139 206.747L180.765 212.596ZM255.999 429.617L259.373 423.769L184.139 380.364L180.765 386.213L177.391 392.061L252.625 435.465L255.999 429.617ZM180.765 386.213L184.139 380.364L108.905 336.96L105.531 342.808L102.157 348.657L177.391 392.061L180.765 386.213ZM255.999 82.3828L252.625 88.2311L327.859 131.635L331.233 125.787L334.607 119.939L259.373 76.5345L255.999 82.3828ZM331.233 125.787L327.859 131.635L403.093 175.04L406.467 169.191L409.841 163.343L334.607 119.939L331.233 125.787ZM105.531 169.191L108.905 175.04L184.139 131.635L180.765 125.787L177.391 119.939L102.157 163.343L105.531 169.191ZM180.765 125.787L184.139 131.635L259.373 88.2311L255.999 82.3828L252.625 76.5345L177.391 119.939L180.765 125.787ZM180.765 125.787L177.391 131.635L252.625 175.04L255.999 169.191L259.373 163.343L184.139 119.939L180.765 125.787ZM255.999 169.191L252.625 163.343L177.391 206.747L180.765 212.596L184.139 218.444L259.373 175.04L255.999 169.191ZM331.233 212.596L334.607 206.747L259.373 163.343L255.999 169.191L252.625 175.04L327.859 218.444L331.233 212.596ZM255.999 169.191L259.373 175.04L334.607 131.635L331.233 125.787L327.859 119.939L252.625 163.343L255.999 169.191ZM180.765 212.596H174.014V299.404H180.765H187.517V212.596H180.765ZM180.765 299.404L184.139 293.556L108.905 250.152L105.531 256L102.157 261.848L177.391 305.252L180.765 299.404ZM180.765 299.404H174.014V386.213H180.765H187.517V299.404H180.765ZM255.999 342.808L259.373 336.96L184.139 293.556L180.765 299.404L177.391 305.252L252.625 348.657L255.999 342.808ZM331.233 212.596H324.482V299.404H331.233H337.985V212.596H331.233ZM331.233 299.404L327.859 293.556L252.625 336.96L255.999 342.808L259.373 348.657L334.607 305.252L331.233 299.404ZM331.233 299.404L334.607 305.252L409.841 261.848L406.467 256L403.093 250.152L327.859 293.556L331.233 299.404ZM331.233 299.404H324.482V386.213H331.233H337.985V299.404H331.233Z" fill="black"/>
</svg>
