<svg width="40" height="40" viewBox="0 0 40 40" fill="none" xmlns="http://www.w3.org/2000/svg">
<path fill-rule="evenodd" clip-rule="evenodd" d="M37.3405 9.99974V30.0003L20.0001 40L2.65967 30.0003V9.99974L20.0001 0L37.3405 9.99974ZM12.4469 33.9255L19.2554 37.8519V30.0003L12.4469 26.0739V33.9255ZM20.7448 30.0003V37.8519L27.5533 33.9255V26.0739L20.7448 30.0003ZM4.14903 29.1403L10.9575 33.0667V25.2151L4.14903 21.2887V29.1403ZM29.0426 25.2151V33.0667L35.8512 29.1403V21.2887L29.0426 25.2151ZM12.4469 24.3551L19.2554 28.2815V20.4299L12.4469 16.5035V24.3551ZM20.7448 20.4299V28.2815L27.5533 24.3551V16.5035L20.7448 20.4299ZM4.14903 19.57L10.9575 23.4964V15.6447L4.14903 11.7184V19.57ZM29.0426 15.6447V23.4964L35.8512 19.57V11.7184L29.0426 15.6447ZM13.1924 15.2148L20.0001 19.1406L26.8077 15.2148L20.0001 11.289L13.1924 15.2148ZM4.89454 10.4297L11.7022 14.3554L18.5098 10.4297L11.7022 6.5038L4.89454 10.4297ZM21.4903 10.4297L28.298 14.3554L35.1055 10.4297L28.298 6.5038L21.4903 10.4297ZM13.1924 5.64449L20.0001 9.57024L26.8077 5.64449L20.0001 1.71863L13.1924 5.64449Z" fill="#333333"/>
</svg>
